G04*
G04 #@! TF.GenerationSoftware,Altium Limited,Altium Designer,21.2.2 (38)*
G04*
G04 Layer_Color=8388736*
%FSLAX25Y25*%
%MOIN*%
G70*
G04*
G04 #@! TF.SameCoordinates,5E26766D-3DBA-4CA4-B54A-4570E1BC07D3*
G04*
G04*
G04 #@! TF.FilePolarity,Negative*
G04*
G01*
G75*
%ADD17R,0.05524X0.05524*%
%ADD18R,0.05524X0.05524*%
%ADD19R,0.07008X0.13504*%
%ADD20R,0.04540X0.03950*%
%ADD21R,0.04540X0.04934*%
%ADD22R,0.03950X0.02769*%
%ADD23R,0.13504X0.07008*%
%ADD24R,0.03359X0.03556*%
%ADD25R,0.03556X0.03359*%
%ADD26R,0.06115X0.02178*%
%ADD27R,0.02178X0.06115*%
%ADD28R,0.04147X0.03753*%
G04:AMPARAMS|DCode=29|XSize=43.31mil|YSize=23.62mil|CornerRadius=2.01mil|HoleSize=0mil|Usage=FLASHONLY|Rotation=0.000|XOffset=0mil|YOffset=0mil|HoleType=Round|Shape=RoundedRectangle|*
%AMROUNDEDRECTD29*
21,1,0.04331,0.01961,0,0,0.0*
21,1,0.03929,0.02362,0,0,0.0*
1,1,0.00402,0.01965,-0.00980*
1,1,0.00402,-0.01965,-0.00980*
1,1,0.00402,-0.01965,0.00980*
1,1,0.00402,0.01965,0.00980*
%
%ADD29ROUNDEDRECTD29*%
%ADD30R,0.03753X0.04147*%
%ADD31R,0.04453X0.03591*%
%ADD32R,0.02756X0.02756*%
%ADD33R,0.08280X0.04540*%
%ADD34R,0.08280X0.13595*%
%ADD35R,0.04147X0.02178*%
%ADD36R,0.03162X0.03950*%
%ADD37R,0.03950X0.04540*%
%ADD38R,0.02559X0.01378*%
%ADD39R,0.02473X0.02257*%
%ADD40R,0.07887X0.03950*%
%ADD41R,0.03950X0.03950*%
%ADD42R,0.02756X0.02559*%
%ADD43R,0.03753X0.01981*%
%ADD44R,0.05131X0.04540*%
%ADD45R,0.07887X0.05524*%
%ADD46R,0.06804X0.03359*%
%ADD47R,0.13005X0.09461*%
%ADD48R,0.07099X0.11824*%
%ADD49R,0.06706X0.06784*%
%ADD50R,0.05733X0.05426*%
%ADD51R,0.04343X0.04147*%
%ADD52R,0.04934X0.04343*%
%ADD53R,0.02375X0.05524*%
%ADD54R,0.09658X0.04343*%
%ADD55R,0.05131X0.05131*%
%ADD56R,0.03950X0.04737*%
%ADD57R,0.03556X0.04343*%
%ADD58R,0.01587X0.04540*%
%ADD59R,0.25603X0.22650*%
%ADD60R,0.07808X0.13202*%
%ADD61R,0.04147X0.04343*%
%ADD62R,0.04540X0.01587*%
%ADD63R,0.01981X0.03753*%
%ADD64R,0.03740X0.05315*%
%ADD65R,0.03543X0.02953*%
%ADD66R,0.03543X0.03150*%
%ADD67R,0.01378X0.02559*%
%ADD68R,0.03359X0.03753*%
%ADD69R,0.04540X0.05131*%
%ADD70R,0.04147X0.04147*%
%ADD71R,0.02648X0.02816*%
%ADD72R,0.02953X0.03543*%
%ADD73R,0.03713X0.03871*%
%ADD74R,0.02029X0.01860*%
%ADD75R,0.03713X0.04422*%
%ADD76R,0.08674X0.04737*%
%ADD77R,0.05131X0.06706*%
%ADD78R,0.08162X0.07099*%
%ADD79R,0.04816X0.04107*%
%ADD80R,0.08477X0.05524*%
%ADD81R,0.06102X0.05118*%
%ADD82R,0.02756X0.02756*%
%ADD83R,0.11036X0.11430*%
%ADD84R,0.02178X0.03950*%
%ADD85R,0.04934X0.04540*%
%ADD86R,0.19698X0.19698*%
%ADD87R,0.09461X0.06902*%
%ADD88R,0.13398X0.09068*%
%ADD89R,0.07296X0.06706*%
%ADD90R,0.17217X0.06902*%
%ADD91R,0.06194X0.06194*%
%ADD92C,0.06194*%
%ADD93C,0.06902*%
%ADD94R,0.06902X0.06902*%
%ADD95C,0.08871*%
%ADD96R,0.08871X0.08871*%
%ADD97C,0.16548*%
%ADD98R,0.06194X0.06194*%
%ADD99C,0.03162*%
%ADD100C,0.02375*%
%ADD101C,0.02769*%
D17*
X685366Y238500D02*
D03*
X693634D02*
D03*
X669634Y266000D02*
D03*
X661366D02*
D03*
X126866Y9000D02*
D03*
X135134D02*
D03*
D18*
X190000Y34866D02*
D03*
Y43134D02*
D03*
X219000Y205232D02*
D03*
X226500Y204866D02*
D03*
X234000D02*
D03*
X219000Y213500D02*
D03*
X226500Y213134D02*
D03*
X234000D02*
D03*
D19*
X516500Y25000D02*
D03*
X243000Y232000D02*
D03*
X261000Y63000D02*
D03*
X246000Y214500D02*
D03*
X763500Y177000D02*
D03*
X300000Y102000D02*
D03*
D20*
X670000Y260921D02*
D03*
Y256000D02*
D03*
X120500Y9539D02*
D03*
Y14461D02*
D03*
X742000Y81941D02*
D03*
Y87059D02*
D03*
X234000Y194539D02*
D03*
X226500D02*
D03*
X219000D02*
D03*
Y199461D02*
D03*
X226500D02*
D03*
X234000D02*
D03*
D21*
X646646Y266000D02*
D03*
X652354D02*
D03*
X736354Y97000D02*
D03*
X730646D02*
D03*
D22*
X731937Y103500D02*
D03*
X724063D02*
D03*
D23*
X164000Y137000D02*
D03*
X131500Y17500D02*
D03*
X336000Y134500D02*
D03*
X304000Y124500D02*
D03*
X525500Y158500D02*
D03*
X320500Y53000D02*
D03*
X316500Y84000D02*
D03*
X263252Y240000D02*
D03*
X370000Y23500D02*
D03*
X145500Y136500D02*
D03*
X276000Y226000D02*
D03*
X130500Y78000D02*
D03*
X59000Y29000D02*
D03*
X518000Y62000D02*
D03*
X685000Y187000D02*
D03*
X521000Y46500D02*
D03*
X290000Y174000D02*
D03*
X539000Y87500D02*
D03*
X309000Y169000D02*
D03*
X267500Y208500D02*
D03*
X127000Y140000D02*
D03*
X288500Y200000D02*
D03*
X521500Y134500D02*
D03*
D24*
X21500Y41130D02*
D03*
Y44870D02*
D03*
X17500Y30630D02*
D03*
Y34370D02*
D03*
X49000Y63130D02*
D03*
Y66870D02*
D03*
Y50500D02*
D03*
Y54240D02*
D03*
X253000Y238870D02*
D03*
Y235130D02*
D03*
X664000Y239130D02*
D03*
X646500Y234130D02*
D03*
X247500Y191630D02*
D03*
X700500Y192000D02*
D03*
X709500D02*
D03*
X714000D02*
D03*
X187500Y87370D02*
D03*
X192000Y87500D02*
D03*
X261000Y191630D02*
D03*
X256500Y195370D02*
D03*
X247500D02*
D03*
X664000Y242870D02*
D03*
X187500Y83630D02*
D03*
X192000Y83760D02*
D03*
X256500Y191630D02*
D03*
X705000Y192000D02*
D03*
X646500Y237870D02*
D03*
X714000Y195740D02*
D03*
X709500D02*
D03*
X705000D02*
D03*
X700500D02*
D03*
X261000Y195370D02*
D03*
D25*
X48630Y20500D02*
D03*
X52370D02*
D03*
X651760Y45000D02*
D03*
Y49500D02*
D03*
X173370Y149000D02*
D03*
X57370Y36500D02*
D03*
X280260Y166000D02*
D03*
X280130Y162000D02*
D03*
X279760Y146500D02*
D03*
X279130Y122500D02*
D03*
Y126500D02*
D03*
Y116000D02*
D03*
Y112000D02*
D03*
Y104000D02*
D03*
X279260Y100000D02*
D03*
X114370Y92000D02*
D03*
X728130Y213500D02*
D03*
X169630Y149000D02*
D03*
X53630Y36500D02*
D03*
X283740Y158000D02*
D03*
Y150500D02*
D03*
X282870Y116000D02*
D03*
X283000Y100000D02*
D03*
X280000Y158000D02*
D03*
X279630Y142500D02*
D03*
X280000Y150500D02*
D03*
X173370Y153000D02*
D03*
X731870Y213500D02*
D03*
X655500Y45000D02*
D03*
Y49500D02*
D03*
X264870Y74500D02*
D03*
X265000Y78500D02*
D03*
X110630Y92000D02*
D03*
X261260Y78500D02*
D03*
X284000Y166000D02*
D03*
X283370Y142500D02*
D03*
X282870Y122500D02*
D03*
Y112000D02*
D03*
X283870Y162000D02*
D03*
X283500Y146500D02*
D03*
X282870Y126500D02*
D03*
Y104000D02*
D03*
X169630Y153000D02*
D03*
X261130Y74500D02*
D03*
D26*
X181169Y150264D02*
D03*
Y144358D02*
D03*
X264831Y101051D02*
D03*
Y164043D02*
D03*
Y162075D02*
D03*
Y144358D02*
D03*
Y122705D02*
D03*
Y124673D02*
D03*
Y118768D02*
D03*
Y112862D02*
D03*
Y114831D02*
D03*
Y110894D02*
D03*
Y108925D02*
D03*
X181169Y116799D02*
D03*
Y110894D02*
D03*
Y108925D02*
D03*
Y169949D02*
D03*
X264831Y160106D02*
D03*
Y106957D02*
D03*
Y142390D02*
D03*
Y146327D02*
D03*
Y120736D02*
D03*
X181169Y152232D02*
D03*
Y114831D02*
D03*
Y164043D02*
D03*
Y166012D02*
D03*
Y156169D02*
D03*
Y162075D02*
D03*
Y103020D02*
D03*
Y112862D02*
D03*
X264831Y167980D02*
D03*
X181169Y101051D02*
D03*
Y104988D02*
D03*
Y106957D02*
D03*
Y118768D02*
D03*
Y120736D02*
D03*
Y122705D02*
D03*
Y124673D02*
D03*
Y126642D02*
D03*
Y128610D02*
D03*
Y130579D02*
D03*
Y132547D02*
D03*
Y134516D02*
D03*
Y136484D02*
D03*
Y138453D02*
D03*
Y140421D02*
D03*
Y142390D02*
D03*
Y146327D02*
D03*
Y148295D02*
D03*
Y154201D02*
D03*
Y158138D02*
D03*
Y160106D02*
D03*
Y167980D02*
D03*
X264831Y169949D02*
D03*
Y166012D02*
D03*
Y158138D02*
D03*
Y156169D02*
D03*
Y154201D02*
D03*
Y152232D02*
D03*
Y150264D02*
D03*
Y148295D02*
D03*
Y140421D02*
D03*
Y138453D02*
D03*
Y136484D02*
D03*
Y134516D02*
D03*
Y132547D02*
D03*
Y130579D02*
D03*
Y128610D02*
D03*
Y126642D02*
D03*
Y116799D02*
D03*
Y104988D02*
D03*
Y103020D02*
D03*
D27*
X231858Y177331D02*
D03*
X233827D02*
D03*
X239732D02*
D03*
X241701D02*
D03*
X243669D02*
D03*
X249575D02*
D03*
X216110Y93669D02*
D03*
X225953D02*
D03*
X227921D02*
D03*
X251543Y177331D02*
D03*
X229890Y93669D02*
D03*
X210205D02*
D03*
X188551D02*
D03*
X190520D02*
D03*
X257449Y177331D02*
D03*
X227921D02*
D03*
X225953D02*
D03*
X223984D02*
D03*
X251543Y93669D02*
D03*
X233827D02*
D03*
X231858D02*
D03*
X206268D02*
D03*
X208236D02*
D03*
X235795D02*
D03*
X194457Y177331D02*
D03*
X245638D02*
D03*
X247606D02*
D03*
X222016Y93669D02*
D03*
X223984D02*
D03*
X237764D02*
D03*
X255480Y177331D02*
D03*
X253512D02*
D03*
X241701Y93669D02*
D03*
X239732D02*
D03*
X206268Y177331D02*
D03*
X208236D02*
D03*
X192488D02*
D03*
X188551D02*
D03*
X190520D02*
D03*
X196425D02*
D03*
X198394D02*
D03*
X200362D02*
D03*
X202331D02*
D03*
X204299D02*
D03*
X210205D02*
D03*
X212173D02*
D03*
X214142D02*
D03*
X216110D02*
D03*
X218079D02*
D03*
X220047D02*
D03*
X222016D02*
D03*
X229890D02*
D03*
X235795D02*
D03*
X237764D02*
D03*
X257449Y93669D02*
D03*
X249575D02*
D03*
X247606D02*
D03*
X245638D02*
D03*
X243669D02*
D03*
X220047D02*
D03*
X218079D02*
D03*
X214142D02*
D03*
X212173D02*
D03*
X204299D02*
D03*
X202331D02*
D03*
X200362D02*
D03*
X198394D02*
D03*
X196425D02*
D03*
X194457D02*
D03*
X192488D02*
D03*
X255480D02*
D03*
X253512D02*
D03*
D28*
X237752Y246941D02*
D03*
Y252059D02*
D03*
X664500Y247882D02*
D03*
X411500Y166059D02*
D03*
X412000Y72500D02*
D03*
X345000Y162059D02*
D03*
X340941Y64559D02*
D03*
X327000Y159441D02*
D03*
X323000Y61441D02*
D03*
X411500Y160941D02*
D03*
X412000Y67382D02*
D03*
X168000Y101559D02*
D03*
X664500Y253000D02*
D03*
X340941Y59441D02*
D03*
X323000Y66559D02*
D03*
X327000Y164559D02*
D03*
X345000Y156941D02*
D03*
X168000Y96441D02*
D03*
D29*
X264870Y255740D02*
D03*
X254634Y248260D02*
D03*
Y255740D02*
D03*
X264870Y248260D02*
D03*
X254634Y252000D02*
D03*
D30*
X247811D02*
D03*
X242693D02*
D03*
X413559Y216000D02*
D03*
X413059Y118000D02*
D03*
X451941Y127500D02*
D03*
X452441Y35500D02*
D03*
X455559Y215000D02*
D03*
X452559Y117000D02*
D03*
X327059Y73000D02*
D03*
X695059Y195500D02*
D03*
X331559Y170500D02*
D03*
X743941Y211500D02*
D03*
X457059Y127500D02*
D03*
X457559Y35500D02*
D03*
X450441Y215000D02*
D03*
X447441Y117000D02*
D03*
X408441Y216000D02*
D03*
X407941Y118000D02*
D03*
X172559Y113500D02*
D03*
X689941Y195500D02*
D03*
X749059Y211500D02*
D03*
X321941Y73000D02*
D03*
X326441Y170500D02*
D03*
X167441Y113500D02*
D03*
D31*
X242730Y258000D02*
D03*
X247774D02*
D03*
D32*
X259496Y263000D02*
D03*
X265008D02*
D03*
X105000Y109000D02*
D03*
X692256Y232500D02*
D03*
Y220000D02*
D03*
X263744Y184000D02*
D03*
X726756Y199500D02*
D03*
X721244D02*
D03*
X686744Y220000D02*
D03*
X687000Y226000D02*
D03*
X692512D02*
D03*
X686744Y232500D02*
D03*
X333185Y74000D02*
D03*
X338697D02*
D03*
X99488Y109000D02*
D03*
X269256Y184000D02*
D03*
X343256Y172500D02*
D03*
X337744D02*
D03*
X187256Y184000D02*
D03*
X181744D02*
D03*
X235744Y184500D02*
D03*
X241256D02*
D03*
X652500Y237000D02*
D03*
X658012D02*
D03*
D33*
X419984Y94945D02*
D03*
Y104000D02*
D03*
Y113055D02*
D03*
X459517Y103894D02*
D03*
X459492Y63000D02*
D03*
X419492Y165555D02*
D03*
X419984Y72055D02*
D03*
X419492Y207555D02*
D03*
X457492Y165555D02*
D03*
X459492Y72055D02*
D03*
X457492Y207555D02*
D03*
X459517Y112949D02*
D03*
X457492Y147445D02*
D03*
X419492Y156500D02*
D03*
X459492Y53945D02*
D03*
X419984Y63000D02*
D03*
X457492Y189445D02*
D03*
X419492Y198500D02*
D03*
X459517Y94839D02*
D03*
X419492Y147445D02*
D03*
Y189445D02*
D03*
X419984Y53945D02*
D03*
X457492Y198500D02*
D03*
Y156500D02*
D03*
D34*
X444000Y104000D02*
D03*
X483533Y103894D02*
D03*
X483508Y63000D02*
D03*
X443508Y156500D02*
D03*
X444000Y63000D02*
D03*
X443508Y198500D02*
D03*
X481508D02*
D03*
Y156500D02*
D03*
D35*
X125215Y112518D02*
D03*
X109664Y108581D02*
D03*
X125215Y106613D02*
D03*
Y114487D02*
D03*
X109664Y104644D02*
D03*
X125215D02*
D03*
Y108581D02*
D03*
Y110550D02*
D03*
X109664Y106613D02*
D03*
Y110550D02*
D03*
Y112518D02*
D03*
Y114487D02*
D03*
D36*
X736224Y82000D02*
D03*
X731500Y87512D02*
D03*
X736224D02*
D03*
X731500Y82000D02*
D03*
D37*
X744441Y108000D02*
D03*
X749559D02*
D03*
X720941Y45500D02*
D03*
X726059D02*
D03*
X720441Y87500D02*
D03*
X725559D02*
D03*
D38*
X744500Y103000D02*
D03*
Y99654D02*
D03*
D39*
X742000Y92500D02*
D03*
X744661Y96437D02*
D03*
X742000Y94468D02*
D03*
Y96437D02*
D03*
X744661Y92500D02*
D03*
Y94468D02*
D03*
D40*
X713000Y45705D02*
D03*
Y79169D02*
D03*
X665756Y50035D02*
D03*
Y54366D02*
D03*
X713000Y87831D02*
D03*
Y74839D02*
D03*
Y50035D02*
D03*
X665756Y37043D02*
D03*
Y41374D02*
D03*
Y45705D02*
D03*
Y58697D02*
D03*
Y63028D02*
D03*
Y74839D02*
D03*
Y79169D02*
D03*
Y83500D02*
D03*
Y87831D02*
D03*
Y92161D02*
D03*
X713000D02*
D03*
Y83500D02*
D03*
Y63028D02*
D03*
Y58697D02*
D03*
Y54366D02*
D03*
Y41374D02*
D03*
Y37043D02*
D03*
D41*
X727952Y39000D02*
D03*
X722047D02*
D03*
D42*
X130500Y106158D02*
D03*
Y100842D02*
D03*
D43*
X724425Y210559D02*
D03*
Y215677D02*
D03*
Y213118D02*
D03*
Y220795D02*
D03*
X701000Y208000D02*
D03*
X724425Y218236D02*
D03*
X701000Y220795D02*
D03*
Y215677D02*
D03*
Y213118D02*
D03*
Y210559D02*
D03*
X724425Y223354D02*
D03*
X701000D02*
D03*
Y218236D02*
D03*
X724425Y208000D02*
D03*
D44*
X250500Y76854D02*
D03*
X217500Y68146D02*
D03*
X680000Y213646D02*
D03*
Y219354D02*
D03*
X250500Y71146D02*
D03*
X217500Y73854D02*
D03*
D45*
X241874Y77724D02*
D03*
X226126Y68276D02*
D03*
Y77724D02*
D03*
X241874Y68276D02*
D03*
D46*
X358075Y50192D02*
D03*
X358323Y94500D02*
D03*
X359323Y134500D02*
D03*
Y139500D02*
D03*
X358075Y45192D02*
D03*
Y40192D02*
D03*
X358823Y179000D02*
D03*
Y184000D02*
D03*
X358323Y89500D02*
D03*
Y84500D02*
D03*
X380177Y184000D02*
D03*
Y174000D02*
D03*
X379677Y89500D02*
D03*
Y79500D02*
D03*
X380677Y139500D02*
D03*
Y129500D02*
D03*
X379429Y45192D02*
D03*
Y35192D02*
D03*
X380177Y189000D02*
D03*
X379677Y94500D02*
D03*
X380677Y144500D02*
D03*
X379429Y50192D02*
D03*
X380677Y134500D02*
D03*
X379429Y40192D02*
D03*
X380177Y179000D02*
D03*
X379677Y84500D02*
D03*
X358823Y189000D02*
D03*
X359323Y144500D02*
D03*
X358323Y79500D02*
D03*
X358075Y35192D02*
D03*
X359323Y129500D02*
D03*
X358823Y174000D02*
D03*
D47*
X475764Y43000D02*
D03*
Y84000D02*
D03*
X378764Y204500D02*
D03*
X373764Y112000D02*
D03*
X379764Y160500D02*
D03*
X374500Y65000D02*
D03*
X436764Y135500D02*
D03*
X436264Y43000D02*
D03*
X436764Y177500D02*
D03*
Y83500D02*
D03*
X474764Y177500D02*
D03*
Y135500D02*
D03*
D48*
X500000Y72535D02*
D03*
X498000Y165035D02*
D03*
X500000Y89465D02*
D03*
X498000Y181965D02*
D03*
D49*
X361823Y65000D02*
D03*
X361087Y112000D02*
D03*
X462087Y135500D02*
D03*
X463087Y43000D02*
D03*
X462087Y177500D02*
D03*
X463087Y84000D02*
D03*
X424087Y135500D02*
D03*
Y177500D02*
D03*
X423587Y43000D02*
D03*
X424087Y83500D02*
D03*
X367087Y160500D02*
D03*
X366087Y204500D02*
D03*
D50*
X349000Y110008D02*
D03*
X349500Y65008D02*
D03*
X354500Y204008D02*
D03*
X355500Y161008D02*
D03*
X349500Y58992D02*
D03*
X349000Y103992D02*
D03*
X355500Y154992D02*
D03*
X354500Y197992D02*
D03*
D51*
X659000Y248059D02*
D03*
Y242941D02*
D03*
D52*
X670500Y247354D02*
D03*
Y241646D02*
D03*
D53*
X651618Y251500D02*
D03*
X646500D02*
D03*
Y244020D02*
D03*
X649059D02*
D03*
X651618D02*
D03*
D54*
X637929Y258976D02*
D03*
Y241024D02*
D03*
D55*
X646941Y259000D02*
D03*
X652059D02*
D03*
D56*
X658500D02*
D03*
X637953Y232500D02*
D03*
X747453Y237862D02*
D03*
X741547D02*
D03*
X746453Y249862D02*
D03*
X740547D02*
D03*
X664405Y259000D02*
D03*
X632047Y232500D02*
D03*
D57*
X392256Y174000D02*
D03*
X391756Y79500D02*
D03*
X392756Y129500D02*
D03*
X391756Y35000D02*
D03*
X392756Y139500D02*
D03*
X391756Y45000D02*
D03*
X392256Y184000D02*
D03*
X391756Y89500D02*
D03*
X386744Y184000D02*
D03*
Y174000D02*
D03*
X386244Y89500D02*
D03*
Y79500D02*
D03*
X387244Y139500D02*
D03*
Y129500D02*
D03*
X386244Y45000D02*
D03*
Y35000D02*
D03*
D58*
X328701Y67905D02*
D03*
X334425Y159047D02*
D03*
X330276Y62000D02*
D03*
X334425Y164953D02*
D03*
X330276Y67905D02*
D03*
X332850Y164953D02*
D03*
Y159047D02*
D03*
X328701Y62000D02*
D03*
X336000Y164953D02*
D03*
X337575D02*
D03*
X339150D02*
D03*
Y159047D02*
D03*
X337575D02*
D03*
X336000D02*
D03*
X331850Y67905D02*
D03*
X333425D02*
D03*
X335000D02*
D03*
Y62000D02*
D03*
X333425D02*
D03*
X331850D02*
D03*
D59*
X611945Y250000D02*
D03*
D60*
X590795Y249500D02*
D03*
X570205D02*
D03*
D61*
X380059Y195000D02*
D03*
X379559Y100500D02*
D03*
X380559Y150500D02*
D03*
X379059Y56000D02*
D03*
X375441Y150500D02*
D03*
X373941Y56000D02*
D03*
X374941Y195000D02*
D03*
X374441Y100500D02*
D03*
D62*
X339543Y162000D02*
D03*
X335394Y64953D02*
D03*
X332457Y162000D02*
D03*
X328307Y64953D02*
D03*
D63*
X712713Y203965D02*
D03*
X710153D02*
D03*
X707594D02*
D03*
X705035D02*
D03*
X712713Y227390D02*
D03*
X720390D02*
D03*
X715272Y203965D02*
D03*
X717831D02*
D03*
X720390D02*
D03*
X717831Y227390D02*
D03*
X715272D02*
D03*
X710153D02*
D03*
X707594D02*
D03*
X705035D02*
D03*
D64*
X450547Y25000D02*
D03*
X621095Y22500D02*
D03*
X456453Y25000D02*
D03*
X627000Y22500D02*
D03*
D65*
X701000Y237776D02*
D03*
X715000Y237638D02*
D03*
X727500Y255500D02*
D03*
X715000Y242362D02*
D03*
X701000Y242500D02*
D03*
X727500Y260224D02*
D03*
D66*
X708000Y237547D02*
D03*
Y243453D02*
D03*
D67*
X720827Y237362D02*
D03*
X724173D02*
D03*
D68*
X687500Y213500D02*
D03*
X691437Y208382D02*
D03*
X687500D02*
D03*
X691437Y213500D02*
D03*
D69*
X691354Y203000D02*
D03*
X685646D02*
D03*
D70*
X728500Y241626D02*
D03*
Y237098D02*
D03*
D71*
Y246478D02*
D03*
X734500Y228616D02*
D03*
X728500Y250246D02*
D03*
X734500Y232384D02*
D03*
D72*
X741638Y243362D02*
D03*
X746362D02*
D03*
D73*
X728500Y232291D02*
D03*
Y228433D02*
D03*
D74*
X733500Y249862D02*
D03*
X736481D02*
D03*
D75*
X732559Y254862D02*
D03*
X737441D02*
D03*
D76*
X83805Y131384D02*
D03*
Y136108D02*
D03*
D77*
X39041Y128825D02*
D03*
D78*
X7329Y151935D02*
D03*
D79*
X742500Y255224D02*
D03*
Y260500D02*
D03*
D80*
X67408Y208923D02*
D03*
Y218766D02*
D03*
Y147900D02*
D03*
Y153805D02*
D03*
Y199081D02*
D03*
Y169553D02*
D03*
Y189238D02*
D03*
Y179396D02*
D03*
Y159711D02*
D03*
D81*
X174850Y226142D02*
D03*
X206150D02*
D03*
Y243858D02*
D03*
X174850D02*
D03*
D82*
X167000Y226500D02*
D03*
X104000Y120256D02*
D03*
Y114744D02*
D03*
X271000Y156756D02*
D03*
Y151244D02*
D03*
X174500Y99000D02*
D03*
Y93488D02*
D03*
X271500Y170244D02*
D03*
Y175756D02*
D03*
X167000Y232012D02*
D03*
D83*
X117439Y109565D02*
D03*
D84*
X112518Y101691D02*
D03*
X114487D02*
D03*
X116455D02*
D03*
X118423D02*
D03*
X120392D02*
D03*
X122361D02*
D03*
X112518Y117439D02*
D03*
X114487D02*
D03*
X116455D02*
D03*
X118423D02*
D03*
X120392D02*
D03*
X122361D02*
D03*
D85*
X682000Y43354D02*
D03*
Y37646D02*
D03*
D86*
X712713Y215677D02*
D03*
D87*
X81679Y238175D02*
D03*
D88*
X100104Y228707D02*
D03*
Y135006D02*
D03*
D89*
X6896Y128825D02*
D03*
D90*
X11856Y238175D02*
D03*
D91*
X170500Y264000D02*
D03*
X411000Y266000D02*
D03*
X426500Y259500D02*
D03*
X496000Y230500D02*
D03*
X455500Y15500D02*
D03*
X639000Y12000D02*
D03*
X598000Y267500D02*
D03*
X544500Y230500D02*
D03*
D92*
X180500Y264000D02*
D03*
X190500D02*
D03*
X200500D02*
D03*
X210500D02*
D03*
X220500D02*
D03*
X401000Y266000D02*
D03*
X391000D02*
D03*
X381000D02*
D03*
X371000D02*
D03*
X361000D02*
D03*
X351000D02*
D03*
X341000D02*
D03*
Y256000D02*
D03*
X351000D02*
D03*
X361000D02*
D03*
X371000D02*
D03*
X381000D02*
D03*
X391000D02*
D03*
X401000D02*
D03*
X411000D02*
D03*
X226500Y250500D02*
D03*
X29000Y89000D02*
D03*
Y99000D02*
D03*
X574500Y230500D02*
D03*
X564500D02*
D03*
X578000Y267500D02*
D03*
X568000D02*
D03*
X456500Y259500D02*
D03*
X446500D02*
D03*
X526000Y230500D02*
D03*
X516000D02*
D03*
X435500Y15500D02*
D03*
X425500D02*
D03*
X619000Y12000D02*
D03*
X609000D02*
D03*
X436500Y259500D02*
D03*
X506000Y230500D02*
D03*
X445500Y15500D02*
D03*
X629000Y12000D02*
D03*
X269500Y30000D02*
D03*
Y40000D02*
D03*
X588000Y267500D02*
D03*
X269500Y20000D02*
D03*
X554500Y230500D02*
D03*
D93*
X40044Y20634D02*
D03*
Y30634D02*
D03*
Y40634D02*
D03*
Y50634D02*
D03*
Y60634D02*
D03*
X30044Y20634D02*
D03*
Y30634D02*
D03*
Y40634D02*
D03*
Y50634D02*
D03*
D94*
Y60634D02*
D03*
D95*
X777500Y118000D02*
D03*
Y98000D02*
D03*
X757500D02*
D03*
Y118000D02*
D03*
X777000Y247500D02*
D03*
Y227500D02*
D03*
X757000D02*
D03*
Y247500D02*
D03*
D96*
X767500Y108000D02*
D03*
X767000Y237500D02*
D03*
D97*
X296500Y75500D02*
D03*
X510500Y199000D02*
D03*
X492425Y255815D02*
D03*
Y19594D02*
D03*
X689276D02*
D03*
Y255815D02*
D03*
X295575Y19594D02*
D03*
X98724D02*
D03*
X295575Y255815D02*
D03*
X98724D02*
D03*
D98*
X226500Y240500D02*
D03*
X29000Y79000D02*
D03*
X269500Y10000D02*
D03*
D99*
X173000Y125500D02*
D03*
X204000Y253500D02*
D03*
X687000Y85000D02*
D03*
X659500Y178500D02*
D03*
X475500Y108500D02*
D03*
X451000Y182000D02*
D03*
X448500Y45000D02*
D03*
X447500Y139500D02*
D03*
X436500Y136500D02*
D03*
X432000Y42000D02*
D03*
X407000Y84500D02*
D03*
Y179000D02*
D03*
X138676Y222244D02*
D03*
X148676Y246744D02*
D03*
X161500Y217500D02*
D03*
X552701Y266179D02*
D03*
X553822Y257614D02*
D03*
X534691Y253172D02*
D03*
X538191Y265172D02*
D03*
X681500Y237000D02*
D03*
X194500Y34500D02*
D03*
X324500Y32000D02*
D03*
X514750Y36500D02*
D03*
X139500Y9000D02*
D03*
X667000Y271000D02*
D03*
X660000Y270500D02*
D03*
X662000Y175500D02*
D03*
X433500Y45500D02*
D03*
X485000Y187000D02*
D03*
X435500Y180000D02*
D03*
X475500Y112500D02*
D03*
X435000Y87000D02*
D03*
X449500Y84500D02*
D03*
X450500Y178000D02*
D03*
X625500Y84500D02*
D03*
X633000Y105000D02*
D03*
X619000Y64500D02*
D03*
X593000Y20000D02*
D03*
Y34500D02*
D03*
X599500Y39000D02*
D03*
X597500Y50000D02*
D03*
X599500Y69500D02*
D03*
X594500Y87000D02*
D03*
X598000Y95000D02*
D03*
X597500Y103000D02*
D03*
X600000Y114000D02*
D03*
X598000Y128500D02*
D03*
X597000Y146000D02*
D03*
X595500Y166500D02*
D03*
X597077Y156072D02*
D03*
X599000Y213000D02*
D03*
X595500Y199000D02*
D03*
X597000Y192000D02*
D03*
X406500Y71500D02*
D03*
X407000Y112000D02*
D03*
X407500Y202000D02*
D03*
X413000Y174500D02*
D03*
X411500Y183000D02*
D03*
Y191000D02*
D03*
X405000Y168000D02*
D03*
X413000Y133500D02*
D03*
X405000Y146500D02*
D03*
X410500Y147500D02*
D03*
X409500Y154500D02*
D03*
X410500Y45000D02*
D03*
X412000Y78000D02*
D03*
X597500Y184500D02*
D03*
X595000Y81000D02*
D03*
X594000Y140000D02*
D03*
Y134500D02*
D03*
X408000Y161000D02*
D03*
X404000Y215000D02*
D03*
X408500Y67000D02*
D03*
X402000Y119000D02*
D03*
X417500Y89500D02*
D03*
X416500Y44500D02*
D03*
X415000Y49000D02*
D03*
X412000Y89500D02*
D03*
Y95000D02*
D03*
X642000Y247000D02*
D03*
X661000Y235000D02*
D03*
X620000Y231000D02*
D03*
X249500Y66500D02*
D03*
X253500Y112500D02*
D03*
X101500Y115000D02*
D03*
X748000Y93500D02*
D03*
X331539Y168660D02*
D03*
X353000Y131500D02*
D03*
X67000Y42000D02*
D03*
X63500Y43000D02*
D03*
X112500Y97000D02*
D03*
X147000Y102000D02*
D03*
X195500Y172000D02*
D03*
X216122Y182622D02*
D03*
X217000Y171500D02*
D03*
X270000Y149000D02*
D03*
X252000Y99000D02*
D03*
X247500D02*
D03*
X247593Y88093D02*
D03*
X238000Y111500D02*
D03*
X239500Y48500D02*
D03*
X61000Y36000D02*
D03*
X57000Y54000D02*
D03*
X58000Y41500D02*
D03*
X140600Y85818D02*
D03*
X187500Y71000D02*
D03*
X210147Y86147D02*
D03*
X154905Y130839D02*
D03*
X322542Y115463D02*
D03*
X340042Y94463D02*
D03*
X723542Y179963D02*
D03*
X713542Y257463D02*
D03*
X771042Y258963D02*
D03*
X777042Y267963D02*
D03*
X758542Y262963D02*
D03*
X766042Y194463D02*
D03*
X778042Y198963D02*
D03*
X766542Y210963D02*
D03*
X768042Y152963D02*
D03*
X780542Y131963D02*
D03*
X763542Y136463D02*
D03*
X746710Y146893D02*
D03*
X741042Y131963D02*
D03*
X716542Y135463D02*
D03*
X721542Y121963D02*
D03*
X700542Y120963D02*
D03*
X772542Y80963D02*
D03*
X754042Y77463D02*
D03*
X769042Y62963D02*
D03*
X757542Y14463D02*
D03*
X769542Y30463D02*
D03*
X763042Y47963D02*
D03*
X746542Y55963D02*
D03*
X744542Y28963D02*
D03*
X584542Y12963D02*
D03*
X500042Y147963D02*
D03*
X510542Y118963D02*
D03*
X346542Y8463D02*
D03*
X240000Y40500D02*
D03*
X154042Y12963D02*
D03*
X111542Y10963D02*
D03*
X88042Y73463D02*
D03*
X105042Y86463D02*
D03*
X185000Y219000D02*
D03*
X80042Y264463D02*
D03*
X32000Y249000D02*
D03*
X40500Y263000D02*
D03*
X508000Y251000D02*
D03*
X507500Y263500D02*
D03*
X434500Y235500D02*
D03*
X560000Y13000D02*
D03*
X535000Y120500D02*
D03*
X370500Y6500D02*
D03*
X328000Y10500D02*
D03*
X290000Y37500D02*
D03*
X303500Y209000D02*
D03*
X291500Y235000D02*
D03*
X197500Y233000D02*
D03*
X182500Y207000D02*
D03*
X181000Y78000D02*
D03*
X184000Y30500D02*
D03*
X186000Y12000D02*
D03*
X166500Y17000D02*
D03*
X25000Y8500D02*
D03*
X87000Y7000D02*
D03*
X68500Y11500D02*
D03*
X121000Y85500D02*
D03*
X82000Y60000D02*
D03*
X10000Y92000D02*
D03*
X83000Y115000D02*
D03*
X37500Y113500D02*
D03*
X12500D02*
D03*
X162500Y190000D02*
D03*
X145000Y197000D02*
D03*
X123500Y239500D02*
D03*
Y262000D02*
D03*
X53500Y265000D02*
D03*
X13500Y251500D02*
D03*
X29500Y258500D02*
D03*
X14000Y265000D02*
D03*
X67665Y255096D02*
D03*
X47386Y251774D02*
D03*
X320000Y172000D02*
D03*
X337000Y170000D02*
D03*
X516000Y184000D02*
D03*
X509000Y160500D02*
D03*
X658500Y232000D02*
D03*
X524000Y71000D02*
D03*
X274500Y170500D02*
D03*
X131500Y23000D02*
D03*
X257500Y116000D02*
D03*
X257000Y127500D02*
D03*
X516000Y69000D02*
D03*
X507000Y74500D02*
D03*
X526000Y79000D02*
D03*
X258510Y155510D02*
D03*
X274000Y155500D02*
D03*
X186000Y181500D02*
D03*
X181500Y187000D02*
D03*
X218000Y88500D02*
D03*
X650500Y25500D02*
D03*
X590500Y25000D02*
D03*
X645500Y22500D02*
D03*
X611500Y28000D02*
D03*
X630000Y40000D02*
D03*
X642500Y254343D02*
D03*
X653500Y253000D02*
D03*
X583000Y178500D02*
D03*
Y210500D02*
D03*
X289000Y158000D02*
D03*
X243500Y184500D02*
D03*
X687000Y196000D02*
D03*
X721000Y197000D02*
D03*
X694500Y226500D02*
D03*
X530362Y175000D02*
D03*
X690500Y40000D02*
D03*
X528000Y88000D02*
D03*
X509500Y80500D02*
D03*
X234000Y188000D02*
D03*
X226000Y219500D02*
D03*
X267500Y259500D02*
D03*
X342989Y154034D02*
D03*
X334000Y78000D02*
D03*
X342000Y55500D02*
D03*
X320000Y67000D02*
D03*
X250000Y126500D02*
D03*
X247000Y120000D02*
D03*
X642873Y232486D02*
D03*
X667500Y235000D02*
D03*
X685646Y206528D02*
D03*
X693528Y212077D02*
D03*
X727000Y196500D02*
D03*
X736500Y91000D02*
D03*
X731500Y79000D02*
D03*
X727500Y97000D02*
D03*
X537000Y96500D02*
D03*
X524500Y90000D02*
D03*
X513000Y134500D02*
D03*
X513500Y143000D02*
D03*
X515035Y161945D02*
D03*
X511500Y177500D02*
D03*
X507764Y181736D02*
D03*
X498500Y189500D02*
D03*
X346500Y172227D02*
D03*
X350000Y192500D02*
D03*
X305000Y203000D02*
D03*
X280500Y200500D02*
D03*
X281000Y190500D02*
D03*
X310000Y155000D02*
D03*
X299000Y168500D02*
D03*
X324000Y170500D02*
D03*
X337500Y154480D02*
D03*
X359500Y154500D02*
D03*
X337552Y56005D02*
D03*
X259015Y99140D02*
D03*
X245500Y111114D02*
D03*
X152500Y58000D02*
D03*
X138000Y116976D02*
D03*
X75000Y143500D02*
D03*
X75500Y158500D02*
D03*
X75000Y165000D02*
D03*
X73000Y188000D02*
D03*
X77000Y192500D02*
D03*
X74500Y205000D02*
D03*
X77000Y214000D02*
D03*
X118000Y140000D02*
D03*
X136000Y153500D02*
D03*
X129500Y128500D02*
D03*
X133500Y119500D02*
D03*
X151000Y115000D02*
D03*
X164000Y182000D02*
D03*
X219500Y101500D02*
D03*
X213500Y48500D02*
D03*
X319500Y31500D02*
D03*
X252500Y211500D02*
D03*
X230000Y145500D02*
D03*
X247000Y152500D02*
D03*
X186500Y113000D02*
D03*
X155500Y81000D02*
D03*
X150000Y164500D02*
D03*
X195000Y163500D02*
D03*
X121000Y187500D02*
D03*
X247500Y147000D02*
D03*
X209500Y102000D02*
D03*
X152000Y144000D02*
D03*
X227401Y99500D02*
D03*
X249000Y140000D02*
D03*
X241500Y141000D02*
D03*
X150000Y96000D02*
D03*
X234000Y151500D02*
D03*
X120500Y206000D02*
D03*
X180000Y175500D02*
D03*
X226008Y106252D02*
D03*
X173000Y184500D02*
D03*
X123000Y198000D02*
D03*
X153000Y88500D02*
D03*
X237000Y87000D02*
D03*
X204500Y99000D02*
D03*
X250500Y160000D02*
D03*
X226539Y109756D02*
D03*
X254500Y150500D02*
D03*
X194500Y185000D02*
D03*
X233080Y112000D02*
D03*
X225902Y102710D02*
D03*
X694766Y189266D02*
D03*
X702000Y179000D02*
D03*
X345000Y129000D02*
D03*
X315500Y63500D02*
D03*
X294000Y122500D02*
D03*
X293000Y126500D02*
D03*
X296500Y116000D02*
D03*
X314000Y126000D02*
D03*
X528500Y211000D02*
D03*
X609500Y227500D02*
D03*
X584000Y214319D02*
D03*
X396000Y201500D02*
D03*
X450000Y237500D02*
D03*
X639000Y250500D02*
D03*
X478000Y215000D02*
D03*
X212500Y99000D02*
D03*
X214000Y110000D02*
D03*
X630500Y267500D02*
D03*
X628500Y232500D02*
D03*
X100500Y119500D02*
D03*
X130500Y98500D02*
D03*
X120000Y92000D02*
D03*
X196500Y102500D02*
D03*
X152000Y126500D02*
D03*
X349125Y98375D02*
D03*
X707500Y83500D02*
D03*
X713000Y95500D02*
D03*
X719500Y63000D02*
D03*
X682000Y34000D02*
D03*
X252000Y246000D02*
D03*
X257000Y263000D02*
D03*
X253000Y229000D02*
D03*
X239252Y258000D02*
D03*
X236252Y244500D02*
D03*
X242252Y246000D02*
D03*
X686744Y229500D02*
D03*
X705000Y73000D02*
D03*
X699500Y49500D02*
D03*
X358500Y21000D02*
D03*
Y17000D02*
D03*
X523500Y40500D02*
D03*
X36000Y129000D02*
D03*
X7500Y148000D02*
D03*
X79000Y136000D02*
D03*
X79500Y131000D02*
D03*
X271500Y178500D02*
D03*
X272500Y184000D02*
D03*
X635000Y213000D02*
D03*
X639500Y176500D02*
D03*
X582500Y206000D02*
D03*
X548587Y75413D02*
D03*
X685000Y88500D02*
D03*
X670000Y216500D02*
D03*
X365500Y75858D02*
D03*
X550000Y172500D02*
D03*
X524500Y206000D02*
D03*
X621310Y149079D02*
D03*
X621809Y189079D02*
D03*
X366500Y170500D02*
D03*
X481500Y187000D02*
D03*
X453309Y84579D02*
D03*
X448310Y48579D02*
D03*
X447309Y143579D02*
D03*
X710000Y177000D02*
D03*
X714000Y183000D02*
D03*
X696000Y171000D02*
D03*
X265475Y224975D02*
D03*
X696000Y160000D02*
D03*
X247500Y201500D02*
D03*
X163000Y149000D02*
D03*
X695000Y145000D02*
D03*
X413557Y213057D02*
D03*
X400500Y134000D02*
D03*
X413500Y114000D02*
D03*
X399000Y36500D02*
D03*
X600500Y33000D02*
D03*
X584000Y113000D02*
D03*
X452000Y132000D02*
D03*
X453500Y165500D02*
D03*
X455000Y71500D02*
D03*
X452500Y39000D02*
D03*
X642000Y75000D02*
D03*
X640500Y114500D02*
D03*
X523000Y186500D02*
D03*
X326500Y80000D02*
D03*
X287000Y100000D02*
D03*
X192500Y78500D02*
D03*
X199000Y27500D02*
D03*
X696000Y165500D02*
D03*
X705000Y184500D02*
D03*
X289000Y165500D02*
D03*
X344500Y168000D02*
D03*
X504500Y173000D02*
D03*
X341500Y67500D02*
D03*
X288000Y112000D02*
D03*
X529500Y81000D02*
D03*
X324500Y122000D02*
D03*
X525000Y165500D02*
D03*
X290500Y104000D02*
D03*
X508000Y85500D02*
D03*
X138500Y143500D02*
D03*
X696000Y154000D02*
D03*
X262500Y201000D02*
D03*
X432500Y136000D02*
D03*
X389000Y134500D02*
D03*
X582133Y162476D02*
D03*
X402500Y40000D02*
D03*
X588500Y109000D02*
D03*
X433500Y177500D02*
D03*
X433000Y84500D02*
D03*
X588500Y65500D02*
D03*
X73000Y209000D02*
D03*
Y219000D02*
D03*
X72500Y148000D02*
D03*
Y154000D02*
D03*
X73000Y198000D02*
D03*
X72500Y169500D02*
D03*
X169352Y211453D02*
D03*
X195000Y45500D02*
D03*
X186000D02*
D03*
X178000Y35500D02*
D03*
X168500Y32500D02*
D03*
X162500Y29000D02*
D03*
X145000Y31000D02*
D03*
X133000Y39000D02*
D03*
X125500Y38500D02*
D03*
X79000Y55000D02*
D03*
X72000Y54500D02*
D03*
X79500Y28500D02*
D03*
X71500D02*
D03*
X686500Y52500D02*
D03*
X359000Y171000D02*
D03*
X685000Y150000D02*
D03*
X534000Y186500D02*
D03*
X538000Y211000D02*
D03*
X534000Y142000D02*
D03*
X537500Y167500D02*
D03*
X500000Y98000D02*
D03*
X353500Y35500D02*
D03*
X349500Y55500D02*
D03*
X353000Y79500D02*
D03*
X341500Y74000D02*
D03*
X322000Y76441D02*
D03*
X384251Y233749D02*
D03*
X369000Y234000D02*
D03*
X339500D02*
D03*
X319500Y245500D02*
D03*
X334500Y245000D02*
D03*
X349500D02*
D03*
X364500D02*
D03*
X379500D02*
D03*
X394500Y245500D02*
D03*
X409500D02*
D03*
X424500Y245000D02*
D03*
X534500Y47500D02*
D03*
X532000Y74000D02*
D03*
X539000Y70500D02*
D03*
X540000Y115000D02*
D03*
X167000Y235500D02*
D03*
X734500Y235000D02*
D03*
X722000Y36000D02*
D03*
X206000Y248000D02*
D03*
X174500D02*
D03*
X230500Y45500D02*
D03*
X742500Y263500D02*
D03*
X727500D02*
D03*
X715000Y245000D02*
D03*
X708000Y246500D02*
D03*
X701000Y245500D02*
D03*
X89000Y102500D02*
D03*
X61500Y80000D02*
D03*
X215500Y21500D02*
D03*
X205500Y13500D02*
D03*
X199000D02*
D03*
X219500Y78000D02*
D03*
X174500Y90744D02*
D03*
X198000Y113000D02*
D03*
X188528Y134941D02*
D03*
X188500Y154500D02*
D03*
X187500Y168000D02*
D03*
X205500Y171000D02*
D03*
X238000Y213000D02*
D03*
X92547Y134985D02*
D03*
X62000Y159500D02*
D03*
Y189000D02*
D03*
X100500Y234500D02*
D03*
X88000Y238000D02*
D03*
X12000Y128500D02*
D03*
X22000Y238000D02*
D03*
X749000Y208500D02*
D03*
X233500Y54000D02*
D03*
X62500Y112500D02*
D03*
X68500Y131000D02*
D03*
X69000Y136000D02*
D03*
X79500Y141500D02*
D03*
X79000Y161000D02*
D03*
X78500Y224000D02*
D03*
X79000Y202500D02*
D03*
X82000Y189000D02*
D03*
X75500Y179500D02*
D03*
X61500D02*
D03*
X26000Y129000D02*
D03*
X7500Y138000D02*
D03*
X168000Y93500D02*
D03*
X165000Y113500D02*
D03*
X188500Y124000D02*
D03*
Y143500D02*
D03*
X297500Y156500D02*
D03*
X309500Y234000D02*
D03*
X324500D02*
D03*
X354500D02*
D03*
X399500D02*
D03*
X414500D02*
D03*
X715500Y231874D02*
D03*
D100*
X172695Y179242D02*
D03*
X158695Y183242D02*
D03*
X123500Y210500D02*
D03*
X140500Y162000D02*
D03*
X118904Y195029D02*
D03*
X120571Y182259D02*
D03*
D101*
X119605Y111731D02*
D03*
Y107400D02*
D03*
X115274D02*
D03*
Y111731D02*
D03*
X706216Y222173D02*
D03*
X710547D02*
D03*
X714878D02*
D03*
X719209D02*
D03*
X706216Y217843D02*
D03*
X710547D02*
D03*
X714878D02*
D03*
X719209D02*
D03*
X706216Y213512D02*
D03*
X710547D02*
D03*
X714878D02*
D03*
X719209D02*
D03*
X706216Y209181D02*
D03*
X710547D02*
D03*
X714878D02*
D03*
X719209D02*
D03*
M02*
