M48
;Layer_Color=9474304
;FILE_FORMAT=2:4
INCH,TZ
;TYPE=PLATED
T1F00S00C0.0079
T2F00S00C0.0118
T3F00S00C0.0402
T4F00S00C0.0606
T5F00S00C0.1142
%
T01
X11527Y10740
X11960
Y11173
X11527
X14050Y16200
X12057Y18226
X11890Y19503
X12350Y21050
X15870Y18324
X17270Y17924
X70622Y20918
X71055
Y21351
X70622
Y21784
Y22217
X71055
Y21784
X71488
Y22217
X71921
Y21784
Y21351
X71488
Y20918
X71921
T02
X64550Y2250
X65050Y2550
X63000Y4000
X64200Y7500
X63300Y10500
X64050Y11450
X70054Y12096
X71300Y9550
X72750Y9700
X73650Y9100
X74800Y9350
X75404Y7746
X77254Y8096
X76904Y6296
X76304Y4796
X76954Y3046
X74454Y2896
X75754Y1446
X74654Y5596
X71950Y6300
X70500Y7300
X70750Y8350
X68700Y8500
X68500Y8850
X68650Y5250
X69950Y4950
X69050Y4000
X68200Y3400
X72200Y3600
X73150Y7900
X62550Y8450
X61900Y6450
X59950Y6950
X58850Y6550
X59500Y8100
X59450Y8700
X59800Y9500
X59750Y10300
X60000Y11400
X58850Y10900
X58400Y11300
X54000Y11500
X53500Y12050
X51054Y11896
X50000Y9800
X50800Y8550
X50950Y8050
X50700Y7450
X51600Y6900
X52400Y7100
X52600Y7900
X52950Y8100
X52800Y8800
X52450Y9000
X53700Y9650
X53200Y7400
X53900Y7050
X54859Y7541
X53450Y4750
X52350Y4050
X51475Y3650
X56000Y1300
X58454Y1296
X59300Y2000
X59050Y2500
X59300Y3450
X60050Y3300
X59950Y3900
X59750Y5000
X61150Y2800
X47550Y10850
Y11250
X45331Y8458
X44950Y8450
X43300
X43500Y8700
X41750Y8950
X41200
Y9500
X40700Y8450
X41200Y7800
X40650Y7150
X40850Y6700
X41050Y4500
X41650Y4450
X41500Y4900
X40250Y4000
X39900Y3650
X43200Y4200
X43350Y4550
X44850Y4500
X44831Y4858
X45250Y3900
X45500Y7150
X41350Y11400
X40700Y11200
X40200Y11900
X34913Y9837
X34004Y9446
X34150Y7400
Y6750
X34200Y5550
X33755Y5601
X34950Y5550
X35350Y3550
X35850Y2100
Y1700
X34654Y846
X32800Y1050
X32450Y3200
X31950Y3150
X32000Y6700
X31550Y6350
X32200Y7644
X32650Y8000
X33400Y7800
X35300Y7950
X36550Y7586
X37050Y650
X32254Y11546
X29650Y11600
X28800Y11200
X29050Y10400
X28700Y10000
X25902Y9914
X25200Y9900
X24750
X24759Y8809
X23700Y8700
X21800Y8850
X21015Y8615
X21250Y9900
X20950Y10200
X20450Y9900
X19650Y10250
X19800Y11300
X18650
X16500Y11350
X16800Y9350
X17450Y9074
X18100Y7800
X19250Y7850
X18750Y7100
X18600Y4550
X19500
X19450Y3450
X19900Y2750
Y1350
X20550
X21550Y2150
X21350Y4850
X23050Y4550
X23350Y5400
X23950Y4850
X24000Y4050
X24950Y6650
X21950Y7800
Y10150
X22590Y10271
X22601Y10625
X22654Y10976
X23308Y11200
X23800Y11150
X24550Y11111
X25350Y11250
X25750Y11600
X24700Y12000
X22740Y9950
X21400Y11000
X18400Y3050
X17800Y3550
X16850Y3250
X16250Y2900
X16650Y1700
X18600Y1200
X29000Y3750
X14500Y3100
X13300Y3900
X12550Y3850
X13150Y2300
X13950Y900
X15404Y1296
X11154Y1096
X8700Y700
X6850Y1150
X7150Y2850
X7950
X6700Y4200
X6350Y4300
X5800Y4150
X6100Y3600
X5700Y5400
X7200Y5450
X7900Y5500
X8200Y6000
X8804Y7346
X8900Y10250
X8300Y11500
X10150
X10050Y11950
X13350
X13800Y11698
X15100Y11500
X14700Y10200
X15000Y9600
X15300Y8850
X15550Y8100
X14060Y8582
X12100Y8550
X12000Y9200
X11250Y9700
X10504Y8646
X13050Y9850
X15250Y5800
X6150Y8000
X6250Y11250
X3750Y11350
X1250
X1000Y9200
X2500Y850
X2600Y12900
X3600
X1200Y12850
X750Y13800
Y14800
X7250
Y15400
X7550Y15850
X7900Y16100
X7500Y16500
X7250Y16950
X7550Y17950
X7300Y18800
X7700Y19250
X8200Y18900
X7900Y20250
X7450Y20500
X7300Y20900
X7700Y21400
X7300Y21900
X7850Y22400
X8800Y23800
X10050Y23450
X12350Y23950
Y26200
X14868Y24674
X13868Y22224
X14500Y19700
X12300Y19800
X12050Y20600
X12100Y18750
X13600Y15350
X13850Y14350
X15200Y14400
X15491Y13084
X15200Y12650
X12950Y12850
X11800Y14000
X9255Y13498
X7900Y13600
X7950Y13100
Y14150
X7500Y14350
X6900Y13600
X6850Y13100
X6200Y15950
X6150Y17950
X6200Y18900
X7300Y19800
X6766Y25510
X8004Y26446
X5350Y26500
X4050Y26300
X2950Y25850
X3200Y24900
X4739Y25177
X1350Y25150
X1400Y26500
X2200Y23800
X15000Y16450
X16300Y14900
X18850Y15450
Y14350
X18853Y13494
X18850Y12400
X17300Y12550
X18000Y17550
X18600Y18150
X18150Y18700
X17300Y18450
X16400Y18200
X16250Y19000
X16935Y21145
X16150Y21750
X16700Y23550
X17450Y24800
X20600
X20400Y25350
X19750Y23300
X18500Y21900
X18250Y20700
X19450Y18500
X19550Y17200
X19500Y16350
X18750Y16800
X20550Y17100
X21700Y17150
X21612Y18262
X23400Y18800
X24350Y18450
X24750Y20150
X25250Y21150
X23800Y21300
X22600Y21950
X23625Y24450
X24225Y24600
X25200
X25300Y22900
X26548Y22498
X26250Y20100
X28050Y20050
X28100Y19050
X27250Y18400
X27150Y17850
X27450Y17050
X27400Y15550
X27000Y14900
X25450Y15050
X25851Y15551
X25050Y16000
X24700Y15250
X24750Y14700
X24900Y14000
X24150Y14100
X23000Y14550
X23400Y15150
X25000Y12650
X25700Y12750
X29300Y12650
X29400Y12250
X29750Y15650
X28900Y15800
Y16550
X29900Y16850
X31000Y15500
X30500Y20300
X30350Y20900
X30950Y23400
X29150Y23500
X26750Y25950
X25700Y26300
X23925Y25800
X31950Y24550
X33450Y24500
X34950
X36450
X37950
X39450Y24550
X40950
X42450Y24500
X43450Y23550
X45000Y23750
X41450Y23400
X39950
X38425Y23375
X36900Y23400
X35450
X33950
X32450
X32400Y17050
X32000Y17200
X33154Y16866
X33700Y17000
X34450Y16800
X34650Y17223
X35900Y17100
X36650Y17050
X35950Y15450
X34299Y15403
X33750Y15448
X34500Y12900
X35300Y13150
X32450Y12200
X31400Y12600
X38900Y13450
X40050Y13400
X41300Y13350
X41050Y14750
X40500Y14650
X40950Y15450
X40800Y16100
X40500Y16800
X40700Y17900
X41150Y18300
Y19100
X40750Y20200
X39600Y20150
X40400Y21500
X41356Y21306
X41300Y17450
X43350Y17750
X43550Y18000
X45050Y17800
X45100Y18200
X45350Y16550
X44731Y14358
X44750Y13950
X45200Y13200
X43650Y13650
X43250Y13600
X35000Y19250
X48150Y18700
X48500
X49850Y18950
X50776Y18174
X51150Y17750
X51600Y18400
X52300Y18650
X53400
X53036Y17500
X53750Y16750
X52500Y16550
X51504Y16195
X50900Y16050
X50450Y17300
X50004Y14796
X51350Y14300
X51300Y13450
X53400Y14200
X55000Y17250
X58300Y17850
X58213Y16248
X59550Y16650
X59708Y15607
X59700Y14600
X59400Y14000
Y13450
X59800Y12850
X62131Y14908
X62181Y18908
X59700Y19200
X59750Y18450
X59550Y19900
X59900Y21300
X58400Y21432
X58300Y21050
X58250Y20600
X60950Y22750
X62000Y23100
X55382Y25761
X55270Y26618
X53819Y26517
X53469Y25317
X50800Y25100
X50750Y26350
X52850Y21100
X52450Y20600
X53800Y21100
X47800Y21500
X63500Y21300
X62850Y23250
X64287Y23249
X64200Y24700
X63900Y25050
X64250Y25434
X65350Y25300
X66000Y27050
X66700Y27100
X66750Y23500
X66100
X65850Y23200
X67000Y21650
X68565Y20653
X68700Y19600
X69477Y18927
X70500Y18450
X70200Y17900
X71000Y17700
X71400Y18300
X72354Y17996
X72100Y19700
X72700Y19650
X74900Y20850
X76654Y21096
X76604Y19446
X77804Y19896
X76804Y15296
X76354Y13646
X78054Y13196
X74104
X74671Y14689
X71654Y13546
X72154Y12196
X69500Y14500
X69600Y15400
Y16000
Y16550
Y17100
X68500Y15000
X66200Y17550
X65950Y17850
X63950Y17650
X69353Y21208
X69450Y22650
X68674Y22950
X68150Y23700
X70100Y24550
X70800Y24650
X71500Y24500
X71550Y23187
X73450Y23500
X72750Y26350
X74250
X75854Y26296
X77104Y25896
X77704Y26796
X71354Y25746
X63050Y26750
T03
X62900Y1200
X63900
X61900
X60900
X45550Y1550
X44550
X43550
X42550
X26950Y2000
Y3000
Y4000
Y1000
X4004Y2063
Y3063
Y4063
Y5063
Y6063
X3004
Y5063
Y4063
Y3063
Y2063
X2900Y7900
Y8900
Y9900
X17050Y26400
X18050
X19050
X20050
X21050
X22050
X22650Y25050
Y24050
X34100Y25600
Y26600
X35100
X36100
X37100
X38100
X39100
X40100
X41100
Y25600
X40100
X39100
X38100
X37100
X36100
X35100
X42650Y25950
X43650
X44650
X45650
X49600Y23050
X50600
X51600
X52600
X54450
X55450
X56450
X57450
X57800Y26750
X56800
X58800
X59800
T04
X75750Y9800
X77750
Y11800
X75750
X76750Y10800
X77700Y22750
Y24750
X75700
Y22750
X76700Y23750
T05
X68928Y1959
X49243
X29557
X29650Y7550
X9872Y1959
Y25582
X29557
X49243
X51050Y19900
X68928Y25582
M30
