G04*
G04 #@! TF.GenerationSoftware,Altium Limited,Altium Designer,21.2.2 (38)*
G04*
G04 Layer_Color=65535*
%FSLAX25Y25*%
%MOIN*%
G70*
G04*
G04 #@! TF.SameCoordinates,5E26766D-3DBA-4CA4-B54A-4570E1BC07D3*
G04*
G04*
G04 #@! TF.FilePolarity,Positive*
G04*
G01*
G75*
%ADD10C,0.00787*%
%ADD11C,0.02362*%
%ADD12C,0.00984*%
%ADD13C,0.00394*%
%ADD14C,0.01575*%
%ADD15C,0.01000*%
%ADD16C,0.00700*%
G36*
X580556Y167780D02*
X580228D01*
Y166796D01*
X579900D01*
Y165812D01*
X579572D01*
Y165156D01*
X579244D01*
Y164172D01*
X578916D01*
Y163188D01*
X578588D01*
Y162204D01*
X578260D01*
Y161548D01*
X577932D01*
Y161220D01*
X575308D01*
Y162204D01*
X575636D01*
Y163188D01*
X575964D01*
Y164172D01*
X576292D01*
Y164828D01*
X575964D01*
Y164500D01*
X575636D01*
Y163844D01*
X575308D01*
Y163516D01*
X574980D01*
Y163188D01*
X574652D01*
Y162860D01*
X574324D01*
Y162532D01*
X573996D01*
Y162204D01*
X573668D01*
Y161876D01*
X573340D01*
Y161548D01*
X573012D01*
Y161220D01*
X571700D01*
Y162204D01*
X571372D01*
Y163844D01*
X571044D01*
Y164828D01*
X570716D01*
Y164172D01*
X570388D01*
Y163188D01*
X570060D01*
Y162204D01*
X569732D01*
Y161548D01*
X569404D01*
Y161220D01*
X566780D01*
Y162204D01*
X567108D01*
Y163188D01*
X567436D01*
Y163844D01*
X567764D01*
Y164828D01*
X568092D01*
Y165812D01*
X568420D01*
Y166796D01*
X568748D01*
Y167452D01*
X569076D01*
Y168436D01*
X569404D01*
Y169092D01*
X573012D01*
Y168108D01*
X573340D01*
Y166468D01*
X573668D01*
Y165484D01*
X573996D01*
Y165812D01*
X574324D01*
Y166140D01*
X574652D01*
Y166468D01*
X574980D01*
Y166796D01*
X575308D01*
Y167124D01*
X575636D01*
Y167452D01*
X575964D01*
Y167780D01*
X576292D01*
Y168108D01*
X576620D01*
Y168436D01*
X576948D01*
Y168764D01*
X577276D01*
Y169092D01*
X580556D01*
Y167780D01*
D02*
G37*
G36*
X633692Y168108D02*
X633364D01*
Y167124D01*
X633036D01*
Y166140D01*
X632708D01*
Y165484D01*
X632380D01*
Y164500D01*
X632052D01*
Y163844D01*
X631724D01*
Y163188D01*
X631396D01*
Y162532D01*
X631068D01*
Y162204D01*
X630740D01*
Y161876D01*
X630412D01*
Y161548D01*
X629756D01*
Y161220D01*
X624508D01*
Y161548D01*
X623524D01*
Y161876D01*
X623196D01*
Y163188D01*
X622868D01*
Y163516D01*
X623196D01*
Y165156D01*
X623524D01*
Y166140D01*
X623852D01*
Y167124D01*
X624180D01*
Y168108D01*
X624508D01*
Y168764D01*
X624836D01*
Y169092D01*
X627132D01*
Y168764D01*
X627460D01*
Y168436D01*
X627132D01*
Y167452D01*
X626804D01*
Y166468D01*
X626476D01*
Y165484D01*
X626148D01*
Y163516D01*
X626476D01*
Y163188D01*
X628116D01*
Y163516D01*
X628444D01*
Y163844D01*
X628772D01*
Y164172D01*
X629100D01*
Y164500D01*
X629428D01*
Y165484D01*
X629756D01*
Y166140D01*
X630084D01*
Y167124D01*
X630412D01*
Y168108D01*
X630740D01*
Y168764D01*
X631068D01*
Y169092D01*
X633692D01*
Y168108D01*
D02*
G37*
G36*
X643204Y168436D02*
X642876D01*
Y167780D01*
X642548D01*
Y167452D01*
X642220D01*
Y167124D01*
X641892D01*
Y166796D01*
X639924D01*
Y166468D01*
X639596D01*
Y165812D01*
X639268D01*
Y165484D01*
Y164828D01*
X638940D01*
Y163844D01*
X638612D01*
Y162860D01*
X638284D01*
Y162204D01*
X637956D01*
Y161220D01*
X635004D01*
Y161876D01*
X635332D01*
Y162860D01*
X635660D01*
Y163844D01*
X635988D01*
Y164828D01*
X636316D01*
Y165484D01*
X636644D01*
Y166468D01*
X636972D01*
Y166796D01*
X634348D01*
Y167452D01*
X634676D01*
Y167780D01*
X635004D01*
Y168108D01*
X635332D01*
Y168436D01*
X635660D01*
Y168764D01*
X635988D01*
Y169092D01*
X643204D01*
Y168436D01*
D02*
G37*
G36*
X620244Y168764D02*
X620572D01*
Y168436D01*
X620900D01*
Y166468D01*
X621228D01*
Y164500D01*
X621556D01*
Y162204D01*
X621884D01*
Y161220D01*
X619260D01*
Y161876D01*
X618932D01*
Y162532D01*
X618604D01*
Y161876D01*
X618276D01*
Y161548D01*
X617948D01*
Y161220D01*
X611388D01*
Y161548D01*
X611716D01*
Y161876D01*
X612044D01*
Y162532D01*
X612372D01*
Y162860D01*
X612700D01*
Y163188D01*
X613028D01*
Y163516D01*
X613356D01*
Y164172D01*
X613684D01*
Y164500D01*
X614012D01*
Y164828D01*
X614340D01*
Y165156D01*
X614668D01*
Y165812D01*
X614996D01*
Y166140D01*
X615324D01*
Y166468D01*
X615652D01*
Y167124D01*
X615980D01*
Y167452D01*
X616308D01*
Y167780D01*
X616636D01*
Y168108D01*
X616964D01*
Y168436D01*
X617292D01*
Y168764D01*
X617620D01*
Y169092D01*
X620244D01*
Y168764D01*
D02*
G37*
G36*
X613028Y168436D02*
X612700D01*
Y168108D01*
X612372D01*
Y167780D01*
X612044D01*
Y167452D01*
X611716D01*
Y167124D01*
X611388D01*
Y166796D01*
X606140D01*
Y166140D01*
X609748D01*
Y165812D01*
X610404D01*
Y165484D01*
X610732D01*
Y164828D01*
X611060D01*
Y162532D01*
X610732D01*
Y162204D01*
X610404D01*
Y161548D01*
X609748D01*
Y161220D01*
X601876D01*
Y161876D01*
X602204D01*
Y162204D01*
X602532D01*
Y162860D01*
X602860D01*
Y163188D01*
X608108D01*
Y163516D01*
X608436D01*
Y163844D01*
X608108D01*
Y164172D01*
X604172D01*
Y164500D01*
X603844D01*
Y165156D01*
X603516D01*
Y165812D01*
X603188D01*
Y166796D01*
X603516D01*
Y167452D01*
X603844D01*
Y167780D01*
X604172D01*
Y168436D01*
X604828D01*
Y168764D01*
X605156D01*
Y169092D01*
X613028D01*
Y168436D01*
D02*
G37*
G36*
X600564Y168764D02*
X601220D01*
Y168108D01*
X601548D01*
Y167780D01*
Y167124D01*
X601876D01*
Y166140D01*
X601548D01*
Y165484D01*
X601220D01*
Y165156D01*
X600892D01*
Y164828D01*
X600564D01*
Y164500D01*
X599580D01*
Y164172D01*
X598268D01*
Y163844D01*
X598596D01*
Y163516D01*
X598924D01*
Y163188D01*
X599252D01*
Y162860D01*
X599580D01*
Y162532D01*
X599908D01*
Y162204D01*
X600236D01*
Y161876D01*
X600564D01*
Y161220D01*
X597284D01*
Y161548D01*
X596956D01*
Y161876D01*
X596628D01*
Y162204D01*
X596300D01*
Y162532D01*
X595972D01*
Y162860D01*
X595644D01*
Y163188D01*
X595316D01*
Y163516D01*
X594988D01*
Y163844D01*
X594660D01*
Y163516D01*
X594332D01*
Y162532D01*
X594004D01*
Y161548D01*
X593676D01*
Y161220D01*
X590724D01*
Y161548D01*
X591052D01*
Y162532D01*
X591380D01*
Y163516D01*
X591708D01*
Y164172D01*
X592036D01*
Y165156D01*
X592364D01*
Y166140D01*
X592692D01*
Y166796D01*
X593020D01*
Y167780D01*
X593348D01*
Y168764D01*
X593676D01*
Y169092D01*
X600564D01*
Y168764D01*
D02*
G37*
G36*
X588100D02*
X588428D01*
Y167780D01*
X588756D01*
Y165812D01*
X589084D01*
Y163516D01*
X589412D01*
Y161548D01*
X589740D01*
Y161220D01*
X586788D01*
Y162532D01*
X586460D01*
Y162204D01*
X586132D01*
Y161876D01*
X585804D01*
Y161548D01*
X585476D01*
Y161220D01*
X579244D01*
Y161876D01*
X579572D01*
Y162204D01*
X579900D01*
Y162532D01*
X580228D01*
Y162860D01*
X580556D01*
Y163516D01*
X580884D01*
Y163844D01*
X581212D01*
Y164172D01*
X581540D01*
Y164500D01*
X581868D01*
Y165156D01*
X582196D01*
Y165484D01*
X582524D01*
Y165812D01*
X582852D01*
Y166468D01*
X583180D01*
Y166796D01*
X583508D01*
Y167124D01*
X583836D01*
Y167452D01*
X584164D01*
Y168108D01*
X584492D01*
Y168436D01*
X584820D01*
Y168764D01*
X585476D01*
Y169092D01*
X588100D01*
Y168764D01*
D02*
G37*
G36*
X598924Y154004D02*
X606796D01*
Y148756D01*
Y148428D01*
Y141868D01*
X605484D01*
Y142196D01*
X604172D01*
Y142524D01*
X603188D01*
Y142852D01*
X601548D01*
Y143180D01*
X601220D01*
Y149084D01*
X595316D01*
Y149412D01*
X595644D01*
Y149740D01*
X595972D01*
Y150396D01*
X596300D01*
Y150724D01*
X596628D01*
Y151380D01*
X596956D01*
Y152036D01*
X597284D01*
Y152364D01*
X597612D01*
Y153020D01*
X597940D01*
Y153348D01*
X598268D01*
Y154004D01*
X598596D01*
Y154332D01*
X598924D01*
Y154004D01*
D02*
G37*
G36*
X553332Y159908D02*
X554972D01*
Y159580D01*
X555956D01*
Y159252D01*
X556940D01*
Y158924D01*
X557924D01*
Y158596D01*
X558580D01*
Y158268D01*
X559564D01*
Y157940D01*
X560220D01*
Y157612D01*
X561204D01*
Y157284D01*
X561860D01*
Y156956D01*
X562844D01*
Y156628D01*
X563500D01*
Y156300D01*
X564812D01*
Y155972D01*
X565468D01*
Y155644D01*
X566452D01*
Y155316D01*
X567108D01*
Y154988D01*
X568092D01*
Y154660D01*
X569076D01*
Y154332D01*
X569732D01*
Y154004D01*
X570388D01*
Y153676D01*
X571372D01*
Y153348D01*
X572356D01*
Y153020D01*
X573012D01*
Y152692D01*
X573996D01*
Y152364D01*
X574652D01*
Y152036D01*
X575964D01*
Y152364D01*
X576948D01*
Y152036D01*
X577932D01*
Y151708D01*
X578588D01*
Y151380D01*
X579244D01*
Y151052D01*
X580556D01*
Y150724D01*
X580884D01*
Y150396D01*
X581868D01*
Y150068D01*
X582852D01*
Y150396D01*
X583180D01*
Y150724D01*
X584164D01*
Y151052D01*
X584492D01*
Y151380D01*
X585476D01*
Y151708D01*
X586788D01*
Y151380D01*
X587772D01*
Y151052D01*
X588428D01*
Y150724D01*
X589412D01*
Y150396D01*
X590068D01*
Y150068D01*
X591052D01*
Y149740D01*
X591708D01*
Y149412D01*
X592364D01*
Y148428D01*
X592036D01*
Y148100D01*
X591708D01*
Y147772D01*
X591380D01*
Y147444D01*
X591052D01*
Y146788D01*
X590724D01*
Y146460D01*
X590396D01*
Y146132D01*
X590068D01*
Y145804D01*
X590724D01*
Y145476D01*
X591380D01*
Y144492D01*
X591052D01*
Y143836D01*
X590724D01*
Y142852D01*
X590396D01*
Y142196D01*
X590068D01*
Y141212D01*
X589740D01*
Y140556D01*
X589412D01*
Y139900D01*
X589084D01*
Y139244D01*
X588756D01*
Y139572D01*
X587444D01*
Y136620D01*
X587116D01*
Y136292D01*
X587444D01*
Y135964D01*
X586132D01*
Y136292D01*
X585148D01*
Y136620D01*
X584492D01*
Y136948D01*
X583836D01*
Y137276D01*
X582852D01*
Y137604D01*
X581868D01*
Y137932D01*
X581212D01*
Y138260D01*
X580556D01*
Y138588D01*
X580228D01*
Y139244D01*
X579900D01*
Y140228D01*
X579572D01*
Y141212D01*
X579244D01*
Y141868D01*
X578916D01*
Y142196D01*
X577932D01*
Y142524D01*
X577276D01*
Y142852D01*
X576292D01*
Y143180D01*
X575636D01*
Y143508D01*
X574652D01*
Y143836D01*
X573996D01*
Y144164D01*
X573012D01*
Y145148D01*
X572684D01*
Y145804D01*
X571700D01*
Y146132D01*
X571044D01*
Y146460D01*
X570388D01*
Y146788D01*
X569404D01*
Y147116D01*
X568420D01*
Y147444D01*
X567764D01*
Y147772D01*
X566780D01*
Y148100D01*
X565796D01*
Y148428D01*
X564812D01*
Y148756D01*
X564156D01*
Y149084D01*
X563172D01*
Y149412D01*
X562188D01*
Y149740D01*
X561532D01*
Y150068D01*
X560548D01*
Y150396D01*
X559892D01*
Y150724D01*
X558908D01*
Y151052D01*
X558252D01*
Y151380D01*
X557268D01*
Y151708D01*
X556284D01*
Y152036D01*
X555300D01*
Y152364D01*
X554644D01*
Y152692D01*
X553660D01*
Y153020D01*
X553004D01*
Y153348D01*
X552348D01*
Y153676D01*
X551692D01*
Y154004D01*
X551364D01*
Y154332D01*
X550708D01*
Y154660D01*
X550380D01*
Y154988D01*
X549724D01*
Y155316D01*
X549396D01*
Y155644D01*
X549068D01*
Y155972D01*
X548740D01*
Y156300D01*
X548412D01*
Y156628D01*
X548084D01*
Y156956D01*
X547756D01*
Y157284D01*
X547428D01*
Y157612D01*
X547100D01*
Y157940D01*
X546772D01*
Y158596D01*
X546444D01*
Y158924D01*
X546116D01*
Y159252D01*
X545788D01*
Y159580D01*
X546116D01*
Y159908D01*
X547756D01*
Y160236D01*
X553332D01*
Y159908D01*
D02*
G37*
G36*
X660916Y176964D02*
X660588D01*
Y176308D01*
X660260D01*
Y175980D01*
X659932D01*
Y175652D01*
X659604D01*
Y175324D01*
X659276D01*
Y174996D01*
X658948D01*
Y174340D01*
X658620D01*
Y174012D01*
X658292D01*
Y173684D01*
X657964D01*
Y173356D01*
X657636D01*
Y173028D01*
X657308D01*
Y172372D01*
X656980D01*
Y172044D01*
X656652D01*
Y171716D01*
X656324D01*
Y171388D01*
X655996D01*
Y171060D01*
X655668D01*
Y170404D01*
X655340D01*
Y170076D01*
X655012D01*
Y169748D01*
X654684D01*
Y169420D01*
X654356D01*
Y169092D01*
X654028D01*
Y168764D01*
X653700D01*
Y168108D01*
X653372D01*
Y167780D01*
X653044D01*
Y167452D01*
X652716D01*
Y167124D01*
X652388D01*
Y166468D01*
X652060D01*
Y166140D01*
X651732D01*
Y165812D01*
X651404D01*
Y165484D01*
X651076D01*
Y165156D01*
X650748D01*
Y164500D01*
X650420D01*
Y164172D01*
X650092D01*
Y163844D01*
X649764D01*
Y163516D01*
X649436D01*
Y163188D01*
X649108D01*
Y162860D01*
X648780D01*
Y162204D01*
X648452D01*
Y161876D01*
X648124D01*
Y161548D01*
X647796D01*
Y161220D01*
X647468D01*
Y160892D01*
X647140D01*
Y160236D01*
X646812D01*
Y159908D01*
X646484D01*
Y159580D01*
X646156D01*
Y159252D01*
X645828D01*
Y158924D01*
X645500D01*
Y158268D01*
X645172D01*
Y157940D01*
X644844D01*
Y157612D01*
X644516D01*
Y157284D01*
X644188D01*
Y156956D01*
X643860D01*
Y156628D01*
X643532D01*
Y155972D01*
X643204D01*
Y155644D01*
X642876D01*
Y155316D01*
X642548D01*
Y154988D01*
X642220D01*
Y154332D01*
X641892D01*
Y154004D01*
X641564D01*
Y153676D01*
X641236D01*
Y153348D01*
X640908D01*
Y153020D01*
X640580D01*
Y152692D01*
X640252D01*
Y152036D01*
X639924D01*
Y151708D01*
X639596D01*
Y151380D01*
X639268D01*
Y150724D01*
X638612D01*
Y150068D01*
X638284D01*
Y149740D01*
X637956D01*
Y149412D01*
X637628D01*
Y149084D01*
X637300D01*
Y148756D01*
X636972D01*
Y148100D01*
X636644D01*
Y147772D01*
X636316D01*
Y147444D01*
X635988D01*
Y147116D01*
X635660D01*
Y146460D01*
X635332D01*
Y146132D01*
X635004D01*
Y145804D01*
X634676D01*
Y145476D01*
X634348D01*
Y145148D01*
X634020D01*
Y144820D01*
X633692D01*
Y144164D01*
X633364D01*
Y143836D01*
X633036D01*
Y143508D01*
X632708D01*
Y143180D01*
X632380D01*
Y142524D01*
X632052D01*
Y142196D01*
X631724D01*
Y141868D01*
X631396D01*
Y141540D01*
X631068D01*
Y141212D01*
X630740D01*
Y140556D01*
X630412D01*
Y140228D01*
X630084D01*
Y139900D01*
X629756D01*
Y139572D01*
X629428D01*
Y139244D01*
X629100D01*
Y138916D01*
X628772D01*
Y138260D01*
X628444D01*
Y137932D01*
X628116D01*
Y137604D01*
X627788D01*
Y137276D01*
X627460D01*
Y136948D01*
X626804D01*
Y137276D01*
X625492D01*
Y137604D01*
X623524D01*
Y137932D01*
X622868D01*
Y138260D01*
X623196D01*
Y138588D01*
X623524D01*
Y138916D01*
X623852D01*
Y139572D01*
X624180D01*
Y139900D01*
X624508D01*
Y140228D01*
X624836D01*
Y140556D01*
X625164D01*
Y140884D01*
X625492D01*
Y141540D01*
X625820D01*
Y141868D01*
X626148D01*
Y142196D01*
X626476D01*
Y142524D01*
X626804D01*
Y142852D01*
X627132D01*
Y143508D01*
X627460D01*
Y143836D01*
X627788D01*
Y144164D01*
X628116D01*
Y144492D01*
X628444D01*
Y144820D01*
X628772D01*
Y145476D01*
X629428D01*
Y146132D01*
X629756D01*
Y146460D01*
X630084D01*
Y146788D01*
X630412D01*
Y147116D01*
X630740D01*
Y147772D01*
X631068D01*
Y148100D01*
X631396D01*
Y148428D01*
X631724D01*
Y148756D01*
X632052D01*
Y149084D01*
X632380D01*
Y149740D01*
X632708D01*
Y150068D01*
X633036D01*
Y150396D01*
X633364D01*
Y150724D01*
X633692D01*
Y151052D01*
X634020D01*
Y151380D01*
X634348D01*
Y152036D01*
X634676D01*
Y152364D01*
X635004D01*
Y152692D01*
X635332D01*
Y153020D01*
X635660D01*
Y153676D01*
X635988D01*
Y154004D01*
X636316D01*
Y154332D01*
X636644D01*
Y154660D01*
X636972D01*
Y154988D01*
X637300D01*
Y155316D01*
X637628D01*
Y155972D01*
X637956D01*
Y156300D01*
X638284D01*
Y156628D01*
X638612D01*
Y156956D01*
X638940D01*
Y157284D01*
X639268D01*
Y157940D01*
X639596D01*
Y158268D01*
X639924D01*
Y158596D01*
X640252D01*
Y158924D01*
X640580D01*
Y159252D01*
X640908D01*
Y159908D01*
X641236D01*
Y160236D01*
X641564D01*
Y160564D01*
X641892D01*
Y160892D01*
X642220D01*
Y161220D01*
X642548D01*
Y161876D01*
X642876D01*
Y162204D01*
X643204D01*
Y162532D01*
X643532D01*
Y162860D01*
X643860D01*
Y163188D01*
X644188D01*
Y163844D01*
X644516D01*
Y164172D01*
X644844D01*
Y164500D01*
X645172D01*
Y164828D01*
X645500D01*
Y165156D01*
X645828D01*
Y165484D01*
X646156D01*
Y166140D01*
X646484D01*
Y166468D01*
X646812D01*
Y166796D01*
X647140D01*
Y167124D01*
X647468D01*
Y167780D01*
X647796D01*
Y168108D01*
X648124D01*
Y168436D01*
X648452D01*
Y168764D01*
X648780D01*
Y169420D01*
X649108D01*
Y169748D01*
X649436D01*
Y170076D01*
X649764D01*
Y170404D01*
X650092D01*
Y170732D01*
X650420D01*
Y171060D01*
X650748D01*
Y171388D01*
X651076D01*
Y172044D01*
X651404D01*
Y172372D01*
X651732D01*
Y172700D01*
X652060D01*
Y173028D01*
X652388D01*
Y173684D01*
X652716D01*
Y174012D01*
X653044D01*
Y174668D01*
X554316D01*
Y174012D01*
X554644D01*
Y173684D01*
X554972D01*
Y173356D01*
X555300D01*
Y172700D01*
X555628D01*
Y172372D01*
X555956D01*
Y172044D01*
X556284D01*
Y171716D01*
X556612D01*
Y171060D01*
X556940D01*
Y170732D01*
X557268D01*
Y170404D01*
X557596D01*
Y170076D01*
X557924D01*
Y169420D01*
X558252D01*
Y169092D01*
X558580D01*
Y168764D01*
X558908D01*
Y168436D01*
X559236D01*
Y168108D01*
X559564D01*
Y167452D01*
X560220D01*
Y166796D01*
X560548D01*
Y166468D01*
X560876D01*
Y166140D01*
X561204D01*
Y165484D01*
X561532D01*
Y165156D01*
X561860D01*
Y164828D01*
X562188D01*
Y164500D01*
X562516D01*
Y164172D01*
X562844D01*
Y163516D01*
X563172D01*
Y163188D01*
X563500D01*
Y162860D01*
X563828D01*
Y162532D01*
X564156D01*
Y161876D01*
X564484D01*
Y161548D01*
X564812D01*
Y161220D01*
X565140D01*
Y160892D01*
X565468D01*
Y160564D01*
X565796D01*
Y159908D01*
X566124D01*
Y159580D01*
X566452D01*
Y159252D01*
X566780D01*
Y158924D01*
X567108D01*
Y158268D01*
X567764D01*
Y157612D01*
X568092D01*
Y157284D01*
X568420D01*
Y156956D01*
X568748D01*
Y156300D01*
X569076D01*
Y155972D01*
X569404D01*
Y155644D01*
X569732D01*
Y155316D01*
X570060D01*
Y154988D01*
X569404D01*
Y155316D01*
X568420D01*
Y155644D01*
X567764D01*
Y155972D01*
X566780D01*
Y156300D01*
X565796D01*
Y156628D01*
X565140D01*
Y156956D01*
X564156D01*
Y157284D01*
X563172D01*
Y157612D01*
X562516D01*
Y157940D01*
X562188D01*
Y158268D01*
X561860D01*
Y158596D01*
X561532D01*
Y158924D01*
X561204D01*
Y159252D01*
X560876D01*
Y159908D01*
X560548D01*
Y160236D01*
X560220D01*
Y160564D01*
X559892D01*
Y160892D01*
X559564D01*
Y161220D01*
X559236D01*
Y161876D01*
X558908D01*
Y162204D01*
X558580D01*
Y162532D01*
X558252D01*
Y163188D01*
X557924D01*
Y163516D01*
X557596D01*
Y163844D01*
X557268D01*
Y164172D01*
X556940D01*
Y164500D01*
X556612D01*
Y164828D01*
X556284D01*
Y165156D01*
X555956D01*
Y165812D01*
X555628D01*
Y166140D01*
X555300D01*
Y166468D01*
X554972D01*
Y166796D01*
X554644D01*
Y167452D01*
X554316D01*
Y167780D01*
X553988D01*
Y168108D01*
X553660D01*
Y168436D01*
X553332D01*
Y169092D01*
X553004D01*
Y169420D01*
X552676D01*
Y169748D01*
X552348D01*
Y170076D01*
X552020D01*
Y170404D01*
X551692D01*
Y171060D01*
X551364D01*
Y171388D01*
X551036D01*
Y171716D01*
X550708D01*
Y172044D01*
X550380D01*
Y172372D01*
X550052D01*
Y173028D01*
X549724D01*
Y173356D01*
X549396D01*
Y173684D01*
X549068D01*
Y174012D01*
X548740D01*
Y174668D01*
X548412D01*
Y174996D01*
X548084D01*
Y175324D01*
X547756D01*
Y175652D01*
X547428D01*
Y176308D01*
X546772D01*
Y176964D01*
X546444D01*
Y177620D01*
X660916D01*
Y176964D01*
D02*
G37*
G36*
X666492Y179260D02*
X666164D01*
Y178932D01*
X665836D01*
Y178604D01*
X665508D01*
Y178276D01*
X665180D01*
Y177948D01*
X664852D01*
Y177620D01*
X664524D01*
Y176964D01*
X664196D01*
Y176636D01*
X663868D01*
Y176308D01*
X663540D01*
Y175980D01*
X663212D01*
Y175652D01*
X662884D01*
Y174996D01*
X662556D01*
Y174668D01*
X662228D01*
Y174340D01*
X661900D01*
Y174012D01*
X661572D01*
Y173684D01*
X661244D01*
Y173028D01*
X660916D01*
Y172700D01*
X660588D01*
Y172372D01*
X660260D01*
Y172044D01*
X659932D01*
Y171716D01*
X659604D01*
Y171388D01*
Y171060D01*
X659276D01*
Y170732D01*
X658948D01*
Y170404D01*
X658620D01*
Y170076D01*
X658292D01*
Y169748D01*
X657964D01*
Y169092D01*
X657636D01*
Y168764D01*
X657308D01*
Y168436D01*
X656980D01*
Y168108D01*
X656652D01*
Y167780D01*
X656324D01*
Y167124D01*
X655996D01*
Y166796D01*
X655668D01*
Y166468D01*
X655340D01*
Y166140D01*
X655012D01*
Y165812D01*
X654684D01*
Y165484D01*
X654356D01*
Y164828D01*
X654028D01*
Y164500D01*
X653700D01*
Y164172D01*
X653372D01*
Y163844D01*
X653044D01*
Y163516D01*
X652716D01*
Y162860D01*
X652388D01*
Y162532D01*
X652060D01*
Y162204D01*
X651732D01*
Y161876D01*
X651404D01*
Y161220D01*
X651076D01*
Y160892D01*
X650420D01*
Y160236D01*
X650092D01*
Y159908D01*
X649764D01*
Y159580D01*
X649436D01*
Y158924D01*
X649108D01*
Y158596D01*
X648780D01*
Y158268D01*
X648452D01*
Y157940D01*
X648124D01*
Y157612D01*
X647796D01*
Y156956D01*
X647468D01*
Y156628D01*
X647140D01*
Y156300D01*
X646812D01*
Y155972D01*
X646484D01*
Y155644D01*
X646156D01*
Y154988D01*
X645828D01*
Y154660D01*
X645500D01*
Y154332D01*
X645172D01*
Y154004D01*
X644844D01*
Y153676D01*
X644516D01*
Y153020D01*
X644188D01*
Y152692D01*
X643860D01*
Y152364D01*
X643532D01*
Y152036D01*
X643204D01*
Y151708D01*
X642876D01*
Y151380D01*
X642548D01*
Y150724D01*
X642220D01*
Y150396D01*
X641892D01*
Y150068D01*
X641564D01*
Y149412D01*
X640908D01*
Y148756D01*
X640580D01*
Y148428D01*
X640252D01*
Y148100D01*
X639924D01*
Y147772D01*
X639596D01*
Y147444D01*
X639268D01*
Y146788D01*
X638940D01*
Y146460D01*
X638612D01*
Y146132D01*
X638284D01*
Y145804D01*
X637956D01*
Y145476D01*
X637628D01*
Y145148D01*
X637300D01*
Y144492D01*
X636972D01*
Y144164D01*
X636644D01*
Y143836D01*
X636316D01*
Y143508D01*
X635988D01*
Y142852D01*
X635660D01*
Y142524D01*
X635332D01*
Y142196D01*
X635004D01*
Y141868D01*
X634676D01*
Y141540D01*
X634348D01*
Y140884D01*
X634020D01*
Y140556D01*
X633692D01*
Y140228D01*
X633364D01*
Y139900D01*
X633036D01*
Y139572D01*
X632708D01*
Y139244D01*
X632380D01*
Y138588D01*
X632052D01*
Y138260D01*
X631724D01*
Y137932D01*
X631396D01*
Y137604D01*
X631068D01*
Y137276D01*
X630740D01*
Y136620D01*
X629100D01*
Y137276D01*
X629428D01*
Y137604D01*
X629756D01*
Y137932D01*
X630084D01*
Y138260D01*
X630412D01*
Y138588D01*
X630740D01*
Y139244D01*
X631068D01*
Y139572D01*
X631396D01*
Y139900D01*
X631724D01*
Y140228D01*
X632052D01*
Y140556D01*
X632380D01*
Y141212D01*
X632708D01*
Y141540D01*
X633036D01*
Y141868D01*
X633364D01*
Y142196D01*
X633692D01*
Y142524D01*
X634020D01*
Y143180D01*
X634348D01*
Y143508D01*
X634676D01*
Y143836D01*
X635004D01*
Y144164D01*
X635332D01*
Y144492D01*
X635660D01*
Y145148D01*
X635988D01*
Y145476D01*
X636316D01*
Y145804D01*
X636644D01*
Y146132D01*
X636972D01*
Y146460D01*
X637300D01*
Y147116D01*
X637628D01*
Y147444D01*
X637956D01*
Y147772D01*
X638284D01*
Y148100D01*
X638612D01*
Y148428D01*
X638940D01*
Y148756D01*
X639268D01*
Y149412D01*
X639596D01*
Y149740D01*
X639924D01*
Y150068D01*
X640252D01*
Y150396D01*
X640580D01*
Y150724D01*
X640908D01*
Y151052D01*
X641236D01*
Y151380D01*
X641564D01*
Y152036D01*
X641892D01*
Y152364D01*
X642220D01*
Y152692D01*
X642548D01*
Y153348D01*
X642876D01*
Y153676D01*
X643204D01*
Y154004D01*
X643532D01*
Y154332D01*
X643860D01*
Y154660D01*
X644188D01*
Y154988D01*
X644516D01*
Y155316D01*
X644844D01*
Y155972D01*
X645172D01*
Y156300D01*
X645500D01*
Y156628D01*
X645828D01*
Y156956D01*
X646156D01*
Y157284D01*
X646484D01*
Y157940D01*
X646812D01*
Y158268D01*
X647140D01*
Y158596D01*
X647468D01*
Y158924D01*
X647796D01*
Y159580D01*
X648124D01*
Y159908D01*
X648452D01*
Y160236D01*
X648780D01*
Y160564D01*
X649108D01*
Y160892D01*
X649436D01*
Y161548D01*
X649764D01*
Y161876D01*
X650092D01*
Y162204D01*
X650420D01*
Y162532D01*
X650748D01*
Y162860D01*
X651076D01*
Y163516D01*
X651404D01*
Y163844D01*
X651732D01*
Y164172D01*
X652060D01*
Y164500D01*
X652388D01*
Y164828D01*
X652716D01*
Y165484D01*
X653044D01*
Y165812D01*
X653372D01*
Y166140D01*
X653700D01*
Y166468D01*
X654028D01*
Y166796D01*
X654356D01*
Y167124D01*
X654684D01*
Y167780D01*
X655012D01*
Y168108D01*
X655340D01*
Y168436D01*
X655668D01*
Y168764D01*
X655996D01*
Y169420D01*
X656324D01*
Y169748D01*
X656652D01*
Y170076D01*
X656980D01*
Y170404D01*
X657308D01*
Y170732D01*
X657636D01*
Y171388D01*
X657964D01*
Y171716D01*
X658292D01*
Y172044D01*
X658620D01*
Y172372D01*
X658948D01*
Y172700D01*
X659276D01*
Y173028D01*
X659604D01*
Y173684D01*
X659932D01*
Y174012D01*
X660260D01*
Y174340D01*
X660588D01*
Y174668D01*
X660916D01*
Y174996D01*
X661244D01*
Y175652D01*
X661572D01*
Y175980D01*
X661900D01*
Y176308D01*
X662228D01*
Y176636D01*
X662556D01*
Y176964D01*
X662884D01*
Y177292D01*
X663212D01*
Y177620D01*
X663540D01*
Y178276D01*
X663868D01*
Y178604D01*
X543492D01*
Y178276D01*
X543820D01*
Y177948D01*
X544148D01*
Y177620D01*
X544476D01*
Y177292D01*
X544804D01*
Y176964D01*
X545132D01*
Y176636D01*
X545460D01*
Y175980D01*
X545788D01*
Y175652D01*
X546116D01*
Y175324D01*
X546444D01*
Y174668D01*
X546772D01*
Y174340D01*
X547100D01*
Y174012D01*
X547428D01*
Y173684D01*
X547756D01*
Y173356D01*
X548084D01*
Y172700D01*
X548412D01*
Y172372D01*
X548740D01*
Y172044D01*
X549068D01*
Y171716D01*
X549396D01*
Y171388D01*
X549724D01*
Y170732D01*
X550052D01*
Y170404D01*
X550380D01*
Y170076D01*
X550708D01*
Y169748D01*
X551036D01*
Y169092D01*
X551364D01*
Y168764D01*
X551692D01*
Y168436D01*
X552020D01*
Y168108D01*
X552348D01*
Y167780D01*
X552676D01*
Y167452D01*
X553004D01*
Y166796D01*
X553332D01*
Y166468D01*
X553660D01*
Y166140D01*
X553988D01*
Y165484D01*
X554316D01*
Y165156D01*
X554644D01*
Y164828D01*
X554972D01*
Y164500D01*
X555300D01*
Y163844D01*
X555956D01*
Y163188D01*
X556284D01*
Y162860D01*
X556612D01*
Y162532D01*
X556940D01*
Y161876D01*
X557268D01*
Y161548D01*
X557596D01*
Y161220D01*
X557924D01*
Y160892D01*
X558252D01*
Y160564D01*
X558580D01*
Y159908D01*
X558908D01*
Y159580D01*
X559236D01*
Y159252D01*
X559564D01*
Y158924D01*
X558908D01*
Y159252D01*
X558252D01*
Y159580D01*
X557596D01*
Y159908D01*
X556940D01*
Y160236D01*
X556612D01*
Y160892D01*
X556284D01*
Y161220D01*
X555956D01*
Y161548D01*
X555628D01*
Y162204D01*
X555300D01*
Y162532D01*
X554972D01*
Y162860D01*
X554644D01*
Y163188D01*
X554316D01*
Y163844D01*
X553660D01*
Y164500D01*
X553332D01*
Y164828D01*
X553004D01*
Y165156D01*
X552676D01*
Y165812D01*
X552348D01*
Y166140D01*
X552020D01*
Y166468D01*
X551692D01*
Y166796D01*
X551364D01*
Y167124D01*
X551036D01*
Y167780D01*
X550708D01*
Y168108D01*
X550380D01*
Y168436D01*
X550052D01*
Y169092D01*
X549396D01*
Y169748D01*
X549068D01*
Y170076D01*
X548740D01*
Y170404D01*
X548412D01*
Y170732D01*
X548084D01*
Y171388D01*
X547756D01*
Y171716D01*
X547428D01*
Y172044D01*
X547100D01*
Y172372D01*
X546772D01*
Y173028D01*
X546444D01*
Y173356D01*
X546116D01*
Y173684D01*
X545788D01*
Y174012D01*
X545460D01*
Y174340D01*
X545132D01*
Y174996D01*
X544804D01*
Y175324D01*
X544476D01*
Y175652D01*
X544148D01*
Y175980D01*
X543820D01*
Y176308D01*
X543492D01*
Y176964D01*
X543164D01*
Y177292D01*
X542836D01*
Y177620D01*
X542508D01*
Y177948D01*
X542180D01*
Y178276D01*
X541852D01*
Y178932D01*
X541524D01*
Y179260D01*
X541196D01*
Y179916D01*
X666492D01*
Y179260D01*
D02*
G37*
G36*
X593020Y144164D02*
X594332D01*
Y143836D01*
X595644D01*
Y143508D01*
X596956D01*
Y143180D01*
X597940D01*
Y142852D01*
X599580D01*
Y142524D01*
X600892D01*
Y142196D01*
X602204D01*
Y141868D01*
X603188D01*
Y141540D01*
X604828D01*
Y141212D01*
X606140D01*
Y140884D01*
X607452D01*
Y140556D01*
X608436D01*
Y140228D01*
X609748D01*
Y139900D01*
X611388D01*
Y139572D01*
X612372D01*
Y139244D01*
X614012D01*
Y138916D01*
X615652D01*
Y138588D01*
X616964D01*
Y138260D01*
X617948D01*
Y137932D01*
X619588D01*
Y137604D01*
X621228D01*
Y137276D01*
X622540D01*
Y136948D01*
X624180D01*
Y136620D01*
X625820D01*
Y136292D01*
X627788D01*
Y135964D01*
X629428D01*
Y135636D01*
X630740D01*
Y135308D01*
X631068D01*
Y135636D01*
X631396D01*
Y135308D01*
X633364D01*
Y134980D01*
X635332D01*
Y135636D01*
X635004D01*
Y135964D01*
X634348D01*
Y136292D01*
X634020D01*
Y136620D01*
X633364D01*
Y136948D01*
X632708D01*
Y137276D01*
X632380D01*
Y137932D01*
X632708D01*
Y138260D01*
X633036D01*
Y138588D01*
X633364D01*
Y139244D01*
X633692D01*
Y139572D01*
X634348D01*
Y139244D01*
X635004D01*
Y138916D01*
X635332D01*
Y138588D01*
X635660D01*
Y138260D01*
X636316D01*
Y137932D01*
X636644D01*
Y137604D01*
X636972D01*
Y137276D01*
X637628D01*
Y136948D01*
X637956D01*
Y136620D01*
X638284D01*
Y136292D01*
X638612D01*
Y135964D01*
X638940D01*
Y135636D01*
X639268D01*
Y135308D01*
X639596D01*
Y134980D01*
X639924D01*
Y134652D01*
X640252D01*
Y134324D01*
X640580D01*
Y133668D01*
X640908D01*
Y133012D01*
X640580D01*
Y132028D01*
X640252D01*
Y131700D01*
X639596D01*
Y131372D01*
X638940D01*
Y131044D01*
X636972D01*
Y130716D01*
X633364D01*
Y131044D01*
X629756D01*
Y131372D01*
X627788D01*
Y131700D01*
X627460D01*
Y131372D01*
X627132D01*
Y131700D01*
X626476D01*
Y131372D01*
X626148D01*
Y131700D01*
X624508D01*
Y132028D01*
X623196D01*
Y132356D01*
X620900D01*
Y132684D01*
X619588D01*
Y133012D01*
X619260D01*
Y132684D01*
X618932D01*
Y133012D01*
X617620D01*
Y133340D01*
X615652D01*
Y133668D01*
X614012D01*
Y133996D01*
X613028D01*
Y134324D01*
X611060D01*
Y134652D01*
X609748D01*
Y134980D01*
X608108D01*
Y135308D01*
X606468D01*
Y135636D01*
X605156D01*
Y135964D01*
X603844D01*
Y136292D01*
X602532D01*
Y136620D01*
X600892D01*
Y136948D01*
X599580D01*
Y137276D01*
X597940D01*
Y137604D01*
X596628D01*
Y137932D01*
X595316D01*
Y138260D01*
X594332D01*
Y138588D01*
X592692D01*
Y138916D01*
X591380D01*
Y139244D01*
X590396D01*
Y140228D01*
X590724D01*
Y140884D01*
X591052D01*
Y141540D01*
X591380D01*
Y142524D01*
X591708D01*
Y143180D01*
X592036D01*
Y144164D01*
X592364D01*
Y144492D01*
X593020D01*
Y144164D01*
D02*
G37*
G36*
X602860Y135308D02*
X604500D01*
Y134980D01*
X606140D01*
Y134652D01*
X606796D01*
Y125468D01*
X601220D01*
Y134980D01*
Y135308D01*
Y135636D01*
X602860D01*
Y135308D01*
D02*
G37*
G36*
X575308Y142524D02*
X575964D01*
Y142196D01*
X576948D01*
Y141868D01*
X577604D01*
Y141540D01*
X578588D01*
Y140884D01*
X578916D01*
Y140228D01*
X579244D01*
Y138916D01*
X579572D01*
Y138588D01*
X579900D01*
Y137932D01*
X580228D01*
Y137604D01*
X580556D01*
Y137276D01*
X581540D01*
Y136948D01*
X582196D01*
Y136620D01*
X583180D01*
Y136292D01*
X583836D01*
Y135964D01*
X584820D01*
Y135636D01*
X585476D01*
Y135308D01*
X586132D01*
Y134980D01*
X586460D01*
Y134652D01*
X586788D01*
Y134324D01*
X587116D01*
Y133996D01*
X587444D01*
Y133668D01*
X587772D01*
Y133340D01*
X588100D01*
Y133012D01*
X588428D01*
Y132356D01*
X588756D01*
Y132028D01*
X589084D01*
Y131700D01*
X589412D01*
Y131372D01*
X589740D01*
Y130716D01*
X590068D01*
Y130388D01*
X590396D01*
Y130060D01*
X590724D01*
Y129404D01*
X591052D01*
Y129076D01*
X591380D01*
Y128748D01*
X591708D01*
Y128420D01*
X592036D01*
Y128092D01*
X592364D01*
Y127764D01*
X592692D01*
Y127108D01*
X593020D01*
Y126780D01*
X593348D01*
Y126452D01*
X593676D01*
Y126124D01*
X594004D01*
Y125796D01*
X594332D01*
Y125140D01*
X594660D01*
Y124812D01*
X594988D01*
Y124484D01*
X595316D01*
Y123828D01*
X595644D01*
Y123500D01*
X595972D01*
Y123172D01*
X596300D01*
Y122844D01*
X596628D01*
Y122516D01*
X596956D01*
Y121860D01*
X597284D01*
Y121532D01*
X597612D01*
Y121204D01*
X597940D01*
Y120876D01*
X598268D01*
Y120548D01*
X598596D01*
Y119892D01*
X598924D01*
Y119564D01*
X599252D01*
Y119236D01*
X599580D01*
Y118908D01*
X599908D01*
Y118252D01*
X600236D01*
Y117924D01*
X600564D01*
Y117596D01*
X600892D01*
Y117268D01*
X601220D01*
Y116612D01*
X601876D01*
Y115956D01*
X602204D01*
Y115628D01*
X602532D01*
Y115300D01*
X602860D01*
Y114972D01*
X603188D01*
Y114644D01*
X603516D01*
Y114972D01*
X603844D01*
Y115300D01*
X604172D01*
Y115956D01*
X604500D01*
Y116284D01*
X604828D01*
Y116612D01*
X605156D01*
Y116940D01*
X605484D01*
Y117268D01*
X605812D01*
Y117924D01*
X606140D01*
Y118252D01*
X606468D01*
Y118580D01*
X606796D01*
Y118908D01*
X607124D01*
Y119236D01*
X607452D01*
Y119892D01*
X607780D01*
Y120220D01*
X608108D01*
Y120548D01*
X608436D01*
Y121204D01*
X608764D01*
Y121532D01*
X609092D01*
Y121860D01*
X609420D01*
Y122188D01*
X609748D01*
Y122516D01*
X610076D01*
Y122844D01*
X610404D01*
Y123172D01*
X610732D01*
Y123828D01*
X611060D01*
Y124156D01*
X611388D01*
Y124484D01*
X611716D01*
Y124812D01*
X612044D01*
Y125468D01*
X612372D01*
Y125796D01*
X612700D01*
Y126124D01*
X613028D01*
Y126452D01*
X613356D01*
Y126780D01*
X613684D01*
Y127108D01*
X614012D01*
Y127436D01*
X614340D01*
Y128092D01*
X614668D01*
Y128420D01*
X614996D01*
Y128748D01*
X615324D01*
Y129076D01*
X615652D01*
Y129404D01*
X615980D01*
Y130060D01*
X616308D01*
Y130388D01*
X616636D01*
Y130716D01*
X616964D01*
Y131372D01*
X617292D01*
Y131700D01*
X617620D01*
Y132028D01*
X617948D01*
Y132356D01*
X618604D01*
Y132028D01*
X620572D01*
Y131700D01*
X621556D01*
Y131372D01*
X622540D01*
Y131044D01*
X622212D01*
Y130716D01*
X621884D01*
Y130060D01*
X621556D01*
Y129732D01*
X621228D01*
Y129404D01*
X620900D01*
Y129076D01*
X620572D01*
Y128748D01*
X620244D01*
Y128092D01*
X619916D01*
Y127764D01*
X619588D01*
Y127436D01*
X619260D01*
Y127108D01*
X618932D01*
Y126452D01*
X618604D01*
Y126124D01*
X618276D01*
Y125796D01*
X617948D01*
Y125468D01*
X617620D01*
Y125140D01*
X617292D01*
Y124484D01*
X616636D01*
Y123828D01*
X616308D01*
Y123500D01*
X615980D01*
Y123172D01*
X615652D01*
Y122844D01*
X615324D01*
Y122188D01*
X614996D01*
Y121860D01*
X614668D01*
Y121532D01*
X614340D01*
Y121204D01*
X614012D01*
Y120876D01*
X613684D01*
Y120220D01*
X613356D01*
Y119892D01*
X613028D01*
Y119564D01*
X612700D01*
Y119236D01*
X612372D01*
Y118908D01*
X612044D01*
Y118580D01*
X611716D01*
Y117924D01*
X611388D01*
Y117596D01*
X611060D01*
Y117268D01*
X610732D01*
Y116940D01*
X610404D01*
Y116284D01*
X610076D01*
Y115956D01*
X609748D01*
Y115628D01*
X609420D01*
Y115300D01*
X609092D01*
Y114972D01*
X608764D01*
Y114644D01*
X608436D01*
Y113988D01*
X608108D01*
Y113660D01*
X607780D01*
Y113332D01*
X607452D01*
Y113004D01*
X607124D01*
Y112348D01*
X606796D01*
Y112020D01*
X606468D01*
Y111692D01*
X606140D01*
Y111364D01*
X605812D01*
Y111036D01*
X605484D01*
Y110708D01*
X605156D01*
Y110052D01*
X604828D01*
Y109724D01*
X604500D01*
Y109396D01*
X604172D01*
Y109068D01*
X603844D01*
Y108740D01*
X603516D01*
Y108084D01*
X602860D01*
Y108740D01*
X602532D01*
Y109068D01*
X602204D01*
Y109396D01*
X601876D01*
Y109724D01*
X601548D01*
Y110052D01*
X601220D01*
Y110708D01*
X600892D01*
Y111036D01*
X600564D01*
Y111364D01*
X600236D01*
Y111692D01*
X599908D01*
Y112348D01*
X599580D01*
Y112676D01*
X599252D01*
Y113004D01*
X598924D01*
Y113332D01*
X598596D01*
Y113660D01*
X598268D01*
Y114316D01*
X597940D01*
Y114644D01*
X597612D01*
Y114972D01*
X597284D01*
Y115300D01*
X596956D01*
Y115628D01*
X596628D01*
Y115956D01*
X596300D01*
Y116612D01*
X595972D01*
Y116940D01*
X595644D01*
Y117268D01*
X595316D01*
Y117924D01*
X594988D01*
Y118252D01*
X594660D01*
Y118580D01*
X594332D01*
Y118908D01*
X594004D01*
Y119236D01*
X593676D01*
Y119892D01*
X593348D01*
Y120220D01*
X593020D01*
Y120548D01*
X592692D01*
Y120876D01*
X592364D01*
Y121204D01*
X592036D01*
Y121860D01*
X591708D01*
Y122188D01*
X591380D01*
Y122516D01*
X591052D01*
Y122844D01*
X590724D01*
Y123500D01*
X590396D01*
Y123828D01*
X590068D01*
Y124156D01*
X589740D01*
Y124484D01*
X589412D01*
Y124812D01*
X589084D01*
Y125468D01*
X588756D01*
Y125796D01*
X588428D01*
Y126124D01*
X588100D01*
Y126452D01*
X587772D01*
Y127108D01*
X587444D01*
Y127436D01*
X587116D01*
Y127764D01*
X586788D01*
Y128092D01*
X586460D01*
Y128748D01*
X586132D01*
Y129076D01*
X585804D01*
Y129404D01*
X585476D01*
Y129732D01*
X585148D01*
Y130060D01*
X584820D01*
Y130716D01*
X584492D01*
Y131044D01*
X584164D01*
Y131372D01*
X583836D01*
Y131700D01*
X583508D01*
Y132356D01*
X583180D01*
Y132684D01*
X582852D01*
Y133012D01*
X582524D01*
Y133340D01*
X582196D01*
Y133668D01*
X581868D01*
Y133996D01*
X581540D01*
Y134652D01*
X581212D01*
Y134980D01*
X580884D01*
Y135308D01*
X580556D01*
Y135636D01*
X580228D01*
Y136292D01*
X579900D01*
Y136620D01*
X579572D01*
Y136948D01*
X579244D01*
Y137276D01*
X578916D01*
Y137604D01*
X578588D01*
Y138260D01*
X578260D01*
Y138588D01*
X577932D01*
Y138916D01*
X577604D01*
Y139244D01*
X577276D01*
Y139900D01*
X576948D01*
Y140228D01*
X576620D01*
Y140556D01*
X576292D01*
Y140884D01*
X575964D01*
Y141212D01*
X575636D01*
Y141868D01*
X575308D01*
Y142196D01*
X574980D01*
Y142524D01*
X574652D01*
Y142852D01*
X575308D01*
Y142524D01*
D02*
G37*
G36*
X569404Y145804D02*
X570060D01*
Y145476D01*
X570716D01*
Y145148D01*
X571044D01*
Y144820D01*
X571372D01*
Y144492D01*
X571700D01*
Y144164D01*
X572028D01*
Y143508D01*
X572356D01*
Y143180D01*
X572684D01*
Y142852D01*
X573012D01*
Y142524D01*
X573340D01*
Y142196D01*
X573668D01*
Y141540D01*
X573996D01*
Y141212D01*
X574324D01*
Y140884D01*
X574652D01*
Y140556D01*
X574980D01*
Y139900D01*
X575308D01*
Y139572D01*
X575636D01*
Y139244D01*
X575964D01*
Y138916D01*
X576292D01*
Y138588D01*
X576620D01*
Y137932D01*
X576948D01*
Y137604D01*
X577276D01*
Y137276D01*
X577604D01*
Y136948D01*
X577932D01*
Y136292D01*
X578588D01*
Y135636D01*
X578916D01*
Y135308D01*
X579244D01*
Y134980D01*
X579572D01*
Y134324D01*
X579900D01*
Y133996D01*
X580228D01*
Y133668D01*
X580556D01*
Y133340D01*
X580884D01*
Y132684D01*
X581212D01*
Y132356D01*
X581540D01*
Y132028D01*
X581868D01*
Y131700D01*
X582196D01*
Y131372D01*
X582524D01*
Y130716D01*
X582852D01*
Y130388D01*
X583180D01*
Y130060D01*
X583508D01*
Y129732D01*
X583836D01*
Y129076D01*
X584164D01*
Y128748D01*
X584492D01*
Y128420D01*
X584820D01*
Y128092D01*
X585148D01*
Y127764D01*
X585476D01*
Y127108D01*
X585804D01*
Y126780D01*
X586132D01*
Y126452D01*
X586460D01*
Y126124D01*
X586788D01*
Y125796D01*
X587116D01*
Y125140D01*
X587444D01*
Y124812D01*
X587772D01*
Y124484D01*
X588100D01*
Y124156D01*
X588428D01*
Y123500D01*
X588756D01*
Y123172D01*
X589084D01*
Y122844D01*
X589412D01*
Y122516D01*
X589740D01*
Y122188D01*
X590068D01*
Y121532D01*
X590396D01*
Y121204D01*
X590724D01*
Y120876D01*
X591052D01*
Y120548D01*
X591380D01*
Y120220D01*
X591708D01*
Y119564D01*
X592036D01*
Y119236D01*
X592364D01*
Y118908D01*
X592692D01*
Y118252D01*
X593020D01*
Y117924D01*
X593348D01*
Y117596D01*
X593676D01*
Y117268D01*
X594004D01*
Y116940D01*
X594332D01*
Y116612D01*
X594660D01*
Y115956D01*
X594988D01*
Y115628D01*
X595316D01*
Y115300D01*
X595644D01*
Y114972D01*
X595972D01*
Y114644D01*
X596300D01*
Y113988D01*
X596628D01*
Y113660D01*
X596956D01*
Y113332D01*
X597284D01*
Y113004D01*
X597612D01*
Y112348D01*
X597940D01*
Y112020D01*
X598268D01*
Y111692D01*
X598596D01*
Y111036D01*
X599252D01*
Y110380D01*
X599580D01*
Y110052D01*
X599908D01*
Y109724D01*
X600236D01*
Y109068D01*
X600564D01*
Y108740D01*
X600892D01*
Y108412D01*
X601220D01*
Y108084D01*
X601548D01*
Y107756D01*
X601876D01*
Y107100D01*
X602204D01*
Y106772D01*
X602532D01*
Y106444D01*
X602860D01*
Y106116D01*
X603516D01*
Y106444D01*
X603844D01*
Y106772D01*
X604172D01*
Y107428D01*
X604500D01*
Y107756D01*
X604828D01*
Y108084D01*
X605156D01*
Y108412D01*
X605484D01*
Y109068D01*
X605812D01*
Y109396D01*
X606140D01*
Y109724D01*
X606468D01*
Y110052D01*
X606796D01*
Y110380D01*
X607124D01*
Y110708D01*
X607452D01*
Y111364D01*
X607780D01*
Y111692D01*
X608108D01*
Y112020D01*
X608436D01*
Y112348D01*
X608764D01*
Y112676D01*
X609092D01*
Y113332D01*
X609420D01*
Y113660D01*
X609748D01*
Y113988D01*
X610076D01*
Y114316D01*
X610404D01*
Y114644D01*
X610732D01*
Y115300D01*
X611060D01*
Y115628D01*
X611388D01*
Y115956D01*
X611716D01*
Y116284D01*
X612044D01*
Y116612D01*
X612372D01*
Y117268D01*
X612700D01*
Y117596D01*
X613028D01*
Y117924D01*
X613356D01*
Y118252D01*
X613684D01*
Y118580D01*
X614012D01*
Y119236D01*
X614340D01*
Y119564D01*
X614668D01*
Y119892D01*
X614996D01*
Y120220D01*
X615324D01*
Y120548D01*
X615652D01*
Y121204D01*
X615980D01*
Y121532D01*
X616308D01*
Y121860D01*
X616636D01*
Y122188D01*
X616964D01*
Y122516D01*
X617292D01*
Y122844D01*
X617620D01*
Y123500D01*
X617948D01*
Y123828D01*
X618276D01*
Y124156D01*
X618604D01*
Y124484D01*
X618932D01*
Y124812D01*
X619260D01*
Y125468D01*
X619588D01*
Y125796D01*
X619916D01*
Y126124D01*
X620244D01*
Y126452D01*
X620572D01*
Y126780D01*
X620900D01*
Y127436D01*
X621228D01*
Y127764D01*
X621556D01*
Y128092D01*
X621884D01*
Y128420D01*
X622212D01*
Y128748D01*
X622540D01*
Y129404D01*
X622868D01*
Y129732D01*
X623196D01*
Y130060D01*
X623524D01*
Y130388D01*
X623852D01*
Y131044D01*
X625492D01*
Y130388D01*
X625164D01*
Y130060D01*
X624836D01*
Y129732D01*
X624508D01*
Y129404D01*
X624180D01*
Y129076D01*
X623852D01*
Y128420D01*
X623524D01*
Y128092D01*
X623196D01*
Y127764D01*
X622868D01*
Y127436D01*
X622540D01*
Y127108D01*
X622212D01*
Y126452D01*
X621884D01*
Y126124D01*
X621556D01*
Y125796D01*
X621228D01*
Y125468D01*
X620900D01*
Y125140D01*
X620572D01*
Y124484D01*
X620244D01*
Y124156D01*
X619916D01*
Y123828D01*
X619588D01*
Y123500D01*
X619260D01*
Y123172D01*
X618932D01*
Y122516D01*
X618604D01*
Y122188D01*
X618276D01*
Y121860D01*
X617948D01*
Y121532D01*
X617620D01*
Y120876D01*
X617292D01*
Y120548D01*
X616964D01*
Y120220D01*
X616636D01*
Y119892D01*
X616308D01*
Y119564D01*
X615980D01*
Y118908D01*
X615324D01*
Y118252D01*
X614996D01*
Y117924D01*
X614668D01*
Y117596D01*
X614340D01*
Y117268D01*
X614012D01*
Y116612D01*
X613684D01*
Y116284D01*
X613356D01*
Y115956D01*
X613028D01*
Y115628D01*
X612700D01*
Y115300D01*
Y114972D01*
X612372D01*
Y114644D01*
X612044D01*
Y114316D01*
X611716D01*
Y113988D01*
X611388D01*
Y113660D01*
X611060D01*
Y113004D01*
X610404D01*
Y112348D01*
X610076D01*
Y112020D01*
X609748D01*
Y111692D01*
X609420D01*
Y111364D01*
X609092D01*
Y110708D01*
X608764D01*
Y110380D01*
X608436D01*
Y110052D01*
X608108D01*
Y109724D01*
X607780D01*
Y109396D01*
X607452D01*
Y109068D01*
X607124D01*
Y108740D01*
X606796D01*
Y108084D01*
X606468D01*
Y107756D01*
X606140D01*
Y107428D01*
X605812D01*
Y107100D01*
X605484D01*
Y106772D01*
X605156D01*
Y106116D01*
X604828D01*
Y105788D01*
X604500D01*
Y105460D01*
X604172D01*
Y105132D01*
X603844D01*
Y104476D01*
X603516D01*
Y104148D01*
X602860D01*
Y104476D01*
X602532D01*
Y104804D01*
X602204D01*
Y105460D01*
X601548D01*
Y106116D01*
X601220D01*
Y106444D01*
X600892D01*
Y106772D01*
X600564D01*
Y107428D01*
X600236D01*
Y107756D01*
X599908D01*
Y108084D01*
X599580D01*
Y108412D01*
X599252D01*
Y108740D01*
X598924D01*
Y109396D01*
X598596D01*
Y109724D01*
X598268D01*
Y110052D01*
X597940D01*
Y110380D01*
X597612D01*
Y111036D01*
X597284D01*
Y111364D01*
X596956D01*
Y111692D01*
X596628D01*
Y112020D01*
X596300D01*
Y112348D01*
X595972D01*
Y113004D01*
X595644D01*
Y113332D01*
X595316D01*
Y113660D01*
X594988D01*
Y114316D01*
X594332D01*
Y114644D01*
X594004D01*
Y115300D01*
X593676D01*
Y115628D01*
X593348D01*
Y115956D01*
X593020D01*
Y116612D01*
X592692D01*
Y116940D01*
X592364D01*
Y117268D01*
X592036D01*
Y117596D01*
X591708D01*
Y118252D01*
X591380D01*
Y118580D01*
X590724D01*
Y119236D01*
X590396D01*
Y119564D01*
X590068D01*
Y119892D01*
X589740D01*
Y120548D01*
X589412D01*
Y120876D01*
X589084D01*
Y121204D01*
X588756D01*
Y121532D01*
X588428D01*
Y122188D01*
X588100D01*
Y122516D01*
X587772D01*
Y122844D01*
X587444D01*
Y123172D01*
X587116D01*
Y123828D01*
X586460D01*
Y124484D01*
X586132D01*
Y124812D01*
X585804D01*
Y125468D01*
X585476D01*
Y125796D01*
X585148D01*
Y126124D01*
X584820D01*
Y126452D01*
X584492D01*
Y126780D01*
X584164D01*
Y127436D01*
X583836D01*
Y127764D01*
X583508D01*
Y128092D01*
X583180D01*
Y128420D01*
X582852D01*
Y128748D01*
X582524D01*
Y129404D01*
X582196D01*
Y129732D01*
X581868D01*
Y130060D01*
X581540D01*
Y130388D01*
X581212D01*
Y130716D01*
X580884D01*
Y131372D01*
X580556D01*
Y131700D01*
X580228D01*
Y132028D01*
X579900D01*
Y132684D01*
X579244D01*
Y133340D01*
X578916D01*
Y133668D01*
X578588D01*
Y133996D01*
X578260D01*
Y134652D01*
X577932D01*
Y134980D01*
X577604D01*
Y135308D01*
X577276D01*
Y135636D01*
X576948D01*
Y135964D01*
X576620D01*
Y136620D01*
X576292D01*
Y136948D01*
X575964D01*
Y137276D01*
X575636D01*
Y137604D01*
X575308D01*
Y137932D01*
X574980D01*
Y138588D01*
X574652D01*
Y138916D01*
X574324D01*
Y139244D01*
X573996D01*
Y139572D01*
X573668D01*
Y140228D01*
X573340D01*
Y140556D01*
X573012D01*
Y140884D01*
X572684D01*
Y141212D01*
X572356D01*
Y141868D01*
X572028D01*
Y142196D01*
X571700D01*
Y142524D01*
X571372D01*
Y142852D01*
X571044D01*
Y143180D01*
X570716D01*
Y143508D01*
X570388D01*
Y143836D01*
X570060D01*
Y144492D01*
X569732D01*
Y144820D01*
X569404D01*
Y145148D01*
X569076D01*
Y145804D01*
X568748D01*
Y146132D01*
X569404D01*
Y145804D01*
D02*
G37*
G36*
X612372Y94308D02*
X612044D01*
Y93980D01*
X611716D01*
Y93324D01*
X611388D01*
Y92996D01*
X611060D01*
Y92668D01*
X610732D01*
Y92340D01*
X610404D01*
Y92012D01*
X610076D01*
Y91684D01*
X609748D01*
Y91356D01*
X601548D01*
Y91028D01*
X601220D01*
Y90372D01*
X600892D01*
Y89716D01*
X600564D01*
Y88732D01*
X600236D01*
Y87748D01*
X600564D01*
Y88076D01*
X600892D01*
Y88404D01*
X601220D01*
Y88732D01*
X601548D01*
Y89060D01*
X601876D01*
Y89388D01*
X602532D01*
Y89716D01*
X602860D01*
Y89388D01*
X607780D01*
Y89716D01*
X608108D01*
Y89060D01*
X607452D01*
Y88732D01*
X607124D01*
Y88404D01*
X606796D01*
Y88076D01*
X606468D01*
Y87748D01*
X606140D01*
Y87420D01*
X605812D01*
Y87092D01*
X605484D01*
Y86764D01*
X605156D01*
Y86436D01*
X604828D01*
Y86108D01*
X599580D01*
Y85780D01*
X599252D01*
Y85124D01*
X598924D01*
Y84468D01*
X608764D01*
Y84140D01*
X608436D01*
Y83484D01*
X608108D01*
Y83156D01*
X607780D01*
Y82828D01*
X607452D01*
Y82500D01*
X607124D01*
Y82172D01*
X606796D01*
Y81844D01*
X606468D01*
Y81516D01*
X606140D01*
Y81188D01*
X605812D01*
Y80860D01*
X592692D01*
Y81516D01*
X593020D01*
Y82500D01*
X593348D01*
Y83484D01*
X593676D01*
Y84468D01*
X594004D01*
Y85124D01*
X594332D01*
Y86108D01*
X594660D01*
Y87092D01*
X594988D01*
Y87748D01*
X595316D01*
Y88732D01*
X595644D01*
Y89716D01*
X595972D01*
Y90700D01*
X596300D01*
Y91356D01*
X596628D01*
Y92340D01*
X596956D01*
Y93324D01*
X597284D01*
Y94308D01*
X597612D01*
Y94636D01*
X612372D01*
Y94308D01*
D02*
G37*
G36*
X592692Y93980D02*
X592364D01*
Y93652D01*
X592036D01*
Y93324D01*
X591708D01*
Y92996D01*
X591380D01*
Y92340D01*
X591052D01*
Y92012D01*
X590724D01*
Y91684D01*
X590396D01*
Y91356D01*
X581212D01*
Y91028D01*
X580884D01*
Y89716D01*
X581540D01*
Y89388D01*
X587772D01*
Y89060D01*
X588100D01*
Y88732D01*
X588428D01*
Y88404D01*
X588756D01*
Y88076D01*
X589084D01*
Y87092D01*
X589412D01*
Y84140D01*
X589084D01*
Y83156D01*
X588756D01*
Y82828D01*
X588428D01*
Y82172D01*
X588100D01*
Y81844D01*
X587772D01*
Y81516D01*
X587116D01*
Y81188D01*
X586132D01*
Y80860D01*
X572684D01*
Y81188D01*
X573012D01*
Y81844D01*
X573340D01*
Y82172D01*
X573668D01*
Y82828D01*
X573996D01*
Y83156D01*
X574324D01*
Y83484D01*
X574652D01*
Y83812D01*
X574980D01*
Y84468D01*
X584492D01*
Y84796D01*
X584820D01*
Y85780D01*
X584492D01*
Y86108D01*
X578260D01*
Y86436D01*
X577604D01*
Y86764D01*
X577276D01*
Y87092D01*
X576948D01*
Y87420D01*
X576620D01*
Y87748D01*
X576292D01*
Y88404D01*
X575964D01*
Y89716D01*
X575636D01*
Y90372D01*
X575964D01*
Y91684D01*
X576292D01*
Y92340D01*
X576620D01*
Y92668D01*
X576948D01*
Y92996D01*
X577276D01*
Y93324D01*
X577604D01*
Y93652D01*
X577932D01*
Y93980D01*
X578260D01*
Y94308D01*
X578588D01*
Y94636D01*
X592692D01*
Y93980D01*
D02*
G37*
G36*
X628116Y94308D02*
X629100D01*
Y93980D01*
X629756D01*
Y93652D01*
X630084D01*
Y93324D01*
X630740D01*
Y92996D01*
X631068D01*
Y92340D01*
X631396D01*
Y91684D01*
X631724D01*
Y90700D01*
X632052D01*
Y89060D01*
X631724D01*
Y87420D01*
X631396D01*
Y86436D01*
X631068D01*
Y85780D01*
X630740D01*
Y85452D01*
X630412D01*
Y84796D01*
X630084D01*
Y84468D01*
X629756D01*
Y84140D01*
X629428D01*
Y83812D01*
X629100D01*
Y83484D01*
X628772D01*
Y83156D01*
X628444D01*
Y81844D01*
X628772D01*
Y81188D01*
X629100D01*
Y80532D01*
X629428D01*
Y80204D01*
X624180D01*
Y80860D01*
X620572D01*
Y81188D01*
X618276D01*
Y81516D01*
X617292D01*
Y81844D01*
X616308D01*
Y82172D01*
X615980D01*
Y82500D01*
X615652D01*
Y82828D01*
X615324D01*
Y83156D01*
X614996D01*
Y83484D01*
X614668D01*
Y84140D01*
X614340D01*
Y88404D01*
X614668D01*
Y89388D01*
X614996D01*
Y90044D01*
X615324D01*
Y90372D01*
X615652D01*
Y91028D01*
X615980D01*
Y91356D01*
X616308D01*
Y91684D01*
X616636D01*
Y92012D01*
X616964D01*
Y92340D01*
X617292D01*
Y92668D01*
X617620D01*
Y92996D01*
X617948D01*
Y93324D01*
X618276D01*
Y93652D01*
X618932D01*
Y93980D01*
X619588D01*
Y94308D01*
X620572D01*
Y94636D01*
X628116D01*
Y94308D01*
D02*
G37*
G36*
X639596Y66756D02*
X564812D01*
Y78564D01*
X639596D01*
Y66756D01*
D02*
G37*
%LPC*%
G36*
X618604Y166140D02*
X617948D01*
Y165484D01*
X617620D01*
Y165156D01*
X617292D01*
Y164500D01*
X616964D01*
Y164172D01*
X616636D01*
Y163844D01*
X616308D01*
Y163188D01*
X618932D01*
Y164172D01*
X618604D01*
Y166140D01*
D02*
G37*
G36*
X598924Y166796D02*
X595644D01*
Y166140D01*
X595316D01*
Y165484D01*
X595644D01*
Y165812D01*
X595972D01*
Y166140D01*
X598924D01*
Y166796D01*
D02*
G37*
G36*
X586132Y166140D02*
X585804D01*
Y165812D01*
X585476D01*
Y165156D01*
X585148D01*
Y164828D01*
X584820D01*
Y164172D01*
X584492D01*
Y163844D01*
X584164D01*
Y163516D01*
X583836D01*
Y163188D01*
X586460D01*
Y164500D01*
Y164828D01*
Y165484D01*
X586132D01*
Y166140D01*
D02*
G37*
G36*
X625164Y91356D02*
X622540D01*
Y91028D01*
X621556D01*
Y90700D01*
X621228D01*
Y90372D01*
X620900D01*
Y90044D01*
X620244D01*
Y89388D01*
X619916D01*
Y89060D01*
X619588D01*
Y88404D01*
X619260D01*
Y86108D01*
X619588D01*
Y85452D01*
X619916D01*
Y85124D01*
X620244D01*
Y84796D01*
X620900D01*
Y84468D01*
X621556D01*
Y85452D01*
X621228D01*
Y86108D01*
X620900D01*
Y86764D01*
X620572D01*
Y87748D01*
X620900D01*
Y87420D01*
X626148D01*
Y86764D01*
X626476D01*
Y87092D01*
X626804D01*
Y87748D01*
X627132D01*
Y89388D01*
X626804D01*
Y90372D01*
X626476D01*
Y90700D01*
X626148D01*
Y91028D01*
X625164D01*
Y91356D01*
D02*
G37*
G36*
X636644Y76268D02*
X629428D01*
Y75612D01*
X629100D01*
Y74628D01*
X628772D01*
Y73644D01*
X628444D01*
Y72660D01*
X628116D01*
Y72004D01*
X627788D01*
Y71020D01*
X627460D01*
Y70036D01*
X627132D01*
Y69052D01*
X632708D01*
Y69380D01*
X633692D01*
Y69708D01*
X634020D01*
Y70036D01*
X634676D01*
Y70364D01*
X635004D01*
Y70692D01*
X635332D01*
Y71020D01*
X635660D01*
Y71348D01*
X635988D01*
Y72004D01*
X636316D01*
Y72332D01*
X636644D01*
Y72988D01*
X636972D01*
Y73644D01*
X637300D01*
Y75284D01*
X636972D01*
Y75940D01*
X636644D01*
Y76268D01*
D02*
G37*
G36*
X621884D02*
X614668D01*
Y75284D01*
X614340D01*
Y74300D01*
X614012D01*
Y73316D01*
X613684D01*
Y72660D01*
X613356D01*
Y71676D01*
X613028D01*
Y70692D01*
X612700D01*
Y69708D01*
X612372D01*
Y69052D01*
X614996D01*
Y69708D01*
X615324D01*
Y70692D01*
X615652D01*
Y71348D01*
X616308D01*
Y71020D01*
X616636D01*
Y70692D01*
X616964D01*
Y70364D01*
X617620D01*
Y70036D01*
X617948D01*
Y69708D01*
X618276D01*
Y69380D01*
X618604D01*
Y69052D01*
X621556D01*
Y69380D01*
X621228D01*
Y69708D01*
X620900D01*
Y70036D01*
X620572D01*
Y70364D01*
X620244D01*
Y70692D01*
X619916D01*
Y71020D01*
X619588D01*
Y71348D01*
X619260D01*
Y71676D01*
X619916D01*
Y72004D01*
X621228D01*
Y72332D01*
X621884D01*
Y72660D01*
X622212D01*
Y72988D01*
X622540D01*
Y75612D01*
X622212D01*
Y75940D01*
X621884D01*
Y76268D01*
D02*
G37*
G36*
X605156D02*
X602204D01*
Y75940D01*
X601876D01*
Y75612D01*
X601548D01*
Y75284D01*
X601220D01*
Y74628D01*
X600892D01*
Y74300D01*
X600564D01*
Y73972D01*
X600236D01*
Y73644D01*
X599908D01*
Y72988D01*
X599580D01*
Y72660D01*
X599252D01*
Y72332D01*
X598924D01*
Y71676D01*
X598596D01*
Y71348D01*
X598268D01*
Y71020D01*
X597940D01*
Y70692D01*
X597612D01*
Y70036D01*
X597284D01*
Y69708D01*
X596956D01*
Y69380D01*
X596628D01*
Y69052D01*
X602860D01*
Y69380D01*
X603188D01*
Y70036D01*
X603516D01*
Y70364D01*
X603844D01*
Y69380D01*
X604172D01*
Y69052D01*
X606468D01*
Y70692D01*
X606140D01*
Y72660D01*
X605812D01*
Y74956D01*
X605484D01*
Y75940D01*
X605156D01*
Y76268D01*
D02*
G37*
G36*
X591052D02*
X586460D01*
Y75940D01*
X585804D01*
Y75612D01*
X585148D01*
Y75284D01*
X584820D01*
Y74956D01*
X584492D01*
Y74628D01*
X584164D01*
Y73972D01*
X583836D01*
Y73644D01*
X583508D01*
Y72332D01*
X583180D01*
Y71020D01*
X583508D01*
Y70036D01*
X583836D01*
Y69708D01*
X584164D01*
Y69380D01*
X584820D01*
Y69052D01*
X589740D01*
Y69380D01*
X590396D01*
Y69708D01*
X591052D01*
Y70036D01*
X591380D01*
Y70364D01*
X591708D01*
Y70692D01*
X592036D01*
Y71348D01*
X592364D01*
Y72004D01*
X592692D01*
Y72988D01*
X593020D01*
Y74628D01*
X592692D01*
Y75284D01*
X592364D01*
Y75612D01*
X592036D01*
Y75940D01*
X591052D01*
Y76268D01*
D02*
G37*
G36*
X577276D02*
X570060D01*
Y75612D01*
X569732D01*
Y74628D01*
X569404D01*
Y73644D01*
X569076D01*
Y72660D01*
X568748D01*
Y72004D01*
X568420D01*
Y71020D01*
X568092D01*
Y70036D01*
X567764D01*
Y69052D01*
X575636D01*
Y69380D01*
X576292D01*
Y69708D01*
X576620D01*
Y70364D01*
X576948D01*
Y71020D01*
X577276D01*
Y72332D01*
X576948D01*
Y72660D01*
X577276D01*
Y72988D01*
X577604D01*
Y73644D01*
X577932D01*
Y75612D01*
X577604D01*
Y75940D01*
X577276D01*
Y76268D01*
D02*
G37*
%LPD*%
G36*
X634348Y73316D02*
X634020D01*
Y72988D01*
Y72660D01*
X633692D01*
Y72332D01*
X633364D01*
Y72004D01*
X633036D01*
Y71676D01*
X632708D01*
Y71348D01*
X632052D01*
Y71020D01*
X631068D01*
Y70692D01*
X630412D01*
Y71676D01*
X630740D01*
Y72332D01*
X631068D01*
Y73316D01*
X631396D01*
Y74300D01*
X634348D01*
Y73316D01*
D02*
G37*
G36*
X619916Y73644D02*
X617292D01*
Y73316D01*
X616964D01*
Y72988D01*
X616636D01*
Y72660D01*
X616308D01*
Y73316D01*
X616636D01*
Y74300D01*
X619916D01*
Y73644D01*
D02*
G37*
G36*
X603516Y73316D02*
Y72988D01*
Y71348D01*
X603844D01*
Y71020D01*
X603516D01*
Y70692D01*
X601220D01*
Y71348D01*
X601548D01*
Y72004D01*
X601876D01*
Y72332D01*
X602204D01*
Y72660D01*
X602532D01*
Y73316D01*
X602860D01*
Y73644D01*
X603516D01*
Y73316D01*
D02*
G37*
G36*
X589740Y73972D02*
X590068D01*
Y72004D01*
X589740D01*
Y71676D01*
X589412D01*
Y71348D01*
X588756D01*
Y71020D01*
X588428D01*
Y70692D01*
X586788D01*
Y71020D01*
X586460D01*
Y71348D01*
X586132D01*
Y72004D01*
X585804D01*
Y72660D01*
X586132D01*
Y72988D01*
Y73316D01*
X586460D01*
Y73644D01*
X586788D01*
Y73972D01*
X587116D01*
Y74300D01*
X589740D01*
Y73972D01*
D02*
G37*
G36*
X575308Y73644D02*
X572684D01*
Y73316D01*
X572356D01*
Y72988D01*
X572028D01*
Y72660D01*
X571700D01*
Y73644D01*
X572028D01*
Y73972D01*
Y74300D01*
X575308D01*
Y73644D01*
D02*
G37*
G36*
X574324Y71020D02*
X573668D01*
Y70692D01*
X571044D01*
Y71676D01*
X574324D01*
Y71020D01*
D02*
G37*
D10*
X163335Y264000D02*
X162547D01*
X163335D01*
X418953Y266000D02*
X418165D01*
X418953D01*
X226894Y232941D02*
X226106D01*
X226894D01*
X605953Y267500D02*
X605165D01*
X605953D01*
X646953Y12000D02*
X646165D01*
X646953D01*
X463453Y15500D02*
X462665D01*
X463453D01*
X269894Y2441D02*
X269106D01*
X269894D01*
X488835Y230500D02*
X488047D01*
X488835D01*
X419335Y259500D02*
X418547D01*
X419335D01*
X537335Y230500D02*
X536547D01*
X537335D01*
X29394Y71441D02*
X28606D01*
X29394D01*
X330882Y157177D02*
X330095D01*
X330882D01*
X444598Y83894D02*
Y83106D01*
Y83894D01*
X381598Y112394D02*
Y111606D01*
Y112394D01*
X382335Y65394D02*
Y64606D01*
Y65394D01*
X326732Y60130D02*
X325945D01*
X326732D01*
X444098Y43394D02*
Y42606D01*
Y43394D01*
X483598Y84394D02*
Y83606D01*
Y84394D01*
Y43394D02*
Y42606D01*
Y43394D01*
X719205Y37091D02*
X718716D01*
X719205D01*
X731500Y77669D02*
Y78063D01*
Y77669D01*
Y78063D01*
X482598Y135106D02*
Y135894D01*
Y135106D01*
Y177106D02*
Y177894D01*
Y177106D01*
X444598D02*
Y177894D01*
Y177106D01*
Y135106D02*
Y135894D01*
Y135106D01*
X748055Y92500D02*
X747268D01*
X748055D01*
X564752Y249894D02*
Y249106D01*
Y249894D01*
X386598Y204106D02*
Y204894D01*
Y204106D01*
X387598Y160894D02*
Y160106D01*
Y160894D01*
X165500Y259000D02*
Y269000D01*
X225500Y259000D02*
Y269000D01*
X165500D02*
X225500D01*
X165500Y259000D02*
X225500D01*
X416000Y251000D02*
Y271000D01*
X336000Y251000D02*
Y271000D01*
Y251000D02*
X416000D01*
X336000Y271000D02*
X416000D01*
X511225Y16478D02*
X512800D01*
X511225D02*
Y18053D01*
X511228Y31953D02*
Y33528D01*
X512802D01*
X521775Y16477D02*
Y18052D01*
X520200Y16477D02*
X521775D01*
X520198Y33521D02*
X521772D01*
Y31946D02*
Y33521D01*
X727071Y102000D02*
X728787D01*
Y105000D01*
X728000Y102000D02*
Y105000D01*
X727071D02*
X728787D01*
X155478Y140700D02*
Y142275D01*
X157053D01*
X170953Y142272D02*
X172528D01*
Y140698D02*
Y142272D01*
X155477Y131725D02*
X157052D01*
X155477D02*
Y133300D01*
X172521Y131728D02*
Y133302D01*
X170946Y131728D02*
X172521D01*
X45044Y14886D02*
Y66382D01*
X25044D02*
X45044D01*
X25044Y14886D02*
Y66382D01*
Y14886D02*
X45044D01*
X248272Y238946D02*
Y240521D01*
X246698D02*
X248272D01*
X246700Y223477D02*
X248275D01*
Y225052D01*
X237727Y240528D02*
X239302D01*
X237727Y238953D02*
Y240528D01*
X237725Y223478D02*
Y225053D01*
Y223478D02*
X239300D01*
X122979Y22772D02*
X124554D01*
X122979Y21198D02*
Y22772D01*
X140023Y21200D02*
Y22775D01*
X138448D02*
X140023D01*
X122972Y12228D02*
Y13802D01*
Y12228D02*
X124547D01*
X138447Y12225D02*
X140022D01*
Y13800D01*
X260598Y97902D02*
Y173098D01*
X185402Y97902D02*
Y173098D01*
X260598D01*
X185402Y97902D02*
X260598D01*
X342946Y129227D02*
X344521D01*
Y130802D01*
X327477Y129225D02*
Y130800D01*
Y129225D02*
X329052D01*
X344528Y138198D02*
Y139772D01*
X342953D02*
X344528D01*
X327478Y139775D02*
X329053D01*
X327478Y138200D02*
Y139775D01*
X295478Y128200D02*
Y129775D01*
X297053D01*
X310953Y129772D02*
X312528D01*
Y128198D02*
Y129772D01*
X295477Y119225D02*
X297052D01*
X295477D02*
Y120800D01*
X312521Y119228D02*
Y120802D01*
X310946Y119228D02*
X312521D01*
X516978Y162200D02*
Y163775D01*
X518553D01*
X532453Y163772D02*
X534028D01*
Y162198D02*
Y163772D01*
X516977Y153225D02*
X518552D01*
X516977D02*
Y154800D01*
X534021Y153227D02*
Y154802D01*
X532446Y153227D02*
X534021D01*
X311978Y56700D02*
Y58275D01*
X313553D01*
X327453Y58272D02*
X329028D01*
Y56698D02*
Y58272D01*
X311977Y47725D02*
X313552D01*
X311977D02*
Y49300D01*
X329021Y47728D02*
Y49302D01*
X327446Y47728D02*
X329021D01*
X323446Y78728D02*
X325021D01*
Y80302D01*
X307977Y78725D02*
Y80300D01*
Y78725D02*
X309552D01*
X325028Y87698D02*
Y89272D01*
X323453D02*
X325028D01*
X307978Y89275D02*
X309553D01*
X307978Y87700D02*
Y89275D01*
X221500Y235500D02*
X231500D01*
X221500Y255500D02*
X231500D01*
X221500Y235500D02*
Y255500D01*
X231500Y235500D02*
Y255500D01*
X254731Y245272D02*
X256306D01*
X254731Y243698D02*
Y245272D01*
X271775Y243700D02*
Y245275D01*
X270200D02*
X271775D01*
X254724Y234728D02*
Y236302D01*
Y234728D02*
X256299D01*
X270199Y234725D02*
X271774D01*
Y236300D01*
X258276Y245996D02*
X261228D01*
X263197Y250917D02*
Y253083D01*
X258276Y258004D02*
X261228D01*
X240504Y261370D02*
X250000D01*
X240504Y254630D02*
X250000D01*
X258512Y265854D02*
X265992D01*
X258512Y260146D02*
X265992D01*
X361478Y27200D02*
Y28775D01*
X363053D01*
X376953Y28773D02*
X378528D01*
Y27198D02*
Y28773D01*
X361477Y18225D02*
X363052D01*
X361477D02*
Y19800D01*
X378521Y18227D02*
Y19802D01*
X376946Y18227D02*
X378521D01*
X264700Y71522D02*
X266275D01*
Y69947D02*
Y71522D01*
X266272Y54472D02*
Y56047D01*
X264698Y54472D02*
X266272D01*
X255725Y69948D02*
Y71523D01*
X257300D01*
X255728Y54479D02*
X257302D01*
X255728D02*
Y56054D01*
X425102Y116795D02*
X438882D01*
Y91205D02*
Y116795D01*
X425102Y91205D02*
X438882D01*
X425102D02*
Y116795D01*
X416244Y116303D02*
X423724D01*
X720260Y196646D02*
X727740D01*
X720260Y202354D02*
X727740D01*
X685760Y222854D02*
X693240D01*
X685760Y217146D02*
X693240D01*
X686016Y228854D02*
X693496D01*
X686016Y223146D02*
X693496D01*
X685760Y235354D02*
X693240D01*
X685760Y229646D02*
X693240D01*
X718358Y236576D02*
Y243466D01*
X711654Y236555D02*
Y243445D01*
X711346Y237154D02*
Y243847D01*
X704654Y237154D02*
Y243847D01*
X704358Y236714D02*
Y243604D01*
X697653Y236693D02*
Y243583D01*
X563000Y272500D02*
X603000D01*
X563000Y262500D02*
X603000D01*
X563000D02*
Y272500D01*
X603000Y262500D02*
Y272500D01*
X133946Y134728D02*
X135521D01*
Y136302D01*
X118477Y134725D02*
Y136300D01*
Y134725D02*
X120052D01*
X135528Y143698D02*
Y145273D01*
X133953D02*
X135528D01*
X118478Y145275D02*
X120053D01*
X118478Y143700D02*
Y145275D01*
X125904Y101101D02*
Y102380D01*
X124624Y101101D02*
X125904D01*
X108975D02*
X110254D01*
X108975D02*
Y102380D01*
Y116751D02*
Y118030D01*
X110254D01*
X125904Y116751D02*
Y118030D01*
X124624D02*
X125904D01*
X179378Y223189D02*
X201622D01*
X178689Y230177D02*
Y239823D01*
X179378Y246811D02*
X201622D01*
X202311Y230177D02*
Y239823D01*
X152446Y131228D02*
X154021D01*
Y132802D01*
X136977Y131225D02*
Y132800D01*
Y131225D02*
X138552D01*
X154028Y140198D02*
Y141772D01*
X152453D02*
X154028D01*
X136978Y141775D02*
X138553D01*
X136978Y140200D02*
Y141775D01*
X527946Y41227D02*
X529521D01*
Y42802D01*
X512477Y41225D02*
Y42800D01*
Y41225D02*
X514052D01*
X529528Y50198D02*
Y51772D01*
X527953D02*
X529528D01*
X512478Y51775D02*
X514053D01*
X512478Y50200D02*
Y51775D01*
X644000Y7000D02*
Y17000D01*
X604000Y7000D02*
Y17000D01*
Y7000D02*
X644000D01*
X604000Y17000D02*
X644000D01*
X460500Y10500D02*
Y20500D01*
X420500Y10500D02*
Y20500D01*
Y10500D02*
X460500D01*
X420500Y20500D02*
X460500D01*
X264500Y5000D02*
X274500D01*
X264500Y45000D02*
X274500D01*
X264500Y5000D02*
Y45000D01*
X274500Y5000D02*
Y45000D01*
X491000Y225500D02*
Y235500D01*
X531000Y225500D02*
Y235500D01*
X491000D02*
X531000D01*
X491000Y225500D02*
X531000D01*
X421500Y254500D02*
Y264500D01*
X461500Y254500D02*
Y264500D01*
X421500D02*
X461500D01*
X421500Y254500D02*
X461500D01*
X539500Y225500D02*
Y235500D01*
X579500Y225500D02*
Y235500D01*
X539500D02*
X579500D01*
X539500Y225500D02*
X579500D01*
X24000Y74000D02*
X34000D01*
X24000Y104000D02*
X34000D01*
X24000Y74000D02*
Y104000D01*
X34000Y74000D02*
Y104000D01*
X345059Y56279D02*
Y67721D01*
X353941Y56279D02*
Y67721D01*
X344559Y101279D02*
Y112721D01*
X353441Y101279D02*
Y112721D01*
X332201Y76854D02*
X339681D01*
X332201Y71146D02*
X339681D01*
X425102Y75795D02*
X438882D01*
Y50205D02*
Y75795D01*
X425102Y50205D02*
X438882D01*
X425102D02*
Y75795D01*
X416244Y75303D02*
X423724D01*
X355319Y97158D02*
X361323D01*
X362701Y77354D02*
Y96646D01*
Y77354D02*
X375299D01*
Y96646D01*
X362701D02*
X375299D01*
X492126Y70567D02*
X495276D01*
X489567Y73126D02*
X492126Y70567D01*
X489567Y73126D02*
Y91433D01*
X504724Y70567D02*
X507874D01*
X510433Y73126D01*
Y91433D01*
X504724D02*
X510433D01*
X489567D02*
X495276D01*
X504723Y74600D02*
X506691D01*
X505707Y73616D02*
Y75584D01*
X455752Y75303D02*
X463232D01*
X464610Y50205D02*
Y75795D01*
Y50205D02*
X478390D01*
Y75795D01*
X464610D02*
X478390D01*
X455777Y116197D02*
X463257D01*
X464635Y91098D02*
Y116689D01*
Y91098D02*
X478415D01*
Y116689D01*
X464635D02*
X478415D01*
X355071Y52849D02*
X361075D01*
X362453Y33046D02*
Y52337D01*
Y33046D02*
X375051D01*
Y52337D01*
X362453D02*
X375051D01*
X133453Y100154D02*
Y106846D01*
X127547Y100154D02*
Y106846D01*
X98504Y111854D02*
X105984D01*
X98504Y106146D02*
X105984D01*
X106854Y113760D02*
Y121240D01*
X101146Y113760D02*
Y121240D01*
X619717Y18268D02*
X628378D01*
X619717Y26732D02*
X628378D01*
X665362Y96098D02*
X713394D01*
X665362Y33106D02*
X713394D01*
X747256Y99161D02*
Y103492D01*
X741744Y99161D02*
Y103492D01*
X449169Y29232D02*
X457831D01*
X449169Y20768D02*
X457831D01*
X273854Y150260D02*
Y157740D01*
X268146Y150260D02*
Y157740D01*
X263350Y186953D02*
X269650D01*
X263350Y181047D02*
X269650D01*
X243843Y72213D02*
Y73787D01*
X224158Y72213D02*
Y73787D01*
X725601Y245070D02*
Y251655D01*
X731399Y245070D02*
Y251655D01*
X730858Y254438D02*
Y261328D01*
X724154Y254417D02*
Y261307D01*
X732485Y252520D02*
X737495D01*
X732485Y247205D02*
X737495D01*
X740534Y246721D02*
X747424D01*
X740555Y240016D02*
X747445D01*
X737399Y227208D02*
Y233792D01*
X731601Y227208D02*
Y233792D01*
X720335Y234563D02*
X724665D01*
X720335Y240118D02*
X724665D01*
X700114Y225520D02*
Y228276D01*
X702870D01*
X722555D02*
X725311D01*
Y225520D02*
Y228276D01*
Y203079D02*
Y205835D01*
X722555Y203079D02*
X725311D01*
X700114D02*
Y205835D01*
Y203079D02*
X702870D01*
X625921Y263189D02*
X629465D01*
Y236811D02*
Y263189D01*
X625921Y236811D02*
X629465D01*
X574594Y255878D02*
X586406D01*
X574594Y243122D02*
X586406D01*
X644728Y241657D02*
Y246382D01*
X65946Y23728D02*
X67521D01*
Y25302D01*
X50477Y23725D02*
Y25300D01*
Y23725D02*
X52052D01*
X67528Y32698D02*
Y34273D01*
X65953D02*
X67528D01*
X50478Y34275D02*
X52053D01*
X50478Y32700D02*
Y34275D01*
X137446Y72728D02*
X139021D01*
Y74302D01*
X121977Y72725D02*
Y74300D01*
Y72725D02*
X123552D01*
X139028Y81698D02*
Y83272D01*
X137453D02*
X139028D01*
X121978Y83275D02*
X123553D01*
X121978Y81700D02*
Y83275D01*
X363701Y146646D02*
X376299D01*
Y127354D02*
Y146646D01*
X363701Y127354D02*
X376299D01*
X363701D02*
Y146646D01*
X356319Y147158D02*
X362323D01*
X359941Y152279D02*
Y163721D01*
X351059Y152279D02*
Y163721D01*
X336760Y169646D02*
X344240D01*
X336760Y175354D02*
X344240D01*
X462610Y169295D02*
X476390D01*
Y143705D02*
Y169295D01*
X462610Y143705D02*
X476390D01*
X462610D02*
Y169295D01*
X453752Y168803D02*
X461232D01*
X462610Y211295D02*
X476390D01*
Y185705D02*
Y211295D01*
X462610Y185705D02*
X476390D01*
X462610D02*
Y211295D01*
X453752Y210803D02*
X461232D01*
X363201Y191146D02*
X375799D01*
Y171854D02*
Y191146D01*
X363201Y171854D02*
X375799D01*
X363201D02*
Y191146D01*
X355819Y191657D02*
X361823D01*
X358941Y195279D02*
Y206721D01*
X350059Y195279D02*
Y206721D01*
X503707Y166116D02*
Y168084D01*
X502723Y167100D02*
X504691D01*
X487567Y183933D02*
X493276D01*
X502724D02*
X508433D01*
Y165626D02*
Y183933D01*
X505874Y163067D02*
X508433Y165626D01*
X502724Y163067D02*
X505874D01*
X487567Y165626D02*
Y183933D01*
Y165626D02*
X490126Y163067D01*
X493276D01*
X177354Y92504D02*
Y99984D01*
X171646Y92504D02*
Y99984D01*
X180760Y181146D02*
X188240D01*
X180760Y186854D02*
X188240D01*
X234760Y187354D02*
X242240D01*
X234760Y181646D02*
X242240D01*
X268646Y169260D02*
Y176740D01*
X274354Y169260D02*
Y176740D01*
X164146Y225516D02*
Y232996D01*
X169854Y225516D02*
Y232996D01*
X4831Y156658D02*
Y233547D01*
Y133350D02*
Y147213D01*
X11718Y127201D02*
X35301D01*
X42781D02*
X114278D01*
Y239799D01*
X87585D02*
X114278D01*
X21640D02*
X75774D01*
X415752Y210803D02*
X423232D01*
X424610Y185705D02*
Y211295D01*
Y185705D02*
X438390D01*
Y211295D01*
X424610D02*
X438390D01*
X415752Y168803D02*
X423232D01*
X424610Y143705D02*
Y169295D01*
Y143705D02*
X438390D01*
Y169295D01*
X424610D02*
X438390D01*
X258978Y212200D02*
Y213775D01*
X260553D01*
X274453Y213773D02*
X276028D01*
Y212198D02*
Y213773D01*
X258977Y203225D02*
X260552D01*
X258977D02*
Y204800D01*
X276021Y203227D02*
Y204802D01*
X274446Y203227D02*
X276021D01*
X294725Y93478D02*
X296300D01*
X294725D02*
Y95053D01*
X294727Y108953D02*
Y110528D01*
X296302D01*
X305275Y93477D02*
Y95052D01*
X303700Y93477D02*
X305275D01*
X303698Y110521D02*
X305273D01*
Y108946D02*
Y110521D01*
X509478Y65700D02*
Y67275D01*
X511053D01*
X524953Y67273D02*
X526528D01*
Y65698D02*
Y67273D01*
X509477Y56725D02*
X511052D01*
X509477D02*
Y58300D01*
X526521Y56727D02*
Y58302D01*
X524946Y56727D02*
X526521D01*
X530478Y91200D02*
Y92775D01*
X532053D01*
X545953Y92773D02*
X547528D01*
Y91198D02*
Y92773D01*
X530477Y82225D02*
X532052D01*
X530477D02*
Y83800D01*
X547521Y82227D02*
Y83802D01*
X545946Y82227D02*
X547521D01*
X758225Y168478D02*
X759800D01*
X758225D02*
Y170053D01*
X758227Y183953D02*
Y185528D01*
X759802D01*
X768775Y168477D02*
Y170052D01*
X767200Y168477D02*
X768775D01*
X767198Y185521D02*
X768773D01*
Y183946D02*
Y185521D01*
X281478Y177700D02*
Y179275D01*
X283053D01*
X296953Y179272D02*
X298528D01*
Y177698D02*
Y179272D01*
X281477Y168725D02*
X283052D01*
X281477D02*
Y170300D01*
X298521Y168728D02*
Y170302D01*
X296946Y168728D02*
X298521D01*
X300478Y172700D02*
Y174275D01*
X302053D01*
X315953Y174273D02*
X317528D01*
Y172698D02*
Y174273D01*
X300477Y163725D02*
X302052D01*
X300477D02*
Y165300D01*
X317521Y163727D02*
Y165302D01*
X315946Y163727D02*
X317521D01*
X279978Y203700D02*
Y205275D01*
X281553D01*
X295453Y205273D02*
X297028D01*
Y203698D02*
Y205273D01*
X279977Y194725D02*
X281552D01*
X279977D02*
Y196300D01*
X297021Y194728D02*
Y196302D01*
X295446Y194728D02*
X297021D01*
X512978Y138200D02*
Y139775D01*
X514553D01*
X528453Y139772D02*
X530028D01*
Y138198D02*
Y139772D01*
X512977Y129225D02*
X514552D01*
X512977D02*
Y130800D01*
X530021Y129227D02*
Y130802D01*
X528446Y129227D02*
X530021D01*
X267478Y229700D02*
Y231275D01*
X269053D01*
X282953Y231273D02*
X284528D01*
Y229698D02*
Y231273D01*
X267477Y220725D02*
X269052D01*
X267477D02*
Y222300D01*
X284521Y220727D02*
Y222302D01*
X282946Y220727D02*
X284521D01*
X676478Y190700D02*
Y192275D01*
X678053D01*
X691953Y192272D02*
X693528D01*
Y190698D02*
Y192272D01*
X676477Y181725D02*
X678052D01*
X676477D02*
Y183300D01*
X693521Y181728D02*
Y183302D01*
X691946Y181728D02*
X693521D01*
X240725Y205978D02*
X242300D01*
X240725D02*
Y207553D01*
X240727Y221453D02*
Y223028D01*
X242302D01*
X251275Y205977D02*
Y207552D01*
X249700Y205977D02*
X251275D01*
X249698Y223021D02*
X251273D01*
Y221446D02*
Y223021D01*
X651516Y239854D02*
X658996D01*
X651516Y234146D02*
X658996D01*
D11*
X190520Y101839D02*
X190075Y102762D01*
X189076Y102990D01*
X188275Y102351D01*
Y101326D01*
X189076Y100687D01*
X190075Y100915D01*
X190520Y101839D01*
D12*
X186189Y93669D02*
X185451Y94095D01*
Y93243D01*
X186189Y93669D01*
X250598Y255740D02*
X249860Y256166D01*
Y255314D01*
X250598Y255740D01*
X122853Y121180D02*
X122115Y121606D01*
Y120753D01*
X122853Y121180D01*
X212252Y226142D02*
X211514Y226568D01*
Y225715D01*
X212252Y226142D01*
X220910Y68276D02*
X220171Y68702D01*
Y67849D01*
X220910Y68276D01*
X728992Y242314D02*
X728254Y242740D01*
Y241888D01*
X728992Y242314D01*
X730616Y249862D02*
X729877Y250288D01*
Y249436D01*
X730616Y249862D01*
X734992Y236548D02*
X734254Y236974D01*
Y236122D01*
X734992Y236548D01*
X698047Y227685D02*
X697309Y228111D01*
Y227259D01*
X698047Y227685D01*
X638421Y237087D02*
X637683Y237513D01*
Y236660D01*
X638421Y237087D01*
X117344Y208921D02*
X116595Y209354D01*
Y208488D01*
X117344Y208921D01*
D13*
X687500Y216846D02*
Y217240D01*
Y216846D01*
X423634Y88618D02*
X440366D01*
X423634Y78382D02*
X440366D01*
X360634Y117118D02*
X377366D01*
X360634Y106882D02*
X377366D01*
X361370Y70118D02*
X378102D01*
X361370Y59882D02*
X378102D01*
X423134Y48118D02*
X439866D01*
X423134Y37882D02*
X439866D01*
X462634Y89118D02*
X479366D01*
X462634Y78882D02*
X479366D01*
X462634Y48118D02*
X479366D01*
X462634Y37882D02*
X479366D01*
X461634Y130382D02*
X478366D01*
X461634Y140618D02*
X478366D01*
X461634Y172382D02*
X478366D01*
X461634Y182618D02*
X478366D01*
X423634Y172382D02*
X440366D01*
X423634Y182618D02*
X440366D01*
X423634Y130382D02*
X440366D01*
X423634Y140618D02*
X440366D01*
X365634Y199382D02*
X382366D01*
X365634Y209618D02*
X382366D01*
X366634Y165618D02*
X383366D01*
X366634Y155382D02*
X383366D01*
D14*
X697965Y236039D02*
Y240961D01*
X187539Y47465D02*
X192461D01*
X657035Y263539D02*
Y268461D01*
X139465Y6539D02*
Y11461D01*
X718504Y37425D02*
Y40574D01*
X216539Y217831D02*
X221461D01*
X224039Y217465D02*
X228961D01*
X231539D02*
X236461D01*
D15*
X231350Y79299D02*
X236650D01*
X231350Y66701D02*
X236650D01*
D16*
X228801Y262699D02*
X228301Y262199D01*
Y261200D01*
X228801Y260700D01*
X229301D01*
X229801Y261200D01*
Y262199D01*
X230300Y262699D01*
X230800D01*
X231300Y262199D01*
Y261200D01*
X230800Y260700D01*
X228301Y263699D02*
X231300D01*
X230300Y264699D01*
X231300Y265698D01*
X228301D01*
Y268198D02*
Y267198D01*
X228801Y266698D01*
X230800D01*
X231300Y267198D01*
Y268198D01*
X230800Y268697D01*
X228801D01*
X228301Y268198D01*
X281160Y43419D02*
X283159D01*
X282159Y44418D02*
Y42419D01*
X280916Y6464D02*
X282915D01*
X535416Y234964D02*
X537415D01*
X582160Y236234D02*
X584160D01*
X583160Y237234D02*
Y235234D01*
X602700Y266700D02*
X604699D01*
X551200Y266700D02*
X553199D01*
X552200Y267699D02*
Y265700D01*
X765699Y90199D02*
X765200Y90699D01*
X764200D01*
X763700Y90199D01*
Y88200D01*
X764200Y87700D01*
X765200D01*
X765699Y88200D01*
Y89200D01*
X764700D01*
X766699Y87700D02*
Y90699D01*
X768198D01*
X768698Y90199D01*
Y89200D01*
X768198Y88700D01*
X766699D01*
X771697Y90199D02*
X771198Y90699D01*
X770198D01*
X769698Y90199D01*
Y89699D01*
X770198Y89200D01*
X771198D01*
X771697Y88700D01*
Y88200D01*
X771198Y87700D01*
X770198D01*
X769698Y88200D01*
X765230Y216779D02*
Y219778D01*
X766729D01*
X767229Y219279D01*
Y218279D01*
X766729Y217779D01*
X765230D01*
X766229D02*
X767229Y216779D01*
X768229D02*
Y218779D01*
X769228Y219778D01*
X770228Y218779D01*
Y216779D01*
Y218279D01*
X768229D01*
X771228Y219778D02*
Y216779D01*
X772727D01*
X773227Y217279D01*
Y219279D01*
X772727Y219778D01*
X771228D01*
X774227D02*
X775226D01*
X774727D01*
Y216779D01*
X774227D01*
X775226D01*
X778226Y219778D02*
X777226D01*
X776726Y219279D01*
Y217279D01*
X777226Y216779D01*
X778226D01*
X778725Y217279D01*
Y219279D01*
X778226Y219778D01*
X223300Y221700D02*
X221301D01*
X220301Y222700D01*
X221301Y223699D01*
X223300D01*
X221800D01*
Y221700D01*
X220301Y226698D02*
Y224699D01*
X223300D01*
Y226698D01*
X221800Y224699D02*
Y225699D01*
X223300Y227698D02*
X220301D01*
Y229198D01*
X220801Y229697D01*
X221800D01*
X222300Y229198D01*
Y227698D01*
Y228698D02*
X223300Y229697D01*
X220301Y232197D02*
Y231197D01*
X220801Y230697D01*
X222800D01*
X223300Y231197D01*
Y232197D01*
X222800Y232696D01*
X220801D01*
X220301Y232197D01*
X399199Y260699D02*
X397200D01*
Y259200D01*
X398200D01*
X397200D01*
Y257700D01*
X400199Y260699D02*
Y257700D01*
X401698D01*
X402198Y258200D01*
Y260199D01*
X401698Y260699D01*
X400199D01*
X405197Y260199D02*
X404698Y260699D01*
X403698D01*
X403198Y260199D01*
Y258200D01*
X403698Y257700D01*
X404698D01*
X405197Y258200D01*
X502525Y243406D02*
Y246405D01*
X503525Y245405D01*
X504525Y246405D01*
Y243406D01*
X507024Y246405D02*
X506024D01*
X505524Y245905D01*
Y243906D01*
X506024Y243406D01*
X507024D01*
X507524Y243906D01*
Y245905D01*
X507024Y246405D01*
X508523D02*
X510523D01*
X509523D01*
Y243406D01*
X513022Y246405D02*
X512022D01*
X511522Y245905D01*
Y243906D01*
X512022Y243406D01*
X513022D01*
X513522Y243906D01*
Y245905D01*
X513022Y246405D01*
X514521Y243406D02*
Y246405D01*
X516021D01*
X516521Y245905D01*
Y244905D01*
X516021Y244406D01*
X514521D01*
X515521D02*
X516521Y243406D01*
X517521Y245905D02*
X518020Y246405D01*
X519020D01*
X519520Y245905D01*
Y245405D01*
X519020Y244905D01*
X518520D01*
X519020D01*
X519520Y244406D01*
Y243906D01*
X519020Y243406D01*
X518020D01*
X517521Y243906D01*
X582863Y233511D02*
Y230512D01*
X584363D01*
X584863Y231012D01*
Y231512D01*
X584363Y232012D01*
X582863D01*
X584363D01*
X584863Y232512D01*
Y233012D01*
X584363Y233511D01*
X582863D01*
X585862Y230512D02*
Y232512D01*
X586862Y233511D01*
X587862Y232512D01*
Y230512D01*
Y232012D01*
X585862D01*
X588861Y233511D02*
X590861D01*
X589861D01*
Y230512D01*
X591860Y233511D02*
X593860D01*
X592860D01*
Y230512D01*
X594860Y230013D02*
X596859D01*
X597858Y230512D02*
Y233511D01*
X598858Y232512D01*
X599858Y233511D01*
Y230512D01*
X602357Y233511D02*
X601357D01*
X600857Y233012D01*
Y231012D01*
X601357Y230512D01*
X602357D01*
X602857Y231012D01*
Y233012D01*
X602357Y233511D01*
X603857D02*
X605856D01*
X604856D01*
Y230512D01*
X608855D02*
X606856D01*
X608855Y232512D01*
Y233012D01*
X608355Y233511D01*
X607355D01*
X606856Y233012D01*
X599700Y273199D02*
Y270200D01*
X601199D01*
X601699Y270700D01*
Y271199D01*
X601199Y271699D01*
X599700D01*
X601199D01*
X601699Y272199D01*
Y272699D01*
X601199Y273199D01*
X599700D01*
X602699Y270200D02*
Y272199D01*
X603699Y273199D01*
X604698Y272199D01*
Y270200D01*
Y271699D01*
X602699D01*
X605698Y273199D02*
X607697D01*
X606698D01*
Y270200D01*
X608697Y273199D02*
X610696D01*
X609697D01*
Y270200D01*
X611696Y269700D02*
X613695D01*
X614695Y270200D02*
Y273199D01*
X615695Y272199D01*
X616694Y273199D01*
Y270200D01*
X619194Y273199D02*
X618194D01*
X617694Y272699D01*
Y270700D01*
X618194Y270200D01*
X619194D01*
X619694Y270700D01*
Y272699D01*
X619194Y273199D01*
X620693D02*
X622693D01*
X621693D01*
Y270200D01*
X623692D02*
X624692D01*
X624192D01*
Y273199D01*
X623692Y272699D01*
X457525Y267906D02*
Y270905D01*
X458525Y269905D01*
X459525Y270905D01*
Y267906D01*
X462024Y270905D02*
X461024D01*
X460524Y270405D01*
Y268406D01*
X461024Y267906D01*
X462024D01*
X462524Y268406D01*
Y270405D01*
X462024Y270905D01*
X463523D02*
X465523D01*
X464523D01*
Y267906D01*
X468022Y270905D02*
X467022D01*
X466522Y270405D01*
Y268406D01*
X467022Y267906D01*
X468022D01*
X468522Y268406D01*
Y270405D01*
X468022Y270905D01*
X469521Y267906D02*
Y270905D01*
X471021D01*
X471521Y270405D01*
Y269405D01*
X471021Y268905D01*
X469521D01*
X470521D02*
X471521Y267906D01*
X474020D02*
Y270905D01*
X472520Y269405D01*
X474520D01*
X616700Y2200D02*
Y5199D01*
X617700Y4199D01*
X618699Y5199D01*
Y2200D01*
X621199Y5199D02*
X620199D01*
X619699Y4699D01*
Y2700D01*
X620199Y2200D01*
X621199D01*
X621698Y2700D01*
Y4699D01*
X621199Y5199D01*
X622698D02*
X624697D01*
X623698D01*
Y2200D01*
X627197Y5199D02*
X626197D01*
X625697Y4699D01*
Y2700D01*
X626197Y2200D01*
X627197D01*
X627696Y2700D01*
Y4699D01*
X627197Y5199D01*
X628696Y2200D02*
Y5199D01*
X630196D01*
X630695Y4699D01*
Y3700D01*
X630196Y3200D01*
X628696D01*
X629696D02*
X630695Y2200D01*
X631695D02*
X632695D01*
X632195D01*
Y5199D01*
X631695Y4699D01*
X455200Y4200D02*
Y7199D01*
X456200Y6199D01*
X457199Y7199D01*
Y4200D01*
X459698Y7199D02*
X458699D01*
X458199Y6699D01*
Y4700D01*
X458699Y4200D01*
X459698D01*
X460198Y4700D01*
Y6699D01*
X459698Y7199D01*
X461198D02*
X463197D01*
X462198D01*
Y4200D01*
X465697Y7199D02*
X464697D01*
X464197Y6699D01*
Y4700D01*
X464697Y4200D01*
X465697D01*
X466196Y4700D01*
Y6699D01*
X465697Y7199D01*
X467196Y4200D02*
Y7199D01*
X468696D01*
X469196Y6699D01*
Y5700D01*
X468696Y5200D01*
X467196D01*
X468196D02*
X469196Y4200D01*
X472194D02*
X470195D01*
X472194Y6199D01*
Y6699D01*
X471695Y7199D01*
X470695D01*
X470195Y6699D01*
X280301Y27700D02*
X282300D01*
X283300Y28700D01*
X282300Y29699D01*
X280301D01*
Y30699D02*
X283300D01*
Y32199D01*
X282800Y32698D01*
X282300D01*
X281801Y32199D01*
Y30699D01*
Y32199D01*
X281301Y32698D01*
X280801D01*
X280301Y32199D01*
Y30699D01*
X283300Y33698D02*
X281301D01*
X280301Y34698D01*
X281301Y35697D01*
X283300D01*
X281801D01*
Y33698D01*
X280301Y36697D02*
Y38696D01*
Y37697D01*
X283300D01*
X35200Y13199D02*
X36200D01*
X35700D01*
Y10200D01*
X35200D01*
X36200D01*
X37699Y13199D02*
Y10200D01*
Y11699D01*
X39698D01*
Y13199D01*
Y10200D01*
X40698D02*
Y13199D01*
X41698Y12199D01*
X42698Y13199D01*
Y10200D01*
X38538Y79177D02*
X41537D01*
Y80677D01*
X41037Y81176D01*
X40537D01*
X40037Y80677D01*
Y79177D01*
Y80677D01*
X39538Y81176D01*
X39038D01*
X38538Y80677D01*
Y79177D01*
Y82176D02*
X41037D01*
X41537Y82676D01*
Y83676D01*
X41037Y84175D01*
X38538D01*
Y85175D02*
Y87174D01*
X39038D01*
X41037Y85175D01*
X41537D01*
Y87174D01*
X38538Y88174D02*
Y90174D01*
X39038D01*
X41037Y88174D01*
X41537D01*
Y90174D01*
X38538Y93173D02*
Y91173D01*
X41537D01*
Y93173D01*
X40037Y91173D02*
Y92173D01*
X41537Y94172D02*
X38538D01*
Y95672D01*
X39038Y96172D01*
X40037D01*
X40537Y95672D01*
Y94172D01*
Y95172D02*
X41537Y96172D01*
X56176Y245962D02*
X55677Y246462D01*
X54677D01*
X54177Y245962D01*
Y245462D01*
X54677Y244963D01*
X55677D01*
X56176Y244463D01*
Y243963D01*
X55677Y243463D01*
X54677D01*
X54177Y243963D01*
X57176Y246462D02*
Y243463D01*
X58676D01*
X59175Y243963D01*
Y245962D01*
X58676Y246462D01*
X57176D01*
X65174Y245962D02*
X64674Y246462D01*
X63674D01*
X63174Y245962D01*
Y243963D01*
X63674Y243463D01*
X64674D01*
X65174Y243963D01*
X66173Y243463D02*
Y245462D01*
X67173Y246462D01*
X68173Y245462D01*
Y243463D01*
Y244963D01*
X66173D01*
X69172Y243463D02*
Y246462D01*
X70672D01*
X71172Y245962D01*
Y244963D01*
X70672Y244463D01*
X69172D01*
X70172D02*
X71172Y243463D01*
X72171Y246462D02*
Y243463D01*
X73671D01*
X74171Y243963D01*
Y245962D01*
X73671Y246462D01*
X72171D01*
X191200Y217700D02*
Y220699D01*
X192700D01*
X193199Y220199D01*
Y219199D01*
X192700Y218700D01*
X191200D01*
X192200D02*
X193199Y217700D01*
X196198Y220699D02*
X194199D01*
Y217700D01*
X196198D01*
X194199Y219199D02*
X195199D01*
X199197Y220199D02*
X198698Y220699D01*
X197698D01*
X197198Y220199D01*
Y219699D01*
X197698Y219199D01*
X198698D01*
X199197Y218700D01*
Y218200D01*
X198698Y217700D01*
X197698D01*
X197198Y218200D01*
X202196Y220699D02*
X200197D01*
Y217700D01*
X202196D01*
X200197Y219199D02*
X201197D01*
X203196Y220699D02*
X205195D01*
X204196D01*
Y217700D01*
X211801Y245700D02*
Y247699D01*
X210801Y246700D02*
X212800D01*
X210801Y248699D02*
X210301Y249199D01*
Y250199D01*
X210801Y250698D01*
X211301D01*
X211801Y250199D01*
Y249699D01*
Y250199D01*
X212300Y250698D01*
X212800D01*
X213300Y250199D01*
Y249199D01*
X212800Y248699D01*
X210301Y251698D02*
X212300D01*
X213300Y252698D01*
X212300Y253697D01*
X210301D01*
X210801Y254697D02*
X210301Y255197D01*
Y256197D01*
X210801Y256696D01*
X211301D01*
X211801Y256197D01*
Y255697D01*
Y256197D01*
X212300Y256696D01*
X212800D01*
X213300Y256197D01*
Y255197D01*
X212800Y254697D01*
X198301Y249200D02*
X201300D01*
Y250699D01*
X200800Y251199D01*
X198801D01*
X198301Y250699D01*
Y249200D01*
Y252199D02*
Y253199D01*
Y252699D01*
X201300D01*
Y252199D01*
Y253199D01*
X198301Y256198D02*
Y255198D01*
X198801Y254698D01*
X200800D01*
X201300Y255198D01*
Y256198D01*
X200800Y256698D01*
X198801D01*
X198301Y256198D01*
X189801Y250699D02*
X189301Y250200D01*
Y249200D01*
X189801Y248700D01*
X191800D01*
X192300Y249200D01*
Y250200D01*
X191800Y250699D01*
X189301Y251699D02*
X192300D01*
Y253698D01*
X189301Y254698D02*
X192300D01*
X191300D01*
X189301Y256697D01*
X190800Y255198D01*
X192300Y256697D01*
X181800Y249200D02*
X178801D01*
Y250699D01*
X179301Y251199D01*
X180300D01*
X180800Y250699D01*
Y249200D01*
Y250200D02*
X181800Y251199D01*
X179301Y254198D02*
X178801Y253698D01*
Y252699D01*
X179301Y252199D01*
X179801D01*
X180300Y252699D01*
Y253698D01*
X180800Y254198D01*
X181300D01*
X181800Y253698D01*
Y252699D01*
X181300Y252199D01*
X178801Y255198D02*
Y257197D01*
Y256198D01*
X181800D01*
X169301Y251199D02*
X168801Y250699D01*
Y249700D01*
X169301Y249200D01*
X171300D01*
X171800Y249700D01*
Y250699D01*
X171300Y251199D01*
X170300D01*
Y250200D01*
X171800Y252199D02*
X168801D01*
X171800Y254198D01*
X168801D01*
Y255198D02*
X171800D01*
Y256698D01*
X171300Y257197D01*
X169301D01*
X168801Y256698D01*
Y255198D01*
X154699Y268699D02*
X154200Y269199D01*
X153200D01*
X152700Y268699D01*
Y268199D01*
X153200Y267700D01*
X154200D01*
X154699Y267200D01*
Y266700D01*
X154200Y266200D01*
X153200D01*
X152700Y266700D01*
X155699Y269199D02*
Y266200D01*
X156699Y267200D01*
X157698Y266200D01*
Y269199D01*
X158698D02*
Y266200D01*
X160198D01*
X160697Y266700D01*
Y268699D01*
X160198Y269199D01*
X158698D01*
M02*
