G04*
G04 #@! TF.GenerationSoftware,Altium Limited,Altium Designer,21.2.2 (38)*
G04*
G04 Layer_Color=16711935*
%FSLAX25Y25*%
%MOIN*%
G70*
G04*
G04 #@! TF.SameCoordinates,5E26766D-3DBA-4CA4-B54A-4570E1BC07D3*
G04*
G04*
G04 #@! TF.FilePolarity,Negative*
G04*
G01*
G75*
%ADD19R,0.07008X0.13504*%
%ADD20R,0.04540X0.03950*%
%ADD21R,0.04540X0.04934*%
%ADD23R,0.13504X0.07008*%
%ADD24R,0.03359X0.03556*%
%ADD25R,0.03556X0.03359*%
%ADD28R,0.04147X0.03753*%
%ADD30R,0.03753X0.04147*%
%ADD32R,0.02756X0.02756*%
%ADD33R,0.08280X0.04540*%
%ADD34R,0.08280X0.13595*%
%ADD36R,0.03162X0.03950*%
%ADD37R,0.03950X0.04540*%
%ADD42R,0.02756X0.02559*%
%ADD46R,0.06804X0.03359*%
%ADD47R,0.13005X0.09461*%
%ADD48R,0.07099X0.11824*%
%ADD49R,0.06706X0.06784*%
%ADD50R,0.05733X0.05426*%
%ADD51R,0.04343X0.04147*%
%ADD52R,0.04934X0.04343*%
%ADD53R,0.02375X0.05524*%
%ADD54R,0.09658X0.04343*%
%ADD55R,0.05131X0.05131*%
%ADD56R,0.03950X0.04737*%
%ADD57R,0.03556X0.04343*%
%ADD58R,0.01587X0.04540*%
%ADD59R,0.25603X0.22650*%
%ADD60R,0.07808X0.13202*%
%ADD61R,0.04147X0.04343*%
%ADD62R,0.04540X0.01587*%
%ADD64R,0.03740X0.05315*%
%ADD65R,0.03543X0.02953*%
%ADD72R,0.02953X0.03543*%
%ADD82R,0.02756X0.02756*%
%ADD85R,0.04934X0.04540*%
%ADD91R,0.06194X0.06194*%
%ADD92C,0.06194*%
%ADD93C,0.06902*%
%ADD94R,0.06902X0.06902*%
%ADD95C,0.08871*%
%ADD96R,0.08871X0.08871*%
%ADD97C,0.16548*%
%ADD98R,0.06194X0.06194*%
%ADD99C,0.03162*%
%ADD100C,0.02375*%
%ADD101C,0.02769*%
%ADD180R,0.16339X0.18307*%
%ADD181R,0.01968X0.01378*%
%ADD185R,0.03937X0.09843*%
%ADD187R,0.05709X0.04528*%
%ADD188R,0.04134X0.03150*%
%ADD189R,0.05426X0.05733*%
%ADD190R,0.04147X0.03556*%
G04:AMPARAMS|DCode=191|XSize=33.59mil|YSize=72.96mil|CornerRadius=5.92mil|HoleSize=0mil|Usage=FLASHONLY|Rotation=90.000|XOffset=0mil|YOffset=0mil|HoleType=Round|Shape=RoundedRectangle|*
%AMROUNDEDRECTD191*
21,1,0.03359,0.06112,0,0,90.0*
21,1,0.02175,0.07296,0,0,90.0*
1,1,0.01184,0.03056,0.01088*
1,1,0.01184,0.03056,-0.01088*
1,1,0.01184,-0.03056,-0.01088*
1,1,0.01184,-0.03056,0.01088*
%
%ADD191ROUNDEDRECTD191*%
%ADD192R,0.04343X0.04934*%
G04:AMPARAMS|DCode=193|XSize=82.8mil|YSize=31.62mil|CornerRadius=6.95mil|HoleSize=0mil|Usage=FLASHONLY|Rotation=180.000|XOffset=0mil|YOffset=0mil|HoleType=Round|Shape=RoundedRectangle|*
%AMROUNDEDRECTD193*
21,1,0.08280,0.01772,0,0,180.0*
21,1,0.06890,0.03162,0,0,180.0*
1,1,0.01391,-0.03445,0.00886*
1,1,0.01391,0.03445,0.00886*
1,1,0.01391,0.03445,-0.00886*
1,1,0.01391,-0.03445,-0.00886*
%
%ADD193ROUNDEDRECTD193*%
%ADD194R,0.11000X0.29500*%
%ADD195R,0.03556X0.08477*%
%ADD196R,0.04737X0.03950*%
%ADD197R,0.04737X0.05131*%
%ADD198R,0.03162X0.02178*%
D19*
X351500Y67000D02*
D03*
X54500Y110500D02*
D03*
X97000Y103500D02*
D03*
X193000Y206000D02*
D03*
X162500Y204500D02*
D03*
D20*
X198500Y34079D02*
D03*
Y39000D02*
D03*
X154500Y34843D02*
D03*
Y40157D02*
D03*
D21*
X216500Y31500D02*
D03*
X210791D02*
D03*
X648646Y247000D02*
D03*
X654354D02*
D03*
X147354Y115000D02*
D03*
X141646D02*
D03*
D23*
X285000Y152000D02*
D03*
X225000Y201500D02*
D03*
X127000Y153500D02*
D03*
X521500Y143000D02*
D03*
X289000Y190500D02*
D03*
D24*
X209000Y114870D02*
D03*
X204500Y110870D02*
D03*
X351000Y147000D02*
D03*
X346000Y146760D02*
D03*
X340500D02*
D03*
X335000Y147000D02*
D03*
X329000D02*
D03*
X313000D02*
D03*
Y150740D02*
D03*
X318500Y150870D02*
D03*
X324000D02*
D03*
X329000Y150740D02*
D03*
X335000D02*
D03*
X340500Y150500D02*
D03*
X346000D02*
D03*
X351000Y150740D02*
D03*
X204500Y107130D02*
D03*
X209000Y111130D02*
D03*
X324000Y147130D02*
D03*
X318500D02*
D03*
X194000Y25870D02*
D03*
X219500Y64370D02*
D03*
X194000Y22130D02*
D03*
X219500Y60630D02*
D03*
D25*
X650130Y218500D02*
D03*
X654370Y258000D02*
D03*
X650630D02*
D03*
X653870Y218500D02*
D03*
D28*
X414500Y242059D02*
D03*
X419500Y242059D02*
D03*
X399500Y242059D02*
D03*
X404500Y242059D02*
D03*
X384500Y242059D02*
D03*
X389500Y242059D02*
D03*
X369500Y242059D02*
D03*
X374500Y242059D02*
D03*
X354500Y242059D02*
D03*
X359500Y242059D02*
D03*
X339500Y242059D02*
D03*
X344500Y242059D02*
D03*
X324500Y242059D02*
D03*
X329500Y242059D02*
D03*
X309500Y242059D02*
D03*
X314500Y242059D02*
D03*
X374500Y236941D02*
D03*
X389500D02*
D03*
X404500D02*
D03*
X419500D02*
D03*
X314500D02*
D03*
X329500D02*
D03*
X344500D02*
D03*
X359500D02*
D03*
X667000Y247000D02*
D03*
Y252118D02*
D03*
X598000Y134441D02*
D03*
X599000Y75441D02*
D03*
X598000Y175441D02*
D03*
X508500Y173059D02*
D03*
X531000Y83394D02*
D03*
X526500Y169941D02*
D03*
X513000Y86012D02*
D03*
X62500Y104382D02*
D03*
X205500Y33059D02*
D03*
X598000Y180559D02*
D03*
Y139559D02*
D03*
X599000Y80559D02*
D03*
X205500Y27941D02*
D03*
X7500Y146059D02*
D03*
X531000Y88512D02*
D03*
X513000Y80894D02*
D03*
X62500Y109500D02*
D03*
X414500Y236941D02*
D03*
X399500D02*
D03*
X384500D02*
D03*
X369500D02*
D03*
X354500D02*
D03*
X339500D02*
D03*
X324500D02*
D03*
X309500D02*
D03*
X508500Y167941D02*
D03*
X526500Y175059D02*
D03*
X7500Y140941D02*
D03*
D30*
X602559Y28000D02*
D03*
X644000Y126000D02*
D03*
X640441Y117500D02*
D03*
X638441Y212500D02*
D03*
X642559Y27000D02*
D03*
X522500Y181500D02*
D03*
X515559Y74500D02*
D03*
X638882Y126000D02*
D03*
X645559Y117500D02*
D03*
X643559Y212500D02*
D03*
X597441Y28000D02*
D03*
X86559Y209000D02*
D03*
X87059Y218500D02*
D03*
X86559Y148000D02*
D03*
X86059Y153500D02*
D03*
Y197000D02*
D03*
X87059Y192000D02*
D03*
X86559Y169000D02*
D03*
X189941Y113000D02*
D03*
X77059Y131000D02*
D03*
Y136000D02*
D03*
X34059Y129000D02*
D03*
X637441Y27000D02*
D03*
X81441Y209000D02*
D03*
X81941Y218500D02*
D03*
X81441Y148000D02*
D03*
X80941Y153500D02*
D03*
Y197000D02*
D03*
X81441Y169000D02*
D03*
X510441Y74500D02*
D03*
X195059Y113000D02*
D03*
X81941Y192000D02*
D03*
X527618Y181500D02*
D03*
X71941Y131000D02*
D03*
Y136000D02*
D03*
X28941Y129000D02*
D03*
D32*
X159256Y69000D02*
D03*
X153744D02*
D03*
X251744Y101500D02*
D03*
X192756Y170500D02*
D03*
X529256Y73953D02*
D03*
X523744D02*
D03*
X208244Y171000D02*
D03*
X213756D02*
D03*
X214244Y99000D02*
D03*
X219756D02*
D03*
X252744Y126500D02*
D03*
X258256D02*
D03*
X187244Y170500D02*
D03*
X515756Y182000D02*
D03*
X510244D02*
D03*
X257256Y101500D02*
D03*
D33*
X646492Y52555D02*
D03*
Y34445D02*
D03*
Y43500D02*
D03*
Y84000D02*
D03*
X606992Y133945D02*
D03*
X607492Y75445D02*
D03*
X606992Y175945D02*
D03*
Y34445D02*
D03*
X644492Y133945D02*
D03*
X646492Y74945D02*
D03*
X644492Y175945D02*
D03*
Y152055D02*
D03*
X606992Y143000D02*
D03*
X646492Y93055D02*
D03*
X607492Y84500D02*
D03*
X644492Y194055D02*
D03*
X606992Y185000D02*
D03*
Y194055D02*
D03*
Y152055D02*
D03*
X607492Y93555D02*
D03*
X606992Y52555D02*
D03*
Y43500D02*
D03*
X644492Y185000D02*
D03*
Y143000D02*
D03*
D34*
X670508Y43500D02*
D03*
Y84000D02*
D03*
X631008Y143000D02*
D03*
X631508Y84500D02*
D03*
X631008Y185000D02*
D03*
Y43500D02*
D03*
X668508Y185000D02*
D03*
Y143000D02*
D03*
D36*
X204559Y102500D02*
D03*
X208941Y106500D02*
D03*
X214059D02*
D03*
X199441Y102500D02*
D03*
D37*
X678461Y235500D02*
D03*
X673539D02*
D03*
X57842Y70500D02*
D03*
X63157D02*
D03*
D42*
X251500Y107343D02*
D03*
Y112657D02*
D03*
D46*
X543823Y55500D02*
D03*
X544323Y98500D02*
D03*
X542823Y162500D02*
D03*
Y157500D02*
D03*
X544323Y108500D02*
D03*
Y103500D02*
D03*
X543323Y206000D02*
D03*
Y201000D02*
D03*
X543823Y65500D02*
D03*
Y60500D02*
D03*
X564677Y201000D02*
D03*
Y211000D02*
D03*
X565177Y60500D02*
D03*
Y70500D02*
D03*
X564177Y157500D02*
D03*
Y167500D02*
D03*
X565677Y103500D02*
D03*
Y113500D02*
D03*
X564677Y196000D02*
D03*
X565177Y55500D02*
D03*
X564177Y152500D02*
D03*
X565677Y98500D02*
D03*
X564177Y162500D02*
D03*
X565677Y108500D02*
D03*
X564677Y206000D02*
D03*
X565177Y65500D02*
D03*
X543323Y196000D02*
D03*
X542823Y152500D02*
D03*
X544323Y113500D02*
D03*
X543823Y70500D02*
D03*
X542823Y167500D02*
D03*
X543323Y211000D02*
D03*
D47*
X623264Y105500D02*
D03*
X561264Y41000D02*
D03*
X623764Y206000D02*
D03*
X663264Y105500D02*
D03*
Y64000D02*
D03*
X562764Y181000D02*
D03*
Y135500D02*
D03*
X561264Y83500D02*
D03*
X623177Y164500D02*
D03*
X623500Y64000D02*
D03*
X661264Y205000D02*
D03*
X661500Y164000D02*
D03*
D48*
X686500Y76965D02*
D03*
X685000Y174465D02*
D03*
X686500Y60035D02*
D03*
X685000Y157535D02*
D03*
D49*
X610587Y105500D02*
D03*
X548587Y41000D02*
D03*
X611087Y206000D02*
D03*
X548587Y83500D02*
D03*
X648823Y164000D02*
D03*
X650587Y105500D02*
D03*
X648587Y205000D02*
D03*
X610500Y164500D02*
D03*
X610823Y64000D02*
D03*
X650587D02*
D03*
X550087Y181000D02*
D03*
Y135500D02*
D03*
D50*
X539000Y40992D02*
D03*
X539500Y83492D02*
D03*
X194500Y56508D02*
D03*
X186000D02*
D03*
X538500Y180992D02*
D03*
Y135992D02*
D03*
X186000Y50492D02*
D03*
X194500D02*
D03*
X539500Y89508D02*
D03*
X539000Y47008D02*
D03*
X538500Y142008D02*
D03*
Y187008D02*
D03*
D51*
X379500Y236941D02*
D03*
X394500D02*
D03*
X409500D02*
D03*
X424500D02*
D03*
X319500D02*
D03*
X334500D02*
D03*
X349500D02*
D03*
X364500D02*
D03*
X660000Y257941D02*
D03*
X89500Y93941D02*
D03*
X199000Y22059D02*
D03*
X424500Y242059D02*
D03*
X89500Y99059D02*
D03*
X409500Y242059D02*
D03*
X394500D02*
D03*
X379500D02*
D03*
X364500D02*
D03*
X349500D02*
D03*
X334500D02*
D03*
X319500D02*
D03*
X660000Y263059D02*
D03*
X199000Y16941D02*
D03*
D52*
X145000Y40354D02*
D03*
X178000Y45354D02*
D03*
Y51146D02*
D03*
X667000Y258000D02*
D03*
X178000Y56854D02*
D03*
X205500Y22209D02*
D03*
X667000Y263709D02*
D03*
X178000Y39646D02*
D03*
X145000Y34646D02*
D03*
X205500Y16500D02*
D03*
D53*
X219441Y46760D02*
D03*
X648941Y232240D02*
D03*
X654059D02*
D03*
Y224760D02*
D03*
X224559Y46760D02*
D03*
X219441Y54240D02*
D03*
X651500Y224760D02*
D03*
X648941D02*
D03*
X222000Y54240D02*
D03*
X224559D02*
D03*
D54*
X639429Y240524D02*
D03*
Y258476D02*
D03*
X224571Y12524D02*
D03*
Y30476D02*
D03*
D55*
X648941Y240500D02*
D03*
X654059D02*
D03*
X219500Y39000D02*
D03*
X224618D02*
D03*
D56*
X208095Y254000D02*
D03*
X214000D02*
D03*
X666953Y240500D02*
D03*
X211500Y39000D02*
D03*
X661047Y240500D02*
D03*
X640000Y267500D02*
D03*
X205594Y39000D02*
D03*
X634094Y267500D02*
D03*
D57*
X576756Y211000D02*
D03*
X577256Y70500D02*
D03*
X576256Y167500D02*
D03*
X577756Y113500D02*
D03*
X576256Y157500D02*
D03*
X577756Y103500D02*
D03*
X576756Y201000D02*
D03*
X577278Y60575D02*
D03*
X571244Y201000D02*
D03*
Y211000D02*
D03*
X571766Y60575D02*
D03*
X571744Y70500D02*
D03*
X570744Y157500D02*
D03*
Y167500D02*
D03*
X572244Y103500D02*
D03*
Y113500D02*
D03*
D58*
X520650Y175953D02*
D03*
X517307Y80547D02*
D03*
X519075Y170047D02*
D03*
X518882Y86453D02*
D03*
X519075Y175953D02*
D03*
X518882Y80547D02*
D03*
X520650Y170047D02*
D03*
X517307Y86453D02*
D03*
X520457D02*
D03*
X522031D02*
D03*
X523606D02*
D03*
Y80547D02*
D03*
X522031D02*
D03*
X520457D02*
D03*
X517500Y170047D02*
D03*
X515925D02*
D03*
X514350D02*
D03*
Y175953D02*
D03*
X515925D02*
D03*
X517500D02*
D03*
D59*
X613445Y249500D02*
D03*
X250555Y21500D02*
D03*
D60*
X592295Y250000D02*
D03*
X571705D02*
D03*
D61*
X564559Y190000D02*
D03*
X565059Y49500D02*
D03*
X564000Y146500D02*
D03*
X565059Y92500D02*
D03*
X558882Y146500D02*
D03*
X559941Y92500D02*
D03*
X559441Y190000D02*
D03*
X559941Y49500D02*
D03*
D62*
X513957Y173000D02*
D03*
X524000Y83500D02*
D03*
X516913D02*
D03*
X521043Y173000D02*
D03*
D64*
X463594Y249500D02*
D03*
X469500D02*
D03*
X514453Y220500D02*
D03*
X508547D02*
D03*
D65*
X168000Y40362D02*
D03*
X160500Y39862D02*
D03*
X168000Y35638D02*
D03*
X160500Y35138D02*
D03*
D72*
X154638Y29000D02*
D03*
X69138Y105500D02*
D03*
X73862D02*
D03*
X159362Y29000D02*
D03*
D82*
X245500Y105256D02*
D03*
Y99744D02*
D03*
X715000Y241756D02*
D03*
Y236244D02*
D03*
X297500Y160244D02*
D03*
Y165756D02*
D03*
X188500Y151756D02*
D03*
Y146244D02*
D03*
Y132256D02*
D03*
Y126744D02*
D03*
X643000Y229756D02*
D03*
Y224244D02*
D03*
X230500Y48744D02*
D03*
Y54256D02*
D03*
X75500Y182244D02*
D03*
Y187756D02*
D03*
D85*
X133500Y123000D02*
D03*
Y128709D02*
D03*
D91*
X170500Y264000D02*
D03*
X411000Y266000D02*
D03*
X426500Y259500D02*
D03*
X496000Y230500D02*
D03*
X455500Y15500D02*
D03*
X639000Y12000D02*
D03*
X598000Y267500D02*
D03*
X544500Y230500D02*
D03*
D92*
X180500Y264000D02*
D03*
X190500D02*
D03*
X200500D02*
D03*
X210500D02*
D03*
X220500D02*
D03*
X401000Y266000D02*
D03*
X391000D02*
D03*
X381000D02*
D03*
X371000D02*
D03*
X361000D02*
D03*
X351000D02*
D03*
X341000D02*
D03*
Y256000D02*
D03*
X351000D02*
D03*
X361000D02*
D03*
X371000D02*
D03*
X381000D02*
D03*
X391000D02*
D03*
X401000D02*
D03*
X411000D02*
D03*
X226500Y250500D02*
D03*
X29000Y89000D02*
D03*
Y99000D02*
D03*
X574500Y230500D02*
D03*
X564500D02*
D03*
X578000Y267500D02*
D03*
X568000D02*
D03*
X456500Y259500D02*
D03*
X446500D02*
D03*
X526000Y230500D02*
D03*
X516000D02*
D03*
X435500Y15500D02*
D03*
X425500D02*
D03*
X619000Y12000D02*
D03*
X609000D02*
D03*
X436500Y259500D02*
D03*
X506000Y230500D02*
D03*
X445500Y15500D02*
D03*
X629000Y12000D02*
D03*
X269500Y30000D02*
D03*
Y40000D02*
D03*
X588000Y267500D02*
D03*
X269500Y20000D02*
D03*
X554500Y230500D02*
D03*
D93*
X40044Y20634D02*
D03*
Y30634D02*
D03*
Y40634D02*
D03*
Y50634D02*
D03*
Y60634D02*
D03*
X30044Y20634D02*
D03*
Y30634D02*
D03*
Y40634D02*
D03*
Y50634D02*
D03*
D94*
Y60634D02*
D03*
D95*
X777500Y118000D02*
D03*
Y98000D02*
D03*
X757500D02*
D03*
Y118000D02*
D03*
X777000Y247500D02*
D03*
Y227500D02*
D03*
X757000D02*
D03*
Y247500D02*
D03*
D96*
X767500Y108000D02*
D03*
X767000Y237500D02*
D03*
D97*
X296500Y75500D02*
D03*
X510500Y199000D02*
D03*
X492425Y255815D02*
D03*
Y19594D02*
D03*
X689276D02*
D03*
Y255815D02*
D03*
X295575Y19594D02*
D03*
X98724D02*
D03*
X295575Y255815D02*
D03*
X98724D02*
D03*
D98*
X226500Y240500D02*
D03*
X29000Y79000D02*
D03*
X269500Y10000D02*
D03*
D99*
X173000Y125500D02*
D03*
X204000Y253500D02*
D03*
X687000Y85000D02*
D03*
X659500Y178500D02*
D03*
X475500Y108500D02*
D03*
X451000Y182000D02*
D03*
X448500Y45000D02*
D03*
X447500Y139500D02*
D03*
X436500Y136500D02*
D03*
X432000Y42000D02*
D03*
X407000Y84500D02*
D03*
Y179000D02*
D03*
X138676Y222244D02*
D03*
X148676Y246744D02*
D03*
X161500Y217500D02*
D03*
X552701Y266179D02*
D03*
X553822Y257614D02*
D03*
X534691Y253172D02*
D03*
X538191Y265172D02*
D03*
X681500Y237000D02*
D03*
X194500Y34500D02*
D03*
X324500Y32000D02*
D03*
X514750Y36500D02*
D03*
X139500Y9000D02*
D03*
X667000Y271000D02*
D03*
X660000Y270500D02*
D03*
X662000Y175500D02*
D03*
X433500Y45500D02*
D03*
X485000Y187000D02*
D03*
X435500Y180000D02*
D03*
X475500Y112500D02*
D03*
X435000Y87000D02*
D03*
X449500Y84500D02*
D03*
X450500Y178000D02*
D03*
X625500Y84500D02*
D03*
X633000Y105000D02*
D03*
X619000Y64500D02*
D03*
X593000Y20000D02*
D03*
Y34500D02*
D03*
X599500Y39000D02*
D03*
X597500Y50000D02*
D03*
X599500Y69500D02*
D03*
X594500Y87000D02*
D03*
X598000Y95000D02*
D03*
X597500Y103000D02*
D03*
X600000Y114000D02*
D03*
X598000Y128500D02*
D03*
X597000Y146000D02*
D03*
X595500Y166500D02*
D03*
X597077Y156072D02*
D03*
X599000Y213000D02*
D03*
X595500Y199000D02*
D03*
X597000Y192000D02*
D03*
X406500Y71500D02*
D03*
X407000Y112000D02*
D03*
X407500Y202000D02*
D03*
X413000Y174500D02*
D03*
X411500Y183000D02*
D03*
Y191000D02*
D03*
X405000Y168000D02*
D03*
X413000Y133500D02*
D03*
X405000Y146500D02*
D03*
X410500Y147500D02*
D03*
X409500Y154500D02*
D03*
X410500Y45000D02*
D03*
X412000Y78000D02*
D03*
X597500Y184500D02*
D03*
X595000Y81000D02*
D03*
X594000Y140000D02*
D03*
Y134500D02*
D03*
X408000Y161000D02*
D03*
X404000Y215000D02*
D03*
X408500Y67000D02*
D03*
X402000Y119000D02*
D03*
X417500Y89500D02*
D03*
X416500Y44500D02*
D03*
X415000Y49000D02*
D03*
X412000Y89500D02*
D03*
Y95000D02*
D03*
X642000Y247000D02*
D03*
X661000Y235000D02*
D03*
X620000Y231000D02*
D03*
X249500Y66500D02*
D03*
X253500Y112500D02*
D03*
X101500Y115000D02*
D03*
X748000Y93500D02*
D03*
X331539Y168660D02*
D03*
X353000Y131500D02*
D03*
X67000Y42000D02*
D03*
X63500Y43000D02*
D03*
X112500Y97000D02*
D03*
X147000Y102000D02*
D03*
X195500Y172000D02*
D03*
X216122Y182622D02*
D03*
X217000Y171500D02*
D03*
X270000Y149000D02*
D03*
X252000Y99000D02*
D03*
X247500D02*
D03*
X247593Y88093D02*
D03*
X238000Y111500D02*
D03*
X239500Y48500D02*
D03*
X61000Y36000D02*
D03*
X57000Y54000D02*
D03*
X58000Y41500D02*
D03*
X140600Y85818D02*
D03*
X187500Y71000D02*
D03*
X210147Y86147D02*
D03*
X154905Y130839D02*
D03*
X322542Y115463D02*
D03*
X340042Y94463D02*
D03*
X723542Y179963D02*
D03*
X713542Y257463D02*
D03*
X771042Y258963D02*
D03*
X777042Y267963D02*
D03*
X758542Y262963D02*
D03*
X766042Y194463D02*
D03*
X778042Y198963D02*
D03*
X766542Y210963D02*
D03*
X768042Y152963D02*
D03*
X780542Y131963D02*
D03*
X763542Y136463D02*
D03*
X746710Y146893D02*
D03*
X741042Y131963D02*
D03*
X716542Y135463D02*
D03*
X721542Y121963D02*
D03*
X700542Y120963D02*
D03*
X772542Y80963D02*
D03*
X754042Y77463D02*
D03*
X769042Y62963D02*
D03*
X757542Y14463D02*
D03*
X769542Y30463D02*
D03*
X763042Y47963D02*
D03*
X746542Y55963D02*
D03*
X744542Y28963D02*
D03*
X584542Y12963D02*
D03*
X500042Y147963D02*
D03*
X510542Y118963D02*
D03*
X346542Y8463D02*
D03*
X240000Y40500D02*
D03*
X154042Y12963D02*
D03*
X111542Y10963D02*
D03*
X88042Y73463D02*
D03*
X105042Y86463D02*
D03*
X185000Y219000D02*
D03*
X80042Y264463D02*
D03*
X32000Y249000D02*
D03*
X40500Y263000D02*
D03*
X508000Y251000D02*
D03*
X507500Y263500D02*
D03*
X434500Y235500D02*
D03*
X560000Y13000D02*
D03*
X535000Y120500D02*
D03*
X370500Y6500D02*
D03*
X328000Y10500D02*
D03*
X290000Y37500D02*
D03*
X303500Y209000D02*
D03*
X291500Y235000D02*
D03*
X197500Y233000D02*
D03*
X182500Y207000D02*
D03*
X181000Y78000D02*
D03*
X184000Y30500D02*
D03*
X186000Y12000D02*
D03*
X166500Y17000D02*
D03*
X25000Y8500D02*
D03*
X87000Y7000D02*
D03*
X68500Y11500D02*
D03*
X121000Y85500D02*
D03*
X82000Y60000D02*
D03*
X10000Y92000D02*
D03*
X83000Y115000D02*
D03*
X37500Y113500D02*
D03*
X12500D02*
D03*
X162500Y190000D02*
D03*
X145000Y197000D02*
D03*
X123500Y239500D02*
D03*
Y262000D02*
D03*
X53500Y265000D02*
D03*
X13500Y251500D02*
D03*
X29500Y258500D02*
D03*
X14000Y265000D02*
D03*
X67665Y255096D02*
D03*
X47386Y251774D02*
D03*
X320000Y172000D02*
D03*
X337000Y170000D02*
D03*
X516000Y184000D02*
D03*
X509000Y160500D02*
D03*
X658500Y232000D02*
D03*
X524000Y71000D02*
D03*
X274500Y170500D02*
D03*
X131500Y23000D02*
D03*
X257500Y116000D02*
D03*
X257000Y127500D02*
D03*
X516000Y69000D02*
D03*
X507000Y74500D02*
D03*
X526000Y79000D02*
D03*
X258510Y155510D02*
D03*
X274000Y155500D02*
D03*
X186000Y181500D02*
D03*
X181500Y187000D02*
D03*
X218000Y88500D02*
D03*
X650500Y25500D02*
D03*
X590500Y25000D02*
D03*
X645500Y22500D02*
D03*
X611500Y28000D02*
D03*
X630000Y40000D02*
D03*
X642500Y254343D02*
D03*
X653500Y253000D02*
D03*
X583000Y178500D02*
D03*
Y210500D02*
D03*
X289000Y158000D02*
D03*
X243500Y184500D02*
D03*
X687000Y196000D02*
D03*
X721000Y197000D02*
D03*
X694500Y226500D02*
D03*
X530362Y175000D02*
D03*
X690500Y40000D02*
D03*
X528000Y88000D02*
D03*
X509500Y80500D02*
D03*
X234000Y188000D02*
D03*
X226000Y219500D02*
D03*
X267500Y259500D02*
D03*
X342989Y154034D02*
D03*
X334000Y78000D02*
D03*
X342000Y55500D02*
D03*
X320000Y67000D02*
D03*
X250000Y126500D02*
D03*
X247000Y120000D02*
D03*
X642873Y232486D02*
D03*
X667500Y235000D02*
D03*
X685646Y206528D02*
D03*
X693528Y212077D02*
D03*
X727000Y196500D02*
D03*
X736500Y91000D02*
D03*
X731500Y79000D02*
D03*
X727500Y97000D02*
D03*
X537000Y96500D02*
D03*
X524500Y90000D02*
D03*
X513000Y134500D02*
D03*
X513500Y143000D02*
D03*
X515035Y161945D02*
D03*
X511500Y177500D02*
D03*
X507764Y181736D02*
D03*
X498500Y189500D02*
D03*
X346500Y172227D02*
D03*
X350000Y192500D02*
D03*
X305000Y203000D02*
D03*
X280500Y200500D02*
D03*
X281000Y190500D02*
D03*
X310000Y155000D02*
D03*
X299000Y168500D02*
D03*
X324000Y170500D02*
D03*
X337500Y154480D02*
D03*
X359500Y154500D02*
D03*
X337552Y56005D02*
D03*
X259015Y99140D02*
D03*
X245500Y111114D02*
D03*
X152500Y58000D02*
D03*
X138000Y116976D02*
D03*
X75000Y143500D02*
D03*
X75500Y158500D02*
D03*
X75000Y165000D02*
D03*
X73000Y188000D02*
D03*
X77000Y192500D02*
D03*
X74500Y205000D02*
D03*
X77000Y214000D02*
D03*
X118000Y140000D02*
D03*
X136000Y153500D02*
D03*
X129500Y128500D02*
D03*
X133500Y119500D02*
D03*
X151000Y115000D02*
D03*
X164000Y182000D02*
D03*
X219500Y101500D02*
D03*
X213500Y48500D02*
D03*
X319500Y31500D02*
D03*
X252500Y211500D02*
D03*
X230000Y145500D02*
D03*
X247000Y152500D02*
D03*
X186500Y113000D02*
D03*
X155500Y81000D02*
D03*
X150000Y164500D02*
D03*
X195000Y163500D02*
D03*
X121000Y187500D02*
D03*
X247500Y147000D02*
D03*
X209500Y102000D02*
D03*
X152000Y144000D02*
D03*
X227401Y99500D02*
D03*
X249000Y140000D02*
D03*
X241500Y141000D02*
D03*
X150000Y96000D02*
D03*
X234000Y151500D02*
D03*
X120500Y206000D02*
D03*
X180000Y175500D02*
D03*
X226008Y106252D02*
D03*
X173000Y184500D02*
D03*
X123000Y198000D02*
D03*
X153000Y88500D02*
D03*
X237000Y87000D02*
D03*
X204500Y99000D02*
D03*
X250500Y160000D02*
D03*
X226539Y109756D02*
D03*
X254500Y150500D02*
D03*
X194500Y185000D02*
D03*
X233080Y112000D02*
D03*
X225902Y102710D02*
D03*
X694766Y189266D02*
D03*
X702000Y179000D02*
D03*
X345000Y129000D02*
D03*
X315500Y63500D02*
D03*
X294000Y122500D02*
D03*
X293000Y126500D02*
D03*
X296500Y116000D02*
D03*
X314000Y126000D02*
D03*
X528500Y211000D02*
D03*
X609500Y227500D02*
D03*
X584000Y214319D02*
D03*
X396000Y201500D02*
D03*
X450000Y237500D02*
D03*
X639000Y250500D02*
D03*
X478000Y215000D02*
D03*
X212500Y99000D02*
D03*
X214000Y110000D02*
D03*
X630500Y267500D02*
D03*
X628500Y232500D02*
D03*
X100500Y119500D02*
D03*
X130500Y98500D02*
D03*
X120000Y92000D02*
D03*
X196500Y102500D02*
D03*
X152000Y126500D02*
D03*
X349125Y98375D02*
D03*
X707500Y83500D02*
D03*
X713000Y95500D02*
D03*
X719500Y63000D02*
D03*
X682000Y34000D02*
D03*
X252000Y246000D02*
D03*
X257000Y263000D02*
D03*
X253000Y229000D02*
D03*
X239252Y258000D02*
D03*
X236252Y244500D02*
D03*
X242252Y246000D02*
D03*
X686744Y229500D02*
D03*
X705000Y73000D02*
D03*
X699500Y49500D02*
D03*
X358500Y21000D02*
D03*
Y17000D02*
D03*
X523500Y40500D02*
D03*
X36000Y129000D02*
D03*
X7500Y148000D02*
D03*
X79000Y136000D02*
D03*
X79500Y131000D02*
D03*
X271500Y178500D02*
D03*
X272500Y184000D02*
D03*
X635000Y213000D02*
D03*
X639500Y176500D02*
D03*
X582500Y206000D02*
D03*
X548587Y75413D02*
D03*
X685000Y88500D02*
D03*
X670000Y216500D02*
D03*
X365500Y75858D02*
D03*
X550000Y172500D02*
D03*
X524500Y206000D02*
D03*
X621310Y149079D02*
D03*
X621809Y189079D02*
D03*
X366500Y170500D02*
D03*
X481500Y187000D02*
D03*
X453309Y84579D02*
D03*
X448310Y48579D02*
D03*
X447309Y143579D02*
D03*
X710000Y177000D02*
D03*
X714000Y183000D02*
D03*
X696000Y171000D02*
D03*
X265475Y224975D02*
D03*
X696000Y160000D02*
D03*
X247500Y201500D02*
D03*
X163000Y149000D02*
D03*
X695000Y145000D02*
D03*
X413557Y213057D02*
D03*
X400500Y134000D02*
D03*
X413500Y114000D02*
D03*
X399000Y36500D02*
D03*
X600500Y33000D02*
D03*
X584000Y113000D02*
D03*
X452000Y132000D02*
D03*
X453500Y165500D02*
D03*
X455000Y71500D02*
D03*
X452500Y39000D02*
D03*
X642000Y75000D02*
D03*
X640500Y114500D02*
D03*
X523000Y186500D02*
D03*
X326500Y80000D02*
D03*
X287000Y100000D02*
D03*
X192500Y78500D02*
D03*
X199000Y27500D02*
D03*
X696000Y165500D02*
D03*
X705000Y184500D02*
D03*
X289000Y165500D02*
D03*
X344500Y168000D02*
D03*
X504500Y173000D02*
D03*
X341500Y67500D02*
D03*
X288000Y112000D02*
D03*
X529500Y81000D02*
D03*
X324500Y122000D02*
D03*
X525000Y165500D02*
D03*
X290500Y104000D02*
D03*
X508000Y85500D02*
D03*
X138500Y143500D02*
D03*
X696000Y154000D02*
D03*
X262500Y201000D02*
D03*
X432500Y136000D02*
D03*
X389000Y134500D02*
D03*
X582133Y162476D02*
D03*
X402500Y40000D02*
D03*
X588500Y109000D02*
D03*
X433500Y177500D02*
D03*
X433000Y84500D02*
D03*
X588500Y65500D02*
D03*
X73000Y209000D02*
D03*
Y219000D02*
D03*
X72500Y148000D02*
D03*
Y154000D02*
D03*
X73000Y198000D02*
D03*
X72500Y169500D02*
D03*
X169352Y211453D02*
D03*
X195000Y45500D02*
D03*
X186000D02*
D03*
X178000Y35500D02*
D03*
X168500Y32500D02*
D03*
X162500Y29000D02*
D03*
X145000Y31000D02*
D03*
X133000Y39000D02*
D03*
X125500Y38500D02*
D03*
X79000Y55000D02*
D03*
X72000Y54500D02*
D03*
X79500Y28500D02*
D03*
X71500D02*
D03*
X686500Y52500D02*
D03*
X359000Y171000D02*
D03*
X685000Y150000D02*
D03*
X534000Y186500D02*
D03*
X538000Y211000D02*
D03*
X534000Y142000D02*
D03*
X537500Y167500D02*
D03*
X500000Y98000D02*
D03*
X353500Y35500D02*
D03*
X349500Y55500D02*
D03*
X353000Y79500D02*
D03*
X341500Y74000D02*
D03*
X322000Y76441D02*
D03*
X384251Y233749D02*
D03*
X369000Y234000D02*
D03*
X339500D02*
D03*
X319500Y245500D02*
D03*
X334500Y245000D02*
D03*
X349500D02*
D03*
X364500D02*
D03*
X379500D02*
D03*
X394500Y245500D02*
D03*
X409500D02*
D03*
X424500Y245000D02*
D03*
X534500Y47500D02*
D03*
X532000Y74000D02*
D03*
X539000Y70500D02*
D03*
X540000Y115000D02*
D03*
X167000Y235500D02*
D03*
X734500Y235000D02*
D03*
X722000Y36000D02*
D03*
X206000Y248000D02*
D03*
X174500D02*
D03*
X230500Y45500D02*
D03*
X742500Y263500D02*
D03*
X727500D02*
D03*
X715000Y245000D02*
D03*
X708000Y246500D02*
D03*
X701000Y245500D02*
D03*
X89000Y102500D02*
D03*
X61500Y80000D02*
D03*
X215500Y21500D02*
D03*
X205500Y13500D02*
D03*
X199000D02*
D03*
X219500Y78000D02*
D03*
X174500Y90744D02*
D03*
X198000Y113000D02*
D03*
X188528Y134941D02*
D03*
X188500Y154500D02*
D03*
X187500Y168000D02*
D03*
X205500Y171000D02*
D03*
X238000Y213000D02*
D03*
X92547Y134985D02*
D03*
X62000Y159500D02*
D03*
Y189000D02*
D03*
X100500Y234500D02*
D03*
X88000Y238000D02*
D03*
X12000Y128500D02*
D03*
X22000Y238000D02*
D03*
X749000Y208500D02*
D03*
X233500Y54000D02*
D03*
X62500Y112500D02*
D03*
X68500Y131000D02*
D03*
X69000Y136000D02*
D03*
X79500Y141500D02*
D03*
X79000Y161000D02*
D03*
X78500Y224000D02*
D03*
X79000Y202500D02*
D03*
X82000Y189000D02*
D03*
X75500Y179500D02*
D03*
X61500D02*
D03*
X26000Y129000D02*
D03*
X7500Y138000D02*
D03*
X168000Y93500D02*
D03*
X165000Y113500D02*
D03*
X188500Y124000D02*
D03*
Y143500D02*
D03*
X297500Y156500D02*
D03*
X309500Y234000D02*
D03*
X324500D02*
D03*
X354500D02*
D03*
X399500D02*
D03*
X414500D02*
D03*
X715500Y231874D02*
D03*
D100*
X172695Y179242D02*
D03*
X158695Y183242D02*
D03*
X123500Y210500D02*
D03*
X140500Y162000D02*
D03*
X118904Y195029D02*
D03*
X120571Y182259D02*
D03*
D101*
X119605Y111731D02*
D03*
Y107400D02*
D03*
X115274D02*
D03*
Y111731D02*
D03*
X706216Y222173D02*
D03*
X710547D02*
D03*
X714878D02*
D03*
X719209D02*
D03*
X706216Y217843D02*
D03*
X710547D02*
D03*
X714878D02*
D03*
X719209D02*
D03*
X706216Y213512D02*
D03*
X710547D02*
D03*
X714878D02*
D03*
X719209D02*
D03*
X706216Y209181D02*
D03*
X710547D02*
D03*
X714878D02*
D03*
X719209D02*
D03*
D180*
X129000Y57937D02*
D03*
D181*
X147650Y130839D02*
D03*
Y128279D02*
D03*
X141350Y123161D02*
D03*
Y125721D02*
D03*
Y128279D02*
D03*
Y130839D02*
D03*
X147650Y125721D02*
D03*
Y123161D02*
D03*
D185*
X249095Y42000D02*
D03*
X260906D02*
D03*
D187*
X125122Y43173D02*
D03*
X132878D02*
D03*
D188*
X71500Y39142D02*
D03*
Y31858D02*
D03*
Y44358D02*
D03*
Y51642D02*
D03*
X79000Y44358D02*
D03*
Y51642D02*
D03*
Y39142D02*
D03*
Y31858D02*
D03*
D189*
X251492Y120000D02*
D03*
X257508D02*
D03*
D190*
X86000Y36539D02*
D03*
Y41461D02*
D03*
D191*
X145378Y47500D02*
D03*
X167622Y52500D02*
D03*
Y47500D02*
D03*
X145378Y52500D02*
D03*
X167622Y62500D02*
D03*
X145378D02*
D03*
X167622Y57500D02*
D03*
X145378D02*
D03*
D192*
X70146Y75441D02*
D03*
X75854D02*
D03*
X87854Y203500D02*
D03*
X87354Y224000D02*
D03*
X87854Y142500D02*
D03*
Y159000D02*
D03*
X81646Y224000D02*
D03*
X82146Y142500D02*
D03*
Y159000D02*
D03*
Y203500D02*
D03*
D193*
X62267Y88563D02*
D03*
Y93563D02*
D03*
X81598Y83563D02*
D03*
X62267Y98563D02*
D03*
X81598Y93563D02*
D03*
X62267Y83563D02*
D03*
X81598Y88563D02*
D03*
Y98563D02*
D03*
D194*
X112750Y54000D02*
D03*
X94250D02*
D03*
D195*
X315000Y160398D02*
D03*
X320000D02*
D03*
X325000D02*
D03*
X330000D02*
D03*
X335000D02*
D03*
X340000D02*
D03*
X345000D02*
D03*
X350000D02*
D03*
X330000Y197602D02*
D03*
X335000D02*
D03*
X340000D02*
D03*
X345000D02*
D03*
X310000D02*
D03*
X315000D02*
D03*
X320000D02*
D03*
X325000D02*
D03*
X305000D02*
D03*
X350000D02*
D03*
X310000Y160398D02*
D03*
X305000D02*
D03*
D196*
X172500Y205547D02*
D03*
X202632Y204826D02*
D03*
X212632Y205327D02*
D03*
Y211232D02*
D03*
X202632Y210732D02*
D03*
X215500Y12500D02*
D03*
X172500Y211453D02*
D03*
X215500Y18406D02*
D03*
D197*
X220376Y210779D02*
D03*
X225888D02*
D03*
D198*
X77000Y209059D02*
D03*
Y218779D02*
D03*
Y148000D02*
D03*
Y153720D02*
D03*
Y197059D02*
D03*
Y169280D02*
D03*
Y145441D02*
D03*
Y156280D02*
D03*
Y166720D02*
D03*
Y194500D02*
D03*
Y206500D02*
D03*
Y216220D02*
D03*
M02*
