M48
;Layer_Color=9474304
;FILE_FORMAT=4:4
METRIC,LZ
;TYPE=PLATED
T01F00S00C0.2000
T02F00S00C0.3000
T03F00S00C1.0200
T04F00S00C1.5400
T05F00S00C2.9000
%
T01
X00292796Y00272796
X00303796
Y00283796
X00292796
X0035687Y0041148
X0030625Y00462938
X00302017Y00495373
X0031369Y0053467
X00403086Y00465434
X00438646Y00455274
X0179379Y0053132
X0180479
Y0054232
X0179379
Y0055332
Y0056432
X0180479
Y0055332
X0181579
Y0056432
X0182679
Y0055332
Y0054232
X0181579
Y0053132
X0182679
T02
X0163957Y0005715
X0165227Y0006477
X016002Y001016
X0163068Y001905
X0160782Y002667
X0162687Y0029083
X01779377Y00307245
X0181102Y0024257
X0184785Y0024638
X0187071Y0023114
X0189992Y0023749
X01915267Y00196755
X01962257Y00205645
X01953367Y00159925
X01938127Y00121825
X01954637Y00077375
X01891137Y00073565
X01924157Y00036735
X01896217Y00142145
X0182753Y0016002
X017907Y0018542
X0179705Y0021209
X0174498Y002159
X017399Y0022479
X0174371Y0013335
X0177673Y0012573
X0175387Y001016
X0173228Y0008636
X0183388Y0009144
X0185801Y0020066
X0158877Y0021463
X0157226Y0016383
X0152273Y0017653
X0149479Y0016637
X015113Y0020574
X0151003Y0022098
X0151892Y002413
X0151765Y0026162
X01524Y0028956
X0149479Y0027686
X0148336Y0028702
X013716Y002921
X013589Y0030607
X01296777Y00302165
X0127Y0024892
X0129032Y0021717
X0129413Y0020447
X0128778Y0018923
X0131064Y0017526
X0133096Y0018034
X0133604Y0020066
X0134493Y0020574
X0134112Y0022352
X0133223Y002286
X0136398Y0024511
X0135128Y0018796
X0136906Y0017907
X0139341Y0019155
X0135763Y0012065
X0132969Y0010287
X01307465Y0009271
X014224Y0003302
X01484737Y00032925
X0150622Y000508
X0149987Y000635
X0150622Y0008763
X0152527Y0008382
X0152273Y0009906
X0151765Y00127
X0155321Y0007112
X0120777Y0027559
Y0028575
X01151406Y0021483
X0114173Y0021463
X0109982
X011049Y0022098
X0106045Y0022733
X0104648
Y002413
X0103378Y0021463
X0104648Y0019812
X0103251Y0018161
X0103759Y0017018
X0104267Y001143
X0105791Y0011303
X010541Y0012446
X0102235Y001016
X0101346Y0009271
X0109728Y0010668
X0110109Y0011557
X0113919Y001143
X01138706Y0012339
X0114935Y0009906
X011557Y0018161
X0105029Y0028956
X0103378Y0028448
X0102108Y0030226
X00886777Y00249872
X00863707Y00239935
X0086741Y0018796
Y0017145
X0086868Y0014097
X00857383Y00142254
X0088773Y0014097
X0089789Y0009017
X0091059Y0005334
Y0004318
X00880217Y00021495
X0083312Y0002667
X0082423Y0008128
X0081153Y0008001
X008128Y0017018
X0080137Y0016129
X0081788Y0019416
X0082931Y002032
X0084836Y0019812
X0089662Y0020193
X0092837Y0019268
X0094107Y0001651
X00819257Y00293275
X0075311Y0029464
X0073152Y0028448
X0073787Y0026416
X0072898Y00254
X00657898Y00251816
X0064008Y0025146
X0062865
X00628886Y00223756
X0060198Y0022098
X0055372Y0022479
X00533774Y00218814
X0053975Y0025146
X0053213Y0025908
X0051943Y0025146
X0049911Y0026035
X0050292Y0028702
X0047371
X004191Y0028829
X0042672Y0023749
X0044323Y0023049
X0045974Y0019812
X0048895Y0019939
X0047625Y0018034
X0047244Y0011557
X004953
X0049403Y0008763
X0050546Y0006985
Y0003429
X0052197
X0054737Y0005461
X0054229Y0012319
X0058547Y0011557
X0059309Y0013716
X0060833Y0012319
X006096Y0010287
X0063373Y0016891
X0055753Y0019812
Y0025781
X0057379Y00260885
X00574059Y00269881
X00575408Y00278779
X00592022Y0028448
X0060452Y0028321
X0062357Y00282231
X0064389Y0028575
X0065405Y0029464
X0062738Y003048
X00577598Y0025273
X0054356Y002794
X0046736Y0007747
X0045212Y0009017
X0042799Y0008255
X0041275Y0007366
X0042291Y0004318
X0047244Y0003048
X007366Y0009525
X003683Y0007874
X0033782Y0009906
X0031877Y0009779
X0033401Y0005842
X0035433Y0002286
X00391267Y00032925
X00283317Y00027845
X0022098Y0001778
X0017399Y0002921
X0018161Y0007239
X0020193
X0017018Y0010668
X0016129Y0010922
X0014732Y0010541
X0015494Y0009144
X0014478Y0013716
X0018288Y0013843
X0020066Y001397
X0020828Y001524
X00223627Y00186595
X0022606Y0026035
X0021082Y002921
X0025781
X0025527Y0030353
X0033909
X0035052Y00297118
X0038354Y002921
X0037338Y0025908
X00381Y0024384
X0038862Y0022479
X0039497Y0020574
X00357125Y00217978
X0030734Y0021717
X003048Y0023368
X0028575Y0024638
X00266807Y00219615
X0033147Y0025019
X0038735Y0014732
X0015621Y002032
X0015875Y0028575
X0009525Y0028829
X0003175
X000254Y0023368
X000635Y0002159
X0006604Y0032766
X0009144
X0003048Y0032639
X0001905Y0035052
Y0037592
X0018415
Y0039116
X0019177Y0040259
X0020066Y0040894
X001905Y004191
X0018415Y0043053
X0019177Y0045593
X0018542Y0047752
X0019558Y0048895
X0020828Y0048006
X0020066Y0051435
X0018923Y005207
X0018542Y0053086
X0019558Y0054356
X0018542Y0055626
X0019939Y0056896
X0022352Y0060452
X0025527Y0059563
X0031369Y0060833
Y0066548
X00377638Y0062673
X00352238Y005645
X003683Y0050038
X0031242Y0050292
X0030607Y0052324
X0030734Y0047625
X0034544Y0038989
X0035179Y0036449
X0038608Y0036576
X0039346Y0033233
X0038608Y0032131
X0032893Y0032639
X0029972Y003556
X0023507Y00342861
X0020066Y0034544
X0020193Y0033274
Y0035941
X001905Y0036449
X0017526Y0034544
X0017399Y0033274
X0015748Y0040513
X0015621Y0045593
X0015748Y0048006
X0018542Y0050292
X00171868Y00647945
X00203307Y00671735
X0013589Y006731
X0010287Y0066802
X0007493Y0065659
X0008128Y0063246
X00120359Y00639506
X0003429Y0063881
X0003556Y006731
X0005588Y0060452
X00381Y0041783
X0041402Y0037846
X0047879Y0039243
Y0036449
X00478861Y00342751
X0047879Y0031496
X0043942Y0031877
X004572Y0044577
X0047244Y0046101
X0046101Y0047498
X0043942Y0046863
X0041656Y0046228
X0041275Y004826
X00430155Y0053709
X0041021Y0055245
X0042418Y0059817
X0044323Y0062992
X0052324
X0051816Y0064389
X0050165Y0059182
X004699Y0055626
X0046355Y0052578
X0049403Y004699
X0049657Y0043688
X004953Y0041529
X0047625Y0042672
X0052197Y0043434
X0055118Y0043561
X00548949Y00463859
X0059436Y0047752
X0061849Y0046863
X0062865Y0051181
X0064135Y0053721
X0060452Y0054102
X0057404Y0055753
X0060008Y0062103
X0061532Y0062484
X0064008
X0064262Y0058166
X00674307Y00571437
X0066675Y0051054
X0071247Y0050927
X0071374Y0048387
X0069215Y0046736
X0068961Y0045339
X0069723Y0043307
X0069596Y0039497
X006858Y0037846
X0064643Y0038227
X00656615Y00394995
X0063627Y004064
X0062738Y0038735
X0062865Y0037338
X0063246Y003556
X0061341Y0035814
X005842Y0036957
X0059436Y0038481
X00635Y0032131
X0065278Y0032385
X0074422Y0032131
X0074676Y0031115
X0075565Y0039751
X0073406Y0040132
Y0042037
X0075946Y0042799
X007874Y003937
X007747Y0051562
X0077089Y0053086
X0078613Y0059436
X0074041Y005969
X0067945Y0065913
X0065278Y0066802
X006077Y0065532
X0081153Y0062357
X0084963Y006223
X0088773
X0092583
X0096393
X0100203Y0062357
X0104013
X0107823Y006223
X0110363Y0059817
X01143Y0060325
X0105283Y0059436
X0101473
X00975997Y00593723
X0093726Y0059436
X0090043
X0086233
X0082423
X0082296Y0043307
X008128Y0043688
X00842109Y00428396
X0085598Y004318
X0087503Y0042672
X0088011Y00437458
X0091186Y0043434
X0093091Y0043307
X0091313Y0039243
X00871192Y00391246
X0085725Y0039238
X008763Y0032766
X0089662Y0033401
X0082423Y0030988
X0079756Y0032004
X0098806Y0034163
X0101727Y0034036
X0104902Y0033909
X0104267Y0037465
X010287Y0037211
X0104013Y0039243
X0103632Y0040894
X010287Y0042672
X0103378Y0045466
X0104521Y0046482
Y0048514
X0103505Y0051308
X0100584Y0051181
X0102616Y005461
X01050435Y00541165
X0104902Y0044323
X0110109Y0045085
X0110617Y004572
X0114427Y0045212
X0114554Y0046228
X0115189Y0042037
X01136166Y0036469
X0113665Y0035433
X0114808Y0033528
X0110871Y0034671
X0109855Y0034544
X00889Y0048895
X0122301Y0047498
X012319
X0126619Y0048133
X0128972Y0046161
X0129921Y0045085
X0131064Y0046736
X0132842Y0047371
X0135636
X0134712Y004445
X0136525Y0042545
X013335Y0042037
X0130819Y00411341
X0129286Y0040767
X0128143Y0043942
X01270107Y00375825
X0130429Y0036322
X0130302Y0034163
X0135636Y0036068
X01397Y0043815
X0148082Y0045339
X01478619Y0041269
X0151257Y0042291
X01516577Y00396424
X0151638Y0037084
X0150876Y003556
Y0034163
X0151892Y0032639
X01578126Y0037866
X01579396Y0048026
X0151638Y0048768
X0151765Y0046863
X0151257Y0050546
X0152146Y0054102
X0148336Y0054437
X0148082Y0053467
X0147955Y0052324
X0154813Y0057785
X015748Y0058674
X01406707Y0065434
X0140386Y00676094
X01367005Y00673537
X01358115Y00643057
X0129032Y0063754
X0128905Y0066929
X0134239Y0053594
X0133223Y0052324
X0136652Y0053594
X0121412Y005461
X016129Y0054102
X0159639Y0059055
X01632898Y00590513
X0163068Y0062738
X0162306Y0063627
X0163195Y0064603
X0165989Y0064262
X016764Y0068707
X0169418Y0068834
X0169545Y005969
X0167894
X0167259Y0058928
X017018Y0054991
X0174154Y0052458
X0174498Y0049784
X01764706Y00480736
X017907Y0046863
X0178308Y0045466
X018034Y0044958
X0181356Y0046482
X01837797Y00457105
X0183134Y0050038
X0184658Y0049911
X0190246Y0052959
X01947017Y00535845
X01945747Y00493935
X01976227Y00505365
X01950827Y00388525
X01939397Y00346615
X01982577Y00335185
X01882247
X01896643Y00373108
X01820017Y00344075
X01832717Y00309785
X017653Y003683
X0176784Y0039116
Y004064
Y0042037
Y0043434
X017399Y00381
X0168148Y0044577
X0167513Y0045339
X0162433Y0044831
X01761561Y00538675
X0176403Y0057531
X0174433Y0058293
X0173101Y0060198
X0178054Y0062357
X0179832Y0062611
X018161Y006223
X0181737Y0058896
X0186563Y005969
X0184785Y0066929
X0188595
X01926697Y00667925
X01958447Y00657765
X01973687Y00680625
X01812397Y00653955
X0160147Y0067945
T03
X0159766Y0003048
X0162306
X0157226
X0154686
X0115697Y0003937
X0113157
X0110617
X0108077
X0068453Y000508
Y000762
Y001016
Y000254
X00101712Y0005241
Y0007781
Y0010321
Y0012861
Y0015401
X00076312
Y0012861
Y0010321
Y0007781
Y0005241
X0007366Y0020066
Y0022606
Y0025146
X0043307Y0067056
X0045847
X0048387
X0050927
X0053467
X0056007
X0057531Y0063627
Y0061087
X0086614Y0065024
Y0067564
X0089154
X0091694
X0094234
X0096774
X0099314
X0101854
X0104394
Y0065024
X0101854
X0099314
X0096774
X0094234
X0091694
X0089154
X0108331Y0065913
X0110871
X0113411
X0115951
X0125984Y0058547
X0128524
X0131064
X0133604
X0138303
X0140843
X0143383
X0145923
X0146812Y0067945
X0144272
X0149352
X0151892
T04
X0192405Y0024892
X0197485
Y0029972
X0192405
X0194945Y0027432
X0197358Y0057785
Y0062865
X0192278
Y0057785
X0194818Y0060325
T05
X0175076Y0004977
X0125076
X0075076
X0075311Y0019177
X0025076Y0004977
Y0064977
X0075076
X0125076
X0129667Y0050546
X0175076Y0064977
M30
