G04*
G04 #@! TF.GenerationSoftware,Altium Limited,Altium Designer,23.7.1 (13)*
G04*
G04 Layer_Color=32768*
%FSLAX25Y25*%
%MOIN*%
G70*
G04*
G04 #@! TF.SameCoordinates,971C37BE-97D5-4A50-9DA2-DA4AE9E2F4D9*
G04*
G04*
G04 #@! TF.FilePolarity,Positive*
G04*
G01*
G75*
%ADD70C,0.00394*%
%ADD71C,0.00197*%
D70*
X105500Y136130D02*
Y139870D01*
X103630Y138000D02*
X107370D01*
X83100Y102630D02*
Y106370D01*
X81230Y104500D02*
X84970D01*
X52517Y348811D02*
Y379323D01*
Y348811D02*
X99368D01*
Y379323D01*
X52517D02*
X99368D01*
X78528Y290200D02*
X82072D01*
X80300Y288428D02*
Y291972D01*
X85330Y290100D02*
X89070D01*
X87200Y288230D02*
Y291970D01*
X61630Y303000D02*
X65370D01*
X63500Y301130D02*
Y304870D01*
X62000Y335630D02*
Y339370D01*
X60130Y337500D02*
X63870D01*
X70428Y333253D02*
X73972D01*
X72200Y331481D02*
Y335024D01*
X79828Y333300D02*
X83372D01*
X81600Y331528D02*
Y335072D01*
X87028Y335200D02*
X90572D01*
X88800Y333428D02*
Y336972D01*
X98800Y214530D02*
Y218270D01*
X96930Y216400D02*
X100670D01*
X84000Y217531D02*
Y221468D01*
X82032Y219500D02*
X85969D01*
X74158Y212610D02*
X93843D01*
X74158Y226390D02*
X93843D01*
Y212610D02*
Y226390D01*
X74158Y212610D02*
Y226390D01*
X55831Y422500D02*
X59768D01*
X57800Y420532D02*
Y424469D01*
X223830Y541600D02*
X227570D01*
X225700Y539730D02*
Y543470D01*
X66930Y216900D02*
X70670D01*
X68800Y215030D02*
Y218770D01*
X66790Y222300D02*
X70531D01*
X68661Y220430D02*
Y224170D01*
X69500Y20130D02*
Y23870D01*
X67630Y22000D02*
X71370D01*
X69559Y13630D02*
Y17370D01*
X67689Y15500D02*
X71429D01*
X83000Y7515D02*
Y9484D01*
X82015Y8500D02*
X83984D01*
X83000Y21515D02*
Y23484D01*
X82015Y22500D02*
X83984D01*
X69500Y6630D02*
Y10370D01*
X67630Y8500D02*
X71370D01*
X83000Y14515D02*
Y16484D01*
X82015Y15500D02*
X83984D01*
X41500Y76228D02*
Y79772D01*
X39728Y78000D02*
X43272D01*
X32130Y90059D02*
X35870D01*
X34000Y88189D02*
Y91929D01*
X32130Y78354D02*
X35870D01*
X34000Y76484D02*
Y80224D01*
X33500Y113728D02*
Y117272D01*
X31728Y115500D02*
X35272D01*
X39130Y103059D02*
X42870D01*
X41000Y101189D02*
Y104929D01*
X39130Y115500D02*
X42870D01*
X41000Y113630D02*
Y117370D01*
X242000Y54228D02*
Y57772D01*
X240228Y56000D02*
X243772D01*
X233130Y67500D02*
X236870D01*
X235000Y65630D02*
Y69370D01*
X233130Y56000D02*
X236870D01*
X235000Y54130D02*
Y57870D01*
X139732Y96300D02*
X143668D01*
X141700Y94332D02*
Y98269D01*
X131628Y113953D02*
X135172D01*
X133400Y112181D02*
Y115724D01*
X140028Y113900D02*
X143572D01*
X141800Y112128D02*
Y115672D01*
X158753Y88628D02*
Y92172D01*
X156981Y90400D02*
X160524D01*
X133028Y78647D02*
X136572D01*
X134800Y76876D02*
Y80419D01*
X141528Y78647D02*
X145072D01*
X143300Y76876D02*
Y80419D01*
X86700Y47030D02*
Y50770D01*
X84830Y48900D02*
X88570D01*
X140630Y262000D02*
X144370D01*
X142500Y260130D02*
Y263870D01*
X150630Y262000D02*
X154370D01*
X152500Y260130D02*
Y263870D01*
X160630Y262000D02*
X164370D01*
X162500Y260130D02*
Y263870D01*
X170630Y262000D02*
X174370D01*
X172500Y260130D02*
Y263870D01*
X100630Y262000D02*
X104370D01*
X102500Y260130D02*
Y263870D01*
X110630Y262000D02*
X114370D01*
X112500Y260130D02*
Y263870D01*
X120630Y262000D02*
X124370D01*
X122500Y260130D02*
Y263870D01*
X130630Y262000D02*
X134370D01*
X132500Y260130D02*
Y263870D01*
X157000Y304028D02*
Y307572D01*
X155228Y305800D02*
X158772D01*
X151000Y538031D02*
Y541968D01*
X149031Y540000D02*
X152969D01*
X138015Y540000D02*
X139984D01*
X139000Y539015D02*
Y540984D01*
X138016Y545000D02*
X139985D01*
X139000Y544016D02*
Y545985D01*
X189000Y538031D02*
Y541968D01*
X187031Y540000D02*
X190969D01*
X176015Y540000D02*
X177984D01*
X177000Y539015D02*
Y540984D01*
X176016Y545000D02*
X177985D01*
X177000Y544016D02*
Y545985D01*
X106000Y538031D02*
Y541968D01*
X104032Y540000D02*
X107968D01*
X93515Y540000D02*
X95484D01*
X94500Y539015D02*
Y540984D01*
X93516Y545000D02*
X95485D01*
X94500Y544016D02*
Y545985D01*
X162700Y316632D02*
Y320568D01*
X160731Y318600D02*
X164669D01*
X137100Y302731D02*
Y306668D01*
X135132Y304700D02*
X139068D01*
X143828Y304900D02*
X147372D01*
X145600Y303128D02*
Y306672D01*
X135228Y318400D02*
X138772D01*
X137000Y316628D02*
Y320172D01*
X143728Y318400D02*
X147272D01*
X145500Y316628D02*
Y320172D01*
X152228Y318400D02*
X155772D01*
X154000Y316628D02*
Y320172D01*
X111200Y316387D02*
Y320324D01*
X109231Y318356D02*
X113169D01*
X118228Y318400D02*
X121772D01*
X120000Y316628D02*
Y320172D01*
X126728Y304900D02*
X130272D01*
X128500Y303128D02*
Y306672D01*
X126728Y318400D02*
X130272D01*
X128500Y316628D02*
Y320172D01*
X54216Y394300D02*
X56185D01*
X55200Y393315D02*
Y395284D01*
X64400Y394530D02*
Y398270D01*
X62530Y396400D02*
X66270D01*
X45100Y394128D02*
Y397672D01*
X43328Y395900D02*
X46872D01*
X214153Y541316D02*
Y543284D01*
X213169Y542300D02*
X215137D01*
X61900Y565031D02*
Y568968D01*
X59931Y567000D02*
X63868D01*
X201228Y551500D02*
X204772D01*
X203000Y549728D02*
Y553272D01*
X54500Y540515D02*
Y542484D01*
X53515Y541500D02*
X55484D01*
X66000Y539630D02*
Y543370D01*
X64130Y541500D02*
X67870D01*
X42228Y551500D02*
X45772D01*
X44000Y549728D02*
Y553272D01*
X194800Y431628D02*
Y435172D01*
X193028Y433400D02*
X196572D01*
X201000Y442576D02*
Y446513D01*
X199031Y444544D02*
X202969D01*
X174800Y428731D02*
Y432668D01*
X172831Y430700D02*
X176769D01*
X149500Y442287D02*
Y446224D01*
X147531Y444256D02*
X151469D01*
X164528Y430853D02*
X168072D01*
X166300Y429081D02*
Y432624D01*
X181728Y430847D02*
X185272D01*
X183500Y429076D02*
Y432619D01*
X189828Y444400D02*
X193372D01*
X191600Y442628D02*
Y446172D01*
X181428Y444400D02*
X184972D01*
X183200Y442628D02*
Y446172D01*
X172928Y444453D02*
X176472D01*
X174700Y442681D02*
Y446224D01*
X164728Y444500D02*
X168272D01*
X166500Y442728D02*
Y446272D01*
X156328Y444500D02*
X159872D01*
X158100Y442728D02*
Y446272D01*
X112128Y430500D02*
X115672D01*
X113900Y428728D02*
Y432272D01*
X130800Y442031D02*
Y445968D01*
X128832Y444000D02*
X132768D01*
X79500Y442132D02*
Y446068D01*
X77531Y444100D02*
X81468D01*
X105200Y427832D02*
Y431769D01*
X103232Y429800D02*
X107168D01*
X125000Y430728D02*
Y434272D01*
X123228Y432500D02*
X126772D01*
X94928Y430253D02*
X98472D01*
X96700Y428481D02*
Y432024D01*
X120328Y444200D02*
X123872D01*
X122100Y442428D02*
Y445972D01*
X111928Y444200D02*
X115472D01*
X113700Y442428D02*
Y445972D01*
X103428Y444200D02*
X106972D01*
X105200Y442428D02*
Y445972D01*
X221600Y565031D02*
Y568968D01*
X219632Y567000D02*
X223569D01*
X236264Y527685D02*
X271736D01*
X236264D02*
Y548315D01*
X271736D01*
Y527685D02*
Y548315D01*
X3764D02*
X39236D01*
Y527685D02*
Y548315D01*
X3764Y527685D02*
X39236D01*
X3764D02*
Y548315D01*
X134500Y243669D02*
Y247213D01*
X132728Y245441D02*
X136272D01*
X124500Y243669D02*
Y247213D01*
X122728Y245441D02*
X126272D01*
X114500Y243787D02*
Y247331D01*
X112728Y245559D02*
X116272D01*
X104500Y243787D02*
Y247331D01*
X102728Y245559D02*
X106272D01*
X174500Y243669D02*
Y247213D01*
X172728Y245441D02*
X176272D01*
X164500Y243787D02*
Y247331D01*
X162728Y245559D02*
X166272D01*
X154461Y243728D02*
Y247272D01*
X152689Y245500D02*
X156232D01*
X144500Y243669D02*
Y247213D01*
X142728Y245441D02*
X146272D01*
X170630Y252382D02*
X174370D01*
X172500Y250512D02*
Y254252D01*
X94928Y444247D02*
X98472D01*
X96700Y442476D02*
Y446019D01*
X86428Y444200D02*
X89972D01*
X88200Y442428D02*
Y445972D01*
X241728Y218500D02*
X245272D01*
X243500Y216728D02*
Y220272D01*
X241728Y209300D02*
X245272D01*
X243500Y207528D02*
Y211072D01*
X101947Y51328D02*
Y54872D01*
X100176Y53100D02*
X103719D01*
X99200Y57930D02*
Y61670D01*
X97330Y59800D02*
X101070D01*
X71000Y54128D02*
Y57672D01*
X69228Y55900D02*
X72772D01*
X187228Y85000D02*
X190772D01*
X189000Y83228D02*
Y86772D01*
X206500Y82728D02*
Y86272D01*
X204728Y84500D02*
X208272D01*
X197500Y82728D02*
Y86272D01*
X195728Y84500D02*
X199272D01*
X206928Y99053D02*
X210472D01*
X208700Y97281D02*
Y100824D01*
X190628Y113000D02*
X194172D01*
X192400Y111228D02*
Y114772D01*
X198728Y113000D02*
X202272D01*
X200500Y111228D02*
Y114772D01*
X160630Y252559D02*
X164370D01*
X162500Y250689D02*
Y254429D01*
X102500Y250689D02*
Y254429D01*
X100630Y252559D02*
X104370D01*
X112500Y250689D02*
Y254429D01*
X110630Y252559D02*
X114370D01*
X130630Y252441D02*
X134370D01*
X132500Y250571D02*
Y254311D01*
X120630Y252500D02*
X124370D01*
X122500Y250630D02*
Y254370D01*
X150591Y252500D02*
X154331D01*
X152461Y250630D02*
Y254370D01*
X140630Y252441D02*
X144370D01*
X142500Y250571D02*
Y254311D01*
X105728Y178000D02*
X109272D01*
X107500Y176228D02*
Y179772D01*
X114128Y178053D02*
X117672D01*
X115900Y176281D02*
Y179824D01*
X122628Y178053D02*
X126172D01*
X124400Y176281D02*
Y179824D01*
X131128Y178147D02*
X134672D01*
X132900Y176376D02*
Y179919D01*
X139628Y178100D02*
X143172D01*
X141400Y176328D02*
Y179872D01*
X148128Y178100D02*
X151672D01*
X149900Y176328D02*
Y179872D01*
X156628Y178100D02*
X160172D01*
X158400Y176328D02*
Y179872D01*
X165128Y178147D02*
X168672D01*
X166900Y176376D02*
Y179919D01*
X70130Y104500D02*
X73870D01*
X72000Y102630D02*
Y106370D01*
X92130Y138000D02*
X95870D01*
X94000Y136130D02*
Y139870D01*
X81130Y138000D02*
X84870D01*
X83000Y136130D02*
Y139870D01*
X59130Y138000D02*
X62870D01*
X61000Y136130D02*
Y139870D01*
X70130Y138000D02*
X73870D01*
X72000Y136130D02*
Y139870D01*
D71*
X102547Y143118D02*
X108453D01*
X102547Y132882D02*
X108453D01*
Y143118D01*
X102547Y132882D02*
Y143118D01*
X80147Y109618D02*
X86053D01*
X80147Y99382D02*
X86053D01*
Y109618D01*
X80147Y99382D02*
Y109618D01*
X84237Y283704D02*
Y296696D01*
X76363Y283704D02*
Y296696D01*
X84237D01*
X76363Y283704D02*
X84237D01*
X84838Y285572D02*
Y294628D01*
X89562Y285572D02*
Y294628D01*
X84838Y285572D02*
X89562D01*
X84838Y294628D02*
X89562D01*
X59366Y296307D02*
Y309693D01*
X67634Y296307D02*
Y309693D01*
X59366Y296307D02*
X67634D01*
X59366Y309693D02*
X67634D01*
X56685Y340453D02*
X67315D01*
X56685Y334547D02*
X67315D01*
X56685D02*
Y340453D01*
X67315Y334547D02*
Y340453D01*
X76137Y326757D02*
Y339749D01*
X68263Y326757D02*
Y339749D01*
X76137D01*
X68263Y326757D02*
X76137D01*
X85537Y326804D02*
Y339796D01*
X77663Y326804D02*
Y339796D01*
X85537D01*
X77663Y326804D02*
X85537D01*
X86635Y330869D02*
Y339531D01*
X90965Y330869D02*
Y339531D01*
X86635Y330869D02*
X90965D01*
X86635Y339531D02*
X90965D01*
X68270Y297610D02*
X89530D01*
X68270Y326390D02*
X89530D01*
X68270Y297610D02*
Y326390D01*
X89530Y297610D02*
Y326390D01*
X94469Y218762D02*
X103131D01*
X94469Y214038D02*
X103131D01*
X94469D02*
Y218762D01*
X103131Y214038D02*
Y218762D01*
X71284Y400650D02*
Y444350D01*
X44316Y400650D02*
Y444350D01*
X71284D01*
X44316Y400650D02*
X71284D01*
X230818Y538647D02*
Y544553D01*
X220582Y538647D02*
Y544553D01*
Y538647D02*
X230818D01*
X220582Y544553D02*
X230818D01*
X64469Y214538D02*
Y219262D01*
X73131Y214538D02*
Y219262D01*
X64469D02*
X73131D01*
X64469Y214538D02*
X73131D01*
X64330Y219938D02*
Y224662D01*
X72991Y219938D02*
Y224662D01*
X64330D02*
X72991D01*
X64330Y219938D02*
X72991D01*
X64382Y24953D02*
X74618D01*
X64382Y19047D02*
X74618D01*
X64382D02*
Y24953D01*
X74618Y19047D02*
Y24953D01*
X64441Y18453D02*
X74677D01*
X64441Y12547D02*
X74677D01*
X64441D02*
Y18453D01*
X74677Y12547D02*
Y18453D01*
X78078Y6531D02*
Y10468D01*
X87921D01*
X78078Y6531D02*
X87921D01*
Y10468D01*
X78078Y20531D02*
Y24468D01*
X87921D01*
X78078Y20531D02*
X87921D01*
Y24468D01*
X64382Y11453D02*
X74618D01*
X64382Y5547D02*
X74618D01*
X64382D02*
Y11453D01*
X74618Y5547D02*
Y11453D01*
X78078Y13531D02*
Y17468D01*
X87921D01*
X78078Y13531D02*
X87921D01*
Y17468D01*
X39335Y73669D02*
X43665D01*
X39335Y82331D02*
X43665D01*
X39335Y73669D02*
Y82331D01*
X43665Y73669D02*
Y82331D01*
X36362Y85532D02*
Y94587D01*
X31638Y85532D02*
Y94587D01*
X36362D01*
X31638Y85532D02*
X36362D01*
X38134Y71661D02*
Y85047D01*
X29866Y71661D02*
Y85047D01*
X38134D01*
X29866Y71661D02*
X38134D01*
X31335Y119831D02*
X35665D01*
X31335Y111169D02*
X35665D01*
Y119831D01*
X31335Y111169D02*
Y119831D01*
X38638Y98532D02*
Y107587D01*
X43362Y98532D02*
Y107587D01*
X38638Y98532D02*
X43362D01*
X38638Y107587D02*
X43362D01*
X36866Y108807D02*
Y122193D01*
X45134Y108807D02*
Y122193D01*
X36866Y108807D02*
X45134D01*
X36866Y122193D02*
X45134D01*
X239835Y51669D02*
X244165D01*
X239835Y60331D02*
X244165D01*
X239835Y51669D02*
Y60331D01*
X244165Y51669D02*
Y60331D01*
X237362Y62972D02*
Y72027D01*
X232638Y62972D02*
Y72027D01*
X237362D01*
X232638Y62972D02*
X237362D01*
X239134Y49307D02*
Y62693D01*
X230866Y49307D02*
Y62693D01*
X239134D01*
X230866Y49307D02*
X239134D01*
X131858Y106142D02*
X151542D01*
Y86458D02*
Y106142D01*
X131858Y86458D02*
X151542D01*
X131858D02*
Y106142D01*
X129463Y107457D02*
Y120449D01*
X137337Y107457D02*
Y120449D01*
X129463Y107457D02*
X137337D01*
X129463Y120449D02*
X137337D01*
X137863Y107404D02*
Y120396D01*
X145737Y107404D02*
Y120396D01*
X137863Y107404D02*
X145737D01*
X137863Y120396D02*
X145737D01*
X152257Y94337D02*
X165249D01*
X152257Y86463D02*
X165249D01*
X152257D02*
Y94337D01*
X165249Y86463D02*
Y94337D01*
X130863Y72151D02*
Y85143D01*
X138737Y72151D02*
Y85143D01*
X130863Y72151D02*
X138737D01*
X130863Y85143D02*
X138737D01*
X147237Y72151D02*
Y85143D01*
X139363Y72151D02*
Y85143D01*
X147237D01*
X139363Y72151D02*
X147237D01*
X82173Y51262D02*
X91228D01*
X82173Y46538D02*
X91228D01*
X82173D02*
Y51262D01*
X91228Y46538D02*
Y51262D01*
X144862Y257472D02*
Y266528D01*
X140138Y257472D02*
Y266528D01*
X144862D01*
X140138Y257472D02*
X144862D01*
X154862D02*
Y266528D01*
X150138Y257472D02*
Y266528D01*
X154862D01*
X150138Y257472D02*
X154862D01*
X164862D02*
Y266528D01*
X160138Y257472D02*
Y266528D01*
X164862D01*
X160138Y257472D02*
X164862D01*
X174862D02*
Y266528D01*
X170138Y257472D02*
Y266528D01*
X174862D01*
X170138Y257472D02*
X174862D01*
X104862D02*
Y266528D01*
X100138Y257472D02*
Y266528D01*
X104862D01*
X100138Y257472D02*
X104862D01*
X114862D02*
Y266528D01*
X110138Y257472D02*
Y266528D01*
X114862D01*
X110138Y257472D02*
X114862D01*
X124862D02*
Y266528D01*
X120138Y257472D02*
Y266528D01*
X124862D01*
X120138Y257472D02*
X124862D01*
X134862D02*
Y266528D01*
X130138Y257472D02*
Y266528D01*
X134862D01*
X130138Y257472D02*
X134862D01*
X232628Y255720D02*
Y295680D01*
X267568D01*
X273572Y289676D01*
Y261724D02*
Y289676D01*
X267568Y255720D02*
X273572Y261724D01*
X232628Y255720D02*
X267568D01*
X150504Y309737D02*
X163496D01*
X150504Y301863D02*
X163496D01*
X150504D02*
Y309737D01*
X163496Y301863D02*
Y309737D01*
X146866Y546693D02*
X155134D01*
X146866Y533307D02*
X155134D01*
Y546693D01*
X146866Y533307D02*
Y546693D01*
X143921Y538031D02*
Y541968D01*
X134078Y538031D02*
X143921D01*
X134078Y541968D02*
X143921D01*
X134078Y538031D02*
Y541968D01*
X134079Y543032D02*
Y546969D01*
X143922D01*
X134079Y543032D02*
X143922D01*
Y546969D01*
X184866Y546693D02*
X193134D01*
X184866Y533307D02*
X193134D01*
Y546693D01*
X184866Y533307D02*
Y546693D01*
X181921Y538031D02*
Y541968D01*
X172078Y538031D02*
X181921D01*
X172078Y541968D02*
X181921D01*
X172078Y538031D02*
Y541968D01*
X172079Y543032D02*
Y546969D01*
X181922D01*
X172079Y543032D02*
X181922D01*
Y546969D01*
X101866Y546693D02*
X110134D01*
X101866Y533307D02*
X110134D01*
Y546693D01*
X101866Y533307D02*
Y546693D01*
X99421Y538031D02*
Y541968D01*
X89578Y538031D02*
X99421D01*
X89578Y541968D02*
X99421D01*
X89578Y538031D02*
Y541968D01*
X89579Y543032D02*
Y546969D01*
X99422D01*
X89579Y543032D02*
X99422D01*
Y546969D01*
X158566Y325293D02*
X166834D01*
X158566Y311907D02*
X166834D01*
Y325293D01*
X158566Y311907D02*
Y325293D01*
X132966Y298007D02*
X141234D01*
X132966Y311393D02*
X141234D01*
X132966Y298007D02*
Y311393D01*
X141234Y298007D02*
Y311393D01*
X141663Y298404D02*
Y311396D01*
X149537Y298404D02*
Y311396D01*
X141663Y298404D02*
X149537D01*
X141663Y311396D02*
X149537D01*
X140937Y311904D02*
Y324896D01*
X133063Y311904D02*
Y324896D01*
X140937D01*
X133063Y311904D02*
X140937D01*
X149437D02*
Y324896D01*
X141563Y311904D02*
Y324896D01*
X149437D01*
X141563Y311904D02*
X149437D01*
X157937D02*
Y324896D01*
X150063Y311904D02*
Y324896D01*
X157937D01*
X150063Y311904D02*
X157937D01*
X107066Y325049D02*
X115334D01*
X107066Y311663D02*
X115334D01*
Y325049D01*
X107066Y311663D02*
Y325049D01*
X123937Y311904D02*
Y324896D01*
X116063Y311904D02*
Y324896D01*
X123937D01*
X116063Y311904D02*
X123937D01*
X124563Y298404D02*
Y311396D01*
X132437Y298404D02*
Y311396D01*
X124563Y298404D02*
X132437D01*
X124563Y311396D02*
X132437D01*
X132437Y311904D02*
Y324896D01*
X124563Y311904D02*
Y324896D01*
X132437D01*
X124563Y311904D02*
X132437D01*
X53232Y389378D02*
X57169D01*
X53232D02*
Y399221D01*
X57169Y389378D02*
Y399221D01*
X53232D02*
X57169D01*
X59282Y399353D02*
X69518D01*
X59282Y393447D02*
X69518D01*
X59282D02*
Y399353D01*
X69518Y393447D02*
Y399353D01*
X38604Y399837D02*
X51596D01*
X38604Y391963D02*
X51596D01*
X38604D02*
Y399837D01*
X51596Y391963D02*
Y399837D01*
X209231Y540332D02*
Y544269D01*
X219074D01*
X209231Y540332D02*
X219074D01*
Y544269D01*
X48416Y545150D02*
X75384D01*
X48416Y588850D02*
X75384D01*
X48416Y545150D02*
Y588850D01*
X75384Y545150D02*
Y588850D01*
X206937Y545004D02*
Y557996D01*
X199063Y545004D02*
Y557996D01*
X206937D01*
X199063Y545004D02*
X206937D01*
X49578Y539531D02*
Y543468D01*
X59421D01*
X49578Y539531D02*
X59421D01*
Y543468D01*
X60882Y544453D02*
X71118D01*
X60882Y538547D02*
X71118D01*
X60882D02*
Y544453D01*
X71118Y538547D02*
Y544453D01*
X47937Y545004D02*
Y557996D01*
X40063Y545004D02*
Y557996D01*
X47937D01*
X40063Y545004D02*
X47937D01*
X188304Y437337D02*
X201296D01*
X188304Y429463D02*
X201296D01*
X188304D02*
Y437337D01*
X201296Y429463D02*
Y437337D01*
X196866Y451237D02*
X205134D01*
X196866Y437851D02*
X205134D01*
Y451237D01*
X196866Y437851D02*
Y451237D01*
X170666Y424007D02*
X178934D01*
X170666Y437393D02*
X178934D01*
X170666Y424007D02*
Y437393D01*
X178934Y424007D02*
Y437393D01*
X145366Y450949D02*
X153634D01*
X145366Y437563D02*
X153634D01*
Y450949D01*
X145366Y437563D02*
Y450949D01*
X162363Y424357D02*
Y437349D01*
X170237Y424357D02*
Y437349D01*
X162363Y424357D02*
X170237D01*
X162363Y437349D02*
X170237D01*
X179563Y424351D02*
Y437343D01*
X187437Y424351D02*
Y437343D01*
X179563Y424351D02*
X187437D01*
X179563Y437343D02*
X187437D01*
X195537Y437904D02*
Y450896D01*
X187663Y437904D02*
Y450896D01*
X195537D01*
X187663Y437904D02*
X195537D01*
X187137D02*
Y450896D01*
X179263Y437904D02*
Y450896D01*
X187137D01*
X179263Y437904D02*
X187137D01*
X178637Y437957D02*
Y450949D01*
X170763Y437957D02*
Y450949D01*
X178637D01*
X170763Y437957D02*
X178637D01*
X170437Y438004D02*
Y450996D01*
X162563Y438004D02*
Y450996D01*
X170437D01*
X162563Y438004D02*
X170437D01*
X162037D02*
Y450996D01*
X154163Y438004D02*
Y450996D01*
X162037D01*
X154163Y438004D02*
X162037D01*
X109963Y424004D02*
Y436996D01*
X117837Y424004D02*
Y436996D01*
X109963Y424004D02*
X117837D01*
X109963Y436996D02*
X117837D01*
X126666Y450693D02*
X134934D01*
X126666Y437307D02*
X134934D01*
Y450693D01*
X126666Y437307D02*
Y450693D01*
X75366Y450793D02*
X83634D01*
X75366Y437407D02*
X83634D01*
Y450793D01*
X75366Y437407D02*
Y450793D01*
X101066Y423107D02*
X109334D01*
X101066Y436493D02*
X109334D01*
X101066Y423107D02*
Y436493D01*
X109334Y423107D02*
Y436493D01*
X118504Y436437D02*
X131496D01*
X118504Y428563D02*
X131496D01*
X118504D02*
Y436437D01*
X131496Y428563D02*
Y436437D01*
X92763Y423757D02*
Y436749D01*
X100637Y423757D02*
Y436749D01*
X92763Y423757D02*
X100637D01*
X92763Y436749D02*
X100637D01*
X126037Y437704D02*
Y450696D01*
X118163Y437704D02*
Y450696D01*
X126037D01*
X118163Y437704D02*
X126037D01*
X117637D02*
Y450696D01*
X109763Y437704D02*
Y450696D01*
X117637D01*
X109763Y437704D02*
X117637D01*
X109137D02*
Y450696D01*
X101263Y437704D02*
Y450696D01*
X109137D01*
X101263Y437704D02*
X109137D01*
X208116Y545150D02*
X235084D01*
X208116Y588850D02*
X235084D01*
X208116Y545150D02*
Y588850D01*
X235084Y545150D02*
Y588850D01*
X43072Y486520D02*
Y526480D01*
X8132Y486520D02*
X43072D01*
X2128Y492524D02*
X8132Y486520D01*
X2128Y492524D02*
Y520476D01*
X8132Y526480D01*
X43072D01*
Y446520D02*
Y486480D01*
X8132Y446520D02*
X43072D01*
X2128Y452524D02*
X8132Y446520D01*
X2128Y452524D02*
Y480476D01*
X8132Y486480D01*
X43072D01*
X130169Y247606D02*
X138831D01*
X130169Y243276D02*
X138831D01*
X130169D02*
Y247606D01*
X138831Y243276D02*
Y247606D01*
X120169D02*
X128831D01*
X120169Y243276D02*
X128831D01*
X120169D02*
Y247606D01*
X128831Y243276D02*
Y247606D01*
X110169Y247724D02*
X118831D01*
X110169Y243394D02*
X118831D01*
X110169D02*
Y247724D01*
X118831Y243394D02*
Y247724D01*
X100169D02*
X108831D01*
X100169Y243394D02*
X108831D01*
X100169D02*
Y247724D01*
X108831Y243394D02*
Y247724D01*
X170169Y247606D02*
X178831D01*
X170169Y243276D02*
X178831D01*
X170169D02*
Y247606D01*
X178831Y243276D02*
Y247606D01*
X160169Y247724D02*
X168831D01*
X160169Y243394D02*
X168831D01*
X160169D02*
Y247724D01*
X168831Y243394D02*
Y247724D01*
X150130Y247665D02*
X158791D01*
X150130Y243335D02*
X158791D01*
X150130D02*
Y247665D01*
X158791Y243335D02*
Y247665D01*
X140169Y247606D02*
X148831D01*
X140169Y243276D02*
X148831D01*
X140169D02*
Y247606D01*
X148831Y243276D02*
Y247606D01*
X174862Y247854D02*
Y256909D01*
X170138Y247854D02*
Y256909D01*
X174862D01*
X170138Y247854D02*
X174862D01*
X100637Y437751D02*
Y450743D01*
X92763Y437751D02*
Y450743D01*
X100637D01*
X92763Y437751D02*
X100637D01*
X92137Y437704D02*
Y450696D01*
X84263Y437704D02*
Y450696D01*
X92137D01*
X84263Y437704D02*
X92137D01*
X241335Y214366D02*
Y222634D01*
X245665Y214366D02*
Y222634D01*
X241335Y214366D02*
X245665D01*
X241335Y222634D02*
X245665D01*
X245665Y205166D02*
Y213434D01*
X241335Y205166D02*
Y213434D01*
X245665D01*
X241335Y205166D02*
X245665D01*
X95451Y49163D02*
X108443D01*
X95451Y57037D02*
X108443D01*
Y49163D02*
Y57037D01*
X95451Y49163D02*
Y57037D01*
X94672Y57438D02*
X103727D01*
X94672Y62162D02*
X103727D01*
Y57438D02*
Y62162D01*
X94672Y57438D02*
Y62162D01*
X64504Y51963D02*
X77496D01*
X64504Y59837D02*
X77496D01*
Y51963D02*
Y59837D01*
X64504Y51963D02*
Y59837D01*
X185063Y78504D02*
Y91496D01*
X192937Y78504D02*
Y91496D01*
X185063Y78504D02*
X192937D01*
X185063Y91496D02*
X192937D01*
X202366Y77807D02*
X210634D01*
X202366Y91193D02*
X210634D01*
X202366Y77807D02*
Y91193D01*
X210634Y77807D02*
Y91193D01*
X193366D02*
X201634D01*
X193366Y77807D02*
X201634D01*
Y91193D01*
X193366Y77807D02*
Y91193D01*
X204763Y92557D02*
Y105549D01*
X212637Y92557D02*
Y105549D01*
X204763Y92557D02*
X212637D01*
X204763Y105549D02*
X212637D01*
X188463Y106504D02*
Y119496D01*
X196337Y106504D02*
Y119496D01*
X188463Y106504D02*
X196337D01*
X188463Y119496D02*
X196337D01*
X196563Y106504D02*
Y119496D01*
X204437Y106504D02*
Y119496D01*
X196563Y106504D02*
X204437D01*
X196563Y119496D02*
X204437D01*
X232628Y446520D02*
Y486480D01*
X267568D01*
X273572Y480476D01*
Y452524D02*
Y480476D01*
X267568Y446520D02*
X273572Y452524D01*
X232628Y446520D02*
X267568D01*
X232628Y486520D02*
Y526480D01*
X267568D01*
X273572Y520476D01*
Y492524D02*
Y520476D01*
X267568Y486520D02*
X273572Y492524D01*
X232628Y486520D02*
X267568D01*
X78214Y547458D02*
X118175D01*
X78214D02*
Y582398D01*
X84218Y588402D01*
X112171D01*
X118175Y582398D01*
Y547458D02*
Y582398D01*
X158220Y547450D02*
X198180D01*
X158220D02*
Y582390D01*
X164224Y588394D01*
X192176D01*
X198180Y582390D01*
Y547450D02*
Y582390D01*
X164862Y248031D02*
Y257087D01*
X160138Y248031D02*
Y257087D01*
X164862D01*
X160138Y248031D02*
X164862D01*
X232628Y295720D02*
Y335680D01*
X267568D01*
X273572Y329676D01*
Y301724D02*
Y329676D01*
X267568Y295720D02*
X273572Y301724D01*
X232628Y295720D02*
X267568D01*
X232628Y406420D02*
Y446380D01*
X267568D01*
X273572Y440376D01*
Y412424D02*
Y440376D01*
X267568Y406420D02*
X273572Y412424D01*
X232628Y406420D02*
X267568D01*
X43072Y339620D02*
Y379580D01*
X8132Y339620D02*
X43072D01*
X2128Y345624D02*
X8132Y339620D01*
X2128Y345624D02*
Y373576D01*
X8132Y379580D01*
X43072D01*
Y299620D02*
Y339580D01*
X8132Y299620D02*
X43072D01*
X2128Y305624D02*
X8132Y299620D01*
X2128Y305624D02*
Y333576D01*
X8132Y339580D01*
X43072D01*
Y259620D02*
Y299580D01*
X8132Y259620D02*
X43072D01*
X2128Y265624D02*
X8132Y259620D01*
X2128Y265624D02*
Y293576D01*
X8132Y299580D01*
X43072D01*
Y406420D02*
Y446380D01*
X8132Y406420D02*
X43072D01*
X2128Y412424D02*
X8132Y406420D01*
X2128Y412424D02*
Y440376D01*
X8132Y446380D01*
X43072D01*
X118220Y547450D02*
X158180D01*
X118220D02*
Y582390D01*
X124224Y588394D01*
X152176D01*
X158180Y582390D01*
Y547450D02*
Y582390D01*
X232628Y335720D02*
Y375680D01*
X267568D01*
X273572Y369676D01*
Y341724D02*
Y369676D01*
X267568Y335720D02*
X273572Y341724D01*
X232628Y335720D02*
X267568D01*
X100138Y248031D02*
X104862D01*
X100138Y257087D02*
X104862D01*
X100138Y248031D02*
Y257087D01*
X104862Y248031D02*
Y257087D01*
X110138Y248031D02*
X114862D01*
X110138Y257087D02*
X114862D01*
X110138Y248031D02*
Y257087D01*
X114862Y248031D02*
Y257087D01*
X134862Y247913D02*
Y256968D01*
X130138Y247913D02*
Y256968D01*
X134862D01*
X130138Y247913D02*
X134862D01*
X124862Y247972D02*
Y257028D01*
X120138Y247972D02*
Y257028D01*
X124862D01*
X120138Y247972D02*
X124862D01*
X154823Y247972D02*
Y257028D01*
X150098Y247972D02*
Y257028D01*
X154823D01*
X150098Y247972D02*
X154823D01*
X113725Y234825D02*
X166875D01*
X113725Y187975D02*
Y234825D01*
Y187975D02*
X166875D01*
Y234825D01*
X144862Y247913D02*
Y256968D01*
X140138Y247913D02*
Y256968D01*
X144862D01*
X140138Y247913D02*
X144862D01*
X103563Y171504D02*
Y184496D01*
X111437Y171504D02*
Y184496D01*
X103563Y171504D02*
X111437D01*
X103563Y184496D02*
X111437D01*
X111963Y171557D02*
Y184549D01*
X119837Y171557D02*
Y184549D01*
X111963Y171557D02*
X119837D01*
X111963Y184549D02*
X119837D01*
X120463Y171557D02*
Y184549D01*
X128337Y171557D02*
Y184549D01*
X120463Y171557D02*
X128337D01*
X120463Y184549D02*
X128337D01*
X128963Y171651D02*
Y184643D01*
X136837Y171651D02*
Y184643D01*
X128963Y171651D02*
X136837D01*
X128963Y184643D02*
X136837D01*
X137463Y171604D02*
Y184596D01*
X145337Y171604D02*
Y184596D01*
X137463Y171604D02*
X145337D01*
X137463Y184596D02*
X145337D01*
X145963Y171604D02*
Y184596D01*
X153837Y171604D02*
Y184596D01*
X145963Y171604D02*
X153837D01*
X145963Y184596D02*
X153837D01*
X154463Y171604D02*
Y184596D01*
X162337Y171604D02*
Y184596D01*
X154463Y171604D02*
X162337D01*
X154463Y184596D02*
X162337D01*
X162963Y171651D02*
Y184643D01*
X170837Y171651D02*
Y184643D01*
X162963Y171651D02*
X170837D01*
X162963Y184643D02*
X170837D01*
X69047Y99382D02*
Y109618D01*
X74953Y99382D02*
Y109618D01*
X69047Y99382D02*
X74953D01*
X69047Y109618D02*
X74953D01*
X91047Y132882D02*
Y143118D01*
X96953Y132882D02*
Y143118D01*
X91047Y132882D02*
X96953D01*
X91047Y143118D02*
X96953D01*
X80047Y132882D02*
Y143118D01*
X85953Y132882D02*
Y143118D01*
X80047Y132882D02*
X85953D01*
X80047Y143118D02*
X85953D01*
X58047Y132882D02*
Y143118D01*
X63953Y132882D02*
Y143118D01*
X58047Y132882D02*
X63953D01*
X58047Y143118D02*
X63953D01*
X69047Y132882D02*
Y143118D01*
X74953Y132882D02*
Y143118D01*
X69047Y132882D02*
X74953D01*
X69047Y143118D02*
X74953D01*
X56673Y132311D02*
X109941D01*
Y110539D02*
Y132311D01*
X56673Y110539D02*
X109941D01*
X56673D02*
Y132311D01*
X6811Y42402D02*
Y234370D01*
Y42402D02*
X28780D01*
Y234370D01*
X6811D02*
X28780D01*
X246811Y42402D02*
Y234370D01*
Y42402D02*
X268779D01*
Y234370D01*
X246811D02*
X268779D01*
M02*
