G04*
G04 #@! TF.GenerationSoftware,Altium Limited,Altium Designer,23.7.1 (13)*
G04*
G04 Layer_Color=0*
%FSLAX25Y25*%
%MOIN*%
G70*
G04*
G04 #@! TF.SameCoordinates,971C37BE-97D5-4A50-9DA2-DA4AE9E2F4D9*
G04*
G04*
G04 #@! TF.FilePolarity,Positive*
G04*
G01*
G75*
%ADD70C,0.00394*%
D70*
X63500Y313531D02*
Y317469D01*
X61532Y315500D02*
X65469D01*
X94500Y288276D02*
Y292213D01*
X92532Y290244D02*
X96469D01*
X169000Y303731D02*
Y307668D01*
X167032Y305700D02*
X170968D01*
X176532Y367500D02*
X180468D01*
X178500Y365531D02*
Y369468D01*
X64531Y499500D02*
X68468D01*
X66500Y497532D02*
Y501469D01*
X215531Y461500D02*
X219468D01*
X217500Y459531D02*
Y463469D01*
X176532Y343307D02*
X180468D01*
X178500Y341339D02*
Y345276D01*
X215531Y480000D02*
X219468D01*
X217500Y478031D02*
Y481968D01*
X64531Y480500D02*
X68468D01*
X66500Y478532D02*
Y482469D01*
X156532Y98400D02*
X160468D01*
X158500Y96431D02*
Y100368D01*
X151500Y76631D02*
Y80568D01*
X149531Y78600D02*
X153469D01*
X149700Y111132D02*
Y115068D01*
X147731Y113100D02*
X151669D01*
X205331Y433300D02*
X209268D01*
X207300Y431331D02*
Y435268D01*
X135331Y432500D02*
X139269D01*
X137300Y430532D02*
Y434469D01*
X50700Y452032D02*
Y455969D01*
X48731Y454000D02*
X52668D01*
X84013Y59540D02*
X87950D01*
X85982Y57572D02*
Y61509D01*
X98500Y66831D02*
Y70768D01*
X96531Y68800D02*
X100469D01*
X69032Y63800D02*
X72969D01*
X71000Y61831D02*
Y65768D01*
X196400Y96931D02*
Y100868D01*
X194431Y98900D02*
X198369D01*
X170800Y195431D02*
Y199369D01*
X168832Y197400D02*
X172768D01*
X52000Y114532D02*
Y118468D01*
X50032Y116500D02*
X53969D01*
M02*
