G04*
G04 #@! TF.GenerationSoftware,Altium Limited,Altium Designer,23.7.1 (13)*
G04*
G04 Layer_Color=128*
%FSLAX25Y25*%
%MOIN*%
G70*
G04*
G04 #@! TF.SameCoordinates,971C37BE-97D5-4A50-9DA2-DA4AE9E2F4D9*
G04*
G04*
G04 #@! TF.FilePolarity,Positive*
G04*
G01*
G75*
%ADD72C,0.00200*%
D72*
X194057Y395614D02*
X206557D01*
X200307Y389364D02*
Y401864D01*
X84013Y362000D02*
X87557D01*
X85785Y360228D02*
Y363772D01*
X74171Y362000D02*
X77714D01*
X75942Y360228D02*
Y363772D01*
X64328Y362000D02*
X67872D01*
X66100Y360228D02*
Y363772D01*
X248474Y275700D02*
X260482D01*
X254478Y269696D02*
Y281704D01*
X235364Y269795D02*
X239576D01*
X237470Y267688D02*
Y271901D01*
X235364Y281606D02*
X239576D01*
X237470Y279499D02*
Y283712D01*
X15218Y506500D02*
X27226D01*
X21222Y500496D02*
Y512504D01*
X36124Y512405D02*
X40336D01*
X38230Y510299D02*
Y514512D01*
X36124Y500595D02*
X40336D01*
X38230Y498488D02*
Y502701D01*
X15218Y466500D02*
X27226D01*
X21222Y460496D02*
Y472504D01*
X36124Y472405D02*
X40336D01*
X38230Y470299D02*
Y474512D01*
X36124Y460595D02*
X40336D01*
X38230Y458488D02*
Y462701D01*
X248474Y466500D02*
X260482D01*
X254478Y460496D02*
Y472504D01*
X235364Y460595D02*
X239576D01*
X237470Y458488D02*
Y462701D01*
X235364Y472405D02*
X239576D01*
X237470Y470299D02*
Y474512D01*
X248474Y506500D02*
X260482D01*
X254478Y500496D02*
Y512504D01*
X235364Y500595D02*
X239576D01*
X237470Y498488D02*
Y502701D01*
X235364Y512405D02*
X239576D01*
X237470Y510299D02*
Y514512D01*
X92191Y569308D02*
X104198D01*
X98194Y563304D02*
Y575312D01*
X101994Y552300D02*
X106206D01*
X104100Y550194D02*
Y554406D01*
X90183Y552300D02*
X94395D01*
X92289Y550194D02*
Y554406D01*
X172196Y569300D02*
X184204D01*
X178200Y563296D02*
Y575304D01*
X181999Y552292D02*
X186212D01*
X184106Y550186D02*
Y554398D01*
X170188Y552292D02*
X174401D01*
X172294Y550186D02*
Y554398D01*
X248474Y315700D02*
X260482D01*
X254478Y309696D02*
Y321704D01*
X235364Y309794D02*
X239576D01*
X237470Y307688D02*
Y311901D01*
X235364Y321605D02*
X239576D01*
X237470Y319499D02*
Y323712D01*
X248474Y426400D02*
X260482D01*
X254478Y420396D02*
Y432404D01*
X235364Y420495D02*
X239576D01*
X237470Y418388D02*
Y422601D01*
X235364Y432305D02*
X239576D01*
X237470Y430199D02*
Y434412D01*
X15218Y359600D02*
X27226D01*
X21222Y353596D02*
Y365604D01*
X36124Y365506D02*
X40336D01*
X38230Y363399D02*
Y367612D01*
X36124Y353695D02*
X40336D01*
X38230Y351588D02*
Y355801D01*
X15218Y319600D02*
X27226D01*
X21222Y313596D02*
Y325604D01*
X36124Y325505D02*
X40336D01*
X38230Y323399D02*
Y327612D01*
X36124Y313695D02*
X40336D01*
X38230Y311588D02*
Y315801D01*
X15218Y279600D02*
X27226D01*
X21222Y273596D02*
Y285604D01*
X36124Y285506D02*
X40336D01*
X38230Y283399D02*
Y287612D01*
X36124Y273694D02*
X40336D01*
X38230Y271588D02*
Y275801D01*
X15218Y426400D02*
X27226D01*
X21222Y420396D02*
Y432404D01*
X36124Y432305D02*
X40336D01*
X38230Y430199D02*
Y434412D01*
X36124Y420495D02*
X40336D01*
X38230Y418388D02*
Y422601D01*
X132196Y569300D02*
X144204D01*
X138200Y563296D02*
Y575304D01*
X141999Y552292D02*
X146212D01*
X144106Y550186D02*
Y554398D01*
X130188Y552292D02*
X134401D01*
X132294Y550186D02*
Y554398D01*
X248474Y355700D02*
X260482D01*
X254478Y349696D02*
Y361704D01*
X235364Y349795D02*
X239576D01*
X237470Y347688D02*
Y351901D01*
X235364Y361606D02*
X239576D01*
X237470Y359499D02*
Y363712D01*
X13435Y393701D02*
X25935D01*
X19685Y387451D02*
Y399951D01*
X249656Y393701D02*
X262156D01*
X255906Y387451D02*
Y399951D01*
X61299Y126425D02*
X65315D01*
X63307Y124417D02*
Y128433D01*
X71299Y126425D02*
X75315D01*
X73307Y124417D02*
Y128433D01*
X81299Y126425D02*
X85315D01*
X83307Y124417D02*
Y128433D01*
X91299Y126425D02*
X95315D01*
X93307Y124417D02*
Y128433D01*
X101299Y126425D02*
X105315D01*
X103307Y124417D02*
Y128433D01*
X61299Y116425D02*
X65315D01*
X63307Y114417D02*
Y118433D01*
X71299Y116425D02*
X75315D01*
X73307Y114417D02*
Y118433D01*
X81299Y116425D02*
X85315D01*
X83307Y114417D02*
Y118433D01*
X91299Y116425D02*
X95315D01*
X93307Y114417D02*
Y118433D01*
X101299Y116425D02*
X105315D01*
X103307Y114417D02*
Y118433D01*
X11024Y228386D02*
X14567D01*
X12795Y226614D02*
Y230157D01*
X21024Y228386D02*
X24567D01*
X22795Y226614D02*
Y230157D01*
X11024Y218386D02*
X14567D01*
X12795Y216614D02*
Y220158D01*
X21024Y218386D02*
X24567D01*
X22795Y216614D02*
Y220158D01*
X11024Y208386D02*
X14567D01*
X12795Y206614D02*
Y210157D01*
X21024Y208386D02*
X24567D01*
X22795Y206614D02*
Y210157D01*
X11024Y198386D02*
X14567D01*
X12795Y196614D02*
Y200157D01*
X21024Y198386D02*
X24567D01*
X22795Y196614D02*
Y200157D01*
X11024Y188386D02*
X14567D01*
X12795Y186614D02*
Y190157D01*
X21024Y188386D02*
X24567D01*
X22795Y186614D02*
Y190157D01*
X11024Y178386D02*
X14567D01*
X12795Y176614D02*
Y180157D01*
X21024Y178386D02*
X24567D01*
X22795Y176614D02*
Y180157D01*
X11024Y168386D02*
X14567D01*
X12795Y166614D02*
Y170158D01*
X21024Y168386D02*
X24567D01*
X22795Y166614D02*
Y170158D01*
X11024Y158386D02*
X14567D01*
X12795Y156614D02*
Y160158D01*
X21024Y158386D02*
X24567D01*
X22795Y156614D02*
Y160158D01*
X11024Y148386D02*
X14567D01*
X12795Y146614D02*
Y150157D01*
X21024Y148386D02*
X24567D01*
X22795Y146614D02*
Y150157D01*
X11024Y138386D02*
X14567D01*
X12795Y136614D02*
Y140157D01*
X21024Y138386D02*
X24567D01*
X22795Y136614D02*
Y140157D01*
X11024Y128386D02*
X14567D01*
X12795Y126614D02*
Y130157D01*
X21024Y128386D02*
X24567D01*
X22795Y126614D02*
Y130157D01*
X11024Y118386D02*
X14567D01*
X12795Y116614D02*
Y120158D01*
X21024Y118386D02*
X24567D01*
X22795Y116614D02*
Y120158D01*
X11024Y108386D02*
X14567D01*
X12795Y106614D02*
Y110158D01*
X21024Y108386D02*
X24567D01*
X22795Y106614D02*
Y110158D01*
X11024Y98386D02*
X14567D01*
X12795Y96614D02*
Y100157D01*
X21024Y98386D02*
X24567D01*
X22795Y96614D02*
Y100157D01*
X11024Y88386D02*
X14567D01*
X12795Y86614D02*
Y90158D01*
X21024Y88386D02*
X24567D01*
X22795Y86614D02*
Y90158D01*
X11024Y78386D02*
X14567D01*
X12795Y76614D02*
Y80158D01*
X21024Y78386D02*
X24567D01*
X22795Y76614D02*
Y80158D01*
X11024Y68386D02*
X14567D01*
X12795Y66614D02*
Y70157D01*
X21024Y68386D02*
X24567D01*
X22795Y66614D02*
Y70157D01*
X11024Y58386D02*
X14567D01*
X12795Y56614D02*
Y60158D01*
X21024Y58386D02*
X24567D01*
X22795Y56614D02*
Y60158D01*
X11024Y48386D02*
X14567D01*
X12795Y46614D02*
Y50157D01*
X21024Y48386D02*
X24567D01*
X22795Y46614D02*
Y50157D01*
X251024Y228386D02*
X254567D01*
X252795Y226614D02*
Y230157D01*
X261024Y228386D02*
X264567D01*
X262795Y226614D02*
Y230157D01*
X251024Y218386D02*
X254567D01*
X252795Y216614D02*
Y220158D01*
X261024Y218386D02*
X264567D01*
X262795Y216614D02*
Y220158D01*
X251024Y208386D02*
X254567D01*
X252795Y206614D02*
Y210157D01*
X261024Y208386D02*
X264567D01*
X262795Y206614D02*
Y210157D01*
X251024Y198386D02*
X254567D01*
X252795Y196614D02*
Y200157D01*
X261024Y198386D02*
X264567D01*
X262795Y196614D02*
Y200157D01*
X251024Y188386D02*
X254567D01*
X252795Y186614D02*
Y190157D01*
X261024Y188386D02*
X264567D01*
X262795Y186614D02*
Y190157D01*
X251024Y178386D02*
X254567D01*
X252795Y176614D02*
Y180157D01*
X261024Y178386D02*
X264567D01*
X262795Y176614D02*
Y180157D01*
X251024Y168386D02*
X254567D01*
X252795Y166614D02*
Y170158D01*
X261024Y168386D02*
X264567D01*
X262795Y166614D02*
Y170158D01*
X251024Y158386D02*
X254567D01*
X252795Y156614D02*
Y160158D01*
X261024Y158386D02*
X264567D01*
X262795Y156614D02*
Y160158D01*
X251024Y148386D02*
X254567D01*
X252795Y146614D02*
Y150157D01*
X261024Y148386D02*
X264567D01*
X262795Y146614D02*
Y150157D01*
X251024Y138386D02*
X254567D01*
X252795Y136614D02*
Y140157D01*
X261024Y138386D02*
X264567D01*
X262795Y136614D02*
Y140157D01*
X251024Y128386D02*
X254567D01*
X252795Y126614D02*
Y130157D01*
X261024Y128386D02*
X264567D01*
X262795Y126614D02*
Y130157D01*
X251024Y118386D02*
X254567D01*
X252795Y116614D02*
Y120158D01*
X261024Y118386D02*
X264567D01*
X262795Y116614D02*
Y120158D01*
X251024Y108386D02*
X254567D01*
X252795Y106614D02*
Y110158D01*
X261024Y108386D02*
X264567D01*
X262795Y106614D02*
Y110158D01*
X251024Y98386D02*
X254567D01*
X252795Y96614D02*
Y100157D01*
X261024Y98386D02*
X264567D01*
X262795Y96614D02*
Y100157D01*
X251024Y88386D02*
X254567D01*
X252795Y86614D02*
Y90158D01*
X261024Y88386D02*
X264567D01*
X262795Y86614D02*
Y90158D01*
X251024Y78386D02*
X254567D01*
X252795Y76614D02*
Y80158D01*
X261024Y78386D02*
X264567D01*
X262795Y76614D02*
Y80158D01*
X251024Y68386D02*
X254567D01*
X252795Y66614D02*
Y70157D01*
X261024Y68386D02*
X264567D01*
X262795Y66614D02*
Y70157D01*
X251024Y58386D02*
X254567D01*
X252795Y56614D02*
Y60158D01*
X261024Y58386D02*
X264567D01*
X262795Y56614D02*
Y60158D01*
X251024Y48386D02*
X254567D01*
X252795Y46614D02*
Y50157D01*
X261024Y48386D02*
X264567D01*
X262795Y46614D02*
Y50157D01*
X70557Y193425D02*
X83057D01*
X76807Y187175D02*
Y199675D01*
X226545Y238386D02*
X239045D01*
X232795Y232136D02*
Y244636D01*
X36545Y243386D02*
X49045D01*
X42795Y237136D02*
Y249636D01*
X166545Y38386D02*
X179045D01*
X172795Y32136D02*
Y44636D01*
X249656Y570866D02*
X262156D01*
X255906Y564616D02*
Y577116D01*
X13435Y570866D02*
X25935D01*
X19685Y564616D02*
Y577116D01*
X13435Y19685D02*
X25935D01*
X19685Y13435D02*
Y25935D01*
X249656Y19685D02*
X262156D01*
X255906Y13435D02*
Y25935D01*
X132516Y436500D02*
X134484D01*
X133500Y435516D02*
Y437484D01*
X134516Y447000D02*
X136484D01*
X135500Y446016D02*
Y447984D01*
X134516Y461000D02*
X136484D01*
X135500Y460016D02*
Y461984D01*
X138516Y494500D02*
X140484D01*
X139500Y493516D02*
Y495484D01*
X148516Y410000D02*
X150484D01*
X149500Y409016D02*
Y410984D01*
X150016Y395500D02*
X151984D01*
X151000Y394516D02*
Y396484D01*
X143516Y434500D02*
X145484D01*
X144500Y433516D02*
Y435484D01*
X94846Y164045D02*
X96815D01*
X95830Y163061D02*
Y165029D01*
X43016Y202000D02*
X44984D01*
X44000Y201016D02*
Y202984D01*
X46622Y391500D02*
X48591D01*
X47606Y390516D02*
Y392484D01*
X50639Y389106D02*
X52607D01*
X51623Y388122D02*
Y390090D01*
X99516Y137000D02*
X101484D01*
X100500Y136016D02*
Y137984D01*
X112516Y130500D02*
X114484D01*
X113500Y129516D02*
Y131484D01*
X75516Y94500D02*
X77484D01*
X76500Y93516D02*
Y95484D01*
X236516Y211000D02*
X238484D01*
X237500Y210016D02*
Y211984D01*
X236516Y215685D02*
X238484D01*
X237500Y214701D02*
Y216669D01*
X236516Y221000D02*
X238484D01*
X237500Y220016D02*
Y221984D01*
X188909Y521000D02*
X190878D01*
X189894Y520016D02*
Y521984D01*
X209327Y419653D02*
X211296D01*
X210312Y418669D02*
Y420637D01*
X218516Y415000D02*
X220484D01*
X219500Y414016D02*
Y415984D01*
X213516Y410000D02*
X215484D01*
X214500Y409016D02*
Y410984D01*
X257016Y243000D02*
X258984D01*
X258000Y242016D02*
Y243984D01*
X119323Y395500D02*
X121291D01*
X120307Y394516D02*
Y396484D01*
X127016Y395500D02*
X128984D01*
X128000Y394516D02*
Y396484D01*
X157016Y406500D02*
X158984D01*
X158000Y405516D02*
Y407484D01*
X157991Y395475D02*
X159959D01*
X158975Y394491D02*
Y396459D01*
X176597Y312282D02*
X178565D01*
X177581Y311298D02*
Y313267D01*
X174764Y307293D02*
X176733D01*
X175749Y306309D02*
Y308277D01*
X163811Y309227D02*
X165779D01*
X164795Y308243D02*
Y310211D01*
X168016Y316000D02*
X169984D01*
X169000Y315016D02*
Y316984D01*
X81016Y310000D02*
X82984D01*
X82000Y309016D02*
Y310984D01*
X75516Y308000D02*
X77484D01*
X76500Y307016D02*
Y308984D01*
X77516Y263000D02*
X79484D01*
X78500Y262016D02*
Y263984D01*
X93516Y247500D02*
X95484D01*
X94500Y246516D02*
Y248484D01*
X116516Y254500D02*
X118484D01*
X117500Y253516D02*
Y255484D01*
X116246Y249192D02*
X118215D01*
X117230Y248208D02*
Y250176D01*
X185605Y172589D02*
X187574D01*
X186589Y171605D02*
Y173574D01*
X184516Y167000D02*
X186484D01*
X185500Y166016D02*
Y167984D01*
X194516Y91500D02*
X196484D01*
X195500Y90516D02*
Y92484D01*
X154516Y104500D02*
X156484D01*
X155500Y103516D02*
Y105484D01*
X153516Y116000D02*
X155484D01*
X154500Y115016D02*
Y116984D01*
X180016Y223000D02*
X181984D01*
X181000Y222016D02*
Y223984D01*
X85016Y371500D02*
X86984D01*
X86000Y370516D02*
Y372484D01*
X92016Y330500D02*
X93984D01*
X93000Y329516D02*
Y331484D01*
X93516Y297500D02*
X95484D01*
X94500Y296516D02*
Y298484D01*
X69016Y296500D02*
X70984D01*
X70000Y295516D02*
Y297484D01*
X56516Y407500D02*
X58484D01*
X57500Y406516D02*
Y408484D01*
X11516Y437500D02*
X13484D01*
X12500Y436516D02*
Y438484D01*
X11516Y456000D02*
X13484D01*
X12500Y455016D02*
Y456984D01*
X125016Y412500D02*
X126984D01*
X126000Y411516D02*
Y413484D01*
X151516Y417000D02*
X153484D01*
X152500Y416016D02*
Y417984D01*
X211516Y300000D02*
X213484D01*
X212500Y299016D02*
Y300984D01*
X199016Y341000D02*
X200984D01*
X200000Y340016D02*
Y341984D01*
X235516Y162500D02*
X237484D01*
X236500Y161516D02*
Y163484D01*
X235516Y173500D02*
X237484D01*
X236500Y172516D02*
Y174484D01*
X235516Y184500D02*
X237484D01*
X236500Y183516D02*
Y185484D01*
X219516Y117500D02*
X221484D01*
X220500Y116516D02*
Y118484D01*
X219016Y58000D02*
X220984D01*
X220000Y57016D02*
Y58984D01*
X168516Y72500D02*
X170484D01*
X169500Y71516D02*
Y73484D01*
X145016Y18000D02*
X146984D01*
X146000Y17016D02*
Y18984D01*
X64016Y37000D02*
X65984D01*
X65000Y36016D02*
Y37984D01*
X67516Y86000D02*
X69484D01*
X68500Y85016D02*
Y86984D01*
X159516Y140500D02*
X161484D01*
X160500Y139516D02*
Y141484D01*
X49016Y153000D02*
X50984D01*
X50000Y152016D02*
Y153984D01*
X79507Y239388D02*
X81475D01*
X80491Y238404D02*
Y240372D01*
X33516Y382000D02*
X35484D01*
X34500Y381016D02*
Y382984D01*
X199016Y373500D02*
X200984D01*
X200000Y372516D02*
Y374484D01*
X253516Y370500D02*
X255484D01*
X254500Y369516D02*
Y371484D01*
X240016Y526000D02*
X241984D01*
X241000Y525016D02*
Y526984D01*
X217516Y509500D02*
X219484D01*
X218500Y508516D02*
Y510484D01*
X51516Y522500D02*
X53484D01*
X52500Y521516D02*
Y523484D01*
X95016Y222500D02*
X96984D01*
X96000Y221516D02*
Y223484D01*
X94016Y51500D02*
X95984D01*
X95000Y50516D02*
Y52484D01*
X120516Y85000D02*
X122484D01*
X121500Y84016D02*
Y85984D01*
X151516Y269000D02*
X153484D01*
X152500Y268016D02*
Y269984D01*
X129516Y148000D02*
X131484D01*
X130500Y147016D02*
Y148984D01*
X133016Y142000D02*
X134984D01*
X134000Y141016D02*
Y142984D01*
X161516Y160000D02*
X163484D01*
X162500Y159016D02*
Y160984D01*
X204516Y52000D02*
X206484D01*
X205500Y51016D02*
Y52984D01*
X144353Y171604D02*
X146321D01*
X145337Y170620D02*
Y172588D01*
X150016Y168000D02*
X151984D01*
X151000Y167016D02*
Y168984D01*
X185516Y132000D02*
X187484D01*
X186500Y131016D02*
Y132984D01*
X185016Y157500D02*
X186984D01*
X186000Y156516D02*
Y158484D01*
X211516Y203000D02*
X213484D01*
X212500Y202016D02*
Y203984D01*
X234016Y74500D02*
X235984D01*
X235000Y73516D02*
Y75484D01*
X211016Y81500D02*
X212984D01*
X212000Y80516D02*
Y82484D01*
X51016Y108500D02*
X52984D01*
X52000Y107516D02*
Y109484D01*
X110516Y87500D02*
X112484D01*
X111500Y86516D02*
Y88484D01*
X133516Y71000D02*
X135484D01*
X134500Y70016D02*
Y71984D01*
X152016Y85500D02*
X153984D01*
X153000Y84516D02*
Y86484D01*
X128516Y104500D02*
X130484D01*
X129500Y103516D02*
Y105484D01*
X89016Y22500D02*
X90984D01*
X90000Y21516D02*
Y23484D01*
X89016Y15500D02*
X90984D01*
X90000Y14516D02*
Y16484D01*
X89016Y8500D02*
X90984D01*
X90000Y7516D02*
Y9484D01*
X56516Y120000D02*
X58484D01*
X57500Y119016D02*
Y120984D01*
X56516Y107000D02*
X58484D01*
X57500Y106016D02*
Y107984D01*
X191516Y153000D02*
X193484D01*
X192500Y152016D02*
Y153984D01*
X241016Y48500D02*
X242984D01*
X242000Y47516D02*
Y49484D01*
X234016Y48500D02*
X235984D01*
X235000Y47516D02*
Y49484D01*
X182516Y82000D02*
X184484D01*
X183500Y81016D02*
Y82984D01*
X165516Y90500D02*
X167484D01*
X166500Y89516D02*
Y91484D01*
X165016Y98500D02*
X166984D01*
X166000Y97516D02*
Y99484D01*
X150516Y71000D02*
X152484D01*
X151500Y70016D02*
Y71984D01*
X142016Y71000D02*
X143984D01*
X143000Y70016D02*
Y71984D01*
X103016Y71500D02*
X104984D01*
X104000Y70516D02*
Y72484D01*
X67516Y69500D02*
X69484D01*
X68500Y68516D02*
Y70484D01*
X79016Y49000D02*
X80984D01*
X80000Y48016D02*
Y49984D01*
X193926Y427911D02*
X195895D01*
X194911Y426927D02*
Y428895D01*
X40516Y69000D02*
X42484D01*
X41500Y68016D02*
Y69984D01*
X33016Y69500D02*
X34984D01*
X34000Y68516D02*
Y70484D01*
X79102Y69530D02*
X81070D01*
X80086Y68546D02*
Y70515D01*
X73016Y69500D02*
X74984D01*
X74000Y68516D02*
Y70484D01*
X216516Y450500D02*
X218484D01*
X217500Y449516D02*
Y451484D01*
X229016Y533500D02*
X230984D01*
X230000Y532516D02*
Y534484D01*
X115016Y170500D02*
X116984D01*
X116000Y169516D02*
Y171484D01*
X61016Y222500D02*
X62984D01*
X62000Y221516D02*
Y223484D01*
X247016Y143000D02*
X248984D01*
X248000Y142016D02*
Y143984D01*
X100516Y211500D02*
X102484D01*
X101500Y210516D02*
Y212484D01*
X61016Y217000D02*
X62984D01*
X62000Y216016D02*
Y217984D01*
X82016Y145500D02*
X83984D01*
X83000Y144516D02*
Y146484D01*
X45016Y97500D02*
X46984D01*
X46000Y96516D02*
Y98484D01*
X71016Y145500D02*
X72984D01*
X72000Y144516D02*
Y146484D01*
X73516Y447000D02*
X75484D01*
X74500Y446016D02*
Y447984D01*
X68516Y456500D02*
X70484D01*
X69500Y455516D02*
Y457484D01*
X40016Y123000D02*
X41984D01*
X41000Y122016D02*
Y123984D01*
X51016Y125000D02*
X52984D01*
X52000Y124016D02*
Y125984D01*
X79116Y397900D02*
X81084D01*
X80100Y396916D02*
Y398884D01*
X34516Y122000D02*
X36484D01*
X35500Y121016D02*
Y122984D01*
X146516Y250000D02*
X148484D01*
X147500Y249016D02*
Y250984D01*
X136516Y250000D02*
X138484D01*
X137500Y249016D02*
Y250984D01*
X126516Y250500D02*
X128484D01*
X127500Y249516D02*
Y251484D01*
X156516Y250000D02*
X158484D01*
X157500Y249016D02*
Y250984D01*
X110016Y241500D02*
X111984D01*
X111000Y240516D02*
Y242484D01*
X171516Y269000D02*
X173484D01*
X172500Y268016D02*
Y269984D01*
X161516Y269000D02*
X163484D01*
X162500Y268016D02*
Y269984D01*
X141516Y269000D02*
X143484D01*
X142500Y268016D02*
Y269984D01*
X131516Y269000D02*
X133484D01*
X132500Y268016D02*
Y269984D01*
X121516Y269000D02*
X123484D01*
X122500Y268016D02*
Y269984D01*
X111516Y269000D02*
X113484D01*
X112500Y268016D02*
Y269984D01*
X101516Y269000D02*
X103484D01*
X102500Y268016D02*
Y269984D01*
X60016Y8500D02*
X61984D01*
X61000Y7516D02*
Y9484D01*
X77516Y271000D02*
X79484D01*
X78500Y270016D02*
Y271984D01*
X35516Y100500D02*
X37484D01*
X36500Y99516D02*
Y101484D01*
X93516Y282500D02*
X95484D01*
X94500Y281516D02*
Y283484D01*
X149299Y461500D02*
X151268D01*
X150284Y460516D02*
Y462484D01*
X146016Y494500D02*
X147984D01*
X147000Y493516D02*
Y495484D01*
X126516Y258000D02*
X128484D01*
X127500Y257016D02*
Y258984D01*
X106516Y251136D02*
X108484D01*
X107500Y250152D02*
Y252120D01*
X19516Y266000D02*
X21484D01*
X20500Y265016D02*
Y266984D01*
X136016Y298000D02*
X137984D01*
X137000Y297016D02*
Y298984D01*
X140384Y307500D02*
X142352D01*
X141368Y306516D02*
Y308484D01*
X171516Y373500D02*
X173484D01*
X172500Y372516D02*
Y374484D01*
X172016Y337500D02*
X173984D01*
X173000Y336516D02*
Y338484D01*
X177016Y355500D02*
X178984D01*
X178000Y354516D02*
Y356484D01*
X58516Y505500D02*
X60484D01*
X59500Y504516D02*
Y506484D01*
X216516Y492000D02*
X218484D01*
X217500Y491016D02*
Y492984D01*
X58516Y474500D02*
X60484D01*
X59500Y473516D02*
Y475484D01*
X122953Y311904D02*
X124921D01*
X123937Y310920D02*
Y312888D01*
X105216Y320700D02*
X107184D01*
X106200Y319716D02*
Y321684D01*
X123016Y395500D02*
X124984D01*
X124000Y394516D02*
Y396484D01*
X130642Y389000D02*
X132610D01*
X131626Y388016D02*
Y389984D01*
X214516Y418500D02*
X216484D01*
X215500Y417516D02*
Y419484D01*
X209016Y427500D02*
X210984D01*
X210000Y426516D02*
Y428484D01*
X166016Y333486D02*
X167984D01*
X167000Y332502D02*
Y334471D01*
X174016Y423500D02*
X175984D01*
X175000Y422516D02*
Y424484D01*
X177950Y437393D02*
X179918D01*
X178934Y436409D02*
Y438377D01*
X108153Y437704D02*
X110121D01*
X109137Y436720D02*
Y438688D01*
X104016Y422500D02*
X105984D01*
X105000Y421516D02*
Y423484D01*
X116853Y436996D02*
X118821D01*
X117837Y436012D02*
Y437980D01*
X162516Y362000D02*
X164484D01*
X163500Y361016D02*
Y362984D01*
X78516Y435500D02*
X80484D01*
X79500Y434516D02*
Y436484D01*
X175516Y194500D02*
X177484D01*
X176500Y193516D02*
Y195484D01*
X167016Y187500D02*
X168984D01*
X168000Y186516D02*
Y188484D01*
X162016Y222000D02*
X163984D01*
X163000Y221016D02*
Y222984D01*
X116516Y222500D02*
X118484D01*
X117500Y221516D02*
Y223484D01*
X169516Y205000D02*
X171484D01*
X170500Y204016D02*
Y205984D01*
X157016Y201000D02*
X158984D01*
X158000Y200016D02*
Y201984D01*
X208516Y455000D02*
X210484D01*
X209500Y454016D02*
Y455984D01*
X185016Y515000D02*
X186984D01*
X186000Y514016D02*
Y515984D01*
X170016Y515000D02*
X171984D01*
X171000Y514016D02*
Y515984D01*
X76016Y455500D02*
X77984D01*
X77000Y454516D02*
Y456484D01*
X144016Y447000D02*
X145984D01*
X145000Y446016D02*
Y447984D01*
X154016Y395500D02*
X155984D01*
X155000Y394516D02*
Y396484D01*
X146390Y389000D02*
X148358D01*
X147374Y388016D02*
Y389984D01*
X114968Y515000D02*
X116936D01*
X115952Y514016D02*
Y515984D01*
X87516Y521000D02*
X89484D01*
X88500Y520016D02*
Y521984D01*
X83016Y514500D02*
X84984D01*
X84000Y513516D02*
Y515484D01*
X91516Y521000D02*
X93484D01*
X92500Y520016D02*
Y521984D01*
X95516Y521000D02*
X97484D01*
X96500Y520016D02*
Y521984D01*
X205016Y447000D02*
X206984D01*
X206000Y446016D02*
Y447984D01*
X197016Y521000D02*
X198984D01*
X198000Y520016D02*
Y521984D01*
X210016Y538500D02*
X211984D01*
X211000Y537516D02*
Y539484D01*
X43016Y544500D02*
X44984D01*
X44000Y543516D02*
Y545484D01*
X202016Y544500D02*
X203984D01*
X203000Y543516D02*
Y545484D01*
X46516Y541500D02*
X48484D01*
X47500Y540516D02*
Y542484D01*
X193016Y521000D02*
X194984D01*
X194000Y520016D02*
Y521984D01*
X165516Y521000D02*
X167484D01*
X166500Y520016D02*
Y521984D01*
X161516Y521000D02*
X163484D01*
X162500Y520016D02*
Y521984D01*
X157516Y521000D02*
X159484D01*
X158500Y520016D02*
Y521984D01*
X127016Y521000D02*
X128984D01*
X128000Y520016D02*
Y521984D01*
X123016Y521000D02*
X124984D01*
X124000Y520016D02*
Y521984D01*
X119016Y521000D02*
X120984D01*
X120000Y520016D02*
Y521984D01*
X139141Y94135D02*
X139928D01*
X139535Y93741D02*
Y94528D01*
X143472Y94135D02*
X144259D01*
X143865Y93741D02*
Y94528D01*
X143472Y98465D02*
X144259D01*
X143865Y98072D02*
Y98859D01*
X139141Y98465D02*
X139928D01*
X139535Y98072D02*
Y98859D01*
M02*
