G04*
G04 #@! TF.GenerationSoftware,Altium Limited,Altium Designer,23.7.1 (13)*
G04*
G04 Layer_Color=32768*
%FSLAX25Y25*%
%MOIN*%
G70*
G04*
G04 #@! TF.SameCoordinates,971C37BE-97D5-4A50-9DA2-DA4AE9E2F4D9*
G04*
G04*
G04 #@! TF.FilePolarity,Positive*
G04*
G01*
G75*
%ADD10C,0.00787*%
D10*
X61138Y310776D02*
Y320224D01*
X65862D01*
Y310776D02*
Y320224D01*
X61138Y310776D02*
X65862D01*
X91941Y285717D02*
Y294772D01*
X97059D01*
Y285717D02*
Y294772D01*
X91941Y285717D02*
X97059D01*
X164472Y303141D02*
Y308259D01*
Y303141D02*
X173528D01*
Y308259D01*
X164472D02*
X173528D01*
X174563Y359232D02*
X182437D01*
Y375768D01*
X174563D02*
X182437D01*
X174563Y359232D02*
Y375768D01*
X62563Y491232D02*
X70437D01*
Y507768D01*
X62563D02*
X70437D01*
X62563Y491232D02*
Y507768D01*
X213563Y469768D02*
X221437D01*
X213563Y453232D02*
Y469768D01*
Y453232D02*
X221437D01*
Y469768D01*
X174563Y351575D02*
X182437D01*
X174563Y335039D02*
Y351575D01*
Y335039D02*
X182437D01*
Y351575D01*
X213563Y471732D02*
X221437D01*
Y488268D01*
X213563D02*
X221437D01*
X213563Y471732D02*
Y488268D01*
X62563Y488768D02*
X70437D01*
X62563Y472232D02*
Y488768D01*
Y472232D02*
X70437D01*
Y488768D01*
X153972Y95841D02*
X163028D01*
X153972D02*
Y100959D01*
X163028D01*
Y95841D02*
Y100959D01*
X154059Y74072D02*
Y83128D01*
X148941Y74072D02*
X154059D01*
X148941D02*
Y83128D01*
X154059D01*
X147535Y108769D02*
Y117431D01*
X151865D01*
Y108769D02*
Y117431D01*
X147535Y108769D02*
X151865D01*
X202772Y435859D02*
X211828D01*
Y430741D02*
Y435859D01*
X202772Y430741D02*
X211828D01*
X202772D02*
Y435859D01*
X132772Y435059D02*
X141828D01*
Y429941D02*
Y435059D01*
X132772Y429941D02*
X141828D01*
X132772D02*
Y435059D01*
X56605Y445732D02*
Y462268D01*
X44794Y445732D02*
X56605D01*
X44794D02*
Y462268D01*
X56605D01*
X78305Y52552D02*
X93659D01*
X78305D02*
Y66528D01*
X93659D01*
Y52552D02*
Y66528D01*
X101280Y63068D02*
Y74533D01*
X95720Y63068D02*
X101280D01*
X95720D02*
Y74533D01*
X101280D01*
X66472Y66359D02*
X75528D01*
Y61241D02*
Y66359D01*
X66472Y61241D02*
X75528D01*
X66472D02*
Y66359D01*
X189313Y92798D02*
Y105002D01*
X203487D01*
Y92798D02*
Y105002D01*
X189313Y92798D02*
X203487D01*
X168241Y192872D02*
Y201928D01*
X173359D01*
Y192872D02*
Y201928D01*
X168241Y192872D02*
X173359D01*
X48752Y110890D02*
Y122110D01*
X55248D01*
Y110890D02*
Y122110D01*
X48752Y110890D02*
X55248D01*
M02*
