G04*
G04 #@! TF.GenerationSoftware,Altium Limited,Altium Designer,23.7.1 (13)*
G04*
G04 Layer_Color=8421504*
%FSLAX25Y25*%
%MOIN*%
G70*
G04*
G04 #@! TF.SameCoordinates,971C37BE-97D5-4A50-9DA2-DA4AE9E2F4D9*
G04*
G04*
G04 #@! TF.FilePolarity,Positive*
G04*
G01*
G75*
%ADD17R,0.03740X0.03150*%
%ADD18R,0.03937X0.03150*%
%ADD19R,0.03347X0.02953*%
%ADD20R,0.04134X0.03543*%
%ADD21R,0.03543X0.02953*%
%ADD22R,0.03150X0.03740*%
%ADD23R,0.02756X0.02756*%
G04:AMPARAMS|DCode=24|XSize=74.8mil|YSize=23.62mil|CornerRadius=2.95mil|HoleSize=0mil|Usage=FLASHONLY|Rotation=270.000|XOffset=0mil|YOffset=0mil|HoleType=Round|Shape=RoundedRectangle|*
%AMROUNDEDRECTD24*
21,1,0.07480,0.01772,0,0,270.0*
21,1,0.06890,0.02362,0,0,270.0*
1,1,0.00591,-0.00886,-0.03445*
1,1,0.00591,-0.00886,0.03445*
1,1,0.00591,0.00886,0.03445*
1,1,0.00591,0.00886,-0.03445*
%
%ADD24ROUNDEDRECTD24*%
%ADD25R,0.02756X0.02756*%
%ADD26R,0.02756X0.03347*%
%ADD27R,0.05906X0.03543*%
%ADD28R,0.21850X0.24803*%
%ADD29R,0.03543X0.08858*%
%ADD30R,0.06299X0.04134*%
%ADD31R,0.02677X0.05118*%
%ADD32R,0.24528X0.20669*%
%ADD33R,0.40551X0.20669*%
%ADD34R,0.03150X0.03150*%
%ADD35R,0.03150X0.01378*%
%ADD36R,0.01378X0.03347*%
%ADD37R,0.10630X0.10236*%
%ADD38R,0.02756X0.02559*%
%ADD39R,0.03150X0.03937*%
%ADD40R,0.02953X0.03347*%
%ADD41R,0.04331X0.03937*%
%ADD42R,0.03150X0.03150*%
%ADD43R,0.09843X0.03937*%
%ADD44R,0.07008X0.12402*%
%ADD45R,0.03150X0.02362*%
G04:AMPARAMS|DCode=46|XSize=43.31mil|YSize=23.62mil|CornerRadius=2.01mil|HoleSize=0mil|Usage=FLASHONLY|Rotation=180.000|XOffset=0mil|YOffset=0mil|HoleType=Round|Shape=RoundedRectangle|*
%AMROUNDEDRECTD46*
21,1,0.04331,0.01961,0,0,180.0*
21,1,0.03929,0.02362,0,0,180.0*
1,1,0.00402,-0.01965,0.00980*
1,1,0.00402,0.01965,0.00980*
1,1,0.00402,0.01965,-0.00980*
1,1,0.00402,-0.01965,-0.00980*
%
%ADD46ROUNDEDRECTD46*%
%ADD47R,0.03591X0.04453*%
%ADD48R,0.01378X0.01968*%
%ADD49R,0.04134X0.03740*%
%ADD50R,0.02756X0.07677*%
%ADD51R,0.04134X0.03150*%
D17*
X105500Y140559D02*
D03*
Y135441D02*
D03*
X83100Y107059D02*
D03*
Y101941D02*
D03*
X72000D02*
D03*
Y107059D02*
D03*
X94000Y135441D02*
D03*
Y140559D02*
D03*
X83000Y135441D02*
D03*
Y140559D02*
D03*
X61000Y135441D02*
D03*
Y140559D02*
D03*
X72000Y135441D02*
D03*
Y140559D02*
D03*
D18*
X80300Y293153D02*
D03*
Y287247D02*
D03*
X72200Y336206D02*
D03*
Y330300D02*
D03*
X81600Y336253D02*
D03*
Y330347D02*
D03*
X133400Y111000D02*
D03*
Y116905D02*
D03*
X141800Y110947D02*
D03*
Y116853D02*
D03*
X134800Y75695D02*
D03*
Y81600D02*
D03*
X143300D02*
D03*
Y75695D02*
D03*
X145600Y301947D02*
D03*
Y307853D02*
D03*
X137000Y321353D02*
D03*
Y315447D02*
D03*
X145500Y321353D02*
D03*
Y315447D02*
D03*
X154000Y321353D02*
D03*
Y315447D02*
D03*
X120000Y321353D02*
D03*
Y315447D02*
D03*
X128500Y301947D02*
D03*
Y307853D02*
D03*
Y321353D02*
D03*
Y315447D02*
D03*
X203000Y554453D02*
D03*
Y548547D02*
D03*
X44000Y554453D02*
D03*
Y548547D02*
D03*
X166300Y427900D02*
D03*
Y433806D02*
D03*
X183500Y427894D02*
D03*
Y433800D02*
D03*
X191600Y447353D02*
D03*
Y441447D02*
D03*
X183200Y447353D02*
D03*
Y441447D02*
D03*
X174700Y447405D02*
D03*
Y441500D02*
D03*
X166500Y447453D02*
D03*
Y441547D02*
D03*
X158100Y447453D02*
D03*
Y441547D02*
D03*
X113900Y427547D02*
D03*
Y433453D02*
D03*
X96700Y427300D02*
D03*
Y433206D02*
D03*
X122100Y447153D02*
D03*
Y441247D02*
D03*
X113700Y447153D02*
D03*
Y441247D02*
D03*
X105200Y447153D02*
D03*
Y441247D02*
D03*
X96700Y447200D02*
D03*
Y441294D02*
D03*
X88200Y447153D02*
D03*
Y441247D02*
D03*
X189000Y82047D02*
D03*
Y87953D02*
D03*
X208700Y96100D02*
D03*
Y102006D02*
D03*
X192400Y110047D02*
D03*
Y115953D02*
D03*
X200500Y110047D02*
D03*
Y115953D02*
D03*
X107500Y175047D02*
D03*
Y180953D02*
D03*
X115900Y175100D02*
D03*
Y181006D02*
D03*
X124400Y175100D02*
D03*
Y181006D02*
D03*
X132900Y175195D02*
D03*
Y181100D02*
D03*
X141400Y175147D02*
D03*
Y181053D02*
D03*
X149900Y175147D02*
D03*
Y181053D02*
D03*
X158400Y175147D02*
D03*
Y181053D02*
D03*
X166900Y175195D02*
D03*
Y181100D02*
D03*
D19*
X87200Y287541D02*
D03*
Y292659D02*
D03*
X88800Y332739D02*
D03*
Y337661D02*
D03*
X41500Y75539D02*
D03*
Y80461D02*
D03*
X34000Y92618D02*
D03*
Y87500D02*
D03*
X33500Y117961D02*
D03*
Y113039D02*
D03*
X41000Y100500D02*
D03*
Y105618D02*
D03*
X242000Y53539D02*
D03*
Y58461D02*
D03*
X235000Y70059D02*
D03*
Y64941D02*
D03*
X142500Y264559D02*
D03*
Y259441D02*
D03*
X152500Y264559D02*
D03*
Y259441D02*
D03*
X162500Y264559D02*
D03*
Y259441D02*
D03*
X172500Y264559D02*
D03*
Y259441D02*
D03*
X102500Y264559D02*
D03*
Y259441D02*
D03*
X112500Y264559D02*
D03*
Y259441D02*
D03*
X122500Y264559D02*
D03*
Y259441D02*
D03*
X132500Y264559D02*
D03*
Y259441D02*
D03*
X172500Y254941D02*
D03*
Y249823D02*
D03*
X162500Y255118D02*
D03*
Y250000D02*
D03*
X102500D02*
D03*
Y255118D02*
D03*
X112500Y250000D02*
D03*
Y255118D02*
D03*
X132500Y255000D02*
D03*
Y249882D02*
D03*
X122500Y255059D02*
D03*
Y249941D02*
D03*
X152461Y255059D02*
D03*
Y249941D02*
D03*
X142500Y255000D02*
D03*
Y249882D02*
D03*
D20*
X63500Y300146D02*
D03*
Y305854D02*
D03*
X34000Y81209D02*
D03*
Y75500D02*
D03*
X41000Y112646D02*
D03*
Y118354D02*
D03*
X235000Y58854D02*
D03*
Y53146D02*
D03*
D21*
X63500Y313138D02*
D03*
Y317862D02*
D03*
D22*
X59342Y337500D02*
D03*
X64657D02*
D03*
X228259Y541600D02*
D03*
X223141D02*
D03*
X66941Y22000D02*
D03*
X72059D02*
D03*
X67000Y15500D02*
D03*
X72118D02*
D03*
X66941Y8500D02*
D03*
X72059D02*
D03*
X61841Y396400D02*
D03*
X66959D02*
D03*
X63441Y541500D02*
D03*
X68559D02*
D03*
D23*
X94500Y287488D02*
D03*
Y293000D02*
D03*
X151500Y81356D02*
D03*
Y75844D02*
D03*
X170800Y194644D02*
D03*
Y200156D02*
D03*
D24*
X86400Y302335D02*
D03*
X81400D02*
D03*
X76400D02*
D03*
X71400D02*
D03*
Y321665D02*
D03*
X76400D02*
D03*
X81400D02*
D03*
X86400D02*
D03*
D25*
X171756Y305700D02*
D03*
X166244D02*
D03*
X161256Y98400D02*
D03*
X155744D02*
D03*
X204544Y433300D02*
D03*
X210056D02*
D03*
X134544Y432500D02*
D03*
X140056D02*
D03*
X68244Y63800D02*
D03*
X73756D02*
D03*
D26*
X96339Y216400D02*
D03*
X101261D02*
D03*
X66339Y216900D02*
D03*
X71261D02*
D03*
X66200Y222300D02*
D03*
X71121D02*
D03*
D27*
X90102Y216705D02*
D03*
Y222285D02*
D03*
X77898Y216715D02*
D03*
Y222285D02*
D03*
D28*
X57800Y431555D02*
D03*
X61900Y576055D02*
D03*
X221600D02*
D03*
D29*
X66776Y405571D02*
D03*
X48824D02*
D03*
X52924Y550071D02*
D03*
X70876D02*
D03*
X212624D02*
D03*
X230576D02*
D03*
D30*
X178500Y373307D02*
D03*
Y361693D02*
D03*
X66500Y505307D02*
D03*
Y493693D02*
D03*
X217500Y455693D02*
D03*
Y467307D02*
D03*
X178500Y337500D02*
D03*
Y349114D02*
D03*
X217500Y485807D02*
D03*
Y474193D02*
D03*
X66500Y474693D02*
D03*
Y486307D02*
D03*
D31*
X111919Y328654D02*
D03*
X115856D02*
D03*
X119793D02*
D03*
X123730D02*
D03*
X127667D02*
D03*
X131604D02*
D03*
X135541D02*
D03*
X139478D02*
D03*
X143415D02*
D03*
X147352D02*
D03*
X151289D02*
D03*
X155226D02*
D03*
X159163D02*
D03*
X163100D02*
D03*
X167037D02*
D03*
Y400702D02*
D03*
X163100D02*
D03*
X159163D02*
D03*
X155226D02*
D03*
X151289D02*
D03*
X147352D02*
D03*
X143415D02*
D03*
X139478D02*
D03*
X135541D02*
D03*
X131604D02*
D03*
X127667D02*
D03*
X123730D02*
D03*
X119793D02*
D03*
X115856D02*
D03*
X111919D02*
D03*
X150519Y454254D02*
D03*
X154456D02*
D03*
X158393D02*
D03*
X162330D02*
D03*
X166267D02*
D03*
X170204D02*
D03*
X174141D02*
D03*
X178078D02*
D03*
X182015D02*
D03*
X185952D02*
D03*
X189889D02*
D03*
X193826D02*
D03*
X197763D02*
D03*
X201700D02*
D03*
X205637D02*
D03*
Y526302D02*
D03*
X201700D02*
D03*
X197763D02*
D03*
X193826D02*
D03*
X189889D02*
D03*
X185952D02*
D03*
X182015D02*
D03*
X178078D02*
D03*
X174141D02*
D03*
X170204D02*
D03*
X166267D02*
D03*
X162330D02*
D03*
X158393D02*
D03*
X154456D02*
D03*
X150519D02*
D03*
X80519D02*
D03*
X84456D02*
D03*
X88393D02*
D03*
X92330D02*
D03*
X96267D02*
D03*
X100204D02*
D03*
X104141D02*
D03*
X108078D02*
D03*
X112015D02*
D03*
X115952D02*
D03*
X119889D02*
D03*
X123826D02*
D03*
X127763D02*
D03*
X131700D02*
D03*
X135637D02*
D03*
Y454254D02*
D03*
X131700D02*
D03*
X127763D02*
D03*
X123826D02*
D03*
X119889D02*
D03*
X115952D02*
D03*
X112015D02*
D03*
X108078D02*
D03*
X104141D02*
D03*
X100204D02*
D03*
X96267D02*
D03*
X92330D02*
D03*
X88393D02*
D03*
X84456D02*
D03*
X80519D02*
D03*
D32*
X123080Y376686D02*
D03*
X155876D02*
D03*
X161680Y502286D02*
D03*
X194476D02*
D03*
X124476D02*
D03*
X91680D02*
D03*
D33*
X139478Y352670D02*
D03*
X178078Y478270D02*
D03*
X108078D02*
D03*
D34*
X80047Y8500D02*
D03*
X85952D02*
D03*
X80047Y22500D02*
D03*
X85952D02*
D03*
X80047Y15500D02*
D03*
X85952D02*
D03*
X141952Y540000D02*
D03*
X136047D02*
D03*
X136048Y545000D02*
D03*
X141953D02*
D03*
X179952Y540000D02*
D03*
X174047D02*
D03*
X174048Y545000D02*
D03*
X179953D02*
D03*
X97452Y540000D02*
D03*
X91547D02*
D03*
X91548Y545000D02*
D03*
X97453D02*
D03*
X211200Y542300D02*
D03*
X217106D02*
D03*
X51547Y541500D02*
D03*
X57452D02*
D03*
D35*
X133826Y101221D02*
D03*
Y99253D02*
D03*
Y97284D02*
D03*
Y95316D02*
D03*
Y93347D02*
D03*
Y91379D02*
D03*
X149574Y101221D02*
D03*
Y99253D02*
D03*
Y97284D02*
D03*
Y95316D02*
D03*
Y93347D02*
D03*
Y91379D02*
D03*
D36*
X136779Y88524D02*
D03*
X138747D02*
D03*
X140716D02*
D03*
X142684D02*
D03*
X144653D02*
D03*
X146621D02*
D03*
X136779Y104076D02*
D03*
X138747D02*
D03*
X140716D02*
D03*
X142684D02*
D03*
X144653D02*
D03*
X146621D02*
D03*
D37*
X141700Y96300D02*
D03*
D38*
X149700Y110442D02*
D03*
Y115758D02*
D03*
D39*
X155800Y90400D02*
D03*
X161706D02*
D03*
X154047Y305800D02*
D03*
X159953D02*
D03*
X42147Y395900D02*
D03*
X48053D02*
D03*
X191847Y433400D02*
D03*
X197753D02*
D03*
X122047Y432500D02*
D03*
X127953D02*
D03*
X104900Y53100D02*
D03*
X98994D02*
D03*
X73953Y55900D02*
D03*
X68047D02*
D03*
D40*
X84141Y48900D02*
D03*
X89259D02*
D03*
X132039Y245441D02*
D03*
X136961D02*
D03*
X122039D02*
D03*
X126961D02*
D03*
X112039Y245559D02*
D03*
X116961D02*
D03*
X102039D02*
D03*
X106961D02*
D03*
X172039Y245441D02*
D03*
X176961D02*
D03*
X162039Y245559D02*
D03*
X166961D02*
D03*
X152000Y245500D02*
D03*
X156921D02*
D03*
X142039Y245441D02*
D03*
X146961D02*
D03*
X101759Y59800D02*
D03*
X96641D02*
D03*
D41*
X151000Y542756D02*
D03*
Y537244D02*
D03*
X189000Y542756D02*
D03*
Y537244D02*
D03*
X106000Y542756D02*
D03*
Y537244D02*
D03*
X162700Y321356D02*
D03*
Y315844D02*
D03*
X137100Y301944D02*
D03*
Y307456D02*
D03*
X111200Y321112D02*
D03*
Y315600D02*
D03*
X201000Y447300D02*
D03*
Y441788D02*
D03*
X174800Y427944D02*
D03*
Y433456D02*
D03*
X149500Y447012D02*
D03*
Y441500D02*
D03*
X130800Y446756D02*
D03*
Y441244D02*
D03*
X79500Y446856D02*
D03*
Y441344D02*
D03*
X105200Y427044D02*
D03*
Y432556D02*
D03*
D42*
X55200Y391347D02*
D03*
Y397252D02*
D03*
D43*
X50700Y459905D02*
D03*
Y448095D02*
D03*
D44*
X264295Y538000D02*
D03*
X243705D02*
D03*
X11205D02*
D03*
X31795D02*
D03*
D45*
X243500Y215941D02*
D03*
Y221059D02*
D03*
Y211859D02*
D03*
Y206741D02*
D03*
D46*
X91100Y55800D02*
D03*
Y59540D02*
D03*
Y63280D02*
D03*
X80864D02*
D03*
Y55800D02*
D03*
D47*
X98500Y71322D02*
D03*
Y66278D02*
D03*
D48*
X192561Y102050D02*
D03*
X195121D02*
D03*
X197679D02*
D03*
X200239D02*
D03*
Y95750D02*
D03*
X197679D02*
D03*
X195121D02*
D03*
X192561D02*
D03*
D49*
X206500Y81646D02*
D03*
Y87354D02*
D03*
X197500D02*
D03*
Y81646D02*
D03*
D50*
X162800Y192798D02*
D03*
X157800D02*
D03*
X152800D02*
D03*
X147800D02*
D03*
X142800D02*
D03*
X137800D02*
D03*
X132800D02*
D03*
X127800D02*
D03*
X122800D02*
D03*
X117800D02*
D03*
Y230002D02*
D03*
X122800D02*
D03*
X127800D02*
D03*
X132800D02*
D03*
X137800D02*
D03*
X142800D02*
D03*
X147800D02*
D03*
X152800D02*
D03*
X157800D02*
D03*
X162800D02*
D03*
D51*
X52000Y112858D02*
D03*
Y120142D02*
D03*
M02*
