G04*
G04 #@! TF.GenerationSoftware,Altium Limited,Altium Designer,23.7.1 (13)*
G04*
G04 Layer_Color=16711935*
%FSLAX25Y25*%
%MOIN*%
G70*
G04*
G04 #@! TF.SameCoordinates,971C37BE-97D5-4A50-9DA2-DA4AE9E2F4D9*
G04*
G04*
G04 #@! TF.FilePolarity,Positive*
G04*
G01*
G75*
%ADD10C,0.00787*%
G36*
X62768Y319666D02*
X62793D01*
X62820Y319660D01*
X62853Y319658D01*
X62888Y319650D01*
X62927Y319641D01*
X62970Y319628D01*
X63014Y319614D01*
X63058Y319595D01*
X63104Y319573D01*
X63151Y319546D01*
X63194Y319516D01*
X63241Y319480D01*
X63282Y319439D01*
X63284Y319437D01*
X63290Y319428D01*
X63301Y319415D01*
X63314Y319398D01*
X63333Y319374D01*
X63350Y319346D01*
X63372Y319314D01*
X63391Y319278D01*
X63410Y319237D01*
X63432Y319191D01*
X63448Y319142D01*
X63465Y319090D01*
X63481Y319033D01*
X63492Y318972D01*
X63497Y318907D01*
X63500Y318839D01*
Y318822D01*
X63497Y318803D01*
Y318776D01*
X63495Y318746D01*
X63489Y318708D01*
X63481Y318667D01*
X63473Y318623D01*
X63462Y318577D01*
X63446Y318528D01*
X63429Y318478D01*
X63407Y318426D01*
X63383Y318377D01*
X63353Y318328D01*
X63320Y318279D01*
X63282Y318235D01*
X63279Y318233D01*
X63271Y318225D01*
X63260Y318214D01*
X63241Y318200D01*
X63219Y318183D01*
X63194Y318164D01*
X63164Y318143D01*
X63129Y318124D01*
X63090Y318102D01*
X63050Y318080D01*
X63003Y318061D01*
X62957Y318044D01*
X62905Y318031D01*
X62848Y318020D01*
X62790Y318011D01*
X62730Y318009D01*
X62727D01*
X62719D01*
X62706D01*
X62689Y318011D01*
X62667D01*
X62643Y318014D01*
X62616Y318020D01*
X62586Y318025D01*
X62523Y318039D01*
X62454Y318061D01*
X62386Y318091D01*
X62353Y318110D01*
X62321Y318132D01*
X62318Y318134D01*
X62313Y318137D01*
X62304Y318145D01*
X62293Y318156D01*
X62280Y318167D01*
X62266Y318183D01*
X62247Y318203D01*
X62231Y318225D01*
X62192Y318274D01*
X62154Y318334D01*
X62121Y318405D01*
X62094Y318487D01*
Y318484D01*
X62091Y318478D01*
X62086Y318467D01*
X62080Y318457D01*
X62075Y318440D01*
X62064Y318421D01*
X62042Y318380D01*
X62015Y318334D01*
X61979Y318287D01*
X61941Y318241D01*
X61895Y318203D01*
X61892D01*
X61889Y318200D01*
X61881Y318195D01*
X61870Y318189D01*
X61843Y318173D01*
X61807Y318156D01*
X61761Y318140D01*
X61706Y318124D01*
X61646Y318113D01*
X61581Y318110D01*
X61578D01*
X61570D01*
X61554Y318113D01*
X61535D01*
X61513Y318115D01*
X61485Y318121D01*
X61455Y318126D01*
X61420Y318134D01*
X61384Y318145D01*
X61349Y318159D01*
X61311Y318173D01*
X61270Y318192D01*
X61231Y318216D01*
X61193Y318241D01*
X61155Y318271D01*
X61120Y318306D01*
X61117Y318309D01*
X61111Y318315D01*
X61103Y318325D01*
X61089Y318342D01*
X61076Y318361D01*
X61059Y318386D01*
X61043Y318413D01*
X61024Y318446D01*
X61008Y318481D01*
X60991Y318522D01*
X60975Y318563D01*
X60961Y318609D01*
X60948Y318661D01*
X60939Y318713D01*
X60934Y318771D01*
X60931Y318830D01*
Y318863D01*
X60934Y318885D01*
X60937Y318912D01*
X60942Y318945D01*
X60948Y318981D01*
X60956Y319022D01*
X60967Y319063D01*
X60978Y319106D01*
X60994Y319150D01*
X61013Y319194D01*
X61035Y319240D01*
X61062Y319281D01*
X61089Y319325D01*
X61125Y319363D01*
X61128Y319366D01*
X61133Y319371D01*
X61144Y319382D01*
X61158Y319396D01*
X61177Y319409D01*
X61199Y319426D01*
X61226Y319445D01*
X61253Y319464D01*
X61286Y319483D01*
X61322Y319502D01*
X61360Y319518D01*
X61401Y319532D01*
X61444Y319546D01*
X61491Y319557D01*
X61540Y319562D01*
X61589Y319565D01*
X61592D01*
X61597D01*
X61605D01*
X61619D01*
X61633Y319562D01*
X61652Y319560D01*
X61693Y319554D01*
X61739Y319543D01*
X61791Y319527D01*
X61843Y319502D01*
X61895Y319472D01*
X61897D01*
X61900Y319467D01*
X61917Y319456D01*
X61939Y319434D01*
X61968Y319404D01*
X61999Y319363D01*
X62034Y319317D01*
X62064Y319259D01*
X62094Y319194D01*
Y319196D01*
X62097Y319205D01*
X62102Y319215D01*
X62108Y319232D01*
X62116Y319251D01*
X62127Y319273D01*
X62154Y319325D01*
X62187Y319382D01*
X62231Y319439D01*
X62280Y319497D01*
X62340Y319546D01*
X62343Y319549D01*
X62348Y319551D01*
X62356Y319557D01*
X62370Y319565D01*
X62386Y319573D01*
X62405Y319584D01*
X62427Y319595D01*
X62452Y319609D01*
X62509Y319630D01*
X62577Y319650D01*
X62654Y319663D01*
X62695Y319669D01*
X62738D01*
X62741D01*
X62752D01*
X62768Y319666D01*
D02*
G37*
G36*
X62678Y317722D02*
X62697Y317717D01*
X62727Y317706D01*
X62760Y317695D01*
X62801Y317678D01*
X62845Y317662D01*
X62891Y317640D01*
X62943Y317616D01*
X62992Y317588D01*
X63047Y317558D01*
X63099Y317523D01*
X63148Y317485D01*
X63197Y317444D01*
X63243Y317397D01*
X63287Y317348D01*
X63290Y317345D01*
X63295Y317335D01*
X63306Y317321D01*
X63320Y317299D01*
X63336Y317274D01*
X63355Y317242D01*
X63375Y317206D01*
X63394Y317162D01*
X63413Y317116D01*
X63432Y317067D01*
X63451Y317012D01*
X63467Y316952D01*
X63481Y316890D01*
X63492Y316824D01*
X63497Y316756D01*
X63500Y316682D01*
Y316644D01*
X63497Y316614D01*
X63495Y316581D01*
X63492Y316540D01*
X63486Y316496D01*
X63478Y316447D01*
X63470Y316395D01*
X63459Y316341D01*
X63446Y316286D01*
X63432Y316232D01*
X63413Y316174D01*
X63391Y316120D01*
X63366Y316068D01*
X63336Y316019D01*
X63333Y316016D01*
X63328Y316008D01*
X63320Y315994D01*
X63306Y315978D01*
X63287Y315956D01*
X63268Y315931D01*
X63243Y315904D01*
X63213Y315874D01*
X63181Y315844D01*
X63145Y315811D01*
X63107Y315781D01*
X63063Y315748D01*
X63017Y315716D01*
X62968Y315686D01*
X62913Y315658D01*
X62856Y315631D01*
X62853Y315628D01*
X62842Y315626D01*
X62823Y315620D01*
X62801Y315612D01*
X62771Y315601D01*
X62738Y315590D01*
X62697Y315579D01*
X62654Y315565D01*
X62605Y315555D01*
X62553Y315541D01*
X62498Y315530D01*
X62438Y315522D01*
X62313Y315505D01*
X62247Y315503D01*
X62182Y315500D01*
X62176D01*
X62165D01*
X62143D01*
X62116Y315503D01*
X62080Y315505D01*
X62040Y315508D01*
X61996Y315514D01*
X61947Y315519D01*
X61895Y315527D01*
X61840Y315535D01*
X61723Y315563D01*
X61665Y315582D01*
X61608Y315601D01*
X61548Y315623D01*
X61493Y315650D01*
X61491Y315653D01*
X61480Y315658D01*
X61466Y315667D01*
X61444Y315677D01*
X61420Y315694D01*
X61392Y315713D01*
X61362Y315735D01*
X61327Y315759D01*
X61294Y315789D01*
X61256Y315819D01*
X61221Y315855D01*
X61182Y315893D01*
X61147Y315934D01*
X61111Y315978D01*
X61079Y316027D01*
X61049Y316076D01*
X61046Y316079D01*
X61043Y316090D01*
X61035Y316103D01*
X61024Y316125D01*
X61013Y316150D01*
X60999Y316182D01*
X60986Y316218D01*
X60972Y316256D01*
X60958Y316300D01*
X60945Y316349D01*
X60931Y316398D01*
X60920Y316453D01*
X60901Y316565D01*
X60898Y316625D01*
X60896Y316687D01*
Y316723D01*
X60898Y316750D01*
X60901Y316783D01*
X60907Y316821D01*
X60912Y316862D01*
X60920Y316909D01*
X60931Y316958D01*
X60942Y317010D01*
X60958Y317061D01*
X60978Y317116D01*
X60999Y317171D01*
X61027Y317223D01*
X61054Y317274D01*
X61089Y317324D01*
X61092Y317326D01*
X61098Y317335D01*
X61109Y317348D01*
X61125Y317365D01*
X61144Y317386D01*
X61169Y317411D01*
X61196Y317436D01*
X61229Y317465D01*
X61264Y317496D01*
X61305Y317526D01*
X61349Y317556D01*
X61398Y317583D01*
X61450Y317613D01*
X61507Y317637D01*
X61567Y317662D01*
X61630Y317684D01*
X61706Y317356D01*
X61704D01*
X61695Y317351D01*
X61679Y317348D01*
X61660Y317340D01*
X61638Y317332D01*
X61614Y317318D01*
X61554Y317291D01*
X61488Y317255D01*
X61420Y317209D01*
X61357Y317160D01*
X61330Y317130D01*
X61305Y317100D01*
X61302Y317097D01*
X61300Y317091D01*
X61294Y317083D01*
X61286Y317070D01*
X61275Y317053D01*
X61264Y317034D01*
X61253Y317012D01*
X61242Y316985D01*
X61231Y316955D01*
X61221Y316925D01*
X61199Y316854D01*
X61185Y316772D01*
X61180Y316728D01*
Y316655D01*
X61182Y316633D01*
X61185Y316608D01*
X61188Y316578D01*
X61190Y316546D01*
X61196Y316513D01*
X61215Y316434D01*
X61240Y316352D01*
X61256Y316311D01*
X61275Y316270D01*
X61297Y316232D01*
X61322Y316193D01*
X61324Y316191D01*
X61327Y316185D01*
X61335Y316174D01*
X61346Y316161D01*
X61360Y316147D01*
X61379Y316128D01*
X61398Y316109D01*
X61420Y316087D01*
X61447Y316065D01*
X61474Y316040D01*
X61537Y315997D01*
X61611Y315956D01*
X61695Y315920D01*
X61698D01*
X61706Y315918D01*
X61720Y315912D01*
X61737Y315910D01*
X61758Y315904D01*
X61783Y315896D01*
X61813Y315890D01*
X61843Y315882D01*
X61878Y315874D01*
X61917Y315868D01*
X61999Y315855D01*
X62086Y315847D01*
X62179Y315844D01*
X62182D01*
X62192D01*
X62209D01*
X62233Y315847D01*
X62261D01*
X62293Y315849D01*
X62329Y315852D01*
X62370Y315855D01*
X62414Y315860D01*
X62457Y315866D01*
X62553Y315882D01*
X62648Y315907D01*
X62741Y315937D01*
X62744D01*
X62752Y315942D01*
X62763Y315948D01*
X62779Y315953D01*
X62801Y315964D01*
X62823Y315978D01*
X62875Y316008D01*
X62935Y316049D01*
X62992Y316098D01*
X63050Y316158D01*
X63074Y316191D01*
X63099Y316226D01*
Y316229D01*
X63104Y316234D01*
X63110Y316245D01*
X63118Y316262D01*
X63126Y316281D01*
X63137Y316303D01*
X63145Y316327D01*
X63156Y316354D01*
X63178Y316417D01*
X63197Y316491D01*
X63211Y316570D01*
X63213Y316611D01*
X63216Y316655D01*
Y316682D01*
X63213Y316701D01*
X63211Y316726D01*
X63208Y316753D01*
X63203Y316786D01*
X63197Y316818D01*
X63178Y316895D01*
X63164Y316933D01*
X63148Y316974D01*
X63129Y317015D01*
X63107Y317053D01*
X63082Y317091D01*
X63055Y317130D01*
X63052Y317132D01*
X63047Y317138D01*
X63039Y317149D01*
X63025Y317162D01*
X63009Y317176D01*
X62987Y317195D01*
X62962Y317214D01*
X62935Y317236D01*
X62902Y317258D01*
X62867Y317280D01*
X62828Y317302D01*
X62785Y317324D01*
X62738Y317343D01*
X62687Y317362D01*
X62632Y317381D01*
X62575Y317395D01*
X62659Y317728D01*
X62665D01*
X62678Y317722D01*
D02*
G37*
G36*
X93228Y296367D02*
X93269D01*
X93318Y296365D01*
X93370Y296362D01*
X93427Y296357D01*
X93487Y296351D01*
X93550Y296346D01*
X93678Y296326D01*
X93804Y296299D01*
X93861Y296283D01*
X93919Y296264D01*
X93921D01*
X93932Y296258D01*
X93946Y296253D01*
X93965Y296245D01*
X93989Y296234D01*
X94017Y296220D01*
X94047Y296204D01*
X94080Y296187D01*
X94148Y296144D01*
X94222Y296089D01*
X94290Y296026D01*
X94323Y295991D01*
X94353Y295953D01*
X94355Y295950D01*
X94358Y295944D01*
X94366Y295931D01*
X94375Y295917D01*
X94385Y295895D01*
X94399Y295873D01*
X94413Y295846D01*
X94426Y295813D01*
X94440Y295780D01*
X94454Y295742D01*
X94464Y295704D01*
X94478Y295660D01*
X94495Y295567D01*
X94497Y295518D01*
X94500Y295466D01*
Y295439D01*
X94497Y295417D01*
X94495Y295393D01*
X94492Y295363D01*
X94486Y295330D01*
X94478Y295294D01*
X94459Y295218D01*
X94445Y295180D01*
X94432Y295139D01*
X94413Y295098D01*
X94391Y295057D01*
X94366Y295019D01*
X94336Y294983D01*
X94333Y294981D01*
X94328Y294975D01*
X94320Y294967D01*
X94306Y294953D01*
X94290Y294940D01*
X94268Y294923D01*
X94243Y294904D01*
X94216Y294885D01*
X94186Y294866D01*
X94151Y294847D01*
X94112Y294830D01*
X94071Y294811D01*
X94028Y294795D01*
X93981Y294781D01*
X93929Y294770D01*
X93875Y294762D01*
X93850Y295060D01*
X93853D01*
X93858Y295062D01*
X93869D01*
X93886Y295068D01*
X93902Y295071D01*
X93921Y295076D01*
X93968Y295090D01*
X94017Y295109D01*
X94066Y295133D01*
X94112Y295166D01*
X94134Y295183D01*
X94153Y295202D01*
X94156Y295207D01*
X94167Y295221D01*
X94183Y295245D01*
X94200Y295275D01*
X94216Y295316D01*
X94232Y295363D01*
X94243Y295415D01*
X94246Y295475D01*
Y295499D01*
X94243Y295527D01*
X94238Y295559D01*
X94230Y295598D01*
X94219Y295638D01*
X94205Y295682D01*
X94183Y295723D01*
X94181Y295729D01*
X94172Y295742D01*
X94156Y295761D01*
X94137Y295786D01*
X94112Y295813D01*
X94082Y295843D01*
X94047Y295873D01*
X94009Y295901D01*
X94003Y295903D01*
X93989Y295912D01*
X93965Y295925D01*
X93929Y295941D01*
X93888Y295958D01*
X93839Y295977D01*
X93779Y295996D01*
X93714Y296015D01*
X93711D01*
X93706Y296018D01*
X93695Y296021D01*
X93681Y296023D01*
X93665Y296026D01*
X93646Y296029D01*
X93621Y296034D01*
X93596Y296040D01*
X93539Y296048D01*
X93476Y296054D01*
X93408Y296059D01*
X93337Y296062D01*
X93332D01*
X93321D01*
X93302D01*
X93277D01*
X93280Y296056D01*
X93288Y296054D01*
X93299Y296045D01*
X93326Y296023D01*
X93359Y295996D01*
X93397Y295958D01*
X93438Y295914D01*
X93476Y295865D01*
X93515Y295808D01*
Y295805D01*
X93517Y295800D01*
X93523Y295791D01*
X93528Y295780D01*
X93536Y295764D01*
X93542Y295748D01*
X93558Y295704D01*
X93577Y295652D01*
X93591Y295592D01*
X93602Y295527D01*
X93605Y295458D01*
Y295445D01*
X93602Y295428D01*
Y295407D01*
X93596Y295379D01*
X93594Y295349D01*
X93585Y295314D01*
X93577Y295275D01*
X93564Y295234D01*
X93550Y295194D01*
X93531Y295150D01*
X93509Y295106D01*
X93484Y295060D01*
X93454Y295016D01*
X93419Y294972D01*
X93381Y294931D01*
X93378Y294929D01*
X93370Y294923D01*
X93356Y294912D01*
X93340Y294899D01*
X93318Y294882D01*
X93291Y294863D01*
X93258Y294844D01*
X93220Y294825D01*
X93181Y294803D01*
X93135Y294784D01*
X93086Y294765D01*
X93034Y294748D01*
X92977Y294735D01*
X92914Y294724D01*
X92851Y294719D01*
X92783Y294716D01*
X92777D01*
X92766D01*
X92745Y294719D01*
X92720D01*
X92687Y294724D01*
X92649Y294727D01*
X92608Y294735D01*
X92562Y294743D01*
X92515Y294757D01*
X92463Y294770D01*
X92412Y294790D01*
X92362Y294811D01*
X92311Y294836D01*
X92259Y294866D01*
X92212Y294901D01*
X92166Y294940D01*
X92163Y294942D01*
X92155Y294951D01*
X92144Y294964D01*
X92130Y294981D01*
X92111Y295002D01*
X92092Y295030D01*
X92070Y295060D01*
X92049Y295095D01*
X92027Y295133D01*
X92005Y295177D01*
X91986Y295223D01*
X91967Y295273D01*
X91953Y295327D01*
X91942Y295385D01*
X91934Y295442D01*
X91931Y295505D01*
Y295529D01*
X91934Y295546D01*
Y295567D01*
X91939Y295592D01*
X91942Y295622D01*
X91948Y295652D01*
X91964Y295723D01*
X91988Y295797D01*
X92002Y295835D01*
X92021Y295876D01*
X92040Y295914D01*
X92065Y295953D01*
X92068Y295955D01*
X92070Y295961D01*
X92079Y295972D01*
X92089Y295985D01*
X92103Y296004D01*
X92119Y296023D01*
X92139Y296045D01*
X92160Y296067D01*
X92185Y296092D01*
X92215Y296119D01*
X92245Y296144D01*
X92278Y296171D01*
X92316Y296195D01*
X92354Y296220D01*
X92398Y296242D01*
X92442Y296264D01*
X92444D01*
X92453Y296269D01*
X92466Y296275D01*
X92488Y296280D01*
X92513Y296288D01*
X92543Y296296D01*
X92578Y296307D01*
X92622Y296318D01*
X92668Y296326D01*
X92720Y296337D01*
X92780Y296346D01*
X92843Y296354D01*
X92911Y296359D01*
X92985Y296365D01*
X93064Y296370D01*
X93149D01*
X93154D01*
X93170D01*
X93195D01*
X93228Y296367D01*
D02*
G37*
G36*
X94459Y292715D02*
X94454D01*
X94440D01*
X94418D01*
X94391Y292717D01*
X94358Y292720D01*
X94323Y292728D01*
X94284Y292737D01*
X94246Y292750D01*
X94243D01*
X94238Y292753D01*
X94230Y292756D01*
X94216Y292761D01*
X94203Y292769D01*
X94183Y292777D01*
X94140Y292799D01*
X94088Y292827D01*
X94030Y292862D01*
X93970Y292903D01*
X93910Y292952D01*
X93908Y292955D01*
X93902Y292958D01*
X93894Y292966D01*
X93880Y292980D01*
X93867Y292993D01*
X93848Y293012D01*
X93826Y293031D01*
X93801Y293056D01*
X93774Y293083D01*
X93747Y293113D01*
X93714Y293146D01*
X93681Y293184D01*
X93646Y293222D01*
X93610Y293266D01*
X93572Y293310D01*
X93531Y293359D01*
X93528Y293364D01*
X93515Y293378D01*
X93498Y293397D01*
X93474Y293425D01*
X93446Y293457D01*
X93414Y293495D01*
X93378Y293539D01*
X93337Y293583D01*
X93252Y293676D01*
X93162Y293766D01*
X93119Y293809D01*
X93075Y293850D01*
X93034Y293886D01*
X92996Y293916D01*
X92993Y293919D01*
X92988Y293921D01*
X92977Y293930D01*
X92963Y293938D01*
X92944Y293951D01*
X92925Y293962D01*
X92876Y293990D01*
X92818Y294017D01*
X92756Y294041D01*
X92690Y294058D01*
X92657Y294061D01*
X92624Y294063D01*
X92622D01*
X92616D01*
X92605D01*
X92594Y294061D01*
X92578D01*
X92559Y294055D01*
X92518Y294047D01*
X92469Y294030D01*
X92417Y294006D01*
X92390Y293992D01*
X92365Y293973D01*
X92341Y293954D01*
X92316Y293930D01*
X92313Y293927D01*
X92311Y293924D01*
X92305Y293916D01*
X92297Y293905D01*
X92286Y293891D01*
X92275Y293875D01*
X92251Y293837D01*
X92229Y293785D01*
X92207Y293727D01*
X92193Y293659D01*
X92188Y293621D01*
Y293561D01*
X92190Y293545D01*
Y293526D01*
X92196Y293504D01*
X92204Y293455D01*
X92220Y293397D01*
X92245Y293337D01*
X92261Y293307D01*
X92278Y293277D01*
X92300Y293250D01*
X92324Y293222D01*
X92327Y293220D01*
X92330Y293217D01*
X92338Y293212D01*
X92349Y293201D01*
X92362Y293192D01*
X92379Y293181D01*
X92398Y293168D01*
X92420Y293157D01*
X92444Y293143D01*
X92472Y293132D01*
X92537Y293110D01*
X92608Y293094D01*
X92649Y293091D01*
X92693Y293089D01*
X92660Y292772D01*
X92655D01*
X92644Y292775D01*
X92627Y292777D01*
X92603Y292780D01*
X92573Y292786D01*
X92537Y292794D01*
X92499Y292802D01*
X92458Y292816D01*
X92417Y292829D01*
X92371Y292846D01*
X92327Y292868D01*
X92283Y292889D01*
X92237Y292917D01*
X92196Y292947D01*
X92155Y292980D01*
X92119Y293018D01*
X92117Y293020D01*
X92111Y293029D01*
X92103Y293040D01*
X92089Y293056D01*
X92076Y293078D01*
X92059Y293105D01*
X92043Y293135D01*
X92024Y293171D01*
X92008Y293209D01*
X91991Y293252D01*
X91975Y293299D01*
X91961Y293351D01*
X91948Y293405D01*
X91939Y293463D01*
X91934Y293526D01*
X91931Y293591D01*
Y293626D01*
X91934Y293651D01*
X91937Y293681D01*
X91942Y293717D01*
X91948Y293758D01*
X91956Y293798D01*
X91967Y293845D01*
X91980Y293891D01*
X91997Y293940D01*
X92016Y293987D01*
X92040Y294036D01*
X92068Y294082D01*
X92098Y294126D01*
X92133Y294167D01*
X92136Y294170D01*
X92141Y294175D01*
X92155Y294186D01*
X92169Y294200D01*
X92188Y294216D01*
X92212Y294235D01*
X92240Y294254D01*
X92272Y294273D01*
X92305Y294293D01*
X92343Y294312D01*
X92384Y294331D01*
X92428Y294347D01*
X92477Y294361D01*
X92526Y294372D01*
X92578Y294377D01*
X92633Y294380D01*
X92636D01*
X92638D01*
X92646D01*
X92657D01*
X92687Y294377D01*
X92725Y294372D01*
X92772Y294364D01*
X92821Y294353D01*
X92876Y294339D01*
X92930Y294317D01*
X92933D01*
X92936Y294315D01*
X92944Y294312D01*
X92955Y294306D01*
X92985Y294290D01*
X93023Y294268D01*
X93069Y294238D01*
X93121Y294202D01*
X93176Y294162D01*
X93236Y294110D01*
X93239Y294107D01*
X93244Y294104D01*
X93252Y294093D01*
X93266Y294082D01*
X93283Y294066D01*
X93302Y294047D01*
X93326Y294025D01*
X93351Y293998D01*
X93381Y293965D01*
X93414Y293930D01*
X93452Y293891D01*
X93490Y293848D01*
X93534Y293801D01*
X93577Y293749D01*
X93626Y293692D01*
X93678Y293632D01*
X93681Y293629D01*
X93689Y293621D01*
X93700Y293605D01*
X93717Y293588D01*
X93736Y293564D01*
X93757Y293539D01*
X93807Y293482D01*
X93858Y293422D01*
X93913Y293364D01*
X93938Y293337D01*
X93959Y293313D01*
X93981Y293291D01*
X93998Y293274D01*
X94001Y293272D01*
X94011Y293261D01*
X94028Y293247D01*
X94050Y293228D01*
X94074Y293206D01*
X94102Y293184D01*
X94161Y293141D01*
Y294383D01*
X94459D01*
Y292715D01*
D02*
G37*
G36*
X93678Y292466D02*
X93697Y292461D01*
X93727Y292450D01*
X93760Y292439D01*
X93801Y292423D01*
X93845Y292406D01*
X93891Y292384D01*
X93943Y292360D01*
X93992Y292333D01*
X94047Y292302D01*
X94099Y292267D01*
X94148Y292229D01*
X94197Y292188D01*
X94243Y292141D01*
X94287Y292092D01*
X94290Y292090D01*
X94295Y292079D01*
X94306Y292065D01*
X94320Y292043D01*
X94336Y292019D01*
X94355Y291986D01*
X94375Y291950D01*
X94394Y291907D01*
X94413Y291860D01*
X94432Y291811D01*
X94451Y291756D01*
X94467Y291696D01*
X94481Y291634D01*
X94492Y291568D01*
X94497Y291500D01*
X94500Y291426D01*
Y291388D01*
X94497Y291358D01*
X94495Y291325D01*
X94492Y291284D01*
X94486Y291241D01*
X94478Y291191D01*
X94470Y291140D01*
X94459Y291085D01*
X94445Y291030D01*
X94432Y290976D01*
X94413Y290918D01*
X94391Y290864D01*
X94366Y290812D01*
X94336Y290763D01*
X94333Y290760D01*
X94328Y290752D01*
X94320Y290738D01*
X94306Y290722D01*
X94287Y290700D01*
X94268Y290675D01*
X94243Y290648D01*
X94213Y290618D01*
X94181Y290588D01*
X94145Y290555D01*
X94107Y290525D01*
X94063Y290493D01*
X94017Y290460D01*
X93968Y290430D01*
X93913Y290402D01*
X93856Y290375D01*
X93853Y290372D01*
X93842Y290370D01*
X93823Y290364D01*
X93801Y290356D01*
X93771Y290345D01*
X93738Y290334D01*
X93697Y290323D01*
X93654Y290310D01*
X93605Y290299D01*
X93553Y290285D01*
X93498Y290274D01*
X93438Y290266D01*
X93313Y290249D01*
X93247Y290247D01*
X93181Y290244D01*
X93176D01*
X93165D01*
X93143D01*
X93116Y290247D01*
X93080Y290249D01*
X93040Y290252D01*
X92996Y290258D01*
X92947Y290263D01*
X92895Y290271D01*
X92840Y290280D01*
X92723Y290307D01*
X92665Y290326D01*
X92608Y290345D01*
X92548Y290367D01*
X92493Y290394D01*
X92491Y290397D01*
X92480Y290402D01*
X92466Y290411D01*
X92444Y290422D01*
X92420Y290438D01*
X92392Y290457D01*
X92362Y290479D01*
X92327Y290503D01*
X92294Y290533D01*
X92256Y290563D01*
X92220Y290599D01*
X92182Y290637D01*
X92147Y290678D01*
X92111Y290722D01*
X92079Y290771D01*
X92049Y290820D01*
X92046Y290823D01*
X92043Y290834D01*
X92035Y290847D01*
X92024Y290869D01*
X92013Y290894D01*
X91999Y290927D01*
X91986Y290962D01*
X91972Y291000D01*
X91958Y291044D01*
X91945Y291093D01*
X91931Y291142D01*
X91920Y291197D01*
X91901Y291309D01*
X91898Y291369D01*
X91896Y291432D01*
Y291467D01*
X91898Y291494D01*
X91901Y291527D01*
X91906Y291565D01*
X91912Y291606D01*
X91920Y291653D01*
X91931Y291702D01*
X91942Y291754D01*
X91958Y291806D01*
X91978Y291860D01*
X91999Y291915D01*
X92027Y291967D01*
X92054Y292019D01*
X92089Y292068D01*
X92092Y292070D01*
X92098Y292079D01*
X92109Y292092D01*
X92125Y292109D01*
X92144Y292130D01*
X92169Y292155D01*
X92196Y292180D01*
X92229Y292210D01*
X92264Y292240D01*
X92305Y292270D01*
X92349Y292300D01*
X92398Y292327D01*
X92450Y292357D01*
X92507Y292382D01*
X92567Y292406D01*
X92630Y292428D01*
X92706Y292100D01*
X92704D01*
X92695Y292095D01*
X92679Y292092D01*
X92660Y292084D01*
X92638Y292076D01*
X92614Y292062D01*
X92554Y292035D01*
X92488Y291999D01*
X92420Y291953D01*
X92357Y291904D01*
X92330Y291874D01*
X92305Y291844D01*
X92302Y291841D01*
X92300Y291836D01*
X92294Y291827D01*
X92286Y291814D01*
X92275Y291797D01*
X92264Y291778D01*
X92253Y291756D01*
X92242Y291729D01*
X92231Y291699D01*
X92220Y291669D01*
X92199Y291598D01*
X92185Y291516D01*
X92180Y291473D01*
Y291399D01*
X92182Y291377D01*
X92185Y291352D01*
X92188Y291322D01*
X92190Y291290D01*
X92196Y291257D01*
X92215Y291178D01*
X92240Y291096D01*
X92256Y291055D01*
X92275Y291014D01*
X92297Y290976D01*
X92321Y290937D01*
X92324Y290935D01*
X92327Y290929D01*
X92335Y290918D01*
X92346Y290905D01*
X92360Y290891D01*
X92379Y290872D01*
X92398Y290853D01*
X92420Y290831D01*
X92447Y290809D01*
X92474Y290785D01*
X92537Y290741D01*
X92611Y290700D01*
X92695Y290664D01*
X92698D01*
X92706Y290662D01*
X92720Y290656D01*
X92737Y290653D01*
X92758Y290648D01*
X92783Y290640D01*
X92813Y290634D01*
X92843Y290626D01*
X92878Y290618D01*
X92917Y290613D01*
X92998Y290599D01*
X93086Y290591D01*
X93179Y290588D01*
X93181D01*
X93192D01*
X93209D01*
X93233Y290591D01*
X93261D01*
X93293Y290594D01*
X93329Y290596D01*
X93370Y290599D01*
X93414Y290604D01*
X93457Y290610D01*
X93553Y290626D01*
X93648Y290651D01*
X93741Y290681D01*
X93744D01*
X93752Y290686D01*
X93763Y290692D01*
X93779Y290697D01*
X93801Y290708D01*
X93823Y290722D01*
X93875Y290752D01*
X93935Y290793D01*
X93992Y290842D01*
X94050Y290902D01*
X94074Y290935D01*
X94099Y290970D01*
Y290973D01*
X94104Y290978D01*
X94110Y290989D01*
X94118Y291006D01*
X94126Y291025D01*
X94137Y291047D01*
X94145Y291071D01*
X94156Y291098D01*
X94178Y291161D01*
X94197Y291235D01*
X94211Y291314D01*
X94213Y291355D01*
X94216Y291399D01*
Y291426D01*
X94213Y291445D01*
X94211Y291470D01*
X94208Y291497D01*
X94203Y291530D01*
X94197Y291563D01*
X94178Y291639D01*
X94164Y291677D01*
X94148Y291718D01*
X94129Y291759D01*
X94107Y291797D01*
X94082Y291836D01*
X94055Y291874D01*
X94052Y291877D01*
X94047Y291882D01*
X94039Y291893D01*
X94025Y291907D01*
X94009Y291920D01*
X93987Y291939D01*
X93962Y291958D01*
X93935Y291980D01*
X93902Y292002D01*
X93867Y292024D01*
X93828Y292046D01*
X93785Y292068D01*
X93738Y292087D01*
X93686Y292106D01*
X93632Y292125D01*
X93575Y292139D01*
X93659Y292472D01*
X93665D01*
X93678Y292466D01*
D02*
G37*
G36*
X170250Y308302D02*
X170283Y308299D01*
X170321Y308293D01*
X170362Y308288D01*
X170409Y308280D01*
X170458Y308269D01*
X170510Y308258D01*
X170562Y308242D01*
X170616Y308223D01*
X170671Y308201D01*
X170723Y308173D01*
X170774Y308146D01*
X170824Y308110D01*
X170826Y308108D01*
X170835Y308102D01*
X170848Y308091D01*
X170864Y308075D01*
X170886Y308056D01*
X170911Y308031D01*
X170935Y308004D01*
X170966Y307971D01*
X170996Y307936D01*
X171026Y307895D01*
X171056Y307851D01*
X171083Y307802D01*
X171113Y307750D01*
X171137Y307693D01*
X171162Y307633D01*
X171184Y307570D01*
X170856Y307494D01*
Y307496D01*
X170851Y307505D01*
X170848Y307521D01*
X170840Y307540D01*
X170832Y307562D01*
X170818Y307586D01*
X170791Y307646D01*
X170755Y307712D01*
X170709Y307780D01*
X170660Y307843D01*
X170630Y307870D01*
X170600Y307895D01*
X170597Y307898D01*
X170591Y307900D01*
X170583Y307906D01*
X170570Y307914D01*
X170553Y307925D01*
X170534Y307936D01*
X170512Y307947D01*
X170485Y307958D01*
X170455Y307969D01*
X170425Y307979D01*
X170354Y308001D01*
X170272Y308015D01*
X170228Y308020D01*
X170155D01*
X170133Y308018D01*
X170108Y308015D01*
X170078Y308012D01*
X170045Y308010D01*
X170013Y308004D01*
X169934Y307985D01*
X169852Y307960D01*
X169811Y307944D01*
X169770Y307925D01*
X169732Y307903D01*
X169693Y307878D01*
X169691Y307876D01*
X169685Y307873D01*
X169674Y307865D01*
X169661Y307854D01*
X169647Y307840D01*
X169628Y307821D01*
X169609Y307802D01*
X169587Y307780D01*
X169565Y307753D01*
X169541Y307726D01*
X169497Y307663D01*
X169456Y307589D01*
X169420Y307505D01*
Y307502D01*
X169418Y307494D01*
X169412Y307480D01*
X169409Y307464D01*
X169404Y307442D01*
X169396Y307417D01*
X169390Y307387D01*
X169382Y307357D01*
X169374Y307322D01*
X169369Y307283D01*
X169355Y307202D01*
X169347Y307114D01*
X169344Y307021D01*
Y307018D01*
Y307008D01*
Y306991D01*
X169347Y306967D01*
Y306939D01*
X169349Y306907D01*
X169352Y306871D01*
X169355Y306830D01*
X169360Y306786D01*
X169366Y306743D01*
X169382Y306647D01*
X169407Y306552D01*
X169437Y306459D01*
Y306456D01*
X169442Y306448D01*
X169448Y306437D01*
X169453Y306421D01*
X169464Y306399D01*
X169478Y306377D01*
X169508Y306325D01*
X169549Y306265D01*
X169598Y306208D01*
X169658Y306150D01*
X169691Y306126D01*
X169726Y306101D01*
X169729D01*
X169734Y306096D01*
X169745Y306090D01*
X169762Y306082D01*
X169781Y306074D01*
X169803Y306063D01*
X169827Y306055D01*
X169854Y306044D01*
X169917Y306022D01*
X169991Y306003D01*
X170070Y305989D01*
X170111Y305987D01*
X170155Y305984D01*
X170182D01*
X170201Y305987D01*
X170226Y305989D01*
X170253Y305992D01*
X170286Y305997D01*
X170318Y306003D01*
X170395Y306022D01*
X170433Y306036D01*
X170474Y306052D01*
X170515Y306071D01*
X170553Y306093D01*
X170591Y306118D01*
X170630Y306145D01*
X170633Y306148D01*
X170638Y306153D01*
X170649Y306161D01*
X170662Y306175D01*
X170676Y306191D01*
X170695Y306213D01*
X170714Y306238D01*
X170736Y306265D01*
X170758Y306298D01*
X170780Y306333D01*
X170802Y306371D01*
X170824Y306415D01*
X170843Y306462D01*
X170862Y306514D01*
X170881Y306568D01*
X170895Y306625D01*
X171228Y306541D01*
Y306535D01*
X171222Y306522D01*
X171217Y306503D01*
X171206Y306472D01*
X171195Y306440D01*
X171178Y306399D01*
X171162Y306355D01*
X171140Y306309D01*
X171116Y306257D01*
X171088Y306208D01*
X171058Y306153D01*
X171023Y306101D01*
X170985Y306052D01*
X170944Y306003D01*
X170897Y305957D01*
X170848Y305913D01*
X170845Y305910D01*
X170835Y305905D01*
X170821Y305894D01*
X170799Y305880D01*
X170774Y305864D01*
X170742Y305845D01*
X170706Y305825D01*
X170662Y305806D01*
X170616Y305787D01*
X170567Y305768D01*
X170512Y305749D01*
X170452Y305733D01*
X170389Y305719D01*
X170324Y305708D01*
X170256Y305703D01*
X170182Y305700D01*
X170144D01*
X170114Y305703D01*
X170081Y305705D01*
X170040Y305708D01*
X169996Y305714D01*
X169947Y305722D01*
X169895Y305730D01*
X169841Y305741D01*
X169786Y305755D01*
X169732Y305768D01*
X169674Y305787D01*
X169620Y305809D01*
X169568Y305834D01*
X169519Y305864D01*
X169516Y305867D01*
X169508Y305872D01*
X169494Y305880D01*
X169478Y305894D01*
X169456Y305913D01*
X169431Y305932D01*
X169404Y305957D01*
X169374Y305987D01*
X169344Y306019D01*
X169311Y306055D01*
X169281Y306093D01*
X169248Y306137D01*
X169216Y306183D01*
X169186Y306232D01*
X169158Y306287D01*
X169131Y306344D01*
X169128Y306347D01*
X169125Y306358D01*
X169120Y306377D01*
X169112Y306399D01*
X169101Y306429D01*
X169090Y306462D01*
X169079Y306503D01*
X169065Y306546D01*
X169054Y306595D01*
X169041Y306647D01*
X169030Y306702D01*
X169022Y306762D01*
X169005Y306888D01*
X169003Y306953D01*
X169000Y307018D01*
Y307024D01*
Y307035D01*
Y307057D01*
X169003Y307084D01*
X169005Y307119D01*
X169008Y307160D01*
X169014Y307204D01*
X169019Y307253D01*
X169027Y307305D01*
X169035Y307360D01*
X169063Y307477D01*
X169082Y307535D01*
X169101Y307592D01*
X169123Y307652D01*
X169150Y307706D01*
X169153Y307709D01*
X169158Y307720D01*
X169167Y307734D01*
X169177Y307756D01*
X169194Y307780D01*
X169213Y307807D01*
X169235Y307838D01*
X169259Y307873D01*
X169289Y307906D01*
X169319Y307944D01*
X169355Y307979D01*
X169393Y308018D01*
X169434Y308053D01*
X169478Y308089D01*
X169527Y308121D01*
X169576Y308152D01*
X169579Y308154D01*
X169590Y308157D01*
X169603Y308165D01*
X169625Y308176D01*
X169650Y308187D01*
X169682Y308201D01*
X169718Y308214D01*
X169756Y308228D01*
X169800Y308242D01*
X169849Y308255D01*
X169898Y308269D01*
X169953Y308280D01*
X170065Y308299D01*
X170125Y308302D01*
X170187Y308304D01*
X170223D01*
X170250Y308302D01*
D02*
G37*
G36*
X173065Y307933D02*
X172057D01*
X171924Y307256D01*
X171926Y307259D01*
X171935Y307264D01*
X171946Y307270D01*
X171962Y307281D01*
X171984Y307292D01*
X172008Y307305D01*
X172036Y307322D01*
X172069Y307335D01*
X172101Y307349D01*
X172140Y307365D01*
X172219Y307390D01*
X172262Y307401D01*
X172306Y307409D01*
X172352Y307412D01*
X172399Y307414D01*
X172412D01*
X172432Y307412D01*
X172453D01*
X172481Y307406D01*
X172513Y307403D01*
X172552Y307395D01*
X172590Y307387D01*
X172634Y307373D01*
X172677Y307360D01*
X172724Y307341D01*
X172770Y307319D01*
X172817Y307292D01*
X172863Y307261D01*
X172909Y307226D01*
X172953Y307185D01*
X172956Y307182D01*
X172964Y307174D01*
X172975Y307160D01*
X172988Y307144D01*
X173008Y307122D01*
X173027Y307092D01*
X173046Y307062D01*
X173068Y307027D01*
X173090Y306986D01*
X173109Y306939D01*
X173130Y306893D01*
X173147Y306838D01*
X173161Y306784D01*
X173171Y306724D01*
X173180Y306661D01*
X173182Y306595D01*
Y306593D01*
Y306579D01*
Y306563D01*
X173180Y306538D01*
X173177Y306508D01*
X173171Y306475D01*
X173166Y306437D01*
X173158Y306393D01*
X173147Y306350D01*
X173133Y306301D01*
X173117Y306251D01*
X173098Y306202D01*
X173076Y306153D01*
X173048Y306101D01*
X173019Y306052D01*
X172983Y306006D01*
X172980Y306003D01*
X172972Y305992D01*
X172958Y305978D01*
X172939Y305959D01*
X172915Y305935D01*
X172885Y305910D01*
X172849Y305880D01*
X172808Y305853D01*
X172765Y305825D01*
X172715Y305796D01*
X172661Y305771D01*
X172601Y305749D01*
X172538Y305727D01*
X172470Y305714D01*
X172399Y305703D01*
X172322Y305700D01*
X172290D01*
X172265Y305703D01*
X172235Y305705D01*
X172202Y305711D01*
X172164Y305716D01*
X172123Y305725D01*
X172079Y305733D01*
X172033Y305746D01*
X171987Y305763D01*
X171940Y305782D01*
X171894Y305804D01*
X171847Y305828D01*
X171804Y305858D01*
X171760Y305891D01*
X171757Y305894D01*
X171752Y305899D01*
X171741Y305910D01*
X171727Y305926D01*
X171708Y305946D01*
X171689Y305967D01*
X171670Y305995D01*
X171648Y306028D01*
X171626Y306060D01*
X171604Y306099D01*
X171585Y306142D01*
X171566Y306186D01*
X171547Y306235D01*
X171533Y306287D01*
X171522Y306344D01*
X171514Y306402D01*
X171839Y306426D01*
Y306423D01*
X171842Y306415D01*
X171845Y306404D01*
X171847Y306388D01*
X171850Y306369D01*
X171858Y306344D01*
X171872Y306292D01*
X171894Y306235D01*
X171924Y306175D01*
X171959Y306120D01*
X171981Y306096D01*
X172003Y306071D01*
X172006D01*
X172008Y306066D01*
X172017Y306060D01*
X172028Y306052D01*
X172055Y306033D01*
X172093Y306014D01*
X172140Y305992D01*
X172194Y305973D01*
X172254Y305959D01*
X172287Y305957D01*
X172322Y305954D01*
X172344D01*
X172361Y305957D01*
X172380Y305959D01*
X172401Y305962D01*
X172453Y305976D01*
X172513Y305995D01*
X172544Y306008D01*
X172576Y306025D01*
X172609Y306044D01*
X172639Y306066D01*
X172669Y306090D01*
X172699Y306120D01*
X172702Y306123D01*
X172705Y306129D01*
X172713Y306137D01*
X172724Y306150D01*
X172735Y306170D01*
X172748Y306189D01*
X172762Y306213D01*
X172778Y306241D01*
X172792Y306271D01*
X172806Y306303D01*
X172819Y306342D01*
X172830Y306380D01*
X172841Y306423D01*
X172849Y306470D01*
X172852Y306516D01*
X172855Y306568D01*
Y306571D01*
Y306579D01*
Y306593D01*
X172852Y306612D01*
X172849Y306634D01*
X172846Y306661D01*
X172841Y306688D01*
X172836Y306721D01*
X172819Y306786D01*
X172792Y306857D01*
X172775Y306890D01*
X172754Y306923D01*
X172732Y306956D01*
X172705Y306986D01*
X172702Y306989D01*
X172699Y306991D01*
X172688Y306999D01*
X172677Y307010D01*
X172664Y307021D01*
X172644Y307035D01*
X172625Y307049D01*
X172601Y307065D01*
X172573Y307079D01*
X172546Y307092D01*
X172478Y307117D01*
X172442Y307128D01*
X172401Y307136D01*
X172361Y307139D01*
X172317Y307141D01*
X172292D01*
X172262Y307139D01*
X172227Y307133D01*
X172183Y307125D01*
X172137Y307111D01*
X172090Y307095D01*
X172044Y307070D01*
X172038Y307068D01*
X172025Y307060D01*
X172003Y307043D01*
X171976Y307024D01*
X171948Y306997D01*
X171916Y306967D01*
X171886Y306931D01*
X171858Y306893D01*
X171569Y306934D01*
X171812Y308228D01*
X173065D01*
Y307933D01*
D02*
G37*
G36*
X178456Y371928D02*
X178451D01*
X178437D01*
X178415D01*
X178388Y371931D01*
X178355Y371934D01*
X178320Y371942D01*
X178282Y371950D01*
X178243Y371964D01*
X178241D01*
X178235Y371966D01*
X178227Y371969D01*
X178213Y371974D01*
X178200Y371983D01*
X178181Y371991D01*
X178137Y372013D01*
X178085Y372040D01*
X178028Y372075D01*
X177968Y372116D01*
X177908Y372165D01*
X177905Y372168D01*
X177900Y372171D01*
X177891Y372179D01*
X177878Y372193D01*
X177864Y372206D01*
X177845Y372226D01*
X177823Y372245D01*
X177798Y372269D01*
X177771Y372297D01*
X177744Y372327D01*
X177711Y372359D01*
X177678Y372398D01*
X177643Y372436D01*
X177607Y372480D01*
X177569Y372523D01*
X177528Y372572D01*
X177525Y372578D01*
X177512Y372591D01*
X177495Y372610D01*
X177471Y372638D01*
X177444Y372671D01*
X177411Y372709D01*
X177375Y372752D01*
X177334Y372796D01*
X177250Y372889D01*
X177160Y372979D01*
X177116Y373023D01*
X177072Y373064D01*
X177031Y373099D01*
X176993Y373129D01*
X176990Y373132D01*
X176985Y373135D01*
X176974Y373143D01*
X176960Y373151D01*
X176941Y373165D01*
X176922Y373176D01*
X176873Y373203D01*
X176816Y373230D01*
X176753Y373255D01*
X176687Y373271D01*
X176655Y373274D01*
X176622Y373277D01*
X176619D01*
X176614D01*
X176603D01*
X176592Y373274D01*
X176575D01*
X176556Y373268D01*
X176515Y373260D01*
X176466Y373244D01*
X176414Y373219D01*
X176387Y373206D01*
X176363Y373186D01*
X176338Y373167D01*
X176313Y373143D01*
X176311Y373140D01*
X176308Y373137D01*
X176302Y373129D01*
X176294Y373118D01*
X176283Y373105D01*
X176272Y373088D01*
X176248Y373050D01*
X176226Y372998D01*
X176204Y372941D01*
X176190Y372873D01*
X176185Y372834D01*
Y372774D01*
X176188Y372758D01*
Y372739D01*
X176193Y372717D01*
X176201Y372668D01*
X176218Y372610D01*
X176242Y372551D01*
X176259Y372520D01*
X176275Y372490D01*
X176297Y372463D01*
X176321Y372436D01*
X176324Y372433D01*
X176327Y372430D01*
X176335Y372425D01*
X176346Y372414D01*
X176360Y372406D01*
X176376Y372395D01*
X176395Y372381D01*
X176417Y372370D01*
X176442Y372357D01*
X176469Y372346D01*
X176534Y372324D01*
X176605Y372307D01*
X176646Y372305D01*
X176690Y372302D01*
X176657Y371985D01*
X176652D01*
X176641Y371988D01*
X176625Y371991D01*
X176600Y371993D01*
X176570Y371999D01*
X176534Y372007D01*
X176496Y372015D01*
X176455Y372029D01*
X176414Y372043D01*
X176368Y372059D01*
X176324Y372081D01*
X176281Y372103D01*
X176234Y372130D01*
X176193Y372160D01*
X176152Y372193D01*
X176117Y372231D01*
X176114Y372234D01*
X176109Y372242D01*
X176100Y372253D01*
X176087Y372269D01*
X176073Y372291D01*
X176057Y372318D01*
X176040Y372348D01*
X176021Y372384D01*
X176005Y372422D01*
X175988Y372466D01*
X175972Y372512D01*
X175958Y372564D01*
X175945Y372619D01*
X175937Y372676D01*
X175931Y372739D01*
X175928Y372804D01*
Y372840D01*
X175931Y372864D01*
X175934Y372894D01*
X175939Y372930D01*
X175945Y372971D01*
X175953Y373012D01*
X175964Y373058D01*
X175978Y373105D01*
X175994Y373154D01*
X176013Y373200D01*
X176038Y373249D01*
X176065Y373296D01*
X176095Y373339D01*
X176130Y373380D01*
X176133Y373383D01*
X176139Y373389D01*
X176152Y373399D01*
X176166Y373413D01*
X176185Y373429D01*
X176210Y373449D01*
X176237Y373468D01*
X176270Y373487D01*
X176302Y373506D01*
X176341Y373525D01*
X176382Y373544D01*
X176425Y373561D01*
X176474Y373574D01*
X176523Y373585D01*
X176575Y373591D01*
X176630Y373593D01*
X176633D01*
X176636D01*
X176644D01*
X176655D01*
X176685Y373591D01*
X176723Y373585D01*
X176769Y373577D01*
X176818Y373566D01*
X176873Y373552D01*
X176928Y373531D01*
X176930D01*
X176933Y373528D01*
X176941Y373525D01*
X176952Y373520D01*
X176982Y373503D01*
X177020Y373481D01*
X177067Y373451D01*
X177119Y373416D01*
X177173Y373375D01*
X177233Y373323D01*
X177236Y373320D01*
X177242Y373318D01*
X177250Y373307D01*
X177263Y373296D01*
X177280Y373279D01*
X177299Y373260D01*
X177323Y373238D01*
X177348Y373211D01*
X177378Y373178D01*
X177411Y373143D01*
X177449Y373105D01*
X177487Y373061D01*
X177531Y373015D01*
X177575Y372963D01*
X177624Y372905D01*
X177676Y372845D01*
X177678Y372843D01*
X177687Y372834D01*
X177697Y372818D01*
X177714Y372802D01*
X177733Y372777D01*
X177755Y372752D01*
X177804Y372695D01*
X177856Y372635D01*
X177910Y372578D01*
X177935Y372551D01*
X177957Y372526D01*
X177979Y372504D01*
X177995Y372488D01*
X177998Y372485D01*
X178009Y372474D01*
X178025Y372460D01*
X178047Y372441D01*
X178071Y372419D01*
X178099Y372398D01*
X178159Y372354D01*
Y373596D01*
X178456D01*
Y371928D01*
D02*
G37*
G36*
X177747Y371660D02*
X177768D01*
X177798Y371655D01*
X177831Y371650D01*
X177867Y371644D01*
X177908Y371633D01*
X177951Y371620D01*
X177995Y371603D01*
X178041Y371584D01*
X178088Y371560D01*
X178137Y371532D01*
X178183Y371499D01*
X178230Y371464D01*
X178273Y371420D01*
X178276Y371417D01*
X178284Y371409D01*
X178295Y371396D01*
X178309Y371376D01*
X178325Y371355D01*
X178344Y371325D01*
X178366Y371292D01*
X178385Y371254D01*
X178407Y371213D01*
X178429Y371166D01*
X178448Y371117D01*
X178465Y371063D01*
X178478Y371005D01*
X178489Y370945D01*
X178497Y370882D01*
X178500Y370814D01*
Y370800D01*
X178497Y370781D01*
Y370760D01*
X178495Y370729D01*
X178489Y370697D01*
X178484Y370661D01*
X178475Y370620D01*
X178465Y370577D01*
X178451Y370533D01*
X178437Y370487D01*
X178418Y370440D01*
X178394Y370394D01*
X178369Y370350D01*
X178339Y370304D01*
X178304Y370263D01*
X178301Y370260D01*
X178295Y370254D01*
X178284Y370244D01*
X178268Y370227D01*
X178249Y370211D01*
X178224Y370192D01*
X178197Y370173D01*
X178164Y370151D01*
X178131Y370129D01*
X178091Y370107D01*
X178050Y370085D01*
X178003Y370066D01*
X177954Y370050D01*
X177902Y370033D01*
X177848Y370023D01*
X177790Y370014D01*
X177749Y370323D01*
X177752D01*
X177760Y370325D01*
X177774Y370328D01*
X177793Y370334D01*
X177815Y370339D01*
X177839Y370345D01*
X177897Y370364D01*
X177960Y370388D01*
X178022Y370418D01*
X178080Y370457D01*
X178104Y370478D01*
X178129Y370500D01*
Y370503D01*
X178134Y370506D01*
X178140Y370514D01*
X178148Y370522D01*
X178164Y370549D01*
X178186Y370588D01*
X178208Y370634D01*
X178224Y370686D01*
X178238Y370749D01*
X178243Y370814D01*
Y370836D01*
X178241Y370852D01*
X178238Y370869D01*
X178235Y370893D01*
X178224Y370942D01*
X178208Y371003D01*
X178181Y371065D01*
X178162Y371095D01*
X178142Y371125D01*
X178121Y371155D01*
X178093Y371185D01*
X178091Y371188D01*
X178085Y371191D01*
X178077Y371199D01*
X178066Y371210D01*
X178052Y371221D01*
X178033Y371232D01*
X178014Y371246D01*
X177989Y371262D01*
X177935Y371289D01*
X177872Y371311D01*
X177798Y371330D01*
X177760Y371333D01*
X177719Y371336D01*
X177717D01*
X177711D01*
X177697D01*
X177684Y371333D01*
X177665Y371330D01*
X177646Y371327D01*
X177596Y371319D01*
X177539Y371300D01*
X177482Y371275D01*
X177452Y371259D01*
X177424Y371240D01*
X177397Y371218D01*
X177370Y371194D01*
X177367Y371191D01*
X177364Y371188D01*
X177356Y371180D01*
X177348Y371169D01*
X177337Y371155D01*
X177326Y371139D01*
X177299Y371098D01*
X177274Y371046D01*
X177252Y370986D01*
X177236Y370918D01*
X177233Y370880D01*
X177231Y370842D01*
Y370825D01*
X177233Y370806D01*
Y370781D01*
X177239Y370749D01*
X177244Y370713D01*
X177252Y370670D01*
X177263Y370623D01*
X176993Y370656D01*
Y370661D01*
X176996Y370675D01*
X176999Y370691D01*
Y370727D01*
X176996Y370741D01*
Y370760D01*
X176993Y370779D01*
X176985Y370825D01*
X176974Y370880D01*
X176955Y370940D01*
X176930Y371003D01*
X176895Y371063D01*
Y371065D01*
X176889Y371071D01*
X176884Y371076D01*
X176876Y371087D01*
X176851Y371114D01*
X176816Y371145D01*
X176772Y371172D01*
X176717Y371199D01*
X176687Y371210D01*
X176652Y371216D01*
X176616Y371221D01*
X176578Y371224D01*
X176575D01*
X176570D01*
X176562D01*
X176548Y371221D01*
X176518Y371218D01*
X176477Y371210D01*
X176433Y371196D01*
X176387Y371175D01*
X176338Y371145D01*
X176316Y371128D01*
X176294Y371106D01*
X176289Y371101D01*
X176278Y371084D01*
X176259Y371060D01*
X176237Y371027D01*
X176218Y370983D01*
X176199Y370932D01*
X176188Y370874D01*
X176182Y370809D01*
Y370792D01*
X176185Y370779D01*
Y370762D01*
X176188Y370746D01*
X176196Y370702D01*
X176210Y370656D01*
X176231Y370604D01*
X176259Y370555D01*
X176297Y370506D01*
X176302Y370500D01*
X176319Y370487D01*
X176343Y370465D01*
X176382Y370443D01*
X176428Y370416D01*
X176488Y370391D01*
X176556Y370369D01*
X176636Y370353D01*
X176581Y370044D01*
X176578D01*
X176567Y370047D01*
X176551Y370050D01*
X176529Y370055D01*
X176504Y370063D01*
X176474Y370072D01*
X176442Y370082D01*
X176406Y370096D01*
X176327Y370132D01*
X176289Y370151D01*
X176248Y370175D01*
X176210Y370203D01*
X176171Y370233D01*
X176133Y370265D01*
X176100Y370301D01*
X176098Y370304D01*
X176092Y370309D01*
X176084Y370323D01*
X176073Y370336D01*
X176059Y370358D01*
X176046Y370380D01*
X176029Y370407D01*
X176013Y370440D01*
X175999Y370473D01*
X175983Y370511D01*
X175969Y370552D01*
X175956Y370596D01*
X175945Y370645D01*
X175937Y370694D01*
X175931Y370746D01*
X175928Y370800D01*
Y370836D01*
X175931Y370855D01*
X175934Y370874D01*
X175939Y370926D01*
X175950Y370983D01*
X175967Y371049D01*
X175988Y371114D01*
X176019Y371180D01*
Y371183D01*
X176021Y371188D01*
X176027Y371196D01*
X176035Y371210D01*
X176054Y371240D01*
X176081Y371278D01*
X176117Y371322D01*
X176158Y371366D01*
X176204Y371409D01*
X176259Y371447D01*
X176261D01*
X176264Y371450D01*
X176275Y371456D01*
X176286Y371461D01*
X176300Y371469D01*
X176316Y371478D01*
X176357Y371494D01*
X176406Y371510D01*
X176461Y371527D01*
X176521Y371538D01*
X176584Y371540D01*
X176586D01*
X176592D01*
X176600D01*
X176611D01*
X176644Y371535D01*
X176682Y371529D01*
X176728Y371518D01*
X176777Y371502D01*
X176829Y371480D01*
X176881Y371450D01*
X176884D01*
X176887Y371447D01*
X176903Y371434D01*
X176928Y371415D01*
X176958Y371385D01*
X176993Y371349D01*
X177029Y371303D01*
X177061Y371251D01*
X177094Y371191D01*
Y371194D01*
X177097Y371202D01*
X177100Y371213D01*
X177105Y371229D01*
X177111Y371246D01*
X177119Y371267D01*
X177140Y371319D01*
X177171Y371374D01*
X177206Y371431D01*
X177252Y371488D01*
X177310Y371538D01*
X177313Y371540D01*
X177318Y371543D01*
X177326Y371549D01*
X177340Y371557D01*
X177353Y371568D01*
X177373Y371579D01*
X177394Y371589D01*
X177422Y371600D01*
X177449Y371611D01*
X177479Y371622D01*
X177547Y371644D01*
X177626Y371658D01*
X177670Y371663D01*
X177714D01*
X177717D01*
X177727D01*
X177747Y371660D01*
D02*
G37*
G36*
X177676Y369722D02*
X177695Y369717D01*
X177725Y369706D01*
X177758Y369695D01*
X177798Y369678D01*
X177842Y369662D01*
X177889Y369640D01*
X177940Y369616D01*
X177989Y369588D01*
X178044Y369558D01*
X178096Y369523D01*
X178145Y369485D01*
X178194Y369444D01*
X178241Y369397D01*
X178284Y369348D01*
X178287Y369345D01*
X178293Y369335D01*
X178304Y369321D01*
X178317Y369299D01*
X178333Y369274D01*
X178353Y369242D01*
X178372Y369206D01*
X178391Y369163D01*
X178410Y369116D01*
X178429Y369067D01*
X178448Y369012D01*
X178465Y368952D01*
X178478Y368889D01*
X178489Y368824D01*
X178495Y368756D01*
X178497Y368682D01*
Y368644D01*
X178495Y368614D01*
X178492Y368581D01*
X178489Y368540D01*
X178484Y368496D01*
X178475Y368447D01*
X178467Y368395D01*
X178456Y368341D01*
X178443Y368286D01*
X178429Y368232D01*
X178410Y368174D01*
X178388Y368120D01*
X178364Y368068D01*
X178333Y368019D01*
X178331Y368016D01*
X178325Y368008D01*
X178317Y367994D01*
X178304Y367978D01*
X178284Y367956D01*
X178265Y367931D01*
X178241Y367904D01*
X178211Y367874D01*
X178178Y367844D01*
X178142Y367811D01*
X178104Y367781D01*
X178060Y367748D01*
X178014Y367716D01*
X177965Y367686D01*
X177910Y367658D01*
X177853Y367631D01*
X177850Y367628D01*
X177839Y367625D01*
X177820Y367620D01*
X177798Y367612D01*
X177768Y367601D01*
X177736Y367590D01*
X177695Y367579D01*
X177651Y367565D01*
X177602Y367555D01*
X177550Y367541D01*
X177495Y367530D01*
X177435Y367522D01*
X177310Y367505D01*
X177244Y367503D01*
X177179Y367500D01*
X177173D01*
X177162D01*
X177140D01*
X177113Y367503D01*
X177078Y367505D01*
X177037Y367508D01*
X176993Y367514D01*
X176944Y367519D01*
X176892Y367527D01*
X176838Y367535D01*
X176720Y367563D01*
X176663Y367582D01*
X176605Y367601D01*
X176545Y367623D01*
X176491Y367650D01*
X176488Y367653D01*
X176477Y367658D01*
X176463Y367667D01*
X176442Y367677D01*
X176417Y367694D01*
X176390Y367713D01*
X176360Y367735D01*
X176324Y367759D01*
X176292Y367789D01*
X176253Y367819D01*
X176218Y367855D01*
X176180Y367893D01*
X176144Y367934D01*
X176109Y367978D01*
X176076Y368027D01*
X176046Y368076D01*
X176043Y368079D01*
X176040Y368090D01*
X176032Y368103D01*
X176021Y368125D01*
X176010Y368150D01*
X175997Y368182D01*
X175983Y368218D01*
X175969Y368256D01*
X175956Y368300D01*
X175942Y368349D01*
X175928Y368398D01*
X175917Y368453D01*
X175898Y368565D01*
X175896Y368625D01*
X175893Y368688D01*
Y368723D01*
X175896Y368750D01*
X175898Y368783D01*
X175904Y368821D01*
X175909Y368862D01*
X175917Y368909D01*
X175928Y368958D01*
X175939Y369010D01*
X175956Y369061D01*
X175975Y369116D01*
X175997Y369171D01*
X176024Y369223D01*
X176051Y369274D01*
X176087Y369324D01*
X176090Y369326D01*
X176095Y369335D01*
X176106Y369348D01*
X176122Y369365D01*
X176141Y369386D01*
X176166Y369411D01*
X176193Y369436D01*
X176226Y369465D01*
X176261Y369496D01*
X176302Y369526D01*
X176346Y369556D01*
X176395Y369583D01*
X176447Y369613D01*
X176504Y369637D01*
X176565Y369662D01*
X176627Y369684D01*
X176704Y369356D01*
X176701D01*
X176693Y369351D01*
X176676Y369348D01*
X176657Y369340D01*
X176636Y369332D01*
X176611Y369318D01*
X176551Y369291D01*
X176485Y369255D01*
X176417Y369209D01*
X176354Y369160D01*
X176327Y369130D01*
X176302Y369100D01*
X176300Y369097D01*
X176297Y369092D01*
X176292Y369083D01*
X176283Y369070D01*
X176272Y369053D01*
X176261Y369034D01*
X176251Y369012D01*
X176240Y368985D01*
X176229Y368955D01*
X176218Y368925D01*
X176196Y368854D01*
X176182Y368772D01*
X176177Y368728D01*
Y368655D01*
X176180Y368633D01*
X176182Y368608D01*
X176185Y368578D01*
X176188Y368546D01*
X176193Y368513D01*
X176212Y368434D01*
X176237Y368352D01*
X176253Y368311D01*
X176272Y368270D01*
X176294Y368232D01*
X176319Y368193D01*
X176321Y368191D01*
X176324Y368185D01*
X176332Y368174D01*
X176343Y368161D01*
X176357Y368147D01*
X176376Y368128D01*
X176395Y368109D01*
X176417Y368087D01*
X176444Y368065D01*
X176472Y368040D01*
X176534Y367997D01*
X176608Y367956D01*
X176693Y367920D01*
X176696D01*
X176704Y367918D01*
X176717Y367912D01*
X176734Y367910D01*
X176756Y367904D01*
X176780Y367896D01*
X176810Y367890D01*
X176840Y367882D01*
X176876Y367874D01*
X176914Y367868D01*
X176996Y367855D01*
X177083Y367847D01*
X177176Y367844D01*
X177179D01*
X177190D01*
X177206D01*
X177231Y367847D01*
X177258D01*
X177291Y367849D01*
X177326Y367852D01*
X177367Y367855D01*
X177411Y367860D01*
X177454Y367866D01*
X177550Y367882D01*
X177646Y367907D01*
X177738Y367937D01*
X177741D01*
X177749Y367942D01*
X177760Y367948D01*
X177777Y367953D01*
X177798Y367964D01*
X177820Y367978D01*
X177872Y368008D01*
X177932Y368049D01*
X177989Y368098D01*
X178047Y368158D01*
X178071Y368191D01*
X178096Y368226D01*
Y368229D01*
X178102Y368234D01*
X178107Y368245D01*
X178115Y368262D01*
X178123Y368281D01*
X178134Y368303D01*
X178142Y368327D01*
X178153Y368354D01*
X178175Y368417D01*
X178194Y368491D01*
X178208Y368570D01*
X178211Y368611D01*
X178213Y368655D01*
Y368682D01*
X178211Y368701D01*
X178208Y368726D01*
X178205Y368753D01*
X178200Y368786D01*
X178194Y368818D01*
X178175Y368895D01*
X178162Y368933D01*
X178145Y368974D01*
X178126Y369015D01*
X178104Y369053D01*
X178080Y369092D01*
X178052Y369130D01*
X178050Y369132D01*
X178044Y369138D01*
X178036Y369149D01*
X178022Y369163D01*
X178006Y369176D01*
X177984Y369195D01*
X177960Y369214D01*
X177932Y369236D01*
X177900Y369258D01*
X177864Y369280D01*
X177826Y369302D01*
X177782Y369324D01*
X177736Y369343D01*
X177684Y369362D01*
X177629Y369381D01*
X177572Y369395D01*
X177656Y369728D01*
X177662D01*
X177676Y369722D01*
D02*
G37*
G36*
X65326Y505610D02*
X65367Y505607D01*
X65416Y505604D01*
X65468Y505602D01*
X65525Y505596D01*
X65583Y505591D01*
X65703Y505574D01*
X65820Y505550D01*
X65878Y505536D01*
X65930Y505520D01*
X65932D01*
X65940Y505514D01*
X65957Y505511D01*
X65973Y505503D01*
X65998Y505492D01*
X66022Y505481D01*
X66052Y505468D01*
X66085Y505451D01*
X66153Y505413D01*
X66222Y505367D01*
X66290Y505312D01*
X66320Y505279D01*
X66350Y505247D01*
X66353Y505244D01*
X66355Y505238D01*
X66364Y505228D01*
X66372Y505214D01*
X66383Y505197D01*
X66396Y505176D01*
X66410Y505151D01*
X66424Y505121D01*
X66437Y505091D01*
X66451Y505056D01*
X66462Y505020D01*
X66475Y504979D01*
X66484Y504935D01*
X66492Y504889D01*
X66495Y504843D01*
X66497Y504791D01*
Y504774D01*
X66495Y504755D01*
X66492Y504731D01*
X66489Y504701D01*
X66484Y504665D01*
X66475Y504627D01*
X66465Y504583D01*
X66451Y504539D01*
X66435Y504493D01*
X66413Y504444D01*
X66388Y504398D01*
X66358Y504351D01*
X66323Y504305D01*
X66284Y504261D01*
X66238Y504220D01*
X66235Y504217D01*
X66224Y504209D01*
X66205Y504198D01*
X66178Y504182D01*
X66142Y504163D01*
X66101Y504141D01*
X66050Y504119D01*
X65992Y504097D01*
X65924Y504073D01*
X65850Y504051D01*
X65766Y504029D01*
X65673Y504010D01*
X65572Y503994D01*
X65463Y503983D01*
X65342Y503974D01*
X65214Y503972D01*
X65209D01*
X65195D01*
X65171D01*
X65140Y503974D01*
X65102D01*
X65059Y503977D01*
X65009Y503980D01*
X64958Y503983D01*
X64900Y503988D01*
X64843Y503994D01*
X64723Y504010D01*
X64605Y504032D01*
X64548Y504045D01*
X64496Y504062D01*
X64494D01*
X64485Y504067D01*
X64469Y504073D01*
X64450Y504078D01*
X64428Y504089D01*
X64401Y504100D01*
X64373Y504114D01*
X64341Y504130D01*
X64272Y504168D01*
X64204Y504217D01*
X64136Y504272D01*
X64106Y504302D01*
X64076Y504335D01*
X64073Y504338D01*
X64070Y504343D01*
X64062Y504354D01*
X64054Y504367D01*
X64040Y504384D01*
X64029Y504406D01*
X64016Y504430D01*
X64002Y504460D01*
X63989Y504490D01*
X63975Y504526D01*
X63961Y504564D01*
X63950Y504602D01*
X63942Y504646D01*
X63934Y504692D01*
X63931Y504742D01*
X63928Y504791D01*
Y504823D01*
X63931Y504843D01*
X63934Y504862D01*
X63939Y504911D01*
X63947Y504965D01*
X63964Y505025D01*
X63983Y505086D01*
X64010Y505146D01*
Y505148D01*
X64013Y505154D01*
X64018Y505162D01*
X64027Y505173D01*
X64043Y505200D01*
X64070Y505236D01*
X64103Y505277D01*
X64144Y505318D01*
X64193Y505361D01*
X64248Y505400D01*
X64250D01*
X64256Y505405D01*
X64264Y505408D01*
X64275Y505416D01*
X64289Y505424D01*
X64308Y505435D01*
X64330Y505443D01*
X64351Y505457D01*
X64406Y505481D01*
X64469Y505506D01*
X64543Y505533D01*
X64622Y505555D01*
X64625D01*
X64633Y505558D01*
X64644Y505560D01*
X64663Y505563D01*
X64685Y505569D01*
X64712Y505574D01*
X64742Y505580D01*
X64777Y505585D01*
X64818Y505588D01*
X64862Y505593D01*
X64911Y505599D01*
X64963Y505604D01*
X65020Y505607D01*
X65080Y505610D01*
X65146Y505612D01*
X65214D01*
X65220D01*
X65233D01*
X65258D01*
X65288D01*
X65326Y505610D01*
D02*
G37*
G36*
X65747Y503660D02*
X65768D01*
X65798Y503655D01*
X65831Y503650D01*
X65867Y503644D01*
X65908Y503633D01*
X65951Y503619D01*
X65995Y503603D01*
X66041Y503584D01*
X66088Y503559D01*
X66137Y503532D01*
X66183Y503499D01*
X66230Y503464D01*
X66273Y503420D01*
X66276Y503417D01*
X66284Y503409D01*
X66295Y503396D01*
X66309Y503377D01*
X66325Y503355D01*
X66344Y503325D01*
X66366Y503292D01*
X66385Y503254D01*
X66407Y503213D01*
X66429Y503166D01*
X66448Y503117D01*
X66465Y503063D01*
X66478Y503005D01*
X66489Y502945D01*
X66497Y502882D01*
X66500Y502814D01*
Y502801D01*
X66497Y502781D01*
Y502760D01*
X66495Y502730D01*
X66489Y502697D01*
X66484Y502661D01*
X66475Y502620D01*
X66465Y502577D01*
X66451Y502533D01*
X66437Y502487D01*
X66418Y502440D01*
X66394Y502394D01*
X66369Y502350D01*
X66339Y502304D01*
X66303Y502263D01*
X66301Y502260D01*
X66295Y502254D01*
X66284Y502244D01*
X66268Y502227D01*
X66249Y502211D01*
X66224Y502192D01*
X66197Y502173D01*
X66164Y502151D01*
X66132Y502129D01*
X66091Y502107D01*
X66050Y502085D01*
X66003Y502066D01*
X65954Y502050D01*
X65902Y502033D01*
X65848Y502023D01*
X65790Y502014D01*
X65749Y502323D01*
X65752D01*
X65760Y502325D01*
X65774Y502328D01*
X65793Y502334D01*
X65815Y502339D01*
X65839Y502345D01*
X65897Y502364D01*
X65960Y502388D01*
X66022Y502418D01*
X66080Y502457D01*
X66104Y502478D01*
X66129Y502500D01*
Y502503D01*
X66134Y502506D01*
X66140Y502514D01*
X66148Y502522D01*
X66164Y502549D01*
X66186Y502588D01*
X66208Y502634D01*
X66224Y502686D01*
X66238Y502749D01*
X66243Y502814D01*
Y502836D01*
X66241Y502852D01*
X66238Y502869D01*
X66235Y502893D01*
X66224Y502943D01*
X66208Y503003D01*
X66181Y503065D01*
X66162Y503095D01*
X66142Y503125D01*
X66121Y503155D01*
X66093Y503186D01*
X66091Y503188D01*
X66085Y503191D01*
X66077Y503199D01*
X66066Y503210D01*
X66052Y503221D01*
X66033Y503232D01*
X66014Y503245D01*
X65990Y503262D01*
X65935Y503289D01*
X65872Y503311D01*
X65798Y503330D01*
X65760Y503333D01*
X65719Y503336D01*
X65716D01*
X65711D01*
X65697D01*
X65684Y503333D01*
X65665Y503330D01*
X65646Y503327D01*
X65596Y503319D01*
X65539Y503300D01*
X65482Y503275D01*
X65452Y503259D01*
X65424Y503240D01*
X65397Y503218D01*
X65370Y503194D01*
X65367Y503191D01*
X65364Y503188D01*
X65356Y503180D01*
X65348Y503169D01*
X65337Y503155D01*
X65326Y503139D01*
X65299Y503098D01*
X65274Y503046D01*
X65252Y502986D01*
X65236Y502918D01*
X65233Y502880D01*
X65231Y502842D01*
Y502825D01*
X65233Y502806D01*
Y502781D01*
X65239Y502749D01*
X65244Y502713D01*
X65252Y502669D01*
X65263Y502623D01*
X64993Y502656D01*
Y502661D01*
X64996Y502675D01*
X64999Y502691D01*
Y502727D01*
X64996Y502740D01*
Y502760D01*
X64993Y502779D01*
X64985Y502825D01*
X64974Y502880D01*
X64955Y502940D01*
X64930Y503003D01*
X64895Y503063D01*
Y503065D01*
X64889Y503071D01*
X64884Y503076D01*
X64876Y503087D01*
X64851Y503115D01*
X64816Y503145D01*
X64772Y503172D01*
X64717Y503199D01*
X64687Y503210D01*
X64652Y503216D01*
X64616Y503221D01*
X64578Y503224D01*
X64575D01*
X64570D01*
X64562D01*
X64548Y503221D01*
X64518Y503218D01*
X64477Y503210D01*
X64433Y503196D01*
X64387Y503174D01*
X64338Y503145D01*
X64316Y503128D01*
X64294Y503106D01*
X64289Y503101D01*
X64278Y503084D01*
X64259Y503060D01*
X64237Y503027D01*
X64218Y502983D01*
X64199Y502932D01*
X64188Y502874D01*
X64182Y502809D01*
Y502792D01*
X64185Y502779D01*
Y502762D01*
X64188Y502746D01*
X64196Y502702D01*
X64210Y502656D01*
X64231Y502604D01*
X64259Y502555D01*
X64297Y502506D01*
X64302Y502500D01*
X64319Y502487D01*
X64343Y502465D01*
X64382Y502443D01*
X64428Y502416D01*
X64488Y502391D01*
X64556Y502369D01*
X64635Y502353D01*
X64581Y502044D01*
X64578D01*
X64567Y502047D01*
X64551Y502050D01*
X64529Y502055D01*
X64504Y502063D01*
X64474Y502072D01*
X64442Y502082D01*
X64406Y502096D01*
X64327Y502132D01*
X64289Y502151D01*
X64248Y502175D01*
X64210Y502203D01*
X64171Y502233D01*
X64133Y502265D01*
X64100Y502301D01*
X64098Y502304D01*
X64092Y502309D01*
X64084Y502323D01*
X64073Y502336D01*
X64059Y502358D01*
X64046Y502380D01*
X64029Y502407D01*
X64013Y502440D01*
X63999Y502473D01*
X63983Y502511D01*
X63969Y502552D01*
X63956Y502596D01*
X63945Y502645D01*
X63937Y502694D01*
X63931Y502746D01*
X63928Y502801D01*
Y502836D01*
X63931Y502855D01*
X63934Y502874D01*
X63939Y502926D01*
X63950Y502983D01*
X63967Y503049D01*
X63989Y503115D01*
X64018Y503180D01*
Y503183D01*
X64021Y503188D01*
X64027Y503196D01*
X64035Y503210D01*
X64054Y503240D01*
X64081Y503278D01*
X64117Y503322D01*
X64158Y503366D01*
X64204Y503409D01*
X64259Y503447D01*
X64262D01*
X64264Y503450D01*
X64275Y503456D01*
X64286Y503461D01*
X64300Y503469D01*
X64316Y503478D01*
X64357Y503494D01*
X64406Y503510D01*
X64461Y503527D01*
X64521Y503538D01*
X64584Y503540D01*
X64586D01*
X64592D01*
X64600D01*
X64611D01*
X64644Y503535D01*
X64682Y503529D01*
X64728Y503518D01*
X64777Y503502D01*
X64829Y503480D01*
X64881Y503450D01*
X64884D01*
X64887Y503447D01*
X64903Y503434D01*
X64928Y503415D01*
X64958Y503385D01*
X64993Y503349D01*
X65029Y503303D01*
X65061Y503251D01*
X65094Y503191D01*
Y503194D01*
X65097Y503202D01*
X65100Y503213D01*
X65105Y503229D01*
X65110Y503245D01*
X65119Y503267D01*
X65140Y503319D01*
X65171Y503374D01*
X65206Y503431D01*
X65252Y503488D01*
X65310Y503538D01*
X65312Y503540D01*
X65318Y503543D01*
X65326Y503548D01*
X65340Y503557D01*
X65353Y503568D01*
X65373Y503579D01*
X65394Y503589D01*
X65422Y503600D01*
X65449Y503611D01*
X65479Y503622D01*
X65547Y503644D01*
X65626Y503658D01*
X65670Y503663D01*
X65714D01*
X65716D01*
X65728D01*
X65747Y503660D01*
D02*
G37*
G36*
X65676Y501722D02*
X65695Y501717D01*
X65725Y501706D01*
X65758Y501695D01*
X65798Y501679D01*
X65842Y501662D01*
X65889Y501640D01*
X65940Y501616D01*
X65990Y501588D01*
X66044Y501558D01*
X66096Y501523D01*
X66145Y501485D01*
X66194Y501444D01*
X66241Y501397D01*
X66284Y501348D01*
X66287Y501345D01*
X66293Y501334D01*
X66303Y501321D01*
X66317Y501299D01*
X66334Y501274D01*
X66353Y501242D01*
X66372Y501206D01*
X66391Y501162D01*
X66410Y501116D01*
X66429Y501067D01*
X66448Y501012D01*
X66465Y500952D01*
X66478Y500889D01*
X66489Y500824D01*
X66495Y500756D01*
X66497Y500682D01*
Y500644D01*
X66495Y500614D01*
X66492Y500581D01*
X66489Y500540D01*
X66484Y500496D01*
X66475Y500447D01*
X66467Y500395D01*
X66456Y500341D01*
X66443Y500286D01*
X66429Y500232D01*
X66410Y500174D01*
X66388Y500120D01*
X66364Y500068D01*
X66334Y500019D01*
X66331Y500016D01*
X66325Y500008D01*
X66317Y499994D01*
X66303Y499978D01*
X66284Y499956D01*
X66265Y499931D01*
X66241Y499904D01*
X66211Y499874D01*
X66178Y499844D01*
X66142Y499811D01*
X66104Y499781D01*
X66061Y499748D01*
X66014Y499716D01*
X65965Y499686D01*
X65910Y499658D01*
X65853Y499631D01*
X65850Y499628D01*
X65839Y499625D01*
X65820Y499620D01*
X65798Y499612D01*
X65768Y499601D01*
X65736Y499590D01*
X65695Y499579D01*
X65651Y499566D01*
X65602Y499555D01*
X65550Y499541D01*
X65495Y499530D01*
X65435Y499522D01*
X65310Y499505D01*
X65244Y499503D01*
X65179Y499500D01*
X65173D01*
X65162D01*
X65140D01*
X65113Y499503D01*
X65078Y499505D01*
X65037Y499508D01*
X64993Y499514D01*
X64944Y499519D01*
X64892Y499527D01*
X64837Y499535D01*
X64720Y499563D01*
X64663Y499582D01*
X64605Y499601D01*
X64545Y499623D01*
X64491Y499650D01*
X64488Y499653D01*
X64477Y499658D01*
X64464Y499667D01*
X64442Y499677D01*
X64417Y499694D01*
X64390Y499713D01*
X64360Y499735D01*
X64324Y499759D01*
X64292Y499789D01*
X64253Y499819D01*
X64218Y499855D01*
X64179Y499893D01*
X64144Y499934D01*
X64109Y499978D01*
X64076Y500027D01*
X64046Y500076D01*
X64043Y500079D01*
X64040Y500090D01*
X64032Y500103D01*
X64021Y500125D01*
X64010Y500150D01*
X63997Y500182D01*
X63983Y500218D01*
X63969Y500256D01*
X63956Y500300D01*
X63942Y500349D01*
X63928Y500398D01*
X63917Y500453D01*
X63898Y500565D01*
X63896Y500625D01*
X63893Y500688D01*
Y500723D01*
X63896Y500750D01*
X63898Y500783D01*
X63904Y500821D01*
X63909Y500862D01*
X63917Y500909D01*
X63928Y500958D01*
X63939Y501010D01*
X63956Y501061D01*
X63975Y501116D01*
X63997Y501171D01*
X64024Y501223D01*
X64051Y501274D01*
X64087Y501324D01*
X64090Y501326D01*
X64095Y501334D01*
X64106Y501348D01*
X64122Y501365D01*
X64141Y501386D01*
X64166Y501411D01*
X64193Y501436D01*
X64226Y501466D01*
X64262Y501496D01*
X64302Y501526D01*
X64346Y501556D01*
X64395Y501583D01*
X64447Y501613D01*
X64504Y501638D01*
X64565Y501662D01*
X64627Y501684D01*
X64704Y501356D01*
X64701D01*
X64693Y501351D01*
X64676Y501348D01*
X64657Y501340D01*
X64635Y501332D01*
X64611Y501318D01*
X64551Y501291D01*
X64485Y501255D01*
X64417Y501209D01*
X64354Y501160D01*
X64327Y501130D01*
X64302Y501100D01*
X64300Y501097D01*
X64297Y501091D01*
X64292Y501083D01*
X64283Y501070D01*
X64272Y501053D01*
X64262Y501034D01*
X64250Y501012D01*
X64240Y500985D01*
X64229Y500955D01*
X64218Y500925D01*
X64196Y500854D01*
X64182Y500772D01*
X64177Y500728D01*
Y500655D01*
X64179Y500633D01*
X64182Y500608D01*
X64185Y500578D01*
X64188Y500546D01*
X64193Y500513D01*
X64212Y500434D01*
X64237Y500352D01*
X64253Y500311D01*
X64272Y500270D01*
X64294Y500232D01*
X64319Y500193D01*
X64322Y500191D01*
X64324Y500185D01*
X64332Y500174D01*
X64343Y500161D01*
X64357Y500147D01*
X64376Y500128D01*
X64395Y500109D01*
X64417Y500087D01*
X64444Y500065D01*
X64472Y500040D01*
X64534Y499997D01*
X64608Y499956D01*
X64693Y499920D01*
X64696D01*
X64704Y499918D01*
X64717Y499912D01*
X64734Y499909D01*
X64756Y499904D01*
X64780Y499896D01*
X64810Y499890D01*
X64840Y499882D01*
X64876Y499874D01*
X64914Y499868D01*
X64996Y499855D01*
X65083Y499847D01*
X65176Y499844D01*
X65179D01*
X65190D01*
X65206D01*
X65231Y499847D01*
X65258D01*
X65291Y499849D01*
X65326Y499852D01*
X65367Y499855D01*
X65411Y499860D01*
X65455Y499866D01*
X65550Y499882D01*
X65646Y499907D01*
X65738Y499937D01*
X65741D01*
X65749Y499942D01*
X65760Y499948D01*
X65777Y499953D01*
X65798Y499964D01*
X65820Y499978D01*
X65872Y500008D01*
X65932Y500049D01*
X65990Y500098D01*
X66047Y500158D01*
X66071Y500191D01*
X66096Y500226D01*
Y500229D01*
X66101Y500234D01*
X66107Y500245D01*
X66115Y500262D01*
X66123Y500281D01*
X66134Y500303D01*
X66142Y500327D01*
X66153Y500354D01*
X66175Y500417D01*
X66194Y500491D01*
X66208Y500570D01*
X66211Y500611D01*
X66213Y500655D01*
Y500682D01*
X66211Y500701D01*
X66208Y500726D01*
X66205Y500753D01*
X66200Y500786D01*
X66194Y500818D01*
X66175Y500895D01*
X66162Y500933D01*
X66145Y500974D01*
X66126Y501015D01*
X66104Y501053D01*
X66080Y501091D01*
X66052Y501130D01*
X66050Y501132D01*
X66044Y501138D01*
X66036Y501149D01*
X66022Y501162D01*
X66006Y501176D01*
X65984Y501195D01*
X65960Y501214D01*
X65932Y501236D01*
X65899Y501258D01*
X65864Y501280D01*
X65826Y501302D01*
X65782Y501324D01*
X65736Y501343D01*
X65684Y501362D01*
X65629Y501381D01*
X65572Y501395D01*
X65657Y501728D01*
X65662D01*
X65676Y501722D01*
D02*
G37*
G36*
X218887Y461497D02*
X218922Y461495D01*
X218963Y461492D01*
X219007Y461486D01*
X219056Y461481D01*
X219108Y461473D01*
X219163Y461465D01*
X219280Y461437D01*
X219337Y461418D01*
X219395Y461399D01*
X219455Y461377D01*
X219509Y461350D01*
X219512Y461347D01*
X219523Y461342D01*
X219536Y461334D01*
X219558Y461323D01*
X219583Y461306D01*
X219610Y461287D01*
X219640Y461265D01*
X219676Y461241D01*
X219708Y461211D01*
X219747Y461181D01*
X219782Y461145D01*
X219820Y461107D01*
X219856Y461066D01*
X219891Y461022D01*
X219924Y460973D01*
X219954Y460924D01*
X219957Y460921D01*
X219960Y460910D01*
X219968Y460897D01*
X219979Y460875D01*
X219990Y460850D01*
X220003Y460818D01*
X220017Y460782D01*
X220031Y460744D01*
X220044Y460700D01*
X220058Y460651D01*
X220072Y460602D01*
X220082Y460547D01*
X220102Y460435D01*
X220104Y460375D01*
X220107Y460313D01*
Y460277D01*
X220104Y460250D01*
X220102Y460217D01*
X220096Y460179D01*
X220091Y460138D01*
X220082Y460091D01*
X220072Y460042D01*
X220061Y459990D01*
X220044Y459938D01*
X220025Y459884D01*
X220003Y459829D01*
X219976Y459777D01*
X219949Y459726D01*
X219913Y459676D01*
X219911Y459674D01*
X219905Y459665D01*
X219894Y459652D01*
X219878Y459635D01*
X219859Y459614D01*
X219834Y459589D01*
X219807Y459564D01*
X219774Y459535D01*
X219739Y459504D01*
X219698Y459474D01*
X219654Y459444D01*
X219605Y459417D01*
X219553Y459387D01*
X219496Y459363D01*
X219436Y459338D01*
X219373Y459316D01*
X219296Y459644D01*
X219299D01*
X219307Y459649D01*
X219324Y459652D01*
X219343Y459660D01*
X219365Y459668D01*
X219389Y459682D01*
X219449Y459709D01*
X219515Y459745D01*
X219583Y459791D01*
X219646Y459840D01*
X219673Y459870D01*
X219698Y459900D01*
X219700Y459903D01*
X219703Y459908D01*
X219708Y459917D01*
X219717Y459930D01*
X219728Y459947D01*
X219739Y459966D01*
X219749Y459988D01*
X219760Y460015D01*
X219771Y460045D01*
X219782Y460075D01*
X219804Y460146D01*
X219818Y460228D01*
X219823Y460272D01*
Y460345D01*
X219820Y460367D01*
X219818Y460392D01*
X219815Y460422D01*
X219812Y460455D01*
X219807Y460487D01*
X219788Y460566D01*
X219763Y460648D01*
X219747Y460689D01*
X219728Y460730D01*
X219706Y460768D01*
X219681Y460807D01*
X219678Y460809D01*
X219676Y460815D01*
X219668Y460826D01*
X219657Y460839D01*
X219643Y460853D01*
X219624Y460872D01*
X219605Y460891D01*
X219583Y460913D01*
X219556Y460935D01*
X219528Y460959D01*
X219465Y461003D01*
X219392Y461044D01*
X219307Y461080D01*
X219304D01*
X219296Y461082D01*
X219283Y461088D01*
X219266Y461091D01*
X219244Y461096D01*
X219220Y461104D01*
X219190Y461110D01*
X219160Y461118D01*
X219124Y461126D01*
X219086Y461131D01*
X219004Y461145D01*
X218917Y461153D01*
X218824Y461156D01*
X218821D01*
X218810D01*
X218794D01*
X218769Y461153D01*
X218742D01*
X218709Y461151D01*
X218674Y461148D01*
X218633Y461145D01*
X218589Y461140D01*
X218546Y461134D01*
X218450Y461118D01*
X218354Y461093D01*
X218262Y461063D01*
X218259D01*
X218251Y461058D01*
X218240Y461052D01*
X218223Y461047D01*
X218202Y461036D01*
X218180Y461022D01*
X218128Y460992D01*
X218068Y460951D01*
X218010Y460902D01*
X217953Y460842D01*
X217929Y460809D01*
X217904Y460774D01*
Y460771D01*
X217899Y460766D01*
X217893Y460755D01*
X217885Y460738D01*
X217877Y460719D01*
X217866Y460697D01*
X217858Y460673D01*
X217847Y460646D01*
X217825Y460583D01*
X217806Y460509D01*
X217792Y460430D01*
X217789Y460389D01*
X217787Y460345D01*
Y460318D01*
X217789Y460299D01*
X217792Y460274D01*
X217795Y460247D01*
X217800Y460214D01*
X217806Y460182D01*
X217825Y460105D01*
X217839Y460067D01*
X217855Y460026D01*
X217874Y459985D01*
X217896Y459947D01*
X217920Y459908D01*
X217948Y459870D01*
X217950Y459867D01*
X217956Y459862D01*
X217964Y459851D01*
X217978Y459837D01*
X217994Y459824D01*
X218016Y459805D01*
X218040Y459786D01*
X218068Y459764D01*
X218101Y459742D01*
X218136Y459720D01*
X218174Y459698D01*
X218218Y459676D01*
X218264Y459657D01*
X218316Y459638D01*
X218371Y459619D01*
X218428Y459605D01*
X218343Y459272D01*
X218338D01*
X218324Y459278D01*
X218305Y459283D01*
X218275Y459294D01*
X218243Y459305D01*
X218202Y459321D01*
X218158Y459338D01*
X218111Y459360D01*
X218060Y459384D01*
X218010Y459412D01*
X217956Y459442D01*
X217904Y459477D01*
X217855Y459515D01*
X217806Y459556D01*
X217759Y459603D01*
X217716Y459652D01*
X217713Y459655D01*
X217707Y459665D01*
X217696Y459679D01*
X217683Y459701D01*
X217667Y459726D01*
X217647Y459758D01*
X217628Y459794D01*
X217609Y459837D01*
X217590Y459884D01*
X217571Y459933D01*
X217552Y459988D01*
X217535Y460048D01*
X217522Y460111D01*
X217511Y460176D01*
X217505Y460244D01*
X217503Y460318D01*
Y460356D01*
X217505Y460386D01*
X217508Y460419D01*
X217511Y460460D01*
X217516Y460504D01*
X217525Y460553D01*
X217533Y460605D01*
X217544Y460659D01*
X217557Y460714D01*
X217571Y460768D01*
X217590Y460826D01*
X217612Y460880D01*
X217636Y460932D01*
X217667Y460981D01*
X217669Y460984D01*
X217675Y460992D01*
X217683Y461006D01*
X217696Y461022D01*
X217716Y461044D01*
X217735Y461069D01*
X217759Y461096D01*
X217789Y461126D01*
X217822Y461156D01*
X217858Y461189D01*
X217896Y461219D01*
X217939Y461252D01*
X217986Y461284D01*
X218035Y461314D01*
X218090Y461342D01*
X218147Y461369D01*
X218150Y461372D01*
X218161Y461375D01*
X218180Y461380D01*
X218202Y461388D01*
X218232Y461399D01*
X218264Y461410D01*
X218305Y461421D01*
X218349Y461435D01*
X218398Y461445D01*
X218450Y461459D01*
X218505Y461470D01*
X218565Y461478D01*
X218690Y461495D01*
X218756Y461497D01*
X218821Y461500D01*
X218827D01*
X218838D01*
X218860D01*
X218887Y461497D01*
D02*
G37*
G36*
X218251Y458677D02*
X218248D01*
X218240Y458674D01*
X218226Y458672D01*
X218207Y458666D01*
X218185Y458661D01*
X218161Y458655D01*
X218103Y458636D01*
X218040Y458612D01*
X217978Y458582D01*
X217920Y458543D01*
X217896Y458522D01*
X217871Y458500D01*
Y458497D01*
X217866Y458494D01*
X217860Y458486D01*
X217852Y458478D01*
X217836Y458451D01*
X217814Y458412D01*
X217792Y458366D01*
X217776Y458314D01*
X217762Y458251D01*
X217757Y458186D01*
Y458164D01*
X217759Y458148D01*
X217762Y458131D01*
X217765Y458107D01*
X217776Y458057D01*
X217792Y457998D01*
X217819Y457935D01*
X217839Y457905D01*
X217858Y457875D01*
X217879Y457845D01*
X217907Y457815D01*
X217910Y457812D01*
X217915Y457809D01*
X217923Y457801D01*
X217934Y457790D01*
X217948Y457779D01*
X217967Y457768D01*
X217986Y457755D01*
X218010Y457738D01*
X218065Y457711D01*
X218128Y457689D01*
X218202Y457670D01*
X218240Y457667D01*
X218281Y457664D01*
X218284D01*
X218289D01*
X218303D01*
X218316Y457667D01*
X218335Y457670D01*
X218354Y457673D01*
X218404Y457681D01*
X218461Y457700D01*
X218518Y457725D01*
X218548Y457741D01*
X218576Y457760D01*
X218603Y457782D01*
X218630Y457806D01*
X218633Y457809D01*
X218636Y457812D01*
X218644Y457820D01*
X218652Y457831D01*
X218663Y457845D01*
X218674Y457861D01*
X218701Y457902D01*
X218726Y457954D01*
X218748Y458014D01*
X218764Y458082D01*
X218767Y458120D01*
X218769Y458158D01*
Y458175D01*
X218767Y458194D01*
Y458219D01*
X218761Y458251D01*
X218756Y458287D01*
X218748Y458330D01*
X218737Y458377D01*
X219007Y458344D01*
Y458339D01*
X219004Y458325D01*
X219002Y458309D01*
Y458273D01*
X219004Y458259D01*
Y458240D01*
X219007Y458221D01*
X219015Y458175D01*
X219026Y458120D01*
X219045Y458060D01*
X219070Y457998D01*
X219105Y457937D01*
Y457935D01*
X219111Y457929D01*
X219116Y457924D01*
X219124Y457913D01*
X219149Y457886D01*
X219184Y457856D01*
X219228Y457828D01*
X219283Y457801D01*
X219313Y457790D01*
X219348Y457785D01*
X219384Y457779D01*
X219422Y457776D01*
X219425D01*
X219430D01*
X219438D01*
X219452Y457779D01*
X219482Y457782D01*
X219523Y457790D01*
X219567Y457804D01*
X219613Y457826D01*
X219662Y457856D01*
X219684Y457872D01*
X219706Y457894D01*
X219711Y457899D01*
X219722Y457916D01*
X219741Y457940D01*
X219763Y457973D01*
X219782Y458017D01*
X219801Y458068D01*
X219812Y458126D01*
X219818Y458191D01*
Y458208D01*
X219815Y458221D01*
Y458238D01*
X219812Y458254D01*
X219804Y458298D01*
X219790Y458344D01*
X219769Y458396D01*
X219741Y458445D01*
X219703Y458494D01*
X219698Y458500D01*
X219681Y458513D01*
X219657Y458535D01*
X219618Y458557D01*
X219572Y458584D01*
X219512Y458609D01*
X219444Y458631D01*
X219365Y458647D01*
X219419Y458956D01*
X219422D01*
X219433Y458953D01*
X219449Y458950D01*
X219471Y458945D01*
X219496Y458937D01*
X219526Y458928D01*
X219558Y458918D01*
X219594Y458904D01*
X219673Y458868D01*
X219711Y458849D01*
X219752Y458825D01*
X219790Y458797D01*
X219829Y458767D01*
X219867Y458735D01*
X219900Y458699D01*
X219902Y458696D01*
X219908Y458691D01*
X219916Y458677D01*
X219927Y458664D01*
X219941Y458642D01*
X219954Y458620D01*
X219971Y458593D01*
X219987Y458560D01*
X220001Y458527D01*
X220017Y458489D01*
X220031Y458448D01*
X220044Y458404D01*
X220055Y458355D01*
X220063Y458306D01*
X220069Y458254D01*
X220072Y458200D01*
Y458164D01*
X220069Y458145D01*
X220066Y458126D01*
X220061Y458074D01*
X220050Y458017D01*
X220033Y457951D01*
X220011Y457886D01*
X219982Y457820D01*
Y457817D01*
X219979Y457812D01*
X219973Y457804D01*
X219965Y457790D01*
X219946Y457760D01*
X219919Y457722D01*
X219883Y457678D01*
X219842Y457634D01*
X219796Y457591D01*
X219741Y457552D01*
X219739D01*
X219736Y457550D01*
X219725Y457544D01*
X219714Y457539D01*
X219700Y457531D01*
X219684Y457522D01*
X219643Y457506D01*
X219594Y457490D01*
X219539Y457473D01*
X219479Y457462D01*
X219416Y457460D01*
X219414D01*
X219408D01*
X219400D01*
X219389D01*
X219356Y457465D01*
X219318Y457471D01*
X219272Y457481D01*
X219223Y457498D01*
X219171Y457520D01*
X219119Y457550D01*
X219116D01*
X219113Y457552D01*
X219097Y457566D01*
X219072Y457585D01*
X219042Y457615D01*
X219007Y457651D01*
X218971Y457697D01*
X218939Y457749D01*
X218906Y457809D01*
Y457806D01*
X218903Y457798D01*
X218900Y457787D01*
X218895Y457771D01*
X218889Y457755D01*
X218881Y457733D01*
X218860Y457681D01*
X218829Y457626D01*
X218794Y457569D01*
X218748Y457512D01*
X218690Y457462D01*
X218688Y457460D01*
X218682Y457457D01*
X218674Y457451D01*
X218660Y457443D01*
X218647Y457432D01*
X218627Y457421D01*
X218606Y457410D01*
X218578Y457400D01*
X218551Y457389D01*
X218521Y457378D01*
X218453Y457356D01*
X218373Y457342D01*
X218330Y457337D01*
X218286D01*
X218284D01*
X218272D01*
X218253Y457339D01*
X218232D01*
X218202Y457345D01*
X218169Y457350D01*
X218133Y457356D01*
X218092Y457367D01*
X218049Y457380D01*
X218005Y457397D01*
X217959Y457416D01*
X217912Y457441D01*
X217863Y457468D01*
X217817Y457501D01*
X217770Y457536D01*
X217726Y457580D01*
X217724Y457583D01*
X217716Y457591D01*
X217705Y457604D01*
X217691Y457623D01*
X217675Y457645D01*
X217656Y457675D01*
X217634Y457708D01*
X217615Y457746D01*
X217593Y457787D01*
X217571Y457834D01*
X217552Y457883D01*
X217535Y457937D01*
X217522Y457995D01*
X217511Y458055D01*
X217503Y458118D01*
X217500Y458186D01*
Y458200D01*
X217503Y458219D01*
Y458240D01*
X217505Y458271D01*
X217511Y458303D01*
X217516Y458339D01*
X217525Y458380D01*
X217535Y458423D01*
X217549Y458467D01*
X217563Y458513D01*
X217582Y458560D01*
X217606Y458606D01*
X217631Y458650D01*
X217661Y458696D01*
X217696Y458737D01*
X217699Y458740D01*
X217705Y458745D01*
X217716Y458756D01*
X217732Y458773D01*
X217751Y458789D01*
X217776Y458808D01*
X217803Y458827D01*
X217836Y458849D01*
X217868Y458871D01*
X217910Y458893D01*
X217950Y458915D01*
X217997Y458934D01*
X218046Y458950D01*
X218098Y458967D01*
X218152Y458978D01*
X218210Y458986D01*
X218251Y458677D01*
D02*
G37*
G36*
X219441Y456791D02*
X219444Y456783D01*
X219452Y456769D01*
X219460Y456750D01*
X219471Y456728D01*
X219487Y456701D01*
X219504Y456671D01*
X219520Y456641D01*
X219564Y456570D01*
X219616Y456493D01*
X219670Y456414D01*
X219733Y456340D01*
X219736Y456338D01*
X219741Y456332D01*
X219749Y456321D01*
X219763Y456308D01*
X219779Y456294D01*
X219796Y456275D01*
X219842Y456234D01*
X219891Y456187D01*
X219949Y456141D01*
X220009Y456100D01*
X220072Y456065D01*
Y455865D01*
X217544D01*
Y456174D01*
X219512D01*
X219507Y456179D01*
X219493Y456193D01*
X219474Y456217D01*
X219446Y456253D01*
X219414Y456294D01*
X219378Y456346D01*
X219340Y456403D01*
X219299Y456469D01*
Y456471D01*
X219294Y456477D01*
X219288Y456485D01*
X219283Y456499D01*
X219272Y456515D01*
X219264Y456534D01*
X219239Y456578D01*
X219214Y456627D01*
X219187Y456682D01*
X219163Y456739D01*
X219141Y456793D01*
X219438D01*
X219441Y456791D01*
D02*
G37*
G36*
X179884Y343304D02*
X179920Y343302D01*
X179961Y343299D01*
X180004Y343293D01*
X180053Y343288D01*
X180105Y343280D01*
X180160Y343272D01*
X180277Y343244D01*
X180334Y343225D01*
X180392Y343206D01*
X180452Y343184D01*
X180507Y343157D01*
X180509Y343154D01*
X180520Y343149D01*
X180534Y343141D01*
X180556Y343130D01*
X180580Y343113D01*
X180607Y343094D01*
X180638Y343072D01*
X180673Y343048D01*
X180706Y343018D01*
X180744Y342988D01*
X180780Y342952D01*
X180818Y342914D01*
X180853Y342873D01*
X180889Y342829D01*
X180921Y342780D01*
X180951Y342731D01*
X180954Y342728D01*
X180957Y342718D01*
X180965Y342704D01*
X180976Y342682D01*
X180987Y342657D01*
X181001Y342625D01*
X181014Y342589D01*
X181028Y342551D01*
X181042Y342507D01*
X181055Y342458D01*
X181069Y342409D01*
X181080Y342354D01*
X181099Y342242D01*
X181102Y342182D01*
X181104Y342120D01*
Y342084D01*
X181102Y342057D01*
X181099Y342024D01*
X181094Y341986D01*
X181088Y341945D01*
X181080Y341898D01*
X181069Y341849D01*
X181058Y341797D01*
X181042Y341746D01*
X181023Y341691D01*
X181001Y341636D01*
X180973Y341584D01*
X180946Y341533D01*
X180911Y341483D01*
X180908Y341481D01*
X180902Y341473D01*
X180891Y341459D01*
X180875Y341442D01*
X180856Y341421D01*
X180831Y341396D01*
X180804Y341372D01*
X180771Y341341D01*
X180736Y341312D01*
X180695Y341282D01*
X180651Y341251D01*
X180602Y341224D01*
X180550Y341194D01*
X180493Y341170D01*
X180433Y341145D01*
X180370Y341123D01*
X180294Y341451D01*
X180296D01*
X180305Y341456D01*
X180321Y341459D01*
X180340Y341467D01*
X180362Y341475D01*
X180386Y341489D01*
X180446Y341516D01*
X180512Y341552D01*
X180580Y341598D01*
X180643Y341647D01*
X180670Y341677D01*
X180695Y341707D01*
X180698Y341710D01*
X180700Y341716D01*
X180706Y341724D01*
X180714Y341737D01*
X180725Y341754D01*
X180736Y341773D01*
X180747Y341795D01*
X180758Y341822D01*
X180769Y341852D01*
X180780Y341882D01*
X180801Y341953D01*
X180815Y342035D01*
X180821Y342079D01*
Y342152D01*
X180818Y342174D01*
X180815Y342199D01*
X180812Y342229D01*
X180809Y342262D01*
X180804Y342294D01*
X180785Y342373D01*
X180760Y342455D01*
X180744Y342496D01*
X180725Y342537D01*
X180703Y342576D01*
X180678Y342614D01*
X180676Y342616D01*
X180673Y342622D01*
X180665Y342633D01*
X180654Y342647D01*
X180640Y342660D01*
X180621Y342679D01*
X180602Y342698D01*
X180580Y342720D01*
X180553Y342742D01*
X180526Y342767D01*
X180463Y342810D01*
X180389Y342851D01*
X180305Y342887D01*
X180302D01*
X180294Y342889D01*
X180280Y342895D01*
X180263Y342898D01*
X180242Y342903D01*
X180217Y342911D01*
X180187Y342917D01*
X180157Y342925D01*
X180122Y342933D01*
X180083Y342939D01*
X180001Y342952D01*
X179914Y342960D01*
X179821Y342963D01*
X179818D01*
X179808D01*
X179791D01*
X179767Y342960D01*
X179739D01*
X179707Y342958D01*
X179671Y342955D01*
X179630Y342952D01*
X179587Y342947D01*
X179543Y342941D01*
X179447Y342925D01*
X179352Y342900D01*
X179259Y342870D01*
X179256D01*
X179248Y342865D01*
X179237Y342859D01*
X179221Y342854D01*
X179199Y342843D01*
X179177Y342829D01*
X179125Y342799D01*
X179065Y342758D01*
X179008Y342709D01*
X178950Y342649D01*
X178926Y342616D01*
X178901Y342581D01*
Y342578D01*
X178896Y342573D01*
X178890Y342562D01*
X178882Y342546D01*
X178874Y342526D01*
X178863Y342505D01*
X178855Y342480D01*
X178844Y342453D01*
X178822Y342390D01*
X178803Y342316D01*
X178789Y342237D01*
X178787Y342196D01*
X178784Y342152D01*
Y342125D01*
X178787Y342106D01*
X178789Y342081D01*
X178792Y342054D01*
X178797Y342021D01*
X178803Y341988D01*
X178822Y341912D01*
X178836Y341874D01*
X178852Y341833D01*
X178871Y341792D01*
X178893Y341754D01*
X178918Y341716D01*
X178945Y341677D01*
X178948Y341675D01*
X178953Y341669D01*
X178961Y341658D01*
X178975Y341645D01*
X178991Y341631D01*
X179013Y341612D01*
X179038Y341593D01*
X179065Y341571D01*
X179098Y341549D01*
X179133Y341527D01*
X179172Y341505D01*
X179215Y341483D01*
X179262Y341464D01*
X179314Y341445D01*
X179368Y341426D01*
X179425Y341412D01*
X179341Y341079D01*
X179335D01*
X179322Y341085D01*
X179303Y341090D01*
X179272Y341101D01*
X179240Y341112D01*
X179199Y341129D01*
X179155Y341145D01*
X179109Y341167D01*
X179057Y341191D01*
X179008Y341219D01*
X178953Y341249D01*
X178901Y341284D01*
X178852Y341322D01*
X178803Y341363D01*
X178757Y341410D01*
X178713Y341459D01*
X178710Y341462D01*
X178705Y341473D01*
X178694Y341486D01*
X178680Y341508D01*
X178664Y341533D01*
X178645Y341565D01*
X178626Y341601D01*
X178606Y341645D01*
X178587Y341691D01*
X178568Y341740D01*
X178549Y341795D01*
X178533Y341855D01*
X178519Y341918D01*
X178508Y341983D01*
X178503Y342051D01*
X178500Y342125D01*
Y342163D01*
X178503Y342193D01*
X178505Y342226D01*
X178508Y342267D01*
X178514Y342311D01*
X178522Y342360D01*
X178530Y342412D01*
X178541Y342466D01*
X178554Y342521D01*
X178568Y342576D01*
X178587Y342633D01*
X178609Y342687D01*
X178634Y342739D01*
X178664Y342788D01*
X178666Y342791D01*
X178672Y342799D01*
X178680Y342813D01*
X178694Y342829D01*
X178713Y342851D01*
X178732Y342876D01*
X178757Y342903D01*
X178787Y342933D01*
X178819Y342963D01*
X178855Y342996D01*
X178893Y343026D01*
X178937Y343059D01*
X178983Y343092D01*
X179032Y343122D01*
X179087Y343149D01*
X179144Y343176D01*
X179147Y343179D01*
X179158Y343182D01*
X179177Y343187D01*
X179199Y343195D01*
X179229Y343206D01*
X179262Y343217D01*
X179303Y343228D01*
X179346Y343242D01*
X179395Y343252D01*
X179447Y343266D01*
X179502Y343277D01*
X179562Y343285D01*
X179688Y343302D01*
X179753Y343304D01*
X179818Y343307D01*
X179824D01*
X179835D01*
X179857D01*
X179884Y343304D01*
D02*
G37*
G36*
X179788Y340807D02*
X179810D01*
X179838Y340804D01*
X179898Y340801D01*
X179966Y340795D01*
X180042Y340787D01*
X180124Y340776D01*
X180212Y340760D01*
X180299Y340744D01*
X180386Y340722D01*
X180474Y340694D01*
X180558Y340665D01*
X180640Y340629D01*
X180714Y340585D01*
X180780Y340539D01*
X180782Y340536D01*
X180793Y340528D01*
X180807Y340514D01*
X180826Y340495D01*
X180848Y340473D01*
X180872Y340443D01*
X180897Y340411D01*
X180924Y340372D01*
X180951Y340329D01*
X180976Y340280D01*
X181001Y340228D01*
X181023Y340170D01*
X181042Y340110D01*
X181055Y340045D01*
X181066Y339977D01*
X181069Y339903D01*
Y339873D01*
X181066Y339854D01*
X181063Y339829D01*
X181061Y339799D01*
X181055Y339766D01*
X181047Y339731D01*
X181028Y339652D01*
X181014Y339614D01*
X180998Y339570D01*
X180979Y339529D01*
X180954Y339491D01*
X180930Y339452D01*
X180900Y339414D01*
X180897Y339411D01*
X180891Y339406D01*
X180883Y339395D01*
X180870Y339384D01*
X180853Y339368D01*
X180831Y339351D01*
X180807Y339332D01*
X180780Y339313D01*
X180749Y339294D01*
X180714Y339275D01*
X180676Y339256D01*
X180635Y339237D01*
X180591Y339220D01*
X180545Y339207D01*
X180496Y339193D01*
X180441Y339185D01*
X180416Y339493D01*
X180419D01*
X180425Y339496D01*
X180433Y339499D01*
X180446Y339502D01*
X180479Y339510D01*
X180517Y339523D01*
X180561Y339540D01*
X180605Y339562D01*
X180646Y339583D01*
X180681Y339611D01*
X180684Y339614D01*
X180687Y339616D01*
X180695Y339624D01*
X180703Y339633D01*
X180725Y339660D01*
X180749Y339698D01*
X180774Y339742D01*
X180793Y339796D01*
X180809Y339856D01*
X180812Y339889D01*
X180815Y339922D01*
Y339947D01*
X180809Y339977D01*
X180804Y340012D01*
X180793Y340053D01*
X180780Y340097D01*
X180758Y340140D01*
X180730Y340184D01*
Y340187D01*
X180725Y340190D01*
X180719Y340198D01*
X180711Y340209D01*
X180687Y340233D01*
X180651Y340266D01*
X180607Y340304D01*
X180553Y340342D01*
X180490Y340378D01*
X180419Y340413D01*
X180416D01*
X180411Y340416D01*
X180397Y340422D01*
X180381Y340427D01*
X180362Y340433D01*
X180334Y340441D01*
X180305Y340449D01*
X180272Y340457D01*
X180234Y340465D01*
X180190Y340471D01*
X180141Y340479D01*
X180089Y340487D01*
X180034Y340493D01*
X179974Y340495D01*
X179909Y340498D01*
X179843Y340501D01*
X179843Y340501D01*
X179840D01*
X179843Y340501D01*
X179849Y340495D01*
X179857Y340490D01*
X179868Y340482D01*
X179898Y340457D01*
X179936Y340427D01*
X179977Y340386D01*
X180018Y340340D01*
X180056Y340288D01*
X180092Y340230D01*
Y340228D01*
X180094Y340222D01*
X180100Y340214D01*
X180105Y340203D01*
X180111Y340187D01*
X180119Y340170D01*
X180135Y340127D01*
X180149Y340075D01*
X180163Y340018D01*
X180173Y339955D01*
X180176Y339889D01*
Y339876D01*
X180173Y339859D01*
Y339837D01*
X180168Y339810D01*
X180165Y339780D01*
X180157Y339744D01*
X180149Y339706D01*
X180135Y339668D01*
X180122Y339624D01*
X180103Y339581D01*
X180081Y339537D01*
X180053Y339491D01*
X180023Y339447D01*
X179988Y339403D01*
X179947Y339362D01*
X179944Y339360D01*
X179936Y339354D01*
X179925Y339343D01*
X179906Y339327D01*
X179884Y339310D01*
X179857Y339294D01*
X179824Y339272D01*
X179788Y339253D01*
X179748Y339234D01*
X179704Y339212D01*
X179655Y339196D01*
X179603Y339177D01*
X179548Y339163D01*
X179488Y339152D01*
X179425Y339147D01*
X179360Y339144D01*
X179357D01*
X179349D01*
X179338D01*
X179319Y339147D01*
X179300D01*
X179275Y339149D01*
X179245Y339152D01*
X179215Y339158D01*
X179147Y339169D01*
X179073Y339188D01*
X178997Y339212D01*
X178918Y339248D01*
X178915D01*
X178909Y339253D01*
X178899Y339259D01*
X178885Y339267D01*
X178868Y339278D01*
X178849Y339289D01*
X178803Y339321D01*
X178754Y339360D01*
X178702Y339409D01*
X178650Y339466D01*
X178606Y339529D01*
Y339532D01*
X178601Y339537D01*
X178595Y339548D01*
X178590Y339562D01*
X178582Y339578D01*
X178574Y339597D01*
X178563Y339622D01*
X178554Y339646D01*
X178533Y339706D01*
X178516Y339777D01*
X178505Y339854D01*
X178500Y339936D01*
Y339952D01*
X178503Y339974D01*
X178505Y340001D01*
X178508Y340034D01*
X178516Y340072D01*
X178524Y340113D01*
X178535Y340160D01*
X178552Y340209D01*
X178568Y340261D01*
X178593Y340312D01*
X178620Y340364D01*
X178653Y340419D01*
X178691Y340468D01*
X178735Y340520D01*
X178784Y340566D01*
X178787Y340569D01*
X178797Y340577D01*
X178814Y340588D01*
X178839Y340604D01*
X178868Y340623D01*
X178907Y340643D01*
X178953Y340665D01*
X179008Y340686D01*
X179068Y340711D01*
X179136Y340733D01*
X179212Y340752D01*
X179297Y340771D01*
X179390Y340787D01*
X179491Y340798D01*
X179600Y340807D01*
X179718Y340809D01*
X179720D01*
X179726D01*
X179737D01*
X179750D01*
X179767D01*
X179788Y340807D01*
D02*
G37*
G36*
X67884Y481497D02*
X67920Y481495D01*
X67961Y481492D01*
X68004Y481486D01*
X68053Y481481D01*
X68105Y481473D01*
X68160Y481464D01*
X68277Y481437D01*
X68335Y481418D01*
X68392Y481399D01*
X68452Y481377D01*
X68507Y481350D01*
X68509Y481347D01*
X68520Y481342D01*
X68534Y481333D01*
X68556Y481322D01*
X68580Y481306D01*
X68608Y481287D01*
X68638Y481265D01*
X68673Y481241D01*
X68706Y481211D01*
X68744Y481181D01*
X68779Y481145D01*
X68818Y481107D01*
X68853Y481066D01*
X68889Y481022D01*
X68922Y480973D01*
X68951Y480924D01*
X68954Y480921D01*
X68957Y480910D01*
X68965Y480897D01*
X68976Y480875D01*
X68987Y480850D01*
X69001Y480818D01*
X69014Y480782D01*
X69028Y480744D01*
X69042Y480700D01*
X69055Y480651D01*
X69069Y480602D01*
X69080Y480547D01*
X69099Y480435D01*
X69102Y480375D01*
X69104Y480312D01*
Y480277D01*
X69102Y480250D01*
X69099Y480217D01*
X69094Y480179D01*
X69088Y480138D01*
X69080Y480091D01*
X69069Y480042D01*
X69058Y479990D01*
X69042Y479938D01*
X69023Y479884D01*
X69001Y479829D01*
X68973Y479777D01*
X68946Y479726D01*
X68911Y479676D01*
X68908Y479674D01*
X68902Y479665D01*
X68892Y479652D01*
X68875Y479635D01*
X68856Y479614D01*
X68831Y479589D01*
X68804Y479564D01*
X68771Y479534D01*
X68736Y479504D01*
X68695Y479474D01*
X68651Y479444D01*
X68602Y479417D01*
X68550Y479387D01*
X68493Y479362D01*
X68433Y479338D01*
X68370Y479316D01*
X68294Y479644D01*
X68296D01*
X68305Y479649D01*
X68321Y479652D01*
X68340Y479660D01*
X68362Y479668D01*
X68386Y479682D01*
X68446Y479709D01*
X68512Y479745D01*
X68580Y479791D01*
X68643Y479840D01*
X68670Y479870D01*
X68695Y479900D01*
X68698Y479903D01*
X68700Y479908D01*
X68706Y479917D01*
X68714Y479930D01*
X68725Y479947D01*
X68736Y479966D01*
X68747Y479988D01*
X68758Y480015D01*
X68769Y480045D01*
X68779Y480075D01*
X68801Y480146D01*
X68815Y480228D01*
X68821Y480271D01*
Y480345D01*
X68818Y480367D01*
X68815Y480392D01*
X68812Y480422D01*
X68810Y480454D01*
X68804Y480487D01*
X68785Y480566D01*
X68760Y480648D01*
X68744Y480689D01*
X68725Y480730D01*
X68703Y480768D01*
X68678Y480807D01*
X68676Y480809D01*
X68673Y480815D01*
X68665Y480826D01*
X68654Y480839D01*
X68640Y480853D01*
X68621Y480872D01*
X68602Y480891D01*
X68580Y480913D01*
X68553Y480935D01*
X68526Y480960D01*
X68463Y481003D01*
X68389Y481044D01*
X68305Y481080D01*
X68302D01*
X68294Y481082D01*
X68280Y481088D01*
X68264Y481090D01*
X68242Y481096D01*
X68217Y481104D01*
X68187Y481110D01*
X68157Y481118D01*
X68122Y481126D01*
X68083Y481132D01*
X68002Y481145D01*
X67914Y481153D01*
X67821Y481156D01*
X67819D01*
X67808D01*
X67791D01*
X67767Y481153D01*
X67739D01*
X67707Y481151D01*
X67671Y481148D01*
X67630Y481145D01*
X67586Y481140D01*
X67543Y481134D01*
X67447Y481118D01*
X67352Y481093D01*
X67259Y481063D01*
X67256D01*
X67248Y481058D01*
X67237Y481052D01*
X67221Y481047D01*
X67199Y481036D01*
X67177Y481022D01*
X67125Y480992D01*
X67065Y480951D01*
X67008Y480902D01*
X66951Y480842D01*
X66926Y480809D01*
X66901Y480774D01*
Y480771D01*
X66896Y480766D01*
X66890Y480755D01*
X66882Y480738D01*
X66874Y480719D01*
X66863Y480697D01*
X66855Y480673D01*
X66844Y480646D01*
X66822Y480583D01*
X66803Y480509D01*
X66789Y480430D01*
X66787Y480389D01*
X66784Y480345D01*
Y480318D01*
X66787Y480299D01*
X66789Y480274D01*
X66792Y480247D01*
X66798Y480214D01*
X66803Y480181D01*
X66822Y480105D01*
X66836Y480067D01*
X66852Y480026D01*
X66871Y479985D01*
X66893Y479947D01*
X66918Y479908D01*
X66945Y479870D01*
X66948Y479868D01*
X66953Y479862D01*
X66961Y479851D01*
X66975Y479837D01*
X66991Y479824D01*
X67013Y479805D01*
X67038Y479786D01*
X67065Y479764D01*
X67098Y479742D01*
X67133Y479720D01*
X67172Y479698D01*
X67215Y479676D01*
X67262Y479657D01*
X67313Y479638D01*
X67368Y479619D01*
X67426Y479605D01*
X67341Y479272D01*
X67335D01*
X67322Y479278D01*
X67303Y479283D01*
X67273Y479294D01*
X67240Y479305D01*
X67199Y479321D01*
X67155Y479338D01*
X67109Y479360D01*
X67057Y479384D01*
X67008Y479412D01*
X66953Y479442D01*
X66901Y479477D01*
X66852Y479515D01*
X66803Y479556D01*
X66757Y479603D01*
X66713Y479652D01*
X66710Y479655D01*
X66705Y479665D01*
X66694Y479679D01*
X66680Y479701D01*
X66664Y479726D01*
X66645Y479758D01*
X66626Y479794D01*
X66606Y479837D01*
X66587Y479884D01*
X66568Y479933D01*
X66549Y479988D01*
X66533Y480048D01*
X66519Y480110D01*
X66508Y480176D01*
X66503Y480244D01*
X66500Y480318D01*
Y480356D01*
X66503Y480386D01*
X66505Y480419D01*
X66508Y480460D01*
X66514Y480504D01*
X66522Y480553D01*
X66530Y480605D01*
X66541Y480659D01*
X66555Y480714D01*
X66568Y480768D01*
X66587Y480826D01*
X66609Y480880D01*
X66634Y480932D01*
X66664Y480981D01*
X66667Y480984D01*
X66672Y480992D01*
X66680Y481006D01*
X66694Y481022D01*
X66713Y481044D01*
X66732Y481069D01*
X66757Y481096D01*
X66787Y481126D01*
X66819Y481156D01*
X66855Y481189D01*
X66893Y481219D01*
X66937Y481252D01*
X66983Y481284D01*
X67032Y481314D01*
X67087Y481342D01*
X67144Y481369D01*
X67147Y481372D01*
X67158Y481374D01*
X67177Y481380D01*
X67199Y481388D01*
X67229Y481399D01*
X67262Y481410D01*
X67303Y481421D01*
X67346Y481434D01*
X67395Y481445D01*
X67447Y481459D01*
X67502Y481470D01*
X67562Y481478D01*
X67687Y481495D01*
X67753Y481497D01*
X67819Y481500D01*
X67824D01*
X67835D01*
X67857D01*
X67884Y481497D01*
D02*
G37*
G36*
X66609Y479027D02*
X66642Y479024D01*
X66677Y479016D01*
X66716Y479007D01*
X66754Y478994D01*
X66757D01*
X66762Y478991D01*
X66770Y478988D01*
X66784Y478983D01*
X66798Y478975D01*
X66817Y478967D01*
X66860Y478945D01*
X66912Y478917D01*
X66970Y478882D01*
X67030Y478841D01*
X67090Y478792D01*
X67092Y478789D01*
X67098Y478786D01*
X67106Y478778D01*
X67120Y478764D01*
X67133Y478751D01*
X67153Y478732D01*
X67174Y478713D01*
X67199Y478688D01*
X67226Y478661D01*
X67254Y478631D01*
X67286Y478598D01*
X67319Y478560D01*
X67355Y478522D01*
X67390Y478478D01*
X67428Y478434D01*
X67469Y478385D01*
X67472Y478380D01*
X67485Y478366D01*
X67502Y478347D01*
X67527Y478320D01*
X67554Y478287D01*
X67586Y478249D01*
X67622Y478205D01*
X67663Y478161D01*
X67748Y478068D01*
X67838Y477978D01*
X67881Y477935D01*
X67925Y477894D01*
X67966Y477858D01*
X68004Y477828D01*
X68007Y477825D01*
X68012Y477823D01*
X68023Y477814D01*
X68037Y477806D01*
X68056Y477793D01*
X68075Y477782D01*
X68124Y477754D01*
X68182Y477727D01*
X68244Y477703D01*
X68310Y477686D01*
X68343Y477683D01*
X68375Y477681D01*
X68378D01*
X68384D01*
X68395D01*
X68405Y477683D01*
X68422D01*
X68441Y477689D01*
X68482Y477697D01*
X68531Y477713D01*
X68583Y477738D01*
X68610Y477752D01*
X68635Y477771D01*
X68659Y477790D01*
X68684Y477814D01*
X68687Y477817D01*
X68690Y477820D01*
X68695Y477828D01*
X68703Y477839D01*
X68714Y477853D01*
X68725Y477869D01*
X68749Y477907D01*
X68771Y477959D01*
X68793Y478017D01*
X68807Y478085D01*
X68812Y478123D01*
Y478183D01*
X68810Y478199D01*
Y478219D01*
X68804Y478240D01*
X68796Y478290D01*
X68779Y478347D01*
X68755Y478407D01*
X68739Y478437D01*
X68722Y478467D01*
X68700Y478494D01*
X68676Y478522D01*
X68673Y478524D01*
X68670Y478527D01*
X68662Y478533D01*
X68651Y478543D01*
X68638Y478552D01*
X68621Y478562D01*
X68602Y478576D01*
X68580Y478587D01*
X68556Y478601D01*
X68528Y478612D01*
X68463Y478633D01*
X68392Y478650D01*
X68351Y478653D01*
X68307Y478655D01*
X68340Y478972D01*
X68345D01*
X68356Y478969D01*
X68373Y478967D01*
X68397Y478964D01*
X68427Y478958D01*
X68463Y478950D01*
X68501Y478942D01*
X68542Y478928D01*
X68583Y478915D01*
X68629Y478898D01*
X68673Y478876D01*
X68717Y478855D01*
X68763Y478827D01*
X68804Y478797D01*
X68845Y478764D01*
X68881Y478726D01*
X68883Y478724D01*
X68889Y478715D01*
X68897Y478705D01*
X68911Y478688D01*
X68924Y478666D01*
X68941Y478639D01*
X68957Y478609D01*
X68976Y478573D01*
X68993Y478535D01*
X69009Y478491D01*
X69025Y478445D01*
X69039Y478393D01*
X69052Y478339D01*
X69061Y478281D01*
X69066Y478219D01*
X69069Y478153D01*
Y478118D01*
X69066Y478093D01*
X69064Y478063D01*
X69058Y478027D01*
X69052Y477986D01*
X69044Y477946D01*
X69033Y477899D01*
X69020Y477853D01*
X69003Y477804D01*
X68984Y477757D01*
X68960Y477708D01*
X68932Y477662D01*
X68902Y477618D01*
X68867Y477577D01*
X68864Y477574D01*
X68859Y477569D01*
X68845Y477558D01*
X68831Y477544D01*
X68812Y477528D01*
X68788Y477509D01*
X68760Y477490D01*
X68728Y477470D01*
X68695Y477451D01*
X68657Y477432D01*
X68616Y477413D01*
X68572Y477397D01*
X68523Y477383D01*
X68474Y477372D01*
X68422Y477367D01*
X68367Y477364D01*
X68365D01*
X68362D01*
X68354D01*
X68343D01*
X68313Y477367D01*
X68274Y477372D01*
X68228Y477380D01*
X68179Y477391D01*
X68124Y477405D01*
X68070Y477427D01*
X68067D01*
X68064Y477430D01*
X68056Y477432D01*
X68045Y477438D01*
X68015Y477454D01*
X67977Y477476D01*
X67931Y477506D01*
X67879Y477541D01*
X67824Y477582D01*
X67764Y477634D01*
X67761Y477637D01*
X67756Y477640D01*
X67748Y477651D01*
X67734Y477662D01*
X67718Y477678D01*
X67699Y477697D01*
X67674Y477719D01*
X67649Y477746D01*
X67619Y477779D01*
X67586Y477814D01*
X67548Y477853D01*
X67510Y477896D01*
X67466Y477943D01*
X67423Y477995D01*
X67374Y478052D01*
X67322Y478112D01*
X67319Y478115D01*
X67311Y478123D01*
X67300Y478139D01*
X67283Y478156D01*
X67264Y478180D01*
X67243Y478205D01*
X67193Y478262D01*
X67141Y478322D01*
X67087Y478380D01*
X67062Y478407D01*
X67040Y478432D01*
X67019Y478453D01*
X67002Y478470D01*
X67000Y478472D01*
X66989Y478483D01*
X66972Y478497D01*
X66951Y478516D01*
X66926Y478538D01*
X66899Y478560D01*
X66839Y478604D01*
Y477361D01*
X66541D01*
Y479029D01*
X66546D01*
X66560D01*
X66582D01*
X66609Y479027D01*
D02*
G37*
G36*
X157386Y98397D02*
X157419Y98395D01*
X157460Y98392D01*
X157504Y98386D01*
X157553Y98378D01*
X157605Y98370D01*
X157659Y98359D01*
X157714Y98346D01*
X157768Y98332D01*
X157826Y98313D01*
X157880Y98291D01*
X157932Y98266D01*
X157981Y98236D01*
X157984Y98233D01*
X157992Y98228D01*
X158006Y98220D01*
X158022Y98206D01*
X158044Y98187D01*
X158069Y98168D01*
X158096Y98143D01*
X158126Y98113D01*
X158156Y98081D01*
X158189Y98045D01*
X158219Y98007D01*
X158252Y97963D01*
X158284Y97917D01*
X158314Y97868D01*
X158342Y97813D01*
X158369Y97756D01*
X158372Y97753D01*
X158375Y97742D01*
X158380Y97723D01*
X158388Y97701D01*
X158399Y97671D01*
X158410Y97638D01*
X158421Y97597D01*
X158434Y97554D01*
X158446Y97505D01*
X158459Y97453D01*
X158470Y97398D01*
X158478Y97338D01*
X158495Y97212D01*
X158497Y97147D01*
X158500Y97082D01*
Y97076D01*
Y97065D01*
Y97043D01*
X158497Y97016D01*
X158495Y96980D01*
X158492Y96939D01*
X158486Y96896D01*
X158481Y96847D01*
X158473Y96795D01*
X158465Y96740D01*
X158437Y96623D01*
X158418Y96566D01*
X158399Y96508D01*
X158377Y96448D01*
X158350Y96394D01*
X158347Y96391D01*
X158342Y96380D01*
X158334Y96366D01*
X158323Y96344D01*
X158306Y96320D01*
X158287Y96293D01*
X158265Y96263D01*
X158241Y96227D01*
X158211Y96194D01*
X158181Y96156D01*
X158145Y96121D01*
X158107Y96082D01*
X158066Y96047D01*
X158022Y96011D01*
X157973Y95978D01*
X157924Y95948D01*
X157921Y95946D01*
X157910Y95943D01*
X157897Y95935D01*
X157875Y95924D01*
X157850Y95913D01*
X157818Y95899D01*
X157782Y95886D01*
X157744Y95872D01*
X157700Y95858D01*
X157651Y95845D01*
X157602Y95831D01*
X157547Y95820D01*
X157435Y95801D01*
X157375Y95798D01*
X157313Y95796D01*
X157277D01*
X157250Y95798D01*
X157217Y95801D01*
X157179Y95807D01*
X157138Y95812D01*
X157091Y95820D01*
X157042Y95831D01*
X156990Y95842D01*
X156939Y95858D01*
X156884Y95877D01*
X156829Y95899D01*
X156777Y95927D01*
X156726Y95954D01*
X156676Y95990D01*
X156674Y95992D01*
X156666Y95998D01*
X156652Y96009D01*
X156635Y96025D01*
X156614Y96044D01*
X156589Y96069D01*
X156564Y96096D01*
X156534Y96129D01*
X156504Y96164D01*
X156474Y96205D01*
X156444Y96249D01*
X156417Y96298D01*
X156387Y96350D01*
X156362Y96407D01*
X156338Y96467D01*
X156316Y96530D01*
X156644Y96606D01*
Y96604D01*
X156649Y96596D01*
X156652Y96579D01*
X156660Y96560D01*
X156668Y96538D01*
X156682Y96514D01*
X156709Y96454D01*
X156745Y96388D01*
X156791Y96320D01*
X156840Y96257D01*
X156870Y96230D01*
X156900Y96205D01*
X156903Y96202D01*
X156909Y96200D01*
X156917Y96194D01*
X156930Y96186D01*
X156947Y96175D01*
X156966Y96164D01*
X156988Y96153D01*
X157015Y96142D01*
X157045Y96131D01*
X157075Y96121D01*
X157146Y96099D01*
X157228Y96085D01*
X157272Y96079D01*
X157345D01*
X157367Y96082D01*
X157392Y96085D01*
X157422Y96088D01*
X157455Y96091D01*
X157487Y96096D01*
X157566Y96115D01*
X157648Y96140D01*
X157689Y96156D01*
X157730Y96175D01*
X157768Y96197D01*
X157807Y96222D01*
X157809Y96224D01*
X157815Y96227D01*
X157826Y96235D01*
X157839Y96246D01*
X157853Y96260D01*
X157872Y96279D01*
X157891Y96298D01*
X157913Y96320D01*
X157935Y96347D01*
X157959Y96374D01*
X158003Y96437D01*
X158044Y96511D01*
X158080Y96596D01*
Y96598D01*
X158082Y96606D01*
X158088Y96620D01*
X158091Y96636D01*
X158096Y96658D01*
X158104Y96683D01*
X158110Y96713D01*
X158118Y96743D01*
X158126Y96778D01*
X158132Y96817D01*
X158145Y96899D01*
X158153Y96986D01*
X158156Y97079D01*
Y97082D01*
Y97092D01*
Y97109D01*
X158153Y97133D01*
Y97161D01*
X158151Y97193D01*
X158148Y97229D01*
X158145Y97270D01*
X158140Y97313D01*
X158134Y97357D01*
X158118Y97453D01*
X158093Y97548D01*
X158063Y97641D01*
Y97644D01*
X158058Y97652D01*
X158052Y97663D01*
X158047Y97679D01*
X158036Y97701D01*
X158022Y97723D01*
X157992Y97775D01*
X157951Y97835D01*
X157902Y97892D01*
X157842Y97950D01*
X157809Y97974D01*
X157774Y97999D01*
X157771D01*
X157766Y98004D01*
X157755Y98010D01*
X157738Y98018D01*
X157719Y98026D01*
X157697Y98037D01*
X157673Y98045D01*
X157646Y98056D01*
X157583Y98078D01*
X157509Y98097D01*
X157430Y98111D01*
X157389Y98113D01*
X157345Y98116D01*
X157318D01*
X157299Y98113D01*
X157274Y98111D01*
X157247Y98108D01*
X157214Y98102D01*
X157182Y98097D01*
X157105Y98078D01*
X157067Y98064D01*
X157026Y98048D01*
X156985Y98029D01*
X156947Y98007D01*
X156909Y97982D01*
X156870Y97955D01*
X156868Y97952D01*
X156862Y97947D01*
X156851Y97939D01*
X156837Y97925D01*
X156824Y97909D01*
X156805Y97887D01*
X156786Y97862D01*
X156764Y97835D01*
X156742Y97802D01*
X156720Y97767D01*
X156698Y97729D01*
X156676Y97685D01*
X156657Y97638D01*
X156638Y97587D01*
X156619Y97532D01*
X156605Y97475D01*
X156272Y97559D01*
Y97565D01*
X156278Y97578D01*
X156283Y97597D01*
X156294Y97628D01*
X156305Y97660D01*
X156322Y97701D01*
X156338Y97745D01*
X156360Y97791D01*
X156384Y97843D01*
X156412Y97892D01*
X156442Y97947D01*
X156477Y97999D01*
X156515Y98048D01*
X156556Y98097D01*
X156603Y98143D01*
X156652Y98187D01*
X156655Y98190D01*
X156666Y98195D01*
X156679Y98206D01*
X156701Y98220D01*
X156726Y98236D01*
X156758Y98255D01*
X156794Y98274D01*
X156837Y98294D01*
X156884Y98313D01*
X156933Y98332D01*
X156988Y98351D01*
X157048Y98367D01*
X157111Y98381D01*
X157176Y98392D01*
X157244Y98397D01*
X157318Y98400D01*
X157356D01*
X157386Y98397D01*
D02*
G37*
G36*
X155131Y96391D02*
X155137Y96396D01*
X155150Y96410D01*
X155175Y96429D01*
X155210Y96456D01*
X155251Y96489D01*
X155303Y96525D01*
X155360Y96563D01*
X155426Y96604D01*
X155429D01*
X155434Y96609D01*
X155443Y96615D01*
X155456Y96620D01*
X155473Y96631D01*
X155492Y96639D01*
X155535Y96664D01*
X155584Y96688D01*
X155639Y96716D01*
X155696Y96740D01*
X155751Y96762D01*
Y96465D01*
X155748Y96462D01*
X155740Y96459D01*
X155726Y96451D01*
X155707Y96443D01*
X155685Y96432D01*
X155658Y96415D01*
X155628Y96399D01*
X155598Y96383D01*
X155527Y96339D01*
X155451Y96287D01*
X155371Y96232D01*
X155298Y96170D01*
X155295Y96167D01*
X155290Y96162D01*
X155279Y96153D01*
X155265Y96140D01*
X155251Y96123D01*
X155232Y96107D01*
X155191Y96060D01*
X155145Y96011D01*
X155098Y95954D01*
X155058Y95894D01*
X155022Y95831D01*
X154823D01*
Y98359D01*
X155131D01*
Y96391D01*
D02*
G37*
G36*
X153174D02*
X153179Y96396D01*
X153193Y96410D01*
X153217Y96429D01*
X153253Y96456D01*
X153294Y96489D01*
X153346Y96525D01*
X153403Y96563D01*
X153469Y96604D01*
X153471D01*
X153477Y96609D01*
X153485Y96615D01*
X153499Y96620D01*
X153515Y96631D01*
X153534Y96639D01*
X153578Y96664D01*
X153627Y96688D01*
X153682Y96716D01*
X153739Y96740D01*
X153794Y96762D01*
Y96465D01*
X153791Y96462D01*
X153783Y96459D01*
X153769Y96451D01*
X153750Y96443D01*
X153728Y96432D01*
X153701Y96415D01*
X153671Y96399D01*
X153641Y96383D01*
X153570Y96339D01*
X153493Y96287D01*
X153414Y96232D01*
X153340Y96170D01*
X153338Y96167D01*
X153332Y96162D01*
X153321Y96153D01*
X153308Y96140D01*
X153294Y96123D01*
X153275Y96107D01*
X153234Y96060D01*
X153188Y96011D01*
X153141Y95954D01*
X153100Y95894D01*
X153065Y95831D01*
X152865D01*
Y98359D01*
X153174D01*
Y96391D01*
D02*
G37*
G36*
X152884Y78597D02*
X152920Y78595D01*
X152961Y78592D01*
X153004Y78586D01*
X153053Y78581D01*
X153105Y78573D01*
X153160Y78565D01*
X153277Y78537D01*
X153334Y78518D01*
X153392Y78499D01*
X153452Y78477D01*
X153507Y78450D01*
X153509Y78447D01*
X153520Y78442D01*
X153534Y78434D01*
X153556Y78423D01*
X153580Y78406D01*
X153607Y78387D01*
X153638Y78365D01*
X153673Y78341D01*
X153706Y78311D01*
X153744Y78281D01*
X153779Y78245D01*
X153818Y78207D01*
X153853Y78166D01*
X153889Y78122D01*
X153921Y78073D01*
X153952Y78024D01*
X153954Y78021D01*
X153957Y78010D01*
X153965Y77997D01*
X153976Y77975D01*
X153987Y77950D01*
X154001Y77918D01*
X154014Y77882D01*
X154028Y77844D01*
X154042Y77800D01*
X154055Y77751D01*
X154069Y77702D01*
X154080Y77647D01*
X154099Y77535D01*
X154102Y77475D01*
X154104Y77412D01*
Y77377D01*
X154102Y77350D01*
X154099Y77317D01*
X154094Y77279D01*
X154088Y77238D01*
X154080Y77191D01*
X154069Y77142D01*
X154058Y77090D01*
X154042Y77039D01*
X154023Y76984D01*
X154001Y76929D01*
X153973Y76877D01*
X153946Y76825D01*
X153911Y76776D01*
X153908Y76774D01*
X153902Y76766D01*
X153891Y76752D01*
X153875Y76736D01*
X153856Y76714D01*
X153831Y76689D01*
X153804Y76665D01*
X153771Y76635D01*
X153736Y76604D01*
X153695Y76574D01*
X153651Y76544D01*
X153602Y76517D01*
X153550Y76487D01*
X153493Y76463D01*
X153433Y76438D01*
X153370Y76416D01*
X153294Y76744D01*
X153296D01*
X153305Y76749D01*
X153321Y76752D01*
X153340Y76760D01*
X153362Y76768D01*
X153386Y76782D01*
X153446Y76809D01*
X153512Y76845D01*
X153580Y76891D01*
X153643Y76940D01*
X153670Y76970D01*
X153695Y77000D01*
X153698Y77003D01*
X153700Y77008D01*
X153706Y77017D01*
X153714Y77030D01*
X153725Y77047D01*
X153736Y77066D01*
X153747Y77088D01*
X153758Y77115D01*
X153769Y77145D01*
X153779Y77175D01*
X153801Y77246D01*
X153815Y77328D01*
X153821Y77372D01*
Y77445D01*
X153818Y77467D01*
X153815Y77492D01*
X153812Y77522D01*
X153809Y77555D01*
X153804Y77587D01*
X153785Y77666D01*
X153760Y77748D01*
X153744Y77789D01*
X153725Y77830D01*
X153703Y77868D01*
X153679Y77907D01*
X153676Y77909D01*
X153673Y77915D01*
X153665Y77926D01*
X153654Y77939D01*
X153640Y77953D01*
X153621Y77972D01*
X153602Y77991D01*
X153580Y78013D01*
X153553Y78035D01*
X153526Y78060D01*
X153463Y78103D01*
X153389Y78144D01*
X153305Y78180D01*
X153302D01*
X153294Y78182D01*
X153280Y78188D01*
X153263Y78190D01*
X153242Y78196D01*
X153217Y78204D01*
X153187Y78210D01*
X153157Y78218D01*
X153122Y78226D01*
X153083Y78232D01*
X153001Y78245D01*
X152914Y78253D01*
X152821Y78256D01*
X152819D01*
X152808D01*
X152791D01*
X152767Y78253D01*
X152739D01*
X152707Y78251D01*
X152671Y78248D01*
X152630Y78245D01*
X152586Y78240D01*
X152543Y78234D01*
X152447Y78218D01*
X152352Y78193D01*
X152259Y78163D01*
X152256D01*
X152248Y78158D01*
X152237Y78152D01*
X152221Y78147D01*
X152199Y78136D01*
X152177Y78122D01*
X152125Y78092D01*
X152065Y78051D01*
X152008Y78002D01*
X151950Y77942D01*
X151926Y77909D01*
X151901Y77874D01*
Y77871D01*
X151896Y77866D01*
X151890Y77855D01*
X151882Y77838D01*
X151874Y77819D01*
X151863Y77797D01*
X151855Y77773D01*
X151844Y77746D01*
X151822Y77683D01*
X151803Y77609D01*
X151789Y77530D01*
X151787Y77489D01*
X151784Y77445D01*
Y77418D01*
X151787Y77399D01*
X151789Y77374D01*
X151792Y77347D01*
X151797Y77314D01*
X151803Y77281D01*
X151822Y77205D01*
X151836Y77167D01*
X151852Y77126D01*
X151871Y77085D01*
X151893Y77047D01*
X151918Y77008D01*
X151945Y76970D01*
X151948Y76968D01*
X151953Y76962D01*
X151961Y76951D01*
X151975Y76938D01*
X151991Y76924D01*
X152013Y76905D01*
X152038Y76886D01*
X152065Y76864D01*
X152098Y76842D01*
X152133Y76820D01*
X152172Y76798D01*
X152215Y76776D01*
X152262Y76757D01*
X152313Y76738D01*
X152368Y76719D01*
X152425Y76705D01*
X152341Y76372D01*
X152335D01*
X152322Y76378D01*
X152303Y76383D01*
X152272Y76394D01*
X152240Y76405D01*
X152199Y76421D01*
X152155Y76438D01*
X152109Y76460D01*
X152057Y76484D01*
X152008Y76512D01*
X151953Y76542D01*
X151901Y76577D01*
X151852Y76615D01*
X151803Y76656D01*
X151757Y76703D01*
X151713Y76752D01*
X151710Y76755D01*
X151705Y76766D01*
X151694Y76779D01*
X151680Y76801D01*
X151664Y76825D01*
X151645Y76858D01*
X151626Y76894D01*
X151606Y76938D01*
X151587Y76984D01*
X151568Y77033D01*
X151549Y77088D01*
X151533Y77148D01*
X151519Y77210D01*
X151508Y77276D01*
X151503Y77344D01*
X151500Y77418D01*
Y77456D01*
X151503Y77486D01*
X151505Y77519D01*
X151508Y77560D01*
X151514Y77604D01*
X151522Y77653D01*
X151530Y77705D01*
X151541Y77759D01*
X151555Y77814D01*
X151568Y77868D01*
X151587Y77926D01*
X151609Y77980D01*
X151634Y78032D01*
X151664Y78081D01*
X151666Y78084D01*
X151672Y78092D01*
X151680Y78106D01*
X151694Y78122D01*
X151713Y78144D01*
X151732Y78169D01*
X151757Y78196D01*
X151787Y78226D01*
X151819Y78256D01*
X151855Y78289D01*
X151893Y78319D01*
X151937Y78352D01*
X151983Y78384D01*
X152032Y78414D01*
X152087Y78442D01*
X152144Y78469D01*
X152147Y78472D01*
X152158Y78474D01*
X152177Y78480D01*
X152199Y78488D01*
X152229Y78499D01*
X152262Y78510D01*
X152303Y78521D01*
X152346Y78535D01*
X152395Y78545D01*
X152447Y78559D01*
X152502Y78570D01*
X152562Y78578D01*
X152688Y78595D01*
X152753Y78597D01*
X152819Y78600D01*
X152824D01*
X152835D01*
X152857D01*
X152884Y78597D01*
D02*
G37*
G36*
X153438Y75848D02*
X153441Y75840D01*
X153449Y75826D01*
X153457Y75807D01*
X153468Y75785D01*
X153485Y75758D01*
X153501Y75728D01*
X153517Y75698D01*
X153561Y75627D01*
X153613Y75551D01*
X153668Y75472D01*
X153730Y75398D01*
X153733Y75395D01*
X153739Y75390D01*
X153747Y75379D01*
X153760Y75365D01*
X153777Y75351D01*
X153793Y75332D01*
X153840Y75291D01*
X153889Y75245D01*
X153946Y75199D01*
X154006Y75157D01*
X154069Y75122D01*
Y74923D01*
X151541D01*
Y75231D01*
X153509D01*
X153504Y75237D01*
X153490Y75250D01*
X153471Y75275D01*
X153444Y75310D01*
X153411Y75351D01*
X153375Y75403D01*
X153337Y75461D01*
X153296Y75526D01*
Y75529D01*
X153291Y75534D01*
X153285Y75542D01*
X153280Y75556D01*
X153269Y75573D01*
X153261Y75592D01*
X153236Y75635D01*
X153212Y75684D01*
X153184Y75739D01*
X153160Y75796D01*
X153138Y75851D01*
X153436D01*
X153438Y75848D01*
D02*
G37*
G36*
X151609Y74169D02*
X151642Y74167D01*
X151677Y74158D01*
X151716Y74150D01*
X151754Y74137D01*
X151757D01*
X151762Y74134D01*
X151770Y74131D01*
X151784Y74126D01*
X151797Y74117D01*
X151817Y74109D01*
X151860Y74087D01*
X151912Y74060D01*
X151970Y74025D01*
X152030Y73984D01*
X152090Y73935D01*
X152092Y73932D01*
X152098Y73929D01*
X152106Y73921D01*
X152120Y73907D01*
X152133Y73893D01*
X152152Y73874D01*
X152174Y73855D01*
X152199Y73831D01*
X152226Y73803D01*
X152253Y73773D01*
X152286Y73741D01*
X152319Y73702D01*
X152354Y73664D01*
X152390Y73620D01*
X152428Y73577D01*
X152469Y73528D01*
X152472Y73522D01*
X152486Y73509D01*
X152502Y73489D01*
X152526Y73462D01*
X152554Y73429D01*
X152586Y73391D01*
X152622Y73348D01*
X152663Y73304D01*
X152748Y73211D01*
X152838Y73121D01*
X152881Y73077D01*
X152925Y73036D01*
X152966Y73001D01*
X153004Y72971D01*
X153007Y72968D01*
X153012Y72965D01*
X153023Y72957D01*
X153037Y72949D01*
X153056Y72935D01*
X153075Y72924D01*
X153124Y72897D01*
X153182Y72870D01*
X153244Y72845D01*
X153310Y72829D01*
X153343Y72826D01*
X153375Y72823D01*
X153378D01*
X153384D01*
X153395D01*
X153405Y72826D01*
X153422D01*
X153441Y72832D01*
X153482Y72840D01*
X153531Y72856D01*
X153583Y72881D01*
X153610Y72894D01*
X153635Y72913D01*
X153659Y72933D01*
X153684Y72957D01*
X153687Y72960D01*
X153689Y72963D01*
X153695Y72971D01*
X153703Y72982D01*
X153714Y72995D01*
X153725Y73012D01*
X153750Y73050D01*
X153771Y73102D01*
X153793Y73159D01*
X153807Y73227D01*
X153812Y73266D01*
Y73326D01*
X153809Y73342D01*
Y73361D01*
X153804Y73383D01*
X153796Y73432D01*
X153779Y73489D01*
X153755Y73549D01*
X153739Y73580D01*
X153722Y73610D01*
X153700Y73637D01*
X153676Y73664D01*
X153673Y73667D01*
X153670Y73670D01*
X153662Y73675D01*
X153651Y73686D01*
X153638Y73694D01*
X153621Y73705D01*
X153602Y73719D01*
X153580Y73730D01*
X153556Y73743D01*
X153528Y73754D01*
X153463Y73776D01*
X153392Y73792D01*
X153351Y73795D01*
X153307Y73798D01*
X153340Y74115D01*
X153345D01*
X153356Y74112D01*
X153373Y74109D01*
X153397Y74107D01*
X153427Y74101D01*
X153463Y74093D01*
X153501Y74085D01*
X153542Y74071D01*
X153583Y74057D01*
X153629Y74041D01*
X153673Y74019D01*
X153717Y73997D01*
X153763Y73970D01*
X153804Y73940D01*
X153845Y73907D01*
X153881Y73869D01*
X153883Y73866D01*
X153889Y73858D01*
X153897Y73847D01*
X153911Y73831D01*
X153924Y73809D01*
X153941Y73782D01*
X153957Y73752D01*
X153976Y73716D01*
X153992Y73678D01*
X154009Y73634D01*
X154025Y73588D01*
X154039Y73536D01*
X154052Y73481D01*
X154061Y73424D01*
X154066Y73361D01*
X154069Y73296D01*
Y73260D01*
X154066Y73236D01*
X154063Y73206D01*
X154058Y73170D01*
X154052Y73129D01*
X154044Y73088D01*
X154033Y73042D01*
X154020Y72995D01*
X154003Y72946D01*
X153984Y72900D01*
X153960Y72851D01*
X153932Y72804D01*
X153902Y72761D01*
X153867Y72720D01*
X153864Y72717D01*
X153859Y72711D01*
X153845Y72701D01*
X153831Y72687D01*
X153812Y72671D01*
X153788Y72651D01*
X153760Y72632D01*
X153728Y72613D01*
X153695Y72594D01*
X153657Y72575D01*
X153616Y72556D01*
X153572Y72539D01*
X153523Y72526D01*
X153474Y72515D01*
X153422Y72509D01*
X153367Y72507D01*
X153365D01*
X153362D01*
X153354D01*
X153343D01*
X153313Y72509D01*
X153275Y72515D01*
X153228Y72523D01*
X153179Y72534D01*
X153124Y72548D01*
X153070Y72570D01*
X153067D01*
X153064Y72572D01*
X153056Y72575D01*
X153045Y72580D01*
X153015Y72597D01*
X152977Y72619D01*
X152930Y72649D01*
X152879Y72684D01*
X152824Y72725D01*
X152764Y72777D01*
X152761Y72780D01*
X152756Y72782D01*
X152748Y72793D01*
X152734Y72804D01*
X152717Y72821D01*
X152698Y72840D01*
X152674Y72862D01*
X152649Y72889D01*
X152619Y72922D01*
X152586Y72957D01*
X152548Y72995D01*
X152510Y73039D01*
X152466Y73085D01*
X152423Y73137D01*
X152374Y73195D01*
X152322Y73255D01*
X152319Y73257D01*
X152311Y73266D01*
X152300Y73282D01*
X152284Y73298D01*
X152264Y73323D01*
X152243Y73348D01*
X152193Y73405D01*
X152141Y73465D01*
X152087Y73522D01*
X152062Y73549D01*
X152041Y73574D01*
X152019Y73596D01*
X152002Y73612D01*
X151999Y73615D01*
X151989Y73626D01*
X151972Y73640D01*
X151950Y73659D01*
X151926Y73681D01*
X151899Y73702D01*
X151839Y73746D01*
Y72504D01*
X151541D01*
Y74172D01*
X151546D01*
X151560D01*
X151582D01*
X151609Y74169D01*
D02*
G37*
G36*
X148947Y119218D02*
X148968D01*
X148998Y119212D01*
X149031Y119207D01*
X149067Y119202D01*
X149108Y119191D01*
X149151Y119177D01*
X149195Y119160D01*
X149241Y119141D01*
X149288Y119117D01*
X149337Y119090D01*
X149383Y119057D01*
X149430Y119021D01*
X149474Y118978D01*
X149476Y118975D01*
X149484Y118967D01*
X149495Y118953D01*
X149509Y118934D01*
X149525Y118912D01*
X149544Y118882D01*
X149566Y118849D01*
X149585Y118811D01*
X149607Y118770D01*
X149629Y118724D01*
X149648Y118675D01*
X149665Y118620D01*
X149678Y118563D01*
X149689Y118503D01*
X149697Y118440D01*
X149700Y118372D01*
Y118358D01*
X149697Y118339D01*
Y118317D01*
X149695Y118287D01*
X149689Y118254D01*
X149684Y118219D01*
X149676Y118178D01*
X149665Y118134D01*
X149651Y118090D01*
X149637Y118044D01*
X149618Y117998D01*
X149594Y117951D01*
X149569Y117908D01*
X149539Y117861D01*
X149504Y117820D01*
X149501Y117817D01*
X149495Y117812D01*
X149484Y117801D01*
X149468Y117785D01*
X149449Y117768D01*
X149424Y117749D01*
X149397Y117730D01*
X149364Y117708D01*
X149331Y117686D01*
X149291Y117665D01*
X149250Y117643D01*
X149203Y117624D01*
X149154Y117607D01*
X149102Y117591D01*
X149048Y117580D01*
X148990Y117572D01*
X148949Y117880D01*
X148952D01*
X148960Y117883D01*
X148974Y117886D01*
X148993Y117891D01*
X149015Y117897D01*
X149039Y117902D01*
X149097Y117921D01*
X149160Y117946D01*
X149222Y117976D01*
X149280Y118014D01*
X149304Y118036D01*
X149329Y118058D01*
Y118060D01*
X149334Y118063D01*
X149340Y118071D01*
X149348Y118079D01*
X149364Y118107D01*
X149386Y118145D01*
X149408Y118191D01*
X149424Y118243D01*
X149438Y118306D01*
X149443Y118372D01*
Y118393D01*
X149441Y118410D01*
X149438Y118426D01*
X149435Y118451D01*
X149424Y118500D01*
X149408Y118560D01*
X149381Y118623D01*
X149362Y118653D01*
X149342Y118683D01*
X149321Y118713D01*
X149293Y118743D01*
X149291Y118746D01*
X149285Y118748D01*
X149277Y118756D01*
X149266Y118767D01*
X149252Y118778D01*
X149233Y118789D01*
X149214Y118803D01*
X149189Y118819D01*
X149135Y118847D01*
X149072Y118868D01*
X148998Y118888D01*
X148960Y118890D01*
X148919Y118893D01*
X148916D01*
X148911D01*
X148897D01*
X148884Y118890D01*
X148865Y118888D01*
X148846Y118885D01*
X148796Y118877D01*
X148739Y118858D01*
X148682Y118833D01*
X148652Y118817D01*
X148624Y118798D01*
X148597Y118776D01*
X148570Y118751D01*
X148567Y118748D01*
X148564Y118746D01*
X148556Y118737D01*
X148548Y118727D01*
X148537Y118713D01*
X148526Y118696D01*
X148499Y118656D01*
X148474Y118604D01*
X148452Y118544D01*
X148436Y118475D01*
X148433Y118437D01*
X148431Y118399D01*
Y118383D01*
X148433Y118363D01*
Y118339D01*
X148439Y118306D01*
X148444Y118271D01*
X148452Y118227D01*
X148463Y118181D01*
X148193Y118213D01*
Y118219D01*
X148196Y118232D01*
X148199Y118249D01*
Y118284D01*
X148196Y118298D01*
Y118317D01*
X148193Y118336D01*
X148185Y118383D01*
X148174Y118437D01*
X148155Y118497D01*
X148130Y118560D01*
X148095Y118620D01*
Y118623D01*
X148089Y118628D01*
X148084Y118634D01*
X148076Y118645D01*
X148051Y118672D01*
X148016Y118702D01*
X147972Y118729D01*
X147917Y118756D01*
X147887Y118767D01*
X147852Y118773D01*
X147816Y118778D01*
X147778Y118781D01*
X147775D01*
X147770D01*
X147762D01*
X147748Y118778D01*
X147718Y118776D01*
X147677Y118767D01*
X147633Y118754D01*
X147587Y118732D01*
X147538Y118702D01*
X147516Y118685D01*
X147494Y118664D01*
X147489Y118658D01*
X147478Y118642D01*
X147459Y118617D01*
X147437Y118585D01*
X147418Y118541D01*
X147399Y118489D01*
X147388Y118432D01*
X147382Y118366D01*
Y118350D01*
X147385Y118336D01*
Y118320D01*
X147388Y118303D01*
X147396Y118260D01*
X147410Y118213D01*
X147431Y118161D01*
X147459Y118112D01*
X147497Y118063D01*
X147502Y118058D01*
X147519Y118044D01*
X147543Y118022D01*
X147582Y118000D01*
X147628Y117973D01*
X147688Y117948D01*
X147756Y117927D01*
X147836Y117910D01*
X147781Y117602D01*
X147778D01*
X147767Y117604D01*
X147751Y117607D01*
X147729Y117613D01*
X147704Y117621D01*
X147674Y117629D01*
X147642Y117640D01*
X147606Y117654D01*
X147527Y117689D01*
X147489Y117708D01*
X147448Y117733D01*
X147410Y117760D01*
X147371Y117790D01*
X147333Y117823D01*
X147300Y117858D01*
X147298Y117861D01*
X147292Y117867D01*
X147284Y117880D01*
X147273Y117894D01*
X147259Y117916D01*
X147246Y117938D01*
X147229Y117965D01*
X147213Y117998D01*
X147199Y118030D01*
X147183Y118069D01*
X147169Y118110D01*
X147156Y118153D01*
X147145Y118202D01*
X147137Y118252D01*
X147131Y118303D01*
X147128Y118358D01*
Y118393D01*
X147131Y118412D01*
X147134Y118432D01*
X147139Y118483D01*
X147150Y118541D01*
X147167Y118606D01*
X147188Y118672D01*
X147219Y118737D01*
Y118740D01*
X147221Y118746D01*
X147227Y118754D01*
X147235Y118767D01*
X147254Y118798D01*
X147281Y118836D01*
X147317Y118879D01*
X147358Y118923D01*
X147404Y118967D01*
X147459Y119005D01*
X147461D01*
X147464Y119008D01*
X147475Y119013D01*
X147486Y119019D01*
X147500Y119027D01*
X147516Y119035D01*
X147557Y119051D01*
X147606Y119068D01*
X147661Y119084D01*
X147721Y119095D01*
X147784Y119098D01*
X147786D01*
X147792D01*
X147800D01*
X147811D01*
X147844Y119092D01*
X147882Y119087D01*
X147928Y119076D01*
X147977Y119060D01*
X148029Y119038D01*
X148081Y119008D01*
X148084D01*
X148087Y119005D01*
X148103Y118991D01*
X148128Y118972D01*
X148158Y118942D01*
X148193Y118907D01*
X148229Y118860D01*
X148261Y118808D01*
X148294Y118748D01*
Y118751D01*
X148297Y118759D01*
X148300Y118770D01*
X148305Y118787D01*
X148310Y118803D01*
X148319Y118825D01*
X148340Y118877D01*
X148371Y118931D01*
X148406Y118989D01*
X148452Y119046D01*
X148510Y119095D01*
X148512Y119098D01*
X148518Y119100D01*
X148526Y119106D01*
X148540Y119114D01*
X148553Y119125D01*
X148573Y119136D01*
X148594Y119147D01*
X148622Y119158D01*
X148649Y119169D01*
X148679Y119180D01*
X148747Y119202D01*
X148826Y119215D01*
X148870Y119221D01*
X148914D01*
X148916D01*
X148927D01*
X148947Y119218D01*
D02*
G37*
G36*
X149656Y116469D02*
X147688D01*
X147694Y116463D01*
X147707Y116450D01*
X147726Y116425D01*
X147754Y116390D01*
X147786Y116349D01*
X147822Y116297D01*
X147860Y116240D01*
X147901Y116174D01*
Y116171D01*
X147906Y116166D01*
X147912Y116157D01*
X147917Y116144D01*
X147928Y116128D01*
X147936Y116108D01*
X147961Y116065D01*
X147986Y116016D01*
X148013Y115961D01*
X148038Y115904D01*
X148059Y115849D01*
X147762D01*
X147759Y115852D01*
X147756Y115860D01*
X147748Y115874D01*
X147740Y115893D01*
X147729Y115915D01*
X147713Y115942D01*
X147696Y115972D01*
X147680Y116002D01*
X147636Y116073D01*
X147584Y116149D01*
X147530Y116228D01*
X147467Y116302D01*
X147464Y116305D01*
X147459Y116310D01*
X147450Y116321D01*
X147437Y116335D01*
X147421Y116349D01*
X147404Y116368D01*
X147358Y116409D01*
X147309Y116455D01*
X147251Y116501D01*
X147191Y116542D01*
X147128Y116578D01*
Y116777D01*
X149656D01*
Y116469D01*
D02*
G37*
G36*
X148876Y115322D02*
X148895Y115317D01*
X148925Y115306D01*
X148958Y115295D01*
X148998Y115278D01*
X149042Y115262D01*
X149089Y115240D01*
X149140Y115216D01*
X149189Y115188D01*
X149244Y115158D01*
X149296Y115123D01*
X149345Y115085D01*
X149394Y115044D01*
X149441Y114997D01*
X149484Y114948D01*
X149487Y114945D01*
X149493Y114935D01*
X149504Y114921D01*
X149517Y114899D01*
X149533Y114874D01*
X149553Y114842D01*
X149572Y114806D01*
X149591Y114762D01*
X149610Y114716D01*
X149629Y114667D01*
X149648Y114612D01*
X149665Y114552D01*
X149678Y114489D01*
X149689Y114424D01*
X149695Y114356D01*
X149697Y114282D01*
Y114244D01*
X149695Y114214D01*
X149692Y114181D01*
X149689Y114140D01*
X149684Y114096D01*
X149676Y114047D01*
X149667Y113995D01*
X149656Y113941D01*
X149643Y113886D01*
X149629Y113832D01*
X149610Y113774D01*
X149588Y113720D01*
X149564Y113668D01*
X149533Y113619D01*
X149531Y113616D01*
X149525Y113608D01*
X149517Y113594D01*
X149504Y113578D01*
X149484Y113556D01*
X149465Y113531D01*
X149441Y113504D01*
X149411Y113474D01*
X149378Y113444D01*
X149342Y113411D01*
X149304Y113381D01*
X149260Y113348D01*
X149214Y113316D01*
X149165Y113286D01*
X149110Y113258D01*
X149053Y113231D01*
X149050Y113228D01*
X149039Y113225D01*
X149020Y113220D01*
X148998Y113212D01*
X148968Y113201D01*
X148936Y113190D01*
X148895Y113179D01*
X148851Y113165D01*
X148802Y113154D01*
X148750Y113141D01*
X148695Y113130D01*
X148635Y113122D01*
X148510Y113105D01*
X148444Y113103D01*
X148379Y113100D01*
X148373D01*
X148362D01*
X148340D01*
X148313Y113103D01*
X148278Y113105D01*
X148237Y113108D01*
X148193Y113114D01*
X148144Y113119D01*
X148092Y113127D01*
X148038Y113135D01*
X147920Y113163D01*
X147863Y113182D01*
X147805Y113201D01*
X147745Y113223D01*
X147691Y113250D01*
X147688Y113253D01*
X147677Y113258D01*
X147663Y113267D01*
X147642Y113277D01*
X147617Y113294D01*
X147590Y113313D01*
X147560Y113335D01*
X147524Y113359D01*
X147492Y113389D01*
X147453Y113419D01*
X147418Y113455D01*
X147380Y113493D01*
X147344Y113534D01*
X147309Y113578D01*
X147276Y113627D01*
X147246Y113676D01*
X147243Y113679D01*
X147240Y113690D01*
X147232Y113703D01*
X147221Y113725D01*
X147210Y113750D01*
X147197Y113782D01*
X147183Y113818D01*
X147169Y113856D01*
X147156Y113900D01*
X147142Y113949D01*
X147128Y113998D01*
X147117Y114053D01*
X147098Y114165D01*
X147096Y114225D01*
X147093Y114287D01*
Y114323D01*
X147096Y114350D01*
X147098Y114383D01*
X147104Y114421D01*
X147109Y114462D01*
X147117Y114509D01*
X147128Y114558D01*
X147139Y114610D01*
X147156Y114662D01*
X147175Y114716D01*
X147197Y114771D01*
X147224Y114823D01*
X147251Y114874D01*
X147287Y114924D01*
X147290Y114926D01*
X147295Y114935D01*
X147306Y114948D01*
X147322Y114964D01*
X147341Y114986D01*
X147366Y115011D01*
X147393Y115035D01*
X147426Y115066D01*
X147461Y115096D01*
X147502Y115126D01*
X147546Y115156D01*
X147595Y115183D01*
X147647Y115213D01*
X147704Y115237D01*
X147765Y115262D01*
X147827Y115284D01*
X147904Y114956D01*
X147901D01*
X147893Y114951D01*
X147876Y114948D01*
X147857Y114940D01*
X147836Y114932D01*
X147811Y114918D01*
X147751Y114891D01*
X147685Y114855D01*
X147617Y114809D01*
X147554Y114760D01*
X147527Y114730D01*
X147502Y114700D01*
X147500Y114697D01*
X147497Y114691D01*
X147492Y114683D01*
X147483Y114670D01*
X147472Y114653D01*
X147461Y114634D01*
X147450Y114612D01*
X147440Y114585D01*
X147429Y114555D01*
X147418Y114525D01*
X147396Y114454D01*
X147382Y114372D01*
X147377Y114328D01*
Y114255D01*
X147380Y114233D01*
X147382Y114208D01*
X147385Y114178D01*
X147388Y114146D01*
X147393Y114113D01*
X147412Y114034D01*
X147437Y113952D01*
X147453Y113911D01*
X147472Y113870D01*
X147494Y113832D01*
X147519Y113793D01*
X147521Y113791D01*
X147524Y113785D01*
X147532Y113774D01*
X147543Y113761D01*
X147557Y113747D01*
X147576Y113728D01*
X147595Y113709D01*
X147617Y113687D01*
X147644Y113665D01*
X147672Y113640D01*
X147734Y113597D01*
X147808Y113556D01*
X147893Y113520D01*
X147896D01*
X147904Y113518D01*
X147917Y113512D01*
X147934Y113509D01*
X147956Y113504D01*
X147980Y113496D01*
X148010Y113490D01*
X148040Y113482D01*
X148076Y113474D01*
X148114Y113469D01*
X148196Y113455D01*
X148283Y113447D01*
X148376Y113444D01*
X148379D01*
X148390D01*
X148406D01*
X148431Y113447D01*
X148458D01*
X148491Y113449D01*
X148526Y113452D01*
X148567Y113455D01*
X148611Y113460D01*
X148654Y113466D01*
X148750Y113482D01*
X148846Y113507D01*
X148938Y113537D01*
X148941D01*
X148949Y113542D01*
X148960Y113548D01*
X148977Y113553D01*
X148998Y113564D01*
X149020Y113578D01*
X149072Y113608D01*
X149132Y113649D01*
X149189Y113698D01*
X149247Y113758D01*
X149271Y113791D01*
X149296Y113826D01*
Y113829D01*
X149302Y113834D01*
X149307Y113845D01*
X149315Y113862D01*
X149323Y113881D01*
X149334Y113903D01*
X149342Y113927D01*
X149353Y113954D01*
X149375Y114017D01*
X149394Y114091D01*
X149408Y114170D01*
X149411Y114211D01*
X149413Y114255D01*
Y114282D01*
X149411Y114301D01*
X149408Y114326D01*
X149405Y114353D01*
X149400Y114386D01*
X149394Y114418D01*
X149375Y114495D01*
X149362Y114533D01*
X149345Y114574D01*
X149326Y114615D01*
X149304Y114653D01*
X149280Y114691D01*
X149252Y114730D01*
X149250Y114733D01*
X149244Y114738D01*
X149236Y114749D01*
X149222Y114762D01*
X149206Y114776D01*
X149184Y114795D01*
X149160Y114814D01*
X149132Y114836D01*
X149100Y114858D01*
X149064Y114880D01*
X149026Y114902D01*
X148982Y114924D01*
X148936Y114943D01*
X148884Y114962D01*
X148829Y114981D01*
X148772Y114995D01*
X148856Y115328D01*
X148862D01*
X148876Y115322D01*
D02*
G37*
G36*
X208550Y435904D02*
X208583Y435902D01*
X208621Y435896D01*
X208662Y435891D01*
X208709Y435883D01*
X208758Y435872D01*
X208810Y435861D01*
X208861Y435844D01*
X208916Y435825D01*
X208971Y435803D01*
X209023Y435776D01*
X209074Y435749D01*
X209124Y435713D01*
X209126Y435710D01*
X209135Y435705D01*
X209148Y435694D01*
X209165Y435678D01*
X209186Y435659D01*
X209211Y435634D01*
X209236Y435607D01*
X209265Y435574D01*
X209296Y435539D01*
X209326Y435498D01*
X209356Y435454D01*
X209383Y435405D01*
X209413Y435353D01*
X209437Y435296D01*
X209462Y435236D01*
X209484Y435173D01*
X209156Y435096D01*
Y435099D01*
X209151Y435107D01*
X209148Y435124D01*
X209140Y435143D01*
X209132Y435164D01*
X209118Y435189D01*
X209091Y435249D01*
X209055Y435315D01*
X209009Y435383D01*
X208960Y435446D01*
X208930Y435473D01*
X208900Y435498D01*
X208897Y435500D01*
X208892Y435503D01*
X208883Y435508D01*
X208870Y435517D01*
X208853Y435528D01*
X208834Y435539D01*
X208812Y435549D01*
X208785Y435560D01*
X208755Y435571D01*
X208725Y435582D01*
X208654Y435604D01*
X208572Y435618D01*
X208528Y435623D01*
X208455D01*
X208433Y435620D01*
X208408Y435618D01*
X208378Y435615D01*
X208346Y435612D01*
X208313Y435607D01*
X208234Y435588D01*
X208152Y435563D01*
X208111Y435547D01*
X208070Y435528D01*
X208032Y435506D01*
X207993Y435481D01*
X207991Y435478D01*
X207985Y435476D01*
X207974Y435468D01*
X207961Y435457D01*
X207947Y435443D01*
X207928Y435424D01*
X207909Y435405D01*
X207887Y435383D01*
X207865Y435356D01*
X207840Y435328D01*
X207797Y435265D01*
X207756Y435192D01*
X207720Y435107D01*
Y435105D01*
X207718Y435096D01*
X207712Y435083D01*
X207710Y435066D01*
X207704Y435044D01*
X207696Y435020D01*
X207690Y434990D01*
X207682Y434960D01*
X207674Y434924D01*
X207668Y434886D01*
X207655Y434804D01*
X207647Y434717D01*
X207644Y434624D01*
Y434621D01*
Y434610D01*
Y434594D01*
X207647Y434569D01*
Y434542D01*
X207649Y434509D01*
X207652Y434474D01*
X207655Y434433D01*
X207660Y434389D01*
X207666Y434345D01*
X207682Y434250D01*
X207707Y434154D01*
X207737Y434062D01*
Y434059D01*
X207742Y434051D01*
X207748Y434040D01*
X207753Y434023D01*
X207764Y434002D01*
X207778Y433980D01*
X207808Y433928D01*
X207849Y433868D01*
X207898Y433811D01*
X207958Y433753D01*
X207991Y433729D01*
X208026Y433704D01*
X208029D01*
X208034Y433699D01*
X208045Y433693D01*
X208062Y433685D01*
X208081Y433677D01*
X208103Y433666D01*
X208127Y433658D01*
X208154Y433647D01*
X208217Y433625D01*
X208291Y433606D01*
X208370Y433592D01*
X208411Y433589D01*
X208455Y433587D01*
X208482D01*
X208501Y433589D01*
X208526Y433592D01*
X208553Y433595D01*
X208586Y433600D01*
X208618Y433606D01*
X208695Y433625D01*
X208733Y433638D01*
X208774Y433655D01*
X208815Y433674D01*
X208853Y433696D01*
X208892Y433720D01*
X208930Y433748D01*
X208932Y433750D01*
X208938Y433756D01*
X208949Y433764D01*
X208962Y433778D01*
X208976Y433794D01*
X208995Y433816D01*
X209014Y433841D01*
X209036Y433868D01*
X209058Y433901D01*
X209080Y433936D01*
X209102Y433974D01*
X209124Y434018D01*
X209143Y434064D01*
X209162Y434116D01*
X209181Y434171D01*
X209195Y434228D01*
X209528Y434143D01*
Y434138D01*
X209522Y434124D01*
X209517Y434105D01*
X209506Y434075D01*
X209495Y434043D01*
X209478Y434002D01*
X209462Y433958D01*
X209440Y433912D01*
X209416Y433860D01*
X209388Y433811D01*
X209358Y433756D01*
X209323Y433704D01*
X209285Y433655D01*
X209244Y433606D01*
X209197Y433559D01*
X209148Y433516D01*
X209145Y433513D01*
X209135Y433507D01*
X209121Y433497D01*
X209099Y433483D01*
X209074Y433466D01*
X209042Y433447D01*
X209006Y433428D01*
X208962Y433409D01*
X208916Y433390D01*
X208867Y433371D01*
X208812Y433352D01*
X208752Y433335D01*
X208689Y433322D01*
X208624Y433311D01*
X208556Y433305D01*
X208482Y433303D01*
X208444D01*
X208414Y433305D01*
X208381Y433308D01*
X208340Y433311D01*
X208296Y433316D01*
X208247Y433324D01*
X208195Y433333D01*
X208141Y433344D01*
X208086Y433357D01*
X208032Y433371D01*
X207974Y433390D01*
X207920Y433412D01*
X207868Y433436D01*
X207819Y433466D01*
X207816Y433469D01*
X207808Y433475D01*
X207794Y433483D01*
X207778Y433497D01*
X207756Y433516D01*
X207731Y433535D01*
X207704Y433559D01*
X207674Y433589D01*
X207644Y433622D01*
X207611Y433658D01*
X207581Y433696D01*
X207548Y433740D01*
X207516Y433786D01*
X207486Y433835D01*
X207458Y433890D01*
X207431Y433947D01*
X207428Y433950D01*
X207425Y433961D01*
X207420Y433980D01*
X207412Y434002D01*
X207401Y434032D01*
X207390Y434064D01*
X207379Y434105D01*
X207365Y434149D01*
X207355Y434198D01*
X207341Y434250D01*
X207330Y434305D01*
X207322Y434365D01*
X207305Y434490D01*
X207303Y434556D01*
X207300Y434621D01*
Y434627D01*
Y434638D01*
Y434659D01*
X207303Y434687D01*
X207305Y434722D01*
X207308Y434763D01*
X207314Y434807D01*
X207319Y434856D01*
X207327Y434908D01*
X207335Y434963D01*
X207363Y435080D01*
X207382Y435137D01*
X207401Y435195D01*
X207423Y435255D01*
X207450Y435309D01*
X207453Y435312D01*
X207458Y435323D01*
X207467Y435336D01*
X207477Y435358D01*
X207494Y435383D01*
X207513Y435410D01*
X207535Y435440D01*
X207559Y435476D01*
X207589Y435508D01*
X207619Y435547D01*
X207655Y435582D01*
X207693Y435620D01*
X207734Y435656D01*
X207778Y435691D01*
X207827Y435724D01*
X207876Y435754D01*
X207879Y435757D01*
X207890Y435760D01*
X207903Y435768D01*
X207925Y435779D01*
X207950Y435790D01*
X207982Y435803D01*
X208018Y435817D01*
X208056Y435831D01*
X208100Y435844D01*
X208149Y435858D01*
X208198Y435872D01*
X208253Y435883D01*
X208365Y435902D01*
X208425Y435904D01*
X208488Y435907D01*
X208523D01*
X208550Y435904D01*
D02*
G37*
G36*
X210655Y435869D02*
X210674Y435866D01*
X210726Y435861D01*
X210783Y435850D01*
X210849Y435833D01*
X210914Y435812D01*
X210980Y435781D01*
X210983D01*
X210988Y435779D01*
X210996Y435773D01*
X211010Y435765D01*
X211040Y435746D01*
X211078Y435719D01*
X211122Y435683D01*
X211166Y435642D01*
X211209Y435596D01*
X211247Y435541D01*
Y435539D01*
X211250Y435536D01*
X211256Y435525D01*
X211261Y435514D01*
X211269Y435500D01*
X211278Y435484D01*
X211294Y435443D01*
X211310Y435394D01*
X211327Y435339D01*
X211338Y435279D01*
X211340Y435216D01*
Y435214D01*
Y435208D01*
Y435200D01*
Y435189D01*
X211335Y435156D01*
X211329Y435118D01*
X211318Y435072D01*
X211302Y435023D01*
X211280Y434971D01*
X211250Y434919D01*
Y434916D01*
X211247Y434913D01*
X211234Y434897D01*
X211215Y434872D01*
X211185Y434842D01*
X211149Y434807D01*
X211103Y434771D01*
X211051Y434739D01*
X210991Y434706D01*
X210994D01*
X211002Y434703D01*
X211013Y434700D01*
X211029Y434695D01*
X211046Y434690D01*
X211067Y434681D01*
X211119Y434659D01*
X211174Y434629D01*
X211231Y434594D01*
X211288Y434548D01*
X211338Y434490D01*
X211340Y434487D01*
X211343Y434482D01*
X211349Y434474D01*
X211357Y434460D01*
X211368Y434447D01*
X211379Y434427D01*
X211389Y434406D01*
X211400Y434378D01*
X211411Y434351D01*
X211422Y434321D01*
X211444Y434253D01*
X211458Y434173D01*
X211463Y434130D01*
Y434086D01*
Y434084D01*
Y434072D01*
X211460Y434053D01*
Y434032D01*
X211455Y434002D01*
X211450Y433969D01*
X211444Y433933D01*
X211433Y433892D01*
X211420Y433849D01*
X211403Y433805D01*
X211384Y433759D01*
X211360Y433712D01*
X211332Y433663D01*
X211299Y433617D01*
X211264Y433570D01*
X211220Y433527D01*
X211217Y433524D01*
X211209Y433516D01*
X211196Y433505D01*
X211176Y433491D01*
X211155Y433475D01*
X211125Y433456D01*
X211092Y433434D01*
X211054Y433415D01*
X211013Y433393D01*
X210966Y433371D01*
X210917Y433352D01*
X210863Y433335D01*
X210805Y433322D01*
X210745Y433311D01*
X210682Y433303D01*
X210614Y433300D01*
X210600D01*
X210581Y433303D01*
X210560D01*
X210529Y433305D01*
X210497Y433311D01*
X210461Y433316D01*
X210420Y433324D01*
X210377Y433335D01*
X210333Y433349D01*
X210287Y433363D01*
X210240Y433382D01*
X210194Y433406D01*
X210150Y433431D01*
X210104Y433461D01*
X210063Y433497D01*
X210060Y433499D01*
X210054Y433505D01*
X210044Y433516D01*
X210027Y433532D01*
X210011Y433551D01*
X209992Y433576D01*
X209973Y433603D01*
X209951Y433636D01*
X209929Y433669D01*
X209907Y433709D01*
X209885Y433750D01*
X209866Y433797D01*
X209850Y433846D01*
X209833Y433898D01*
X209823Y433952D01*
X209814Y434010D01*
X210123Y434051D01*
Y434048D01*
X210125Y434040D01*
X210128Y434026D01*
X210134Y434007D01*
X210139Y433985D01*
X210145Y433961D01*
X210164Y433903D01*
X210188Y433841D01*
X210218Y433778D01*
X210257Y433720D01*
X210278Y433696D01*
X210300Y433671D01*
X210303D01*
X210306Y433666D01*
X210314Y433660D01*
X210322Y433652D01*
X210349Y433636D01*
X210388Y433614D01*
X210434Y433592D01*
X210486Y433576D01*
X210549Y433562D01*
X210614Y433557D01*
X210636D01*
X210652Y433559D01*
X210669Y433562D01*
X210693Y433565D01*
X210742Y433576D01*
X210803Y433592D01*
X210865Y433619D01*
X210895Y433638D01*
X210925Y433658D01*
X210955Y433679D01*
X210985Y433707D01*
X210988Y433709D01*
X210991Y433715D01*
X210999Y433723D01*
X211010Y433734D01*
X211021Y433748D01*
X211032Y433767D01*
X211046Y433786D01*
X211062Y433811D01*
X211089Y433865D01*
X211111Y433928D01*
X211130Y434002D01*
X211133Y434040D01*
X211136Y434081D01*
Y434084D01*
Y434089D01*
Y434103D01*
X211133Y434116D01*
X211130Y434135D01*
X211127Y434154D01*
X211119Y434204D01*
X211100Y434261D01*
X211075Y434318D01*
X211059Y434348D01*
X211040Y434376D01*
X211018Y434403D01*
X210994Y434430D01*
X210991Y434433D01*
X210988Y434436D01*
X210980Y434444D01*
X210969Y434452D01*
X210955Y434463D01*
X210939Y434474D01*
X210898Y434501D01*
X210846Y434526D01*
X210786Y434548D01*
X210718Y434564D01*
X210680Y434567D01*
X210642Y434569D01*
X210625D01*
X210606Y434567D01*
X210581D01*
X210549Y434561D01*
X210513Y434556D01*
X210470Y434548D01*
X210423Y434537D01*
X210456Y434807D01*
X210461D01*
X210475Y434804D01*
X210491Y434801D01*
X210527D01*
X210541Y434804D01*
X210560D01*
X210579Y434807D01*
X210625Y434815D01*
X210680Y434826D01*
X210740Y434845D01*
X210803Y434870D01*
X210863Y434905D01*
X210865D01*
X210871Y434911D01*
X210876Y434916D01*
X210887Y434924D01*
X210914Y434949D01*
X210945Y434984D01*
X210972Y435028D01*
X210999Y435083D01*
X211010Y435113D01*
X211016Y435148D01*
X211021Y435184D01*
X211024Y435222D01*
Y435225D01*
Y435230D01*
Y435238D01*
X211021Y435252D01*
X211018Y435282D01*
X211010Y435323D01*
X210996Y435367D01*
X210975Y435413D01*
X210945Y435462D01*
X210928Y435484D01*
X210906Y435506D01*
X210901Y435511D01*
X210884Y435522D01*
X210860Y435541D01*
X210827Y435563D01*
X210783Y435582D01*
X210732Y435601D01*
X210674Y435612D01*
X210609Y435618D01*
X210592D01*
X210579Y435615D01*
X210562D01*
X210546Y435612D01*
X210502Y435604D01*
X210456Y435590D01*
X210404Y435569D01*
X210355Y435541D01*
X210306Y435503D01*
X210300Y435498D01*
X210287Y435481D01*
X210265Y435457D01*
X210243Y435418D01*
X210216Y435372D01*
X210191Y435312D01*
X210169Y435244D01*
X210153Y435164D01*
X209844Y435219D01*
Y435222D01*
X209847Y435233D01*
X209850Y435249D01*
X209855Y435271D01*
X209863Y435296D01*
X209872Y435326D01*
X209882Y435358D01*
X209896Y435394D01*
X209932Y435473D01*
X209951Y435511D01*
X209975Y435552D01*
X210003Y435590D01*
X210033Y435629D01*
X210065Y435667D01*
X210101Y435700D01*
X210104Y435702D01*
X210109Y435708D01*
X210123Y435716D01*
X210136Y435727D01*
X210158Y435741D01*
X210180Y435754D01*
X210207Y435771D01*
X210240Y435787D01*
X210273Y435801D01*
X210311Y435817D01*
X210352Y435831D01*
X210396Y435844D01*
X210445Y435855D01*
X210494Y435863D01*
X210546Y435869D01*
X210600Y435872D01*
X210636D01*
X210655Y435869D01*
D02*
G37*
G36*
X138550Y435102D02*
X138583Y435099D01*
X138621Y435093D01*
X138662Y435088D01*
X138709Y435080D01*
X138758Y435069D01*
X138810Y435058D01*
X138862Y435042D01*
X138916Y435022D01*
X138971Y435001D01*
X139023Y434973D01*
X139075Y434946D01*
X139124Y434910D01*
X139126Y434908D01*
X139135Y434902D01*
X139148Y434891D01*
X139164Y434875D01*
X139186Y434856D01*
X139211Y434831D01*
X139235Y434804D01*
X139266Y434771D01*
X139296Y434736D01*
X139326Y434695D01*
X139356Y434651D01*
X139383Y434602D01*
X139413Y434550D01*
X139437Y434493D01*
X139462Y434433D01*
X139484Y434370D01*
X139156Y434294D01*
Y434296D01*
X139151Y434305D01*
X139148Y434321D01*
X139140Y434340D01*
X139132Y434362D01*
X139118Y434386D01*
X139091Y434446D01*
X139055Y434512D01*
X139009Y434580D01*
X138960Y434643D01*
X138930Y434670D01*
X138900Y434695D01*
X138897Y434698D01*
X138891Y434700D01*
X138883Y434706D01*
X138870Y434714D01*
X138853Y434725D01*
X138834Y434736D01*
X138812Y434747D01*
X138785Y434758D01*
X138755Y434769D01*
X138725Y434780D01*
X138654Y434801D01*
X138572Y434815D01*
X138528Y434820D01*
X138455D01*
X138433Y434818D01*
X138408Y434815D01*
X138378Y434812D01*
X138346Y434809D01*
X138313Y434804D01*
X138234Y434785D01*
X138152Y434760D01*
X138111Y434744D01*
X138070Y434725D01*
X138032Y434703D01*
X137993Y434679D01*
X137991Y434676D01*
X137985Y434673D01*
X137974Y434665D01*
X137961Y434654D01*
X137947Y434640D01*
X137928Y434621D01*
X137909Y434602D01*
X137887Y434580D01*
X137865Y434553D01*
X137840Y434526D01*
X137797Y434463D01*
X137756Y434389D01*
X137720Y434305D01*
Y434302D01*
X137718Y434294D01*
X137712Y434280D01*
X137709Y434264D01*
X137704Y434242D01*
X137696Y434217D01*
X137690Y434187D01*
X137682Y434157D01*
X137674Y434122D01*
X137669Y434083D01*
X137655Y434001D01*
X137647Y433914D01*
X137644Y433821D01*
Y433818D01*
Y433808D01*
Y433791D01*
X137647Y433767D01*
Y433739D01*
X137649Y433707D01*
X137652Y433671D01*
X137655Y433630D01*
X137660Y433587D01*
X137666Y433543D01*
X137682Y433447D01*
X137707Y433352D01*
X137737Y433259D01*
Y433256D01*
X137742Y433248D01*
X137748Y433237D01*
X137753Y433221D01*
X137764Y433199D01*
X137778Y433177D01*
X137808Y433125D01*
X137849Y433065D01*
X137898Y433008D01*
X137958Y432950D01*
X137991Y432926D01*
X138026Y432901D01*
X138029D01*
X138034Y432896D01*
X138045Y432890D01*
X138062Y432882D01*
X138081Y432874D01*
X138103Y432863D01*
X138127Y432855D01*
X138154Y432844D01*
X138217Y432822D01*
X138291Y432803D01*
X138370Y432789D01*
X138411Y432787D01*
X138455Y432784D01*
X138482D01*
X138501Y432787D01*
X138526Y432789D01*
X138553Y432792D01*
X138586Y432797D01*
X138619Y432803D01*
X138695Y432822D01*
X138733Y432836D01*
X138774Y432852D01*
X138815Y432871D01*
X138853Y432893D01*
X138891Y432918D01*
X138930Y432945D01*
X138933Y432948D01*
X138938Y432953D01*
X138949Y432961D01*
X138962Y432975D01*
X138976Y432991D01*
X138995Y433013D01*
X139014Y433038D01*
X139036Y433065D01*
X139058Y433098D01*
X139080Y433133D01*
X139102Y433172D01*
X139124Y433215D01*
X139143Y433262D01*
X139162Y433314D01*
X139181Y433368D01*
X139195Y433425D01*
X139528Y433341D01*
Y433335D01*
X139522Y433322D01*
X139517Y433303D01*
X139506Y433273D01*
X139495Y433240D01*
X139479Y433199D01*
X139462Y433155D01*
X139440Y433109D01*
X139416Y433057D01*
X139388Y433008D01*
X139358Y432953D01*
X139323Y432901D01*
X139285Y432852D01*
X139244Y432803D01*
X139197Y432757D01*
X139148Y432713D01*
X139145Y432710D01*
X139135Y432705D01*
X139121Y432694D01*
X139099Y432680D01*
X139075Y432664D01*
X139042Y432645D01*
X139006Y432625D01*
X138962Y432606D01*
X138916Y432587D01*
X138867Y432568D01*
X138812Y432549D01*
X138752Y432533D01*
X138689Y432519D01*
X138624Y432508D01*
X138556Y432503D01*
X138482Y432500D01*
X138444D01*
X138414Y432503D01*
X138381Y432505D01*
X138340Y432508D01*
X138296Y432514D01*
X138247Y432522D01*
X138195Y432530D01*
X138141Y432541D01*
X138086Y432555D01*
X138032Y432568D01*
X137974Y432587D01*
X137920Y432609D01*
X137868Y432634D01*
X137819Y432664D01*
X137816Y432666D01*
X137808Y432672D01*
X137794Y432680D01*
X137778Y432694D01*
X137756Y432713D01*
X137731Y432732D01*
X137704Y432757D01*
X137674Y432787D01*
X137644Y432819D01*
X137611Y432855D01*
X137581Y432893D01*
X137548Y432937D01*
X137516Y432983D01*
X137486Y433032D01*
X137458Y433087D01*
X137431Y433144D01*
X137428Y433147D01*
X137425Y433158D01*
X137420Y433177D01*
X137412Y433199D01*
X137401Y433229D01*
X137390Y433262D01*
X137379Y433303D01*
X137365Y433346D01*
X137355Y433395D01*
X137341Y433447D01*
X137330Y433502D01*
X137322Y433562D01*
X137305Y433687D01*
X137303Y433753D01*
X137300Y433818D01*
Y433824D01*
Y433835D01*
Y433857D01*
X137303Y433884D01*
X137305Y433919D01*
X137308Y433960D01*
X137314Y434004D01*
X137319Y434053D01*
X137327Y434105D01*
X137335Y434160D01*
X137363Y434277D01*
X137382Y434335D01*
X137401Y434392D01*
X137423Y434452D01*
X137450Y434507D01*
X137453Y434509D01*
X137458Y434520D01*
X137467Y434534D01*
X137477Y434556D01*
X137494Y434580D01*
X137513Y434608D01*
X137535Y434637D01*
X137559Y434673D01*
X137589Y434706D01*
X137619Y434744D01*
X137655Y434780D01*
X137693Y434818D01*
X137734Y434853D01*
X137778Y434889D01*
X137827Y434922D01*
X137876Y434951D01*
X137879Y434954D01*
X137890Y434957D01*
X137903Y434965D01*
X137925Y434976D01*
X137950Y434987D01*
X137982Y435001D01*
X138018Y435014D01*
X138056Y435028D01*
X138100Y435042D01*
X138149Y435055D01*
X138198Y435069D01*
X138253Y435080D01*
X138365Y435099D01*
X138425Y435102D01*
X138488Y435104D01*
X138523D01*
X138550Y435102D01*
D02*
G37*
G36*
X140977Y432541D02*
X140669D01*
Y434509D01*
X140663Y434504D01*
X140650Y434490D01*
X140625Y434471D01*
X140590Y434444D01*
X140549Y434411D01*
X140497Y434375D01*
X140439Y434337D01*
X140374Y434296D01*
X140371D01*
X140366Y434291D01*
X140357Y434285D01*
X140344Y434280D01*
X140328Y434269D01*
X140308Y434261D01*
X140265Y434236D01*
X140216Y434212D01*
X140161Y434184D01*
X140104Y434160D01*
X140049Y434138D01*
Y434436D01*
X140052Y434438D01*
X140060Y434441D01*
X140074Y434449D01*
X140093Y434457D01*
X140115Y434468D01*
X140142Y434485D01*
X140172Y434501D01*
X140202Y434517D01*
X140273Y434561D01*
X140349Y434613D01*
X140428Y434668D01*
X140502Y434730D01*
X140505Y434733D01*
X140510Y434739D01*
X140521Y434747D01*
X140535Y434760D01*
X140549Y434777D01*
X140568Y434793D01*
X140609Y434840D01*
X140655Y434889D01*
X140701Y434946D01*
X140743Y435006D01*
X140778Y435069D01*
X140977D01*
Y432541D01*
D02*
G37*
G36*
X53220Y452302D02*
X52922D01*
Y453667D01*
X52141D01*
Y452485D01*
X51844D01*
Y453667D01*
X50700D01*
Y454000D01*
X53220D01*
Y452302D01*
D02*
G37*
G36*
X52597Y451756D02*
X52600Y451748D01*
X52608Y451734D01*
X52616Y451715D01*
X52627Y451693D01*
X52644Y451666D01*
X52660Y451636D01*
X52676Y451606D01*
X52720Y451535D01*
X52772Y451458D01*
X52827Y451379D01*
X52889Y451305D01*
X52892Y451303D01*
X52898Y451297D01*
X52906Y451286D01*
X52919Y451273D01*
X52936Y451259D01*
X52952Y451240D01*
X52999Y451199D01*
X53048Y451153D01*
X53105Y451106D01*
X53165Y451065D01*
X53228Y451030D01*
Y450831D01*
X50700D01*
Y451139D01*
X52668D01*
X52663Y451145D01*
X52649Y451158D01*
X52630Y451183D01*
X52603Y451218D01*
X52570Y451259D01*
X52535Y451311D01*
X52496Y451368D01*
X52455Y451434D01*
Y451437D01*
X52450Y451442D01*
X52444Y451450D01*
X52439Y451464D01*
X52428Y451480D01*
X52420Y451499D01*
X52395Y451543D01*
X52371Y451592D01*
X52343Y451647D01*
X52319Y451704D01*
X52297Y451759D01*
X52595D01*
X52597Y451756D01*
D02*
G37*
G36*
X85045Y60278D02*
X85075D01*
X85108Y60276D01*
X85149Y60270D01*
X85190Y60265D01*
X85283Y60251D01*
X85381Y60229D01*
X85477Y60199D01*
X85523Y60183D01*
X85567Y60161D01*
X85570Y60158D01*
X85578Y60156D01*
X85589Y60148D01*
X85602Y60139D01*
X85622Y60126D01*
X85643Y60109D01*
X85665Y60093D01*
X85690Y60071D01*
X85744Y60022D01*
X85796Y59962D01*
X85845Y59891D01*
X85867Y59850D01*
X85886Y59809D01*
Y59806D01*
X85889Y59798D01*
X85895Y59784D01*
X85900Y59765D01*
X85908Y59743D01*
X85916Y59713D01*
X85925Y59681D01*
X85933Y59642D01*
X85944Y59599D01*
X85952Y59552D01*
X85960Y59500D01*
X85966Y59443D01*
X85974Y59383D01*
X85976Y59318D01*
X85982Y59249D01*
Y59176D01*
Y57721D01*
X85649D01*
Y59176D01*
Y59178D01*
Y59189D01*
Y59206D01*
Y59230D01*
X85646Y59258D01*
Y59288D01*
X85643Y59323D01*
X85641Y59359D01*
X85635Y59438D01*
X85624Y59517D01*
X85608Y59593D01*
X85600Y59629D01*
X85589Y59659D01*
Y59662D01*
X85586Y59664D01*
X85583Y59672D01*
X85578Y59683D01*
X85562Y59713D01*
X85540Y59746D01*
X85512Y59787D01*
X85477Y59825D01*
X85433Y59864D01*
X85381Y59899D01*
X85379D01*
X85373Y59902D01*
X85365Y59907D01*
X85354Y59913D01*
X85340Y59918D01*
X85321Y59924D01*
X85302Y59932D01*
X85280Y59940D01*
X85226Y59954D01*
X85163Y59967D01*
X85092Y59978D01*
X85015Y59981D01*
X84980D01*
X84955Y59978D01*
X84925Y59975D01*
X84890Y59973D01*
X84852Y59967D01*
X84811Y59959D01*
X84726Y59940D01*
X84682Y59926D01*
X84639Y59910D01*
X84598Y59891D01*
X84560Y59869D01*
X84524Y59844D01*
X84491Y59814D01*
X84489Y59812D01*
X84483Y59806D01*
X84478Y59795D01*
X84467Y59782D01*
X84456Y59763D01*
X84442Y59738D01*
X84426Y59708D01*
X84412Y59672D01*
X84399Y59632D01*
X84382Y59585D01*
X84368Y59533D01*
X84358Y59476D01*
X84347Y59410D01*
X84338Y59339D01*
X84336Y59260D01*
X84333Y59176D01*
Y57721D01*
X84000D01*
Y59176D01*
Y59181D01*
Y59192D01*
Y59211D01*
Y59238D01*
X84003Y59271D01*
X84005Y59307D01*
X84008Y59348D01*
X84011Y59394D01*
X84022Y59490D01*
X84035Y59591D01*
X84057Y59689D01*
X84071Y59735D01*
X84087Y59779D01*
Y59782D01*
X84090Y59790D01*
X84096Y59801D01*
X84104Y59817D01*
X84115Y59836D01*
X84126Y59858D01*
X84158Y59907D01*
X84177Y59937D01*
X84199Y59965D01*
X84227Y59997D01*
X84254Y60027D01*
X84287Y60057D01*
X84319Y60087D01*
X84358Y60115D01*
X84399Y60142D01*
X84401Y60145D01*
X84409Y60148D01*
X84420Y60156D01*
X84439Y60164D01*
X84461Y60175D01*
X84489Y60186D01*
X84519Y60199D01*
X84557Y60210D01*
X84595Y60224D01*
X84639Y60238D01*
X84688Y60249D01*
X84740Y60259D01*
X84797Y60268D01*
X84857Y60276D01*
X84920Y60278D01*
X84985Y60281D01*
X85021D01*
X85045Y60278D01*
D02*
G37*
G36*
X82578Y59637D02*
X83675D01*
Y59353D01*
X82523Y57721D01*
X82269D01*
Y59353D01*
X81928D01*
Y59637D01*
X82269D01*
Y60240D01*
X82578D01*
Y59637D01*
D02*
G37*
G36*
X99884Y68797D02*
X99920Y68795D01*
X99961Y68792D01*
X100004Y68786D01*
X100053Y68781D01*
X100105Y68773D01*
X100160Y68765D01*
X100277Y68737D01*
X100335Y68718D01*
X100392Y68699D01*
X100452Y68677D01*
X100506Y68650D01*
X100509Y68647D01*
X100520Y68642D01*
X100534Y68634D01*
X100556Y68623D01*
X100580Y68606D01*
X100608Y68587D01*
X100637Y68565D01*
X100673Y68541D01*
X100706Y68511D01*
X100744Y68481D01*
X100779Y68445D01*
X100818Y68407D01*
X100853Y68366D01*
X100889Y68322D01*
X100921Y68273D01*
X100952Y68224D01*
X100954Y68221D01*
X100957Y68210D01*
X100965Y68197D01*
X100976Y68175D01*
X100987Y68150D01*
X101001Y68118D01*
X101014Y68082D01*
X101028Y68044D01*
X101042Y68000D01*
X101055Y67951D01*
X101069Y67902D01*
X101080Y67847D01*
X101099Y67735D01*
X101102Y67675D01*
X101104Y67612D01*
Y67577D01*
X101102Y67550D01*
X101099Y67517D01*
X101093Y67479D01*
X101088Y67438D01*
X101080Y67391D01*
X101069Y67342D01*
X101058Y67290D01*
X101042Y67238D01*
X101023Y67184D01*
X101001Y67129D01*
X100973Y67077D01*
X100946Y67026D01*
X100910Y66976D01*
X100908Y66974D01*
X100902Y66966D01*
X100891Y66952D01*
X100875Y66935D01*
X100856Y66914D01*
X100831Y66889D01*
X100804Y66865D01*
X100771Y66834D01*
X100736Y66804D01*
X100695Y66774D01*
X100651Y66744D01*
X100602Y66717D01*
X100550Y66687D01*
X100493Y66663D01*
X100433Y66638D01*
X100370Y66616D01*
X100294Y66944D01*
X100296D01*
X100304Y66949D01*
X100321Y66952D01*
X100340Y66960D01*
X100362Y66968D01*
X100386Y66982D01*
X100446Y67009D01*
X100512Y67045D01*
X100580Y67091D01*
X100643Y67140D01*
X100670Y67170D01*
X100695Y67200D01*
X100698Y67203D01*
X100700Y67208D01*
X100706Y67217D01*
X100714Y67230D01*
X100725Y67247D01*
X100736Y67266D01*
X100747Y67288D01*
X100758Y67315D01*
X100769Y67345D01*
X100779Y67375D01*
X100801Y67446D01*
X100815Y67528D01*
X100821Y67572D01*
Y67645D01*
X100818Y67667D01*
X100815Y67692D01*
X100812Y67722D01*
X100810Y67755D01*
X100804Y67787D01*
X100785Y67866D01*
X100760Y67948D01*
X100744Y67989D01*
X100725Y68030D01*
X100703Y68068D01*
X100679Y68107D01*
X100676Y68109D01*
X100673Y68115D01*
X100665Y68126D01*
X100654Y68139D01*
X100640Y68153D01*
X100621Y68172D01*
X100602Y68191D01*
X100580Y68213D01*
X100553Y68235D01*
X100526Y68260D01*
X100463Y68303D01*
X100389Y68344D01*
X100304Y68380D01*
X100302D01*
X100294Y68382D01*
X100280Y68388D01*
X100264Y68391D01*
X100242Y68396D01*
X100217Y68404D01*
X100187Y68410D01*
X100157Y68418D01*
X100122Y68426D01*
X100083Y68432D01*
X100001Y68445D01*
X99914Y68453D01*
X99821Y68456D01*
X99818D01*
X99808D01*
X99791D01*
X99767Y68453D01*
X99739D01*
X99707Y68451D01*
X99671Y68448D01*
X99630Y68445D01*
X99586Y68440D01*
X99543Y68434D01*
X99447Y68418D01*
X99352Y68393D01*
X99259Y68363D01*
X99256D01*
X99248Y68358D01*
X99237Y68352D01*
X99221Y68347D01*
X99199Y68336D01*
X99177Y68322D01*
X99125Y68292D01*
X99065Y68251D01*
X99008Y68202D01*
X98950Y68142D01*
X98926Y68109D01*
X98901Y68074D01*
Y68071D01*
X98896Y68066D01*
X98890Y68055D01*
X98882Y68038D01*
X98874Y68019D01*
X98863Y67997D01*
X98855Y67973D01*
X98844Y67946D01*
X98822Y67883D01*
X98803Y67809D01*
X98789Y67730D01*
X98787Y67689D01*
X98784Y67645D01*
Y67618D01*
X98787Y67599D01*
X98789Y67574D01*
X98792Y67547D01*
X98798Y67514D01*
X98803Y67481D01*
X98822Y67405D01*
X98836Y67367D01*
X98852Y67326D01*
X98871Y67285D01*
X98893Y67247D01*
X98918Y67208D01*
X98945Y67170D01*
X98948Y67168D01*
X98953Y67162D01*
X98961Y67151D01*
X98975Y67137D01*
X98991Y67124D01*
X99013Y67105D01*
X99038Y67086D01*
X99065Y67064D01*
X99098Y67042D01*
X99133Y67020D01*
X99172Y66998D01*
X99215Y66976D01*
X99262Y66957D01*
X99313Y66938D01*
X99368Y66919D01*
X99425Y66905D01*
X99341Y66572D01*
X99335D01*
X99322Y66578D01*
X99303Y66583D01*
X99273Y66594D01*
X99240Y66605D01*
X99199Y66622D01*
X99155Y66638D01*
X99109Y66660D01*
X99057Y66684D01*
X99008Y66712D01*
X98953Y66742D01*
X98901Y66777D01*
X98852Y66815D01*
X98803Y66856D01*
X98757Y66903D01*
X98713Y66952D01*
X98710Y66955D01*
X98705Y66966D01*
X98694Y66979D01*
X98680Y67001D01*
X98664Y67026D01*
X98645Y67058D01*
X98625Y67094D01*
X98606Y67137D01*
X98587Y67184D01*
X98568Y67233D01*
X98549Y67288D01*
X98533Y67348D01*
X98519Y67410D01*
X98508Y67476D01*
X98503Y67544D01*
X98500Y67618D01*
Y67656D01*
X98503Y67686D01*
X98505Y67719D01*
X98508Y67760D01*
X98514Y67804D01*
X98522Y67853D01*
X98530Y67905D01*
X98541Y67959D01*
X98554Y68014D01*
X98568Y68068D01*
X98587Y68126D01*
X98609Y68180D01*
X98634Y68232D01*
X98664Y68281D01*
X98667Y68284D01*
X98672Y68292D01*
X98680Y68306D01*
X98694Y68322D01*
X98713Y68344D01*
X98732Y68369D01*
X98757Y68396D01*
X98787Y68426D01*
X98819Y68456D01*
X98855Y68489D01*
X98893Y68519D01*
X98937Y68552D01*
X98983Y68584D01*
X99032Y68614D01*
X99087Y68642D01*
X99144Y68669D01*
X99147Y68672D01*
X99158Y68674D01*
X99177Y68680D01*
X99199Y68688D01*
X99229Y68699D01*
X99262Y68710D01*
X99303Y68721D01*
X99346Y68735D01*
X99395Y68745D01*
X99447Y68759D01*
X99502Y68770D01*
X99562Y68778D01*
X99687Y68795D01*
X99753Y68797D01*
X99818Y68800D01*
X99824D01*
X99835D01*
X99857D01*
X99884Y68797D01*
D02*
G37*
G36*
X100438Y66048D02*
X100441Y66040D01*
X100449Y66026D01*
X100457Y66007D01*
X100468Y65985D01*
X100485Y65958D01*
X100501Y65928D01*
X100517Y65898D01*
X100561Y65827D01*
X100613Y65751D01*
X100668Y65671D01*
X100730Y65598D01*
X100733Y65595D01*
X100739Y65590D01*
X100747Y65579D01*
X100760Y65565D01*
X100777Y65551D01*
X100793Y65532D01*
X100840Y65491D01*
X100889Y65445D01*
X100946Y65399D01*
X101006Y65358D01*
X101069Y65322D01*
Y65123D01*
X98541D01*
Y65431D01*
X100509D01*
X100504Y65437D01*
X100490Y65450D01*
X100471Y65475D01*
X100444Y65510D01*
X100411Y65551D01*
X100375Y65603D01*
X100337Y65661D01*
X100296Y65726D01*
Y65729D01*
X100291Y65734D01*
X100285Y65742D01*
X100280Y65756D01*
X100269Y65772D01*
X100261Y65792D01*
X100236Y65835D01*
X100212Y65884D01*
X100184Y65939D01*
X100160Y65996D01*
X100138Y66051D01*
X100435D01*
X100438Y66048D01*
D02*
G37*
G36*
X99226Y64003D02*
X99223D01*
X99215Y64001D01*
X99204Y63998D01*
X99188Y63995D01*
X99169Y63993D01*
X99144Y63984D01*
X99092Y63971D01*
X99035Y63949D01*
X98975Y63919D01*
X98920Y63883D01*
X98896Y63862D01*
X98871Y63840D01*
Y63837D01*
X98866Y63834D01*
X98860Y63826D01*
X98852Y63815D01*
X98833Y63788D01*
X98814Y63749D01*
X98792Y63703D01*
X98773Y63648D01*
X98759Y63589D01*
X98757Y63556D01*
X98754Y63520D01*
Y63498D01*
X98757Y63482D01*
X98759Y63463D01*
X98762Y63441D01*
X98776Y63389D01*
X98795Y63329D01*
X98808Y63299D01*
X98825Y63266D01*
X98844Y63234D01*
X98866Y63204D01*
X98890Y63174D01*
X98920Y63143D01*
X98923Y63141D01*
X98929Y63138D01*
X98937Y63130D01*
X98950Y63119D01*
X98970Y63108D01*
X98989Y63094D01*
X99013Y63081D01*
X99041Y63064D01*
X99071Y63051D01*
X99103Y63037D01*
X99142Y63023D01*
X99180Y63012D01*
X99223Y63002D01*
X99270Y62993D01*
X99316Y62991D01*
X99368Y62988D01*
X99371D01*
X99379D01*
X99393D01*
X99412Y62991D01*
X99434Y62993D01*
X99461Y62996D01*
X99488Y63002D01*
X99521Y63007D01*
X99586Y63023D01*
X99657Y63051D01*
X99690Y63067D01*
X99723Y63089D01*
X99756Y63111D01*
X99786Y63138D01*
X99788Y63141D01*
X99791Y63143D01*
X99799Y63154D01*
X99810Y63165D01*
X99821Y63179D01*
X99835Y63198D01*
X99849Y63217D01*
X99865Y63242D01*
X99879Y63269D01*
X99892Y63296D01*
X99917Y63365D01*
X99928Y63400D01*
X99936Y63441D01*
X99939Y63482D01*
X99941Y63526D01*
Y63550D01*
X99939Y63580D01*
X99933Y63616D01*
X99925Y63660D01*
X99911Y63706D01*
X99895Y63752D01*
X99870Y63799D01*
X99868Y63804D01*
X99859Y63818D01*
X99843Y63840D01*
X99824Y63867D01*
X99797Y63894D01*
X99767Y63927D01*
X99731Y63957D01*
X99693Y63984D01*
X99734Y64274D01*
X101028Y64031D01*
Y62778D01*
X100733D01*
Y63785D01*
X100056Y63919D01*
X100059Y63916D01*
X100064Y63908D01*
X100070Y63897D01*
X100081Y63881D01*
X100092Y63859D01*
X100105Y63834D01*
X100122Y63807D01*
X100135Y63774D01*
X100149Y63741D01*
X100165Y63703D01*
X100190Y63624D01*
X100201Y63580D01*
X100209Y63537D01*
X100212Y63490D01*
X100214Y63444D01*
Y63430D01*
X100212Y63411D01*
Y63389D01*
X100206Y63362D01*
X100204Y63329D01*
X100195Y63291D01*
X100187Y63253D01*
X100173Y63209D01*
X100160Y63165D01*
X100141Y63119D01*
X100119Y63073D01*
X100092Y63026D01*
X100062Y62980D01*
X100026Y62933D01*
X99985Y62890D01*
X99982Y62887D01*
X99974Y62879D01*
X99961Y62868D01*
X99944Y62854D01*
X99922Y62835D01*
X99892Y62816D01*
X99862Y62797D01*
X99827Y62775D01*
X99786Y62753D01*
X99739Y62734D01*
X99693Y62712D01*
X99638Y62696D01*
X99584Y62682D01*
X99524Y62671D01*
X99461Y62663D01*
X99395Y62660D01*
X99393D01*
X99379D01*
X99363D01*
X99338Y62663D01*
X99308Y62666D01*
X99275Y62671D01*
X99237Y62677D01*
X99193Y62685D01*
X99150Y62696D01*
X99101Y62709D01*
X99051Y62726D01*
X99002Y62745D01*
X98953Y62767D01*
X98901Y62794D01*
X98852Y62824D01*
X98806Y62860D01*
X98803Y62862D01*
X98792Y62871D01*
X98778Y62884D01*
X98759Y62903D01*
X98735Y62928D01*
X98710Y62958D01*
X98680Y62993D01*
X98653Y63034D01*
X98625Y63078D01*
X98595Y63127D01*
X98571Y63182D01*
X98549Y63242D01*
X98527Y63305D01*
X98514Y63373D01*
X98503Y63444D01*
X98500Y63520D01*
Y63553D01*
X98503Y63578D01*
X98505Y63608D01*
X98511Y63640D01*
X98516Y63679D01*
X98524Y63719D01*
X98533Y63763D01*
X98546Y63810D01*
X98563Y63856D01*
X98582Y63902D01*
X98604Y63949D01*
X98628Y63995D01*
X98658Y64039D01*
X98691Y64083D01*
X98694Y64085D01*
X98699Y64091D01*
X98710Y64102D01*
X98726Y64115D01*
X98746Y64135D01*
X98768Y64154D01*
X98795Y64173D01*
X98827Y64195D01*
X98860Y64216D01*
X98899Y64238D01*
X98942Y64257D01*
X98986Y64276D01*
X99035Y64296D01*
X99087Y64309D01*
X99144Y64320D01*
X99202Y64328D01*
X99226Y64003D01*
D02*
G37*
G36*
X72250Y66402D02*
X72283Y66399D01*
X72321Y66393D01*
X72362Y66388D01*
X72409Y66380D01*
X72458Y66369D01*
X72510Y66358D01*
X72562Y66342D01*
X72616Y66322D01*
X72671Y66301D01*
X72723Y66273D01*
X72774Y66246D01*
X72824Y66211D01*
X72826Y66208D01*
X72834Y66202D01*
X72848Y66191D01*
X72865Y66175D01*
X72886Y66156D01*
X72911Y66131D01*
X72935Y66104D01*
X72966Y66071D01*
X72996Y66036D01*
X73026Y65995D01*
X73056Y65951D01*
X73083Y65902D01*
X73113Y65850D01*
X73137Y65793D01*
X73162Y65733D01*
X73184Y65670D01*
X72856Y65594D01*
Y65596D01*
X72851Y65605D01*
X72848Y65621D01*
X72840Y65640D01*
X72832Y65662D01*
X72818Y65686D01*
X72791Y65746D01*
X72755Y65812D01*
X72709Y65880D01*
X72660Y65943D01*
X72630Y65970D01*
X72600Y65995D01*
X72597Y65998D01*
X72592Y66000D01*
X72583Y66006D01*
X72570Y66014D01*
X72553Y66025D01*
X72534Y66036D01*
X72512Y66047D01*
X72485Y66058D01*
X72455Y66069D01*
X72425Y66079D01*
X72354Y66101D01*
X72272Y66115D01*
X72228Y66120D01*
X72155D01*
X72133Y66118D01*
X72108Y66115D01*
X72078Y66112D01*
X72045Y66110D01*
X72013Y66104D01*
X71934Y66085D01*
X71852Y66060D01*
X71811Y66044D01*
X71770Y66025D01*
X71732Y66003D01*
X71693Y65978D01*
X71691Y65976D01*
X71685Y65973D01*
X71674Y65965D01*
X71661Y65954D01*
X71647Y65940D01*
X71628Y65921D01*
X71609Y65902D01*
X71587Y65880D01*
X71565Y65853D01*
X71540Y65826D01*
X71497Y65763D01*
X71456Y65689D01*
X71420Y65605D01*
Y65602D01*
X71418Y65594D01*
X71412Y65580D01*
X71409Y65563D01*
X71404Y65542D01*
X71396Y65517D01*
X71390Y65487D01*
X71382Y65457D01*
X71374Y65422D01*
X71368Y65383D01*
X71355Y65301D01*
X71347Y65214D01*
X71344Y65121D01*
Y65118D01*
Y65108D01*
Y65091D01*
X71347Y65067D01*
Y65039D01*
X71349Y65007D01*
X71352Y64971D01*
X71355Y64930D01*
X71360Y64886D01*
X71366Y64843D01*
X71382Y64747D01*
X71407Y64652D01*
X71437Y64559D01*
Y64556D01*
X71442Y64548D01*
X71448Y64537D01*
X71453Y64521D01*
X71464Y64499D01*
X71478Y64477D01*
X71508Y64425D01*
X71549Y64365D01*
X71598Y64308D01*
X71658Y64250D01*
X71691Y64226D01*
X71726Y64201D01*
X71729D01*
X71734Y64196D01*
X71745Y64190D01*
X71762Y64182D01*
X71781Y64174D01*
X71803Y64163D01*
X71827Y64155D01*
X71854Y64144D01*
X71917Y64122D01*
X71991Y64103D01*
X72070Y64089D01*
X72111Y64087D01*
X72155Y64084D01*
X72182D01*
X72201Y64087D01*
X72226Y64089D01*
X72253Y64092D01*
X72286Y64097D01*
X72319Y64103D01*
X72395Y64122D01*
X72433Y64136D01*
X72474Y64152D01*
X72515Y64171D01*
X72553Y64193D01*
X72592Y64218D01*
X72630Y64245D01*
X72632Y64248D01*
X72638Y64253D01*
X72649Y64261D01*
X72663Y64275D01*
X72676Y64291D01*
X72695Y64313D01*
X72714Y64338D01*
X72736Y64365D01*
X72758Y64398D01*
X72780Y64433D01*
X72802Y64472D01*
X72824Y64515D01*
X72843Y64562D01*
X72862Y64613D01*
X72881Y64668D01*
X72895Y64725D01*
X73228Y64641D01*
Y64635D01*
X73222Y64622D01*
X73217Y64603D01*
X73206Y64573D01*
X73195Y64540D01*
X73178Y64499D01*
X73162Y64455D01*
X73140Y64409D01*
X73116Y64357D01*
X73088Y64308D01*
X73058Y64253D01*
X73023Y64201D01*
X72985Y64152D01*
X72944Y64103D01*
X72897Y64057D01*
X72848Y64013D01*
X72845Y64010D01*
X72834Y64005D01*
X72821Y63994D01*
X72799Y63980D01*
X72774Y63964D01*
X72742Y63945D01*
X72706Y63925D01*
X72663Y63906D01*
X72616Y63887D01*
X72567Y63868D01*
X72512Y63849D01*
X72452Y63833D01*
X72390Y63819D01*
X72324Y63808D01*
X72256Y63803D01*
X72182Y63800D01*
X72144D01*
X72114Y63803D01*
X72081Y63805D01*
X72040Y63808D01*
X71996Y63814D01*
X71947Y63822D01*
X71895Y63830D01*
X71841Y63841D01*
X71786Y63854D01*
X71732Y63868D01*
X71674Y63887D01*
X71620Y63909D01*
X71568Y63934D01*
X71519Y63964D01*
X71516Y63967D01*
X71508Y63972D01*
X71494Y63980D01*
X71478Y63994D01*
X71456Y64013D01*
X71431Y64032D01*
X71404Y64057D01*
X71374Y64087D01*
X71344Y64119D01*
X71311Y64155D01*
X71281Y64193D01*
X71248Y64237D01*
X71216Y64283D01*
X71186Y64332D01*
X71158Y64387D01*
X71131Y64444D01*
X71128Y64447D01*
X71126Y64458D01*
X71120Y64477D01*
X71112Y64499D01*
X71101Y64529D01*
X71090Y64562D01*
X71079Y64603D01*
X71065Y64646D01*
X71055Y64695D01*
X71041Y64747D01*
X71030Y64802D01*
X71022Y64862D01*
X71005Y64987D01*
X71003Y65053D01*
X71000Y65118D01*
Y65124D01*
Y65135D01*
Y65157D01*
X71003Y65184D01*
X71005Y65220D01*
X71008Y65260D01*
X71014Y65304D01*
X71019Y65353D01*
X71027Y65405D01*
X71035Y65460D01*
X71063Y65577D01*
X71082Y65635D01*
X71101Y65692D01*
X71123Y65752D01*
X71150Y65807D01*
X71153Y65809D01*
X71158Y65820D01*
X71166Y65834D01*
X71177Y65856D01*
X71194Y65880D01*
X71213Y65908D01*
X71235Y65938D01*
X71259Y65973D01*
X71289Y66006D01*
X71319Y66044D01*
X71355Y66079D01*
X71393Y66118D01*
X71434Y66153D01*
X71478Y66189D01*
X71527Y66221D01*
X71576Y66251D01*
X71579Y66254D01*
X71590Y66257D01*
X71603Y66265D01*
X71625Y66276D01*
X71650Y66287D01*
X71682Y66301D01*
X71718Y66314D01*
X71756Y66328D01*
X71800Y66342D01*
X71849Y66355D01*
X71898Y66369D01*
X71953Y66380D01*
X72065Y66399D01*
X72125Y66402D01*
X72188Y66404D01*
X72223D01*
X72250Y66402D01*
D02*
G37*
G36*
X76771Y64728D02*
X77112D01*
Y64444D01*
X76771D01*
Y63841D01*
X76463D01*
Y64444D01*
X75365D01*
Y64728D01*
X76517Y66361D01*
X76771D01*
Y64728D01*
D02*
G37*
G36*
X74677Y63841D02*
X74369D01*
Y65809D01*
X74363Y65804D01*
X74350Y65790D01*
X74325Y65771D01*
X74290Y65744D01*
X74249Y65711D01*
X74197Y65675D01*
X74139Y65637D01*
X74074Y65596D01*
X74071D01*
X74066Y65591D01*
X74058Y65585D01*
X74044Y65580D01*
X74028Y65569D01*
X74008Y65561D01*
X73965Y65536D01*
X73916Y65512D01*
X73861Y65484D01*
X73804Y65460D01*
X73749Y65438D01*
Y65736D01*
X73752Y65738D01*
X73760Y65741D01*
X73774Y65749D01*
X73793Y65757D01*
X73815Y65768D01*
X73842Y65785D01*
X73872Y65801D01*
X73902Y65817D01*
X73973Y65861D01*
X74049Y65913D01*
X74129Y65968D01*
X74202Y66030D01*
X74205Y66033D01*
X74210Y66039D01*
X74221Y66047D01*
X74235Y66060D01*
X74249Y66077D01*
X74268Y66093D01*
X74309Y66140D01*
X74355Y66189D01*
X74401Y66246D01*
X74442Y66306D01*
X74478Y66369D01*
X74677D01*
Y63841D01*
D02*
G37*
G36*
X196359Y101270D02*
X196354D01*
X196340D01*
X196318D01*
X196291Y101272D01*
X196258Y101275D01*
X196223Y101283D01*
X196184Y101291D01*
X196146Y101305D01*
X196143D01*
X196138Y101308D01*
X196130Y101311D01*
X196116Y101316D01*
X196102Y101324D01*
X196083Y101332D01*
X196040Y101354D01*
X195988Y101382D01*
X195931Y101417D01*
X195870Y101458D01*
X195810Y101507D01*
X195808Y101510D01*
X195802Y101513D01*
X195794Y101521D01*
X195780Y101534D01*
X195767Y101548D01*
X195748Y101567D01*
X195726Y101586D01*
X195701Y101611D01*
X195674Y101638D01*
X195647Y101668D01*
X195614Y101701D01*
X195581Y101739D01*
X195546Y101777D01*
X195510Y101821D01*
X195472Y101865D01*
X195431Y101914D01*
X195428Y101919D01*
X195414Y101933D01*
X195398Y101952D01*
X195374Y101979D01*
X195346Y102012D01*
X195314Y102050D01*
X195278Y102094D01*
X195237Y102138D01*
X195152Y102231D01*
X195062Y102321D01*
X195019Y102364D01*
X194975Y102405D01*
X194934Y102441D01*
X194896Y102471D01*
X194893Y102473D01*
X194888Y102476D01*
X194877Y102484D01*
X194863Y102493D01*
X194844Y102506D01*
X194825Y102517D01*
X194776Y102544D01*
X194718Y102572D01*
X194656Y102596D01*
X194590Y102613D01*
X194557Y102615D01*
X194525Y102618D01*
X194522D01*
X194516D01*
X194505D01*
X194494Y102615D01*
X194478D01*
X194459Y102610D01*
X194418Y102602D01*
X194369Y102585D01*
X194317Y102561D01*
X194290Y102547D01*
X194265Y102528D01*
X194241Y102509D01*
X194216Y102484D01*
X194213Y102482D01*
X194211Y102479D01*
X194205Y102471D01*
X194197Y102460D01*
X194186Y102446D01*
X194175Y102430D01*
X194150Y102392D01*
X194129Y102340D01*
X194107Y102282D01*
X194093Y102214D01*
X194088Y102176D01*
Y102116D01*
X194090Y102100D01*
Y102080D01*
X194096Y102059D01*
X194104Y102009D01*
X194121Y101952D01*
X194145Y101892D01*
X194161Y101862D01*
X194178Y101832D01*
X194200Y101805D01*
X194224Y101777D01*
X194227Y101775D01*
X194230Y101772D01*
X194238Y101766D01*
X194249Y101755D01*
X194263Y101747D01*
X194279Y101736D01*
X194298Y101723D01*
X194320Y101712D01*
X194344Y101698D01*
X194372Y101687D01*
X194437Y101665D01*
X194508Y101649D01*
X194549Y101646D01*
X194593Y101644D01*
X194560Y101327D01*
X194555D01*
X194544Y101330D01*
X194527Y101332D01*
X194503Y101335D01*
X194473Y101341D01*
X194437Y101349D01*
X194399Y101357D01*
X194358Y101371D01*
X194317Y101384D01*
X194271Y101401D01*
X194227Y101423D01*
X194183Y101444D01*
X194137Y101472D01*
X194096Y101502D01*
X194055Y101534D01*
X194019Y101573D01*
X194017Y101575D01*
X194011Y101584D01*
X194003Y101594D01*
X193990Y101611D01*
X193976Y101633D01*
X193959Y101660D01*
X193943Y101690D01*
X193924Y101725D01*
X193908Y101764D01*
X193891Y101807D01*
X193875Y101854D01*
X193861Y101906D01*
X193848Y101960D01*
X193839Y102018D01*
X193834Y102080D01*
X193831Y102146D01*
Y102181D01*
X193834Y102206D01*
X193837Y102236D01*
X193842Y102271D01*
X193848Y102313D01*
X193856Y102353D01*
X193867Y102400D01*
X193880Y102446D01*
X193897Y102495D01*
X193916Y102542D01*
X193940Y102591D01*
X193968Y102637D01*
X193998Y102681D01*
X194033Y102722D01*
X194036Y102725D01*
X194041Y102730D01*
X194055Y102741D01*
X194069Y102755D01*
X194088Y102771D01*
X194112Y102790D01*
X194140Y102809D01*
X194172Y102828D01*
X194205Y102848D01*
X194243Y102867D01*
X194284Y102886D01*
X194328Y102902D01*
X194377Y102916D01*
X194426Y102927D01*
X194478Y102932D01*
X194533Y102935D01*
X194536D01*
X194538D01*
X194546D01*
X194557D01*
X194587Y102932D01*
X194625Y102927D01*
X194672Y102919D01*
X194721Y102908D01*
X194776Y102894D01*
X194830Y102872D01*
X194833D01*
X194836Y102869D01*
X194844Y102867D01*
X194855Y102861D01*
X194885Y102845D01*
X194923Y102823D01*
X194969Y102793D01*
X195021Y102757D01*
X195076Y102717D01*
X195136Y102665D01*
X195139Y102662D01*
X195144Y102659D01*
X195152Y102648D01*
X195166Y102637D01*
X195183Y102621D01*
X195202Y102602D01*
X195226Y102580D01*
X195251Y102553D01*
X195281Y102520D01*
X195314Y102484D01*
X195352Y102446D01*
X195390Y102402D01*
X195434Y102356D01*
X195477Y102304D01*
X195526Y102247D01*
X195578Y102187D01*
X195581Y102184D01*
X195589Y102176D01*
X195600Y102160D01*
X195616Y102143D01*
X195636Y102119D01*
X195658Y102094D01*
X195707Y102037D01*
X195758Y101977D01*
X195813Y101919D01*
X195838Y101892D01*
X195860Y101867D01*
X195881Y101846D01*
X195898Y101829D01*
X195900Y101827D01*
X195911Y101816D01*
X195928Y101802D01*
X195950Y101783D01*
X195974Y101761D01*
X196002Y101739D01*
X196062Y101696D01*
Y102938D01*
X196359D01*
Y101270D01*
D02*
G37*
G36*
X195390Y100879D02*
X195425Y100876D01*
X195466Y100874D01*
X195513Y100871D01*
X195608Y100860D01*
X195709Y100846D01*
X195808Y100825D01*
X195854Y100811D01*
X195898Y100795D01*
X195900D01*
X195909Y100792D01*
X195920Y100786D01*
X195936Y100778D01*
X195955Y100767D01*
X195977Y100756D01*
X196026Y100724D01*
X196056Y100705D01*
X196083Y100683D01*
X196116Y100655D01*
X196146Y100628D01*
X196176Y100595D01*
X196206Y100563D01*
X196233Y100524D01*
X196261Y100483D01*
X196264Y100481D01*
X196266Y100472D01*
X196274Y100461D01*
X196283Y100442D01*
X196294Y100421D01*
X196305Y100393D01*
X196318Y100363D01*
X196329Y100325D01*
X196343Y100287D01*
X196356Y100243D01*
X196367Y100194D01*
X196378Y100142D01*
X196386Y100085D01*
X196395Y100025D01*
X196397Y99962D01*
X196400Y99896D01*
Y99861D01*
X196397Y99836D01*
Y99806D01*
X196395Y99774D01*
X196389Y99733D01*
X196384Y99692D01*
X196370Y99599D01*
X196348Y99501D01*
X196318Y99405D01*
X196302Y99359D01*
X196280Y99315D01*
X196277Y99312D01*
X196274Y99304D01*
X196266Y99293D01*
X196258Y99279D01*
X196244Y99260D01*
X196228Y99239D01*
X196212Y99217D01*
X196190Y99192D01*
X196141Y99138D01*
X196081Y99086D01*
X196010Y99037D01*
X195969Y99015D01*
X195928Y98996D01*
X195925D01*
X195917Y98993D01*
X195903Y98987D01*
X195884Y98982D01*
X195862Y98974D01*
X195832Y98966D01*
X195800Y98957D01*
X195761Y98949D01*
X195718Y98938D01*
X195671Y98930D01*
X195619Y98922D01*
X195562Y98916D01*
X195502Y98908D01*
X195436Y98905D01*
X195368Y98900D01*
X195294D01*
X193839D01*
Y99233D01*
X195294D01*
X195297D01*
X195308D01*
X195324D01*
X195349D01*
X195376Y99236D01*
X195406D01*
X195442Y99239D01*
X195477Y99241D01*
X195556Y99247D01*
X195636Y99258D01*
X195712Y99274D01*
X195748Y99282D01*
X195778Y99293D01*
X195780D01*
X195783Y99296D01*
X195791Y99299D01*
X195802Y99304D01*
X195832Y99320D01*
X195865Y99342D01*
X195906Y99370D01*
X195944Y99405D01*
X195982Y99449D01*
X196018Y99501D01*
Y99503D01*
X196021Y99509D01*
X196026Y99517D01*
X196031Y99528D01*
X196037Y99541D01*
X196042Y99561D01*
X196051Y99580D01*
X196059Y99602D01*
X196072Y99656D01*
X196086Y99719D01*
X196097Y99790D01*
X196100Y99866D01*
Y99902D01*
X196097Y99926D01*
X196094Y99957D01*
X196092Y99992D01*
X196086Y100030D01*
X196078Y100071D01*
X196059Y100156D01*
X196045Y100199D01*
X196029Y100243D01*
X196010Y100284D01*
X195988Y100322D01*
X195963Y100358D01*
X195933Y100391D01*
X195931Y100393D01*
X195925Y100399D01*
X195914Y100404D01*
X195900Y100415D01*
X195881Y100426D01*
X195857Y100440D01*
X195827Y100456D01*
X195791Y100470D01*
X195750Y100483D01*
X195704Y100500D01*
X195652Y100513D01*
X195595Y100524D01*
X195529Y100535D01*
X195458Y100543D01*
X195379Y100546D01*
X195294Y100549D01*
X193839D01*
Y100882D01*
X195294D01*
X195300D01*
X195311D01*
X195330D01*
X195357D01*
X195390Y100879D01*
D02*
G37*
G36*
X170156Y203171D02*
X170759D01*
Y202863D01*
X170156D01*
Y201765D01*
X169872D01*
X168239Y202917D01*
Y203171D01*
X169872D01*
Y203512D01*
X170156D01*
Y203171D01*
D02*
G37*
G36*
X170759Y199871D02*
X170754D01*
X170740D01*
X170718D01*
X170691Y199873D01*
X170658Y199876D01*
X170623Y199884D01*
X170584Y199892D01*
X170546Y199906D01*
X170543D01*
X170538Y199909D01*
X170530Y199912D01*
X170516Y199917D01*
X170502Y199925D01*
X170483Y199933D01*
X170440Y199955D01*
X170388Y199983D01*
X170331Y200018D01*
X170270Y200059D01*
X170210Y200108D01*
X170208Y200111D01*
X170202Y200114D01*
X170194Y200122D01*
X170180Y200135D01*
X170167Y200149D01*
X170148Y200168D01*
X170126Y200187D01*
X170101Y200212D01*
X170074Y200239D01*
X170047Y200269D01*
X170014Y200302D01*
X169981Y200340D01*
X169946Y200378D01*
X169910Y200422D01*
X169872Y200466D01*
X169831Y200515D01*
X169828Y200520D01*
X169815Y200534D01*
X169798Y200553D01*
X169774Y200580D01*
X169746Y200613D01*
X169713Y200651D01*
X169678Y200695D01*
X169637Y200739D01*
X169552Y200832D01*
X169462Y200922D01*
X169419Y200965D01*
X169375Y201006D01*
X169334Y201042D01*
X169296Y201072D01*
X169293Y201075D01*
X169288Y201077D01*
X169277Y201085D01*
X169263Y201094D01*
X169244Y201107D01*
X169225Y201118D01*
X169176Y201146D01*
X169118Y201173D01*
X169056Y201197D01*
X168990Y201214D01*
X168957Y201217D01*
X168924Y201219D01*
X168922D01*
X168916D01*
X168905D01*
X168895Y201217D01*
X168878D01*
X168859Y201211D01*
X168818Y201203D01*
X168769Y201186D01*
X168717Y201162D01*
X168690Y201148D01*
X168665Y201129D01*
X168641Y201110D01*
X168616Y201085D01*
X168613Y201083D01*
X168611Y201080D01*
X168605Y201072D01*
X168597Y201061D01*
X168586Y201047D01*
X168575Y201031D01*
X168551Y200993D01*
X168529Y200941D01*
X168507Y200883D01*
X168493Y200815D01*
X168488Y200777D01*
Y200717D01*
X168491Y200700D01*
Y200681D01*
X168496Y200660D01*
X168504Y200610D01*
X168520Y200553D01*
X168545Y200493D01*
X168561Y200463D01*
X168578Y200433D01*
X168600Y200406D01*
X168624Y200378D01*
X168627Y200376D01*
X168630Y200373D01*
X168638Y200367D01*
X168649Y200357D01*
X168663Y200348D01*
X168679Y200337D01*
X168698Y200324D01*
X168720Y200313D01*
X168744Y200299D01*
X168772Y200288D01*
X168837Y200267D01*
X168908Y200250D01*
X168949Y200247D01*
X168993Y200245D01*
X168960Y199928D01*
X168955D01*
X168944Y199931D01*
X168927Y199933D01*
X168903Y199936D01*
X168873Y199942D01*
X168837Y199950D01*
X168799Y199958D01*
X168758Y199972D01*
X168717Y199985D01*
X168671Y200002D01*
X168627Y200024D01*
X168583Y200045D01*
X168537Y200073D01*
X168496Y200103D01*
X168455Y200135D01*
X168420Y200174D01*
X168417Y200176D01*
X168411Y200184D01*
X168403Y200196D01*
X168389Y200212D01*
X168376Y200234D01*
X168359Y200261D01*
X168343Y200291D01*
X168324Y200326D01*
X168308Y200365D01*
X168291Y200408D01*
X168275Y200455D01*
X168261Y200507D01*
X168247Y200561D01*
X168239Y200619D01*
X168234Y200681D01*
X168231Y200747D01*
Y200782D01*
X168234Y200807D01*
X168237Y200837D01*
X168242Y200872D01*
X168247Y200914D01*
X168256Y200954D01*
X168267Y201001D01*
X168280Y201047D01*
X168297Y201096D01*
X168316Y201143D01*
X168340Y201192D01*
X168368Y201238D01*
X168398Y201282D01*
X168433Y201323D01*
X168436Y201326D01*
X168441Y201331D01*
X168455Y201342D01*
X168469Y201356D01*
X168488Y201372D01*
X168512Y201391D01*
X168540Y201410D01*
X168572Y201429D01*
X168605Y201448D01*
X168643Y201468D01*
X168684Y201487D01*
X168728Y201503D01*
X168777Y201517D01*
X168826Y201528D01*
X168878Y201533D01*
X168933Y201536D01*
X168936D01*
X168938D01*
X168946D01*
X168957D01*
X168987Y201533D01*
X169026Y201528D01*
X169072Y201519D01*
X169121Y201509D01*
X169176Y201495D01*
X169230Y201473D01*
X169233D01*
X169236Y201470D01*
X169244Y201468D01*
X169255Y201462D01*
X169285Y201446D01*
X169323Y201424D01*
X169369Y201394D01*
X169421Y201358D01*
X169476Y201318D01*
X169536Y201266D01*
X169539Y201263D01*
X169544Y201260D01*
X169552Y201249D01*
X169566Y201238D01*
X169582Y201222D01*
X169602Y201203D01*
X169626Y201181D01*
X169651Y201154D01*
X169681Y201121D01*
X169713Y201085D01*
X169752Y201047D01*
X169790Y201004D01*
X169834Y200957D01*
X169877Y200905D01*
X169926Y200848D01*
X169978Y200788D01*
X169981Y200785D01*
X169989Y200777D01*
X170000Y200761D01*
X170017Y200744D01*
X170036Y200720D01*
X170057Y200695D01*
X170107Y200638D01*
X170159Y200578D01*
X170213Y200520D01*
X170238Y200493D01*
X170259Y200468D01*
X170281Y200447D01*
X170298Y200430D01*
X170300Y200428D01*
X170311Y200417D01*
X170328Y200403D01*
X170350Y200384D01*
X170374Y200362D01*
X170402Y200340D01*
X170461Y200296D01*
Y201539D01*
X170759D01*
Y199871D01*
D02*
G37*
G36*
X169978Y199622D02*
X169997Y199617D01*
X170027Y199606D01*
X170060Y199595D01*
X170101Y199578D01*
X170145Y199562D01*
X170191Y199540D01*
X170243Y199516D01*
X170292Y199488D01*
X170347Y199458D01*
X170399Y199423D01*
X170448Y199385D01*
X170497Y199344D01*
X170543Y199297D01*
X170587Y199248D01*
X170590Y199245D01*
X170595Y199234D01*
X170606Y199221D01*
X170620Y199199D01*
X170636Y199174D01*
X170655Y199142D01*
X170675Y199106D01*
X170694Y199063D01*
X170713Y199016D01*
X170732Y198967D01*
X170751Y198912D01*
X170767Y198852D01*
X170781Y198790D01*
X170792Y198724D01*
X170797Y198656D01*
X170800Y198582D01*
Y198544D01*
X170797Y198514D01*
X170795Y198481D01*
X170792Y198440D01*
X170786Y198396D01*
X170778Y198347D01*
X170770Y198295D01*
X170759Y198241D01*
X170746Y198186D01*
X170732Y198132D01*
X170713Y198074D01*
X170691Y198020D01*
X170666Y197968D01*
X170636Y197919D01*
X170633Y197916D01*
X170628Y197908D01*
X170620Y197894D01*
X170606Y197878D01*
X170587Y197856D01*
X170568Y197831D01*
X170543Y197804D01*
X170513Y197774D01*
X170481Y197744D01*
X170445Y197711D01*
X170407Y197681D01*
X170363Y197648D01*
X170317Y197616D01*
X170268Y197586D01*
X170213Y197558D01*
X170156Y197531D01*
X170153Y197528D01*
X170142Y197526D01*
X170123Y197520D01*
X170101Y197512D01*
X170071Y197501D01*
X170038Y197490D01*
X169997Y197479D01*
X169954Y197466D01*
X169905Y197455D01*
X169853Y197441D01*
X169798Y197430D01*
X169738Y197422D01*
X169613Y197405D01*
X169547Y197403D01*
X169482Y197400D01*
X169476D01*
X169465D01*
X169443D01*
X169416Y197403D01*
X169380Y197405D01*
X169340Y197408D01*
X169296Y197414D01*
X169247Y197419D01*
X169195Y197427D01*
X169140Y197435D01*
X169023Y197463D01*
X168965Y197482D01*
X168908Y197501D01*
X168848Y197523D01*
X168793Y197550D01*
X168791Y197553D01*
X168780Y197558D01*
X168766Y197566D01*
X168744Y197577D01*
X168720Y197594D01*
X168693Y197613D01*
X168663Y197635D01*
X168627Y197659D01*
X168594Y197689D01*
X168556Y197719D01*
X168520Y197755D01*
X168482Y197793D01*
X168447Y197834D01*
X168411Y197878D01*
X168378Y197927D01*
X168349Y197976D01*
X168346Y197979D01*
X168343Y197990D01*
X168335Y198003D01*
X168324Y198025D01*
X168313Y198050D01*
X168299Y198082D01*
X168286Y198118D01*
X168272Y198156D01*
X168258Y198200D01*
X168245Y198249D01*
X168231Y198298D01*
X168220Y198353D01*
X168201Y198465D01*
X168198Y198525D01*
X168196Y198588D01*
Y198623D01*
X168198Y198650D01*
X168201Y198683D01*
X168207Y198721D01*
X168212Y198762D01*
X168220Y198809D01*
X168231Y198858D01*
X168242Y198910D01*
X168258Y198961D01*
X168278Y199016D01*
X168299Y199071D01*
X168327Y199123D01*
X168354Y199174D01*
X168389Y199224D01*
X168392Y199226D01*
X168398Y199234D01*
X168409Y199248D01*
X168425Y199265D01*
X168444Y199286D01*
X168469Y199311D01*
X168496Y199336D01*
X168529Y199366D01*
X168564Y199396D01*
X168605Y199426D01*
X168649Y199456D01*
X168698Y199483D01*
X168750Y199513D01*
X168807Y199538D01*
X168867Y199562D01*
X168930Y199584D01*
X169006Y199256D01*
X169004D01*
X168995Y199251D01*
X168979Y199248D01*
X168960Y199240D01*
X168938Y199232D01*
X168914Y199218D01*
X168854Y199191D01*
X168788Y199155D01*
X168720Y199109D01*
X168657Y199060D01*
X168630Y199030D01*
X168605Y199000D01*
X168602Y198997D01*
X168600Y198992D01*
X168594Y198983D01*
X168586Y198970D01*
X168575Y198953D01*
X168564Y198934D01*
X168553Y198912D01*
X168542Y198885D01*
X168531Y198855D01*
X168520Y198825D01*
X168499Y198754D01*
X168485Y198672D01*
X168480Y198628D01*
Y198555D01*
X168482Y198533D01*
X168485Y198508D01*
X168488Y198478D01*
X168491Y198445D01*
X168496Y198413D01*
X168515Y198334D01*
X168540Y198252D01*
X168556Y198211D01*
X168575Y198170D01*
X168597Y198132D01*
X168622Y198093D01*
X168624Y198091D01*
X168627Y198085D01*
X168635Y198074D01*
X168646Y198061D01*
X168660Y198047D01*
X168679Y198028D01*
X168698Y198009D01*
X168720Y197987D01*
X168747Y197965D01*
X168774Y197941D01*
X168837Y197897D01*
X168911Y197856D01*
X168995Y197820D01*
X168998D01*
X169006Y197818D01*
X169020Y197812D01*
X169036Y197809D01*
X169058Y197804D01*
X169083Y197796D01*
X169113Y197790D01*
X169143Y197782D01*
X169178Y197774D01*
X169217Y197768D01*
X169299Y197755D01*
X169386Y197747D01*
X169479Y197744D01*
X169482D01*
X169492D01*
X169509D01*
X169533Y197747D01*
X169561D01*
X169593Y197749D01*
X169629Y197752D01*
X169670Y197755D01*
X169713Y197760D01*
X169757Y197766D01*
X169853Y197782D01*
X169948Y197807D01*
X170041Y197837D01*
X170044D01*
X170052Y197842D01*
X170063Y197848D01*
X170079Y197853D01*
X170101Y197864D01*
X170123Y197878D01*
X170175Y197908D01*
X170235Y197949D01*
X170292Y197998D01*
X170350Y198058D01*
X170374Y198091D01*
X170399Y198126D01*
Y198129D01*
X170404Y198134D01*
X170410Y198145D01*
X170418Y198162D01*
X170426Y198181D01*
X170437Y198203D01*
X170445Y198227D01*
X170456Y198254D01*
X170478Y198317D01*
X170497Y198391D01*
X170511Y198470D01*
X170513Y198511D01*
X170516Y198555D01*
Y198582D01*
X170513Y198601D01*
X170511Y198626D01*
X170508Y198653D01*
X170502Y198686D01*
X170497Y198719D01*
X170478Y198795D01*
X170464Y198833D01*
X170448Y198874D01*
X170429Y198915D01*
X170407Y198953D01*
X170382Y198992D01*
X170355Y199030D01*
X170352Y199032D01*
X170347Y199038D01*
X170339Y199049D01*
X170325Y199063D01*
X170309Y199076D01*
X170287Y199095D01*
X170262Y199114D01*
X170235Y199136D01*
X170202Y199158D01*
X170167Y199180D01*
X170129Y199202D01*
X170085Y199224D01*
X170038Y199243D01*
X169986Y199262D01*
X169932Y199281D01*
X169875Y199295D01*
X169959Y199628D01*
X169965D01*
X169978Y199622D01*
D02*
G37*
G36*
X51268Y122623D02*
X51293D01*
X51320Y122618D01*
X51353Y122615D01*
X51389Y122607D01*
X51427Y122599D01*
X51470Y122585D01*
X51514Y122572D01*
X51558Y122552D01*
X51604Y122530D01*
X51651Y122503D01*
X51694Y122473D01*
X51741Y122438D01*
X51782Y122397D01*
X51784Y122394D01*
X51790Y122386D01*
X51801Y122372D01*
X51814Y122356D01*
X51833Y122331D01*
X51850Y122304D01*
X51872Y122271D01*
X51891Y122236D01*
X51910Y122195D01*
X51932Y122148D01*
X51948Y122099D01*
X51964Y122047D01*
X51981Y121990D01*
X51992Y121930D01*
X51997Y121864D01*
X52000Y121796D01*
Y121780D01*
X51997Y121761D01*
Y121733D01*
X51995Y121703D01*
X51989Y121665D01*
X51981Y121624D01*
X51973Y121581D01*
X51962Y121534D01*
X51945Y121485D01*
X51929Y121436D01*
X51907Y121384D01*
X51883Y121335D01*
X51853Y121286D01*
X51820Y121237D01*
X51782Y121193D01*
X51779Y121190D01*
X51771Y121182D01*
X51760Y121171D01*
X51741Y121157D01*
X51719Y121141D01*
X51694Y121122D01*
X51664Y121100D01*
X51629Y121081D01*
X51591Y121059D01*
X51550Y121037D01*
X51503Y121018D01*
X51457Y121002D01*
X51405Y120988D01*
X51348Y120977D01*
X51290Y120969D01*
X51230Y120966D01*
X51227D01*
X51219D01*
X51206D01*
X51189Y120969D01*
X51167D01*
X51143Y120972D01*
X51116Y120977D01*
X51086Y120983D01*
X51023Y120996D01*
X50954Y121018D01*
X50886Y121048D01*
X50853Y121067D01*
X50821Y121089D01*
X50818Y121092D01*
X50813Y121095D01*
X50804Y121103D01*
X50793Y121114D01*
X50780Y121125D01*
X50766Y121141D01*
X50747Y121160D01*
X50731Y121182D01*
X50692Y121231D01*
X50654Y121291D01*
X50621Y121362D01*
X50594Y121444D01*
Y121441D01*
X50591Y121436D01*
X50586Y121425D01*
X50580Y121414D01*
X50575Y121398D01*
X50564Y121379D01*
X50542Y121337D01*
X50515Y121291D01*
X50479Y121245D01*
X50441Y121198D01*
X50395Y121160D01*
X50392D01*
X50389Y121157D01*
X50381Y121152D01*
X50370Y121146D01*
X50343Y121130D01*
X50307Y121114D01*
X50261Y121097D01*
X50206Y121081D01*
X50146Y121070D01*
X50081Y121067D01*
X50078D01*
X50070D01*
X50054Y121070D01*
X50034D01*
X50013Y121073D01*
X49985Y121078D01*
X49955Y121084D01*
X49920Y121092D01*
X49884Y121103D01*
X49849Y121116D01*
X49811Y121130D01*
X49770Y121149D01*
X49731Y121174D01*
X49693Y121198D01*
X49655Y121228D01*
X49619Y121264D01*
X49617Y121266D01*
X49611Y121272D01*
X49603Y121283D01*
X49589Y121299D01*
X49576Y121318D01*
X49559Y121343D01*
X49543Y121370D01*
X49524Y121403D01*
X49507Y121439D01*
X49491Y121479D01*
X49475Y121520D01*
X49461Y121567D01*
X49448Y121619D01*
X49439Y121671D01*
X49434Y121728D01*
X49431Y121788D01*
Y121821D01*
X49434Y121843D01*
X49437Y121870D01*
X49442Y121903D01*
X49448Y121938D01*
X49456Y121979D01*
X49467Y122020D01*
X49477Y122064D01*
X49494Y122107D01*
X49513Y122151D01*
X49535Y122197D01*
X49562Y122238D01*
X49589Y122282D01*
X49625Y122320D01*
X49628Y122323D01*
X49633Y122328D01*
X49644Y122339D01*
X49658Y122353D01*
X49677Y122367D01*
X49699Y122383D01*
X49726Y122402D01*
X49753Y122421D01*
X49786Y122440D01*
X49821Y122459D01*
X49860Y122476D01*
X49901Y122490D01*
X49944Y122503D01*
X49991Y122514D01*
X50040Y122520D01*
X50089Y122522D01*
X50092D01*
X50097D01*
X50105D01*
X50119D01*
X50133Y122520D01*
X50152Y122517D01*
X50193Y122511D01*
X50239Y122501D01*
X50291Y122484D01*
X50343Y122459D01*
X50395Y122430D01*
X50397D01*
X50400Y122424D01*
X50417Y122413D01*
X50438Y122391D01*
X50468Y122361D01*
X50498Y122320D01*
X50534Y122274D01*
X50564Y122217D01*
X50594Y122151D01*
Y122154D01*
X50597Y122162D01*
X50602Y122173D01*
X50608Y122189D01*
X50616Y122208D01*
X50627Y122230D01*
X50654Y122282D01*
X50687Y122339D01*
X50731Y122397D01*
X50780Y122454D01*
X50840Y122503D01*
X50842Y122506D01*
X50848Y122509D01*
X50856Y122514D01*
X50870Y122522D01*
X50886Y122530D01*
X50905Y122541D01*
X50927Y122552D01*
X50952Y122566D01*
X51009Y122588D01*
X51077Y122607D01*
X51154Y122621D01*
X51195Y122626D01*
X51238D01*
X51241D01*
X51252D01*
X51268Y122623D01*
D02*
G37*
G36*
X51959Y118971D02*
X51954D01*
X51940D01*
X51918D01*
X51891Y118973D01*
X51858Y118976D01*
X51823Y118984D01*
X51784Y118992D01*
X51746Y119006D01*
X51743D01*
X51738Y119009D01*
X51730Y119012D01*
X51716Y119017D01*
X51702Y119025D01*
X51683Y119033D01*
X51640Y119055D01*
X51588Y119082D01*
X51530Y119118D01*
X51470Y119159D01*
X51410Y119208D01*
X51408Y119211D01*
X51402Y119214D01*
X51394Y119222D01*
X51380Y119235D01*
X51367Y119249D01*
X51348Y119268D01*
X51326Y119287D01*
X51301Y119312D01*
X51274Y119339D01*
X51247Y119369D01*
X51214Y119402D01*
X51181Y119440D01*
X51145Y119478D01*
X51110Y119522D01*
X51072Y119566D01*
X51031Y119615D01*
X51028Y119620D01*
X51015Y119634D01*
X50998Y119653D01*
X50974Y119680D01*
X50946Y119713D01*
X50914Y119751D01*
X50878Y119795D01*
X50837Y119839D01*
X50752Y119932D01*
X50662Y120022D01*
X50619Y120065D01*
X50575Y120106D01*
X50534Y120142D01*
X50496Y120172D01*
X50493Y120175D01*
X50488Y120177D01*
X50477Y120185D01*
X50463Y120194D01*
X50444Y120207D01*
X50425Y120218D01*
X50376Y120246D01*
X50318Y120273D01*
X50256Y120297D01*
X50190Y120314D01*
X50157Y120317D01*
X50125Y120319D01*
X50122D01*
X50116D01*
X50105D01*
X50094Y120317D01*
X50078D01*
X50059Y120311D01*
X50018Y120303D01*
X49969Y120287D01*
X49917Y120262D01*
X49890Y120248D01*
X49865Y120229D01*
X49841Y120210D01*
X49816Y120185D01*
X49813Y120183D01*
X49811Y120180D01*
X49805Y120172D01*
X49797Y120161D01*
X49786Y120147D01*
X49775Y120131D01*
X49751Y120093D01*
X49729Y120041D01*
X49707Y119983D01*
X49693Y119915D01*
X49688Y119877D01*
Y119817D01*
X49690Y119800D01*
Y119781D01*
X49696Y119760D01*
X49704Y119710D01*
X49720Y119653D01*
X49745Y119593D01*
X49761Y119563D01*
X49778Y119533D01*
X49800Y119506D01*
X49824Y119478D01*
X49827Y119476D01*
X49830Y119473D01*
X49838Y119467D01*
X49849Y119457D01*
X49862Y119448D01*
X49879Y119437D01*
X49898Y119424D01*
X49920Y119413D01*
X49944Y119399D01*
X49972Y119388D01*
X50037Y119367D01*
X50108Y119350D01*
X50149Y119347D01*
X50193Y119345D01*
X50160Y119028D01*
X50155D01*
X50144Y119031D01*
X50127Y119033D01*
X50103Y119036D01*
X50073Y119042D01*
X50037Y119050D01*
X49999Y119058D01*
X49958Y119072D01*
X49917Y119085D01*
X49871Y119102D01*
X49827Y119123D01*
X49783Y119145D01*
X49737Y119173D01*
X49696Y119203D01*
X49655Y119235D01*
X49619Y119274D01*
X49617Y119276D01*
X49611Y119284D01*
X49603Y119296D01*
X49589Y119312D01*
X49576Y119334D01*
X49559Y119361D01*
X49543Y119391D01*
X49524Y119427D01*
X49507Y119465D01*
X49491Y119508D01*
X49475Y119555D01*
X49461Y119607D01*
X49448Y119661D01*
X49439Y119719D01*
X49434Y119781D01*
X49431Y119847D01*
Y119882D01*
X49434Y119907D01*
X49437Y119937D01*
X49442Y119973D01*
X49448Y120013D01*
X49456Y120054D01*
X49467Y120101D01*
X49480Y120147D01*
X49497Y120196D01*
X49516Y120243D01*
X49540Y120292D01*
X49568Y120338D01*
X49598Y120382D01*
X49633Y120423D01*
X49636Y120426D01*
X49641Y120431D01*
X49655Y120442D01*
X49669Y120456D01*
X49688Y120472D01*
X49712Y120491D01*
X49740Y120510D01*
X49772Y120529D01*
X49805Y120548D01*
X49843Y120568D01*
X49884Y120587D01*
X49928Y120603D01*
X49977Y120617D01*
X50026Y120628D01*
X50078Y120633D01*
X50133Y120636D01*
X50135D01*
X50138D01*
X50146D01*
X50157D01*
X50187Y120633D01*
X50226Y120628D01*
X50272Y120619D01*
X50321Y120609D01*
X50376Y120595D01*
X50430Y120573D01*
X50433D01*
X50436Y120570D01*
X50444Y120568D01*
X50455Y120562D01*
X50485Y120546D01*
X50523Y120524D01*
X50569Y120494D01*
X50621Y120458D01*
X50676Y120417D01*
X50736Y120366D01*
X50739Y120363D01*
X50744Y120360D01*
X50752Y120349D01*
X50766Y120338D01*
X50783Y120322D01*
X50802Y120303D01*
X50826Y120281D01*
X50851Y120254D01*
X50881Y120221D01*
X50914Y120185D01*
X50952Y120147D01*
X50990Y120104D01*
X51034Y120057D01*
X51077Y120005D01*
X51126Y119948D01*
X51178Y119888D01*
X51181Y119885D01*
X51189Y119877D01*
X51200Y119861D01*
X51217Y119844D01*
X51236Y119820D01*
X51257Y119795D01*
X51307Y119738D01*
X51358Y119678D01*
X51413Y119620D01*
X51438Y119593D01*
X51459Y119569D01*
X51481Y119547D01*
X51498Y119530D01*
X51500Y119527D01*
X51511Y119517D01*
X51528Y119503D01*
X51550Y119484D01*
X51574Y119462D01*
X51601Y119440D01*
X51661Y119396D01*
Y120639D01*
X51959D01*
Y118971D01*
D02*
G37*
G36*
X51178Y118722D02*
X51197Y118717D01*
X51227Y118706D01*
X51260Y118695D01*
X51301Y118678D01*
X51345Y118662D01*
X51391Y118640D01*
X51443Y118616D01*
X51492Y118588D01*
X51547Y118558D01*
X51599Y118523D01*
X51648Y118485D01*
X51697Y118444D01*
X51743Y118397D01*
X51787Y118348D01*
X51790Y118345D01*
X51795Y118334D01*
X51806Y118321D01*
X51820Y118299D01*
X51836Y118274D01*
X51855Y118242D01*
X51875Y118206D01*
X51894Y118163D01*
X51913Y118116D01*
X51932Y118067D01*
X51951Y118012D01*
X51967Y117952D01*
X51981Y117889D01*
X51992Y117824D01*
X51997Y117756D01*
X52000Y117682D01*
Y117644D01*
X51997Y117614D01*
X51995Y117581D01*
X51992Y117540D01*
X51986Y117496D01*
X51978Y117447D01*
X51970Y117395D01*
X51959Y117341D01*
X51945Y117286D01*
X51932Y117232D01*
X51913Y117174D01*
X51891Y117120D01*
X51866Y117068D01*
X51836Y117019D01*
X51833Y117016D01*
X51828Y117008D01*
X51820Y116994D01*
X51806Y116978D01*
X51787Y116956D01*
X51768Y116931D01*
X51743Y116904D01*
X51713Y116874D01*
X51681Y116844D01*
X51645Y116811D01*
X51607Y116781D01*
X51563Y116748D01*
X51517Y116716D01*
X51468Y116686D01*
X51413Y116658D01*
X51356Y116631D01*
X51353Y116628D01*
X51342Y116625D01*
X51323Y116620D01*
X51301Y116612D01*
X51271Y116601D01*
X51238Y116590D01*
X51197Y116579D01*
X51154Y116566D01*
X51105Y116554D01*
X51053Y116541D01*
X50998Y116530D01*
X50938Y116522D01*
X50813Y116505D01*
X50747Y116503D01*
X50681Y116500D01*
X50676D01*
X50665D01*
X50643D01*
X50616Y116503D01*
X50580Y116505D01*
X50539Y116508D01*
X50496Y116514D01*
X50447Y116519D01*
X50395Y116527D01*
X50340Y116535D01*
X50223Y116563D01*
X50165Y116582D01*
X50108Y116601D01*
X50048Y116623D01*
X49994Y116650D01*
X49991Y116653D01*
X49980Y116658D01*
X49966Y116666D01*
X49944Y116677D01*
X49920Y116694D01*
X49893Y116713D01*
X49862Y116735D01*
X49827Y116759D01*
X49794Y116789D01*
X49756Y116819D01*
X49720Y116855D01*
X49682Y116893D01*
X49647Y116934D01*
X49611Y116978D01*
X49578Y117027D01*
X49549Y117076D01*
X49546Y117079D01*
X49543Y117090D01*
X49535Y117103D01*
X49524Y117125D01*
X49513Y117150D01*
X49499Y117182D01*
X49486Y117218D01*
X49472Y117256D01*
X49458Y117300D01*
X49445Y117349D01*
X49431Y117398D01*
X49420Y117453D01*
X49401Y117565D01*
X49398Y117625D01*
X49396Y117687D01*
Y117723D01*
X49398Y117750D01*
X49401Y117783D01*
X49406Y117821D01*
X49412Y117862D01*
X49420Y117909D01*
X49431Y117958D01*
X49442Y118010D01*
X49458Y118061D01*
X49477Y118116D01*
X49499Y118171D01*
X49527Y118223D01*
X49554Y118274D01*
X49589Y118324D01*
X49592Y118326D01*
X49598Y118334D01*
X49609Y118348D01*
X49625Y118365D01*
X49644Y118386D01*
X49669Y118411D01*
X49696Y118436D01*
X49729Y118466D01*
X49764Y118496D01*
X49805Y118526D01*
X49849Y118556D01*
X49898Y118583D01*
X49950Y118613D01*
X50007Y118638D01*
X50067Y118662D01*
X50130Y118684D01*
X50206Y118356D01*
X50204D01*
X50195Y118351D01*
X50179Y118348D01*
X50160Y118340D01*
X50138Y118332D01*
X50114Y118318D01*
X50054Y118291D01*
X49988Y118255D01*
X49920Y118209D01*
X49857Y118160D01*
X49830Y118130D01*
X49805Y118100D01*
X49802Y118097D01*
X49800Y118091D01*
X49794Y118083D01*
X49786Y118070D01*
X49775Y118053D01*
X49764Y118034D01*
X49753Y118012D01*
X49742Y117985D01*
X49731Y117955D01*
X49720Y117925D01*
X49699Y117854D01*
X49685Y117772D01*
X49679Y117728D01*
Y117655D01*
X49682Y117633D01*
X49685Y117608D01*
X49688Y117578D01*
X49690Y117545D01*
X49696Y117513D01*
X49715Y117434D01*
X49740Y117352D01*
X49756Y117311D01*
X49775Y117270D01*
X49797Y117232D01*
X49821Y117193D01*
X49824Y117191D01*
X49827Y117185D01*
X49835Y117174D01*
X49846Y117161D01*
X49860Y117147D01*
X49879Y117128D01*
X49898Y117109D01*
X49920Y117087D01*
X49947Y117065D01*
X49974Y117041D01*
X50037Y116997D01*
X50111Y116956D01*
X50195Y116920D01*
X50198D01*
X50206Y116918D01*
X50220Y116912D01*
X50236Y116909D01*
X50258Y116904D01*
X50283Y116896D01*
X50313Y116890D01*
X50343Y116882D01*
X50378Y116874D01*
X50417Y116868D01*
X50498Y116855D01*
X50586Y116847D01*
X50679Y116844D01*
X50681D01*
X50692D01*
X50709D01*
X50733Y116847D01*
X50761D01*
X50793Y116849D01*
X50829Y116852D01*
X50870Y116855D01*
X50914Y116860D01*
X50957Y116866D01*
X51053Y116882D01*
X51148Y116907D01*
X51241Y116937D01*
X51244D01*
X51252Y116942D01*
X51263Y116948D01*
X51279Y116953D01*
X51301Y116964D01*
X51323Y116978D01*
X51375Y117008D01*
X51435Y117049D01*
X51492Y117098D01*
X51550Y117158D01*
X51574Y117191D01*
X51599Y117226D01*
Y117229D01*
X51604Y117234D01*
X51610Y117245D01*
X51618Y117262D01*
X51626Y117281D01*
X51637Y117303D01*
X51645Y117327D01*
X51656Y117354D01*
X51678Y117417D01*
X51697Y117491D01*
X51711Y117570D01*
X51713Y117611D01*
X51716Y117655D01*
Y117682D01*
X51713Y117701D01*
X51711Y117726D01*
X51708Y117753D01*
X51702Y117786D01*
X51697Y117818D01*
X51678Y117895D01*
X51664Y117933D01*
X51648Y117974D01*
X51629Y118015D01*
X51607Y118053D01*
X51582Y118091D01*
X51555Y118130D01*
X51552Y118132D01*
X51547Y118138D01*
X51539Y118149D01*
X51525Y118163D01*
X51509Y118176D01*
X51487Y118195D01*
X51462Y118214D01*
X51435Y118236D01*
X51402Y118258D01*
X51367Y118280D01*
X51328Y118302D01*
X51285Y118324D01*
X51238Y118343D01*
X51187Y118362D01*
X51132Y118381D01*
X51075Y118395D01*
X51159Y118728D01*
X51165D01*
X51178Y118722D01*
D02*
G37*
%LPC*%
G36*
X61589Y319248D02*
X61586D01*
X61581D01*
X61573D01*
X61559Y319246D01*
X61529Y319243D01*
X61488Y319235D01*
X61444Y319221D01*
X61395Y319199D01*
X61349Y319169D01*
X61324Y319153D01*
X61302Y319131D01*
X61300D01*
X61297Y319125D01*
X61283Y319109D01*
X61264Y319084D01*
X61242Y319049D01*
X61223Y319008D01*
X61204Y318956D01*
X61190Y318899D01*
X61185Y318869D01*
Y318820D01*
X61188Y318806D01*
Y318792D01*
X61190Y318773D01*
X61199Y318732D01*
X61212Y318686D01*
X61234Y318637D01*
X61261Y318588D01*
X61300Y318541D01*
X61305Y318536D01*
X61319Y318522D01*
X61343Y318506D01*
X61376Y318484D01*
X61414Y318462D01*
X61461Y318446D01*
X61513Y318432D01*
X61570Y318426D01*
X61573D01*
X61578D01*
X61586D01*
X61600Y318429D01*
X61616D01*
X61633Y318432D01*
X61674Y318440D01*
X61720Y318454D01*
X61769Y318473D01*
X61818Y318500D01*
X61862Y318538D01*
X61867Y318544D01*
X61878Y318560D01*
X61897Y318585D01*
X61917Y318620D01*
X61939Y318661D01*
X61958Y318713D01*
X61968Y318773D01*
X61974Y318839D01*
Y318855D01*
X61971Y318869D01*
Y318885D01*
X61968Y318901D01*
X61960Y318942D01*
X61947Y318989D01*
X61928Y319038D01*
X61900Y319087D01*
X61862Y319134D01*
X61857Y319139D01*
X61843Y319153D01*
X61818Y319169D01*
X61786Y319191D01*
X61747Y319213D01*
X61698Y319229D01*
X61646Y319243D01*
X61589Y319248D01*
D02*
G37*
G36*
X62744Y319352D02*
X62741D01*
X62733D01*
X62722D01*
X62706Y319349D01*
X62687Y319346D01*
X62665Y319344D01*
X62613Y319333D01*
X62555Y319317D01*
X62493Y319289D01*
X62463Y319273D01*
X62433Y319251D01*
X62403Y319229D01*
X62375Y319202D01*
X62373Y319199D01*
X62370Y319196D01*
X62362Y319188D01*
X62353Y319175D01*
X62340Y319161D01*
X62329Y319145D01*
X62315Y319123D01*
X62302Y319101D01*
X62274Y319046D01*
X62250Y318983D01*
X62233Y318910D01*
X62231Y318871D01*
X62228Y318830D01*
Y318809D01*
X62231Y318795D01*
X62233Y318776D01*
X62236Y318754D01*
X62247Y318702D01*
X62263Y318645D01*
X62288Y318585D01*
X62304Y318555D01*
X62323Y318525D01*
X62348Y318495D01*
X62373Y318467D01*
X62375Y318465D01*
X62378Y318462D01*
X62386Y318454D01*
X62397Y318446D01*
X62414Y318435D01*
X62430Y318424D01*
X62449Y318410D01*
X62471Y318396D01*
X62523Y318369D01*
X62586Y318347D01*
X62656Y318331D01*
X62692Y318328D01*
X62733Y318325D01*
X62736D01*
X62738D01*
X62755D01*
X62782Y318328D01*
X62815Y318334D01*
X62853Y318339D01*
X62897Y318350D01*
X62943Y318366D01*
X62989Y318386D01*
X62995Y318388D01*
X63009Y318396D01*
X63033Y318413D01*
X63060Y318432D01*
X63090Y318459D01*
X63121Y318489D01*
X63153Y318528D01*
X63181Y318571D01*
Y318574D01*
X63183Y318577D01*
X63192Y318593D01*
X63203Y318618D01*
X63213Y318653D01*
X63224Y318691D01*
X63235Y318738D01*
X63243Y318787D01*
X63246Y318839D01*
Y318861D01*
X63243Y318877D01*
X63241Y318896D01*
X63238Y318918D01*
X63227Y318970D01*
X63211Y319027D01*
X63186Y319090D01*
X63170Y319120D01*
X63151Y319150D01*
X63129Y319180D01*
X63104Y319207D01*
X63102Y319210D01*
X63099Y319213D01*
X63090Y319221D01*
X63080Y319229D01*
X63063Y319240D01*
X63047Y319254D01*
X63028Y319267D01*
X63006Y319281D01*
X62954Y319306D01*
X62891Y319330D01*
X62823Y319346D01*
X62785Y319349D01*
X62744Y319352D01*
D02*
G37*
G36*
X92766Y296026D02*
X92764D01*
X92756D01*
X92742D01*
X92723Y296023D01*
X92701Y296021D01*
X92674Y296018D01*
X92646Y296015D01*
X92614Y296010D01*
X92548Y295991D01*
X92477Y295966D01*
X92442Y295950D01*
X92409Y295931D01*
X92376Y295909D01*
X92346Y295884D01*
X92343Y295882D01*
X92338Y295879D01*
X92332Y295871D01*
X92321Y295860D01*
X92311Y295846D01*
X92297Y295830D01*
X92267Y295789D01*
X92237Y295740D01*
X92212Y295679D01*
X92201Y295649D01*
X92193Y295614D01*
X92190Y295579D01*
X92188Y295543D01*
Y295524D01*
X92190Y295508D01*
X92193Y295491D01*
X92196Y295469D01*
X92210Y295420D01*
X92229Y295363D01*
X92242Y295333D01*
X92259Y295303D01*
X92278Y295273D01*
X92302Y295243D01*
X92327Y295213D01*
X92357Y295183D01*
X92360Y295180D01*
X92365Y295177D01*
X92373Y295169D01*
X92387Y295158D01*
X92403Y295147D01*
X92425Y295136D01*
X92447Y295123D01*
X92474Y295109D01*
X92504Y295093D01*
X92537Y295079D01*
X92573Y295068D01*
X92614Y295057D01*
X92698Y295038D01*
X92745Y295035D01*
X92794Y295033D01*
X92796D01*
X92805D01*
X92816D01*
X92835Y295035D01*
X92854Y295038D01*
X92878Y295041D01*
X92933Y295052D01*
X92996Y295068D01*
X93059Y295093D01*
X93091Y295109D01*
X93124Y295128D01*
X93154Y295150D01*
X93184Y295174D01*
X93187Y295177D01*
X93190Y295180D01*
X93198Y295188D01*
X93206Y295202D01*
X93217Y295215D01*
X93231Y295232D01*
X93244Y295251D01*
X93258Y295273D01*
X93285Y295327D01*
X93310Y295387D01*
X93326Y295458D01*
X93329Y295497D01*
X93332Y295535D01*
Y295557D01*
X93329Y295570D01*
X93326Y295589D01*
X93323Y295608D01*
X93313Y295658D01*
X93296Y295715D01*
X93269Y295772D01*
X93252Y295802D01*
X93233Y295832D01*
X93209Y295860D01*
X93184Y295887D01*
X93181Y295890D01*
X93176Y295892D01*
X93168Y295901D01*
X93157Y295909D01*
X93141Y295920D01*
X93121Y295931D01*
X93099Y295944D01*
X93075Y295958D01*
X93048Y295969D01*
X93015Y295983D01*
X92982Y295993D01*
X92944Y296004D01*
X92903Y296012D01*
X92862Y296021D01*
X92816Y296023D01*
X92766Y296026D01*
D02*
G37*
G36*
X65214Y505296D02*
X65211D01*
X65206D01*
X65198D01*
X65187D01*
X65173D01*
X65157D01*
X65113Y505293D01*
X65064Y505290D01*
X65007Y505288D01*
X64944Y505285D01*
X64878Y505277D01*
X64739Y505260D01*
X64671Y505247D01*
X64605Y505233D01*
X64543Y505217D01*
X64483Y505197D01*
X64433Y505176D01*
X64390Y505148D01*
X64387Y505146D01*
X64382Y505143D01*
X64371Y505135D01*
X64357Y505124D01*
X64343Y505107D01*
X64324Y505091D01*
X64305Y505072D01*
X64286Y505050D01*
X64250Y504998D01*
X64218Y504935D01*
X64204Y504903D01*
X64193Y504864D01*
X64188Y504829D01*
X64185Y504788D01*
Y504769D01*
X64188Y504752D01*
X64191Y504736D01*
X64193Y504714D01*
X64207Y504665D01*
X64229Y504610D01*
X64242Y504583D01*
X64262Y504553D01*
X64281Y504526D01*
X64305Y504499D01*
X64332Y504471D01*
X64365Y504447D01*
X64368Y504444D01*
X64376Y504441D01*
X64390Y504433D01*
X64412Y504422D01*
X64439Y504411D01*
X64472Y504398D01*
X64510Y504381D01*
X64559Y504367D01*
X64614Y504354D01*
X64674Y504338D01*
X64745Y504324D01*
X64821Y504313D01*
X64906Y504302D01*
X65001Y504297D01*
X65102Y504291D01*
X65214Y504288D01*
X65217D01*
X65222D01*
X65231D01*
X65241D01*
X65255D01*
X65274D01*
X65315Y504291D01*
X65364Y504294D01*
X65422Y504297D01*
X65484Y504299D01*
X65550Y504308D01*
X65689Y504324D01*
X65758Y504335D01*
X65826Y504348D01*
X65889Y504365D01*
X65946Y504387D01*
X65998Y504409D01*
X66041Y504433D01*
X66044Y504436D01*
X66050Y504438D01*
X66061Y504447D01*
X66074Y504460D01*
X66088Y504474D01*
X66104Y504490D01*
X66142Y504531D01*
X66181Y504583D01*
X66211Y504646D01*
X66224Y504679D01*
X66235Y504714D01*
X66241Y504752D01*
X66243Y504791D01*
Y504799D01*
X66241Y504812D01*
Y504826D01*
X66238Y504845D01*
X66233Y504867D01*
X66219Y504916D01*
X66208Y504944D01*
X66194Y504971D01*
X66178Y505001D01*
X66156Y505031D01*
X66134Y505061D01*
X66107Y505091D01*
X66074Y505121D01*
X66039Y505148D01*
X66036Y505151D01*
X66028Y505154D01*
X66017Y505162D01*
X65998Y505170D01*
X65973Y505184D01*
X65940Y505195D01*
X65902Y505208D01*
X65859Y505222D01*
X65807Y505236D01*
X65747Y505249D01*
X65681Y505263D01*
X65605Y505274D01*
X65520Y505282D01*
X65427Y505290D01*
X65326Y505293D01*
X65214Y505296D01*
D02*
G37*
G36*
X179357Y340454D02*
X179354D01*
X179349D01*
X179341D01*
X179330D01*
X179316Y340452D01*
X179300D01*
X179259Y340446D01*
X179212Y340438D01*
X179161Y340427D01*
X179106Y340411D01*
X179051Y340389D01*
X179049D01*
X179046Y340386D01*
X179038Y340381D01*
X179027Y340375D01*
X179002Y340361D01*
X178970Y340340D01*
X178934Y340312D01*
X178899Y340280D01*
X178863Y340244D01*
X178830Y340200D01*
Y340198D01*
X178828Y340195D01*
X178819Y340179D01*
X178806Y340154D01*
X178792Y340121D01*
X178778Y340083D01*
X178765Y340039D01*
X178757Y339990D01*
X178754Y339941D01*
Y339922D01*
X178757Y339908D01*
X178759Y339889D01*
X178762Y339870D01*
X178773Y339824D01*
X178792Y339772D01*
X178806Y339742D01*
X178819Y339715D01*
X178839Y339684D01*
X178858Y339657D01*
X178882Y339630D01*
X178909Y339602D01*
X178912Y339600D01*
X178918Y339597D01*
X178926Y339589D01*
X178939Y339581D01*
X178956Y339570D01*
X178975Y339559D01*
X178997Y339545D01*
X179024Y339532D01*
X179051Y339518D01*
X179084Y339504D01*
X179120Y339493D01*
X179158Y339482D01*
X179199Y339474D01*
X179245Y339466D01*
X179292Y339463D01*
X179341Y339461D01*
X179343D01*
X179352D01*
X179365D01*
X179385Y339463D01*
X179406Y339466D01*
X179431Y339469D01*
X179458Y339472D01*
X179488Y339477D01*
X179554Y339493D01*
X179622Y339518D01*
X179657Y339534D01*
X179690Y339553D01*
X179720Y339575D01*
X179750Y339600D01*
X179753Y339602D01*
X179756Y339605D01*
X179764Y339614D01*
X179775Y339624D01*
X179786Y339638D01*
X179799Y339654D01*
X179827Y339695D01*
X179854Y339747D01*
X179879Y339807D01*
X179898Y339876D01*
X179900Y339914D01*
X179903Y339952D01*
Y339971D01*
X179900Y339987D01*
X179898Y340004D01*
X179895Y340026D01*
X179884Y340075D01*
X179865Y340132D01*
X179838Y340192D01*
X179821Y340222D01*
X179802Y340252D01*
X179778Y340282D01*
X179750Y340310D01*
X179748Y340312D01*
X179742Y340315D01*
X179734Y340323D01*
X179723Y340331D01*
X179709Y340342D01*
X179690Y340356D01*
X179668Y340370D01*
X179644Y340381D01*
X179619Y340394D01*
X179589Y340408D01*
X179521Y340433D01*
X179445Y340449D01*
X179401Y340452D01*
X179357Y340454D01*
D02*
G37*
G36*
X83372Y59353D02*
X82578D01*
Y58217D01*
X83372Y59353D01*
D02*
G37*
G36*
X76463Y65864D02*
X75668Y64728D01*
X76463D01*
Y65864D01*
D02*
G37*
G36*
X169872Y202863D02*
X168736D01*
X169872Y202068D01*
Y202863D01*
D02*
G37*
G36*
X50089Y122206D02*
X50086D01*
X50081D01*
X50073D01*
X50059Y122203D01*
X50029Y122200D01*
X49988Y122192D01*
X49944Y122178D01*
X49895Y122157D01*
X49849Y122126D01*
X49824Y122110D01*
X49802Y122088D01*
X49800D01*
X49797Y122083D01*
X49783Y122066D01*
X49764Y122042D01*
X49742Y122006D01*
X49723Y121965D01*
X49704Y121914D01*
X49690Y121856D01*
X49685Y121826D01*
Y121777D01*
X49688Y121763D01*
Y121750D01*
X49690Y121731D01*
X49699Y121690D01*
X49712Y121643D01*
X49734Y121594D01*
X49761Y121545D01*
X49800Y121499D01*
X49805Y121493D01*
X49819Y121479D01*
X49843Y121463D01*
X49876Y121441D01*
X49914Y121419D01*
X49961Y121403D01*
X50013Y121389D01*
X50070Y121384D01*
X50073D01*
X50078D01*
X50086D01*
X50100Y121387D01*
X50116D01*
X50133Y121389D01*
X50174Y121398D01*
X50220Y121411D01*
X50269Y121430D01*
X50318Y121458D01*
X50362Y121496D01*
X50367Y121501D01*
X50378Y121518D01*
X50397Y121542D01*
X50417Y121578D01*
X50438Y121619D01*
X50458Y121671D01*
X50468Y121731D01*
X50474Y121796D01*
Y121812D01*
X50471Y121826D01*
Y121843D01*
X50468Y121859D01*
X50460Y121900D01*
X50447Y121946D01*
X50428Y121995D01*
X50400Y122045D01*
X50362Y122091D01*
X50357Y122097D01*
X50343Y122110D01*
X50318Y122126D01*
X50286Y122148D01*
X50247Y122170D01*
X50198Y122187D01*
X50146Y122200D01*
X50089Y122206D01*
D02*
G37*
G36*
X51244Y122309D02*
X51241D01*
X51233D01*
X51222D01*
X51206Y122307D01*
X51187Y122304D01*
X51165Y122301D01*
X51113Y122290D01*
X51056Y122274D01*
X50993Y122247D01*
X50963Y122230D01*
X50933Y122208D01*
X50903Y122187D01*
X50875Y122159D01*
X50872Y122157D01*
X50870Y122154D01*
X50862Y122146D01*
X50853Y122132D01*
X50840Y122118D01*
X50829Y122102D01*
X50815Y122080D01*
X50802Y122058D01*
X50774Y122004D01*
X50750Y121941D01*
X50733Y121867D01*
X50731Y121829D01*
X50728Y121788D01*
Y121766D01*
X50731Y121753D01*
X50733Y121733D01*
X50736Y121712D01*
X50747Y121660D01*
X50763Y121602D01*
X50788Y121542D01*
X50804Y121512D01*
X50823Y121482D01*
X50848Y121452D01*
X50872Y121425D01*
X50875Y121422D01*
X50878Y121419D01*
X50886Y121411D01*
X50897Y121403D01*
X50914Y121392D01*
X50930Y121381D01*
X50949Y121368D01*
X50971Y121354D01*
X51023Y121327D01*
X51086Y121305D01*
X51157Y121288D01*
X51192Y121286D01*
X51233Y121283D01*
X51236D01*
X51238D01*
X51255D01*
X51282Y121286D01*
X51315Y121291D01*
X51353Y121297D01*
X51397Y121308D01*
X51443Y121324D01*
X51490Y121343D01*
X51495Y121346D01*
X51509Y121354D01*
X51533Y121370D01*
X51560Y121389D01*
X51591Y121417D01*
X51621Y121447D01*
X51653Y121485D01*
X51681Y121529D01*
Y121531D01*
X51683Y121534D01*
X51692Y121551D01*
X51702Y121575D01*
X51713Y121610D01*
X51724Y121649D01*
X51735Y121695D01*
X51743Y121744D01*
X51746Y121796D01*
Y121818D01*
X51743Y121834D01*
X51741Y121853D01*
X51738Y121875D01*
X51727Y121927D01*
X51711Y121985D01*
X51686Y122047D01*
X51670Y122077D01*
X51651Y122107D01*
X51629Y122137D01*
X51604Y122165D01*
X51601Y122167D01*
X51599Y122170D01*
X51591Y122178D01*
X51580Y122187D01*
X51563Y122197D01*
X51547Y122211D01*
X51528Y122225D01*
X51506Y122238D01*
X51454Y122263D01*
X51391Y122288D01*
X51323Y122304D01*
X51285Y122307D01*
X51244Y122309D01*
D02*
G37*
%LPD*%
D10*
X61138Y310776D02*
Y320224D01*
X65862D01*
Y310776D02*
Y320224D01*
X61138Y310776D02*
X65862D01*
X91941Y285717D02*
Y294772D01*
X97059D01*
Y285717D02*
Y294772D01*
X91941Y285717D02*
X97059D01*
X164472Y303141D02*
Y308259D01*
Y303141D02*
X173528D01*
Y308259D01*
X164472D02*
X173528D01*
X174563Y359232D02*
X182437D01*
Y375768D01*
X174563D02*
X182437D01*
X174563Y359232D02*
Y375768D01*
X62563Y491232D02*
X70437D01*
Y507768D01*
X62563D02*
X70437D01*
X62563Y491232D02*
Y507768D01*
X213563Y469768D02*
X221437D01*
X213563Y453232D02*
Y469768D01*
Y453232D02*
X221437D01*
Y469768D01*
X174563Y351575D02*
X182437D01*
X174563Y335039D02*
Y351575D01*
Y335039D02*
X182437D01*
Y351575D01*
X213563Y471732D02*
X221437D01*
Y488268D01*
X213563D02*
X221437D01*
X213563Y471732D02*
Y488268D01*
X62563Y488768D02*
X70437D01*
X62563Y472232D02*
Y488768D01*
Y472232D02*
X70437D01*
Y488768D01*
X153972Y95841D02*
X163028D01*
X153972D02*
Y100959D01*
X163028D01*
Y95841D02*
Y100959D01*
X154059Y74072D02*
Y83128D01*
X148941Y74072D02*
X154059D01*
X148941D02*
Y83128D01*
X154059D01*
X147535Y108769D02*
Y117431D01*
X151865D01*
Y108769D02*
Y117431D01*
X147535Y108769D02*
X151865D01*
X202772Y435859D02*
X211828D01*
Y430741D02*
Y435859D01*
X202772Y430741D02*
X211828D01*
X202772D02*
Y435859D01*
X132772Y435059D02*
X141828D01*
Y429941D02*
Y435059D01*
X132772Y429941D02*
X141828D01*
X132772D02*
Y435059D01*
X56605Y445732D02*
Y462268D01*
X44794Y445732D02*
X56605D01*
X44794D02*
Y462268D01*
X56605D01*
X78305Y52552D02*
X93659D01*
X78305D02*
Y66528D01*
X93659D01*
Y52552D02*
Y66528D01*
X101280Y63068D02*
Y74533D01*
X95720Y63068D02*
X101280D01*
X95720D02*
Y74533D01*
X101280D01*
X66472Y66359D02*
X75528D01*
Y61241D02*
Y66359D01*
X66472Y61241D02*
X75528D01*
X66472D02*
Y66359D01*
X189313Y92798D02*
Y105002D01*
X203487D01*
Y92798D02*
Y105002D01*
X189313Y92798D02*
X203487D01*
X168241Y192872D02*
Y201928D01*
X173359D01*
Y192872D02*
Y201928D01*
X168241Y192872D02*
X173359D01*
X48752Y110890D02*
Y122110D01*
X55248D01*
Y110890D02*
Y122110D01*
X48752Y110890D02*
X55248D01*
M02*
