G04*
G04 #@! TF.GenerationSoftware,Altium Limited,Altium Designer,23.7.1 (13)*
G04*
G04 Layer_Physical_Order=3*
G04 Layer_Color=16440176*
%FSLAX25Y25*%
%MOIN*%
G70*
G04*
G04 #@! TF.SameCoordinates,971C37BE-97D5-4A50-9DA2-DA4AE9E2F4D9*
G04*
G04*
G04 #@! TF.FilePolarity,Positive*
G04*
G01*
G75*
%ADD56C,0.06319*%
%ADD58R,0.06319X0.06319*%
%ADD59C,0.06102*%
%ADD62C,0.05315*%
%ADD63C,0.03347*%
%ADD66C,0.02500*%
%ADD68C,0.05906*%
G36*
X273714Y1877D02*
X1877D01*
Y588675D01*
X273714D01*
Y1877D01*
D02*
G37*
%LPC*%
G36*
X98844Y575902D02*
X97545D01*
X96271Y575649D01*
X95071Y575152D01*
X93991Y574430D01*
X93072Y573512D01*
X92351Y572432D01*
X91853Y571231D01*
X91600Y569957D01*
Y568658D01*
X91853Y567384D01*
X92351Y566184D01*
X93072Y565104D01*
X93991Y564186D01*
X95071Y563464D01*
X96271Y562967D01*
X97545Y562713D01*
X98844D01*
X100118Y562967D01*
X101318Y563464D01*
X102398Y564186D01*
X103317Y565104D01*
X104038Y566184D01*
X104535Y567384D01*
X104789Y568658D01*
Y569957D01*
X104535Y571231D01*
X104038Y572432D01*
X103317Y573512D01*
X102398Y574430D01*
X101318Y575152D01*
X100118Y575649D01*
X98844Y575902D01*
D02*
G37*
G36*
X178849Y575894D02*
X177550D01*
X176277Y575641D01*
X175076Y575144D01*
X173996Y574422D01*
X173078Y573504D01*
X172356Y572424D01*
X171859Y571223D01*
X171606Y569949D01*
Y568650D01*
X171859Y567377D01*
X172356Y566176D01*
X173078Y565096D01*
X173996Y564178D01*
X175076Y563456D01*
X176277Y562959D01*
X177550Y562706D01*
X178849D01*
X180123Y562959D01*
X181324Y563456D01*
X182404Y564178D01*
X183322Y565096D01*
X184044Y566176D01*
X184541Y567377D01*
X184794Y568650D01*
Y569949D01*
X184541Y571223D01*
X184044Y572424D01*
X183322Y573504D01*
X182404Y574422D01*
X181324Y575144D01*
X180123Y575641D01*
X178849Y575894D01*
D02*
G37*
G36*
X138849D02*
X137550D01*
X136276Y575641D01*
X135076Y575144D01*
X133996Y574422D01*
X133078Y573504D01*
X132356Y572424D01*
X131859Y571223D01*
X131606Y569949D01*
Y568650D01*
X131859Y567377D01*
X132356Y566176D01*
X133078Y565096D01*
X133996Y564178D01*
X135076Y563456D01*
X136276Y562959D01*
X137550Y562706D01*
X138849D01*
X140123Y562959D01*
X141324Y563456D01*
X142404Y564178D01*
X143322Y565096D01*
X144044Y566176D01*
X144541Y567377D01*
X144794Y568650D01*
Y569949D01*
X144541Y571223D01*
X144044Y572424D01*
X143322Y573504D01*
X142404Y574422D01*
X141324Y575144D01*
X140123Y575641D01*
X138849Y575894D01*
D02*
G37*
G36*
X256936Y583957D02*
X254875D01*
X252840Y583634D01*
X250881Y582998D01*
X249045Y582062D01*
X247378Y580851D01*
X245921Y579394D01*
X244709Y577727D01*
X243774Y575891D01*
X243137Y573932D01*
X242815Y571896D01*
Y569836D01*
X243137Y567801D01*
X243774Y565841D01*
X244709Y564005D01*
X245921Y562338D01*
X247378Y560881D01*
X249045Y559670D01*
X250881Y558735D01*
X252840Y558098D01*
X254875Y557776D01*
X256936D01*
X258971Y558098D01*
X260930Y558735D01*
X262766Y559670D01*
X264433Y560881D01*
X265890Y562338D01*
X267102Y564005D01*
X268037Y565841D01*
X268674Y567801D01*
X268996Y569836D01*
Y571896D01*
X268674Y573932D01*
X268037Y575891D01*
X267102Y577727D01*
X265890Y579394D01*
X264433Y580851D01*
X262766Y582062D01*
X260930Y582998D01*
X258971Y583634D01*
X256936Y583957D01*
D02*
G37*
G36*
X20715D02*
X18655D01*
X16620Y583634D01*
X14660Y582998D01*
X12824Y582062D01*
X11157Y580851D01*
X9700Y579394D01*
X8489Y577727D01*
X7553Y575891D01*
X6917Y573932D01*
X6594Y571896D01*
Y569836D01*
X6917Y567801D01*
X7553Y565841D01*
X8489Y564005D01*
X9700Y562338D01*
X11157Y560881D01*
X12824Y559670D01*
X14660Y558735D01*
X16620Y558098D01*
X18655Y557776D01*
X20715D01*
X22750Y558098D01*
X24710Y558735D01*
X26546Y559670D01*
X28213Y560881D01*
X29670Y562338D01*
X30881Y564005D01*
X31817Y565841D01*
X32453Y567801D01*
X32776Y569836D01*
Y571896D01*
X32453Y573932D01*
X31817Y575891D01*
X30881Y577727D01*
X29670Y579394D01*
X28213Y580851D01*
X26546Y582062D01*
X24710Y582998D01*
X22750Y583634D01*
X20715Y583957D01*
D02*
G37*
G36*
X203450Y546764D02*
X202550D01*
X201718Y546419D01*
X201081Y545782D01*
X200736Y544950D01*
Y544050D01*
X201081Y543218D01*
X201718Y542581D01*
X202550Y542236D01*
X203450D01*
X204282Y542581D01*
X204919Y543218D01*
X205264Y544050D01*
Y544950D01*
X204919Y545782D01*
X204282Y546419D01*
X203450Y546764D01*
D02*
G37*
G36*
X44450D02*
X43550D01*
X42718Y546419D01*
X42081Y545782D01*
X41736Y544950D01*
Y544050D01*
X42081Y543218D01*
X42718Y542581D01*
X43550Y542236D01*
X44450D01*
X44889Y542418D01*
X45271Y542035D01*
X45236Y541950D01*
Y541050D01*
X45581Y540218D01*
X46218Y539581D01*
X47050Y539236D01*
X47950D01*
X48782Y539581D01*
X49419Y540218D01*
X49764Y541050D01*
Y541950D01*
X49419Y542782D01*
X48782Y543419D01*
X47950Y543764D01*
X47050D01*
X46611Y543582D01*
X46229Y543965D01*
X46264Y544050D01*
Y544950D01*
X45919Y545782D01*
X45282Y546419D01*
X44450Y546764D01*
D02*
G37*
G36*
X211450Y540764D02*
X210550D01*
X209718Y540419D01*
X209081Y539782D01*
X208736Y538950D01*
Y538050D01*
X209081Y537218D01*
X209718Y536581D01*
X210550Y536236D01*
X211450D01*
X212282Y536581D01*
X212919Y537218D01*
X213264Y538050D01*
Y538950D01*
X212919Y539782D01*
X212282Y540419D01*
X211450Y540764D01*
D02*
G37*
G36*
X241450Y528264D02*
X240550D01*
X239718Y527919D01*
X239081Y527282D01*
X238736Y526450D01*
Y525550D01*
X239081Y524718D01*
X239718Y524081D01*
X240550Y523736D01*
X241450D01*
X242282Y524081D01*
X242919Y524718D01*
X243264Y525550D01*
Y526450D01*
X242919Y527282D01*
X242282Y527919D01*
X241450Y528264D01*
D02*
G37*
G36*
X176044Y556042D02*
X168544D01*
Y548542D01*
X168721D01*
Y522688D01*
X168221Y522481D01*
X167782Y522919D01*
X166950Y523264D01*
X166050D01*
X165218Y522919D01*
X164827Y522528D01*
X164500Y522331D01*
X164173Y522528D01*
X163782Y522919D01*
X162950Y523264D01*
X162050D01*
X161218Y522919D01*
X160827Y522528D01*
X160500Y522331D01*
X160173Y522528D01*
X159782Y522919D01*
X158950Y523264D01*
X158050D01*
X157218Y522919D01*
X156581Y522282D01*
X156236Y521450D01*
Y520550D01*
X156581Y519718D01*
X157218Y519081D01*
X158050Y518736D01*
X158950D01*
X159782Y519081D01*
X160173Y519472D01*
X160500Y519669D01*
X160827Y519472D01*
X161218Y519081D01*
X162050Y518736D01*
X162950D01*
X163782Y519081D01*
X164173Y519472D01*
X164500Y519669D01*
X164827Y519472D01*
X165218Y519081D01*
X166050Y518736D01*
X166950D01*
X167782Y519081D01*
X168221Y519519D01*
X168721Y519312D01*
Y517775D01*
X168473Y517527D01*
X167905Y516787D01*
X167548Y515925D01*
X167426Y515000D01*
X167548Y514075D01*
X167905Y513213D01*
X168473Y512473D01*
X169213Y511905D01*
X170075Y511548D01*
X171000Y511426D01*
X171925Y511548D01*
X172787Y511905D01*
X173527Y512473D01*
X174822Y513767D01*
X174822Y513767D01*
X175390Y514508D01*
X175747Y515370D01*
X175868Y516294D01*
X175868Y516295D01*
Y548542D01*
X176044D01*
Y556042D01*
D02*
G37*
G36*
X128450Y523264D02*
X127550D01*
X126718Y522919D01*
X126327Y522528D01*
X126000Y522331D01*
X125673Y522528D01*
X125282Y522919D01*
X124450Y523264D01*
X123550D01*
X122718Y522919D01*
X122327Y522528D01*
X122000Y522331D01*
X121673Y522528D01*
X121282Y522919D01*
X120450Y523264D01*
X119550D01*
X118718Y522919D01*
X118081Y522282D01*
X117736Y521450D01*
Y520550D01*
X118081Y519718D01*
X118718Y519081D01*
X119550Y518736D01*
X120450D01*
X121282Y519081D01*
X121673Y519472D01*
X122000Y519669D01*
X122327Y519472D01*
X122718Y519081D01*
X123550Y518736D01*
X124450D01*
X125282Y519081D01*
X125673Y519472D01*
X126000Y519669D01*
X126327Y519472D01*
X126718Y519081D01*
X127550Y518736D01*
X128450D01*
X129282Y519081D01*
X129919Y519718D01*
X130264Y520550D01*
Y521450D01*
X129919Y522282D01*
X129282Y522919D01*
X128450Y523264D01*
D02*
G37*
G36*
X52950Y524764D02*
X52050D01*
X51218Y524419D01*
X50581Y523782D01*
X50236Y522950D01*
Y522050D01*
X50581Y521218D01*
X51218Y520581D01*
X52050Y520236D01*
X52950D01*
X53782Y520581D01*
X54419Y521218D01*
X54764Y522050D01*
Y522950D01*
X54419Y523782D01*
X53782Y524419D01*
X52950Y524764D01*
D02*
G37*
G36*
X184599Y556042D02*
X183612D01*
X182658Y555787D01*
X181803Y555293D01*
X181105Y554595D01*
X180611Y553740D01*
X180356Y552786D01*
Y551798D01*
X180532Y551141D01*
Y516894D01*
X180653Y515970D01*
X181010Y515107D01*
X181578Y514367D01*
X183473Y512473D01*
X184213Y511905D01*
X185075Y511548D01*
X186000Y511426D01*
X186813Y511533D01*
X207623Y490723D01*
Y456325D01*
X207581Y456282D01*
X207236Y455450D01*
Y454550D01*
X207581Y453718D01*
X208218Y453081D01*
X209050Y452736D01*
X209950D01*
X210782Y453081D01*
X211419Y453718D01*
X211764Y454550D01*
Y455450D01*
X211419Y456282D01*
X211377Y456325D01*
Y491500D01*
X211234Y492218D01*
X210827Y492827D01*
X189467Y514187D01*
X189574Y515000D01*
X189452Y515925D01*
X189095Y516787D01*
X188527Y517527D01*
X187679Y518375D01*
Y519306D01*
X188179Y519513D01*
X188611Y519081D01*
X189443Y518736D01*
X190344D01*
X191176Y519081D01*
X191620Y519525D01*
X191947Y519662D01*
X192273Y519525D01*
X192718Y519081D01*
X193550Y518736D01*
X194450D01*
X195282Y519081D01*
X195673Y519472D01*
X196000Y519669D01*
X196327Y519472D01*
X196718Y519081D01*
X197550Y518736D01*
X198450D01*
X199282Y519081D01*
X199919Y519718D01*
X200264Y520550D01*
Y521450D01*
X199919Y522282D01*
X199282Y522919D01*
X198450Y523264D01*
X197550D01*
X196718Y522919D01*
X196327Y522528D01*
X196000Y522331D01*
X195673Y522528D01*
X195282Y522919D01*
X194450Y523264D01*
X193550D01*
X192718Y522919D01*
X192273Y522475D01*
X191947Y522338D01*
X191620Y522475D01*
X191176Y522919D01*
X190344Y523264D01*
X189443D01*
X188611Y522919D01*
X188179Y522487D01*
X187679Y522694D01*
Y551141D01*
X187856Y551798D01*
Y552786D01*
X187600Y553740D01*
X187106Y554595D01*
X186408Y555293D01*
X185553Y555787D01*
X184599Y556042D01*
D02*
G37*
G36*
X96039Y556050D02*
X88539D01*
Y553604D01*
X79973Y545038D01*
X79405Y544298D01*
X79048Y543436D01*
X78926Y542511D01*
Y516000D01*
X79048Y515075D01*
X79405Y514213D01*
X79973Y513473D01*
X80146Y513300D01*
X75673Y508827D01*
X75266Y508218D01*
X75123Y507500D01*
Y456825D01*
X75081Y456782D01*
X74736Y455950D01*
Y455050D01*
X75081Y454218D01*
X75718Y453581D01*
X76550Y453236D01*
X77450D01*
X78282Y453581D01*
X78919Y454218D01*
X79264Y455050D01*
Y455950D01*
X78919Y456782D01*
X78877Y456825D01*
Y506723D01*
X83187Y511033D01*
X84000Y510926D01*
X84925Y511048D01*
X85787Y511405D01*
X86527Y511973D01*
X87095Y512713D01*
X87452Y513575D01*
X87574Y514500D01*
X87452Y515425D01*
X87095Y516287D01*
X86527Y517027D01*
X86074Y517480D01*
Y519635D01*
X86574Y519734D01*
X86581Y519718D01*
X87218Y519081D01*
X88050Y518736D01*
X88950D01*
X89782Y519081D01*
X90173Y519472D01*
X90500Y519669D01*
X90827Y519472D01*
X91218Y519081D01*
X92050Y518736D01*
X92950D01*
X93782Y519081D01*
X94173Y519472D01*
X94500Y519669D01*
X94827Y519472D01*
X95218Y519081D01*
X96050Y518736D01*
X96950D01*
X97782Y519081D01*
X98419Y519718D01*
X98764Y520550D01*
Y521450D01*
X98419Y522282D01*
X97782Y522919D01*
X96950Y523264D01*
X96050D01*
X95218Y522919D01*
X94827Y522528D01*
X94500Y522331D01*
X94173Y522528D01*
X93782Y522919D01*
X92950Y523264D01*
X92050D01*
X91218Y522919D01*
X90827Y522528D01*
X90500Y522331D01*
X90173Y522528D01*
X89782Y522919D01*
X88950Y523264D01*
X88050D01*
X87218Y522919D01*
X86581Y522282D01*
X86574Y522265D01*
X86074Y522365D01*
Y541031D01*
X93593Y548550D01*
X96039D01*
Y556050D01*
D02*
G37*
G36*
X104594D02*
X103606D01*
X102653Y555794D01*
X101797Y555301D01*
X101099Y554602D01*
X100606Y553748D01*
X100350Y552794D01*
Y551806D01*
X100526Y551149D01*
Y526852D01*
X100648Y525927D01*
X101005Y525065D01*
X101573Y524325D01*
X113425Y512473D01*
X114165Y511905D01*
X115027Y511548D01*
X115952Y511426D01*
X116877Y511548D01*
X117739Y511905D01*
X118479Y512473D01*
X119047Y513213D01*
X119404Y514075D01*
X119526Y515000D01*
X119404Y515925D01*
X119047Y516787D01*
X118479Y517527D01*
X107674Y528332D01*
Y551149D01*
X107850Y551806D01*
Y552794D01*
X107594Y553748D01*
X107101Y554602D01*
X106403Y555301D01*
X105547Y555794D01*
X104594Y556050D01*
D02*
G37*
G36*
X241220Y516155D02*
X233720D01*
Y508656D01*
X241220D01*
Y516155D01*
D02*
G37*
G36*
X38724D02*
X37736D01*
X36783Y515900D01*
X35927Y515406D01*
X35229Y514708D01*
X34736Y513853D01*
X34480Y512899D01*
Y511912D01*
X34736Y510958D01*
X35229Y510103D01*
X35927Y509405D01*
X36783Y508911D01*
X37736Y508656D01*
X38724D01*
X39677Y508911D01*
X40532Y509405D01*
X41231Y510103D01*
X41724Y510958D01*
X41980Y511912D01*
Y512899D01*
X41724Y513853D01*
X41231Y514708D01*
X40532Y515406D01*
X39677Y515900D01*
X38724Y516155D01*
D02*
G37*
G36*
X218950Y511764D02*
X218050D01*
X217218Y511419D01*
X216581Y510782D01*
X216236Y509950D01*
Y509050D01*
X216581Y508218D01*
X217218Y507581D01*
X218050Y507236D01*
X218950D01*
X219782Y507581D01*
X220419Y508218D01*
X220764Y509050D01*
Y509950D01*
X220419Y510782D01*
X219782Y511419D01*
X218950Y511764D01*
D02*
G37*
G36*
X59950Y507764D02*
X59050D01*
X58218Y507419D01*
X57581Y506782D01*
X57236Y505950D01*
Y505050D01*
X57581Y504218D01*
X58218Y503581D01*
X59050Y503236D01*
X59950D01*
X60782Y503581D01*
X61419Y504218D01*
X61764Y505050D01*
Y505950D01*
X61419Y506782D01*
X60782Y507419D01*
X59950Y507764D01*
D02*
G37*
G36*
X255127Y513095D02*
X253829D01*
X252554Y512841D01*
X251354Y512344D01*
X250274Y511622D01*
X249356Y510704D01*
X248634Y509624D01*
X248137Y508424D01*
X247884Y507150D01*
Y505851D01*
X248137Y504576D01*
X248634Y503376D01*
X249356Y502296D01*
X250274Y501378D01*
X251354Y500656D01*
X252554Y500159D01*
X253829Y499905D01*
X255127D01*
X256401Y500159D01*
X257602Y500656D01*
X258682Y501378D01*
X259600Y502296D01*
X260322Y503376D01*
X260819Y504576D01*
X261072Y505851D01*
Y507150D01*
X260819Y508424D01*
X260322Y509624D01*
X259600Y510704D01*
X258682Y511622D01*
X257602Y512344D01*
X256401Y512841D01*
X255127Y513095D01*
D02*
G37*
G36*
X21871D02*
X20573D01*
X19298Y512841D01*
X18098Y512344D01*
X17018Y511622D01*
X16100Y510704D01*
X15378Y509624D01*
X14881Y508424D01*
X14628Y507150D01*
Y505851D01*
X14881Y504576D01*
X15378Y503376D01*
X16100Y502296D01*
X17018Y501378D01*
X18098Y500656D01*
X19298Y500159D01*
X20573Y499905D01*
X21871D01*
X23146Y500159D01*
X24346Y500656D01*
X25426Y501378D01*
X26344Y502296D01*
X27066Y503376D01*
X27563Y504576D01*
X27817Y505851D01*
Y507150D01*
X27563Y508424D01*
X27066Y509624D01*
X26344Y510704D01*
X25426Y511622D01*
X24346Y512344D01*
X23146Y512841D01*
X21871Y513095D01*
D02*
G37*
G36*
X237964Y504345D02*
X236976D01*
X236023Y504089D01*
X235168Y503595D01*
X234469Y502897D01*
X233976Y502042D01*
X233720Y501088D01*
Y500101D01*
X233976Y499147D01*
X234469Y498292D01*
X235168Y497594D01*
X236023Y497100D01*
X236976Y496844D01*
X237964D01*
X238917Y497100D01*
X239773Y497594D01*
X240471Y498292D01*
X240965Y499147D01*
X241220Y500101D01*
Y501088D01*
X240965Y502042D01*
X240471Y502897D01*
X239773Y503595D01*
X238917Y504089D01*
X237964Y504345D01*
D02*
G37*
G36*
X41980D02*
X34480D01*
Y496844D01*
X41980D01*
Y504345D01*
D02*
G37*
G36*
X217950Y494264D02*
X217050D01*
X216218Y493919D01*
X215581Y493282D01*
X215236Y492450D01*
Y491550D01*
X215581Y490718D01*
X216218Y490081D01*
X217050Y489736D01*
X217950D01*
X218782Y490081D01*
X219419Y490718D01*
X219764Y491550D01*
Y492450D01*
X219419Y493282D01*
X218782Y493919D01*
X217950Y494264D01*
D02*
G37*
G36*
X59950Y476764D02*
X59050D01*
X58218Y476419D01*
X57581Y475782D01*
X57236Y474950D01*
Y474050D01*
X57581Y473218D01*
X58218Y472581D01*
X59050Y472236D01*
X59950D01*
X60782Y472581D01*
X61419Y473218D01*
X61764Y474050D01*
Y474950D01*
X61419Y475782D01*
X60782Y476419D01*
X59950Y476764D01*
D02*
G37*
G36*
X241220Y476156D02*
X233720D01*
Y468655D01*
X241220D01*
Y476156D01*
D02*
G37*
G36*
X38724D02*
X37736D01*
X36783Y475900D01*
X35927Y475406D01*
X35229Y474708D01*
X34736Y473853D01*
X34480Y472899D01*
Y471912D01*
X34736Y470958D01*
X35229Y470103D01*
X35927Y469405D01*
X36783Y468911D01*
X37736Y468655D01*
X38724D01*
X39677Y468911D01*
X40532Y469405D01*
X41231Y470103D01*
X41724Y470958D01*
X41980Y471912D01*
Y472899D01*
X41724Y473853D01*
X41231Y474708D01*
X40532Y475406D01*
X39677Y475900D01*
X38724Y476156D01*
D02*
G37*
G36*
X255127Y473095D02*
X253829D01*
X252554Y472841D01*
X251354Y472344D01*
X250274Y471622D01*
X249356Y470704D01*
X248634Y469624D01*
X248137Y468424D01*
X247884Y467149D01*
Y465850D01*
X248137Y464576D01*
X248634Y463376D01*
X249356Y462296D01*
X250274Y461378D01*
X251354Y460656D01*
X252554Y460159D01*
X253829Y459905D01*
X255127D01*
X256401Y460159D01*
X257602Y460656D01*
X258682Y461378D01*
X259600Y462296D01*
X260322Y463376D01*
X260819Y464576D01*
X261072Y465850D01*
Y467149D01*
X260819Y468424D01*
X260322Y469624D01*
X259600Y470704D01*
X258682Y471622D01*
X257602Y472344D01*
X256401Y472841D01*
X255127Y473095D01*
D02*
G37*
G36*
X21871D02*
X20573D01*
X19298Y472841D01*
X18098Y472344D01*
X17018Y471622D01*
X16100Y470704D01*
X15378Y469624D01*
X14881Y468424D01*
X14628Y467149D01*
Y465850D01*
X14881Y464576D01*
X15378Y463376D01*
X16100Y462296D01*
X17018Y461378D01*
X18098Y460656D01*
X19298Y460159D01*
X20573Y459905D01*
X21871D01*
X23146Y460159D01*
X24346Y460656D01*
X25426Y461378D01*
X26344Y462296D01*
X27066Y463376D01*
X27563Y464576D01*
X27817Y465850D01*
Y467149D01*
X27563Y468424D01*
X27066Y469624D01*
X26344Y470704D01*
X25426Y471622D01*
X24346Y472344D01*
X23146Y472841D01*
X21871Y473095D01*
D02*
G37*
G36*
X147450Y496764D02*
X146550D01*
X145718Y496419D01*
X145081Y495782D01*
X144736Y494950D01*
Y494050D01*
X145081Y493218D01*
X145123Y493175D01*
Y465013D01*
X145266Y464294D01*
X145673Y463686D01*
X148020Y461339D01*
Y461050D01*
X148364Y460218D01*
X149001Y459581D01*
X149833Y459236D01*
X150734D01*
X151566Y459581D01*
X152203Y460218D01*
X152547Y461050D01*
Y461950D01*
X152203Y462782D01*
X151566Y463419D01*
X151022Y463644D01*
X148877Y465790D01*
Y493175D01*
X148919Y493218D01*
X149264Y494050D01*
Y494950D01*
X148919Y495782D01*
X148282Y496419D01*
X147450Y496764D01*
D02*
G37*
G36*
X139950D02*
X139050D01*
X138218Y496419D01*
X137581Y495782D01*
X137236Y494950D01*
Y494050D01*
X137581Y493218D01*
X137623Y493175D01*
Y465777D01*
X135110Y463264D01*
X135050D01*
X134218Y462919D01*
X133581Y462282D01*
X133236Y461450D01*
Y460550D01*
X133581Y459718D01*
X134218Y459081D01*
X135050Y458736D01*
X135950D01*
X136782Y459081D01*
X137419Y459718D01*
X137764Y460550D01*
Y460610D01*
X140827Y463673D01*
X141234Y464282D01*
X141377Y465000D01*
Y493175D01*
X141419Y493218D01*
X141764Y494050D01*
Y494950D01*
X141419Y495782D01*
X140782Y496419D01*
X139950Y496764D01*
D02*
G37*
G36*
X237964Y464345D02*
X236976D01*
X236023Y464089D01*
X235168Y463595D01*
X234469Y462897D01*
X233976Y462042D01*
X233720Y461088D01*
Y460101D01*
X233976Y459147D01*
X234469Y458292D01*
X235168Y457594D01*
X236023Y457100D01*
X236976Y456845D01*
X237964D01*
X238917Y457100D01*
X239773Y457594D01*
X240471Y458292D01*
X240965Y459147D01*
X241220Y460101D01*
Y461088D01*
X240965Y462042D01*
X240471Y462897D01*
X239773Y463595D01*
X238917Y464089D01*
X237964Y464345D01*
D02*
G37*
G36*
X41980D02*
X34480D01*
Y456845D01*
X41980D01*
Y464345D01*
D02*
G37*
G36*
X12950Y458264D02*
X12050D01*
X11218Y457919D01*
X10581Y457282D01*
X10236Y456450D01*
Y455550D01*
X10581Y454718D01*
X11218Y454081D01*
X12050Y453736D01*
X12950D01*
X13782Y454081D01*
X14419Y454718D01*
X14764Y455550D01*
Y456450D01*
X14419Y457282D01*
X13782Y457919D01*
X12950Y458264D01*
D02*
G37*
G36*
X217950Y452764D02*
X217050D01*
X216218Y452419D01*
X215581Y451782D01*
X215236Y450950D01*
Y450050D01*
X215581Y449218D01*
X216218Y448581D01*
X217050Y448236D01*
X217950D01*
X218782Y448581D01*
X219419Y449218D01*
X219764Y450050D01*
Y450950D01*
X219419Y451782D01*
X218782Y452419D01*
X217950Y452764D01*
D02*
G37*
G36*
X206450Y449264D02*
X205550D01*
X204718Y448919D01*
X204081Y448282D01*
X203736Y447450D01*
Y446550D01*
X204081Y445718D01*
X204718Y445081D01*
X205550Y444736D01*
X206450D01*
X207282Y445081D01*
X207919Y445718D01*
X208264Y446550D01*
Y447450D01*
X207919Y448282D01*
X207282Y448919D01*
X206450Y449264D01*
D02*
G37*
G36*
X145450D02*
X144550D01*
X143718Y448919D01*
X143081Y448282D01*
X142736Y447450D01*
Y446550D01*
X143081Y445718D01*
X143718Y445081D01*
X144550Y444736D01*
X145450D01*
X146282Y445081D01*
X146919Y445718D01*
X147264Y446550D01*
Y447450D01*
X146919Y448282D01*
X146282Y448919D01*
X145450Y449264D01*
D02*
G37*
G36*
X135950D02*
X135050D01*
X134218Y448919D01*
X133581Y448282D01*
X133236Y447450D01*
Y446550D01*
X133581Y445718D01*
X134218Y445081D01*
X135050Y444736D01*
X135950D01*
X136782Y445081D01*
X137419Y445718D01*
X137764Y446550D01*
Y447450D01*
X137419Y448282D01*
X136782Y448919D01*
X135950Y449264D01*
D02*
G37*
G36*
X74950D02*
X74050D01*
X73218Y448919D01*
X72581Y448282D01*
X72236Y447450D01*
Y446550D01*
X72581Y445718D01*
X73218Y445081D01*
X74050Y444736D01*
X74950D01*
X75782Y445081D01*
X76419Y445718D01*
X76764Y446550D01*
Y447450D01*
X76419Y448282D01*
X75782Y448919D01*
X74950Y449264D01*
D02*
G37*
G36*
X133990Y438961D02*
X133894D01*
Y436894D01*
X135961D01*
Y436989D01*
X135586Y437894D01*
X134894Y438586D01*
X133990Y438961D01*
D02*
G37*
G36*
X109587Y439968D02*
X108687D01*
X107855Y439623D01*
X107218Y438986D01*
X106873Y438154D01*
Y437254D01*
X107218Y436422D01*
X107855Y435785D01*
X108687Y435440D01*
X109587D01*
X110419Y435785D01*
X111056Y436422D01*
X111401Y437254D01*
Y438154D01*
X111056Y438986D01*
X110419Y439623D01*
X109587Y439968D01*
D02*
G37*
G36*
X12950Y439764D02*
X12050D01*
X11218Y439419D01*
X10581Y438782D01*
X10236Y437950D01*
Y437050D01*
X10581Y436218D01*
X11218Y435581D01*
X12050Y435236D01*
X12950D01*
X13782Y435581D01*
X14419Y436218D01*
X14764Y437050D01*
Y437950D01*
X14419Y438782D01*
X13782Y439419D01*
X12950Y439764D01*
D02*
G37*
G36*
X179384Y439657D02*
X178484D01*
X177652Y439312D01*
X177015Y438675D01*
X176670Y437843D01*
Y436943D01*
X177015Y436111D01*
X177652Y435474D01*
X178484Y435129D01*
X179384D01*
X180216Y435474D01*
X180853Y436111D01*
X181198Y436943D01*
Y437843D01*
X180853Y438675D01*
X180216Y439312D01*
X179384Y439657D01*
D02*
G37*
G36*
X118287Y439260D02*
X117387D01*
X116555Y438915D01*
X115918Y438278D01*
X115573Y437446D01*
Y436546D01*
X115918Y435714D01*
X116555Y435077D01*
X117387Y434732D01*
X118287D01*
X119119Y435077D01*
X119756Y435714D01*
X120101Y436546D01*
Y437446D01*
X119756Y438278D01*
X119119Y438915D01*
X118287Y439260D01*
D02*
G37*
G36*
X135961Y436106D02*
X133894D01*
Y434039D01*
X133990D01*
X134894Y434414D01*
X135586Y435106D01*
X135961Y436011D01*
Y436106D01*
D02*
G37*
G36*
X79950Y437764D02*
X79050D01*
X78218Y437419D01*
X77581Y436782D01*
X77236Y435950D01*
Y435050D01*
X77581Y434218D01*
X78218Y433581D01*
X79050Y433236D01*
X79950D01*
X80782Y433581D01*
X81419Y434218D01*
X81764Y435050D01*
Y435950D01*
X81419Y436782D01*
X80782Y437419D01*
X79950Y437764D01*
D02*
G37*
G36*
X144950Y436764D02*
X144050D01*
X143218Y436419D01*
X142581Y435782D01*
X142236Y434950D01*
Y434050D01*
X142581Y433218D01*
X143218Y432581D01*
X144050Y432236D01*
X144950D01*
X145782Y432581D01*
X146419Y433218D01*
X146764Y434050D01*
Y434950D01*
X146419Y435782D01*
X145782Y436419D01*
X144950Y436764D01*
D02*
G37*
G36*
X241220Y436056D02*
X233720D01*
Y428555D01*
X241220D01*
Y436056D01*
D02*
G37*
G36*
X38724D02*
X37736D01*
X36783Y435800D01*
X35927Y435306D01*
X35229Y434608D01*
X34736Y433753D01*
X34480Y432799D01*
Y431812D01*
X34736Y430858D01*
X35229Y430003D01*
X35927Y429305D01*
X36783Y428811D01*
X37736Y428555D01*
X38724D01*
X39677Y428811D01*
X40532Y429305D01*
X41231Y430003D01*
X41724Y430858D01*
X41980Y431812D01*
Y432799D01*
X41724Y433753D01*
X41231Y434608D01*
X40532Y435306D01*
X39677Y435800D01*
X38724Y436056D01*
D02*
G37*
G36*
X195400Y430371D02*
X195304D01*
Y428304D01*
X197371D01*
Y428400D01*
X196997Y429305D01*
X196305Y429997D01*
X195400Y430371D01*
D02*
G37*
G36*
X194517D02*
X194421D01*
X193517Y429997D01*
X192825Y429305D01*
X192450Y428400D01*
Y428304D01*
X194517D01*
Y430371D01*
D02*
G37*
G36*
X197371Y427517D02*
X195304D01*
Y425450D01*
X195400D01*
X196305Y425825D01*
X196997Y426517D01*
X197371Y427421D01*
Y427517D01*
D02*
G37*
G36*
X194517D02*
X192450D01*
Y427421D01*
X192825Y426517D01*
X193517Y425825D01*
X194421Y425450D01*
X194517D01*
Y427517D01*
D02*
G37*
G36*
X210450Y429764D02*
X209550D01*
X208718Y429419D01*
X208081Y428782D01*
X207736Y427950D01*
Y427050D01*
X208081Y426218D01*
X208718Y425581D01*
X209550Y425236D01*
X210450D01*
X211282Y425581D01*
X211919Y426218D01*
X212264Y427050D01*
Y427950D01*
X211919Y428782D01*
X211282Y429419D01*
X210450Y429764D01*
D02*
G37*
G36*
X144599Y556042D02*
X143612D01*
X142658Y555787D01*
X141803Y555293D01*
X141105Y554595D01*
X140611Y553740D01*
X140356Y552786D01*
Y551798D01*
X140611Y550845D01*
X141105Y549990D01*
X141803Y549291D01*
X142392Y548951D01*
X144926Y546417D01*
Y507000D01*
X145048Y506075D01*
X145405Y505213D01*
X145973Y504473D01*
X153426Y497020D01*
Y437980D01*
X140973Y425527D01*
X140405Y424787D01*
X140048Y423925D01*
X139574Y424028D01*
Y425500D01*
X139452Y426425D01*
X139095Y427287D01*
X138527Y428027D01*
X133015Y433539D01*
X133106Y433760D01*
Y436500D01*
Y438961D01*
X133010D01*
X132106Y438586D01*
X131414Y437894D01*
X131039Y436989D01*
X130574Y437073D01*
Y496520D01*
X139027Y504973D01*
X139595Y505713D01*
X139952Y506575D01*
X140074Y507500D01*
Y548087D01*
X139952Y549012D01*
X139595Y549873D01*
X139027Y550614D01*
X136045Y553596D01*
Y556042D01*
X128544D01*
Y548542D01*
X130990D01*
X132926Y546606D01*
Y508980D01*
X124473Y500527D01*
X123905Y499787D01*
X123548Y498925D01*
X123426Y498000D01*
Y434500D01*
X123548Y433575D01*
X123905Y432713D01*
X124473Y431973D01*
X132426Y424020D01*
Y394854D01*
X129099Y391527D01*
X128531Y390787D01*
X128174Y389925D01*
X128052Y389000D01*
X128174Y388075D01*
X128531Y387213D01*
X129099Y386473D01*
X129839Y385905D01*
X130701Y385548D01*
X131626Y385426D01*
X132551Y385548D01*
X133413Y385905D01*
X134153Y386473D01*
X138527Y390847D01*
X138527Y390847D01*
X139095Y391587D01*
X139452Y392449D01*
X139465Y392547D01*
X139969D01*
X140048Y391949D01*
X140405Y391087D01*
X140973Y390347D01*
X144847Y386473D01*
X145587Y385905D01*
X146449Y385548D01*
X147374Y385426D01*
X148299Y385548D01*
X149161Y385905D01*
X149901Y386473D01*
X150469Y387213D01*
X150826Y388075D01*
X150948Y389000D01*
X150826Y389925D01*
X150469Y390787D01*
X149901Y391527D01*
X147074Y394354D01*
Y408635D01*
X147574Y408735D01*
X147581Y408718D01*
X148218Y408081D01*
X149050Y407736D01*
X149950D01*
X150782Y408081D01*
X151419Y408718D01*
X151764Y409550D01*
Y410450D01*
X151419Y411282D01*
X150782Y411919D01*
X149950Y412264D01*
X149050D01*
X148218Y411919D01*
X147581Y411282D01*
X147574Y411266D01*
X147074Y411365D01*
Y421520D01*
X159527Y433973D01*
X160095Y434713D01*
X160452Y435575D01*
X160574Y436500D01*
Y498500D01*
X160574Y498500D01*
X160452Y499425D01*
X160095Y500287D01*
X159527Y501027D01*
X159527Y501027D01*
X152074Y508480D01*
Y547898D01*
X152074Y547898D01*
X151952Y548823D01*
X151595Y549685D01*
X151027Y550425D01*
X147447Y554005D01*
X147106Y554595D01*
X146408Y555293D01*
X145553Y555787D01*
X144599Y556042D01*
D02*
G37*
G36*
X175450Y425764D02*
X174550D01*
X173718Y425419D01*
X173081Y424782D01*
X172736Y423950D01*
Y423050D01*
X173081Y422218D01*
X173718Y421581D01*
X174550Y421236D01*
X175450D01*
X176282Y421581D01*
X176919Y422218D01*
X177264Y423050D01*
Y423950D01*
X176919Y424782D01*
X176282Y425419D01*
X175450Y425764D01*
D02*
G37*
G36*
X105450Y424764D02*
X104550D01*
X103718Y424419D01*
X103081Y423782D01*
X102736Y422950D01*
Y422050D01*
X103081Y421218D01*
X103718Y420581D01*
X104550Y420236D01*
X105450D01*
X106282Y420581D01*
X106919Y421218D01*
X107264Y422050D01*
Y422950D01*
X106919Y423782D01*
X106282Y424419D01*
X105450Y424764D01*
D02*
G37*
G36*
X255127Y432995D02*
X253829D01*
X252554Y432741D01*
X251354Y432244D01*
X250274Y431522D01*
X249356Y430604D01*
X248634Y429524D01*
X248137Y428324D01*
X247884Y427049D01*
Y425750D01*
X248137Y424476D01*
X248634Y423276D01*
X249356Y422196D01*
X250274Y421278D01*
X251354Y420556D01*
X252554Y420059D01*
X253829Y419805D01*
X255127D01*
X256401Y420059D01*
X257602Y420556D01*
X258682Y421278D01*
X259600Y422196D01*
X260322Y423276D01*
X260819Y424476D01*
X261072Y425750D01*
Y427049D01*
X260819Y428324D01*
X260322Y429524D01*
X259600Y430604D01*
X258682Y431522D01*
X257602Y432244D01*
X256401Y432741D01*
X255127Y432995D01*
D02*
G37*
G36*
X21871D02*
X20573D01*
X19298Y432741D01*
X18098Y432244D01*
X17018Y431522D01*
X16100Y430604D01*
X15378Y429524D01*
X14881Y428324D01*
X14628Y427049D01*
Y425750D01*
X14881Y424476D01*
X15378Y423276D01*
X16100Y422196D01*
X17018Y421278D01*
X18098Y420556D01*
X19298Y420059D01*
X20573Y419805D01*
X21871D01*
X23146Y420059D01*
X24346Y420556D01*
X25426Y421278D01*
X26344Y422196D01*
X27066Y423276D01*
X27563Y424476D01*
X27817Y425750D01*
Y427049D01*
X27563Y428324D01*
X27066Y429524D01*
X26344Y430604D01*
X25426Y431522D01*
X24346Y432244D01*
X23146Y432741D01*
X21871Y432995D01*
D02*
G37*
G36*
X210762Y421917D02*
X209861D01*
X209029Y421572D01*
X208393Y420935D01*
X208048Y420103D01*
Y419203D01*
X208393Y418371D01*
X209029Y417734D01*
X209861Y417389D01*
X210762D01*
X211594Y417734D01*
X212231Y418371D01*
X212575Y419203D01*
Y420103D01*
X212231Y420935D01*
X211594Y421572D01*
X210762Y421917D01*
D02*
G37*
G36*
X237964Y424244D02*
X236976D01*
X236023Y423989D01*
X235168Y423495D01*
X234469Y422797D01*
X233976Y421942D01*
X233720Y420988D01*
Y420001D01*
X233976Y419047D01*
X234469Y418192D01*
X235168Y417494D01*
X236023Y417000D01*
X236976Y416745D01*
X237964D01*
X238917Y417000D01*
X239773Y417494D01*
X240471Y418192D01*
X240965Y419047D01*
X241220Y420001D01*
Y420988D01*
X240965Y421942D01*
X240471Y422797D01*
X239773Y423495D01*
X238917Y423989D01*
X237964Y424244D01*
D02*
G37*
G36*
X41980D02*
X34480D01*
Y416745D01*
X41980D01*
Y424244D01*
D02*
G37*
G36*
X215950Y420764D02*
X215050D01*
X214218Y420419D01*
X213581Y419782D01*
X213236Y418950D01*
Y418050D01*
X213581Y417218D01*
X214218Y416581D01*
X215050Y416236D01*
X215950D01*
X216782Y416581D01*
X217419Y417218D01*
X217764Y418050D01*
Y418950D01*
X217419Y419782D01*
X216782Y420419D01*
X215950Y420764D01*
D02*
G37*
G36*
X152950Y419264D02*
X152050D01*
X151218Y418919D01*
X150581Y418282D01*
X150236Y417450D01*
Y416550D01*
X150581Y415718D01*
X151218Y415081D01*
X152050Y414736D01*
X152950D01*
X153782Y415081D01*
X154419Y415718D01*
X154764Y416550D01*
Y417450D01*
X154419Y418282D01*
X153782Y418919D01*
X152950Y419264D01*
D02*
G37*
G36*
X219950Y417264D02*
X219050D01*
X218218Y416919D01*
X217581Y416282D01*
X217236Y415450D01*
Y414550D01*
X217581Y413718D01*
X218218Y413081D01*
X219050Y412736D01*
X219950D01*
X220782Y413081D01*
X221419Y413718D01*
X221764Y414550D01*
Y415450D01*
X221419Y416282D01*
X220782Y416919D01*
X219950Y417264D01*
D02*
G37*
G36*
X126450Y414764D02*
X125550D01*
X124718Y414419D01*
X124081Y413782D01*
X123736Y412950D01*
Y412050D01*
X124081Y411218D01*
X124718Y410581D01*
X125550Y410236D01*
X126450D01*
X127282Y410581D01*
X127919Y411218D01*
X128264Y412050D01*
Y412950D01*
X127919Y413782D01*
X127282Y414419D01*
X126450Y414764D01*
D02*
G37*
G36*
X214950Y412264D02*
X214050D01*
X213218Y411919D01*
X212581Y411282D01*
X212236Y410450D01*
Y409550D01*
X212581Y408718D01*
X213218Y408081D01*
X214050Y407736D01*
X214950D01*
X215782Y408081D01*
X216419Y408718D01*
X216764Y409550D01*
Y410450D01*
X216419Y411282D01*
X215782Y411919D01*
X214950Y412264D01*
D02*
G37*
G36*
X57950Y409764D02*
X57050D01*
X56218Y409419D01*
X55581Y408782D01*
X55236Y407950D01*
Y407050D01*
X55581Y406218D01*
X56218Y405581D01*
X57050Y405236D01*
X57950D01*
X58782Y405581D01*
X59419Y406218D01*
X59764Y407050D01*
Y407950D01*
X59419Y408782D01*
X58782Y409419D01*
X57950Y409764D01*
D02*
G37*
G36*
X158450Y408764D02*
X157550D01*
X156718Y408419D01*
X156081Y407782D01*
X155736Y406950D01*
Y406050D01*
X156081Y405218D01*
X156718Y404581D01*
X157550Y404236D01*
X158450D01*
X159282Y404581D01*
X159919Y405218D01*
X160264Y406050D01*
Y406950D01*
X159919Y407782D01*
X159282Y408419D01*
X158450Y408764D01*
D02*
G37*
G36*
X155450Y397764D02*
X154550D01*
X153718Y397419D01*
X153327Y397028D01*
X153000Y396831D01*
X152673Y397028D01*
X152282Y397419D01*
X151450Y397764D01*
X150550D01*
X149718Y397419D01*
X149081Y396782D01*
X148736Y395950D01*
Y395050D01*
X149081Y394218D01*
X149718Y393581D01*
X150550Y393236D01*
X151450D01*
X152282Y393581D01*
X152673Y393972D01*
X153000Y394169D01*
X153327Y393972D01*
X153718Y393581D01*
X154550Y393236D01*
X155450D01*
X156282Y393581D01*
X156648Y393947D01*
X157001Y394160D01*
X157302Y393947D01*
X157693Y393556D01*
X158525Y393211D01*
X159425D01*
X160257Y393556D01*
X160894Y394193D01*
X161239Y395025D01*
Y395925D01*
X160894Y396757D01*
X160257Y397394D01*
X159425Y397739D01*
X158525D01*
X157693Y397394D01*
X157327Y397028D01*
X156974Y396815D01*
X156673Y397028D01*
X156282Y397419D01*
X155450Y397764D01*
D02*
G37*
G36*
X128450D02*
X127550D01*
X126718Y397419D01*
X126327Y397028D01*
X126000Y396831D01*
X125673Y397028D01*
X125282Y397419D01*
X124450Y397764D01*
X123550D01*
X122718Y397419D01*
X122153Y396855D01*
X121589Y397419D01*
X120757Y397764D01*
X119857D01*
X119025Y397419D01*
X118388Y396782D01*
X118043Y395950D01*
Y395050D01*
X118388Y394218D01*
X119025Y393581D01*
X119857Y393236D01*
X120757D01*
X121589Y393581D01*
X122153Y394145D01*
X122718Y393581D01*
X123550Y393236D01*
X124450D01*
X125282Y393581D01*
X125673Y393972D01*
X126000Y394169D01*
X126327Y393972D01*
X126718Y393581D01*
X127550Y393236D01*
X128450D01*
X129282Y393581D01*
X129919Y394218D01*
X130264Y395050D01*
Y395950D01*
X129919Y396782D01*
X129282Y397419D01*
X128450Y397764D01*
D02*
G37*
G36*
X48057Y393764D02*
X47156D01*
X46324Y393419D01*
X45687Y392782D01*
X45342Y391950D01*
Y391050D01*
X45687Y390218D01*
X46324Y389581D01*
X47156Y389236D01*
X48057D01*
X48889Y389581D01*
X49359Y389344D01*
Y388656D01*
X49704Y387824D01*
X50340Y387187D01*
X51173Y386842D01*
X52073D01*
X52905Y387187D01*
X53542Y387824D01*
X53886Y388656D01*
Y389557D01*
X53542Y390389D01*
X52905Y391025D01*
X52073Y391370D01*
X51173D01*
X50340Y391025D01*
X49870Y391262D01*
Y391950D01*
X49525Y392782D01*
X48889Y393419D01*
X48057Y393764D01*
D02*
G37*
G36*
X201337Y408705D02*
X199277D01*
X197242Y408382D01*
X195282Y407746D01*
X193446Y406810D01*
X191779Y405599D01*
X190322Y404142D01*
X189111Y402475D01*
X188176Y400639D01*
X187539Y398680D01*
X187216Y396644D01*
Y394584D01*
X187539Y392549D01*
X188176Y390589D01*
X189111Y388753D01*
X190322Y387086D01*
X191779Y385629D01*
X193446Y384418D01*
X195282Y383483D01*
X197242Y382846D01*
X199277Y382524D01*
X201337D01*
X203373Y382846D01*
X205332Y383483D01*
X207168Y384418D01*
X208835Y385629D01*
X210292Y387086D01*
X211503Y388753D01*
X212439Y390589D01*
X213075Y392549D01*
X213398Y394584D01*
Y396644D01*
X213075Y398680D01*
X212439Y400639D01*
X211503Y402475D01*
X210292Y404142D01*
X208835Y405599D01*
X207168Y406810D01*
X205332Y407746D01*
X203373Y408382D01*
X201337Y408705D01*
D02*
G37*
G36*
X256936Y406791D02*
X254875D01*
X252840Y406469D01*
X250881Y405832D01*
X249045Y404897D01*
X247378Y403686D01*
X245921Y402229D01*
X244709Y400562D01*
X243774Y398726D01*
X243137Y396766D01*
X242815Y394731D01*
Y392670D01*
X243137Y390635D01*
X243774Y388676D01*
X244709Y386840D01*
X245921Y385173D01*
X247378Y383716D01*
X249045Y382505D01*
X250881Y381569D01*
X252840Y380933D01*
X254875Y380610D01*
X256936D01*
X258971Y380933D01*
X260930Y381569D01*
X262766Y382505D01*
X264433Y383716D01*
X265890Y385173D01*
X267102Y386840D01*
X268037Y388676D01*
X268674Y390635D01*
X268996Y392670D01*
Y394731D01*
X268674Y396766D01*
X268037Y398726D01*
X267102Y400562D01*
X265890Y402229D01*
X264433Y403686D01*
X262766Y404897D01*
X260930Y405832D01*
X258971Y406469D01*
X256936Y406791D01*
D02*
G37*
G36*
X20715D02*
X18655D01*
X16620Y406469D01*
X14660Y405832D01*
X12824Y404897D01*
X11157Y403686D01*
X9700Y402229D01*
X8489Y400562D01*
X7553Y398726D01*
X6917Y396766D01*
X6594Y394731D01*
Y392670D01*
X6917Y390635D01*
X7553Y388676D01*
X8489Y386840D01*
X9700Y385173D01*
X11157Y383716D01*
X12824Y382505D01*
X14660Y381569D01*
X16620Y380933D01*
X18655Y380610D01*
X20715D01*
X22750Y380933D01*
X24710Y381569D01*
X26546Y382505D01*
X28213Y383716D01*
X29670Y385173D01*
X30881Y386840D01*
X31817Y388676D01*
X32453Y390635D01*
X32776Y392670D01*
Y394731D01*
X32453Y396766D01*
X31817Y398726D01*
X30881Y400562D01*
X29670Y402229D01*
X28213Y403686D01*
X26546Y404897D01*
X24710Y405832D01*
X22750Y406469D01*
X20715Y406791D01*
D02*
G37*
G36*
X80100Y401474D02*
X79175Y401352D01*
X78313Y400995D01*
X77573Y400427D01*
X77005Y399687D01*
X76648Y398825D01*
X76526Y397900D01*
Y387080D01*
X69020Y379574D01*
X35865D01*
X35765Y380074D01*
X35782Y380081D01*
X36419Y380718D01*
X36764Y381550D01*
Y382450D01*
X36419Y383282D01*
X35782Y383919D01*
X34950Y384264D01*
X34050D01*
X33218Y383919D01*
X32581Y383282D01*
X32236Y382450D01*
Y381550D01*
X32581Y380718D01*
X33218Y380081D01*
X33235Y380074D01*
X33135Y379574D01*
X19500D01*
X18575Y379452D01*
X17713Y379095D01*
X16973Y378527D01*
X4973Y366527D01*
X4405Y365787D01*
X4048Y364925D01*
X3926Y364000D01*
Y254500D01*
X4048Y253575D01*
X4405Y252713D01*
X4973Y251973D01*
X28426Y228520D01*
Y129071D01*
X26395Y127039D01*
X26317Y127056D01*
X25958Y127641D01*
X26043Y127958D01*
Y128813D01*
X25822Y129639D01*
X25394Y130380D01*
X24790Y130985D01*
X24049Y131412D01*
X23223Y131634D01*
X22368D01*
X21542Y131412D01*
X20801Y130985D01*
X20196Y130380D01*
X19769Y129639D01*
X19547Y128813D01*
Y127958D01*
X19769Y127132D01*
X20196Y126391D01*
X20801Y125787D01*
X21542Y125359D01*
X22368Y125138D01*
X23223D01*
X23540Y125223D01*
X24125Y124864D01*
X24142Y124787D01*
X20268Y120913D01*
X19700Y120173D01*
X19343Y119311D01*
X19221Y118386D01*
X19343Y117461D01*
X19700Y116599D01*
X20268Y115859D01*
X21008Y115291D01*
X21870Y114934D01*
X22795Y114812D01*
X23608Y114919D01*
X34461Y104066D01*
Y101494D01*
X34236Y100950D01*
Y100050D01*
X34581Y99218D01*
X35218Y98581D01*
X36050Y98236D01*
X36950D01*
X37782Y98581D01*
X38419Y99218D01*
X38764Y100050D01*
Y100950D01*
X38419Y101782D01*
X38215Y101987D01*
Y104843D01*
X38072Y105561D01*
X37665Y106170D01*
X26649Y117186D01*
X34527Y125063D01*
X35095Y125804D01*
X35452Y126666D01*
X35574Y127591D01*
Y230000D01*
X35452Y230925D01*
X35095Y231787D01*
X34527Y232527D01*
X34282Y232772D01*
X34608Y233154D01*
X35934Y232190D01*
X37770Y231254D01*
X39730Y230618D01*
X41765Y230295D01*
X43826D01*
X45861Y230618D01*
X47820Y231254D01*
X49656Y232190D01*
X51323Y233401D01*
X52780Y234858D01*
X53991Y236525D01*
X54927Y238361D01*
X55563Y240320D01*
X55886Y242356D01*
Y244416D01*
X55563Y246451D01*
X54927Y248411D01*
X53991Y250247D01*
X52780Y251914D01*
X51323Y253371D01*
X49656Y254582D01*
X47820Y255517D01*
X45861Y256154D01*
X43826Y256476D01*
X41765D01*
X39730Y256154D01*
X37770Y255517D01*
X35934Y254582D01*
X34267Y253371D01*
X32810Y251914D01*
X31599Y250247D01*
X30664Y248411D01*
X30027Y246451D01*
X29705Y244416D01*
Y242356D01*
X30027Y240320D01*
X30664Y238361D01*
X31599Y236525D01*
X32563Y235198D01*
X32182Y234872D01*
X11074Y255980D01*
Y362520D01*
X20980Y372426D01*
X70500D01*
X71425Y372548D01*
X72287Y372905D01*
X73027Y373473D01*
X82627Y383073D01*
X83195Y383813D01*
X83552Y384675D01*
X83674Y385600D01*
Y397900D01*
X83552Y398825D01*
X83195Y399687D01*
X82627Y400427D01*
X81887Y400995D01*
X81025Y401352D01*
X80100Y401474D01*
D02*
G37*
G36*
X200450Y375764D02*
X199550D01*
X198718Y375419D01*
X198081Y374782D01*
X197736Y373950D01*
Y373050D01*
X198081Y372218D01*
X198718Y371581D01*
X199550Y371236D01*
X200450D01*
X201282Y371581D01*
X201919Y372218D01*
X202264Y373050D01*
Y373950D01*
X201919Y374782D01*
X201282Y375419D01*
X200450Y375764D01*
D02*
G37*
G36*
X172950D02*
X172050D01*
X171218Y375419D01*
X170581Y374782D01*
X170236Y373950D01*
Y373050D01*
X170581Y372218D01*
X171218Y371581D01*
X172050Y371236D01*
X172950D01*
X173782Y371581D01*
X174419Y372218D01*
X174764Y373050D01*
Y373950D01*
X174419Y374782D01*
X173782Y375419D01*
X172950Y375764D01*
D02*
G37*
G36*
X86450Y373764D02*
X85550D01*
X84718Y373419D01*
X84081Y372782D01*
X83736Y371950D01*
Y371050D01*
X84081Y370218D01*
X84718Y369581D01*
X85550Y369236D01*
X86450D01*
X87282Y369581D01*
X87919Y370218D01*
X88264Y371050D01*
Y371950D01*
X87919Y372782D01*
X87282Y373419D01*
X86450Y373764D01*
D02*
G37*
G36*
X254950Y372764D02*
X254050D01*
X253218Y372419D01*
X252581Y371782D01*
X252236Y370950D01*
Y370050D01*
X252581Y369218D01*
X253218Y368581D01*
X254050Y368236D01*
X254950D01*
X255782Y368581D01*
X256419Y369218D01*
X256764Y370050D01*
Y370950D01*
X256419Y371782D01*
X255782Y372419D01*
X254950Y372764D01*
D02*
G37*
G36*
X38724Y369255D02*
X37736D01*
X36783Y369000D01*
X35927Y368506D01*
X35229Y367808D01*
X34736Y366953D01*
X34480Y365999D01*
Y365012D01*
X34736Y364058D01*
X35229Y363203D01*
X35927Y362505D01*
X36783Y362011D01*
X37736Y361755D01*
X38724D01*
X39677Y362011D01*
X40532Y362505D01*
X41231Y363203D01*
X41724Y364058D01*
X41980Y365012D01*
Y365999D01*
X41724Y366953D01*
X41231Y367808D01*
X40532Y368506D01*
X39677Y369000D01*
X38724Y369255D01*
D02*
G37*
G36*
X86226Y365347D02*
X85344D01*
X84493Y365118D01*
X83730Y364678D01*
X83107Y364055D01*
X82667Y363292D01*
X82439Y362441D01*
Y361559D01*
X82667Y360708D01*
X83107Y359945D01*
X83730Y359322D01*
X84493Y358882D01*
X85344Y358653D01*
X86226D01*
X87077Y358882D01*
X87840Y359322D01*
X88463Y359945D01*
X88903Y360708D01*
X89131Y361559D01*
Y362441D01*
X88903Y363292D01*
X88463Y364055D01*
X87840Y364678D01*
X87077Y365118D01*
X86226Y365347D01*
D02*
G37*
G36*
X76383D02*
X75502D01*
X74651Y365118D01*
X73888Y364678D01*
X73265Y364055D01*
X72824Y363292D01*
X72596Y362441D01*
Y361559D01*
X72824Y360708D01*
X73265Y359945D01*
X73888Y359322D01*
X74651Y358882D01*
X75502Y358653D01*
X76383D01*
X77234Y358882D01*
X77997Y359322D01*
X78620Y359945D01*
X79061Y360708D01*
X79289Y361559D01*
Y362441D01*
X79061Y363292D01*
X78620Y364055D01*
X77997Y364678D01*
X77234Y365118D01*
X76383Y365347D01*
D02*
G37*
G36*
X66541D02*
X65659D01*
X64808Y365118D01*
X64045Y364678D01*
X63422Y364055D01*
X62982Y363292D01*
X62753Y362441D01*
Y361559D01*
X62982Y360708D01*
X63422Y359945D01*
X64045Y359322D01*
X64808Y358882D01*
X65659Y358653D01*
X66541D01*
X67392Y358882D01*
X68155Y359322D01*
X68778Y359945D01*
X69218Y360708D01*
X69446Y361559D01*
Y362441D01*
X69218Y363292D01*
X68778Y364055D01*
X68155Y364678D01*
X67392Y365118D01*
X66541Y365347D01*
D02*
G37*
G36*
X241220Y365355D02*
X233720D01*
Y357856D01*
X241220D01*
Y365355D01*
D02*
G37*
G36*
X21871Y366195D02*
X20573D01*
X19298Y365941D01*
X18098Y365444D01*
X17018Y364722D01*
X16100Y363804D01*
X15378Y362724D01*
X14881Y361524D01*
X14628Y360249D01*
Y358950D01*
X14881Y357677D01*
X15378Y356476D01*
X16100Y355396D01*
X17018Y354478D01*
X18098Y353756D01*
X19298Y353259D01*
X20573Y353006D01*
X21871D01*
X23146Y353259D01*
X24346Y353756D01*
X25426Y354478D01*
X26344Y355396D01*
X27066Y356476D01*
X27563Y357677D01*
X27817Y358950D01*
Y360249D01*
X27563Y361524D01*
X27066Y362724D01*
X26344Y363804D01*
X25426Y364722D01*
X24346Y365444D01*
X23146Y365941D01*
X21871Y366195D01*
D02*
G37*
G36*
X41980Y357445D02*
X34480D01*
Y349944D01*
X41980D01*
Y357445D01*
D02*
G37*
G36*
X255127Y362295D02*
X253829D01*
X252554Y362041D01*
X251354Y361544D01*
X250274Y360822D01*
X249356Y359904D01*
X248634Y358824D01*
X248137Y357624D01*
X247884Y356349D01*
Y355050D01*
X248137Y353777D01*
X248634Y352576D01*
X249356Y351496D01*
X250274Y350578D01*
X251354Y349856D01*
X252554Y349359D01*
X253829Y349106D01*
X255127D01*
X256401Y349359D01*
X257602Y349856D01*
X258682Y350578D01*
X259600Y351496D01*
X260322Y352576D01*
X260819Y353777D01*
X261072Y355050D01*
Y356349D01*
X260819Y357624D01*
X260322Y358824D01*
X259600Y359904D01*
X258682Y360822D01*
X257602Y361544D01*
X256401Y362041D01*
X255127Y362295D01*
D02*
G37*
G36*
X237964Y353544D02*
X236976D01*
X236023Y353289D01*
X235168Y352795D01*
X234469Y352097D01*
X233976Y351242D01*
X233720Y350288D01*
Y349301D01*
X233976Y348347D01*
X234469Y347492D01*
X235168Y346794D01*
X236023Y346300D01*
X236976Y346044D01*
X237964D01*
X238917Y346300D01*
X239773Y346794D01*
X240471Y347492D01*
X240965Y348347D01*
X241220Y349301D01*
Y350288D01*
X240965Y351242D01*
X240471Y352097D01*
X239773Y352795D01*
X238917Y353289D01*
X237964Y353544D01*
D02*
G37*
G36*
X200450Y343264D02*
X199550D01*
X198718Y342919D01*
X198081Y342282D01*
X197736Y341450D01*
Y340550D01*
X198081Y339718D01*
X198718Y339081D01*
X199550Y338736D01*
X200450D01*
X201282Y339081D01*
X201919Y339718D01*
X202264Y340550D01*
Y341450D01*
X201919Y342282D01*
X201282Y342919D01*
X200450Y343264D01*
D02*
G37*
G36*
X173450Y339764D02*
X172550D01*
X171718Y339419D01*
X171081Y338782D01*
X170736Y337950D01*
Y337050D01*
X171081Y336218D01*
X171718Y335581D01*
X172550Y335236D01*
X173450D01*
X174282Y335581D01*
X174919Y336218D01*
X175264Y337050D01*
Y337950D01*
X174919Y338782D01*
X174282Y339419D01*
X173450Y339764D01*
D02*
G37*
G36*
X163950Y364264D02*
X163050D01*
X162218Y363919D01*
X161581Y363282D01*
X161236Y362450D01*
Y361550D01*
X161581Y360718D01*
X161623Y360675D01*
Y349493D01*
X161766Y348775D01*
X162173Y348166D01*
X165123Y345216D01*
Y334811D01*
X165081Y334769D01*
X164736Y333937D01*
Y333036D01*
X165081Y332204D01*
X165718Y331567D01*
X166550Y331222D01*
X167450D01*
X168282Y331567D01*
X168919Y332204D01*
X169264Y333036D01*
Y333937D01*
X168919Y334769D01*
X168877Y334811D01*
Y345993D01*
X168734Y346711D01*
X168327Y347320D01*
X165377Y350270D01*
Y360675D01*
X165419Y360718D01*
X165764Y361550D01*
Y362450D01*
X165419Y363282D01*
X164782Y363919D01*
X163950Y364264D01*
D02*
G37*
G36*
X93450Y332764D02*
X92550D01*
X91718Y332419D01*
X91081Y331782D01*
X90736Y330950D01*
Y330050D01*
X91081Y329218D01*
X91718Y328581D01*
X92550Y328236D01*
X93450D01*
X94282Y328581D01*
X94919Y329218D01*
X95264Y330050D01*
Y330950D01*
X94919Y331782D01*
X94282Y332419D01*
X93450Y332764D01*
D02*
G37*
G36*
X38724Y329256D02*
X37736D01*
X36783Y329000D01*
X35927Y328506D01*
X35229Y327808D01*
X34736Y326953D01*
X34480Y325999D01*
Y325012D01*
X34736Y324058D01*
X35229Y323203D01*
X35927Y322505D01*
X36783Y322011D01*
X37736Y321756D01*
X38724D01*
X39677Y322011D01*
X40532Y322505D01*
X41231Y323203D01*
X41724Y324058D01*
X41980Y325012D01*
Y325999D01*
X41724Y326953D01*
X41231Y327808D01*
X40532Y328506D01*
X39677Y329000D01*
X38724Y329256D01*
D02*
G37*
G36*
X106650Y322964D02*
X105750D01*
X104918Y322619D01*
X104281Y321982D01*
X103936Y321150D01*
Y320250D01*
X104281Y319418D01*
X104918Y318781D01*
X105750Y318436D01*
X106650D01*
X107482Y318781D01*
X108119Y319418D01*
X108464Y320250D01*
Y321150D01*
X108119Y321982D01*
X107482Y322619D01*
X106650Y322964D01*
D02*
G37*
G36*
X241220Y325356D02*
X233720D01*
Y317856D01*
X241220D01*
Y325356D01*
D02*
G37*
G36*
X169450Y318264D02*
X168550D01*
X167718Y317919D01*
X167081Y317282D01*
X166736Y316450D01*
Y315550D01*
X167081Y314718D01*
X167718Y314081D01*
X168550Y313736D01*
X169450D01*
X170282Y314081D01*
X170919Y314718D01*
X171264Y315550D01*
Y316450D01*
X170919Y317282D01*
X170282Y317919D01*
X169450Y318264D01*
D02*
G37*
G36*
X21871Y326195D02*
X20573D01*
X19298Y325941D01*
X18098Y325444D01*
X17018Y324722D01*
X16100Y323804D01*
X15378Y322724D01*
X14881Y321523D01*
X14628Y320250D01*
Y318951D01*
X14881Y317676D01*
X15378Y316476D01*
X16100Y315396D01*
X17018Y314478D01*
X18098Y313756D01*
X19298Y313259D01*
X20573Y313005D01*
X21871D01*
X23146Y313259D01*
X24346Y313756D01*
X25426Y314478D01*
X26344Y315396D01*
X27066Y316476D01*
X27563Y317676D01*
X27817Y318951D01*
Y320250D01*
X27563Y321523D01*
X27066Y322724D01*
X26344Y323804D01*
X25426Y324722D01*
X24346Y325444D01*
X23146Y325941D01*
X21871Y326195D01*
D02*
G37*
G36*
X178031Y314546D02*
X177131D01*
X176298Y314201D01*
X175662Y313565D01*
X175317Y312733D01*
Y311832D01*
X175662Y311000D01*
X176298Y310363D01*
X177131Y310019D01*
X178031D01*
X178863Y310363D01*
X179500Y311000D01*
X179845Y311832D01*
Y312733D01*
X179500Y313565D01*
X178863Y314201D01*
X178031Y314546D01*
D02*
G37*
G36*
X41980Y317444D02*
X34480D01*
Y309945D01*
X41980D01*
Y317444D01*
D02*
G37*
G36*
X124387Y314168D02*
X123487D01*
X122655Y313823D01*
X122018Y313186D01*
X121673Y312354D01*
Y311454D01*
X122018Y310622D01*
X122655Y309985D01*
X123487Y309640D01*
X124387D01*
X125219Y309985D01*
X125856Y310622D01*
X126201Y311454D01*
Y312354D01*
X125856Y313186D01*
X125219Y313823D01*
X124387Y314168D01*
D02*
G37*
G36*
X165284Y311687D02*
X165189D01*
Y309620D01*
X167256D01*
Y309716D01*
X166881Y310621D01*
X166189Y311313D01*
X165284Y311687D01*
D02*
G37*
G36*
X164401D02*
X164305D01*
X163401Y311313D01*
X162709Y310621D01*
X162334Y309716D01*
Y309620D01*
X164401D01*
Y311687D01*
D02*
G37*
G36*
X255127Y322294D02*
X253829D01*
X252554Y322041D01*
X251354Y321544D01*
X250274Y320822D01*
X249356Y319904D01*
X248634Y318824D01*
X248137Y317623D01*
X247884Y316350D01*
Y315051D01*
X248137Y313776D01*
X248634Y312576D01*
X249356Y311496D01*
X250274Y310578D01*
X251354Y309856D01*
X252554Y309359D01*
X253829Y309105D01*
X255127D01*
X256401Y309359D01*
X257602Y309856D01*
X258682Y310578D01*
X259600Y311496D01*
X260322Y312576D01*
X260819Y313776D01*
X261072Y315051D01*
Y316350D01*
X260819Y317623D01*
X260322Y318824D01*
X259600Y319904D01*
X258682Y320822D01*
X257602Y321544D01*
X256401Y322041D01*
X255127Y322294D01*
D02*
G37*
G36*
X82450Y312264D02*
X81550D01*
X80718Y311919D01*
X80081Y311282D01*
X79736Y310450D01*
Y309550D01*
X80081Y308718D01*
X80718Y308081D01*
X81550Y307736D01*
X82450D01*
X83282Y308081D01*
X83919Y308718D01*
X84264Y309550D01*
Y310450D01*
X83919Y311282D01*
X83282Y311919D01*
X82450Y312264D01*
D02*
G37*
G36*
X167256Y308833D02*
X165189D01*
Y306766D01*
X165284D01*
X166189Y307141D01*
X166881Y307833D01*
X167256Y308737D01*
Y308833D01*
D02*
G37*
G36*
X164401D02*
X162334D01*
Y308737D01*
X162709Y307833D01*
X163401Y307141D01*
X164305Y306766D01*
X164401D01*
Y308833D01*
D02*
G37*
G36*
X237964Y313545D02*
X236976D01*
X236023Y313289D01*
X235168Y312795D01*
X234469Y312097D01*
X233976Y311242D01*
X233720Y310288D01*
Y309301D01*
X233976Y308347D01*
X234469Y307492D01*
X235168Y306794D01*
X236023Y306300D01*
X236976Y306045D01*
X237964D01*
X238917Y306300D01*
X239773Y306794D01*
X240471Y307492D01*
X240965Y308347D01*
X241220Y309301D01*
Y310288D01*
X240965Y311242D01*
X240471Y312097D01*
X239773Y312795D01*
X238917Y313289D01*
X237964Y313545D01*
D02*
G37*
G36*
X76950Y310264D02*
X76050D01*
X75218Y309919D01*
X74581Y309282D01*
X74236Y308450D01*
Y307550D01*
X74581Y306718D01*
X75218Y306081D01*
X76050Y305736D01*
X76950D01*
X77782Y306081D01*
X78419Y306718D01*
X78764Y307550D01*
Y308450D01*
X78419Y309282D01*
X77782Y309919D01*
X76950Y310264D01*
D02*
G37*
G36*
X141818Y309764D02*
X140917D01*
X140085Y309419D01*
X139449Y308782D01*
X139104Y307950D01*
Y307050D01*
X139449Y306218D01*
X140085Y305581D01*
X140917Y305236D01*
X141818D01*
X142650Y305581D01*
X143287Y306218D01*
X143631Y307050D01*
Y307950D01*
X143287Y308782D01*
X142650Y309419D01*
X141818Y309764D01*
D02*
G37*
G36*
X176199Y309557D02*
X175298D01*
X174466Y309212D01*
X173829Y308576D01*
X173485Y307743D01*
Y306843D01*
X173829Y306011D01*
X174466Y305374D01*
X175298Y305029D01*
X176199D01*
X177031Y305374D01*
X177668Y306011D01*
X178012Y306843D01*
Y307743D01*
X177668Y308576D01*
X177031Y309212D01*
X176199Y309557D01*
D02*
G37*
G36*
X212950Y302264D02*
X212050D01*
X211218Y301919D01*
X210581Y301282D01*
X210236Y300450D01*
Y299550D01*
X210581Y298718D01*
X211218Y298081D01*
X212050Y297736D01*
X212950D01*
X213782Y298081D01*
X214419Y298718D01*
X214764Y299550D01*
Y300450D01*
X214419Y301282D01*
X213782Y301919D01*
X212950Y302264D01*
D02*
G37*
G36*
X137450Y300264D02*
X136550D01*
X135718Y299919D01*
X135081Y299282D01*
X134736Y298450D01*
Y297550D01*
X135081Y296718D01*
X135718Y296081D01*
X136550Y295736D01*
X137450D01*
X138282Y296081D01*
X138919Y296718D01*
X139264Y297550D01*
Y298450D01*
X138919Y299282D01*
X138282Y299919D01*
X137450Y300264D01*
D02*
G37*
G36*
X94950Y299764D02*
X94050D01*
X93218Y299419D01*
X92581Y298782D01*
X92236Y297950D01*
Y297050D01*
X92581Y296218D01*
X93218Y295581D01*
X94050Y295236D01*
X94950D01*
X95782Y295581D01*
X96419Y296218D01*
X96764Y297050D01*
Y297950D01*
X96419Y298782D01*
X95782Y299419D01*
X94950Y299764D01*
D02*
G37*
G36*
X70450Y298764D02*
X69550D01*
X68718Y298419D01*
X68081Y297782D01*
X67736Y296950D01*
Y296050D01*
X68081Y295218D01*
X68718Y294581D01*
X69550Y294236D01*
X70450D01*
X71282Y294581D01*
X71919Y295218D01*
X72264Y296050D01*
Y296950D01*
X71919Y297782D01*
X71282Y298419D01*
X70450Y298764D01*
D02*
G37*
G36*
X94989Y284961D02*
X94894D01*
Y282894D01*
X96961D01*
Y282989D01*
X96586Y283894D01*
X95894Y284586D01*
X94989Y284961D01*
D02*
G37*
G36*
X94106D02*
X94011D01*
X93106Y284586D01*
X92414Y283894D01*
X92039Y282989D01*
Y282894D01*
X94106D01*
Y284961D01*
D02*
G37*
G36*
X38724Y289255D02*
X37736D01*
X36783Y289000D01*
X35927Y288506D01*
X35229Y287808D01*
X34736Y286953D01*
X34480Y285999D01*
Y285012D01*
X34736Y284058D01*
X35229Y283203D01*
X35927Y282505D01*
X36783Y282011D01*
X37736Y281755D01*
X38724D01*
X39677Y282011D01*
X40532Y282505D01*
X41231Y283203D01*
X41724Y284058D01*
X41980Y285012D01*
Y285999D01*
X41724Y286953D01*
X41231Y287808D01*
X40532Y288506D01*
X39677Y289000D01*
X38724Y289255D01*
D02*
G37*
G36*
X96961Y282106D02*
X94894D01*
Y280039D01*
X94989D01*
X95894Y280414D01*
X96586Y281106D01*
X96961Y282011D01*
Y282106D01*
D02*
G37*
G36*
X94106D02*
X92039D01*
Y282011D01*
X92414Y281106D01*
X93106Y280414D01*
X94011Y280039D01*
X94106D01*
Y282106D01*
D02*
G37*
G36*
X241220Y285355D02*
X233720D01*
Y277855D01*
X241220D01*
Y285355D01*
D02*
G37*
G36*
X21871Y286194D02*
X20573D01*
X19298Y285941D01*
X18098Y285444D01*
X17018Y284722D01*
X16100Y283804D01*
X15378Y282724D01*
X14881Y281523D01*
X14628Y280250D01*
Y278951D01*
X14881Y277677D01*
X15378Y276476D01*
X16100Y275396D01*
X17018Y274478D01*
X18098Y273756D01*
X19298Y273259D01*
X20573Y273006D01*
X21871D01*
X23146Y273259D01*
X24346Y273756D01*
X25426Y274478D01*
X26344Y275396D01*
X27066Y276476D01*
X27563Y277677D01*
X27817Y278951D01*
Y280250D01*
X27563Y281523D01*
X27066Y282724D01*
X26344Y283804D01*
X25426Y284722D01*
X24346Y285444D01*
X23146Y285941D01*
X21871Y286194D01*
D02*
G37*
G36*
X41980Y277445D02*
X34480D01*
Y269945D01*
X41980D01*
Y277445D01*
D02*
G37*
G36*
X172989Y271461D02*
X172894D01*
Y269394D01*
X174961D01*
Y269489D01*
X174586Y270394D01*
X173894Y271086D01*
X172989Y271461D01*
D02*
G37*
G36*
X172106D02*
X172011D01*
X171106Y271086D01*
X170414Y270394D01*
X170039Y269489D01*
Y269394D01*
X172106D01*
Y271461D01*
D02*
G37*
G36*
X162989D02*
X162894D01*
Y269394D01*
X164961D01*
Y269489D01*
X164586Y270394D01*
X163894Y271086D01*
X162989Y271461D01*
D02*
G37*
G36*
X162106D02*
X162011D01*
X161106Y271086D01*
X160414Y270394D01*
X160039Y269489D01*
Y269394D01*
X162106D01*
Y271461D01*
D02*
G37*
G36*
X152989D02*
X152894D01*
Y269394D01*
X154961D01*
Y269489D01*
X154586Y270394D01*
X153894Y271086D01*
X152989Y271461D01*
D02*
G37*
G36*
X152106D02*
X152011D01*
X151106Y271086D01*
X150414Y270394D01*
X150039Y269489D01*
Y269394D01*
X152106D01*
Y271461D01*
D02*
G37*
G36*
X142990D02*
X142894D01*
Y269394D01*
X144961D01*
Y269489D01*
X144586Y270394D01*
X143894Y271086D01*
X142990Y271461D01*
D02*
G37*
G36*
X142106D02*
X142010D01*
X141106Y271086D01*
X140414Y270394D01*
X140039Y269489D01*
Y269394D01*
X142106D01*
Y271461D01*
D02*
G37*
G36*
X132990D02*
X132894D01*
Y269394D01*
X134961D01*
Y269489D01*
X134586Y270394D01*
X133894Y271086D01*
X132990Y271461D01*
D02*
G37*
G36*
X132106D02*
X132010D01*
X131106Y271086D01*
X130414Y270394D01*
X130039Y269489D01*
Y269394D01*
X132106D01*
Y271461D01*
D02*
G37*
G36*
X122989D02*
X122894D01*
Y269394D01*
X124961D01*
Y269489D01*
X124586Y270394D01*
X123894Y271086D01*
X122989Y271461D01*
D02*
G37*
G36*
X122106D02*
X122011D01*
X121106Y271086D01*
X120414Y270394D01*
X120039Y269489D01*
Y269394D01*
X122106D01*
Y271461D01*
D02*
G37*
G36*
X112989D02*
X112894D01*
Y269394D01*
X114961D01*
Y269489D01*
X114586Y270394D01*
X113894Y271086D01*
X112989Y271461D01*
D02*
G37*
G36*
X112106D02*
X112011D01*
X111106Y271086D01*
X110414Y270394D01*
X110039Y269489D01*
Y269394D01*
X112106D01*
Y271461D01*
D02*
G37*
G36*
X102989D02*
X102894D01*
Y269394D01*
X104961D01*
Y269489D01*
X104586Y270394D01*
X103894Y271086D01*
X102989Y271461D01*
D02*
G37*
G36*
X102106D02*
X102011D01*
X101106Y271086D01*
X100414Y270394D01*
X100039Y269489D01*
Y269394D01*
X102106D01*
Y271461D01*
D02*
G37*
G36*
X255127Y282295D02*
X253829D01*
X252554Y282041D01*
X251354Y281544D01*
X250274Y280822D01*
X249356Y279904D01*
X248634Y278824D01*
X248137Y277624D01*
X247884Y276349D01*
Y275050D01*
X248137Y273777D01*
X248634Y272576D01*
X249356Y271496D01*
X250274Y270578D01*
X251354Y269856D01*
X252554Y269359D01*
X253829Y269106D01*
X255127D01*
X256401Y269359D01*
X257602Y269856D01*
X258682Y270578D01*
X259600Y271496D01*
X260322Y272576D01*
X260819Y273777D01*
X261072Y275050D01*
Y276349D01*
X260819Y277624D01*
X260322Y278824D01*
X259600Y279904D01*
X258682Y280822D01*
X257602Y281544D01*
X256401Y282041D01*
X255127Y282295D01*
D02*
G37*
G36*
X174961Y268606D02*
X172894D01*
Y266539D01*
X172989D01*
X173894Y266914D01*
X174586Y267606D01*
X174961Y268511D01*
Y268606D01*
D02*
G37*
G36*
X172106D02*
X170039D01*
Y268511D01*
X170414Y267606D01*
X171106Y266914D01*
X172011Y266539D01*
X172106D01*
Y268606D01*
D02*
G37*
G36*
X164961D02*
X162894D01*
Y266539D01*
X162989D01*
X163894Y266914D01*
X164586Y267606D01*
X164961Y268511D01*
Y268606D01*
D02*
G37*
G36*
X162106D02*
X160039D01*
Y268511D01*
X160414Y267606D01*
X161106Y266914D01*
X162011Y266539D01*
X162106D01*
Y268606D01*
D02*
G37*
G36*
X154961D02*
X152894D01*
Y266539D01*
X152989D01*
X153894Y266914D01*
X154586Y267606D01*
X154961Y268511D01*
Y268606D01*
D02*
G37*
G36*
X152106D02*
X150039D01*
Y268511D01*
X150414Y267606D01*
X151106Y266914D01*
X152011Y266539D01*
X152106D01*
Y268606D01*
D02*
G37*
G36*
X144961D02*
X142894D01*
Y266539D01*
X142990D01*
X143894Y266914D01*
X144586Y267606D01*
X144961Y268511D01*
Y268606D01*
D02*
G37*
G36*
X142106D02*
X140039D01*
Y268511D01*
X140414Y267606D01*
X141106Y266914D01*
X142010Y266539D01*
X142106D01*
Y268606D01*
D02*
G37*
G36*
X134961D02*
X132894D01*
Y266539D01*
X132990D01*
X133894Y266914D01*
X134586Y267606D01*
X134961Y268511D01*
Y268606D01*
D02*
G37*
G36*
X132106D02*
X130039D01*
Y268511D01*
X130414Y267606D01*
X131106Y266914D01*
X132010Y266539D01*
X132106D01*
Y268606D01*
D02*
G37*
G36*
X124961D02*
X122894D01*
Y266539D01*
X122989D01*
X123894Y266914D01*
X124586Y267606D01*
X124961Y268511D01*
Y268606D01*
D02*
G37*
G36*
X122106D02*
X120039D01*
Y268511D01*
X120414Y267606D01*
X121106Y266914D01*
X122011Y266539D01*
X122106D01*
Y268606D01*
D02*
G37*
G36*
X114961D02*
X112894D01*
Y266539D01*
X112989D01*
X113894Y266914D01*
X114586Y267606D01*
X114961Y268511D01*
Y268606D01*
D02*
G37*
G36*
X112106D02*
X110039D01*
Y268511D01*
X110414Y267606D01*
X111106Y266914D01*
X112011Y266539D01*
X112106D01*
Y268606D01*
D02*
G37*
G36*
X104961D02*
X102894D01*
Y266539D01*
X102989D01*
X103894Y266914D01*
X104586Y267606D01*
X104961Y268511D01*
Y268606D01*
D02*
G37*
G36*
X102106D02*
X100039D01*
Y268511D01*
X100414Y267606D01*
X101106Y266914D01*
X102011Y266539D01*
X102106D01*
Y268606D01*
D02*
G37*
G36*
X237964Y273545D02*
X236976D01*
X236023Y273289D01*
X235168Y272795D01*
X234469Y272097D01*
X233976Y271242D01*
X233720Y270288D01*
Y269301D01*
X233976Y268347D01*
X234469Y267492D01*
X235168Y266794D01*
X236023Y266300D01*
X236976Y266044D01*
X237964D01*
X238917Y266300D01*
X239773Y266794D01*
X240471Y267492D01*
X240965Y268347D01*
X241220Y269301D01*
Y270288D01*
X240965Y271242D01*
X240471Y272097D01*
X239773Y272795D01*
X238917Y273289D01*
X237964Y273545D01*
D02*
G37*
G36*
X20950Y268264D02*
X20050D01*
X19218Y267919D01*
X18581Y267282D01*
X18236Y266450D01*
Y265550D01*
X18581Y264718D01*
X19218Y264081D01*
X20050Y263736D01*
X20950D01*
X21782Y264081D01*
X22419Y264718D01*
X22764Y265550D01*
Y266450D01*
X22419Y267282D01*
X21782Y267919D01*
X20950Y268264D01*
D02*
G37*
G36*
X78950Y273264D02*
X78050D01*
X77218Y272919D01*
X76581Y272282D01*
X76236Y271450D01*
Y270550D01*
X76581Y269718D01*
X76623Y269675D01*
Y264325D01*
X76581Y264282D01*
X76236Y263450D01*
Y262550D01*
X76581Y261718D01*
X77218Y261081D01*
X78050Y260736D01*
X78950D01*
X79782Y261081D01*
X80419Y261718D01*
X80764Y262550D01*
Y263450D01*
X80419Y264282D01*
X80377Y264325D01*
Y269675D01*
X80419Y269718D01*
X80764Y270550D01*
Y271450D01*
X80419Y272282D01*
X79782Y272919D01*
X78950Y273264D01*
D02*
G37*
G36*
X127950Y260264D02*
X127050D01*
X126218Y259919D01*
X125581Y259282D01*
X125236Y258450D01*
Y257550D01*
X125581Y256718D01*
X126218Y256081D01*
X127050Y255736D01*
X127950D01*
X128782Y256081D01*
X129419Y256718D01*
X129764Y257550D01*
Y258450D01*
X129419Y259282D01*
X128782Y259919D01*
X127950Y260264D01*
D02*
G37*
G36*
X117950Y256764D02*
X117050D01*
X116218Y256419D01*
X115581Y255782D01*
X115236Y254950D01*
Y254050D01*
X115581Y253218D01*
X116218Y252581D01*
X117050Y252236D01*
X117950D01*
X118782Y252581D01*
X119419Y253218D01*
X119764Y254050D01*
Y254950D01*
X119419Y255782D01*
X118782Y256419D01*
X117950Y256764D01*
D02*
G37*
G36*
X107950Y253400D02*
X107050D01*
X106218Y253055D01*
X105581Y252419D01*
X105236Y251587D01*
Y250686D01*
X105581Y249854D01*
X106218Y249217D01*
X107050Y248872D01*
X107950D01*
X108782Y249217D01*
X109419Y249854D01*
X109764Y250686D01*
Y251587D01*
X109419Y252419D01*
X108782Y253055D01*
X107950Y253400D01*
D02*
G37*
G36*
X127950Y252764D02*
X127050D01*
X126218Y252419D01*
X125581Y251782D01*
X125236Y250950D01*
Y250050D01*
X125581Y249218D01*
X126218Y248581D01*
X127050Y248236D01*
X127950D01*
X128782Y248581D01*
X129419Y249218D01*
X129764Y250050D01*
Y250950D01*
X129419Y251782D01*
X128782Y252419D01*
X127950Y252764D01*
D02*
G37*
G36*
X157950Y252264D02*
X157050D01*
X156218Y251919D01*
X155581Y251282D01*
X155236Y250450D01*
Y249550D01*
X155581Y248718D01*
X156218Y248081D01*
X157050Y247736D01*
X157950D01*
X158782Y248081D01*
X159419Y248718D01*
X159764Y249550D01*
Y250450D01*
X159419Y251282D01*
X158782Y251919D01*
X157950Y252264D01*
D02*
G37*
G36*
X147950D02*
X147050D01*
X146218Y251919D01*
X145581Y251282D01*
X145236Y250450D01*
Y249550D01*
X145581Y248718D01*
X146218Y248081D01*
X147050Y247736D01*
X147950D01*
X148782Y248081D01*
X149419Y248718D01*
X149764Y249550D01*
Y250450D01*
X149419Y251282D01*
X148782Y251919D01*
X147950Y252264D01*
D02*
G37*
G36*
X137950D02*
X137050D01*
X136218Y251919D01*
X135581Y251282D01*
X135236Y250450D01*
Y249550D01*
X135581Y248718D01*
X136218Y248081D01*
X137050Y247736D01*
X137950D01*
X138782Y248081D01*
X139419Y248718D01*
X139764Y249550D01*
Y250450D01*
X139419Y251282D01*
X138782Y251919D01*
X137950Y252264D01*
D02*
G37*
G36*
X117681Y251456D02*
X116780D01*
X115948Y251111D01*
X115311Y250474D01*
X114966Y249642D01*
Y248742D01*
X115311Y247909D01*
X115948Y247273D01*
X116780Y246928D01*
X117681D01*
X118513Y247273D01*
X119149Y247909D01*
X119494Y248742D01*
Y249642D01*
X119149Y250474D01*
X118513Y251111D01*
X117681Y251456D01*
D02*
G37*
G36*
X94950Y249764D02*
X94050D01*
X93218Y249419D01*
X92581Y248782D01*
X92236Y247950D01*
Y247050D01*
X92581Y246218D01*
X93218Y245581D01*
X94050Y245236D01*
X94950D01*
X95782Y245581D01*
X96419Y246218D01*
X96764Y247050D01*
Y247950D01*
X96419Y248782D01*
X95782Y249419D01*
X94950Y249764D01*
D02*
G37*
G36*
X258450Y245264D02*
X257550D01*
X256718Y244919D01*
X256081Y244282D01*
X255736Y243450D01*
Y242550D01*
X256081Y241718D01*
X256718Y241081D01*
X257550Y240736D01*
X258450D01*
X259282Y241081D01*
X259919Y241718D01*
X260264Y242550D01*
Y243450D01*
X259919Y244282D01*
X259282Y244919D01*
X258450Y245264D01*
D02*
G37*
G36*
X111450Y243764D02*
X110550D01*
X109718Y243419D01*
X109081Y242782D01*
X108736Y241950D01*
Y241050D01*
X109081Y240218D01*
X109718Y239581D01*
X110550Y239236D01*
X111450D01*
X112282Y239581D01*
X112919Y240218D01*
X113264Y241050D01*
Y241950D01*
X112919Y242782D01*
X112282Y243419D01*
X111450Y243764D01*
D02*
G37*
G36*
X80941Y241652D02*
X80041D01*
X79209Y241307D01*
X78572Y240670D01*
X78227Y239838D01*
Y238938D01*
X78572Y238106D01*
X79209Y237469D01*
X80041Y237124D01*
X80941D01*
X81773Y237469D01*
X82410Y238106D01*
X82755Y238938D01*
Y239838D01*
X82410Y240670D01*
X81773Y241307D01*
X80941Y241652D01*
D02*
G37*
G36*
X233825Y251476D02*
X231765D01*
X229730Y251154D01*
X227770Y250517D01*
X225934Y249582D01*
X224267Y248371D01*
X222810Y246914D01*
X221599Y245247D01*
X220664Y243411D01*
X220027Y241451D01*
X219705Y239416D01*
Y237356D01*
X220027Y235320D01*
X220664Y233361D01*
X221599Y231525D01*
X222810Y229858D01*
X224267Y228401D01*
X225934Y227190D01*
X227770Y226254D01*
X229730Y225618D01*
X231765Y225295D01*
X233825D01*
X235861Y225618D01*
X237820Y226254D01*
X239656Y227190D01*
X241323Y228401D01*
X242780Y229858D01*
X243991Y231525D01*
X244927Y233361D01*
X245564Y235320D01*
X245886Y237356D01*
Y239416D01*
X245564Y241451D01*
X244927Y243411D01*
X243991Y245247D01*
X242780Y246914D01*
X241323Y248371D01*
X239656Y249582D01*
X237820Y250517D01*
X235861Y251154D01*
X233825Y251476D01*
D02*
G37*
G36*
X263223Y231634D02*
X262368D01*
X261542Y231413D01*
X260801Y230985D01*
X260196Y230380D01*
X259769Y229640D01*
X259547Y228813D01*
Y227958D01*
X259769Y227132D01*
X260196Y226392D01*
X260801Y225787D01*
X261542Y225359D01*
X262368Y225138D01*
X263223D01*
X264049Y225359D01*
X264790Y225787D01*
X265394Y226392D01*
X265822Y227132D01*
X266043Y227958D01*
Y228813D01*
X265822Y229640D01*
X265394Y230380D01*
X264790Y230985D01*
X264049Y231413D01*
X263223Y231634D01*
D02*
G37*
G36*
X256043D02*
X249547D01*
Y225138D01*
X256043D01*
Y231634D01*
D02*
G37*
G36*
X23223D02*
X22368D01*
X21542Y231413D01*
X20801Y230985D01*
X20196Y230380D01*
X19769Y229640D01*
X19547Y228813D01*
Y227958D01*
X19769Y227132D01*
X20196Y226392D01*
X20801Y225787D01*
X21542Y225359D01*
X22368Y225138D01*
X23223D01*
X24049Y225359D01*
X24790Y225787D01*
X25394Y226392D01*
X25822Y227132D01*
X26043Y227958D01*
Y228813D01*
X25822Y229640D01*
X25394Y230380D01*
X24790Y230985D01*
X24049Y231413D01*
X23223Y231634D01*
D02*
G37*
G36*
X16043D02*
X9547D01*
Y225138D01*
X16043D01*
Y231634D01*
D02*
G37*
G36*
X96489Y224961D02*
X96394D01*
Y222894D01*
X98461D01*
Y222989D01*
X98086Y223894D01*
X97394Y224586D01*
X96489Y224961D01*
D02*
G37*
G36*
X95606D02*
X95511D01*
X94606Y224586D01*
X93914Y223894D01*
X93539Y222989D01*
Y222894D01*
X95606D01*
Y224961D01*
D02*
G37*
G36*
X181450Y225264D02*
X180550D01*
X179718Y224919D01*
X179081Y224282D01*
X178736Y223450D01*
Y222550D01*
X179081Y221718D01*
X179718Y221081D01*
X180550Y220736D01*
X181450D01*
X182282Y221081D01*
X182919Y221718D01*
X183264Y222550D01*
Y223450D01*
X182919Y224282D01*
X182282Y224919D01*
X181450Y225264D01*
D02*
G37*
G36*
X117950Y224764D02*
X117050D01*
X116218Y224419D01*
X115581Y223782D01*
X115236Y222950D01*
Y222050D01*
X115581Y221218D01*
X116218Y220581D01*
X117050Y220236D01*
X117950D01*
X118782Y220581D01*
X119419Y221218D01*
X119764Y222050D01*
Y222950D01*
X119419Y223782D01*
X118782Y224419D01*
X117950Y224764D01*
D02*
G37*
G36*
X62450D02*
X61550D01*
X60718Y224419D01*
X60081Y223782D01*
X59736Y222950D01*
Y222050D01*
X60081Y221218D01*
X60718Y220581D01*
X61550Y220236D01*
X62450D01*
X63282Y220581D01*
X63919Y221218D01*
X64264Y222050D01*
Y222950D01*
X63919Y223782D01*
X63282Y224419D01*
X62450Y224764D01*
D02*
G37*
G36*
X98461Y222106D02*
X96394D01*
Y220039D01*
X96489D01*
X97394Y220414D01*
X98086Y221106D01*
X98461Y222011D01*
Y222106D01*
D02*
G37*
G36*
X95606D02*
X93539D01*
Y222011D01*
X93914Y221106D01*
X94606Y220414D01*
X95511Y220039D01*
X95606D01*
Y222106D01*
D02*
G37*
G36*
X163450Y224264D02*
X162550D01*
X161718Y223919D01*
X161081Y223282D01*
X160736Y222450D01*
Y221550D01*
X161081Y220718D01*
X161718Y220081D01*
X162550Y219736D01*
X163450D01*
X164282Y220081D01*
X164919Y220718D01*
X165264Y221550D01*
Y222450D01*
X164919Y223282D01*
X164282Y223919D01*
X163450Y224264D01*
D02*
G37*
G36*
X237950Y223264D02*
X237050D01*
X236218Y222919D01*
X235581Y222282D01*
X235236Y221450D01*
Y220550D01*
X235581Y219718D01*
X236218Y219081D01*
X237050Y218736D01*
X237950D01*
X238782Y219081D01*
X239419Y219718D01*
X239764Y220550D01*
Y221450D01*
X239419Y222282D01*
X238782Y222919D01*
X237950Y223264D01*
D02*
G37*
G36*
X237989Y218146D02*
X237894D01*
Y216079D01*
X239961D01*
Y216175D01*
X239586Y217079D01*
X238894Y217771D01*
X237989Y218146D01*
D02*
G37*
G36*
X237106D02*
X237011D01*
X236106Y217771D01*
X235414Y217079D01*
X235039Y216175D01*
Y216079D01*
X237106D01*
Y218146D01*
D02*
G37*
G36*
X263223Y221634D02*
X262368D01*
X261542Y221412D01*
X260801Y220985D01*
X260196Y220380D01*
X259769Y219639D01*
X259547Y218813D01*
Y217958D01*
X259769Y217132D01*
X260196Y216391D01*
X260801Y215787D01*
X261542Y215359D01*
X262368Y215138D01*
X263223D01*
X264049Y215359D01*
X264790Y215787D01*
X265394Y216391D01*
X265822Y217132D01*
X266043Y217958D01*
Y218813D01*
X265822Y219639D01*
X265394Y220380D01*
X264790Y220985D01*
X264049Y221412D01*
X263223Y221634D01*
D02*
G37*
G36*
X253223D02*
X252368D01*
X251542Y221412D01*
X250801Y220985D01*
X250196Y220380D01*
X249769Y219639D01*
X249547Y218813D01*
Y217958D01*
X249769Y217132D01*
X250196Y216391D01*
X250801Y215787D01*
X251542Y215359D01*
X252368Y215138D01*
X253223D01*
X254049Y215359D01*
X254790Y215787D01*
X255394Y216391D01*
X255822Y217132D01*
X256043Y217958D01*
Y218813D01*
X255822Y219639D01*
X255394Y220380D01*
X254790Y220985D01*
X254049Y221412D01*
X253223Y221634D01*
D02*
G37*
G36*
X23223D02*
X22368D01*
X21542Y221412D01*
X20801Y220985D01*
X20196Y220380D01*
X19769Y219639D01*
X19547Y218813D01*
Y217958D01*
X19769Y217132D01*
X20196Y216391D01*
X20801Y215787D01*
X21542Y215359D01*
X22368Y215138D01*
X23223D01*
X24049Y215359D01*
X24790Y215787D01*
X25394Y216391D01*
X25822Y217132D01*
X26043Y217958D01*
Y218813D01*
X25822Y219639D01*
X25394Y220380D01*
X24790Y220985D01*
X24049Y221412D01*
X23223Y221634D01*
D02*
G37*
G36*
X13223D02*
X12368D01*
X11542Y221412D01*
X10801Y220985D01*
X10196Y220380D01*
X9769Y219639D01*
X9547Y218813D01*
Y217958D01*
X9769Y217132D01*
X10196Y216391D01*
X10801Y215787D01*
X11542Y215359D01*
X12368Y215138D01*
X13223D01*
X14049Y215359D01*
X14790Y215787D01*
X15394Y216391D01*
X15822Y217132D01*
X16043Y217958D01*
Y218813D01*
X15822Y219639D01*
X15394Y220380D01*
X14790Y220985D01*
X14049Y221412D01*
X13223Y221634D01*
D02*
G37*
G36*
X62450Y219264D02*
X61550D01*
X60718Y218919D01*
X60081Y218282D01*
X59736Y217450D01*
Y216550D01*
X60081Y215718D01*
X60718Y215081D01*
X61550Y214736D01*
X62450D01*
X63282Y215081D01*
X63919Y215718D01*
X64264Y216550D01*
Y217450D01*
X63919Y218282D01*
X63282Y218919D01*
X62450Y219264D01*
D02*
G37*
G36*
X239961Y215291D02*
X235039D01*
Y215196D01*
X235414Y214291D01*
X236106Y213599D01*
X236122Y213593D01*
Y213092D01*
X236106Y213086D01*
X235414Y212394D01*
X235039Y211489D01*
Y211394D01*
X239961D01*
Y211489D01*
X239586Y212394D01*
X238894Y213086D01*
X238878Y213092D01*
Y213593D01*
X238894Y213599D01*
X239586Y214291D01*
X239961Y215196D01*
Y215291D01*
D02*
G37*
G36*
X101950Y213764D02*
X101050D01*
X100218Y213419D01*
X99581Y212782D01*
X99236Y211950D01*
Y211050D01*
X99581Y210218D01*
X100218Y209581D01*
X101050Y209236D01*
X101950D01*
X102782Y209581D01*
X103419Y210218D01*
X103764Y211050D01*
Y211950D01*
X103419Y212782D01*
X102782Y213419D01*
X101950Y213764D01*
D02*
G37*
G36*
X239961Y210606D02*
X237894D01*
Y208539D01*
X237989D01*
X238894Y208914D01*
X239586Y209606D01*
X239961Y210511D01*
Y210606D01*
D02*
G37*
G36*
X237106D02*
X235039D01*
Y210511D01*
X235414Y209606D01*
X236106Y208914D01*
X237011Y208539D01*
X237106D01*
Y210606D01*
D02*
G37*
G36*
X263223Y211634D02*
X262368D01*
X261542Y211413D01*
X260801Y210985D01*
X260196Y210380D01*
X259769Y209640D01*
X259547Y208813D01*
Y207958D01*
X259769Y207132D01*
X260196Y206392D01*
X260801Y205787D01*
X261542Y205359D01*
X262368Y205138D01*
X263223D01*
X264049Y205359D01*
X264790Y205787D01*
X265394Y206392D01*
X265822Y207132D01*
X266043Y207958D01*
Y208813D01*
X265822Y209640D01*
X265394Y210380D01*
X264790Y210985D01*
X264049Y211413D01*
X263223Y211634D01*
D02*
G37*
G36*
X253223D02*
X252368D01*
X251542Y211413D01*
X250801Y210985D01*
X250196Y210380D01*
X249769Y209640D01*
X249547Y208813D01*
Y207958D01*
X249769Y207132D01*
X250196Y206392D01*
X250801Y205787D01*
X251542Y205359D01*
X252368Y205138D01*
X253223D01*
X254049Y205359D01*
X254790Y205787D01*
X255394Y206392D01*
X255822Y207132D01*
X256043Y207958D01*
Y208813D01*
X255822Y209640D01*
X255394Y210380D01*
X254790Y210985D01*
X254049Y211413D01*
X253223Y211634D01*
D02*
G37*
G36*
X23223D02*
X22368D01*
X21542Y211413D01*
X20801Y210985D01*
X20196Y210380D01*
X19769Y209640D01*
X19547Y208813D01*
Y207958D01*
X19769Y207132D01*
X20196Y206392D01*
X20801Y205787D01*
X21542Y205359D01*
X22368Y205138D01*
X23223D01*
X24049Y205359D01*
X24790Y205787D01*
X25394Y206392D01*
X25822Y207132D01*
X26043Y207958D01*
Y208813D01*
X25822Y209640D01*
X25394Y210380D01*
X24790Y210985D01*
X24049Y211413D01*
X23223Y211634D01*
D02*
G37*
G36*
X13223D02*
X12368D01*
X11542Y211413D01*
X10801Y210985D01*
X10196Y210380D01*
X9769Y209640D01*
X9547Y208813D01*
Y207958D01*
X9769Y207132D01*
X10196Y206392D01*
X10801Y205787D01*
X11542Y205359D01*
X12368Y205138D01*
X13223D01*
X14049Y205359D01*
X14790Y205787D01*
X15394Y206392D01*
X15822Y207132D01*
X16043Y207958D01*
Y208813D01*
X15822Y209640D01*
X15394Y210380D01*
X14790Y210985D01*
X14049Y211413D01*
X13223Y211634D01*
D02*
G37*
G36*
X170950Y207264D02*
X170050D01*
X169218Y206919D01*
X168581Y206282D01*
X168236Y205450D01*
Y204550D01*
X168581Y203718D01*
X169218Y203081D01*
X170050Y202736D01*
X170950D01*
X171782Y203081D01*
X172419Y203718D01*
X172764Y204550D01*
Y205450D01*
X172419Y206282D01*
X171782Y206919D01*
X170950Y207264D01*
D02*
G37*
G36*
X212950Y205264D02*
X212050D01*
X211218Y204919D01*
X210581Y204282D01*
X210236Y203450D01*
Y202550D01*
X210581Y201718D01*
X211218Y201081D01*
X212050Y200736D01*
X212950D01*
X213782Y201081D01*
X214419Y201718D01*
X214764Y202550D01*
Y203450D01*
X214419Y204282D01*
X213782Y204919D01*
X212950Y205264D01*
D02*
G37*
G36*
X44450Y204264D02*
X43550D01*
X42718Y203919D01*
X42081Y203282D01*
X41736Y202450D01*
Y201550D01*
X42081Y200718D01*
X42718Y200081D01*
X43550Y199736D01*
X44450D01*
X45282Y200081D01*
X45919Y200718D01*
X46264Y201550D01*
Y202450D01*
X45919Y203282D01*
X45282Y203919D01*
X44450Y204264D01*
D02*
G37*
G36*
X158450Y203264D02*
X157550D01*
X156718Y202919D01*
X156081Y202282D01*
X155736Y201450D01*
Y200550D01*
X156081Y199718D01*
X156718Y199081D01*
X157550Y198736D01*
X158450D01*
X159282Y199081D01*
X159919Y199718D01*
X160264Y200550D01*
Y201450D01*
X159919Y202282D01*
X159282Y202919D01*
X158450Y203264D01*
D02*
G37*
G36*
X263223Y201634D02*
X262368D01*
X261542Y201413D01*
X260801Y200985D01*
X260196Y200380D01*
X259769Y199639D01*
X259547Y198813D01*
Y197958D01*
X259769Y197132D01*
X260196Y196391D01*
X260801Y195787D01*
X261542Y195359D01*
X262368Y195138D01*
X263223D01*
X264049Y195359D01*
X264790Y195787D01*
X265394Y196391D01*
X265822Y197132D01*
X266043Y197958D01*
Y198813D01*
X265822Y199639D01*
X265394Y200380D01*
X264790Y200985D01*
X264049Y201413D01*
X263223Y201634D01*
D02*
G37*
G36*
X253223D02*
X252368D01*
X251542Y201413D01*
X250801Y200985D01*
X250196Y200380D01*
X249769Y199639D01*
X249547Y198813D01*
Y197958D01*
X249769Y197132D01*
X250196Y196391D01*
X250801Y195787D01*
X251542Y195359D01*
X252368Y195138D01*
X253223D01*
X254049Y195359D01*
X254790Y195787D01*
X255394Y196391D01*
X255822Y197132D01*
X256043Y197958D01*
Y198813D01*
X255822Y199639D01*
X255394Y200380D01*
X254790Y200985D01*
X254049Y201413D01*
X253223Y201634D01*
D02*
G37*
G36*
X23223D02*
X22368D01*
X21542Y201413D01*
X20801Y200985D01*
X20196Y200380D01*
X19769Y199639D01*
X19547Y198813D01*
Y197958D01*
X19769Y197132D01*
X20196Y196391D01*
X20801Y195787D01*
X21542Y195359D01*
X22368Y195138D01*
X23223D01*
X24049Y195359D01*
X24790Y195787D01*
X25394Y196391D01*
X25822Y197132D01*
X26043Y197958D01*
Y198813D01*
X25822Y199639D01*
X25394Y200380D01*
X24790Y200985D01*
X24049Y201413D01*
X23223Y201634D01*
D02*
G37*
G36*
X13223D02*
X12368D01*
X11542Y201413D01*
X10801Y200985D01*
X10196Y200380D01*
X9769Y199639D01*
X9547Y198813D01*
Y197958D01*
X9769Y197132D01*
X10196Y196391D01*
X10801Y195787D01*
X11542Y195359D01*
X12368Y195138D01*
X13223D01*
X14049Y195359D01*
X14790Y195787D01*
X15394Y196391D01*
X15822Y197132D01*
X16043Y197958D01*
Y198813D01*
X15822Y199639D01*
X15394Y200380D01*
X14790Y200985D01*
X14049Y201413D01*
X13223Y201634D01*
D02*
G37*
G36*
X176989Y196961D02*
X176894D01*
Y194894D01*
X178961D01*
Y194990D01*
X178586Y195894D01*
X177894Y196586D01*
X176989Y196961D01*
D02*
G37*
G36*
X176106D02*
X176011D01*
X175106Y196586D01*
X174414Y195894D01*
X174039Y194990D01*
Y194894D01*
X176106D01*
Y196961D01*
D02*
G37*
G36*
X178961Y194106D02*
X176894D01*
Y192039D01*
X176989D01*
X177894Y192414D01*
X178586Y193106D01*
X178961Y194010D01*
Y194106D01*
D02*
G37*
G36*
X176106D02*
X174039D01*
Y194010D01*
X174414Y193106D01*
X175106Y192414D01*
X176011Y192039D01*
X176106D01*
Y194106D01*
D02*
G37*
G36*
X168490Y189961D02*
X168394D01*
Y187894D01*
X170461D01*
Y187989D01*
X170086Y188894D01*
X169394Y189586D01*
X168490Y189961D01*
D02*
G37*
G36*
X167606D02*
X167510D01*
X166606Y189586D01*
X165914Y188894D01*
X165539Y187989D01*
Y187894D01*
X167606D01*
Y189961D01*
D02*
G37*
G36*
X263223Y191634D02*
X262368D01*
X261542Y191412D01*
X260801Y190985D01*
X260196Y190380D01*
X259769Y189639D01*
X259547Y188813D01*
Y187958D01*
X259769Y187132D01*
X260196Y186391D01*
X260801Y185787D01*
X261542Y185359D01*
X262368Y185138D01*
X263223D01*
X264049Y185359D01*
X264790Y185787D01*
X265394Y186391D01*
X265822Y187132D01*
X266043Y187958D01*
Y188813D01*
X265822Y189639D01*
X265394Y190380D01*
X264790Y190985D01*
X264049Y191412D01*
X263223Y191634D01*
D02*
G37*
G36*
X253223D02*
X252368D01*
X251542Y191412D01*
X250801Y190985D01*
X250196Y190380D01*
X249769Y189639D01*
X249547Y188813D01*
Y187958D01*
X249769Y187132D01*
X250196Y186391D01*
X250801Y185787D01*
X251542Y185359D01*
X252368Y185138D01*
X253223D01*
X254049Y185359D01*
X254790Y185787D01*
X255394Y186391D01*
X255822Y187132D01*
X256043Y187958D01*
Y188813D01*
X255822Y189639D01*
X255394Y190380D01*
X254790Y190985D01*
X254049Y191412D01*
X253223Y191634D01*
D02*
G37*
G36*
X23223D02*
X22368D01*
X21542Y191412D01*
X20801Y190985D01*
X20196Y190380D01*
X19769Y189639D01*
X19547Y188813D01*
Y187958D01*
X19769Y187132D01*
X20196Y186391D01*
X20801Y185787D01*
X21542Y185359D01*
X22368Y185138D01*
X23223D01*
X24049Y185359D01*
X24790Y185787D01*
X25394Y186391D01*
X25822Y187132D01*
X26043Y187958D01*
Y188813D01*
X25822Y189639D01*
X25394Y190380D01*
X24790Y190985D01*
X24049Y191412D01*
X23223Y191634D01*
D02*
G37*
G36*
X13223D02*
X12368D01*
X11542Y191412D01*
X10801Y190985D01*
X10196Y190380D01*
X9769Y189639D01*
X9547Y188813D01*
Y187958D01*
X9769Y187132D01*
X10196Y186391D01*
X10801Y185787D01*
X11542Y185359D01*
X12368Y185138D01*
X13223D01*
X14049Y185359D01*
X14790Y185787D01*
X15394Y186391D01*
X15822Y187132D01*
X16043Y187958D01*
Y188813D01*
X15822Y189639D01*
X15394Y190380D01*
X14790Y190985D01*
X14049Y191412D01*
X13223Y191634D01*
D02*
G37*
G36*
X170461Y187106D02*
X168394D01*
Y185039D01*
X168490D01*
X169394Y185414D01*
X170086Y186106D01*
X170461Y187011D01*
Y187106D01*
D02*
G37*
G36*
X167606D02*
X165539D01*
Y187011D01*
X165914Y186106D01*
X166606Y185414D01*
X167510Y185039D01*
X167606D01*
Y187106D01*
D02*
G37*
G36*
X236950Y186764D02*
X236050D01*
X235218Y186419D01*
X234581Y185782D01*
X234236Y184950D01*
Y184050D01*
X234581Y183218D01*
X235218Y182581D01*
X236050Y182236D01*
X236950D01*
X237782Y182581D01*
X238419Y183218D01*
X238764Y184050D01*
Y184950D01*
X238419Y185782D01*
X237782Y186419D01*
X236950Y186764D01*
D02*
G37*
G36*
X77837Y206516D02*
X75777D01*
X73742Y206193D01*
X71782Y205557D01*
X69946Y204621D01*
X68279Y203410D01*
X66822Y201953D01*
X65611Y200286D01*
X64676Y198450D01*
X64039Y196491D01*
X63717Y194455D01*
Y192395D01*
X64039Y190360D01*
X64676Y188400D01*
X65611Y186564D01*
X66822Y184897D01*
X68279Y183440D01*
X69946Y182229D01*
X71782Y181294D01*
X73742Y180657D01*
X75777Y180335D01*
X77837D01*
X79873Y180657D01*
X81832Y181294D01*
X83668Y182229D01*
X85335Y183440D01*
X86792Y184897D01*
X88003Y186564D01*
X88939Y188400D01*
X89575Y190360D01*
X89898Y192395D01*
Y194455D01*
X89575Y196491D01*
X88939Y198450D01*
X88003Y200286D01*
X86792Y201953D01*
X85335Y203410D01*
X83668Y204621D01*
X81832Y205557D01*
X79873Y206193D01*
X77837Y206516D01*
D02*
G37*
G36*
X263223Y181634D02*
X262368D01*
X261542Y181412D01*
X260801Y180985D01*
X260196Y180380D01*
X259769Y179639D01*
X259547Y178813D01*
Y177958D01*
X259769Y177132D01*
X260196Y176391D01*
X260801Y175787D01*
X261542Y175359D01*
X262368Y175138D01*
X263223D01*
X264049Y175359D01*
X264790Y175787D01*
X265394Y176391D01*
X265822Y177132D01*
X266043Y177958D01*
Y178813D01*
X265822Y179639D01*
X265394Y180380D01*
X264790Y180985D01*
X264049Y181412D01*
X263223Y181634D01*
D02*
G37*
G36*
X253223D02*
X252368D01*
X251542Y181412D01*
X250801Y180985D01*
X250196Y180380D01*
X249769Y179639D01*
X249547Y178813D01*
Y177958D01*
X249769Y177132D01*
X250196Y176391D01*
X250801Y175787D01*
X251542Y175359D01*
X252368Y175138D01*
X253223D01*
X254049Y175359D01*
X254790Y175787D01*
X255394Y176391D01*
X255822Y177132D01*
X256043Y177958D01*
Y178813D01*
X255822Y179639D01*
X255394Y180380D01*
X254790Y180985D01*
X254049Y181412D01*
X253223Y181634D01*
D02*
G37*
G36*
X23223D02*
X22368D01*
X21542Y181412D01*
X20801Y180985D01*
X20196Y180380D01*
X19769Y179639D01*
X19547Y178813D01*
Y177958D01*
X19769Y177132D01*
X20196Y176391D01*
X20801Y175787D01*
X21542Y175359D01*
X22368Y175138D01*
X23223D01*
X24049Y175359D01*
X24790Y175787D01*
X25394Y176391D01*
X25822Y177132D01*
X26043Y177958D01*
Y178813D01*
X25822Y179639D01*
X25394Y180380D01*
X24790Y180985D01*
X24049Y181412D01*
X23223Y181634D01*
D02*
G37*
G36*
X13223D02*
X12368D01*
X11542Y181412D01*
X10801Y180985D01*
X10196Y180380D01*
X9769Y179639D01*
X9547Y178813D01*
Y177958D01*
X9769Y177132D01*
X10196Y176391D01*
X10801Y175787D01*
X11542Y175359D01*
X12368Y175138D01*
X13223D01*
X14049Y175359D01*
X14790Y175787D01*
X15394Y176391D01*
X15822Y177132D01*
X16043Y177958D01*
Y178813D01*
X15822Y179639D01*
X15394Y180380D01*
X14790Y180985D01*
X14049Y181412D01*
X13223Y181634D01*
D02*
G37*
G36*
X236950Y175764D02*
X236050D01*
X235218Y175419D01*
X234581Y174782D01*
X234236Y173950D01*
Y173050D01*
X234581Y172218D01*
X235218Y171581D01*
X236050Y171236D01*
X236950D01*
X237782Y171581D01*
X238419Y172218D01*
X238764Y173050D01*
Y173950D01*
X238419Y174782D01*
X237782Y175419D01*
X236950Y175764D01*
D02*
G37*
G36*
X187040Y174853D02*
X186139D01*
X185307Y174508D01*
X184670Y173872D01*
X184326Y173040D01*
Y172139D01*
X184670Y171307D01*
X185307Y170670D01*
X186139Y170326D01*
X187040D01*
X187872Y170670D01*
X188508Y171307D01*
X188853Y172139D01*
Y173040D01*
X188508Y173872D01*
X187872Y174508D01*
X187040Y174853D01*
D02*
G37*
G36*
X145787Y173868D02*
X144887D01*
X144055Y173523D01*
X143418Y172886D01*
X143073Y172054D01*
Y171154D01*
X143418Y170322D01*
X144055Y169685D01*
X144887Y169340D01*
X145787D01*
X146619Y169685D01*
X147256Y170322D01*
X147601Y171154D01*
Y172054D01*
X147256Y172886D01*
X146619Y173523D01*
X145787Y173868D01*
D02*
G37*
G36*
X116450Y172764D02*
X115550D01*
X114718Y172419D01*
X114081Y171782D01*
X113736Y170950D01*
Y170050D01*
X114081Y169218D01*
X114718Y168581D01*
X115550Y168236D01*
X116450D01*
X117282Y168581D01*
X117919Y169218D01*
X118264Y170050D01*
Y170950D01*
X117919Y171782D01*
X117282Y172419D01*
X116450Y172764D01*
D02*
G37*
G36*
X151450Y170264D02*
X150550D01*
X149718Y169919D01*
X149081Y169282D01*
X148736Y168450D01*
Y167550D01*
X149081Y166718D01*
X149718Y166081D01*
X150550Y165736D01*
X151450D01*
X152282Y166081D01*
X152919Y166718D01*
X153264Y167550D01*
Y168450D01*
X152919Y169282D01*
X152282Y169919D01*
X151450Y170264D01*
D02*
G37*
G36*
X263223Y171634D02*
X262368D01*
X261542Y171413D01*
X260801Y170985D01*
X260196Y170380D01*
X259769Y169640D01*
X259547Y168813D01*
Y167958D01*
X259769Y167132D01*
X260196Y166392D01*
X260801Y165787D01*
X261542Y165359D01*
X262368Y165138D01*
X263223D01*
X264049Y165359D01*
X264790Y165787D01*
X265394Y166392D01*
X265822Y167132D01*
X266043Y167958D01*
Y168813D01*
X265822Y169640D01*
X265394Y170380D01*
X264790Y170985D01*
X264049Y171413D01*
X263223Y171634D01*
D02*
G37*
G36*
X253223D02*
X252368D01*
X251542Y171413D01*
X250801Y170985D01*
X250196Y170380D01*
X249769Y169640D01*
X249547Y168813D01*
Y167958D01*
X249769Y167132D01*
X250196Y166392D01*
X250801Y165787D01*
X251542Y165359D01*
X252368Y165138D01*
X253223D01*
X254049Y165359D01*
X254790Y165787D01*
X255394Y166392D01*
X255822Y167132D01*
X256043Y167958D01*
Y168813D01*
X255822Y169640D01*
X255394Y170380D01*
X254790Y170985D01*
X254049Y171413D01*
X253223Y171634D01*
D02*
G37*
G36*
X23223D02*
X22368D01*
X21542Y171413D01*
X20801Y170985D01*
X20196Y170380D01*
X19769Y169640D01*
X19547Y168813D01*
Y167958D01*
X19769Y167132D01*
X20196Y166392D01*
X20801Y165787D01*
X21542Y165359D01*
X22368Y165138D01*
X23223D01*
X24049Y165359D01*
X24790Y165787D01*
X25394Y166392D01*
X25822Y167132D01*
X26043Y167958D01*
Y168813D01*
X25822Y169640D01*
X25394Y170380D01*
X24790Y170985D01*
X24049Y171413D01*
X23223Y171634D01*
D02*
G37*
G36*
X13223D02*
X12368D01*
X11542Y171413D01*
X10801Y170985D01*
X10196Y170380D01*
X9769Y169640D01*
X9547Y168813D01*
Y167958D01*
X9769Y167132D01*
X10196Y166392D01*
X10801Y165787D01*
X11542Y165359D01*
X12368Y165138D01*
X13223D01*
X14049Y165359D01*
X14790Y165787D01*
X15394Y166392D01*
X15822Y167132D01*
X16043Y167958D01*
Y168813D01*
X15822Y169640D01*
X15394Y170380D01*
X14790Y170985D01*
X14049Y171413D01*
X13223Y171634D01*
D02*
G37*
G36*
X185950Y169264D02*
X185050D01*
X184218Y168919D01*
X183581Y168282D01*
X183236Y167450D01*
Y166550D01*
X183581Y165718D01*
X184218Y165081D01*
X185050Y164736D01*
X185950D01*
X186782Y165081D01*
X187419Y165718D01*
X187764Y166550D01*
Y167450D01*
X187419Y168282D01*
X186782Y168919D01*
X185950Y169264D01*
D02*
G37*
G36*
X96281Y166309D02*
X95380D01*
X94548Y165964D01*
X93911Y165327D01*
X93567Y164495D01*
Y163595D01*
X93911Y162763D01*
X94548Y162126D01*
X95380Y161781D01*
X96281D01*
X97113Y162126D01*
X97750Y162763D01*
X98094Y163595D01*
Y164495D01*
X97750Y165327D01*
X97113Y165964D01*
X96281Y166309D01*
D02*
G37*
G36*
X236950Y164764D02*
X236050D01*
X235218Y164419D01*
X234581Y163782D01*
X234236Y162950D01*
Y162050D01*
X234581Y161218D01*
X235218Y160581D01*
X236050Y160236D01*
X236950D01*
X237782Y160581D01*
X238419Y161218D01*
X238764Y162050D01*
Y162950D01*
X238419Y163782D01*
X237782Y164419D01*
X236950Y164764D01*
D02*
G37*
G36*
X23249Y161831D02*
X23189D01*
Y158780D01*
X26240D01*
Y158839D01*
X26005Y159715D01*
X25552Y160501D01*
X24911Y161142D01*
X24125Y161596D01*
X23249Y161831D01*
D02*
G37*
G36*
X22402D02*
X22342D01*
X21466Y161596D01*
X20680Y161142D01*
X20039Y160501D01*
X19585Y159715D01*
X19350Y158839D01*
Y158780D01*
X22402D01*
Y161831D01*
D02*
G37*
G36*
X162950Y162264D02*
X162050D01*
X161218Y161919D01*
X160581Y161282D01*
X160236Y160450D01*
Y159550D01*
X160581Y158718D01*
X161218Y158081D01*
X162050Y157736D01*
X162950D01*
X163782Y158081D01*
X164419Y158718D01*
X164764Y159550D01*
Y160450D01*
X164419Y161282D01*
X163782Y161919D01*
X162950Y162264D01*
D02*
G37*
G36*
X186450Y159764D02*
X185550D01*
X184718Y159419D01*
X184081Y158782D01*
X183736Y157950D01*
Y157050D01*
X184081Y156218D01*
X184718Y155581D01*
X185550Y155236D01*
X186450D01*
X187282Y155581D01*
X187919Y156218D01*
X188264Y157050D01*
Y157950D01*
X187919Y158782D01*
X187282Y159419D01*
X186450Y159764D01*
D02*
G37*
G36*
X263223Y161634D02*
X262368D01*
X261542Y161413D01*
X260801Y160985D01*
X260196Y160380D01*
X259769Y159640D01*
X259547Y158813D01*
Y157958D01*
X259769Y157132D01*
X260196Y156392D01*
X260801Y155787D01*
X261542Y155359D01*
X262368Y155138D01*
X263223D01*
X264049Y155359D01*
X264790Y155787D01*
X265394Y156392D01*
X265822Y157132D01*
X266043Y157958D01*
Y158813D01*
X265822Y159640D01*
X265394Y160380D01*
X264790Y160985D01*
X264049Y161413D01*
X263223Y161634D01*
D02*
G37*
G36*
X253223D02*
X252368D01*
X251542Y161413D01*
X250801Y160985D01*
X250196Y160380D01*
X249769Y159640D01*
X249547Y158813D01*
Y157958D01*
X249769Y157132D01*
X250196Y156392D01*
X250801Y155787D01*
X251542Y155359D01*
X252368Y155138D01*
X253223D01*
X254049Y155359D01*
X254790Y155787D01*
X255394Y156392D01*
X255822Y157132D01*
X256043Y157958D01*
Y158813D01*
X255822Y159640D01*
X255394Y160380D01*
X254790Y160985D01*
X254049Y161413D01*
X253223Y161634D01*
D02*
G37*
G36*
X13223D02*
X12368D01*
X11542Y161413D01*
X10801Y160985D01*
X10196Y160380D01*
X9769Y159640D01*
X9547Y158813D01*
Y157958D01*
X9769Y157132D01*
X10196Y156392D01*
X10801Y155787D01*
X11542Y155359D01*
X12368Y155138D01*
X13223D01*
X14049Y155359D01*
X14790Y155787D01*
X15394Y156392D01*
X15822Y157132D01*
X16043Y157958D01*
Y158813D01*
X15822Y159640D01*
X15394Y160380D01*
X14790Y160985D01*
X14049Y161413D01*
X13223Y161634D01*
D02*
G37*
G36*
X26240Y157992D02*
X23189D01*
Y154941D01*
X23249D01*
X24125Y155176D01*
X24911Y155629D01*
X25552Y156271D01*
X26005Y157056D01*
X26240Y157932D01*
Y157992D01*
D02*
G37*
G36*
X22402D02*
X19350D01*
Y157932D01*
X19585Y157056D01*
X20039Y156271D01*
X20680Y155629D01*
X21466Y155176D01*
X22342Y154941D01*
X22402D01*
Y157992D01*
D02*
G37*
G36*
X192950Y155264D02*
X192050D01*
X191218Y154919D01*
X190581Y154282D01*
X190236Y153450D01*
Y152550D01*
X190581Y151718D01*
X191218Y151081D01*
X192050Y150736D01*
X192950D01*
X193782Y151081D01*
X194419Y151718D01*
X194764Y152550D01*
Y153450D01*
X194419Y154282D01*
X193782Y154919D01*
X192950Y155264D01*
D02*
G37*
G36*
X50450D02*
X49550D01*
X48718Y154919D01*
X48081Y154282D01*
X47736Y153450D01*
Y152550D01*
X48081Y151718D01*
X48718Y151081D01*
X49550Y150736D01*
X50450D01*
X51282Y151081D01*
X51919Y151718D01*
X52264Y152550D01*
Y153450D01*
X51919Y154282D01*
X51282Y154919D01*
X50450Y155264D01*
D02*
G37*
G36*
X130950Y150264D02*
X130050D01*
X129218Y149919D01*
X128581Y149282D01*
X128236Y148450D01*
Y147550D01*
X128581Y146718D01*
X129218Y146081D01*
X130050Y145736D01*
X130950D01*
X131782Y146081D01*
X132419Y146718D01*
X132764Y147550D01*
Y148450D01*
X132419Y149282D01*
X131782Y149919D01*
X130950Y150264D01*
D02*
G37*
G36*
X263223Y151634D02*
X262368D01*
X261542Y151412D01*
X260801Y150985D01*
X260196Y150380D01*
X259769Y149639D01*
X259547Y148813D01*
Y147958D01*
X259769Y147132D01*
X260196Y146391D01*
X260801Y145787D01*
X261542Y145359D01*
X262368Y145138D01*
X263223D01*
X264049Y145359D01*
X264790Y145787D01*
X265394Y146391D01*
X265822Y147132D01*
X266043Y147958D01*
Y148813D01*
X265822Y149639D01*
X265394Y150380D01*
X264790Y150985D01*
X264049Y151412D01*
X263223Y151634D01*
D02*
G37*
G36*
X253223D02*
X252368D01*
X251542Y151412D01*
X250801Y150985D01*
X250196Y150380D01*
X249769Y149639D01*
X249547Y148813D01*
Y147958D01*
X249769Y147132D01*
X250196Y146391D01*
X250801Y145787D01*
X251542Y145359D01*
X252368Y145138D01*
X253223D01*
X254049Y145359D01*
X254790Y145787D01*
X255394Y146391D01*
X255822Y147132D01*
X256043Y147958D01*
Y148813D01*
X255822Y149639D01*
X255394Y150380D01*
X254790Y150985D01*
X254049Y151412D01*
X253223Y151634D01*
D02*
G37*
G36*
X23223D02*
X22368D01*
X21542Y151412D01*
X20801Y150985D01*
X20196Y150380D01*
X19769Y149639D01*
X19547Y148813D01*
Y147958D01*
X19769Y147132D01*
X20196Y146391D01*
X20801Y145787D01*
X21542Y145359D01*
X22368Y145138D01*
X23223D01*
X24049Y145359D01*
X24790Y145787D01*
X25394Y146391D01*
X25822Y147132D01*
X26043Y147958D01*
Y148813D01*
X25822Y149639D01*
X25394Y150380D01*
X24790Y150985D01*
X24049Y151412D01*
X23223Y151634D01*
D02*
G37*
G36*
X13223D02*
X12368D01*
X11542Y151412D01*
X10801Y150985D01*
X10196Y150380D01*
X9769Y149639D01*
X9547Y148813D01*
Y147958D01*
X9769Y147132D01*
X10196Y146391D01*
X10801Y145787D01*
X11542Y145359D01*
X12368Y145138D01*
X13223D01*
X14049Y145359D01*
X14790Y145787D01*
X15394Y146391D01*
X15822Y147132D01*
X16043Y147958D01*
Y148813D01*
X15822Y149639D01*
X15394Y150380D01*
X14790Y150985D01*
X14049Y151412D01*
X13223Y151634D01*
D02*
G37*
G36*
X83450Y147764D02*
X82550D01*
X81718Y147419D01*
X81081Y146782D01*
X80736Y145950D01*
Y145050D01*
X81081Y144218D01*
X81718Y143581D01*
X82550Y143236D01*
X83450D01*
X84282Y143581D01*
X84919Y144218D01*
X85264Y145050D01*
Y145950D01*
X84919Y146782D01*
X84282Y147419D01*
X83450Y147764D01*
D02*
G37*
G36*
X72450D02*
X71550D01*
X70718Y147419D01*
X70081Y146782D01*
X69736Y145950D01*
Y145050D01*
X70081Y144218D01*
X70718Y143581D01*
X71550Y143236D01*
X72450D01*
X73282Y143581D01*
X73919Y144218D01*
X74264Y145050D01*
Y145950D01*
X73919Y146782D01*
X73282Y147419D01*
X72450Y147764D01*
D02*
G37*
G36*
X248450Y145264D02*
X247550D01*
X246718Y144919D01*
X246081Y144282D01*
X245736Y143450D01*
Y142550D01*
X246081Y141718D01*
X246718Y141081D01*
X247550Y140736D01*
X248450D01*
X249282Y141081D01*
X249919Y141718D01*
X250264Y142550D01*
Y143450D01*
X249919Y144282D01*
X249282Y144919D01*
X248450Y145264D01*
D02*
G37*
G36*
X134450Y144264D02*
X133550D01*
X132718Y143919D01*
X132081Y143282D01*
X131736Y142450D01*
Y141550D01*
X132081Y140718D01*
X132718Y140081D01*
X133550Y139736D01*
X134450D01*
X135282Y140081D01*
X135919Y140718D01*
X136264Y141550D01*
Y142450D01*
X135919Y143282D01*
X135282Y143919D01*
X134450Y144264D01*
D02*
G37*
G36*
X160950Y142764D02*
X160050D01*
X159218Y142419D01*
X158581Y141782D01*
X158236Y140950D01*
Y140050D01*
X158581Y139218D01*
X159218Y138581D01*
X160050Y138236D01*
X160950D01*
X161782Y138581D01*
X162419Y139218D01*
X162764Y140050D01*
Y140950D01*
X162419Y141782D01*
X161782Y142419D01*
X160950Y142764D01*
D02*
G37*
G36*
X263223Y141634D02*
X262368D01*
X261542Y141412D01*
X260801Y140985D01*
X260196Y140380D01*
X259769Y139639D01*
X259547Y138813D01*
Y137958D01*
X259769Y137132D01*
X260196Y136391D01*
X260801Y135787D01*
X261542Y135359D01*
X262368Y135138D01*
X263223D01*
X264049Y135359D01*
X264790Y135787D01*
X265394Y136391D01*
X265822Y137132D01*
X266043Y137958D01*
Y138813D01*
X265822Y139639D01*
X265394Y140380D01*
X264790Y140985D01*
X264049Y141412D01*
X263223Y141634D01*
D02*
G37*
G36*
X253223D02*
X252368D01*
X251542Y141412D01*
X250801Y140985D01*
X250196Y140380D01*
X249769Y139639D01*
X249547Y138813D01*
Y137958D01*
X249769Y137132D01*
X250196Y136391D01*
X250801Y135787D01*
X251542Y135359D01*
X252368Y135138D01*
X253223D01*
X254049Y135359D01*
X254790Y135787D01*
X255394Y136391D01*
X255822Y137132D01*
X256043Y137958D01*
Y138813D01*
X255822Y139639D01*
X255394Y140380D01*
X254790Y140985D01*
X254049Y141412D01*
X253223Y141634D01*
D02*
G37*
G36*
X23223D02*
X22368D01*
X21542Y141412D01*
X20801Y140985D01*
X20196Y140380D01*
X19769Y139639D01*
X19547Y138813D01*
Y137958D01*
X19769Y137132D01*
X20196Y136391D01*
X20801Y135787D01*
X21542Y135359D01*
X22368Y135138D01*
X23223D01*
X24049Y135359D01*
X24790Y135787D01*
X25394Y136391D01*
X25822Y137132D01*
X26043Y137958D01*
Y138813D01*
X25822Y139639D01*
X25394Y140380D01*
X24790Y140985D01*
X24049Y141412D01*
X23223Y141634D01*
D02*
G37*
G36*
X13223D02*
X12368D01*
X11542Y141412D01*
X10801Y140985D01*
X10196Y140380D01*
X9769Y139639D01*
X9547Y138813D01*
Y137958D01*
X9769Y137132D01*
X10196Y136391D01*
X10801Y135787D01*
X11542Y135359D01*
X12368Y135138D01*
X13223D01*
X14049Y135359D01*
X14790Y135787D01*
X15394Y136391D01*
X15822Y137132D01*
X16043Y137958D01*
Y138813D01*
X15822Y139639D01*
X15394Y140380D01*
X14790Y140985D01*
X14049Y141412D01*
X13223Y141634D01*
D02*
G37*
G36*
X100950Y139264D02*
X100050D01*
X99218Y138919D01*
X98581Y138282D01*
X98236Y137450D01*
Y136550D01*
X98581Y135718D01*
X99218Y135081D01*
X100050Y134736D01*
X100950D01*
X101782Y135081D01*
X102419Y135718D01*
X102764Y136550D01*
Y137450D01*
X102419Y138282D01*
X101782Y138919D01*
X100950Y139264D01*
D02*
G37*
G36*
X186950Y134264D02*
X186050D01*
X185218Y133919D01*
X184581Y133282D01*
X184236Y132450D01*
Y131550D01*
X184581Y130718D01*
X185218Y130081D01*
X186050Y129736D01*
X186950D01*
X187782Y130081D01*
X188419Y130718D01*
X188764Y131550D01*
Y132450D01*
X188419Y133282D01*
X187782Y133919D01*
X186950Y134264D01*
D02*
G37*
G36*
X113950Y132764D02*
X113050D01*
X112218Y132419D01*
X111581Y131782D01*
X111236Y130950D01*
Y130050D01*
X111581Y129218D01*
X112218Y128581D01*
X113050Y128236D01*
X113950D01*
X114782Y128581D01*
X115419Y129218D01*
X115764Y130050D01*
Y130950D01*
X115419Y131782D01*
X114782Y132419D01*
X113950Y132764D01*
D02*
G37*
G36*
X263223Y131634D02*
X262368D01*
X261542Y131412D01*
X260801Y130985D01*
X260196Y130380D01*
X259769Y129639D01*
X259547Y128813D01*
Y127958D01*
X259769Y127132D01*
X260196Y126391D01*
X260801Y125787D01*
X261542Y125359D01*
X262368Y125138D01*
X263223D01*
X264049Y125359D01*
X264790Y125787D01*
X265394Y126391D01*
X265822Y127132D01*
X266043Y127958D01*
Y128813D01*
X265822Y129639D01*
X265394Y130380D01*
X264790Y130985D01*
X264049Y131412D01*
X263223Y131634D01*
D02*
G37*
G36*
X253223D02*
X252368D01*
X251542Y131412D01*
X250801Y130985D01*
X250196Y130380D01*
X249769Y129639D01*
X249547Y128813D01*
Y127958D01*
X249769Y127132D01*
X250196Y126391D01*
X250801Y125787D01*
X251542Y125359D01*
X252368Y125138D01*
X253223D01*
X254049Y125359D01*
X254790Y125787D01*
X255394Y126391D01*
X255822Y127132D01*
X256043Y127958D01*
Y128813D01*
X255822Y129639D01*
X255394Y130380D01*
X254790Y130985D01*
X254049Y131412D01*
X253223Y131634D01*
D02*
G37*
G36*
X13223D02*
X12368D01*
X11542Y131412D01*
X10801Y130985D01*
X10196Y130380D01*
X9769Y129639D01*
X9547Y128813D01*
Y127958D01*
X9769Y127132D01*
X10196Y126391D01*
X10801Y125787D01*
X11542Y125359D01*
X12368Y125138D01*
X13223D01*
X14049Y125359D01*
X14790Y125787D01*
X15394Y126391D01*
X15822Y127132D01*
X16043Y127958D01*
Y128813D01*
X15822Y129639D01*
X15394Y130380D01*
X14790Y130985D01*
X14049Y131412D01*
X13223Y131634D01*
D02*
G37*
G36*
X103787Y130067D02*
X102828D01*
X101901Y129819D01*
X101071Y129339D01*
X100393Y128661D01*
X99914Y127831D01*
X99665Y126905D01*
Y125946D01*
X99914Y125020D01*
X100393Y124189D01*
X101071Y123511D01*
X101901Y123032D01*
X102828Y122784D01*
X103787D01*
X104713Y123032D01*
X105543Y123511D01*
X106221Y124189D01*
X106701Y125020D01*
X106949Y125946D01*
Y126905D01*
X106701Y127831D01*
X106221Y128661D01*
X105543Y129339D01*
X104713Y129819D01*
X103787Y130067D01*
D02*
G37*
G36*
X93787D02*
X92828D01*
X91901Y129819D01*
X91071Y129339D01*
X90393Y128661D01*
X89913Y127831D01*
X89665Y126905D01*
Y125946D01*
X89913Y125020D01*
X90393Y124189D01*
X91071Y123511D01*
X91901Y123032D01*
X92828Y122784D01*
X93787D01*
X94713Y123032D01*
X95543Y123511D01*
X96221Y124189D01*
X96701Y125020D01*
X96949Y125946D01*
Y126905D01*
X96701Y127831D01*
X96221Y128661D01*
X95543Y129339D01*
X94713Y129819D01*
X93787Y130067D01*
D02*
G37*
G36*
X83786D02*
X82828D01*
X81901Y129819D01*
X81071Y129339D01*
X80393Y128661D01*
X79914Y127831D01*
X79665Y126905D01*
Y125946D01*
X79914Y125020D01*
X80393Y124189D01*
X81071Y123511D01*
X81901Y123032D01*
X82828Y122784D01*
X83786D01*
X84713Y123032D01*
X85543Y123511D01*
X86221Y124189D01*
X86701Y125020D01*
X86949Y125946D01*
Y126905D01*
X86701Y127831D01*
X86221Y128661D01*
X85543Y129339D01*
X84713Y129819D01*
X83786Y130067D01*
D02*
G37*
G36*
X73786D02*
X72828D01*
X71901Y129819D01*
X71071Y129339D01*
X70393Y128661D01*
X69914Y127831D01*
X69665Y126905D01*
Y125946D01*
X69914Y125020D01*
X70393Y124189D01*
X71071Y123511D01*
X71901Y123032D01*
X72828Y122784D01*
X73786D01*
X74713Y123032D01*
X75543Y123511D01*
X76221Y124189D01*
X76701Y125020D01*
X76949Y125946D01*
Y126905D01*
X76701Y127831D01*
X76221Y128661D01*
X75543Y129339D01*
X74713Y129819D01*
X73786Y130067D01*
D02*
G37*
G36*
X63787D02*
X62828D01*
X61901Y129819D01*
X61071Y129339D01*
X60393Y128661D01*
X59913Y127831D01*
X59665Y126905D01*
Y125946D01*
X59913Y125020D01*
X60393Y124189D01*
X61071Y123511D01*
X61901Y123032D01*
X62828Y122784D01*
X63787D01*
X64713Y123032D01*
X65543Y123511D01*
X66221Y124189D01*
X66701Y125020D01*
X66949Y125946D01*
Y126905D01*
X66701Y127831D01*
X66221Y128661D01*
X65543Y129339D01*
X64713Y129819D01*
X63787Y130067D01*
D02*
G37*
G36*
X52450Y127264D02*
X51550D01*
X50718Y126919D01*
X50081Y126282D01*
X49736Y125450D01*
Y124550D01*
X50081Y123718D01*
X50718Y123081D01*
X51550Y122736D01*
X52450D01*
X53282Y123081D01*
X53919Y123718D01*
X54264Y124550D01*
Y125450D01*
X53919Y126282D01*
X53282Y126919D01*
X52450Y127264D01*
D02*
G37*
G36*
X41450Y125264D02*
X40550D01*
X39718Y124919D01*
X39081Y124282D01*
X38736Y123450D01*
Y122550D01*
X39081Y121718D01*
X39718Y121081D01*
X40550Y120736D01*
X41450D01*
X42282Y121081D01*
X42919Y121718D01*
X43264Y122550D01*
Y123450D01*
X42919Y124282D01*
X42282Y124919D01*
X41450Y125264D01*
D02*
G37*
G36*
X35950Y124264D02*
X35050D01*
X34218Y123919D01*
X33581Y123282D01*
X33236Y122450D01*
Y121550D01*
X33581Y120718D01*
X34218Y120081D01*
X35050Y119736D01*
X35950D01*
X36782Y120081D01*
X37419Y120718D01*
X37764Y121550D01*
Y122450D01*
X37419Y123282D01*
X36782Y123919D01*
X35950Y124264D01*
D02*
G37*
G36*
X57950Y122264D02*
X57050D01*
X56218Y121919D01*
X55581Y121282D01*
X55236Y120450D01*
Y119550D01*
X55581Y118718D01*
X56218Y118081D01*
X57050Y117736D01*
X57950D01*
X58782Y118081D01*
X59419Y118718D01*
X59764Y119550D01*
Y120450D01*
X59419Y121282D01*
X58782Y121919D01*
X57950Y122264D01*
D02*
G37*
G36*
X63813Y120264D02*
X63701D01*
Y116819D01*
X67146D01*
Y116931D01*
X66884Y117907D01*
X66379Y118782D01*
X65664Y119497D01*
X64789Y120002D01*
X63813Y120264D01*
D02*
G37*
G36*
X62913D02*
X62802D01*
X61826Y120002D01*
X60950Y119497D01*
X60236Y118782D01*
X59730Y117907D01*
X59469Y116931D01*
Y116819D01*
X62913D01*
Y120264D01*
D02*
G37*
G36*
X220950Y119764D02*
X220050D01*
X219218Y119419D01*
X218581Y118782D01*
X218236Y117950D01*
Y117050D01*
X218581Y116218D01*
X219218Y115581D01*
X220050Y115236D01*
X220950D01*
X221782Y115581D01*
X222419Y116218D01*
X222764Y117050D01*
Y117950D01*
X222419Y118782D01*
X221782Y119419D01*
X220950Y119764D01*
D02*
G37*
G36*
X263223Y121634D02*
X262368D01*
X261542Y121413D01*
X260801Y120985D01*
X260196Y120380D01*
X259769Y119640D01*
X259547Y118813D01*
Y117958D01*
X259769Y117132D01*
X260196Y116392D01*
X260801Y115787D01*
X261542Y115359D01*
X262368Y115138D01*
X263223D01*
X264049Y115359D01*
X264790Y115787D01*
X265394Y116392D01*
X265822Y117132D01*
X266043Y117958D01*
Y118813D01*
X265822Y119640D01*
X265394Y120380D01*
X264790Y120985D01*
X264049Y121413D01*
X263223Y121634D01*
D02*
G37*
G36*
X253223D02*
X252368D01*
X251542Y121413D01*
X250801Y120985D01*
X250196Y120380D01*
X249769Y119640D01*
X249547Y118813D01*
Y117958D01*
X249769Y117132D01*
X250196Y116392D01*
X250801Y115787D01*
X251542Y115359D01*
X252368Y115138D01*
X253223D01*
X254049Y115359D01*
X254790Y115787D01*
X255394Y116392D01*
X255822Y117132D01*
X256043Y117958D01*
Y118813D01*
X255822Y119640D01*
X255394Y120380D01*
X254790Y120985D01*
X254049Y121413D01*
X253223Y121634D01*
D02*
G37*
G36*
X13223D02*
X12368D01*
X11542Y121413D01*
X10801Y120985D01*
X10196Y120380D01*
X9769Y119640D01*
X9547Y118813D01*
Y117958D01*
X9769Y117132D01*
X10196Y116392D01*
X10801Y115787D01*
X11542Y115359D01*
X12368Y115138D01*
X13223D01*
X14049Y115359D01*
X14790Y115787D01*
X15394Y116392D01*
X15822Y117132D01*
X16043Y117958D01*
Y118813D01*
X15822Y119640D01*
X15394Y120380D01*
X14790Y120985D01*
X14049Y121413D01*
X13223Y121634D01*
D02*
G37*
G36*
X154950Y118264D02*
X154050D01*
X153218Y117919D01*
X152581Y117282D01*
X152236Y116450D01*
Y115550D01*
X152581Y114718D01*
X153218Y114081D01*
X154050Y113736D01*
X154950D01*
X155782Y114081D01*
X156419Y114718D01*
X156764Y115550D01*
Y116450D01*
X156419Y117282D01*
X155782Y117919D01*
X154950Y118264D01*
D02*
G37*
G36*
X106949Y120067D02*
X99665D01*
Y112784D01*
X106949D01*
Y120067D01*
D02*
G37*
G36*
X93787D02*
X92828D01*
X91901Y119819D01*
X91071Y119339D01*
X90393Y118661D01*
X89913Y117831D01*
X89665Y116905D01*
Y115946D01*
X89913Y115020D01*
X90393Y114189D01*
X91071Y113511D01*
X91901Y113032D01*
X92828Y112784D01*
X93787D01*
X94713Y113032D01*
X95543Y113511D01*
X96221Y114189D01*
X96701Y115020D01*
X96949Y115946D01*
Y116905D01*
X96701Y117831D01*
X96221Y118661D01*
X95543Y119339D01*
X94713Y119819D01*
X93787Y120067D01*
D02*
G37*
G36*
X83786D02*
X82828D01*
X81901Y119819D01*
X81071Y119339D01*
X80393Y118661D01*
X79914Y117831D01*
X79665Y116905D01*
Y115946D01*
X79914Y115020D01*
X80393Y114189D01*
X81071Y113511D01*
X81901Y113032D01*
X82828Y112784D01*
X83786D01*
X84713Y113032D01*
X85543Y113511D01*
X86221Y114189D01*
X86701Y115020D01*
X86949Y115946D01*
Y116905D01*
X86701Y117831D01*
X86221Y118661D01*
X85543Y119339D01*
X84713Y119819D01*
X83786Y120067D01*
D02*
G37*
G36*
X73786D02*
X72828D01*
X71901Y119819D01*
X71071Y119339D01*
X70393Y118661D01*
X69914Y117831D01*
X69665Y116905D01*
Y115946D01*
X69914Y115020D01*
X70393Y114189D01*
X71071Y113511D01*
X71901Y113032D01*
X72828Y112784D01*
X73786D01*
X74713Y113032D01*
X75543Y113511D01*
X76221Y114189D01*
X76701Y115020D01*
X76949Y115946D01*
Y116905D01*
X76701Y117831D01*
X76221Y118661D01*
X75543Y119339D01*
X74713Y119819D01*
X73786Y120067D01*
D02*
G37*
G36*
X67146Y116032D02*
X63701D01*
Y112587D01*
X63813D01*
X64789Y112848D01*
X65664Y113354D01*
X66379Y114068D01*
X66884Y114944D01*
X67146Y115920D01*
Y116032D01*
D02*
G37*
G36*
X62913D02*
X59469D01*
Y115920D01*
X59730Y114944D01*
X60236Y114068D01*
X60950Y113354D01*
X61826Y112848D01*
X62802Y112587D01*
X62913D01*
Y116032D01*
D02*
G37*
G36*
X52489Y110961D02*
X52394D01*
Y108894D01*
X54461D01*
Y108990D01*
X54086Y109894D01*
X53394Y110586D01*
X52489Y110961D01*
D02*
G37*
G36*
X51606D02*
X51511D01*
X50606Y110586D01*
X49914Y109894D01*
X49539Y108990D01*
Y108894D01*
X51606D01*
Y110961D01*
D02*
G37*
G36*
X54461Y108106D02*
X52394D01*
Y106039D01*
X52489D01*
X53394Y106414D01*
X54086Y107106D01*
X54461Y108010D01*
Y108106D01*
D02*
G37*
G36*
X51606D02*
X49539D01*
Y108010D01*
X49914Y107106D01*
X50606Y106414D01*
X51511Y106039D01*
X51606D01*
Y108106D01*
D02*
G37*
G36*
X263223Y111634D02*
X262368D01*
X261542Y111413D01*
X260801Y110985D01*
X260196Y110380D01*
X259769Y109640D01*
X259547Y108813D01*
Y107958D01*
X259769Y107132D01*
X260196Y106392D01*
X260801Y105787D01*
X261542Y105359D01*
X262368Y105138D01*
X263223D01*
X264049Y105359D01*
X264790Y105787D01*
X265394Y106392D01*
X265822Y107132D01*
X266043Y107958D01*
Y108813D01*
X265822Y109640D01*
X265394Y110380D01*
X264790Y110985D01*
X264049Y111413D01*
X263223Y111634D01*
D02*
G37*
G36*
X253223D02*
X252368D01*
X251542Y111413D01*
X250801Y110985D01*
X250196Y110380D01*
X249769Y109640D01*
X249547Y108813D01*
Y107958D01*
X249769Y107132D01*
X250196Y106392D01*
X250801Y105787D01*
X251542Y105359D01*
X252368Y105138D01*
X253223D01*
X254049Y105359D01*
X254790Y105787D01*
X255394Y106392D01*
X255822Y107132D01*
X256043Y107958D01*
Y108813D01*
X255822Y109640D01*
X255394Y110380D01*
X254790Y110985D01*
X254049Y111413D01*
X253223Y111634D01*
D02*
G37*
G36*
X23223D02*
X22368D01*
X21542Y111413D01*
X20801Y110985D01*
X20196Y110380D01*
X19769Y109640D01*
X19547Y108813D01*
Y107958D01*
X19769Y107132D01*
X20196Y106392D01*
X20801Y105787D01*
X21542Y105359D01*
X22368Y105138D01*
X23223D01*
X24049Y105359D01*
X24790Y105787D01*
X25394Y106392D01*
X25822Y107132D01*
X26043Y107958D01*
Y108813D01*
X25822Y109640D01*
X25394Y110380D01*
X24790Y110985D01*
X24049Y111413D01*
X23223Y111634D01*
D02*
G37*
G36*
X13223D02*
X12368D01*
X11542Y111413D01*
X10801Y110985D01*
X10196Y110380D01*
X9769Y109640D01*
X9547Y108813D01*
Y107958D01*
X9769Y107132D01*
X10196Y106392D01*
X10801Y105787D01*
X11542Y105359D01*
X12368Y105138D01*
X13223D01*
X14049Y105359D01*
X14790Y105787D01*
X15394Y106392D01*
X15822Y107132D01*
X16043Y107958D01*
Y108813D01*
X15822Y109640D01*
X15394Y110380D01*
X14790Y110985D01*
X14049Y111413D01*
X13223Y111634D01*
D02*
G37*
G36*
X57950Y109264D02*
X57050D01*
X56218Y108919D01*
X55581Y108282D01*
X55236Y107450D01*
Y106550D01*
X55581Y105718D01*
X56218Y105081D01*
X57050Y104736D01*
X57950D01*
X58782Y105081D01*
X59419Y105718D01*
X59764Y106550D01*
Y107450D01*
X59419Y108282D01*
X58782Y108919D01*
X57950Y109264D01*
D02*
G37*
G36*
X155950Y106764D02*
X155050D01*
X154218Y106419D01*
X153581Y105782D01*
X153236Y104950D01*
Y104050D01*
X153581Y103218D01*
X154218Y102581D01*
X155050Y102236D01*
X155950D01*
X156782Y102581D01*
X157419Y103218D01*
X157764Y104050D01*
Y104950D01*
X157419Y105782D01*
X156782Y106419D01*
X155950Y106764D01*
D02*
G37*
G36*
X129950D02*
X129050D01*
X128218Y106419D01*
X127581Y105782D01*
X127236Y104950D01*
Y104050D01*
X127581Y103218D01*
X128218Y102581D01*
X129050Y102236D01*
X129950D01*
X130782Y102581D01*
X131419Y103218D01*
X131764Y104050D01*
Y104950D01*
X131419Y105782D01*
X130782Y106419D01*
X129950Y106764D01*
D02*
G37*
G36*
X166490Y100961D02*
X166394D01*
Y98894D01*
X168461D01*
Y98989D01*
X168086Y99894D01*
X167394Y100586D01*
X166490Y100961D01*
D02*
G37*
G36*
X165606D02*
X165510D01*
X164606Y100586D01*
X163914Y99894D01*
X163539Y98989D01*
Y98894D01*
X165606D01*
Y100961D01*
D02*
G37*
G36*
X144179Y100040D02*
X143552D01*
X142973Y99800D01*
X142530Y99357D01*
X142291Y98779D01*
Y98152D01*
X142530Y97573D01*
X142973Y97130D01*
X143552Y96890D01*
X144179D01*
X144757Y97130D01*
X145200Y97573D01*
X145440Y98152D01*
Y98779D01*
X145200Y99357D01*
X144757Y99800D01*
X144179Y100040D01*
D02*
G37*
G36*
X139848D02*
X139221D01*
X138643Y99800D01*
X138200Y99357D01*
X137960Y98779D01*
Y98152D01*
X138200Y97573D01*
X138643Y97130D01*
X139221Y96890D01*
X139848D01*
X140427Y97130D01*
X140870Y97573D01*
X141109Y98152D01*
Y98779D01*
X140870Y99357D01*
X140427Y99800D01*
X139848Y100040D01*
D02*
G37*
G36*
X168461Y98106D02*
X166394D01*
Y96039D01*
X166490D01*
X167394Y96414D01*
X168086Y97106D01*
X168461Y98011D01*
Y98106D01*
D02*
G37*
G36*
X165606D02*
X163539D01*
Y98011D01*
X163914Y97106D01*
X164606Y96414D01*
X165510Y96039D01*
X165606D01*
Y98106D01*
D02*
G37*
G36*
X69950Y458764D02*
X69050D01*
X68218Y458419D01*
X67581Y457782D01*
X67236Y456950D01*
Y456890D01*
X63673Y453327D01*
X63266Y452718D01*
X63123Y452000D01*
Y422500D01*
X63266Y421782D01*
X63673Y421173D01*
X84623Y400223D01*
Y382277D01*
X74223Y371877D01*
X55000D01*
X54282Y371734D01*
X53673Y371327D01*
X43673Y361327D01*
X43266Y360718D01*
X43123Y360000D01*
Y263898D01*
X43266Y263180D01*
X43673Y262571D01*
X57123Y249121D01*
Y238277D01*
X37173Y218327D01*
X36766Y217718D01*
X36623Y217000D01*
Y135500D01*
X36766Y134782D01*
X37173Y134173D01*
X44123Y127223D01*
Y98825D01*
X44081Y98782D01*
X43736Y97950D01*
Y97050D01*
X44081Y96218D01*
X44718Y95581D01*
X45550Y95236D01*
X46450D01*
X47282Y95581D01*
X47919Y96218D01*
X48264Y97050D01*
Y97950D01*
X47919Y98782D01*
X47877Y98825D01*
Y128000D01*
X47734Y128718D01*
X47327Y129327D01*
X40377Y136277D01*
Y216223D01*
X60327Y236173D01*
X60734Y236782D01*
X60877Y237500D01*
Y249898D01*
X60734Y250616D01*
X60327Y251225D01*
X46877Y264676D01*
Y359223D01*
X55777Y368123D01*
X75000D01*
X75718Y368266D01*
X76327Y368673D01*
X87827Y380173D01*
X88234Y380782D01*
X88377Y381500D01*
Y401000D01*
X88234Y401718D01*
X87827Y402327D01*
X66877Y423277D01*
Y451223D01*
X69890Y454236D01*
X69950D01*
X70782Y454581D01*
X71419Y455218D01*
X71764Y456050D01*
Y456950D01*
X71419Y457782D01*
X70782Y458419D01*
X69950Y458764D01*
D02*
G37*
G36*
X263223Y101634D02*
X262368D01*
X261542Y101412D01*
X260801Y100985D01*
X260196Y100380D01*
X259769Y99639D01*
X259547Y98813D01*
Y97958D01*
X259769Y97132D01*
X260196Y96391D01*
X260801Y95787D01*
X261542Y95359D01*
X262368Y95138D01*
X263223D01*
X264049Y95359D01*
X264790Y95787D01*
X265394Y96391D01*
X265822Y97132D01*
X266043Y97958D01*
Y98813D01*
X265822Y99639D01*
X265394Y100380D01*
X264790Y100985D01*
X264049Y101412D01*
X263223Y101634D01*
D02*
G37*
G36*
X253223D02*
X252368D01*
X251542Y101412D01*
X250801Y100985D01*
X250196Y100380D01*
X249769Y99639D01*
X249547Y98813D01*
Y97958D01*
X249769Y97132D01*
X250196Y96391D01*
X250801Y95787D01*
X251542Y95359D01*
X252368Y95138D01*
X253223D01*
X254049Y95359D01*
X254790Y95787D01*
X255394Y96391D01*
X255822Y97132D01*
X256043Y97958D01*
Y98813D01*
X255822Y99639D01*
X255394Y100380D01*
X254790Y100985D01*
X254049Y101412D01*
X253223Y101634D01*
D02*
G37*
G36*
X23223D02*
X22368D01*
X21542Y101412D01*
X20801Y100985D01*
X20196Y100380D01*
X19769Y99639D01*
X19547Y98813D01*
Y97958D01*
X19769Y97132D01*
X20196Y96391D01*
X20801Y95787D01*
X21542Y95359D01*
X22368Y95138D01*
X23223D01*
X24049Y95359D01*
X24790Y95787D01*
X25394Y96391D01*
X25822Y97132D01*
X26043Y97958D01*
Y98813D01*
X25822Y99639D01*
X25394Y100380D01*
X24790Y100985D01*
X24049Y101412D01*
X23223Y101634D01*
D02*
G37*
G36*
X13223D02*
X12368D01*
X11542Y101412D01*
X10801Y100985D01*
X10196Y100380D01*
X9769Y99639D01*
X9547Y98813D01*
Y97958D01*
X9769Y97132D01*
X10196Y96391D01*
X10801Y95787D01*
X11542Y95359D01*
X12368Y95138D01*
X13223D01*
X14049Y95359D01*
X14790Y95787D01*
X15394Y96391D01*
X15822Y97132D01*
X16043Y97958D01*
Y98813D01*
X15822Y99639D01*
X15394Y100380D01*
X14790Y100985D01*
X14049Y101412D01*
X13223Y101634D01*
D02*
G37*
G36*
X144179Y95710D02*
X143552D01*
X142973Y95470D01*
X142530Y95027D01*
X142291Y94448D01*
Y93821D01*
X142530Y93243D01*
X142973Y92800D01*
X143552Y92560D01*
X144179D01*
X144757Y92800D01*
X145200Y93243D01*
X145440Y93821D01*
Y94448D01*
X145200Y95027D01*
X144757Y95470D01*
X144179Y95710D01*
D02*
G37*
G36*
X139848D02*
X139221D01*
X138643Y95470D01*
X138200Y95027D01*
X137960Y94448D01*
Y93821D01*
X138200Y93243D01*
X138643Y92800D01*
X139221Y92560D01*
X139848D01*
X140427Y92800D01*
X140870Y93243D01*
X141109Y93821D01*
Y94448D01*
X140870Y95027D01*
X140427Y95470D01*
X139848Y95710D01*
D02*
G37*
G36*
X76950Y96764D02*
X76050D01*
X75218Y96419D01*
X74581Y95782D01*
X74236Y94950D01*
Y94050D01*
X74581Y93218D01*
X75218Y92581D01*
X76050Y92236D01*
X76950D01*
X77782Y92581D01*
X78419Y93218D01*
X78764Y94050D01*
Y94950D01*
X78419Y95782D01*
X77782Y96419D01*
X76950Y96764D01*
D02*
G37*
G36*
X166990Y92961D02*
X166894D01*
Y90894D01*
X168961D01*
Y90989D01*
X168586Y91894D01*
X167894Y92586D01*
X166990Y92961D01*
D02*
G37*
G36*
X166106D02*
X166010D01*
X165106Y92586D01*
X164414Y91894D01*
X164039Y90989D01*
Y90894D01*
X166106D01*
Y92961D01*
D02*
G37*
G36*
X195950Y93764D02*
X195050D01*
X194218Y93419D01*
X193581Y92782D01*
X193236Y91950D01*
Y91050D01*
X193581Y90218D01*
X194218Y89581D01*
X195050Y89236D01*
X195950D01*
X196782Y89581D01*
X197419Y90218D01*
X197764Y91050D01*
Y91950D01*
X197419Y92782D01*
X196782Y93419D01*
X195950Y93764D01*
D02*
G37*
G36*
X168961Y90106D02*
X166894D01*
Y88039D01*
X166990D01*
X167894Y88414D01*
X168586Y89106D01*
X168961Y90011D01*
Y90106D01*
D02*
G37*
G36*
X166106D02*
X164039D01*
Y90011D01*
X164414Y89106D01*
X165106Y88414D01*
X166010Y88039D01*
X166106D01*
Y90106D01*
D02*
G37*
G36*
X111950Y89764D02*
X111050D01*
X110218Y89419D01*
X109581Y88782D01*
X109236Y87950D01*
Y87050D01*
X109581Y86218D01*
X110218Y85581D01*
X111050Y85236D01*
X111950D01*
X112782Y85581D01*
X113419Y86218D01*
X113764Y87050D01*
Y87950D01*
X113419Y88782D01*
X112782Y89419D01*
X111950Y89764D01*
D02*
G37*
G36*
X263223Y91634D02*
X262368D01*
X261542Y91413D01*
X260801Y90985D01*
X260196Y90380D01*
X259769Y89640D01*
X259547Y88813D01*
Y87958D01*
X259769Y87132D01*
X260196Y86392D01*
X260801Y85787D01*
X261542Y85359D01*
X262368Y85138D01*
X263223D01*
X264049Y85359D01*
X264790Y85787D01*
X265394Y86392D01*
X265822Y87132D01*
X266043Y87958D01*
Y88813D01*
X265822Y89640D01*
X265394Y90380D01*
X264790Y90985D01*
X264049Y91413D01*
X263223Y91634D01*
D02*
G37*
G36*
X253223D02*
X252368D01*
X251542Y91413D01*
X250801Y90985D01*
X250196Y90380D01*
X249769Y89640D01*
X249547Y88813D01*
Y87958D01*
X249769Y87132D01*
X250196Y86392D01*
X250801Y85787D01*
X251542Y85359D01*
X252368Y85138D01*
X253223D01*
X254049Y85359D01*
X254790Y85787D01*
X255394Y86392D01*
X255822Y87132D01*
X256043Y87958D01*
Y88813D01*
X255822Y89640D01*
X255394Y90380D01*
X254790Y90985D01*
X254049Y91413D01*
X253223Y91634D01*
D02*
G37*
G36*
X23223D02*
X22368D01*
X21542Y91413D01*
X20801Y90985D01*
X20196Y90380D01*
X19769Y89640D01*
X19547Y88813D01*
Y87958D01*
X19769Y87132D01*
X20196Y86392D01*
X20801Y85787D01*
X21542Y85359D01*
X22368Y85138D01*
X23223D01*
X24049Y85359D01*
X24790Y85787D01*
X25394Y86392D01*
X25822Y87132D01*
X26043Y87958D01*
Y88813D01*
X25822Y89640D01*
X25394Y90380D01*
X24790Y90985D01*
X24049Y91413D01*
X23223Y91634D01*
D02*
G37*
G36*
X13223D02*
X12368D01*
X11542Y91413D01*
X10801Y90985D01*
X10196Y90380D01*
X9769Y89640D01*
X9547Y88813D01*
Y87958D01*
X9769Y87132D01*
X10196Y86392D01*
X10801Y85787D01*
X11542Y85359D01*
X12368Y85138D01*
X13223D01*
X14049Y85359D01*
X14790Y85787D01*
X15394Y86392D01*
X15822Y87132D01*
X16043Y87958D01*
Y88813D01*
X15822Y89640D01*
X15394Y90380D01*
X14790Y90985D01*
X14049Y91413D01*
X13223Y91634D01*
D02*
G37*
G36*
X68950Y88264D02*
X68050D01*
X67218Y87919D01*
X66581Y87282D01*
X66236Y86450D01*
Y85550D01*
X66581Y84718D01*
X67218Y84081D01*
X68050Y83736D01*
X68950D01*
X69782Y84081D01*
X70419Y84718D01*
X70764Y85550D01*
Y86450D01*
X70419Y87282D01*
X69782Y87919D01*
X68950Y88264D01*
D02*
G37*
G36*
X153450Y87764D02*
X152550D01*
X151718Y87419D01*
X151081Y86782D01*
X150736Y85950D01*
Y85050D01*
X151081Y84218D01*
X151718Y83581D01*
X152550Y83236D01*
X153450D01*
X154282Y83581D01*
X154919Y84218D01*
X155264Y85050D01*
Y85950D01*
X154919Y86782D01*
X154282Y87419D01*
X153450Y87764D01*
D02*
G37*
G36*
X121950Y87264D02*
X121050D01*
X120218Y86919D01*
X119581Y86282D01*
X119236Y85450D01*
Y84550D01*
X119581Y83718D01*
X120218Y83081D01*
X121050Y82736D01*
X121950D01*
X122782Y83081D01*
X123419Y83718D01*
X123764Y84550D01*
Y85450D01*
X123419Y86282D01*
X122782Y86919D01*
X121950Y87264D01*
D02*
G37*
G36*
X183990Y84461D02*
X183894D01*
Y82394D01*
X185961D01*
Y82489D01*
X185586Y83394D01*
X184894Y84086D01*
X183990Y84461D01*
D02*
G37*
G36*
X183106D02*
X183010D01*
X182106Y84086D01*
X181414Y83394D01*
X181039Y82489D01*
Y82394D01*
X183106D01*
Y84461D01*
D02*
G37*
G36*
X185961Y81606D02*
X183894D01*
Y79539D01*
X183990D01*
X184894Y79914D01*
X185586Y80606D01*
X185961Y81511D01*
Y81606D01*
D02*
G37*
G36*
X183106D02*
X181039D01*
Y81511D01*
X181414Y80606D01*
X182106Y79914D01*
X183010Y79539D01*
X183106D01*
Y81606D01*
D02*
G37*
G36*
X212450Y83764D02*
X211550D01*
X210718Y83419D01*
X210081Y82782D01*
X209736Y81950D01*
Y81050D01*
X210081Y80218D01*
X210718Y79581D01*
X211550Y79236D01*
X212450D01*
X213282Y79581D01*
X213919Y80218D01*
X214264Y81050D01*
Y81950D01*
X213919Y82782D01*
X213282Y83419D01*
X212450Y83764D01*
D02*
G37*
G36*
X263223Y81634D02*
X262368D01*
X261542Y81413D01*
X260801Y80985D01*
X260196Y80380D01*
X259769Y79640D01*
X259547Y78813D01*
Y77958D01*
X259769Y77132D01*
X260196Y76392D01*
X260801Y75787D01*
X261542Y75359D01*
X262368Y75138D01*
X263223D01*
X264049Y75359D01*
X264790Y75787D01*
X265394Y76392D01*
X265822Y77132D01*
X266043Y77958D01*
Y78813D01*
X265822Y79640D01*
X265394Y80380D01*
X264790Y80985D01*
X264049Y81413D01*
X263223Y81634D01*
D02*
G37*
G36*
X253223D02*
X252368D01*
X251542Y81413D01*
X250801Y80985D01*
X250196Y80380D01*
X249769Y79640D01*
X249547Y78813D01*
Y77958D01*
X249769Y77132D01*
X250196Y76392D01*
X250801Y75787D01*
X251542Y75359D01*
X252368Y75138D01*
X253223D01*
X254049Y75359D01*
X254790Y75787D01*
X255394Y76392D01*
X255822Y77132D01*
X256043Y77958D01*
Y78813D01*
X255822Y79640D01*
X255394Y80380D01*
X254790Y80985D01*
X254049Y81413D01*
X253223Y81634D01*
D02*
G37*
G36*
X23223D02*
X22368D01*
X21542Y81413D01*
X20801Y80985D01*
X20196Y80380D01*
X19769Y79640D01*
X19547Y78813D01*
Y77958D01*
X19769Y77132D01*
X20196Y76392D01*
X20801Y75787D01*
X21542Y75359D01*
X22368Y75138D01*
X23223D01*
X24049Y75359D01*
X24790Y75787D01*
X25394Y76392D01*
X25822Y77132D01*
X26043Y77958D01*
Y78813D01*
X25822Y79640D01*
X25394Y80380D01*
X24790Y80985D01*
X24049Y81413D01*
X23223Y81634D01*
D02*
G37*
G36*
X13223D02*
X12368D01*
X11542Y81413D01*
X10801Y80985D01*
X10196Y80380D01*
X9769Y79640D01*
X9547Y78813D01*
Y77958D01*
X9769Y77132D01*
X10196Y76392D01*
X10801Y75787D01*
X11542Y75359D01*
X12368Y75138D01*
X13223D01*
X14049Y75359D01*
X14790Y75787D01*
X15394Y76392D01*
X15822Y77132D01*
X16043Y77958D01*
Y78813D01*
X15822Y79640D01*
X15394Y80380D01*
X14790Y80985D01*
X14049Y81413D01*
X13223Y81634D01*
D02*
G37*
G36*
X230000Y537074D02*
X229075Y536952D01*
X228213Y536595D01*
X227473Y536027D01*
X225973Y534527D01*
X225405Y533787D01*
X225048Y532925D01*
X224926Y532000D01*
Y381010D01*
X202990Y359074D01*
X178000D01*
X177075Y358952D01*
X176213Y358595D01*
X175473Y358027D01*
X174905Y357287D01*
X174548Y356425D01*
X174426Y355500D01*
X174548Y354575D01*
X174905Y353713D01*
X175473Y352973D01*
X176213Y352405D01*
X177075Y352048D01*
X178000Y351926D01*
X204471D01*
X205396Y352048D01*
X206258Y352405D01*
X206998Y352973D01*
X226162Y372137D01*
X226623Y371945D01*
Y261777D01*
X213673Y248827D01*
X213266Y248218D01*
X213123Y247500D01*
Y226500D01*
X213266Y225782D01*
X213673Y225173D01*
X241123Y197723D01*
Y83277D01*
X234610Y76764D01*
X234550D01*
X233718Y76419D01*
X233081Y75782D01*
X232736Y74950D01*
Y74050D01*
X233081Y73218D01*
X233718Y72581D01*
X234550Y72236D01*
X235450D01*
X236282Y72581D01*
X236919Y73218D01*
X237264Y74050D01*
Y74110D01*
X244327Y81173D01*
X244734Y81782D01*
X244877Y82500D01*
Y198500D01*
X244734Y199218D01*
X244327Y199827D01*
X216877Y227277D01*
Y246723D01*
X229827Y259673D01*
X230234Y260282D01*
X230377Y261000D01*
Y376352D01*
X231027Y377002D01*
X231027Y377002D01*
X231595Y377743D01*
X231952Y378605D01*
X232074Y379529D01*
Y530520D01*
X232527Y530973D01*
X233095Y531713D01*
X233452Y532575D01*
X233574Y533500D01*
X233452Y534425D01*
X233095Y535287D01*
X232527Y536027D01*
X231787Y536595D01*
X230925Y536952D01*
X230000Y537074D01*
D02*
G37*
G36*
X143490Y73461D02*
X143394D01*
Y71394D01*
X145461D01*
Y71489D01*
X145086Y72394D01*
X144394Y73086D01*
X143490Y73461D01*
D02*
G37*
G36*
X142606D02*
X142510D01*
X141606Y73086D01*
X140914Y72394D01*
X140539Y71489D01*
Y71394D01*
X142606D01*
Y73461D01*
D02*
G37*
G36*
X134990D02*
X134894D01*
Y71394D01*
X136961D01*
Y71489D01*
X136586Y72394D01*
X135894Y73086D01*
X134990Y73461D01*
D02*
G37*
G36*
X134106D02*
X134011D01*
X133106Y73086D01*
X132414Y72394D01*
X132039Y71489D01*
Y71394D01*
X134106D01*
Y73461D01*
D02*
G37*
G36*
X169950Y74764D02*
X169050D01*
X168218Y74419D01*
X167581Y73782D01*
X167236Y72950D01*
Y72050D01*
X167581Y71218D01*
X168218Y70581D01*
X169050Y70236D01*
X169950D01*
X170782Y70581D01*
X171419Y71218D01*
X171764Y72050D01*
Y72950D01*
X171419Y73782D01*
X170782Y74419D01*
X169950Y74764D01*
D02*
G37*
G36*
X68989Y71961D02*
X68894D01*
Y69894D01*
X70961D01*
Y69989D01*
X70586Y70894D01*
X69894Y71586D01*
X68989Y71961D01*
D02*
G37*
G36*
X68106D02*
X68011D01*
X67106Y71586D01*
X66414Y70894D01*
X66039Y69989D01*
Y69894D01*
X68106D01*
Y71961D01*
D02*
G37*
G36*
X104450Y73764D02*
X103550D01*
X102718Y73419D01*
X102081Y72782D01*
X101736Y71950D01*
Y71050D01*
X102081Y70218D01*
X102718Y69581D01*
X103550Y69236D01*
X104450D01*
X105282Y69581D01*
X105919Y70218D01*
X106264Y71050D01*
Y71950D01*
X105919Y72782D01*
X105282Y73419D01*
X104450Y73764D01*
D02*
G37*
G36*
X151950Y73264D02*
X151050D01*
X150218Y72919D01*
X149581Y72282D01*
X149236Y71450D01*
Y70550D01*
X149581Y69718D01*
X150218Y69081D01*
X151050Y68736D01*
X151950D01*
X152782Y69081D01*
X153419Y69718D01*
X153764Y70550D01*
Y71450D01*
X153419Y72282D01*
X152782Y72919D01*
X151950Y73264D01*
D02*
G37*
G36*
X145461Y70606D02*
X143394D01*
Y68539D01*
X143490D01*
X144394Y68914D01*
X145086Y69606D01*
X145461Y70511D01*
Y70606D01*
D02*
G37*
G36*
X142606D02*
X140539D01*
Y70511D01*
X140914Y69606D01*
X141606Y68914D01*
X142510Y68539D01*
X142606D01*
Y70606D01*
D02*
G37*
G36*
X136961D02*
X134894D01*
Y68539D01*
X134990D01*
X135894Y68914D01*
X136586Y69606D01*
X136961Y70511D01*
Y70606D01*
D02*
G37*
G36*
X134106D02*
X132039D01*
Y70511D01*
X132414Y69606D01*
X133106Y68914D01*
X134011Y68539D01*
X134106D01*
Y70606D01*
D02*
G37*
G36*
X80536Y71794D02*
X79636D01*
X78804Y71450D01*
X78167Y70813D01*
X77822Y69981D01*
Y69080D01*
X78167Y68248D01*
X78804Y67611D01*
X79636Y67267D01*
X80536D01*
X81368Y67611D01*
X82005Y68248D01*
X82350Y69080D01*
Y69981D01*
X82005Y70813D01*
X81368Y71450D01*
X80536Y71794D01*
D02*
G37*
G36*
X74450Y71764D02*
X73550D01*
X72718Y71419D01*
X72081Y70782D01*
X71736Y69950D01*
Y69050D01*
X72081Y68218D01*
X72718Y67581D01*
X73550Y67236D01*
X74450D01*
X75282Y67581D01*
X75919Y68218D01*
X76264Y69050D01*
Y69950D01*
X75919Y70782D01*
X75282Y71419D01*
X74450Y71764D01*
D02*
G37*
G36*
X34450D02*
X33550D01*
X32718Y71419D01*
X32081Y70782D01*
X31736Y69950D01*
Y69050D01*
X32081Y68218D01*
X32718Y67581D01*
X33550Y67236D01*
X34450D01*
X35282Y67581D01*
X35919Y68218D01*
X36264Y69050D01*
Y69950D01*
X35919Y70782D01*
X35282Y71419D01*
X34450Y71764D01*
D02*
G37*
G36*
X70961Y69106D02*
X68894D01*
Y67039D01*
X68989D01*
X69894Y67414D01*
X70586Y68106D01*
X70961Y69011D01*
Y69106D01*
D02*
G37*
G36*
X68106D02*
X66039D01*
Y69011D01*
X66414Y68106D01*
X67106Y67414D01*
X68011Y67039D01*
X68106D01*
Y69106D01*
D02*
G37*
G36*
X41950Y71264D02*
X41050D01*
X40218Y70919D01*
X39581Y70282D01*
X39236Y69450D01*
Y68550D01*
X39581Y67718D01*
X40218Y67081D01*
X41050Y66736D01*
X41950D01*
X42782Y67081D01*
X43419Y67718D01*
X43764Y68550D01*
Y69450D01*
X43419Y70282D01*
X42782Y70919D01*
X41950Y71264D01*
D02*
G37*
G36*
X263223Y71634D02*
X262368D01*
X261542Y71412D01*
X260801Y70985D01*
X260196Y70380D01*
X259769Y69639D01*
X259547Y68813D01*
Y67958D01*
X259769Y67132D01*
X260196Y66391D01*
X260801Y65787D01*
X261542Y65359D01*
X262368Y65138D01*
X263223D01*
X264049Y65359D01*
X264790Y65787D01*
X265394Y66391D01*
X265822Y67132D01*
X266043Y67958D01*
Y68813D01*
X265822Y69639D01*
X265394Y70380D01*
X264790Y70985D01*
X264049Y71412D01*
X263223Y71634D01*
D02*
G37*
G36*
X253223D02*
X252368D01*
X251542Y71412D01*
X250801Y70985D01*
X250196Y70380D01*
X249769Y69639D01*
X249547Y68813D01*
Y67958D01*
X249769Y67132D01*
X250196Y66391D01*
X250801Y65787D01*
X251542Y65359D01*
X252368Y65138D01*
X253223D01*
X254049Y65359D01*
X254790Y65787D01*
X255394Y66391D01*
X255822Y67132D01*
X256043Y67958D01*
Y68813D01*
X255822Y69639D01*
X255394Y70380D01*
X254790Y70985D01*
X254049Y71412D01*
X253223Y71634D01*
D02*
G37*
G36*
X23223D02*
X22368D01*
X21542Y71412D01*
X20801Y70985D01*
X20196Y70380D01*
X19769Y69639D01*
X19547Y68813D01*
Y67958D01*
X19769Y67132D01*
X20196Y66391D01*
X20801Y65787D01*
X21542Y65359D01*
X22368Y65138D01*
X23223D01*
X24049Y65359D01*
X24790Y65787D01*
X25394Y66391D01*
X25822Y67132D01*
X26043Y67958D01*
Y68813D01*
X25822Y69639D01*
X25394Y70380D01*
X24790Y70985D01*
X24049Y71412D01*
X23223Y71634D01*
D02*
G37*
G36*
X13223D02*
X12368D01*
X11542Y71412D01*
X10801Y70985D01*
X10196Y70380D01*
X9769Y69639D01*
X9547Y68813D01*
Y67958D01*
X9769Y67132D01*
X10196Y66391D01*
X10801Y65787D01*
X11542Y65359D01*
X12368Y65138D01*
X13223D01*
X14049Y65359D01*
X14790Y65787D01*
X15394Y66391D01*
X15822Y67132D01*
X16043Y67958D01*
Y68813D01*
X15822Y69639D01*
X15394Y70380D01*
X14790Y70985D01*
X14049Y71412D01*
X13223Y71634D01*
D02*
G37*
G36*
X220450Y60264D02*
X219550D01*
X218718Y59919D01*
X218081Y59282D01*
X217736Y58450D01*
Y57550D01*
X218081Y56718D01*
X218718Y56081D01*
X219550Y55736D01*
X220450D01*
X221282Y56081D01*
X221919Y56718D01*
X222264Y57550D01*
Y58450D01*
X221919Y59282D01*
X221282Y59919D01*
X220450Y60264D01*
D02*
G37*
G36*
X263223Y61634D02*
X262368D01*
X261542Y61413D01*
X260801Y60985D01*
X260196Y60380D01*
X259769Y59640D01*
X259547Y58813D01*
Y57958D01*
X259769Y57132D01*
X260196Y56392D01*
X260801Y55787D01*
X261542Y55359D01*
X262368Y55138D01*
X263223D01*
X264049Y55359D01*
X264790Y55787D01*
X265394Y56392D01*
X265822Y57132D01*
X266043Y57958D01*
Y58813D01*
X265822Y59640D01*
X265394Y60380D01*
X264790Y60985D01*
X264049Y61413D01*
X263223Y61634D01*
D02*
G37*
G36*
X253223D02*
X252368D01*
X251542Y61413D01*
X250801Y60985D01*
X250196Y60380D01*
X249769Y59640D01*
X249547Y58813D01*
Y57958D01*
X249769Y57132D01*
X250196Y56392D01*
X250801Y55787D01*
X251542Y55359D01*
X252368Y55138D01*
X253223D01*
X254049Y55359D01*
X254790Y55787D01*
X255394Y56392D01*
X255822Y57132D01*
X256043Y57958D01*
Y58813D01*
X255822Y59640D01*
X255394Y60380D01*
X254790Y60985D01*
X254049Y61413D01*
X253223Y61634D01*
D02*
G37*
G36*
X23223D02*
X22368D01*
X21542Y61413D01*
X20801Y60985D01*
X20196Y60380D01*
X19769Y59640D01*
X19547Y58813D01*
Y57958D01*
X19769Y57132D01*
X20196Y56392D01*
X20801Y55787D01*
X21542Y55359D01*
X22368Y55138D01*
X23223D01*
X24049Y55359D01*
X24790Y55787D01*
X25394Y56392D01*
X25822Y57132D01*
X26043Y57958D01*
Y58813D01*
X25822Y59640D01*
X25394Y60380D01*
X24790Y60985D01*
X24049Y61413D01*
X23223Y61634D01*
D02*
G37*
G36*
X13223D02*
X12368D01*
X11542Y61413D01*
X10801Y60985D01*
X10196Y60380D01*
X9769Y59640D01*
X9547Y58813D01*
Y57958D01*
X9769Y57132D01*
X10196Y56392D01*
X10801Y55787D01*
X11542Y55359D01*
X12368Y55138D01*
X13223D01*
X14049Y55359D01*
X14790Y55787D01*
X15394Y56392D01*
X15822Y57132D01*
X16043Y57958D01*
Y58813D01*
X15822Y59640D01*
X15394Y60380D01*
X14790Y60985D01*
X14049Y61413D01*
X13223Y61634D01*
D02*
G37*
G36*
X205950Y54264D02*
X205050D01*
X204218Y53919D01*
X203581Y53282D01*
X203236Y52450D01*
Y51550D01*
X203581Y50718D01*
X204218Y50081D01*
X205050Y49736D01*
X205950D01*
X206782Y50081D01*
X207419Y50718D01*
X207764Y51550D01*
Y52450D01*
X207419Y53282D01*
X206782Y53919D01*
X205950Y54264D01*
D02*
G37*
G36*
X80489Y51461D02*
X80394D01*
Y49394D01*
X82461D01*
Y49489D01*
X82086Y50394D01*
X81394Y51086D01*
X80489Y51461D01*
D02*
G37*
G36*
X79606D02*
X79511D01*
X78606Y51086D01*
X77914Y50394D01*
X77539Y49489D01*
Y49394D01*
X79606D01*
Y51461D01*
D02*
G37*
G36*
X95450Y53764D02*
X94550D01*
X93718Y53419D01*
X93081Y52782D01*
X92736Y51950D01*
Y51050D01*
X93081Y50218D01*
X93718Y49581D01*
X94550Y49236D01*
X95450D01*
X96282Y49581D01*
X96919Y50218D01*
X97264Y51050D01*
Y51950D01*
X96919Y52782D01*
X96282Y53419D01*
X95450Y53764D01*
D02*
G37*
G36*
X82461Y48606D02*
X80394D01*
Y46539D01*
X80489D01*
X81394Y46914D01*
X82086Y47606D01*
X82461Y48511D01*
Y48606D01*
D02*
G37*
G36*
X79606D02*
X77539D01*
Y48511D01*
X77914Y47606D01*
X78606Y46914D01*
X79511Y46539D01*
X79606D01*
Y48606D01*
D02*
G37*
G36*
X242450Y50764D02*
X241550D01*
X240718Y50419D01*
X240081Y49782D01*
X239736Y48950D01*
Y48050D01*
X240081Y47218D01*
X240718Y46581D01*
X241550Y46236D01*
X242450D01*
X243282Y46581D01*
X243919Y47218D01*
X244264Y48050D01*
Y48950D01*
X243919Y49782D01*
X243282Y50419D01*
X242450Y50764D01*
D02*
G37*
G36*
X235450D02*
X234550D01*
X233718Y50419D01*
X233081Y49782D01*
X232736Y48950D01*
Y48050D01*
X233081Y47218D01*
X233718Y46581D01*
X234550Y46236D01*
X235450D01*
X236282Y46581D01*
X236919Y47218D01*
X237264Y48050D01*
Y48950D01*
X236919Y49782D01*
X236282Y50419D01*
X235450Y50764D01*
D02*
G37*
G36*
X263223Y51634D02*
X262368D01*
X261542Y51412D01*
X260801Y50985D01*
X260196Y50380D01*
X259769Y49639D01*
X259547Y48813D01*
Y47958D01*
X259769Y47132D01*
X260196Y46391D01*
X260801Y45787D01*
X261542Y45359D01*
X262368Y45138D01*
X263223D01*
X264049Y45359D01*
X264790Y45787D01*
X265394Y46391D01*
X265822Y47132D01*
X266043Y47958D01*
Y48813D01*
X265822Y49639D01*
X265394Y50380D01*
X264790Y50985D01*
X264049Y51412D01*
X263223Y51634D01*
D02*
G37*
G36*
X253223D02*
X252368D01*
X251542Y51412D01*
X250801Y50985D01*
X250196Y50380D01*
X249769Y49639D01*
X249547Y48813D01*
Y47958D01*
X249769Y47132D01*
X250196Y46391D01*
X250801Y45787D01*
X251542Y45359D01*
X252368Y45138D01*
X253223D01*
X254049Y45359D01*
X254790Y45787D01*
X255394Y46391D01*
X255822Y47132D01*
X256043Y47958D01*
Y48813D01*
X255822Y49639D01*
X255394Y50380D01*
X254790Y50985D01*
X254049Y51412D01*
X253223Y51634D01*
D02*
G37*
G36*
X23223D02*
X22368D01*
X21542Y51412D01*
X20801Y50985D01*
X20196Y50380D01*
X19769Y49639D01*
X19547Y48813D01*
Y47958D01*
X19769Y47132D01*
X20196Y46391D01*
X20801Y45787D01*
X21542Y45359D01*
X22368Y45138D01*
X23223D01*
X24049Y45359D01*
X24790Y45787D01*
X25394Y46391D01*
X25822Y47132D01*
X26043Y47958D01*
Y48813D01*
X25822Y49639D01*
X25394Y50380D01*
X24790Y50985D01*
X24049Y51412D01*
X23223Y51634D01*
D02*
G37*
G36*
X13223D02*
X12368D01*
X11542Y51412D01*
X10801Y50985D01*
X10196Y50380D01*
X9769Y49639D01*
X9547Y48813D01*
Y47958D01*
X9769Y47132D01*
X10196Y46391D01*
X10801Y45787D01*
X11542Y45359D01*
X12368Y45138D01*
X13223D01*
X14049Y45359D01*
X14790Y45787D01*
X15394Y46391D01*
X15822Y47132D01*
X16043Y47958D01*
Y48813D01*
X15822Y49639D01*
X15394Y50380D01*
X14790Y50985D01*
X14049Y51412D01*
X13223Y51634D01*
D02*
G37*
G36*
X65450Y39264D02*
X64550D01*
X63718Y38919D01*
X63081Y38282D01*
X62736Y37450D01*
Y36550D01*
X63081Y35718D01*
X63718Y35081D01*
X64550Y34736D01*
X65450D01*
X66282Y35081D01*
X66919Y35718D01*
X67264Y36550D01*
Y37450D01*
X66919Y38282D01*
X66282Y38919D01*
X65450Y39264D01*
D02*
G37*
G36*
X173826Y51476D02*
X171765D01*
X169730Y51154D01*
X167770Y50517D01*
X165934Y49582D01*
X164267Y48371D01*
X162810Y46914D01*
X161599Y45247D01*
X160664Y43411D01*
X160027Y41451D01*
X159705Y39416D01*
Y37356D01*
X160027Y35320D01*
X160664Y33361D01*
X161599Y31525D01*
X162810Y29858D01*
X164267Y28401D01*
X165934Y27190D01*
X167770Y26254D01*
X169730Y25618D01*
X171765Y25295D01*
X173826D01*
X175861Y25618D01*
X177820Y26254D01*
X179656Y27190D01*
X181323Y28401D01*
X182780Y29858D01*
X183991Y31525D01*
X184927Y33361D01*
X185564Y35320D01*
X185886Y37356D01*
Y39416D01*
X185564Y41451D01*
X184927Y43411D01*
X183991Y45247D01*
X182780Y46914D01*
X181323Y48371D01*
X179656Y49582D01*
X177820Y50517D01*
X175861Y51154D01*
X173826Y51476D01*
D02*
G37*
G36*
X90489Y24961D02*
X90394D01*
Y22894D01*
X92461D01*
Y22989D01*
X92086Y23894D01*
X91394Y24586D01*
X90489Y24961D01*
D02*
G37*
G36*
X89606D02*
X89511D01*
X88606Y24586D01*
X87914Y23894D01*
X87539Y22989D01*
Y22894D01*
X89606D01*
Y24961D01*
D02*
G37*
G36*
X92461Y22106D02*
X90394D01*
Y20039D01*
X90489D01*
X91394Y20414D01*
X92086Y21106D01*
X92461Y22011D01*
Y22106D01*
D02*
G37*
G36*
X89606D02*
X87539D01*
Y22011D01*
X87914Y21106D01*
X88606Y20414D01*
X89511Y20039D01*
X89606D01*
Y22106D01*
D02*
G37*
G36*
X90489Y17961D02*
X90394D01*
Y15894D01*
X92461D01*
Y15989D01*
X92086Y16894D01*
X91394Y17586D01*
X90489Y17961D01*
D02*
G37*
G36*
X89606D02*
X89511D01*
X88606Y17586D01*
X87914Y16894D01*
X87539Y15989D01*
Y15894D01*
X89606D01*
Y17961D01*
D02*
G37*
G36*
X146450Y20264D02*
X145550D01*
X144718Y19919D01*
X144081Y19282D01*
X143736Y18450D01*
Y17550D01*
X144081Y16718D01*
X144718Y16081D01*
X145550Y15736D01*
X146450D01*
X147282Y16081D01*
X147919Y16718D01*
X148264Y17550D01*
Y18450D01*
X147919Y19282D01*
X147282Y19919D01*
X146450Y20264D01*
D02*
G37*
G36*
X92461Y15106D02*
X90394D01*
Y13039D01*
X90489D01*
X91394Y13414D01*
X92086Y14106D01*
X92461Y15011D01*
Y15106D01*
D02*
G37*
G36*
X89606D02*
X87539D01*
Y15011D01*
X87914Y14106D01*
X88606Y13414D01*
X89511Y13039D01*
X89606D01*
Y15106D01*
D02*
G37*
G36*
X90489Y10961D02*
X90394D01*
Y8894D01*
X92461D01*
Y8989D01*
X92086Y9894D01*
X91394Y10586D01*
X90489Y10961D01*
D02*
G37*
G36*
X89606D02*
X89511D01*
X88606Y10586D01*
X87914Y9894D01*
X87539Y8989D01*
Y8894D01*
X89606D01*
Y10961D01*
D02*
G37*
G36*
X256936Y32776D02*
X254875D01*
X252840Y32453D01*
X250881Y31817D01*
X249045Y30881D01*
X247378Y29670D01*
X245921Y28213D01*
X244709Y26546D01*
X243774Y24710D01*
X243137Y22750D01*
X242815Y20715D01*
Y18655D01*
X243137Y16620D01*
X243774Y14660D01*
X244709Y12824D01*
X245921Y11157D01*
X247378Y9700D01*
X249045Y8489D01*
X250881Y7553D01*
X252840Y6917D01*
X254875Y6594D01*
X256936D01*
X258971Y6917D01*
X260930Y7553D01*
X262766Y8489D01*
X264433Y9700D01*
X265890Y11157D01*
X267102Y12824D01*
X268037Y14660D01*
X268674Y16620D01*
X268996Y18655D01*
Y20715D01*
X268674Y22750D01*
X268037Y24710D01*
X267102Y26546D01*
X265890Y28213D01*
X264433Y29670D01*
X262766Y30881D01*
X260930Y31817D01*
X258971Y32453D01*
X256936Y32776D01*
D02*
G37*
G36*
X20715D02*
X18655D01*
X16620Y32453D01*
X14660Y31817D01*
X12824Y30881D01*
X11157Y29670D01*
X9700Y28213D01*
X8489Y26546D01*
X7553Y24710D01*
X6917Y22750D01*
X6594Y20715D01*
Y18655D01*
X6917Y16620D01*
X7553Y14660D01*
X8489Y12824D01*
X9700Y11157D01*
X11157Y9700D01*
X12824Y8489D01*
X14660Y7553D01*
X16620Y6917D01*
X18655Y6594D01*
X20715D01*
X22750Y6917D01*
X24710Y7553D01*
X26546Y8489D01*
X28213Y9700D01*
X29670Y11157D01*
X30881Y12824D01*
X31817Y14660D01*
X32453Y16620D01*
X32776Y18655D01*
Y20715D01*
X32453Y22750D01*
X31817Y24710D01*
X30881Y26546D01*
X29670Y28213D01*
X28213Y29670D01*
X26546Y30881D01*
X24710Y31817D01*
X22750Y32453D01*
X20715Y32776D01*
D02*
G37*
G36*
X61450Y10764D02*
X60550D01*
X59718Y10419D01*
X59081Y9782D01*
X58736Y8950D01*
Y8050D01*
X59081Y7218D01*
X59718Y6581D01*
X60550Y6236D01*
X61450D01*
X62282Y6581D01*
X62919Y7218D01*
X63264Y8050D01*
Y8950D01*
X62919Y9782D01*
X62282Y10419D01*
X61450Y10764D01*
D02*
G37*
G36*
X92461Y8106D02*
X90394D01*
Y6039D01*
X90489D01*
X91394Y6414D01*
X92086Y7106D01*
X92461Y8011D01*
Y8106D01*
D02*
G37*
G36*
X89606D02*
X87539D01*
Y8011D01*
X87914Y7106D01*
X88606Y6414D01*
X89511Y6039D01*
X89606D01*
Y8106D01*
D02*
G37*
%LPD*%
D56*
X104100Y552300D02*
D03*
X184106Y552292D02*
D03*
X144106D02*
D03*
D58*
X92289Y552300D02*
D03*
X172294Y552292D02*
D03*
X132294D02*
D03*
D59*
X63307Y116425D02*
D03*
D62*
X22795Y158386D02*
D03*
Y118386D02*
D03*
Y58386D02*
D03*
D63*
X133500Y436500D02*
D03*
X135500Y461000D02*
D03*
X139500Y494500D02*
D03*
X237500Y211000D02*
D03*
Y215685D02*
D03*
X164795Y309227D02*
D03*
X78500Y263000D02*
D03*
X96000Y222500D02*
D03*
X152500Y269000D02*
D03*
X235000Y74500D02*
D03*
X52000Y108500D02*
D03*
X134500Y71000D02*
D03*
X90000Y22500D02*
D03*
Y15500D02*
D03*
Y8500D02*
D03*
X183500Y82000D02*
D03*
X166500Y90500D02*
D03*
X166000Y98500D02*
D03*
X143000Y71000D02*
D03*
X68500Y69500D02*
D03*
X80000Y49000D02*
D03*
X194911Y427911D02*
D03*
X230000Y533500D02*
D03*
X46000Y97500D02*
D03*
X69500Y456500D02*
D03*
X80100Y397900D02*
D03*
X172500Y269000D02*
D03*
X162500D02*
D03*
X142500D02*
D03*
X132500D02*
D03*
X122500D02*
D03*
X112500D02*
D03*
X102500D02*
D03*
X78500Y271000D02*
D03*
X36500Y100500D02*
D03*
X94500Y282500D02*
D03*
X150284Y461500D02*
D03*
X147000Y494500D02*
D03*
X178000Y355500D02*
D03*
X131626Y389000D02*
D03*
X167000Y333486D02*
D03*
X163500Y362000D02*
D03*
X176500Y194500D02*
D03*
X168000Y187500D02*
D03*
X209500Y455000D02*
D03*
X186000Y515000D02*
D03*
X171000D02*
D03*
X77000Y455500D02*
D03*
X147374Y389000D02*
D03*
X115952Y515000D02*
D03*
X84000Y514500D02*
D03*
D66*
X139500Y465000D02*
Y494500D01*
X135500Y461000D02*
X139500Y465000D01*
X38500Y135500D02*
X46000Y128000D01*
X38500Y135500D02*
Y217000D01*
X59000Y237500D01*
X78500Y263000D02*
Y271000D01*
X55000Y370000D02*
X75000D01*
X45000Y360000D02*
X55000Y370000D01*
X75000D02*
X86500Y381500D01*
Y401000D01*
X65000Y422500D02*
X86500Y401000D01*
X65000Y422500D02*
Y452000D01*
X235000Y74500D02*
X243000Y82500D01*
Y198500D01*
X215000Y226500D02*
X243000Y198500D01*
X46000Y97500D02*
Y128000D01*
X215000Y226500D02*
Y247500D01*
X228500Y261000D01*
Y379529D01*
X65000Y452000D02*
X69500Y456500D01*
X59000Y237500D02*
Y249898D01*
X45000Y263898D02*
X59000Y249898D01*
X45000Y263898D02*
Y360000D01*
X36338Y100662D02*
X36500Y100500D01*
X22795Y118386D02*
X36338Y104843D01*
Y100662D02*
Y104843D01*
X77000Y455500D02*
Y507500D01*
X84000Y514500D01*
X22795Y58386D02*
X23557D01*
X150284Y461500D02*
Y461729D01*
X147000Y465013D02*
Y494500D01*
Y465013D02*
X150284Y461729D01*
X167000Y333486D02*
Y345993D01*
X163500Y349493D02*
Y362000D01*
Y349493D02*
X167000Y345993D01*
X209500Y455000D02*
Y491500D01*
X186000Y515000D02*
X209500Y491500D01*
D68*
X127000Y434500D02*
Y498000D01*
X136500Y507500D01*
X127000Y434500D02*
X136000Y425500D01*
X131626Y389000D02*
X136000Y393374D01*
X136500Y507500D02*
Y548087D01*
X136000Y393374D02*
Y425500D01*
X132294Y552292D02*
X136500Y548087D01*
X143500Y392874D02*
X147374Y389000D01*
X143500Y392874D02*
Y423000D01*
X157000Y436500D01*
X82500Y516000D02*
Y542511D01*
Y516000D02*
X84000Y514500D01*
X82500Y542511D02*
X92289Y552300D01*
X19500Y376000D02*
X70500D01*
X80100Y385600D01*
X7500Y364000D02*
X19500Y376000D01*
X228500Y379529D02*
Y532000D01*
X230000Y533500D01*
X7500Y254500D02*
Y364000D01*
Y254500D02*
X32000Y230000D01*
X80100Y385600D02*
Y397900D01*
X148500Y507000D02*
X157000Y498500D01*
Y436500D02*
Y498500D01*
X148500Y507000D02*
Y547898D01*
X32000Y127591D02*
Y230000D01*
X22795Y118386D02*
X32000Y127591D01*
X178000Y355500D02*
X204471D01*
X228500Y379529D01*
X144106Y552292D02*
X148500Y547898D01*
X184106Y516894D02*
Y552292D01*
Y516894D02*
X186000Y515000D01*
X171000D02*
X172294Y516294D01*
Y552292D01*
X104100Y526852D02*
X115952Y515000D01*
X104100Y526852D02*
Y552300D01*
M02*
