G04*
G04 #@! TF.GenerationSoftware,Altium Limited,Altium Designer,23.7.1 (13)*
G04*
G04 Layer_Color=2752767*
%FSLAX25Y25*%
%MOIN*%
G70*
G04*
G04 #@! TF.SameCoordinates,971C37BE-97D5-4A50-9DA2-DA4AE9E2F4D9*
G04*
G04*
G04 #@! TF.FilePolarity,Positive*
G04*
G01*
G75*
%ADD72C,0.00200*%
%ADD73C,0.00267*%
D72*
X199907Y395214D02*
Y394814D01*
X200707D01*
Y395214D01*
X201107D01*
Y396014D01*
X200707D01*
Y396414D01*
X199907D01*
Y396014D01*
X199507D01*
Y395214D01*
X199907D01*
X84985Y361200D02*
Y362800D01*
X86585D01*
Y361200D01*
X84985D01*
X75143D02*
Y362800D01*
X76743D01*
Y361200D01*
X75143D01*
X65300D02*
Y362800D01*
X66900D01*
Y361200D01*
X65300D01*
X254478Y274900D02*
X254878Y275300D01*
X255278D01*
X254878Y275700D01*
X255278Y276100D01*
X254878D01*
X254478Y276500D01*
X254078Y276100D01*
X253678D01*
X254078Y275700D01*
X253678Y275300D01*
X254078D01*
X254478Y274900D01*
X237470Y268994D02*
X236670Y270595D01*
X238270D01*
X237470Y268994D01*
Y280805D02*
X236670Y282405D01*
X238270D01*
X237470Y280805D01*
X21222Y505700D02*
X21622Y506100D01*
X22022D01*
X21622Y506500D01*
X22022Y506900D01*
X21622D01*
X21222Y507300D01*
X20822Y506900D01*
X20422D01*
X20822Y506500D01*
X20422Y506100D01*
X20822D01*
X21222Y505700D01*
X38230Y511606D02*
X37430Y513205D01*
X39030D01*
X38230Y511606D01*
Y499794D02*
X37430Y501395D01*
X39030D01*
X38230Y499794D01*
X21222Y465700D02*
X21622Y466100D01*
X22022D01*
X21622Y466500D01*
X22022Y466900D01*
X21622D01*
X21222Y467300D01*
X20822Y466900D01*
X20422D01*
X20822Y466500D01*
X20422Y466100D01*
X20822D01*
X21222Y465700D01*
X38230Y471605D02*
X37430Y473206D01*
X39030D01*
X38230Y471605D01*
Y459795D02*
X37430Y461395D01*
X39030D01*
X38230Y459795D01*
X254478Y465700D02*
X254878Y466100D01*
X255278D01*
X254878Y466500D01*
X255278Y466900D01*
X254878D01*
X254478Y467300D01*
X254078Y466900D01*
X253678D01*
X254078Y466500D01*
X253678Y466100D01*
X254078D01*
X254478Y465700D01*
X237470Y459795D02*
X236670Y461395D01*
X238270D01*
X237470Y459795D01*
Y471605D02*
X236670Y473206D01*
X238270D01*
X237470Y471605D01*
X254478Y505700D02*
X254878Y506100D01*
X255278D01*
X254878Y506500D01*
X255278Y506900D01*
X254878D01*
X254478Y507300D01*
X254078Y506900D01*
X253678D01*
X254078Y506500D01*
X253678Y506100D01*
X254078D01*
X254478Y505700D01*
X237470Y499794D02*
X236670Y501395D01*
X238270D01*
X237470Y499794D01*
Y511606D02*
X236670Y513205D01*
X238270D01*
X237470Y511606D01*
X98194Y568508D02*
X98594Y568908D01*
X98994D01*
X98594Y569308D01*
X98994Y569708D01*
X98594D01*
X98194Y570108D01*
X97795Y569708D01*
X97395D01*
X97795Y569308D01*
X97395Y568908D01*
X97795D01*
X98194Y568508D01*
X104100Y551500D02*
X103300Y553100D01*
X104900D01*
X104100Y551500D01*
X92289D02*
X91489Y553100D01*
X93089D01*
X92289Y551500D01*
X178200Y568500D02*
X178600Y568900D01*
X179000D01*
X178600Y569300D01*
X179000Y569700D01*
X178600D01*
X178200Y570100D01*
X177800Y569700D01*
X177400D01*
X177800Y569300D01*
X177400Y568900D01*
X177800D01*
X178200Y568500D01*
X184106Y551492D02*
X183306Y553092D01*
X184906D01*
X184106Y551492D01*
X172294D02*
X171494Y553092D01*
X173094D01*
X172294Y551492D01*
X254478Y314900D02*
X254878Y315300D01*
X255278D01*
X254878Y315700D01*
X255278Y316100D01*
X254878D01*
X254478Y316500D01*
X254078Y316100D01*
X253678D01*
X254078Y315700D01*
X253678Y315300D01*
X254078D01*
X254478Y314900D01*
X237470Y308995D02*
X236670Y310595D01*
X238270D01*
X237470Y308995D01*
Y320806D02*
X236670Y322406D01*
X238270D01*
X237470Y320806D01*
X254478Y425600D02*
X254878Y426000D01*
X255278D01*
X254878Y426400D01*
X255278Y426800D01*
X254878D01*
X254478Y427200D01*
X254078Y426800D01*
X253678D01*
X254078Y426400D01*
X253678Y426000D01*
X254078D01*
X254478Y425600D01*
X237470Y419695D02*
X236670Y421294D01*
X238270D01*
X237470Y419695D01*
Y431505D02*
X236670Y433106D01*
X238270D01*
X237470Y431505D01*
X21222Y358800D02*
X21622Y359200D01*
X22022D01*
X21622Y359600D01*
X22022Y360000D01*
X21622D01*
X21222Y360400D01*
X20822Y360000D01*
X20422D01*
X20822Y359600D01*
X20422Y359200D01*
X20822D01*
X21222Y358800D01*
X38230Y364705D02*
X37430Y366305D01*
X39030D01*
X38230Y364705D01*
Y352894D02*
X37430Y354495D01*
X39030D01*
X38230Y352894D01*
X21222Y318800D02*
X21622Y319200D01*
X22022D01*
X21622Y319600D01*
X22022Y320000D01*
X21622D01*
X21222Y320400D01*
X20822Y320000D01*
X20422D01*
X20822Y319600D01*
X20422Y319200D01*
X20822D01*
X21222Y318800D01*
X38230Y324706D02*
X37430Y326306D01*
X39030D01*
X38230Y324706D01*
Y312895D02*
X37430Y314494D01*
X39030D01*
X38230Y312895D01*
X21222Y278800D02*
X21622Y279200D01*
X22022D01*
X21622Y279600D01*
X22022Y280000D01*
X21622D01*
X21222Y280400D01*
X20822Y280000D01*
X20422D01*
X20822Y279600D01*
X20422Y279200D01*
X20822D01*
X21222Y278800D01*
X38230Y284705D02*
X37430Y286305D01*
X39030D01*
X38230Y284705D01*
Y272895D02*
X37430Y274495D01*
X39030D01*
X38230Y272895D01*
X21222Y425600D02*
X21622Y426000D01*
X22022D01*
X21622Y426400D01*
X22022Y426800D01*
X21622D01*
X21222Y427200D01*
X20822Y426800D01*
X20422D01*
X20822Y426400D01*
X20422Y426000D01*
X20822D01*
X21222Y425600D01*
X38230Y431505D02*
X37430Y433106D01*
X39030D01*
X38230Y431505D01*
Y419695D02*
X37430Y421294D01*
X39030D01*
X38230Y419695D01*
X138200Y568500D02*
X138600Y568900D01*
X139000D01*
X138600Y569300D01*
X139000Y569700D01*
X138600D01*
X138200Y570100D01*
X137800Y569700D01*
X137400D01*
X137800Y569300D01*
X137400Y568900D01*
X137800D01*
X138200Y568500D01*
X144106Y551492D02*
X143306Y553092D01*
X144905D01*
X144106Y551492D01*
X132294D02*
X131494Y553092D01*
X133095D01*
X132294Y551492D01*
X254478Y354900D02*
X254878Y355300D01*
X255278D01*
X254878Y355700D01*
X255278Y356100D01*
X254878D01*
X254478Y356500D01*
X254078Y356100D01*
X253678D01*
X254078Y355700D01*
X253678Y355300D01*
X254078D01*
X254478Y354900D01*
X237470Y348994D02*
X236670Y350594D01*
X238270D01*
X237470Y348994D01*
Y360806D02*
X236670Y362405D01*
X238270D01*
X237470Y360806D01*
X19285Y393301D02*
Y392901D01*
X20085D01*
Y393301D01*
X20485D01*
Y394101D01*
X20085D01*
Y394501D01*
X19285D01*
Y394101D01*
X18885D01*
Y393301D01*
X19285D01*
X255505D02*
Y392901D01*
X256306D01*
Y393301D01*
X256705D01*
Y394101D01*
X256306D01*
Y394501D01*
X255505D01*
Y394101D01*
X255105D01*
Y393301D01*
X255505D01*
X11995Y227586D02*
Y229186D01*
X13595D01*
Y227586D01*
X11995D01*
X21995D02*
Y229186D01*
X23595D01*
Y227586D01*
X21995D01*
X11995Y217586D02*
Y219186D01*
X13595D01*
Y217586D01*
X11995D01*
X21995D02*
Y219186D01*
X23595D01*
Y217586D01*
X21995D01*
X11995Y207586D02*
Y209186D01*
X13595D01*
Y207586D01*
X11995D01*
X21995D02*
Y209186D01*
X23595D01*
Y207586D01*
X21995D01*
X11995Y197586D02*
Y199186D01*
X13595D01*
Y197586D01*
X11995D01*
X21995D02*
Y199186D01*
X23595D01*
Y197586D01*
X21995D01*
X11995Y187586D02*
Y189186D01*
X13595D01*
Y187586D01*
X11995D01*
X21995D02*
Y189186D01*
X23595D01*
Y187586D01*
X21995D01*
X11995Y177586D02*
Y179186D01*
X13595D01*
Y177586D01*
X11995D01*
X21995D02*
Y179186D01*
X23595D01*
Y177586D01*
X21995D01*
X11995Y167586D02*
Y169186D01*
X13595D01*
Y167586D01*
X11995D01*
X21995D02*
Y169186D01*
X23595D01*
Y167586D01*
X21995D01*
X11995Y157586D02*
Y159186D01*
X13595D01*
Y157586D01*
X11995D01*
X21995D02*
Y159186D01*
X23595D01*
Y157586D01*
X21995D01*
X11995Y147586D02*
Y149186D01*
X13595D01*
Y147586D01*
X11995D01*
X21995D02*
Y149186D01*
X23595D01*
Y147586D01*
X21995D01*
X11995Y137586D02*
Y139186D01*
X13595D01*
Y137586D01*
X11995D01*
X21995D02*
Y139186D01*
X23595D01*
Y137586D01*
X21995D01*
X11995Y127586D02*
Y129186D01*
X13595D01*
Y127586D01*
X11995D01*
X21995D02*
Y129186D01*
X23595D01*
Y127586D01*
X21995D01*
X11995Y117586D02*
Y119186D01*
X13595D01*
Y117586D01*
X11995D01*
X21995D02*
Y119186D01*
X23595D01*
Y117586D01*
X21995D01*
X11995Y107586D02*
Y109186D01*
X13595D01*
Y107586D01*
X11995D01*
X21995D02*
Y109186D01*
X23595D01*
Y107586D01*
X21995D01*
X11995Y97586D02*
Y99186D01*
X13595D01*
Y97586D01*
X11995D01*
X21995D02*
Y99186D01*
X23595D01*
Y97586D01*
X21995D01*
X11995Y87586D02*
Y89186D01*
X13595D01*
Y87586D01*
X11995D01*
X21995D02*
Y89186D01*
X23595D01*
Y87586D01*
X21995D01*
X11995Y77586D02*
Y79186D01*
X13595D01*
Y77586D01*
X11995D01*
X21995D02*
Y79186D01*
X23595D01*
Y77586D01*
X21995D01*
X11995Y67586D02*
Y69186D01*
X13595D01*
Y67586D01*
X11995D01*
X21995D02*
Y69186D01*
X23595D01*
Y67586D01*
X21995D01*
X11995Y57586D02*
Y59186D01*
X13595D01*
Y57586D01*
X11995D01*
X21995D02*
Y59186D01*
X23595D01*
Y57586D01*
X21995D01*
X11995Y47586D02*
Y49186D01*
X13595D01*
Y47586D01*
X11995D01*
X21995D02*
Y49186D01*
X23595D01*
Y47586D01*
X21995D01*
X251995Y227586D02*
Y229186D01*
X253595D01*
Y227586D01*
X251995D01*
X261995D02*
Y229186D01*
X263595D01*
Y227586D01*
X261995D01*
X251995Y217586D02*
Y219186D01*
X253595D01*
Y217586D01*
X251995D01*
X261995D02*
Y219186D01*
X263595D01*
Y217586D01*
X261995D01*
X251995Y207586D02*
Y209186D01*
X253595D01*
Y207586D01*
X251995D01*
X261995D02*
Y209186D01*
X263595D01*
Y207586D01*
X261995D01*
X251995Y197586D02*
Y199186D01*
X253595D01*
Y197586D01*
X251995D01*
X261995D02*
Y199186D01*
X263595D01*
Y197586D01*
X261995D01*
X251995Y187586D02*
Y189186D01*
X253595D01*
Y187586D01*
X251995D01*
X261995D02*
Y189186D01*
X263595D01*
Y187586D01*
X261995D01*
X251995Y177586D02*
Y179186D01*
X253595D01*
Y177586D01*
X251995D01*
X261995D02*
Y179186D01*
X263595D01*
Y177586D01*
X261995D01*
X251995Y167586D02*
Y169186D01*
X253595D01*
Y167586D01*
X251995D01*
X261995D02*
Y169186D01*
X263595D01*
Y167586D01*
X261995D01*
X251995Y157586D02*
Y159186D01*
X253595D01*
Y157586D01*
X251995D01*
X261995D02*
Y159186D01*
X263595D01*
Y157586D01*
X261995D01*
X251995Y147586D02*
Y149186D01*
X253595D01*
Y147586D01*
X251995D01*
X261995D02*
Y149186D01*
X263595D01*
Y147586D01*
X261995D01*
X251995Y137586D02*
Y139186D01*
X253595D01*
Y137586D01*
X251995D01*
X261995D02*
Y139186D01*
X263595D01*
Y137586D01*
X261995D01*
X251995Y127586D02*
Y129186D01*
X253595D01*
Y127586D01*
X251995D01*
X261995D02*
Y129186D01*
X263595D01*
Y127586D01*
X261995D01*
X251995Y117586D02*
Y119186D01*
X253595D01*
Y117586D01*
X251995D01*
X261995D02*
Y119186D01*
X263595D01*
Y117586D01*
X261995D01*
X251995Y107586D02*
Y109186D01*
X253595D01*
Y107586D01*
X251995D01*
X261995D02*
Y109186D01*
X263595D01*
Y107586D01*
X261995D01*
X251995Y97586D02*
Y99186D01*
X253595D01*
Y97586D01*
X251995D01*
X261995D02*
Y99186D01*
X263595D01*
Y97586D01*
X261995D01*
X251995Y87586D02*
Y89186D01*
X253595D01*
Y87586D01*
X251995D01*
X261995D02*
Y89186D01*
X263595D01*
Y87586D01*
X261995D01*
X251995Y77586D02*
Y79186D01*
X253595D01*
Y77586D01*
X251995D01*
X261995D02*
Y79186D01*
X263595D01*
Y77586D01*
X261995D01*
X251995Y67586D02*
Y69186D01*
X253595D01*
Y67586D01*
X251995D01*
X261995D02*
Y69186D01*
X263595D01*
Y67586D01*
X261995D01*
X251995Y57586D02*
Y59186D01*
X253595D01*
Y57586D01*
X251995D01*
X261995D02*
Y59186D01*
X263595D01*
Y57586D01*
X261995D01*
X251995Y47586D02*
Y49186D01*
X253595D01*
Y47586D01*
X251995D01*
X261995D02*
Y49186D01*
X263595D01*
Y47586D01*
X261995D01*
X76407Y193025D02*
Y192625D01*
X77207D01*
Y193025D01*
X77607D01*
Y193825D01*
X77207D01*
Y194225D01*
X76407D01*
Y193825D01*
X76007D01*
Y193025D01*
X76407D01*
X232395Y237986D02*
Y237586D01*
X233195D01*
Y237986D01*
X233595D01*
Y238786D01*
X233195D01*
Y239186D01*
X232395D01*
Y238786D01*
X231995D01*
Y237986D01*
X232395D01*
X42395Y242986D02*
Y242586D01*
X43195D01*
Y242986D01*
X43595D01*
Y243786D01*
X43195D01*
Y244186D01*
X42395D01*
Y243786D01*
X41995D01*
Y242986D01*
X42395D01*
X172395Y37986D02*
Y37586D01*
X173195D01*
Y37986D01*
X173595D01*
Y38786D01*
X173195D01*
Y39186D01*
X172395D01*
Y38786D01*
X171995D01*
Y37986D01*
X172395D01*
X255505Y570466D02*
Y570066D01*
X256306D01*
Y570466D01*
X256705D01*
Y571266D01*
X256306D01*
Y571666D01*
X255505D01*
Y571266D01*
X255105D01*
Y570466D01*
X255505D01*
X19285D02*
Y570066D01*
X20085D01*
Y570466D01*
X20485D01*
Y571266D01*
X20085D01*
Y571666D01*
X19285D01*
Y571266D01*
X18885D01*
Y570466D01*
X19285D01*
Y19285D02*
Y18885D01*
X20085D01*
Y19285D01*
X20485D01*
Y20085D01*
X20085D01*
Y20485D01*
X19285D01*
Y20085D01*
X18885D01*
Y19285D01*
X19285D01*
X255505D02*
Y18885D01*
X256306D01*
Y19285D01*
X256705D01*
Y20085D01*
X256306D01*
Y20485D01*
X255505D01*
Y20085D01*
X255105D01*
Y19285D01*
X255505D01*
X132700Y435700D02*
X133100D01*
X133500Y436100D01*
X133900Y435700D01*
X134300D01*
Y436100D01*
X133900Y436500D01*
X134300Y436900D01*
Y437300D01*
X133900D01*
X133500Y436900D01*
X133100Y437300D01*
X132700D01*
Y436900D01*
X133100Y436500D01*
X132700Y436100D01*
Y435700D01*
X134700Y446200D02*
X135100D01*
X135500Y446600D01*
X135900Y446200D01*
X136300D01*
Y446600D01*
X135900Y447000D01*
X136300Y447400D01*
Y447800D01*
X135900D01*
X135500Y447400D01*
X135100Y447800D01*
X134700D01*
Y447400D01*
X135100Y447000D01*
X134700Y446600D01*
Y446200D01*
Y460200D02*
X135100D01*
X135500Y460600D01*
X135900Y460200D01*
X136300D01*
Y460600D01*
X135900Y461000D01*
X136300Y461400D01*
Y461800D01*
X135900D01*
X135500Y461400D01*
X135100Y461800D01*
X134700D01*
Y461400D01*
X135100Y461000D01*
X134700Y460600D01*
Y460200D01*
X138700Y493700D02*
X139100D01*
X139500Y494100D01*
X139900Y493700D01*
X140300D01*
Y494100D01*
X139900Y494500D01*
X140300Y494900D01*
Y495300D01*
X139900D01*
X139500Y494900D01*
X139100Y495300D01*
X138700D01*
Y494900D01*
X139100Y494500D01*
X138700Y494100D01*
Y493700D01*
X148700Y409200D02*
X149100D01*
X149500Y409600D01*
X149900Y409200D01*
X150300D01*
Y409600D01*
X149900Y410000D01*
X150300Y410400D01*
Y410800D01*
X149900D01*
X149500Y410400D01*
X149100Y410800D01*
X148700D01*
Y410400D01*
X149100Y410000D01*
X148700Y409600D01*
Y409200D01*
X150200Y394700D02*
X150600D01*
X151000Y395100D01*
X151400Y394700D01*
X151800D01*
Y395100D01*
X151400Y395500D01*
X151800Y395900D01*
Y396300D01*
X151400D01*
X151000Y395900D01*
X150600Y396300D01*
X150200D01*
Y395900D01*
X150600Y395500D01*
X150200Y395100D01*
Y394700D01*
X143700Y433700D02*
X144100D01*
X144500Y434100D01*
X144900Y433700D01*
X145300D01*
Y434100D01*
X144900Y434500D01*
X145300Y434900D01*
Y435300D01*
X144900D01*
X144500Y434900D01*
X144100Y435300D01*
X143700D01*
Y434900D01*
X144100Y434500D01*
X143700Y434100D01*
Y433700D01*
X95030Y163245D02*
X95430D01*
X95830Y163645D01*
X96230Y163245D01*
X96630D01*
Y163645D01*
X96230Y164045D01*
X96630Y164445D01*
Y164845D01*
X96230D01*
X95830Y164445D01*
X95430Y164845D01*
X95030D01*
Y164445D01*
X95430Y164045D01*
X95030Y163645D01*
Y163245D01*
X43200Y201200D02*
X43600D01*
X44000Y201600D01*
X44400Y201200D01*
X44800D01*
Y201600D01*
X44400Y202000D01*
X44800Y202400D01*
Y202800D01*
X44400D01*
X44000Y202400D01*
X43600Y202800D01*
X43200D01*
Y202400D01*
X43600Y202000D01*
X43200Y201600D01*
Y201200D01*
X46806Y390700D02*
X47206D01*
X47606Y391100D01*
X48006Y390700D01*
X48406D01*
Y391100D01*
X48006Y391500D01*
X48406Y391900D01*
Y392300D01*
X48006D01*
X47606Y391900D01*
X47206Y392300D01*
X46806D01*
Y391900D01*
X47206Y391500D01*
X46806Y391100D01*
Y390700D01*
X50823Y388306D02*
X51223D01*
X51623Y388706D01*
X52023Y388306D01*
X52423D01*
Y388706D01*
X52023Y389106D01*
X52423Y389506D01*
Y389906D01*
X52023D01*
X51623Y389506D01*
X51223Y389906D01*
X50823D01*
Y389506D01*
X51223Y389106D01*
X50823Y388706D01*
Y388306D01*
X99700Y136200D02*
X100100D01*
X100500Y136600D01*
X100900Y136200D01*
X101300D01*
Y136600D01*
X100900Y137000D01*
X101300Y137400D01*
Y137800D01*
X100900D01*
X100500Y137400D01*
X100100Y137800D01*
X99700D01*
Y137400D01*
X100100Y137000D01*
X99700Y136600D01*
Y136200D01*
X112700Y129700D02*
X113100D01*
X113500Y130100D01*
X113900Y129700D01*
X114300D01*
Y130100D01*
X113900Y130500D01*
X114300Y130900D01*
Y131300D01*
X113900D01*
X113500Y130900D01*
X113100Y131300D01*
X112700D01*
Y130900D01*
X113100Y130500D01*
X112700Y130100D01*
Y129700D01*
X75700Y93700D02*
X76100D01*
X76500Y94100D01*
X76900Y93700D01*
X77300D01*
Y94100D01*
X76900Y94500D01*
X77300Y94900D01*
Y95300D01*
X76900D01*
X76500Y94900D01*
X76100Y95300D01*
X75700D01*
Y94900D01*
X76100Y94500D01*
X75700Y94100D01*
Y93700D01*
X236700Y210200D02*
X237100D01*
X237500Y210600D01*
X237900Y210200D01*
X238300D01*
Y210600D01*
X237900Y211000D01*
X238300Y211400D01*
Y211800D01*
X237900D01*
X237500Y211400D01*
X237100Y211800D01*
X236700D01*
Y211400D01*
X237100Y211000D01*
X236700Y210600D01*
Y210200D01*
Y214885D02*
X237100D01*
X237500Y215285D01*
X237900Y214885D01*
X238300D01*
Y215285D01*
X237900Y215685D01*
X238300Y216085D01*
Y216485D01*
X237900D01*
X237500Y216085D01*
X237100Y216485D01*
X236700D01*
Y216085D01*
X237100Y215685D01*
X236700Y215285D01*
Y214885D01*
Y220200D02*
X237100D01*
X237500Y220600D01*
X237900Y220200D01*
X238300D01*
Y220600D01*
X237900Y221000D01*
X238300Y221400D01*
Y221800D01*
X237900D01*
X237500Y221400D01*
X237100Y221800D01*
X236700D01*
Y221400D01*
X237100Y221000D01*
X236700Y220600D01*
Y220200D01*
X189094Y520200D02*
X189494D01*
X189894Y520600D01*
X190294Y520200D01*
X190694D01*
Y520600D01*
X190294Y521000D01*
X190694Y521400D01*
Y521800D01*
X190294D01*
X189894Y521400D01*
X189494Y521800D01*
X189094D01*
Y521400D01*
X189494Y521000D01*
X189094Y520600D01*
Y520200D01*
X209512Y418853D02*
X209912D01*
X210312Y419253D01*
X210712Y418853D01*
X211112D01*
Y419253D01*
X210712Y419653D01*
X211112Y420053D01*
Y420453D01*
X210712D01*
X210312Y420053D01*
X209912Y420453D01*
X209512D01*
Y420053D01*
X209912Y419653D01*
X209512Y419253D01*
Y418853D01*
X218700Y414200D02*
X219100D01*
X219500Y414600D01*
X219900Y414200D01*
X220300D01*
Y414600D01*
X219900Y415000D01*
X220300Y415400D01*
Y415800D01*
X219900D01*
X219500Y415400D01*
X219100Y415800D01*
X218700D01*
Y415400D01*
X219100Y415000D01*
X218700Y414600D01*
Y414200D01*
X213700Y409200D02*
X214100D01*
X214500Y409600D01*
X214900Y409200D01*
X215300D01*
Y409600D01*
X214900Y410000D01*
X215300Y410400D01*
Y410800D01*
X214900D01*
X214500Y410400D01*
X214100Y410800D01*
X213700D01*
Y410400D01*
X214100Y410000D01*
X213700Y409600D01*
Y409200D01*
X257200Y242200D02*
X257600D01*
X258000Y242600D01*
X258400Y242200D01*
X258800D01*
Y242600D01*
X258400Y243000D01*
X258800Y243400D01*
Y243800D01*
X258400D01*
X258000Y243400D01*
X257600Y243800D01*
X257200D01*
Y243400D01*
X257600Y243000D01*
X257200Y242600D01*
Y242200D01*
X119507Y394700D02*
X119907D01*
X120307Y395100D01*
X120707Y394700D01*
X121107D01*
Y395100D01*
X120707Y395500D01*
X121107Y395900D01*
Y396300D01*
X120707D01*
X120307Y395900D01*
X119907Y396300D01*
X119507D01*
Y395900D01*
X119907Y395500D01*
X119507Y395100D01*
Y394700D01*
X127200D02*
X127600D01*
X128000Y395100D01*
X128400Y394700D01*
X128800D01*
Y395100D01*
X128400Y395500D01*
X128800Y395900D01*
Y396300D01*
X128400D01*
X128000Y395900D01*
X127600Y396300D01*
X127200D01*
Y395900D01*
X127600Y395500D01*
X127200Y395100D01*
Y394700D01*
X157200Y405700D02*
X157600D01*
X158000Y406100D01*
X158400Y405700D01*
X158800D01*
Y406100D01*
X158400Y406500D01*
X158800Y406900D01*
Y407300D01*
X158400D01*
X158000Y406900D01*
X157600Y407300D01*
X157200D01*
Y406900D01*
X157600Y406500D01*
X157200Y406100D01*
Y405700D01*
X158175Y394675D02*
X158575D01*
X158975Y395075D01*
X159375Y394675D01*
X159775D01*
Y395075D01*
X159375Y395475D01*
X159775Y395875D01*
Y396275D01*
X159375D01*
X158975Y395875D01*
X158575Y396275D01*
X158175D01*
Y395875D01*
X158575Y395475D01*
X158175Y395075D01*
Y394675D01*
X176781Y311482D02*
X177181D01*
X177581Y311882D01*
X177981Y311482D01*
X178381D01*
Y311882D01*
X177981Y312282D01*
X178381Y312682D01*
Y313082D01*
X177981D01*
X177581Y312682D01*
X177181Y313082D01*
X176781D01*
Y312682D01*
X177181Y312282D01*
X176781Y311882D01*
Y311482D01*
X174949Y306493D02*
X175349D01*
X175749Y306893D01*
X176149Y306493D01*
X176549D01*
Y306893D01*
X176149Y307293D01*
X176549Y307693D01*
Y308093D01*
X176149D01*
X175749Y307693D01*
X175349Y308093D01*
X174949D01*
Y307693D01*
X175349Y307293D01*
X174949Y306893D01*
Y306493D01*
X163995Y308427D02*
X164395D01*
X164795Y308827D01*
X165195Y308427D01*
X165595D01*
Y308827D01*
X165195Y309227D01*
X165595Y309627D01*
Y310027D01*
X165195D01*
X164795Y309627D01*
X164395Y310027D01*
X163995D01*
Y309627D01*
X164395Y309227D01*
X163995Y308827D01*
Y308427D01*
X168200Y315200D02*
X168600D01*
X169000Y315600D01*
X169400Y315200D01*
X169800D01*
Y315600D01*
X169400Y316000D01*
X169800Y316400D01*
Y316800D01*
X169400D01*
X169000Y316400D01*
X168600Y316800D01*
X168200D01*
Y316400D01*
X168600Y316000D01*
X168200Y315600D01*
Y315200D01*
X81200Y309200D02*
X81600D01*
X82000Y309600D01*
X82400Y309200D01*
X82800D01*
Y309600D01*
X82400Y310000D01*
X82800Y310400D01*
Y310800D01*
X82400D01*
X82000Y310400D01*
X81600Y310800D01*
X81200D01*
Y310400D01*
X81600Y310000D01*
X81200Y309600D01*
Y309200D01*
X75700Y307200D02*
X76100D01*
X76500Y307600D01*
X76900Y307200D01*
X77300D01*
Y307600D01*
X76900Y308000D01*
X77300Y308400D01*
Y308800D01*
X76900D01*
X76500Y308400D01*
X76100Y308800D01*
X75700D01*
Y308400D01*
X76100Y308000D01*
X75700Y307600D01*
Y307200D01*
X77700Y262200D02*
X78100D01*
X78500Y262600D01*
X78900Y262200D01*
X79300D01*
Y262600D01*
X78900Y263000D01*
X79300Y263400D01*
Y263800D01*
X78900D01*
X78500Y263400D01*
X78100Y263800D01*
X77700D01*
Y263400D01*
X78100Y263000D01*
X77700Y262600D01*
Y262200D01*
X93700Y246700D02*
X94100D01*
X94500Y247100D01*
X94900Y246700D01*
X95300D01*
Y247100D01*
X94900Y247500D01*
X95300Y247900D01*
Y248300D01*
X94900D01*
X94500Y247900D01*
X94100Y248300D01*
X93700D01*
Y247900D01*
X94100Y247500D01*
X93700Y247100D01*
Y246700D01*
X116700Y253700D02*
X117100D01*
X117500Y254100D01*
X117900Y253700D01*
X118300D01*
Y254100D01*
X117900Y254500D01*
X118300Y254900D01*
Y255300D01*
X117900D01*
X117500Y254900D01*
X117100Y255300D01*
X116700D01*
Y254900D01*
X117100Y254500D01*
X116700Y254100D01*
Y253700D01*
X116430Y248392D02*
X116830D01*
X117230Y248792D01*
X117630Y248392D01*
X118030D01*
Y248792D01*
X117630Y249192D01*
X118030Y249592D01*
Y249992D01*
X117630D01*
X117230Y249592D01*
X116830Y249992D01*
X116430D01*
Y249592D01*
X116830Y249192D01*
X116430Y248792D01*
Y248392D01*
X185789Y171789D02*
X186189D01*
X186589Y172189D01*
X186989Y171789D01*
X187389D01*
Y172189D01*
X186989Y172589D01*
X187389Y172989D01*
Y173389D01*
X186989D01*
X186589Y172989D01*
X186189Y173389D01*
X185789D01*
Y172989D01*
X186189Y172589D01*
X185789Y172189D01*
Y171789D01*
X184700Y166200D02*
X185100D01*
X185500Y166600D01*
X185900Y166200D01*
X186300D01*
Y166600D01*
X185900Y167000D01*
X186300Y167400D01*
Y167800D01*
X185900D01*
X185500Y167400D01*
X185100Y167800D01*
X184700D01*
Y167400D01*
X185100Y167000D01*
X184700Y166600D01*
Y166200D01*
X194700Y90700D02*
X195100D01*
X195500Y91100D01*
X195900Y90700D01*
X196300D01*
Y91100D01*
X195900Y91500D01*
X196300Y91900D01*
Y92300D01*
X195900D01*
X195500Y91900D01*
X195100Y92300D01*
X194700D01*
Y91900D01*
X195100Y91500D01*
X194700Y91100D01*
Y90700D01*
X154700Y103700D02*
X155100D01*
X155500Y104100D01*
X155900Y103700D01*
X156300D01*
Y104100D01*
X155900Y104500D01*
X156300Y104900D01*
Y105300D01*
X155900D01*
X155500Y104900D01*
X155100Y105300D01*
X154700D01*
Y104900D01*
X155100Y104500D01*
X154700Y104100D01*
Y103700D01*
X153700Y115200D02*
X154100D01*
X154500Y115600D01*
X154900Y115200D01*
X155300D01*
Y115600D01*
X154900Y116000D01*
X155300Y116400D01*
Y116800D01*
X154900D01*
X154500Y116400D01*
X154100Y116800D01*
X153700D01*
Y116400D01*
X154100Y116000D01*
X153700Y115600D01*
Y115200D01*
X180200Y222200D02*
X180600D01*
X181000Y222600D01*
X181400Y222200D01*
X181800D01*
Y222600D01*
X181400Y223000D01*
X181800Y223400D01*
Y223800D01*
X181400D01*
X181000Y223400D01*
X180600Y223800D01*
X180200D01*
Y223400D01*
X180600Y223000D01*
X180200Y222600D01*
Y222200D01*
X85200Y370700D02*
X85600D01*
X86000Y371100D01*
X86400Y370700D01*
X86800D01*
Y371100D01*
X86400Y371500D01*
X86800Y371900D01*
Y372300D01*
X86400D01*
X86000Y371900D01*
X85600Y372300D01*
X85200D01*
Y371900D01*
X85600Y371500D01*
X85200Y371100D01*
Y370700D01*
X92200Y329700D02*
X92600D01*
X93000Y330100D01*
X93400Y329700D01*
X93800D01*
Y330100D01*
X93400Y330500D01*
X93800Y330900D01*
Y331300D01*
X93400D01*
X93000Y330900D01*
X92600Y331300D01*
X92200D01*
Y330900D01*
X92600Y330500D01*
X92200Y330100D01*
Y329700D01*
X93700Y296700D02*
X94100D01*
X94500Y297100D01*
X94900Y296700D01*
X95300D01*
Y297100D01*
X94900Y297500D01*
X95300Y297900D01*
Y298300D01*
X94900D01*
X94500Y297900D01*
X94100Y298300D01*
X93700D01*
Y297900D01*
X94100Y297500D01*
X93700Y297100D01*
Y296700D01*
X69200Y295700D02*
X69600D01*
X70000Y296100D01*
X70400Y295700D01*
X70800D01*
Y296100D01*
X70400Y296500D01*
X70800Y296900D01*
Y297300D01*
X70400D01*
X70000Y296900D01*
X69600Y297300D01*
X69200D01*
Y296900D01*
X69600Y296500D01*
X69200Y296100D01*
Y295700D01*
X56700Y406700D02*
X57100D01*
X57500Y407100D01*
X57900Y406700D01*
X58300D01*
Y407100D01*
X57900Y407500D01*
X58300Y407900D01*
Y408300D01*
X57900D01*
X57500Y407900D01*
X57100Y408300D01*
X56700D01*
Y407900D01*
X57100Y407500D01*
X56700Y407100D01*
Y406700D01*
X11700Y436700D02*
X12100D01*
X12500Y437100D01*
X12900Y436700D01*
X13300D01*
Y437100D01*
X12900Y437500D01*
X13300Y437900D01*
Y438300D01*
X12900D01*
X12500Y437900D01*
X12100Y438300D01*
X11700D01*
Y437900D01*
X12100Y437500D01*
X11700Y437100D01*
Y436700D01*
Y455200D02*
X12100D01*
X12500Y455600D01*
X12900Y455200D01*
X13300D01*
Y455600D01*
X12900Y456000D01*
X13300Y456400D01*
Y456800D01*
X12900D01*
X12500Y456400D01*
X12100Y456800D01*
X11700D01*
Y456400D01*
X12100Y456000D01*
X11700Y455600D01*
Y455200D01*
X125200Y411700D02*
X125600D01*
X126000Y412100D01*
X126400Y411700D01*
X126800D01*
Y412100D01*
X126400Y412500D01*
X126800Y412900D01*
Y413300D01*
X126400D01*
X126000Y412900D01*
X125600Y413300D01*
X125200D01*
Y412900D01*
X125600Y412500D01*
X125200Y412100D01*
Y411700D01*
X151700Y416200D02*
X152100D01*
X152500Y416600D01*
X152900Y416200D01*
X153300D01*
Y416600D01*
X152900Y417000D01*
X153300Y417400D01*
Y417800D01*
X152900D01*
X152500Y417400D01*
X152100Y417800D01*
X151700D01*
Y417400D01*
X152100Y417000D01*
X151700Y416600D01*
Y416200D01*
X211700Y299200D02*
X212100D01*
X212500Y299600D01*
X212900Y299200D01*
X213300D01*
Y299600D01*
X212900Y300000D01*
X213300Y300400D01*
Y300800D01*
X212900D01*
X212500Y300400D01*
X212100Y300800D01*
X211700D01*
Y300400D01*
X212100Y300000D01*
X211700Y299600D01*
Y299200D01*
X199200Y340200D02*
X199600D01*
X200000Y340600D01*
X200400Y340200D01*
X200800D01*
Y340600D01*
X200400Y341000D01*
X200800Y341400D01*
Y341800D01*
X200400D01*
X200000Y341400D01*
X199600Y341800D01*
X199200D01*
Y341400D01*
X199600Y341000D01*
X199200Y340600D01*
Y340200D01*
X235700Y161700D02*
X236100D01*
X236500Y162100D01*
X236900Y161700D01*
X237300D01*
Y162100D01*
X236900Y162500D01*
X237300Y162900D01*
Y163300D01*
X236900D01*
X236500Y162900D01*
X236100Y163300D01*
X235700D01*
Y162900D01*
X236100Y162500D01*
X235700Y162100D01*
Y161700D01*
Y172700D02*
X236100D01*
X236500Y173100D01*
X236900Y172700D01*
X237300D01*
Y173100D01*
X236900Y173500D01*
X237300Y173900D01*
Y174300D01*
X236900D01*
X236500Y173900D01*
X236100Y174300D01*
X235700D01*
Y173900D01*
X236100Y173500D01*
X235700Y173100D01*
Y172700D01*
Y183700D02*
X236100D01*
X236500Y184100D01*
X236900Y183700D01*
X237300D01*
Y184100D01*
X236900Y184500D01*
X237300Y184900D01*
Y185300D01*
X236900D01*
X236500Y184900D01*
X236100Y185300D01*
X235700D01*
Y184900D01*
X236100Y184500D01*
X235700Y184100D01*
Y183700D01*
X219700Y116700D02*
X220100D01*
X220500Y117100D01*
X220900Y116700D01*
X221300D01*
Y117100D01*
X220900Y117500D01*
X221300Y117900D01*
Y118300D01*
X220900D01*
X220500Y117900D01*
X220100Y118300D01*
X219700D01*
Y117900D01*
X220100Y117500D01*
X219700Y117100D01*
Y116700D01*
X219200Y57200D02*
X219600D01*
X220000Y57600D01*
X220400Y57200D01*
X220800D01*
Y57600D01*
X220400Y58000D01*
X220800Y58400D01*
Y58800D01*
X220400D01*
X220000Y58400D01*
X219600Y58800D01*
X219200D01*
Y58400D01*
X219600Y58000D01*
X219200Y57600D01*
Y57200D01*
X168700Y71700D02*
X169100D01*
X169500Y72100D01*
X169900Y71700D01*
X170300D01*
Y72100D01*
X169900Y72500D01*
X170300Y72900D01*
Y73300D01*
X169900D01*
X169500Y72900D01*
X169100Y73300D01*
X168700D01*
Y72900D01*
X169100Y72500D01*
X168700Y72100D01*
Y71700D01*
X145200Y17200D02*
X145600D01*
X146000Y17600D01*
X146400Y17200D01*
X146800D01*
Y17600D01*
X146400Y18000D01*
X146800Y18400D01*
Y18800D01*
X146400D01*
X146000Y18400D01*
X145600Y18800D01*
X145200D01*
Y18400D01*
X145600Y18000D01*
X145200Y17600D01*
Y17200D01*
X64200Y36200D02*
X64600D01*
X65000Y36600D01*
X65400Y36200D01*
X65800D01*
Y36600D01*
X65400Y37000D01*
X65800Y37400D01*
Y37800D01*
X65400D01*
X65000Y37400D01*
X64600Y37800D01*
X64200D01*
Y37400D01*
X64600Y37000D01*
X64200Y36600D01*
Y36200D01*
X67700Y85200D02*
X68100D01*
X68500Y85600D01*
X68900Y85200D01*
X69300D01*
Y85600D01*
X68900Y86000D01*
X69300Y86400D01*
Y86800D01*
X68900D01*
X68500Y86400D01*
X68100Y86800D01*
X67700D01*
Y86400D01*
X68100Y86000D01*
X67700Y85600D01*
Y85200D01*
X159700Y139700D02*
X160100D01*
X160500Y140100D01*
X160900Y139700D01*
X161300D01*
Y140100D01*
X160900Y140500D01*
X161300Y140900D01*
Y141300D01*
X160900D01*
X160500Y140900D01*
X160100Y141300D01*
X159700D01*
Y140900D01*
X160100Y140500D01*
X159700Y140100D01*
Y139700D01*
X49200Y152200D02*
X49600D01*
X50000Y152600D01*
X50400Y152200D01*
X50800D01*
Y152600D01*
X50400Y153000D01*
X50800Y153400D01*
Y153800D01*
X50400D01*
X50000Y153400D01*
X49600Y153800D01*
X49200D01*
Y153400D01*
X49600Y153000D01*
X49200Y152600D01*
Y152200D01*
X79691Y238588D02*
X80091D01*
X80491Y238988D01*
X80891Y238588D01*
X81291D01*
Y238988D01*
X80891Y239388D01*
X81291Y239788D01*
Y240188D01*
X80891D01*
X80491Y239788D01*
X80091Y240188D01*
X79691D01*
Y239788D01*
X80091Y239388D01*
X79691Y238988D01*
Y238588D01*
X33700Y381200D02*
X34100D01*
X34500Y381600D01*
X34900Y381200D01*
X35300D01*
Y381600D01*
X34900Y382000D01*
X35300Y382400D01*
Y382800D01*
X34900D01*
X34500Y382400D01*
X34100Y382800D01*
X33700D01*
Y382400D01*
X34100Y382000D01*
X33700Y381600D01*
Y381200D01*
X199200Y372700D02*
X199600D01*
X200000Y373100D01*
X200400Y372700D01*
X200800D01*
Y373100D01*
X200400Y373500D01*
X200800Y373900D01*
Y374300D01*
X200400D01*
X200000Y373900D01*
X199600Y374300D01*
X199200D01*
Y373900D01*
X199600Y373500D01*
X199200Y373100D01*
Y372700D01*
X253700Y369700D02*
X254100D01*
X254500Y370100D01*
X254900Y369700D01*
X255300D01*
Y370100D01*
X254900Y370500D01*
X255300Y370900D01*
Y371300D01*
X254900D01*
X254500Y370900D01*
X254100Y371300D01*
X253700D01*
Y370900D01*
X254100Y370500D01*
X253700Y370100D01*
Y369700D01*
X240200Y525200D02*
X240600D01*
X241000Y525600D01*
X241400Y525200D01*
X241800D01*
Y525600D01*
X241400Y526000D01*
X241800Y526400D01*
Y526800D01*
X241400D01*
X241000Y526400D01*
X240600Y526800D01*
X240200D01*
Y526400D01*
X240600Y526000D01*
X240200Y525600D01*
Y525200D01*
X217700Y508700D02*
X218100D01*
X218500Y509100D01*
X218900Y508700D01*
X219300D01*
Y509100D01*
X218900Y509500D01*
X219300Y509900D01*
Y510300D01*
X218900D01*
X218500Y509900D01*
X218100Y510300D01*
X217700D01*
Y509900D01*
X218100Y509500D01*
X217700Y509100D01*
Y508700D01*
X51700Y521700D02*
X52100D01*
X52500Y522100D01*
X52900Y521700D01*
X53300D01*
Y522100D01*
X52900Y522500D01*
X53300Y522900D01*
Y523300D01*
X52900D01*
X52500Y522900D01*
X52100Y523300D01*
X51700D01*
Y522900D01*
X52100Y522500D01*
X51700Y522100D01*
Y521700D01*
X95200Y221700D02*
X95600D01*
X96000Y222100D01*
X96400Y221700D01*
X96800D01*
Y222100D01*
X96400Y222500D01*
X96800Y222900D01*
Y223300D01*
X96400D01*
X96000Y222900D01*
X95600Y223300D01*
X95200D01*
Y222900D01*
X95600Y222500D01*
X95200Y222100D01*
Y221700D01*
X94200Y50700D02*
X94600D01*
X95000Y51100D01*
X95400Y50700D01*
X95800D01*
Y51100D01*
X95400Y51500D01*
X95800Y51900D01*
Y52300D01*
X95400D01*
X95000Y51900D01*
X94600Y52300D01*
X94200D01*
Y51900D01*
X94600Y51500D01*
X94200Y51100D01*
Y50700D01*
X120700Y84200D02*
X121100D01*
X121500Y84600D01*
X121900Y84200D01*
X122300D01*
Y84600D01*
X121900Y85000D01*
X122300Y85400D01*
Y85800D01*
X121900D01*
X121500Y85400D01*
X121100Y85800D01*
X120700D01*
Y85400D01*
X121100Y85000D01*
X120700Y84600D01*
Y84200D01*
X151700Y268200D02*
X152100D01*
X152500Y268600D01*
X152900Y268200D01*
X153300D01*
Y268600D01*
X152900Y269000D01*
X153300Y269400D01*
Y269800D01*
X152900D01*
X152500Y269400D01*
X152100Y269800D01*
X151700D01*
Y269400D01*
X152100Y269000D01*
X151700Y268600D01*
Y268200D01*
X129700Y147200D02*
X130100D01*
X130500Y147600D01*
X130900Y147200D01*
X131300D01*
Y147600D01*
X130900Y148000D01*
X131300Y148400D01*
Y148800D01*
X130900D01*
X130500Y148400D01*
X130100Y148800D01*
X129700D01*
Y148400D01*
X130100Y148000D01*
X129700Y147600D01*
Y147200D01*
X133200Y141200D02*
X133600D01*
X134000Y141600D01*
X134400Y141200D01*
X134800D01*
Y141600D01*
X134400Y142000D01*
X134800Y142400D01*
Y142800D01*
X134400D01*
X134000Y142400D01*
X133600Y142800D01*
X133200D01*
Y142400D01*
X133600Y142000D01*
X133200Y141600D01*
Y141200D01*
X161700Y159200D02*
X162100D01*
X162500Y159600D01*
X162900Y159200D01*
X163300D01*
Y159600D01*
X162900Y160000D01*
X163300Y160400D01*
Y160800D01*
X162900D01*
X162500Y160400D01*
X162100Y160800D01*
X161700D01*
Y160400D01*
X162100Y160000D01*
X161700Y159600D01*
Y159200D01*
X204700Y51200D02*
X205100D01*
X205500Y51600D01*
X205900Y51200D01*
X206300D01*
Y51600D01*
X205900Y52000D01*
X206300Y52400D01*
Y52800D01*
X205900D01*
X205500Y52400D01*
X205100Y52800D01*
X204700D01*
Y52400D01*
X205100Y52000D01*
X204700Y51600D01*
Y51200D01*
X144537Y170804D02*
X144937D01*
X145337Y171204D01*
X145737Y170804D01*
X146137D01*
Y171204D01*
X145737Y171604D01*
X146137Y172004D01*
Y172404D01*
X145737D01*
X145337Y172004D01*
X144937Y172404D01*
X144537D01*
Y172004D01*
X144937Y171604D01*
X144537Y171204D01*
Y170804D01*
X150200Y167200D02*
X150600D01*
X151000Y167600D01*
X151400Y167200D01*
X151800D01*
Y167600D01*
X151400Y168000D01*
X151800Y168400D01*
Y168800D01*
X151400D01*
X151000Y168400D01*
X150600Y168800D01*
X150200D01*
Y168400D01*
X150600Y168000D01*
X150200Y167600D01*
Y167200D01*
X185700Y131200D02*
X186100D01*
X186500Y131600D01*
X186900Y131200D01*
X187300D01*
Y131600D01*
X186900Y132000D01*
X187300Y132400D01*
Y132800D01*
X186900D01*
X186500Y132400D01*
X186100Y132800D01*
X185700D01*
Y132400D01*
X186100Y132000D01*
X185700Y131600D01*
Y131200D01*
X185200Y156700D02*
X185600D01*
X186000Y157100D01*
X186400Y156700D01*
X186800D01*
Y157100D01*
X186400Y157500D01*
X186800Y157900D01*
Y158300D01*
X186400D01*
X186000Y157900D01*
X185600Y158300D01*
X185200D01*
Y157900D01*
X185600Y157500D01*
X185200Y157100D01*
Y156700D01*
X211700Y202200D02*
X212100D01*
X212500Y202600D01*
X212900Y202200D01*
X213300D01*
Y202600D01*
X212900Y203000D01*
X213300Y203400D01*
Y203800D01*
X212900D01*
X212500Y203400D01*
X212100Y203800D01*
X211700D01*
Y203400D01*
X212100Y203000D01*
X211700Y202600D01*
Y202200D01*
X234200Y73700D02*
X234600D01*
X235000Y74100D01*
X235400Y73700D01*
X235800D01*
Y74100D01*
X235400Y74500D01*
X235800Y74900D01*
Y75300D01*
X235400D01*
X235000Y74900D01*
X234600Y75300D01*
X234200D01*
Y74900D01*
X234600Y74500D01*
X234200Y74100D01*
Y73700D01*
X211200Y80700D02*
X211600D01*
X212000Y81100D01*
X212400Y80700D01*
X212800D01*
Y81100D01*
X212400Y81500D01*
X212800Y81900D01*
Y82300D01*
X212400D01*
X212000Y81900D01*
X211600Y82300D01*
X211200D01*
Y81900D01*
X211600Y81500D01*
X211200Y81100D01*
Y80700D01*
X51200Y107700D02*
X51600D01*
X52000Y108100D01*
X52400Y107700D01*
X52800D01*
Y108100D01*
X52400Y108500D01*
X52800Y108900D01*
Y109300D01*
X52400D01*
X52000Y108900D01*
X51600Y109300D01*
X51200D01*
Y108900D01*
X51600Y108500D01*
X51200Y108100D01*
Y107700D01*
X110700Y86700D02*
X111100D01*
X111500Y87100D01*
X111900Y86700D01*
X112300D01*
Y87100D01*
X111900Y87500D01*
X112300Y87900D01*
Y88300D01*
X111900D01*
X111500Y87900D01*
X111100Y88300D01*
X110700D01*
Y87900D01*
X111100Y87500D01*
X110700Y87100D01*
Y86700D01*
X133700Y70200D02*
X134100D01*
X134500Y70600D01*
X134900Y70200D01*
X135300D01*
Y70600D01*
X134900Y71000D01*
X135300Y71400D01*
Y71800D01*
X134900D01*
X134500Y71400D01*
X134100Y71800D01*
X133700D01*
Y71400D01*
X134100Y71000D01*
X133700Y70600D01*
Y70200D01*
X152200Y84700D02*
X152600D01*
X153000Y85100D01*
X153400Y84700D01*
X153800D01*
Y85100D01*
X153400Y85500D01*
X153800Y85900D01*
Y86300D01*
X153400D01*
X153000Y85900D01*
X152600Y86300D01*
X152200D01*
Y85900D01*
X152600Y85500D01*
X152200Y85100D01*
Y84700D01*
X128700Y103700D02*
X129100D01*
X129500Y104100D01*
X129900Y103700D01*
X130300D01*
Y104100D01*
X129900Y104500D01*
X130300Y104900D01*
Y105300D01*
X129900D01*
X129500Y104900D01*
X129100Y105300D01*
X128700D01*
Y104900D01*
X129100Y104500D01*
X128700Y104100D01*
Y103700D01*
X89200Y21700D02*
X89600D01*
X90000Y22100D01*
X90400Y21700D01*
X90800D01*
Y22100D01*
X90400Y22500D01*
X90800Y22900D01*
Y23300D01*
X90400D01*
X90000Y22900D01*
X89600Y23300D01*
X89200D01*
Y22900D01*
X89600Y22500D01*
X89200Y22100D01*
Y21700D01*
Y14700D02*
X89600D01*
X90000Y15100D01*
X90400Y14700D01*
X90800D01*
Y15100D01*
X90400Y15500D01*
X90800Y15900D01*
Y16300D01*
X90400D01*
X90000Y15900D01*
X89600Y16300D01*
X89200D01*
Y15900D01*
X89600Y15500D01*
X89200Y15100D01*
Y14700D01*
Y7700D02*
X89600D01*
X90000Y8100D01*
X90400Y7700D01*
X90800D01*
Y8100D01*
X90400Y8500D01*
X90800Y8900D01*
Y9300D01*
X90400D01*
X90000Y8900D01*
X89600Y9300D01*
X89200D01*
Y8900D01*
X89600Y8500D01*
X89200Y8100D01*
Y7700D01*
X56700Y119200D02*
X57100D01*
X57500Y119600D01*
X57900Y119200D01*
X58300D01*
Y119600D01*
X57900Y120000D01*
X58300Y120400D01*
Y120800D01*
X57900D01*
X57500Y120400D01*
X57100Y120800D01*
X56700D01*
Y120400D01*
X57100Y120000D01*
X56700Y119600D01*
Y119200D01*
Y106200D02*
X57100D01*
X57500Y106600D01*
X57900Y106200D01*
X58300D01*
Y106600D01*
X57900Y107000D01*
X58300Y107400D01*
Y107800D01*
X57900D01*
X57500Y107400D01*
X57100Y107800D01*
X56700D01*
Y107400D01*
X57100Y107000D01*
X56700Y106600D01*
Y106200D01*
X191700Y152200D02*
X192100D01*
X192500Y152600D01*
X192900Y152200D01*
X193300D01*
Y152600D01*
X192900Y153000D01*
X193300Y153400D01*
Y153800D01*
X192900D01*
X192500Y153400D01*
X192100Y153800D01*
X191700D01*
Y153400D01*
X192100Y153000D01*
X191700Y152600D01*
Y152200D01*
X241200Y47700D02*
X241600D01*
X242000Y48100D01*
X242400Y47700D01*
X242800D01*
Y48100D01*
X242400Y48500D01*
X242800Y48900D01*
Y49300D01*
X242400D01*
X242000Y48900D01*
X241600Y49300D01*
X241200D01*
Y48900D01*
X241600Y48500D01*
X241200Y48100D01*
Y47700D01*
X234200D02*
X234600D01*
X235000Y48100D01*
X235400Y47700D01*
X235800D01*
Y48100D01*
X235400Y48500D01*
X235800Y48900D01*
Y49300D01*
X235400D01*
X235000Y48900D01*
X234600Y49300D01*
X234200D01*
Y48900D01*
X234600Y48500D01*
X234200Y48100D01*
Y47700D01*
X182700Y81200D02*
X183100D01*
X183500Y81600D01*
X183900Y81200D01*
X184300D01*
Y81600D01*
X183900Y82000D01*
X184300Y82400D01*
Y82800D01*
X183900D01*
X183500Y82400D01*
X183100Y82800D01*
X182700D01*
Y82400D01*
X183100Y82000D01*
X182700Y81600D01*
Y81200D01*
X165700Y89700D02*
X166100D01*
X166500Y90100D01*
X166900Y89700D01*
X167300D01*
Y90100D01*
X166900Y90500D01*
X167300Y90900D01*
Y91300D01*
X166900D01*
X166500Y90900D01*
X166100Y91300D01*
X165700D01*
Y90900D01*
X166100Y90500D01*
X165700Y90100D01*
Y89700D01*
X165200Y97700D02*
X165600D01*
X166000Y98100D01*
X166400Y97700D01*
X166800D01*
Y98100D01*
X166400Y98500D01*
X166800Y98900D01*
Y99300D01*
X166400D01*
X166000Y98900D01*
X165600Y99300D01*
X165200D01*
Y98900D01*
X165600Y98500D01*
X165200Y98100D01*
Y97700D01*
X150700Y70200D02*
X151100D01*
X151500Y70600D01*
X151900Y70200D01*
X152300D01*
Y70600D01*
X151900Y71000D01*
X152300Y71400D01*
Y71800D01*
X151900D01*
X151500Y71400D01*
X151100Y71800D01*
X150700D01*
Y71400D01*
X151100Y71000D01*
X150700Y70600D01*
Y70200D01*
X142200D02*
X142600D01*
X143000Y70600D01*
X143400Y70200D01*
X143800D01*
Y70600D01*
X143400Y71000D01*
X143800Y71400D01*
Y71800D01*
X143400D01*
X143000Y71400D01*
X142600Y71800D01*
X142200D01*
Y71400D01*
X142600Y71000D01*
X142200Y70600D01*
Y70200D01*
X103200Y70700D02*
X103600D01*
X104000Y71100D01*
X104400Y70700D01*
X104800D01*
Y71100D01*
X104400Y71500D01*
X104800Y71900D01*
Y72300D01*
X104400D01*
X104000Y71900D01*
X103600Y72300D01*
X103200D01*
Y71900D01*
X103600Y71500D01*
X103200Y71100D01*
Y70700D01*
X67700Y68700D02*
X68100D01*
X68500Y69100D01*
X68900Y68700D01*
X69300D01*
Y69100D01*
X68900Y69500D01*
X69300Y69900D01*
Y70300D01*
X68900D01*
X68500Y69900D01*
X68100Y70300D01*
X67700D01*
Y69900D01*
X68100Y69500D01*
X67700Y69100D01*
Y68700D01*
X79200Y48200D02*
X79600D01*
X80000Y48600D01*
X80400Y48200D01*
X80800D01*
Y48600D01*
X80400Y49000D01*
X80800Y49400D01*
Y49800D01*
X80400D01*
X80000Y49400D01*
X79600Y49800D01*
X79200D01*
Y49400D01*
X79600Y49000D01*
X79200Y48600D01*
Y48200D01*
X194111Y427111D02*
X194511D01*
X194911Y427511D01*
X195311Y427111D01*
X195711D01*
Y427511D01*
X195311Y427911D01*
X195711Y428311D01*
Y428711D01*
X195311D01*
X194911Y428311D01*
X194511Y428711D01*
X194111D01*
Y428311D01*
X194511Y427911D01*
X194111Y427511D01*
Y427111D01*
X40700Y68200D02*
X41100D01*
X41500Y68600D01*
X41900Y68200D01*
X42300D01*
Y68600D01*
X41900Y69000D01*
X42300Y69400D01*
Y69800D01*
X41900D01*
X41500Y69400D01*
X41100Y69800D01*
X40700D01*
Y69400D01*
X41100Y69000D01*
X40700Y68600D01*
Y68200D01*
X33200Y68700D02*
X33600D01*
X34000Y69100D01*
X34400Y68700D01*
X34800D01*
Y69100D01*
X34400Y69500D01*
X34800Y69900D01*
Y70300D01*
X34400D01*
X34000Y69900D01*
X33600Y70300D01*
X33200D01*
Y69900D01*
X33600Y69500D01*
X33200Y69100D01*
Y68700D01*
X79286Y68730D02*
X79686D01*
X80086Y69130D01*
X80486Y68730D01*
X80886D01*
Y69130D01*
X80486Y69530D01*
X80886Y69930D01*
Y70330D01*
X80486D01*
X80086Y69930D01*
X79686Y70330D01*
X79286D01*
Y69930D01*
X79686Y69530D01*
X79286Y69130D01*
Y68730D01*
X73200Y68700D02*
X73600D01*
X74000Y69100D01*
X74400Y68700D01*
X74800D01*
Y69100D01*
X74400Y69500D01*
X74800Y69900D01*
Y70300D01*
X74400D01*
X74000Y69900D01*
X73600Y70300D01*
X73200D01*
Y69900D01*
X73600Y69500D01*
X73200Y69100D01*
Y68700D01*
X216700Y449700D02*
X217100D01*
X217500Y450100D01*
X217900Y449700D01*
X218300D01*
Y450100D01*
X217900Y450500D01*
X218300Y450900D01*
Y451300D01*
X217900D01*
X217500Y450900D01*
X217100Y451300D01*
X216700D01*
Y450900D01*
X217100Y450500D01*
X216700Y450100D01*
Y449700D01*
X229200Y532700D02*
X229600D01*
X230000Y533100D01*
X230400Y532700D01*
X230800D01*
Y533100D01*
X230400Y533500D01*
X230800Y533900D01*
Y534300D01*
X230400D01*
X230000Y533900D01*
X229600Y534300D01*
X229200D01*
Y533900D01*
X229600Y533500D01*
X229200Y533100D01*
Y532700D01*
X115200Y169700D02*
X115600D01*
X116000Y170100D01*
X116400Y169700D01*
X116800D01*
Y170100D01*
X116400Y170500D01*
X116800Y170900D01*
Y171300D01*
X116400D01*
X116000Y170900D01*
X115600Y171300D01*
X115200D01*
Y170900D01*
X115600Y170500D01*
X115200Y170100D01*
Y169700D01*
X61200Y221700D02*
X61600D01*
X62000Y222100D01*
X62400Y221700D01*
X62800D01*
Y222100D01*
X62400Y222500D01*
X62800Y222900D01*
Y223300D01*
X62400D01*
X62000Y222900D01*
X61600Y223300D01*
X61200D01*
Y222900D01*
X61600Y222500D01*
X61200Y222100D01*
Y221700D01*
X247200Y142200D02*
X247600D01*
X248000Y142600D01*
X248400Y142200D01*
X248800D01*
Y142600D01*
X248400Y143000D01*
X248800Y143400D01*
Y143800D01*
X248400D01*
X248000Y143400D01*
X247600Y143800D01*
X247200D01*
Y143400D01*
X247600Y143000D01*
X247200Y142600D01*
Y142200D01*
X100700Y210700D02*
X101100D01*
X101500Y211100D01*
X101900Y210700D01*
X102300D01*
Y211100D01*
X101900Y211500D01*
X102300Y211900D01*
Y212300D01*
X101900D01*
X101500Y211900D01*
X101100Y212300D01*
X100700D01*
Y211900D01*
X101100Y211500D01*
X100700Y211100D01*
Y210700D01*
X61200Y216200D02*
X61600D01*
X62000Y216600D01*
X62400Y216200D01*
X62800D01*
Y216600D01*
X62400Y217000D01*
X62800Y217400D01*
Y217800D01*
X62400D01*
X62000Y217400D01*
X61600Y217800D01*
X61200D01*
Y217400D01*
X61600Y217000D01*
X61200Y216600D01*
Y216200D01*
X82200Y144700D02*
X82600D01*
X83000Y145100D01*
X83400Y144700D01*
X83800D01*
Y145100D01*
X83400Y145500D01*
X83800Y145900D01*
Y146300D01*
X83400D01*
X83000Y145900D01*
X82600Y146300D01*
X82200D01*
Y145900D01*
X82600Y145500D01*
X82200Y145100D01*
Y144700D01*
X45200Y96700D02*
X45600D01*
X46000Y97100D01*
X46400Y96700D01*
X46800D01*
Y97100D01*
X46400Y97500D01*
X46800Y97900D01*
Y98300D01*
X46400D01*
X46000Y97900D01*
X45600Y98300D01*
X45200D01*
Y97900D01*
X45600Y97500D01*
X45200Y97100D01*
Y96700D01*
X71200Y144700D02*
X71600D01*
X72000Y145100D01*
X72400Y144700D01*
X72800D01*
Y145100D01*
X72400Y145500D01*
X72800Y145900D01*
Y146300D01*
X72400D01*
X72000Y145900D01*
X71600Y146300D01*
X71200D01*
Y145900D01*
X71600Y145500D01*
X71200Y145100D01*
Y144700D01*
X73700Y446200D02*
X74100D01*
X74500Y446600D01*
X74900Y446200D01*
X75300D01*
Y446600D01*
X74900Y447000D01*
X75300Y447400D01*
Y447800D01*
X74900D01*
X74500Y447400D01*
X74100Y447800D01*
X73700D01*
Y447400D01*
X74100Y447000D01*
X73700Y446600D01*
Y446200D01*
X68700Y455700D02*
X69100D01*
X69500Y456100D01*
X69900Y455700D01*
X70300D01*
Y456100D01*
X69900Y456500D01*
X70300Y456900D01*
Y457300D01*
X69900D01*
X69500Y456900D01*
X69100Y457300D01*
X68700D01*
Y456900D01*
X69100Y456500D01*
X68700Y456100D01*
Y455700D01*
X40200Y122200D02*
X40600D01*
X41000Y122600D01*
X41400Y122200D01*
X41800D01*
Y122600D01*
X41400Y123000D01*
X41800Y123400D01*
Y123800D01*
X41400D01*
X41000Y123400D01*
X40600Y123800D01*
X40200D01*
Y123400D01*
X40600Y123000D01*
X40200Y122600D01*
Y122200D01*
X51200Y124200D02*
X51600D01*
X52000Y124600D01*
X52400Y124200D01*
X52800D01*
Y124600D01*
X52400Y125000D01*
X52800Y125400D01*
Y125800D01*
X52400D01*
X52000Y125400D01*
X51600Y125800D01*
X51200D01*
Y125400D01*
X51600Y125000D01*
X51200Y124600D01*
Y124200D01*
X79300Y397100D02*
X79700D01*
X80100Y397500D01*
X80500Y397100D01*
X80900D01*
Y397500D01*
X80500Y397900D01*
X80900Y398300D01*
Y398700D01*
X80500D01*
X80100Y398300D01*
X79700Y398700D01*
X79300D01*
Y398300D01*
X79700Y397900D01*
X79300Y397500D01*
Y397100D01*
X34700Y121200D02*
X35100D01*
X35500Y121600D01*
X35900Y121200D01*
X36300D01*
Y121600D01*
X35900Y122000D01*
X36300Y122400D01*
Y122800D01*
X35900D01*
X35500Y122400D01*
X35100Y122800D01*
X34700D01*
Y122400D01*
X35100Y122000D01*
X34700Y121600D01*
Y121200D01*
X146700Y249200D02*
X147100D01*
X147500Y249600D01*
X147900Y249200D01*
X148300D01*
Y249600D01*
X147900Y250000D01*
X148300Y250400D01*
Y250800D01*
X147900D01*
X147500Y250400D01*
X147100Y250800D01*
X146700D01*
Y250400D01*
X147100Y250000D01*
X146700Y249600D01*
Y249200D01*
X136700D02*
X137100D01*
X137500Y249600D01*
X137900Y249200D01*
X138300D01*
Y249600D01*
X137900Y250000D01*
X138300Y250400D01*
Y250800D01*
X137900D01*
X137500Y250400D01*
X137100Y250800D01*
X136700D01*
Y250400D01*
X137100Y250000D01*
X136700Y249600D01*
Y249200D01*
X126700Y249700D02*
X127100D01*
X127500Y250100D01*
X127900Y249700D01*
X128300D01*
Y250100D01*
X127900Y250500D01*
X128300Y250900D01*
Y251300D01*
X127900D01*
X127500Y250900D01*
X127100Y251300D01*
X126700D01*
Y250900D01*
X127100Y250500D01*
X126700Y250100D01*
Y249700D01*
X156700Y249200D02*
X157100D01*
X157500Y249600D01*
X157900Y249200D01*
X158300D01*
Y249600D01*
X157900Y250000D01*
X158300Y250400D01*
Y250800D01*
X157900D01*
X157500Y250400D01*
X157100Y250800D01*
X156700D01*
Y250400D01*
X157100Y250000D01*
X156700Y249600D01*
Y249200D01*
X110200Y240700D02*
X110600D01*
X111000Y241100D01*
X111400Y240700D01*
X111800D01*
Y241100D01*
X111400Y241500D01*
X111800Y241900D01*
Y242300D01*
X111400D01*
X111000Y241900D01*
X110600Y242300D01*
X110200D01*
Y241900D01*
X110600Y241500D01*
X110200Y241100D01*
Y240700D01*
X171700Y268200D02*
X172100D01*
X172500Y268600D01*
X172900Y268200D01*
X173300D01*
Y268600D01*
X172900Y269000D01*
X173300Y269400D01*
Y269800D01*
X172900D01*
X172500Y269400D01*
X172100Y269800D01*
X171700D01*
Y269400D01*
X172100Y269000D01*
X171700Y268600D01*
Y268200D01*
X161700D02*
X162100D01*
X162500Y268600D01*
X162900Y268200D01*
X163300D01*
Y268600D01*
X162900Y269000D01*
X163300Y269400D01*
Y269800D01*
X162900D01*
X162500Y269400D01*
X162100Y269800D01*
X161700D01*
Y269400D01*
X162100Y269000D01*
X161700Y268600D01*
Y268200D01*
X141700D02*
X142100D01*
X142500Y268600D01*
X142900Y268200D01*
X143300D01*
Y268600D01*
X142900Y269000D01*
X143300Y269400D01*
Y269800D01*
X142900D01*
X142500Y269400D01*
X142100Y269800D01*
X141700D01*
Y269400D01*
X142100Y269000D01*
X141700Y268600D01*
Y268200D01*
X131700D02*
X132100D01*
X132500Y268600D01*
X132900Y268200D01*
X133300D01*
Y268600D01*
X132900Y269000D01*
X133300Y269400D01*
Y269800D01*
X132900D01*
X132500Y269400D01*
X132100Y269800D01*
X131700D01*
Y269400D01*
X132100Y269000D01*
X131700Y268600D01*
Y268200D01*
X121700D02*
X122100D01*
X122500Y268600D01*
X122900Y268200D01*
X123300D01*
Y268600D01*
X122900Y269000D01*
X123300Y269400D01*
Y269800D01*
X122900D01*
X122500Y269400D01*
X122100Y269800D01*
X121700D01*
Y269400D01*
X122100Y269000D01*
X121700Y268600D01*
Y268200D01*
X111700D02*
X112100D01*
X112500Y268600D01*
X112900Y268200D01*
X113300D01*
Y268600D01*
X112900Y269000D01*
X113300Y269400D01*
Y269800D01*
X112900D01*
X112500Y269400D01*
X112100Y269800D01*
X111700D01*
Y269400D01*
X112100Y269000D01*
X111700Y268600D01*
Y268200D01*
X101700D02*
X102100D01*
X102500Y268600D01*
X102900Y268200D01*
X103300D01*
Y268600D01*
X102900Y269000D01*
X103300Y269400D01*
Y269800D01*
X102900D01*
X102500Y269400D01*
X102100Y269800D01*
X101700D01*
Y269400D01*
X102100Y269000D01*
X101700Y268600D01*
Y268200D01*
X60200Y7700D02*
X60600D01*
X61000Y8100D01*
X61400Y7700D01*
X61800D01*
Y8100D01*
X61400Y8500D01*
X61800Y8900D01*
Y9300D01*
X61400D01*
X61000Y8900D01*
X60600Y9300D01*
X60200D01*
Y8900D01*
X60600Y8500D01*
X60200Y8100D01*
Y7700D01*
X77700Y270200D02*
X78100D01*
X78500Y270600D01*
X78900Y270200D01*
X79300D01*
Y270600D01*
X78900Y271000D01*
X79300Y271400D01*
Y271800D01*
X78900D01*
X78500Y271400D01*
X78100Y271800D01*
X77700D01*
Y271400D01*
X78100Y271000D01*
X77700Y270600D01*
Y270200D01*
X35700Y99700D02*
X36100D01*
X36500Y100100D01*
X36900Y99700D01*
X37300D01*
Y100100D01*
X36900Y100500D01*
X37300Y100900D01*
Y101300D01*
X36900D01*
X36500Y100900D01*
X36100Y101300D01*
X35700D01*
Y100900D01*
X36100Y100500D01*
X35700Y100100D01*
Y99700D01*
X93700Y281700D02*
X94100D01*
X94500Y282100D01*
X94900Y281700D01*
X95300D01*
Y282100D01*
X94900Y282500D01*
X95300Y282900D01*
Y283300D01*
X94900D01*
X94500Y282900D01*
X94100Y283300D01*
X93700D01*
Y282900D01*
X94100Y282500D01*
X93700Y282100D01*
Y281700D01*
X149484Y460700D02*
X149883D01*
X150284Y461100D01*
X150683Y460700D01*
X151084D01*
Y461100D01*
X150683Y461500D01*
X151084Y461900D01*
Y462300D01*
X150683D01*
X150284Y461900D01*
X149883Y462300D01*
X149484D01*
Y461900D01*
X149883Y461500D01*
X149484Y461100D01*
Y460700D01*
X146200Y493700D02*
X146600D01*
X147000Y494100D01*
X147400Y493700D01*
X147800D01*
Y494100D01*
X147400Y494500D01*
X147800Y494900D01*
Y495300D01*
X147400D01*
X147000Y494900D01*
X146600Y495300D01*
X146200D01*
Y494900D01*
X146600Y494500D01*
X146200Y494100D01*
Y493700D01*
X126700Y257200D02*
X127100D01*
X127500Y257600D01*
X127900Y257200D01*
X128300D01*
Y257600D01*
X127900Y258000D01*
X128300Y258400D01*
Y258800D01*
X127900D01*
X127500Y258400D01*
X127100Y258800D01*
X126700D01*
Y258400D01*
X127100Y258000D01*
X126700Y257600D01*
Y257200D01*
X106700Y250336D02*
X107100D01*
X107500Y250736D01*
X107900Y250336D01*
X108300D01*
Y250736D01*
X107900Y251136D01*
X108300Y251536D01*
Y251936D01*
X107900D01*
X107500Y251536D01*
X107100Y251936D01*
X106700D01*
Y251536D01*
X107100Y251136D01*
X106700Y250736D01*
Y250336D01*
X19700Y265200D02*
X20100D01*
X20500Y265600D01*
X20900Y265200D01*
X21300D01*
Y265600D01*
X20900Y266000D01*
X21300Y266400D01*
Y266800D01*
X20900D01*
X20500Y266400D01*
X20100Y266800D01*
X19700D01*
Y266400D01*
X20100Y266000D01*
X19700Y265600D01*
Y265200D01*
X136200Y297200D02*
X136600D01*
X137000Y297600D01*
X137400Y297200D01*
X137800D01*
Y297600D01*
X137400Y298000D01*
X137800Y298400D01*
Y298800D01*
X137400D01*
X137000Y298400D01*
X136600Y298800D01*
X136200D01*
Y298400D01*
X136600Y298000D01*
X136200Y297600D01*
Y297200D01*
X140568Y306700D02*
X140968D01*
X141368Y307100D01*
X141768Y306700D01*
X142168D01*
Y307100D01*
X141768Y307500D01*
X142168Y307900D01*
Y308300D01*
X141768D01*
X141368Y307900D01*
X140968Y308300D01*
X140568D01*
Y307900D01*
X140968Y307500D01*
X140568Y307100D01*
Y306700D01*
X171700Y372700D02*
X172100D01*
X172500Y373100D01*
X172900Y372700D01*
X173300D01*
Y373100D01*
X172900Y373500D01*
X173300Y373900D01*
Y374300D01*
X172900D01*
X172500Y373900D01*
X172100Y374300D01*
X171700D01*
Y373900D01*
X172100Y373500D01*
X171700Y373100D01*
Y372700D01*
X172200Y336700D02*
X172600D01*
X173000Y337100D01*
X173400Y336700D01*
X173800D01*
Y337100D01*
X173400Y337500D01*
X173800Y337900D01*
Y338300D01*
X173400D01*
X173000Y337900D01*
X172600Y338300D01*
X172200D01*
Y337900D01*
X172600Y337500D01*
X172200Y337100D01*
Y336700D01*
X177200Y354700D02*
X177600D01*
X178000Y355100D01*
X178400Y354700D01*
X178800D01*
Y355100D01*
X178400Y355500D01*
X178800Y355900D01*
Y356300D01*
X178400D01*
X178000Y355900D01*
X177600Y356300D01*
X177200D01*
Y355900D01*
X177600Y355500D01*
X177200Y355100D01*
Y354700D01*
X58700Y504700D02*
X59100D01*
X59500Y505100D01*
X59900Y504700D01*
X60300D01*
Y505100D01*
X59900Y505500D01*
X60300Y505900D01*
Y506300D01*
X59900D01*
X59500Y505900D01*
X59100Y506300D01*
X58700D01*
Y505900D01*
X59100Y505500D01*
X58700Y505100D01*
Y504700D01*
X216700Y491200D02*
X217100D01*
X217500Y491600D01*
X217900Y491200D01*
X218300D01*
Y491600D01*
X217900Y492000D01*
X218300Y492400D01*
Y492800D01*
X217900D01*
X217500Y492400D01*
X217100Y492800D01*
X216700D01*
Y492400D01*
X217100Y492000D01*
X216700Y491600D01*
Y491200D01*
X58700Y473700D02*
X59100D01*
X59500Y474100D01*
X59900Y473700D01*
X60300D01*
Y474100D01*
X59900Y474500D01*
X60300Y474900D01*
Y475300D01*
X59900D01*
X59500Y474900D01*
X59100Y475300D01*
X58700D01*
Y474900D01*
X59100Y474500D01*
X58700Y474100D01*
Y473700D01*
X123137Y311104D02*
X123537D01*
X123937Y311504D01*
X124337Y311104D01*
X124737D01*
Y311504D01*
X124337Y311904D01*
X124737Y312304D01*
Y312704D01*
X124337D01*
X123937Y312304D01*
X123537Y312704D01*
X123137D01*
Y312304D01*
X123537Y311904D01*
X123137Y311504D01*
Y311104D01*
X105400Y319900D02*
X105800D01*
X106200Y320300D01*
X106600Y319900D01*
X107000D01*
Y320300D01*
X106600Y320700D01*
X107000Y321100D01*
Y321500D01*
X106600D01*
X106200Y321100D01*
X105800Y321500D01*
X105400D01*
Y321100D01*
X105800Y320700D01*
X105400Y320300D01*
Y319900D01*
X123200Y394700D02*
X123600D01*
X124000Y395100D01*
X124400Y394700D01*
X124800D01*
Y395100D01*
X124400Y395500D01*
X124800Y395900D01*
Y396300D01*
X124400D01*
X124000Y395900D01*
X123600Y396300D01*
X123200D01*
Y395900D01*
X123600Y395500D01*
X123200Y395100D01*
Y394700D01*
X130826Y388200D02*
X131226D01*
X131626Y388600D01*
X132026Y388200D01*
X132426D01*
Y388600D01*
X132026Y389000D01*
X132426Y389400D01*
Y389800D01*
X132026D01*
X131626Y389400D01*
X131226Y389800D01*
X130826D01*
Y389400D01*
X131226Y389000D01*
X130826Y388600D01*
Y388200D01*
X214700Y417700D02*
X215100D01*
X215500Y418100D01*
X215900Y417700D01*
X216300D01*
Y418100D01*
X215900Y418500D01*
X216300Y418900D01*
Y419300D01*
X215900D01*
X215500Y418900D01*
X215100Y419300D01*
X214700D01*
Y418900D01*
X215100Y418500D01*
X214700Y418100D01*
Y417700D01*
X209200Y426700D02*
X209600D01*
X210000Y427100D01*
X210400Y426700D01*
X210800D01*
Y427100D01*
X210400Y427500D01*
X210800Y427900D01*
Y428300D01*
X210400D01*
X210000Y427900D01*
X209600Y428300D01*
X209200D01*
Y427900D01*
X209600Y427500D01*
X209200Y427100D01*
Y426700D01*
X166200Y332686D02*
X166600D01*
X167000Y333086D01*
X167400Y332686D01*
X167800D01*
Y333086D01*
X167400Y333486D01*
X167800Y333886D01*
Y334286D01*
X167400D01*
X167000Y333886D01*
X166600Y334286D01*
X166200D01*
Y333886D01*
X166600Y333486D01*
X166200Y333086D01*
Y332686D01*
X174200Y422700D02*
X174600D01*
X175000Y423100D01*
X175400Y422700D01*
X175800D01*
Y423100D01*
X175400Y423500D01*
X175800Y423900D01*
Y424300D01*
X175400D01*
X175000Y423900D01*
X174600Y424300D01*
X174200D01*
Y423900D01*
X174600Y423500D01*
X174200Y423100D01*
Y422700D01*
X178134Y436593D02*
X178534D01*
X178934Y436993D01*
X179334Y436593D01*
X179734D01*
Y436993D01*
X179334Y437393D01*
X179734Y437793D01*
Y438193D01*
X179334D01*
X178934Y437793D01*
X178534Y438193D01*
X178134D01*
Y437793D01*
X178534Y437393D01*
X178134Y436993D01*
Y436593D01*
X108337Y436904D02*
X108737D01*
X109137Y437304D01*
X109537Y436904D01*
X109937D01*
Y437304D01*
X109537Y437704D01*
X109937Y438104D01*
Y438504D01*
X109537D01*
X109137Y438104D01*
X108737Y438504D01*
X108337D01*
Y438104D01*
X108737Y437704D01*
X108337Y437304D01*
Y436904D01*
X104200Y421700D02*
X104600D01*
X105000Y422100D01*
X105400Y421700D01*
X105800D01*
Y422100D01*
X105400Y422500D01*
X105800Y422900D01*
Y423300D01*
X105400D01*
X105000Y422900D01*
X104600Y423300D01*
X104200D01*
Y422900D01*
X104600Y422500D01*
X104200Y422100D01*
Y421700D01*
X117037Y436196D02*
X117437D01*
X117837Y436596D01*
X118237Y436196D01*
X118637D01*
Y436596D01*
X118237Y436996D01*
X118637Y437396D01*
Y437796D01*
X118237D01*
X117837Y437396D01*
X117437Y437796D01*
X117037D01*
Y437396D01*
X117437Y436996D01*
X117037Y436596D01*
Y436196D01*
X162700Y361200D02*
X163100D01*
X163500Y361600D01*
X163900Y361200D01*
X164300D01*
Y361600D01*
X163900Y362000D01*
X164300Y362400D01*
Y362800D01*
X163900D01*
X163500Y362400D01*
X163100Y362800D01*
X162700D01*
Y362400D01*
X163100Y362000D01*
X162700Y361600D01*
Y361200D01*
X78700Y434700D02*
X79100D01*
X79500Y435100D01*
X79900Y434700D01*
X80300D01*
Y435100D01*
X79900Y435500D01*
X80300Y435900D01*
Y436300D01*
X79900D01*
X79500Y435900D01*
X79100Y436300D01*
X78700D01*
Y435900D01*
X79100Y435500D01*
X78700Y435100D01*
Y434700D01*
X175700Y193700D02*
X176100D01*
X176500Y194100D01*
X176900Y193700D01*
X177300D01*
Y194100D01*
X176900Y194500D01*
X177300Y194900D01*
Y195300D01*
X176900D01*
X176500Y194900D01*
X176100Y195300D01*
X175700D01*
Y194900D01*
X176100Y194500D01*
X175700Y194100D01*
Y193700D01*
X167200Y186700D02*
X167600D01*
X168000Y187100D01*
X168400Y186700D01*
X168800D01*
Y187100D01*
X168400Y187500D01*
X168800Y187900D01*
Y188300D01*
X168400D01*
X168000Y187900D01*
X167600Y188300D01*
X167200D01*
Y187900D01*
X167600Y187500D01*
X167200Y187100D01*
Y186700D01*
X162200Y221200D02*
X162600D01*
X163000Y221600D01*
X163400Y221200D01*
X163800D01*
Y221600D01*
X163400Y222000D01*
X163800Y222400D01*
Y222800D01*
X163400D01*
X163000Y222400D01*
X162600Y222800D01*
X162200D01*
Y222400D01*
X162600Y222000D01*
X162200Y221600D01*
Y221200D01*
X116700Y221700D02*
X117100D01*
X117500Y222100D01*
X117900Y221700D01*
X118300D01*
Y222100D01*
X117900Y222500D01*
X118300Y222900D01*
Y223300D01*
X117900D01*
X117500Y222900D01*
X117100Y223300D01*
X116700D01*
Y222900D01*
X117100Y222500D01*
X116700Y222100D01*
Y221700D01*
X169700Y204200D02*
X170100D01*
X170500Y204600D01*
X170900Y204200D01*
X171300D01*
Y204600D01*
X170900Y205000D01*
X171300Y205400D01*
Y205800D01*
X170900D01*
X170500Y205400D01*
X170100Y205800D01*
X169700D01*
Y205400D01*
X170100Y205000D01*
X169700Y204600D01*
Y204200D01*
X157200Y200200D02*
X157600D01*
X158000Y200600D01*
X158400Y200200D01*
X158800D01*
Y200600D01*
X158400Y201000D01*
X158800Y201400D01*
Y201800D01*
X158400D01*
X158000Y201400D01*
X157600Y201800D01*
X157200D01*
Y201400D01*
X157600Y201000D01*
X157200Y200600D01*
Y200200D01*
X208700Y454200D02*
X209100D01*
X209500Y454600D01*
X209900Y454200D01*
X210300D01*
Y454600D01*
X209900Y455000D01*
X210300Y455400D01*
Y455800D01*
X209900D01*
X209500Y455400D01*
X209100Y455800D01*
X208700D01*
Y455400D01*
X209100Y455000D01*
X208700Y454600D01*
Y454200D01*
X185200Y514200D02*
X185600D01*
X186000Y514600D01*
X186400Y514200D01*
X186800D01*
Y514600D01*
X186400Y515000D01*
X186800Y515400D01*
Y515800D01*
X186400D01*
X186000Y515400D01*
X185600Y515800D01*
X185200D01*
Y515400D01*
X185600Y515000D01*
X185200Y514600D01*
Y514200D01*
X170200D02*
X170600D01*
X171000Y514600D01*
X171400Y514200D01*
X171800D01*
Y514600D01*
X171400Y515000D01*
X171800Y515400D01*
Y515800D01*
X171400D01*
X171000Y515400D01*
X170600Y515800D01*
X170200D01*
Y515400D01*
X170600Y515000D01*
X170200Y514600D01*
Y514200D01*
X76200Y454700D02*
X76600D01*
X77000Y455100D01*
X77400Y454700D01*
X77800D01*
Y455100D01*
X77400Y455500D01*
X77800Y455900D01*
Y456300D01*
X77400D01*
X77000Y455900D01*
X76600Y456300D01*
X76200D01*
Y455900D01*
X76600Y455500D01*
X76200Y455100D01*
Y454700D01*
X144200Y446200D02*
X144600D01*
X145000Y446600D01*
X145400Y446200D01*
X145800D01*
Y446600D01*
X145400Y447000D01*
X145800Y447400D01*
Y447800D01*
X145400D01*
X145000Y447400D01*
X144600Y447800D01*
X144200D01*
Y447400D01*
X144600Y447000D01*
X144200Y446600D01*
Y446200D01*
X154200Y394700D02*
X154600D01*
X155000Y395100D01*
X155400Y394700D01*
X155800D01*
Y395100D01*
X155400Y395500D01*
X155800Y395900D01*
Y396300D01*
X155400D01*
X155000Y395900D01*
X154600Y396300D01*
X154200D01*
Y395900D01*
X154600Y395500D01*
X154200Y395100D01*
Y394700D01*
X146574Y388200D02*
X146974D01*
X147374Y388600D01*
X147774Y388200D01*
X148174D01*
Y388600D01*
X147774Y389000D01*
X148174Y389400D01*
Y389800D01*
X147774D01*
X147374Y389400D01*
X146974Y389800D01*
X146574D01*
Y389400D01*
X146974Y389000D01*
X146574Y388600D01*
Y388200D01*
X115152Y514200D02*
X115552D01*
X115952Y514600D01*
X116352Y514200D01*
X116752D01*
Y514600D01*
X116352Y515000D01*
X116752Y515400D01*
Y515800D01*
X116352D01*
X115952Y515400D01*
X115552Y515800D01*
X115152D01*
Y515400D01*
X115552Y515000D01*
X115152Y514600D01*
Y514200D01*
X87700Y520200D02*
X88100D01*
X88500Y520600D01*
X88900Y520200D01*
X89300D01*
Y520600D01*
X88900Y521000D01*
X89300Y521400D01*
Y521800D01*
X88900D01*
X88500Y521400D01*
X88100Y521800D01*
X87700D01*
Y521400D01*
X88100Y521000D01*
X87700Y520600D01*
Y520200D01*
X83200Y513700D02*
X83600D01*
X84000Y514100D01*
X84400Y513700D01*
X84800D01*
Y514100D01*
X84400Y514500D01*
X84800Y514900D01*
Y515300D01*
X84400D01*
X84000Y514900D01*
X83600Y515300D01*
X83200D01*
Y514900D01*
X83600Y514500D01*
X83200Y514100D01*
Y513700D01*
X91700Y520200D02*
X92100D01*
X92500Y520600D01*
X92900Y520200D01*
X93300D01*
Y520600D01*
X92900Y521000D01*
X93300Y521400D01*
Y521800D01*
X92900D01*
X92500Y521400D01*
X92100Y521800D01*
X91700D01*
Y521400D01*
X92100Y521000D01*
X91700Y520600D01*
Y520200D01*
X95700D02*
X96100D01*
X96500Y520600D01*
X96900Y520200D01*
X97300D01*
Y520600D01*
X96900Y521000D01*
X97300Y521400D01*
Y521800D01*
X96900D01*
X96500Y521400D01*
X96100Y521800D01*
X95700D01*
Y521400D01*
X96100Y521000D01*
X95700Y520600D01*
Y520200D01*
X205200Y446200D02*
X205600D01*
X206000Y446600D01*
X206400Y446200D01*
X206800D01*
Y446600D01*
X206400Y447000D01*
X206800Y447400D01*
Y447800D01*
X206400D01*
X206000Y447400D01*
X205600Y447800D01*
X205200D01*
Y447400D01*
X205600Y447000D01*
X205200Y446600D01*
Y446200D01*
X197200Y520200D02*
X197600D01*
X198000Y520600D01*
X198400Y520200D01*
X198800D01*
Y520600D01*
X198400Y521000D01*
X198800Y521400D01*
Y521800D01*
X198400D01*
X198000Y521400D01*
X197600Y521800D01*
X197200D01*
Y521400D01*
X197600Y521000D01*
X197200Y520600D01*
Y520200D01*
X210200Y537700D02*
X210600D01*
X211000Y538100D01*
X211400Y537700D01*
X211800D01*
Y538100D01*
X211400Y538500D01*
X211800Y538900D01*
Y539300D01*
X211400D01*
X211000Y538900D01*
X210600Y539300D01*
X210200D01*
Y538900D01*
X210600Y538500D01*
X210200Y538100D01*
Y537700D01*
X43200Y543700D02*
X43600D01*
X44000Y544100D01*
X44400Y543700D01*
X44800D01*
Y544100D01*
X44400Y544500D01*
X44800Y544900D01*
Y545300D01*
X44400D01*
X44000Y544900D01*
X43600Y545300D01*
X43200D01*
Y544900D01*
X43600Y544500D01*
X43200Y544100D01*
Y543700D01*
X202200D02*
X202600D01*
X203000Y544100D01*
X203400Y543700D01*
X203800D01*
Y544100D01*
X203400Y544500D01*
X203800Y544900D01*
Y545300D01*
X203400D01*
X203000Y544900D01*
X202600Y545300D01*
X202200D01*
Y544900D01*
X202600Y544500D01*
X202200Y544100D01*
Y543700D01*
X46700Y540700D02*
X47100D01*
X47500Y541100D01*
X47900Y540700D01*
X48300D01*
Y541100D01*
X47900Y541500D01*
X48300Y541900D01*
Y542300D01*
X47900D01*
X47500Y541900D01*
X47100Y542300D01*
X46700D01*
Y541900D01*
X47100Y541500D01*
X46700Y541100D01*
Y540700D01*
X193200Y520200D02*
X193600D01*
X194000Y520600D01*
X194400Y520200D01*
X194800D01*
Y520600D01*
X194400Y521000D01*
X194800Y521400D01*
Y521800D01*
X194400D01*
X194000Y521400D01*
X193600Y521800D01*
X193200D01*
Y521400D01*
X193600Y521000D01*
X193200Y520600D01*
Y520200D01*
X165700D02*
X166100D01*
X166500Y520600D01*
X166900Y520200D01*
X167300D01*
Y520600D01*
X166900Y521000D01*
X167300Y521400D01*
Y521800D01*
X166900D01*
X166500Y521400D01*
X166100Y521800D01*
X165700D01*
Y521400D01*
X166100Y521000D01*
X165700Y520600D01*
Y520200D01*
X161700D02*
X162100D01*
X162500Y520600D01*
X162900Y520200D01*
X163300D01*
Y520600D01*
X162900Y521000D01*
X163300Y521400D01*
Y521800D01*
X162900D01*
X162500Y521400D01*
X162100Y521800D01*
X161700D01*
Y521400D01*
X162100Y521000D01*
X161700Y520600D01*
Y520200D01*
X157700D02*
X158100D01*
X158500Y520600D01*
X158900Y520200D01*
X159300D01*
Y520600D01*
X158900Y521000D01*
X159300Y521400D01*
Y521800D01*
X158900D01*
X158500Y521400D01*
X158100Y521800D01*
X157700D01*
Y521400D01*
X158100Y521000D01*
X157700Y520600D01*
Y520200D01*
X127200D02*
X127600D01*
X128000Y520600D01*
X128400Y520200D01*
X128800D01*
Y520600D01*
X128400Y521000D01*
X128800Y521400D01*
Y521800D01*
X128400D01*
X128000Y521400D01*
X127600Y521800D01*
X127200D01*
Y521400D01*
X127600Y521000D01*
X127200Y520600D01*
Y520200D01*
X123200D02*
X123600D01*
X124000Y520600D01*
X124400Y520200D01*
X124800D01*
Y520600D01*
X124400Y521000D01*
X124800Y521400D01*
Y521800D01*
X124400D01*
X124000Y521400D01*
X123600Y521800D01*
X123200D01*
Y521400D01*
X123600Y521000D01*
X123200Y520600D01*
Y520200D01*
X119200D02*
X119600D01*
X120000Y520600D01*
X120400Y520200D01*
X120800D01*
Y520600D01*
X120400Y521000D01*
X120800Y521400D01*
Y521800D01*
X120400D01*
X120000Y521400D01*
X119600Y521800D01*
X119200D01*
Y521400D01*
X119600Y521000D01*
X119200Y520600D01*
Y520200D01*
X138735Y93335D02*
X139135Y94135D01*
X138735Y94935D01*
X139535Y94535D01*
X140335Y94935D01*
X139935Y94135D01*
X140335Y93335D01*
X139535Y93735D01*
X138735Y93335D01*
X143065D02*
X143465Y94135D01*
X143065Y94935D01*
X143865Y94535D01*
X144665Y94935D01*
X144265Y94135D01*
X144665Y93335D01*
X143865Y93735D01*
X143065Y93335D01*
Y97665D02*
X143465Y98465D01*
X143065Y99265D01*
X143865Y98865D01*
X144665Y99265D01*
X144265Y98465D01*
X144665Y97665D01*
X143865Y98065D01*
X143065Y97665D01*
X138735D02*
X139135Y98465D01*
X138735Y99265D01*
X139535Y98865D01*
X140335Y99265D01*
X139935Y98465D01*
X140335Y97665D01*
X139535Y98065D01*
X138735Y97665D01*
D73*
X64107Y126425D02*
G03*
X64107Y126425I-800J0D01*
G01*
X74107D02*
G03*
X74107Y126425I-800J0D01*
G01*
X84107D02*
G03*
X84107Y126425I-800J0D01*
G01*
X94107D02*
G03*
X94107Y126425I-800J0D01*
G01*
X104107D02*
G03*
X104107Y126425I-800J0D01*
G01*
X64107Y116425D02*
G03*
X64107Y116425I-800J0D01*
G01*
X74107D02*
G03*
X74107Y116425I-800J0D01*
G01*
X84107D02*
G03*
X84107Y116425I-800J0D01*
G01*
X94107D02*
G03*
X94107Y116425I-800J0D01*
G01*
X104107D02*
G03*
X104107Y116425I-800J0D01*
G01*
M02*
