G04*
G04 #@! TF.GenerationSoftware,Altium Limited,Altium Designer,23.7.1 (13)*
G04*
G04 Layer_Color=8388736*
%FSLAX25Y25*%
%MOIN*%
G70*
G04*
G04 #@! TF.SameCoordinates,971C37BE-97D5-4A50-9DA2-DA4AE9E2F4D9*
G04*
G04*
G04 #@! TF.FilePolarity,Positive*
G04*
G01*
G75*
%ADD10C,0.00787*%
D10*
X61630Y312055D02*
Y318945D01*
X65370D01*
Y312055D02*
Y318945D01*
X61630Y312055D02*
X65370D01*
X92335Y286504D02*
Y293984D01*
X96665D01*
Y286504D02*
Y293984D01*
X92335Y286504D02*
X96665D01*
X165260Y303535D02*
Y307865D01*
Y303535D02*
X172740D01*
Y307865D01*
X165260D02*
X172740D01*
X174957Y360807D02*
X182043D01*
Y374193D01*
X174957D02*
X182043D01*
X174957Y360807D02*
Y374193D01*
X62957Y492807D02*
X70043D01*
Y506193D01*
X62957D02*
X70043D01*
X62957Y492807D02*
Y506193D01*
X213957Y468193D02*
X221043D01*
X213957Y454807D02*
Y468193D01*
Y454807D02*
X221043D01*
Y468193D01*
X174957Y350000D02*
X182043D01*
X174957Y336614D02*
Y350000D01*
Y336614D02*
X182043D01*
Y350000D01*
X213957Y473307D02*
X221043D01*
Y486693D01*
X213957D02*
X221043D01*
X213957Y473307D02*
Y486693D01*
X62957Y487193D02*
X70043D01*
X62957Y473807D02*
Y487193D01*
Y473807D02*
X70043D01*
Y487193D01*
X154760Y96235D02*
X162240D01*
X154760D02*
Y100565D01*
X162240D01*
Y96235D02*
Y100565D01*
X153665Y74860D02*
Y82340D01*
X149335Y74860D02*
X153665D01*
X149335D02*
Y82340D01*
X153665D01*
X147928Y109754D02*
Y116446D01*
X151472D01*
Y109754D02*
Y116446D01*
X147928Y109754D02*
X151472D01*
X203560Y435465D02*
X211040D01*
Y431135D02*
Y435465D01*
X203560Y431135D02*
X211040D01*
X203560D02*
Y435465D01*
X133560Y434665D02*
X141040D01*
Y430335D02*
Y434665D01*
X133560Y430335D02*
X141040D01*
X133560D02*
Y434665D01*
X56212Y447248D02*
Y460752D01*
X45188Y447248D02*
X56212D01*
X45188D02*
Y460752D01*
X56212D01*
X82537Y53536D02*
X89427D01*
X82537D02*
Y65544D01*
X89427D01*
Y53536D02*
Y65544D01*
X100075Y65650D02*
Y71950D01*
X96925Y65650D02*
X100075D01*
X96925D02*
Y71950D01*
X100075D01*
X67260Y65965D02*
X74740D01*
Y61635D02*
Y65965D01*
X67260Y61635D02*
X74740D01*
X67260D02*
Y65965D01*
X191282Y94766D02*
Y103034D01*
X201518D01*
Y94766D02*
Y103034D01*
X191282Y94766D02*
X201518D01*
X168635Y193660D02*
Y201140D01*
X172965D01*
Y193660D02*
Y201140D01*
X168635Y193660D02*
X172965D01*
X49146Y112169D02*
Y120831D01*
X54854D01*
Y112169D02*
Y120831D01*
X49146Y112169D02*
X54854D01*
M02*
