G04*
G04 #@! TF.GenerationSoftware,Altium Limited,Altium Designer,23.7.1 (13)*
G04*
G04 Layer_Physical_Order=4*
G04 Layer_Color=16711680*
%FSLAX25Y25*%
%MOIN*%
G70*
G04*
G04 #@! TF.SameCoordinates,971C37BE-97D5-4A50-9DA2-DA4AE9E2F4D9*
G04*
G04*
G04 #@! TF.FilePolarity,Positive*
G04*
G01*
G75*
%ADD53C,0.25000*%
%ADD54C,0.05512*%
%ADD55C,0.12008*%
%ADD56C,0.06319*%
%ADD57R,0.06319X0.06319*%
%ADD58R,0.06319X0.06319*%
%ADD59C,0.06102*%
%ADD60R,0.06102X0.06102*%
%ADD61R,0.05315X0.05315*%
%ADD62C,0.05315*%
%ADD63C,0.03347*%
%ADD64C,0.01968*%
%ADD65C,0.01200*%
%ADD66C,0.02500*%
G36*
X183577Y379207D02*
Y378293D01*
X183115Y378102D01*
X157442Y403774D01*
X157454Y403825D01*
X157688Y404236D01*
X158450D01*
X158519Y404265D01*
X183577Y379207D01*
D02*
G37*
G36*
X273714Y280656D02*
X273252Y280465D01*
X250358Y303358D01*
X249964Y303622D01*
X249500Y303714D01*
X249500Y303714D01*
X238503D01*
X236585Y305632D01*
X236844Y306080D01*
X236976Y306045D01*
X237964D01*
X238917Y306300D01*
X239773Y306794D01*
X240471Y307492D01*
X240965Y308347D01*
X241220Y309301D01*
Y310288D01*
X240965Y311242D01*
X240471Y312097D01*
X239773Y312795D01*
X238917Y313289D01*
X237964Y313545D01*
X236976D01*
X236023Y313289D01*
X235168Y312795D01*
X234469Y312097D01*
X233976Y311242D01*
X233720Y310288D01*
Y309301D01*
X233756Y309168D01*
X233307Y308909D01*
X227214Y315003D01*
Y408500D01*
X227214Y408500D01*
X227121Y408964D01*
X226858Y409358D01*
X226858Y409358D01*
X221735Y414481D01*
X221764Y414550D01*
Y415450D01*
X221419Y416282D01*
X220782Y416919D01*
X219950Y417264D01*
X219050D01*
X218218Y416919D01*
X217581Y416282D01*
X217236Y415450D01*
Y415240D01*
X216736Y414953D01*
X216714Y414966D01*
Y416552D01*
X216782Y416581D01*
X217419Y417218D01*
X217764Y418050D01*
Y418950D01*
X217419Y419782D01*
X216782Y420419D01*
X215950Y420764D01*
X215050D01*
X214218Y420419D01*
X213581Y419782D01*
X213236Y418950D01*
Y418050D01*
X213581Y417218D01*
X214218Y416581D01*
X214286Y416552D01*
Y414000D01*
X214286Y414000D01*
X214378Y413535D01*
X214642Y413142D01*
X215058Y412726D01*
X215046Y412675D01*
X214812Y412264D01*
X214050D01*
X213218Y411919D01*
X212581Y411282D01*
X212236Y410450D01*
Y410125D01*
X211736Y409838D01*
X211614Y409909D01*
Y417754D01*
X212231Y418371D01*
X212575Y419203D01*
Y420103D01*
X212231Y420935D01*
X211594Y421572D01*
X210762Y421917D01*
X209861D01*
X209029Y421572D01*
X208393Y420935D01*
X208048Y420103D01*
Y419203D01*
X208393Y418371D01*
X209029Y417734D01*
X209186Y417669D01*
Y409100D01*
X209186Y409100D01*
X209278Y408636D01*
X209542Y408242D01*
X217286Y400497D01*
Y312500D01*
X217286Y312500D01*
X217378Y312035D01*
X217642Y311642D01*
X234142Y295142D01*
X234142Y295142D01*
X234536Y294879D01*
X235000Y294786D01*
X244497D01*
X256913Y282370D01*
X256630Y281946D01*
X256401Y282041D01*
X255127Y282295D01*
X253829D01*
X252554Y282041D01*
X251354Y281544D01*
X250274Y280822D01*
X249356Y279904D01*
X248634Y278824D01*
X248137Y277624D01*
X247884Y276349D01*
Y275050D01*
X248137Y273777D01*
X248634Y272576D01*
X249356Y271496D01*
X250274Y270578D01*
X251354Y269856D01*
X252554Y269359D01*
X253829Y269106D01*
X255127D01*
X256401Y269359D01*
X257602Y269856D01*
X258682Y270578D01*
X259600Y271496D01*
X260322Y272576D01*
X260819Y273777D01*
X261072Y275050D01*
Y276349D01*
X260819Y277624D01*
X260724Y277852D01*
X261148Y278135D01*
X265429Y273854D01*
Y231052D01*
X264929Y230845D01*
X264790Y230985D01*
X264049Y231413D01*
X263717Y231502D01*
Y231997D01*
X263624Y232462D01*
X263361Y232856D01*
X263361Y232856D01*
X255800Y240417D01*
Y241292D01*
X256300Y241499D01*
X256718Y241081D01*
X257550Y240736D01*
X258450D01*
X259282Y241081D01*
X259919Y241718D01*
X260264Y242550D01*
Y243450D01*
X259919Y244282D01*
X259282Y244919D01*
X258450Y245264D01*
X257550D01*
X257071Y245065D01*
X236474Y265661D01*
X236733Y266110D01*
X236976Y266044D01*
X237964D01*
X238917Y266300D01*
X239773Y266794D01*
X240471Y267492D01*
X240965Y268347D01*
X241220Y269301D01*
Y270288D01*
X240965Y271242D01*
X240471Y272097D01*
X239773Y272795D01*
X238917Y273289D01*
X237964Y273545D01*
X236976D01*
X236023Y273289D01*
X235168Y272795D01*
X234469Y272097D01*
X233976Y271242D01*
X233720Y270288D01*
Y269301D01*
X233785Y269058D01*
X233337Y268799D01*
X187830Y314305D01*
Y389732D01*
X188330Y389852D01*
X188943Y388650D01*
X190172Y386958D01*
X191651Y385479D01*
X193343Y384250D01*
X195206Y383300D01*
X197196Y382654D01*
X199261Y382327D01*
X199913D01*
Y395614D01*
Y408902D01*
X199261D01*
X197196Y408574D01*
X195206Y407928D01*
X193343Y406979D01*
X191651Y405749D01*
X190172Y404270D01*
X188943Y402578D01*
X188330Y401377D01*
X187830Y401497D01*
Y429710D01*
X187830Y429710D01*
X187738Y430175D01*
X187475Y430569D01*
X187475Y430569D01*
X181169Y436874D01*
X181198Y436943D01*
Y437843D01*
X180853Y438675D01*
X180216Y439312D01*
X179384Y439657D01*
X178484D01*
X177652Y439312D01*
X177015Y438675D01*
X176670Y437843D01*
Y436943D01*
X177015Y436111D01*
X177652Y435474D01*
X178484Y435129D01*
X179384D01*
X179453Y435157D01*
X185403Y429207D01*
Y381467D01*
X184941Y381276D01*
X160235Y405981D01*
X160264Y406050D01*
Y406950D01*
X159919Y407782D01*
X159282Y408419D01*
X158450Y408764D01*
X157550D01*
X156718Y408419D01*
X156081Y407782D01*
X155736Y406950D01*
Y406188D01*
X155325Y405954D01*
X155274Y405942D01*
X151735Y409481D01*
X151764Y409550D01*
Y410450D01*
X151419Y411282D01*
X150782Y411919D01*
X149950Y412264D01*
X149050D01*
X148218Y411919D01*
X147581Y411282D01*
X147236Y410450D01*
Y409550D01*
X147581Y408718D01*
X148218Y408081D01*
X149050Y407736D01*
X149950D01*
X150019Y407765D01*
X159348Y398436D01*
X159141Y397936D01*
X158485D01*
X157581Y397561D01*
X157000Y396980D01*
X156394Y397586D01*
X155490Y397961D01*
X155394D01*
Y395500D01*
Y393039D01*
X155490D01*
X156394Y393414D01*
X156975Y393995D01*
X157581Y393389D01*
X158485Y393014D01*
X158581D01*
Y395475D01*
X159369D01*
Y393014D01*
X159465D01*
X160369Y393389D01*
X161061Y394081D01*
X161436Y394986D01*
Y395641D01*
X161936Y395848D01*
X181786Y375997D01*
Y311000D01*
X181786Y311000D01*
X181878Y310536D01*
X182142Y310142D01*
X181786Y309794D01*
X179816Y311764D01*
X179845Y311832D01*
Y312733D01*
X179500Y313565D01*
X178863Y314201D01*
X178031Y314546D01*
X177131D01*
X176298Y314201D01*
X175662Y313565D01*
X175317Y312733D01*
Y311832D01*
X175662Y311000D01*
X176298Y310363D01*
X177131Y310019D01*
X178031D01*
X178100Y310047D01*
X193069Y295077D01*
X193463Y294814D01*
X193927Y294722D01*
X193927Y294722D01*
X194561D01*
X209786Y279497D01*
Y230500D01*
X209786Y230500D01*
X209878Y230035D01*
X210142Y229642D01*
X216368Y223415D01*
X216368Y223415D01*
X216762Y223152D01*
X217227Y223059D01*
X235651D01*
X235844Y222593D01*
X235680Y222381D01*
X235581Y222282D01*
X235555Y222221D01*
X235550Y222214D01*
X230500D01*
X230035Y222122D01*
X229642Y221858D01*
X229642Y221858D01*
X213019Y205235D01*
X212950Y205264D01*
X212050D01*
X211218Y204919D01*
X210581Y204282D01*
X210236Y203450D01*
Y202550D01*
X210581Y201718D01*
X211218Y201081D01*
X212050Y200736D01*
X212950D01*
X213782Y201081D01*
X214419Y201718D01*
X214764Y202550D01*
Y203450D01*
X214735Y203519D01*
X231003Y219786D01*
X235553D01*
X235581Y219718D01*
X236218Y219081D01*
X237050Y218736D01*
X237950D01*
X238782Y219081D01*
X239419Y219718D01*
X239764Y220550D01*
Y221450D01*
X239419Y222282D01*
X239142Y222559D01*
X239349Y223059D01*
X252724D01*
X253782Y222002D01*
X253523Y221553D01*
X253223Y221634D01*
X252368D01*
X251542Y221412D01*
X250801Y220985D01*
X250196Y220380D01*
X249769Y219639D01*
X249547Y218813D01*
Y217958D01*
X249769Y217132D01*
X250196Y216391D01*
X250801Y215787D01*
X251542Y215359D01*
X252368Y215138D01*
X253223D01*
X254049Y215359D01*
X254790Y215787D01*
X255394Y216391D01*
X255822Y217132D01*
X256043Y217958D01*
Y218813D01*
X255963Y219113D01*
X256411Y219372D01*
X256786Y218997D01*
Y213181D01*
X256786Y213181D01*
X256878Y212717D01*
X257142Y212323D01*
X259789Y209675D01*
X259769Y209640D01*
X259547Y208813D01*
Y207958D01*
X259769Y207132D01*
X260196Y206392D01*
X260801Y205787D01*
X261542Y205359D01*
X262368Y205138D01*
X263223D01*
X264049Y205359D01*
X264790Y205787D01*
X264929Y205927D01*
X265429Y205719D01*
Y201052D01*
X264929Y200845D01*
X264790Y200985D01*
X264049Y201413D01*
X263223Y201634D01*
X262368D01*
X261542Y201413D01*
X260801Y200985D01*
X260196Y200380D01*
X259769Y199639D01*
X259547Y198813D01*
Y197958D01*
X259769Y197132D01*
X260196Y196391D01*
X260801Y195787D01*
X261542Y195359D01*
X262368Y195138D01*
X263223D01*
X264049Y195359D01*
X264790Y195787D01*
X264929Y195927D01*
X265429Y195720D01*
Y191052D01*
X264929Y190845D01*
X264790Y190985D01*
X264049Y191412D01*
X263223Y191634D01*
X262368D01*
X261542Y191412D01*
X260801Y190985D01*
X260196Y190380D01*
X259769Y189639D01*
X259547Y188813D01*
Y187958D01*
X259769Y187132D01*
X260196Y186391D01*
X260801Y185787D01*
X261542Y185359D01*
X262368Y185138D01*
X263223D01*
X264049Y185359D01*
X264790Y185787D01*
X264929Y185927D01*
X265429Y185720D01*
Y181052D01*
X264929Y180845D01*
X264790Y180985D01*
X264049Y181412D01*
X263223Y181634D01*
X262368D01*
X261542Y181412D01*
X260801Y180985D01*
X260196Y180380D01*
X259769Y179639D01*
X259547Y178813D01*
Y177958D01*
X259769Y177132D01*
X260196Y176391D01*
X260801Y175787D01*
X261542Y175359D01*
X262368Y175138D01*
X263223D01*
X264049Y175359D01*
X264790Y175787D01*
X264929Y175927D01*
X265429Y175719D01*
Y171052D01*
X264929Y170845D01*
X264790Y170985D01*
X264049Y171413D01*
X263223Y171634D01*
X262368D01*
X261542Y171413D01*
X260801Y170985D01*
X260196Y170380D01*
X259769Y169640D01*
X259547Y168813D01*
Y167958D01*
X259769Y167132D01*
X260196Y166392D01*
X260801Y165787D01*
X261542Y165359D01*
X262368Y165138D01*
X263223D01*
X264049Y165359D01*
X264790Y165787D01*
X264929Y165927D01*
X265429Y165719D01*
Y161637D01*
X264782Y160989D01*
X264049Y161413D01*
X263223Y161634D01*
X262368D01*
X261542Y161413D01*
X260801Y160985D01*
X260196Y160380D01*
X259769Y159640D01*
X259547Y158813D01*
Y157958D01*
X259769Y157132D01*
X260196Y156392D01*
X260801Y155787D01*
X261542Y155359D01*
X262368Y155138D01*
X263223D01*
X264049Y155359D01*
X264790Y155787D01*
X265394Y156392D01*
X265822Y157132D01*
X266043Y157958D01*
Y158813D01*
X266042Y158817D01*
X267286Y160060D01*
X267786Y159853D01*
Y115093D01*
X264085Y111392D01*
X264049Y111413D01*
X263223Y111634D01*
X262368D01*
X261542Y111413D01*
X260801Y110985D01*
X260196Y110380D01*
X259769Y109640D01*
X259547Y108813D01*
Y107958D01*
X259769Y107132D01*
X260196Y106392D01*
X260801Y105787D01*
X261542Y105359D01*
X262368Y105138D01*
X263223D01*
X264049Y105359D01*
X264790Y105787D01*
X265394Y106392D01*
X265822Y107132D01*
X266043Y107958D01*
Y108813D01*
X265822Y109640D01*
X265801Y109675D01*
X269324Y113198D01*
X269786Y113007D01*
Y107093D01*
X264085Y101392D01*
X264049Y101412D01*
X263223Y101634D01*
X262368D01*
X261542Y101412D01*
X260801Y100985D01*
X260196Y100380D01*
X259769Y99639D01*
X259547Y98813D01*
Y97958D01*
X259769Y97132D01*
X260196Y96391D01*
X260801Y95787D01*
X261542Y95359D01*
X262368Y95138D01*
X263223D01*
X264049Y95359D01*
X264790Y95787D01*
X265394Y96391D01*
X265822Y97132D01*
X266043Y97958D01*
Y98813D01*
X265822Y99639D01*
X265801Y99675D01*
X271324Y105198D01*
X271786Y105007D01*
Y99093D01*
X264085Y91392D01*
X264049Y91413D01*
X263223Y91634D01*
X262368D01*
X261542Y91413D01*
X260801Y90985D01*
X260196Y90380D01*
X259769Y89640D01*
X259547Y88813D01*
Y87958D01*
X259769Y87132D01*
X260196Y86392D01*
X260801Y85787D01*
X261542Y85359D01*
X262368Y85138D01*
X263223D01*
X264049Y85359D01*
X264790Y85787D01*
X265394Y86392D01*
X265822Y87132D01*
X266043Y87958D01*
Y88813D01*
X265822Y89640D01*
X265801Y89675D01*
X273252Y97126D01*
X273714Y96934D01*
Y1877D01*
X1877D01*
Y588675D01*
X273714D01*
Y280656D01*
D02*
G37*
G36*
X251581Y240702D02*
Y231634D01*
X249547D01*
Y225487D01*
X237694D01*
X237616Y225981D01*
X237896Y226072D01*
X239759Y227021D01*
X241451Y228251D01*
X242930Y229730D01*
X244160Y231422D01*
X245109Y233285D01*
X245756Y235274D01*
X246083Y237340D01*
Y237992D01*
X219508D01*
Y237340D01*
X219835Y235274D01*
X220481Y233285D01*
X221431Y231422D01*
X222660Y229730D01*
X224139Y228251D01*
X225831Y227021D01*
X227695Y226072D01*
X227975Y225981D01*
X227896Y225487D01*
X217730D01*
X212214Y231003D01*
Y279362D01*
X212714Y279570D01*
X251581Y240702D01*
D02*
G37*
G36*
X261079Y231705D02*
X261014Y231108D01*
X260801Y230985D01*
X260196Y230380D01*
X259769Y229640D01*
X259547Y228813D01*
Y227958D01*
X259769Y227132D01*
X260196Y226392D01*
X260801Y225787D01*
X261542Y225359D01*
X262368Y225138D01*
X263223D01*
X264049Y225359D01*
X264790Y225787D01*
X264929Y225927D01*
X265429Y225719D01*
Y221052D01*
X264929Y220845D01*
X264790Y220985D01*
X264049Y221412D01*
X263223Y221634D01*
X262368D01*
X261542Y221412D01*
X260801Y220985D01*
X260196Y220380D01*
X259769Y219639D01*
X259714Y219435D01*
X259214Y219500D01*
X259214Y219500D01*
X259121Y219965D01*
X258858Y220358D01*
X258858Y220358D01*
X254579Y224638D01*
X254786Y225138D01*
X256043D01*
Y231634D01*
X254009D01*
Y238121D01*
X254471Y238312D01*
X261079Y231705D01*
D02*
G37*
%LPC*%
G36*
X256951Y584154D02*
X256299D01*
Y571260D01*
X269193D01*
Y571912D01*
X268866Y573978D01*
X268219Y575967D01*
X267270Y577830D01*
X266041Y579522D01*
X264562Y581001D01*
X262870Y582231D01*
X261006Y583180D01*
X259017Y583826D01*
X256951Y584154D01*
D02*
G37*
G36*
X255512D02*
X254860D01*
X252794Y583826D01*
X250805Y583180D01*
X248941Y582231D01*
X247249Y581001D01*
X245770Y579522D01*
X244541Y577830D01*
X243592Y575967D01*
X242945Y573978D01*
X242618Y571912D01*
Y571260D01*
X255512D01*
Y584154D01*
D02*
G37*
G36*
X20731D02*
X20079D01*
Y571260D01*
X32972D01*
Y571912D01*
X32645Y573978D01*
X31999Y575967D01*
X31049Y577830D01*
X29820Y579522D01*
X28341Y581001D01*
X26649Y582231D01*
X24786Y583180D01*
X22796Y583826D01*
X20731Y584154D01*
D02*
G37*
G36*
X19291D02*
X18639D01*
X16574Y583826D01*
X14584Y583180D01*
X12721Y582231D01*
X11029Y581001D01*
X9550Y579522D01*
X8321Y577830D01*
X7371Y575967D01*
X6725Y573978D01*
X6398Y571912D01*
Y571260D01*
X19291D01*
Y584154D01*
D02*
G37*
G36*
X98844Y575902D02*
X97545D01*
X96271Y575649D01*
X95071Y575152D01*
X93991Y574430D01*
X93072Y573512D01*
X92351Y572432D01*
X91853Y571231D01*
X91600Y569957D01*
Y568658D01*
X91853Y567384D01*
X92351Y566184D01*
X93072Y565104D01*
X93991Y564186D01*
X95071Y563464D01*
X96271Y562967D01*
X97545Y562713D01*
X98844D01*
X100118Y562967D01*
X101318Y563464D01*
X102398Y564186D01*
X103317Y565104D01*
X104038Y566184D01*
X104535Y567384D01*
X104789Y568658D01*
Y569957D01*
X104535Y571231D01*
X104038Y572432D01*
X103317Y573512D01*
X102398Y574430D01*
X101318Y575152D01*
X100118Y575649D01*
X98844Y575902D01*
D02*
G37*
G36*
X178849Y575894D02*
X177550D01*
X176277Y575641D01*
X175076Y575144D01*
X173996Y574422D01*
X173078Y573504D01*
X172356Y572424D01*
X171859Y571223D01*
X171606Y569949D01*
Y568650D01*
X171859Y567377D01*
X172356Y566176D01*
X173078Y565096D01*
X173996Y564178D01*
X175076Y563456D01*
X176277Y562959D01*
X177550Y562706D01*
X178849D01*
X180123Y562959D01*
X181324Y563456D01*
X182404Y564178D01*
X183322Y565096D01*
X184044Y566176D01*
X184541Y567377D01*
X184794Y568650D01*
Y569949D01*
X184541Y571223D01*
X184044Y572424D01*
X183322Y573504D01*
X182404Y574422D01*
X181324Y575144D01*
X180123Y575641D01*
X178849Y575894D01*
D02*
G37*
G36*
X138849D02*
X137550D01*
X136276Y575641D01*
X135076Y575144D01*
X133996Y574422D01*
X133078Y573504D01*
X132356Y572424D01*
X131859Y571223D01*
X131606Y569949D01*
Y568650D01*
X131859Y567377D01*
X132356Y566176D01*
X133078Y565096D01*
X133996Y564178D01*
X135076Y563456D01*
X136276Y562959D01*
X137550Y562706D01*
X138849D01*
X140123Y562959D01*
X141324Y563456D01*
X142404Y564178D01*
X143322Y565096D01*
X144044Y566176D01*
X144541Y567377D01*
X144794Y568650D01*
Y569949D01*
X144541Y571223D01*
X144044Y572424D01*
X143322Y573504D01*
X142404Y574422D01*
X141324Y575144D01*
X140123Y575641D01*
X138849Y575894D01*
D02*
G37*
G36*
X269193Y570472D02*
X256299D01*
Y557579D01*
X256951D01*
X259017Y557906D01*
X261006Y558552D01*
X262870Y559502D01*
X264562Y560731D01*
X266041Y562210D01*
X267270Y563902D01*
X268219Y565765D01*
X268866Y567755D01*
X269193Y569820D01*
Y570472D01*
D02*
G37*
G36*
X255512D02*
X242618D01*
Y569820D01*
X242945Y567755D01*
X243592Y565765D01*
X244541Y563902D01*
X245770Y562210D01*
X247249Y560731D01*
X248941Y559502D01*
X250805Y558552D01*
X252794Y557906D01*
X254860Y557579D01*
X255512D01*
Y570472D01*
D02*
G37*
G36*
X32972D02*
X20079D01*
Y557579D01*
X20731D01*
X22796Y557906D01*
X24786Y558552D01*
X26649Y559502D01*
X28341Y560731D01*
X29820Y562210D01*
X31049Y563902D01*
X31999Y565765D01*
X32645Y567755D01*
X32972Y569820D01*
Y570472D01*
D02*
G37*
G36*
X19291D02*
X6398D01*
Y569820D01*
X6725Y567755D01*
X7371Y565765D01*
X8321Y563902D01*
X9550Y562210D01*
X11029Y560731D01*
X12721Y559502D01*
X14584Y558552D01*
X16574Y557906D01*
X18639Y557579D01*
X19291D01*
Y570472D01*
D02*
G37*
G36*
X104594Y556050D02*
X103606D01*
X102653Y555794D01*
X101797Y555301D01*
X101099Y554602D01*
X100606Y553748D01*
X100350Y552794D01*
Y551806D01*
X100606Y550852D01*
X101099Y549998D01*
X101797Y549299D01*
X102653Y548806D01*
X103606Y548550D01*
X104594D01*
X105547Y548806D01*
X106403Y549299D01*
X107101Y549998D01*
X107594Y550852D01*
X107850Y551806D01*
Y552794D01*
X107594Y553748D01*
X107101Y554602D01*
X106403Y555301D01*
X105547Y555794D01*
X104594Y556050D01*
D02*
G37*
G36*
X96039D02*
X88539D01*
Y548550D01*
X96039D01*
Y556050D01*
D02*
G37*
G36*
X184599Y556042D02*
X183612D01*
X182658Y555787D01*
X181803Y555293D01*
X181105Y554595D01*
X180611Y553740D01*
X180356Y552786D01*
Y551798D01*
X180611Y550845D01*
X181105Y549990D01*
X181803Y549291D01*
X182658Y548798D01*
X183612Y548542D01*
X184599D01*
X185553Y548798D01*
X186408Y549291D01*
X187106Y549990D01*
X187600Y550845D01*
X187856Y551798D01*
Y552786D01*
X187600Y553740D01*
X187106Y554595D01*
X186408Y555293D01*
X185553Y555787D01*
X184599Y556042D01*
D02*
G37*
G36*
X176044D02*
X168544D01*
Y548542D01*
X176044D01*
Y556042D01*
D02*
G37*
G36*
X144599D02*
X143612D01*
X142658Y555787D01*
X141803Y555293D01*
X141105Y554595D01*
X140611Y553740D01*
X140356Y552786D01*
Y551798D01*
X140611Y550845D01*
X141105Y549990D01*
X141803Y549291D01*
X142658Y548798D01*
X143612Y548542D01*
X144599D01*
X145553Y548798D01*
X146408Y549291D01*
X147106Y549990D01*
X147600Y550845D01*
X147855Y551798D01*
Y552786D01*
X147600Y553740D01*
X147106Y554595D01*
X146408Y555293D01*
X145553Y555787D01*
X144599Y556042D01*
D02*
G37*
G36*
X136045D02*
X128544D01*
Y548542D01*
X136045D01*
Y556042D01*
D02*
G37*
G36*
X203489Y546961D02*
X203394D01*
Y544894D01*
X205461D01*
Y544989D01*
X205086Y545894D01*
X204394Y546586D01*
X203489Y546961D01*
D02*
G37*
G36*
X202606D02*
X202510D01*
X201606Y546586D01*
X200914Y545894D01*
X200539Y544989D01*
Y544894D01*
X202606D01*
Y546961D01*
D02*
G37*
G36*
X44489D02*
X44394D01*
Y544894D01*
X46461D01*
Y544989D01*
X46086Y545894D01*
X45394Y546586D01*
X44489Y546961D01*
D02*
G37*
G36*
X43606D02*
X43511D01*
X42606Y546586D01*
X41914Y545894D01*
X41539Y544989D01*
Y544894D01*
X43606D01*
Y546961D01*
D02*
G37*
G36*
X205461Y544106D02*
X203394D01*
Y542039D01*
X203489D01*
X204394Y542414D01*
X205086Y543106D01*
X205461Y544010D01*
Y544106D01*
D02*
G37*
G36*
X202606D02*
X200539D01*
Y544010D01*
X200914Y543106D01*
X201606Y542414D01*
X202510Y542039D01*
X202606D01*
Y544106D01*
D02*
G37*
G36*
X43606D02*
X41539D01*
Y544010D01*
X41914Y543106D01*
X42606Y542414D01*
X43511Y542039D01*
X43606D01*
Y544106D01*
D02*
G37*
G36*
X47989Y543961D02*
X47894D01*
Y541894D01*
X49961D01*
Y541990D01*
X49586Y542894D01*
X48894Y543586D01*
X47989Y543961D01*
D02*
G37*
G36*
X46684Y544106D02*
X44394D01*
Y542039D01*
X44489D01*
X44575Y542075D01*
X44816Y541894D01*
X47106D01*
Y543961D01*
X47011D01*
X46925Y543925D01*
X46684Y544106D01*
D02*
G37*
G36*
X49961Y541106D02*
X47894D01*
Y539039D01*
X47989D01*
X48894Y539414D01*
X49586Y540106D01*
X49961Y541011D01*
Y541106D01*
D02*
G37*
G36*
X47106D02*
X45039D01*
Y541011D01*
X45414Y540106D01*
X46106Y539414D01*
X47011Y539039D01*
X47106D01*
Y541106D01*
D02*
G37*
G36*
X211489Y540961D02*
X211394D01*
Y538894D01*
X213461D01*
Y538989D01*
X213086Y539894D01*
X212394Y540586D01*
X211489Y540961D01*
D02*
G37*
G36*
X210606D02*
X210511D01*
X209606Y540586D01*
X208914Y539894D01*
X208539Y538989D01*
Y538894D01*
X210606D01*
Y540961D01*
D02*
G37*
G36*
X213461Y538106D02*
X211394D01*
Y536039D01*
X211489D01*
X212394Y536414D01*
X213086Y537106D01*
X213461Y538011D01*
Y538106D01*
D02*
G37*
G36*
X210606D02*
X208539D01*
Y538011D01*
X208914Y537106D01*
X209606Y536414D01*
X210511Y536039D01*
X210606D01*
Y538106D01*
D02*
G37*
G36*
X230450Y535764D02*
X229550D01*
X228718Y535419D01*
X228081Y534782D01*
X227736Y533950D01*
Y533050D01*
X228081Y532218D01*
X228718Y531581D01*
X229550Y531236D01*
X230450D01*
X231282Y531581D01*
X231919Y532218D01*
X232264Y533050D01*
Y533950D01*
X231919Y534782D01*
X231282Y535419D01*
X230450Y535764D01*
D02*
G37*
G36*
X241489Y528461D02*
X241394D01*
Y526394D01*
X243461D01*
Y526489D01*
X243086Y527394D01*
X242394Y528086D01*
X241489Y528461D01*
D02*
G37*
G36*
X240606D02*
X240511D01*
X239606Y528086D01*
X238914Y527394D01*
X238539Y526489D01*
Y526394D01*
X240606D01*
Y528461D01*
D02*
G37*
G36*
X243461Y525606D02*
X241394D01*
Y523539D01*
X241489D01*
X242394Y523914D01*
X243086Y524606D01*
X243461Y525511D01*
Y525606D01*
D02*
G37*
G36*
X240606D02*
X238539D01*
Y525511D01*
X238914Y524606D01*
X239606Y523914D01*
X240511Y523539D01*
X240606D01*
Y525606D01*
D02*
G37*
G36*
X52989Y524961D02*
X52894D01*
Y522894D01*
X54961D01*
Y522990D01*
X54586Y523894D01*
X53894Y524586D01*
X52989Y524961D01*
D02*
G37*
G36*
X52106D02*
X52011D01*
X51106Y524586D01*
X50414Y523894D01*
X50039Y522990D01*
Y522894D01*
X52106D01*
Y524961D01*
D02*
G37*
G36*
X197606Y523461D02*
X197511D01*
X196606Y523086D01*
X196000Y522480D01*
X195394Y523086D01*
X194490Y523461D01*
X194394D01*
Y521000D01*
Y518539D01*
X194490D01*
X195394Y518914D01*
X196000Y519520D01*
X196606Y518914D01*
X197511Y518539D01*
X197606D01*
Y521000D01*
Y523461D01*
D02*
G37*
G36*
X166106D02*
X166010D01*
X165106Y523086D01*
X164500Y522480D01*
X163894Y523086D01*
X162989Y523461D01*
X162894D01*
Y521000D01*
Y518539D01*
X162989D01*
X163894Y518914D01*
X164500Y519520D01*
X165106Y518914D01*
X166010Y518539D01*
X166106D01*
Y521000D01*
Y523461D01*
D02*
G37*
G36*
X162106D02*
X162011D01*
X161106Y523086D01*
X160500Y522480D01*
X159894Y523086D01*
X158990Y523461D01*
X158894D01*
Y521000D01*
Y518539D01*
X158990D01*
X159894Y518914D01*
X160500Y519520D01*
X161106Y518914D01*
X162011Y518539D01*
X162106D01*
Y521000D01*
Y523461D01*
D02*
G37*
G36*
X127606D02*
X127510D01*
X126606Y523086D01*
X126000Y522480D01*
X125394Y523086D01*
X124489Y523461D01*
X124394D01*
Y521000D01*
Y518539D01*
X124489D01*
X125394Y518914D01*
X126000Y519520D01*
X126606Y518914D01*
X127510Y518539D01*
X127606D01*
Y521000D01*
Y523461D01*
D02*
G37*
G36*
X123606D02*
X123511D01*
X122606Y523086D01*
X122000Y522480D01*
X121394Y523086D01*
X120490Y523461D01*
X120394D01*
Y521000D01*
Y518539D01*
X120490D01*
X121394Y518914D01*
X122000Y519520D01*
X122606Y518914D01*
X123511Y518539D01*
X123606D01*
Y521000D01*
Y523461D01*
D02*
G37*
G36*
X96106D02*
X96011D01*
X95106Y523086D01*
X94500Y522480D01*
X93894Y523086D01*
X92989Y523461D01*
X92894D01*
Y521000D01*
Y518539D01*
X92989D01*
X93894Y518914D01*
X94500Y519520D01*
X95106Y518914D01*
X96011Y518539D01*
X96106D01*
Y521000D01*
Y523461D01*
D02*
G37*
G36*
X92106D02*
X92011D01*
X91106Y523086D01*
X90500Y522480D01*
X89894Y523086D01*
X88989Y523461D01*
X88894D01*
Y521000D01*
Y518539D01*
X88989D01*
X89894Y518914D01*
X90500Y519520D01*
X91106Y518914D01*
X92011Y518539D01*
X92106D01*
Y521000D01*
Y523461D01*
D02*
G37*
G36*
X193606D02*
X193510D01*
X192606Y523086D01*
X191947Y522427D01*
X191288Y523086D01*
X190383Y523461D01*
X190287D01*
Y521000D01*
Y518539D01*
X190383D01*
X191288Y518914D01*
X191947Y519573D01*
X192606Y518914D01*
X193510Y518539D01*
X193606D01*
Y521000D01*
Y523461D01*
D02*
G37*
G36*
X198489D02*
X198394D01*
Y521394D01*
X200461D01*
Y521489D01*
X200086Y522394D01*
X199394Y523086D01*
X198489Y523461D01*
D02*
G37*
G36*
X189500D02*
X189404D01*
X188500Y523086D01*
X187808Y522394D01*
X187433Y521489D01*
Y521394D01*
X189500D01*
Y523461D01*
D02*
G37*
G36*
X166990D02*
X166894D01*
Y521394D01*
X168961D01*
Y521489D01*
X168586Y522394D01*
X167894Y523086D01*
X166990Y523461D01*
D02*
G37*
G36*
X158106D02*
X158010D01*
X157106Y523086D01*
X156414Y522394D01*
X156039Y521489D01*
Y521394D01*
X158106D01*
Y523461D01*
D02*
G37*
G36*
X128489D02*
X128394D01*
Y521394D01*
X130461D01*
Y521489D01*
X130086Y522394D01*
X129394Y523086D01*
X128489Y523461D01*
D02*
G37*
G36*
X119606D02*
X119510D01*
X118606Y523086D01*
X117914Y522394D01*
X117539Y521489D01*
Y521394D01*
X119606D01*
Y523461D01*
D02*
G37*
G36*
X96989D02*
X96894D01*
Y521394D01*
X98961D01*
Y521489D01*
X98586Y522394D01*
X97894Y523086D01*
X96989Y523461D01*
D02*
G37*
G36*
X88106D02*
X88011D01*
X87106Y523086D01*
X86414Y522394D01*
X86039Y521489D01*
Y521394D01*
X88106D01*
Y523461D01*
D02*
G37*
G36*
X54961Y522106D02*
X52894D01*
Y520039D01*
X52989D01*
X53894Y520414D01*
X54586Y521106D01*
X54961Y522011D01*
Y522106D01*
D02*
G37*
G36*
X52106D02*
X50039D01*
Y522011D01*
X50414Y521106D01*
X51106Y520414D01*
X52011Y520039D01*
X52106D01*
Y522106D01*
D02*
G37*
G36*
X200461Y520606D02*
X198394D01*
Y518539D01*
X198489D01*
X199394Y518914D01*
X200086Y519606D01*
X200461Y520510D01*
Y520606D01*
D02*
G37*
G36*
X189500D02*
X187433D01*
Y520510D01*
X187808Y519606D01*
X188500Y518914D01*
X189404Y518539D01*
X189500D01*
Y520606D01*
D02*
G37*
G36*
X168961D02*
X166894D01*
Y518539D01*
X166990D01*
X167894Y518914D01*
X168586Y519606D01*
X168961Y520510D01*
Y520606D01*
D02*
G37*
G36*
X158106D02*
X156039D01*
Y520510D01*
X156414Y519606D01*
X157106Y518914D01*
X158010Y518539D01*
X158106D01*
Y520606D01*
D02*
G37*
G36*
X130461D02*
X128394D01*
Y518539D01*
X128489D01*
X129394Y518914D01*
X130086Y519606D01*
X130461Y520510D01*
Y520606D01*
D02*
G37*
G36*
X119606D02*
X117539D01*
Y520510D01*
X117914Y519606D01*
X118606Y518914D01*
X119510Y518539D01*
X119606D01*
Y520606D01*
D02*
G37*
G36*
X98961D02*
X96894D01*
Y518539D01*
X96989D01*
X97894Y518914D01*
X98586Y519606D01*
X98961Y520510D01*
Y520606D01*
D02*
G37*
G36*
X88106D02*
X86039D01*
Y520510D01*
X86414Y519606D01*
X87106Y518914D01*
X88011Y518539D01*
X88106D01*
Y520606D01*
D02*
G37*
G36*
X38750Y516352D02*
X38624D01*
Y512799D01*
X42177D01*
Y512925D01*
X41908Y513929D01*
X41388Y514829D01*
X40653Y515564D01*
X39753Y516083D01*
X38750Y516352D01*
D02*
G37*
G36*
X37836D02*
X37710D01*
X36707Y516083D01*
X35807Y515564D01*
X35072Y514829D01*
X34552Y513929D01*
X34283Y512925D01*
Y512799D01*
X37836D01*
Y516352D01*
D02*
G37*
G36*
X186450Y517264D02*
X185550D01*
X184718Y516919D01*
X184081Y516282D01*
X183736Y515450D01*
Y514550D01*
X184081Y513718D01*
X184718Y513081D01*
X185550Y512736D01*
X186450D01*
X187282Y513081D01*
X187919Y513718D01*
X188264Y514550D01*
Y515450D01*
X187919Y516282D01*
X187282Y516919D01*
X186450Y517264D01*
D02*
G37*
G36*
X171450D02*
X170550D01*
X169718Y516919D01*
X169081Y516282D01*
X168736Y515450D01*
Y514550D01*
X169081Y513718D01*
X169718Y513081D01*
X170550Y512736D01*
X171450D01*
X172282Y513081D01*
X172919Y513718D01*
X173264Y514550D01*
Y515450D01*
X172919Y516282D01*
X172282Y516919D01*
X171450Y517264D01*
D02*
G37*
G36*
X116402D02*
X115502D01*
X114670Y516919D01*
X114033Y516282D01*
X113688Y515450D01*
Y514550D01*
X114033Y513718D01*
X114670Y513081D01*
X115502Y512736D01*
X116402D01*
X117234Y513081D01*
X117871Y513718D01*
X118216Y514550D01*
Y515450D01*
X117871Y516282D01*
X117234Y516919D01*
X116402Y517264D01*
D02*
G37*
G36*
X84450Y516764D02*
X83550D01*
X82718Y516419D01*
X82081Y515782D01*
X81736Y514950D01*
Y514050D01*
X82081Y513218D01*
X82718Y512581D01*
X83550Y512236D01*
X84450D01*
X85282Y512581D01*
X85919Y513218D01*
X86264Y514050D01*
Y514950D01*
X85919Y515782D01*
X85282Y516419D01*
X84450Y516764D01*
D02*
G37*
G36*
X218989Y511961D02*
X218894D01*
Y509894D01*
X220961D01*
Y509990D01*
X220586Y510894D01*
X219894Y511586D01*
X218989Y511961D01*
D02*
G37*
G36*
X218106D02*
X218011D01*
X217106Y511586D01*
X216414Y510894D01*
X216039Y509990D01*
Y509894D01*
X218106D01*
Y511961D01*
D02*
G37*
G36*
X241220Y516155D02*
X233720D01*
Y508656D01*
X241220D01*
Y516155D01*
D02*
G37*
G36*
X42177Y512012D02*
X38624D01*
Y508459D01*
X38750D01*
X39753Y508728D01*
X40653Y509247D01*
X41388Y509982D01*
X41908Y510882D01*
X42177Y511886D01*
Y512012D01*
D02*
G37*
G36*
X37836D02*
X34283D01*
Y511886D01*
X34552Y510882D01*
X35072Y509982D01*
X35807Y509247D01*
X36707Y508728D01*
X37710Y508459D01*
X37836D01*
Y512012D01*
D02*
G37*
G36*
X220961Y509106D02*
X218894D01*
Y507039D01*
X218989D01*
X219894Y507414D01*
X220586Y508106D01*
X220961Y509011D01*
Y509106D01*
D02*
G37*
G36*
X218106D02*
X216039D01*
Y509011D01*
X216414Y508106D01*
X217106Y507414D01*
X218011Y507039D01*
X218106D01*
Y509106D01*
D02*
G37*
G36*
X59989Y507961D02*
X59894D01*
Y505894D01*
X61961D01*
Y505990D01*
X61586Y506894D01*
X60894Y507586D01*
X59989Y507961D01*
D02*
G37*
G36*
X59106D02*
X59011D01*
X58106Y507586D01*
X57414Y506894D01*
X57039Y505990D01*
Y505894D01*
X59106D01*
Y507961D01*
D02*
G37*
G36*
X61961Y505106D02*
X59894D01*
Y503039D01*
X59989D01*
X60894Y503414D01*
X61586Y504106D01*
X61961Y505011D01*
Y505106D01*
D02*
G37*
G36*
X59106D02*
X57039D01*
Y505011D01*
X57414Y504106D01*
X58106Y503414D01*
X59011Y503039D01*
X59106D01*
Y505106D01*
D02*
G37*
G36*
X237990Y504541D02*
X237864D01*
Y500988D01*
X241417D01*
Y501114D01*
X241148Y502118D01*
X240628Y503018D01*
X239894Y503753D01*
X238994Y504272D01*
X237990Y504541D01*
D02*
G37*
G36*
X237076D02*
X236950D01*
X235947Y504272D01*
X235047Y503753D01*
X234312Y503018D01*
X233792Y502118D01*
X233523Y501114D01*
Y500988D01*
X237076D01*
Y504541D01*
D02*
G37*
G36*
X255127Y513095D02*
X253829D01*
X252554Y512841D01*
X251354Y512344D01*
X250274Y511622D01*
X249356Y510704D01*
X248634Y509624D01*
X248137Y508424D01*
X247884Y507150D01*
Y505851D01*
X248137Y504576D01*
X248634Y503376D01*
X249356Y502296D01*
X250274Y501378D01*
X251354Y500656D01*
X252554Y500159D01*
X253829Y499905D01*
X255127D01*
X256401Y500159D01*
X257602Y500656D01*
X258682Y501378D01*
X259600Y502296D01*
X260322Y503376D01*
X260819Y504576D01*
X261072Y505851D01*
Y507150D01*
X260819Y508424D01*
X260322Y509624D01*
X259600Y510704D01*
X258682Y511622D01*
X257602Y512344D01*
X256401Y512841D01*
X255127Y513095D01*
D02*
G37*
G36*
X21871D02*
X20573D01*
X19298Y512841D01*
X18098Y512344D01*
X17018Y511622D01*
X16100Y510704D01*
X15378Y509624D01*
X14881Y508424D01*
X14628Y507150D01*
Y505851D01*
X14881Y504576D01*
X15378Y503376D01*
X16100Y502296D01*
X17018Y501378D01*
X18098Y500656D01*
X19298Y500159D01*
X20573Y499905D01*
X21871D01*
X23146Y500159D01*
X24346Y500656D01*
X25426Y501378D01*
X26344Y502296D01*
X27066Y503376D01*
X27563Y504576D01*
X27817Y505851D01*
Y507150D01*
X27563Y508424D01*
X27066Y509624D01*
X26344Y510704D01*
X25426Y511622D01*
X24346Y512344D01*
X23146Y512841D01*
X21871Y513095D01*
D02*
G37*
G36*
X41980Y504345D02*
X34480D01*
Y496844D01*
X41980D01*
Y504345D01*
D02*
G37*
G36*
X241417Y500201D02*
X237864D01*
Y496648D01*
X237990D01*
X238994Y496917D01*
X239894Y497436D01*
X240628Y498171D01*
X241148Y499071D01*
X241417Y500075D01*
Y500201D01*
D02*
G37*
G36*
X237076D02*
X233523D01*
Y500075D01*
X233792Y499071D01*
X234312Y498171D01*
X235047Y497436D01*
X235947Y496917D01*
X236950Y496648D01*
X237076D01*
Y500201D01*
D02*
G37*
G36*
X217989Y494461D02*
X217894D01*
Y492394D01*
X219961D01*
Y492489D01*
X219586Y493394D01*
X218894Y494086D01*
X217989Y494461D01*
D02*
G37*
G36*
X217106D02*
X217011D01*
X216106Y494086D01*
X215414Y493394D01*
X215039Y492489D01*
Y492394D01*
X217106D01*
Y494461D01*
D02*
G37*
G36*
X147450Y496764D02*
X146550D01*
X145718Y496419D01*
X145081Y495782D01*
X144736Y494950D01*
Y494050D01*
X145081Y493218D01*
X145718Y492581D01*
X146550Y492236D01*
X147450D01*
X148282Y492581D01*
X148919Y493218D01*
X149264Y494050D01*
Y494950D01*
X148919Y495782D01*
X148282Y496419D01*
X147450Y496764D01*
D02*
G37*
G36*
X139950D02*
X139050D01*
X138218Y496419D01*
X137581Y495782D01*
X137236Y494950D01*
Y494050D01*
X137581Y493218D01*
X138218Y492581D01*
X139050Y492236D01*
X139950D01*
X140782Y492581D01*
X141419Y493218D01*
X141764Y494050D01*
Y494950D01*
X141419Y495782D01*
X140782Y496419D01*
X139950Y496764D01*
D02*
G37*
G36*
X219961Y491606D02*
X217894D01*
Y489539D01*
X217989D01*
X218894Y489914D01*
X219586Y490606D01*
X219961Y491510D01*
Y491606D01*
D02*
G37*
G36*
X217106D02*
X215039D01*
Y491510D01*
X215414Y490606D01*
X216106Y489914D01*
X217011Y489539D01*
X217106D01*
Y491606D01*
D02*
G37*
G36*
X59989Y476961D02*
X59894D01*
Y474894D01*
X61961D01*
Y474990D01*
X61586Y475894D01*
X60894Y476586D01*
X59989Y476961D01*
D02*
G37*
G36*
X59106D02*
X59011D01*
X58106Y476586D01*
X57414Y475894D01*
X57039Y474990D01*
Y474894D01*
X59106D01*
Y476961D01*
D02*
G37*
G36*
X38750Y476352D02*
X38624D01*
Y472799D01*
X42177D01*
Y472925D01*
X41908Y473929D01*
X41388Y474829D01*
X40653Y475564D01*
X39753Y476083D01*
X38750Y476352D01*
D02*
G37*
G36*
X37836D02*
X37710D01*
X36707Y476083D01*
X35807Y475564D01*
X35072Y474829D01*
X34552Y473929D01*
X34283Y472925D01*
Y472799D01*
X37836D01*
Y476352D01*
D02*
G37*
G36*
X241417D02*
X237864D01*
Y472799D01*
X241417D01*
Y476352D01*
D02*
G37*
G36*
X237076D02*
X233523D01*
Y472799D01*
X237076D01*
Y476352D01*
D02*
G37*
G36*
X61961Y474106D02*
X59894D01*
Y472039D01*
X59989D01*
X60894Y472414D01*
X61586Y473106D01*
X61961Y474011D01*
Y474106D01*
D02*
G37*
G36*
X59106D02*
X57039D01*
Y474011D01*
X57414Y473106D01*
X58106Y472414D01*
X59011Y472039D01*
X59106D01*
Y474106D01*
D02*
G37*
G36*
X241417Y472012D02*
X237864D01*
Y468459D01*
X241417D01*
Y472012D01*
D02*
G37*
G36*
X237076D02*
X233523D01*
Y468459D01*
X237076D01*
Y472012D01*
D02*
G37*
G36*
X42177Y472012D02*
X38624D01*
Y468459D01*
X38750D01*
X39753Y468728D01*
X40653Y469247D01*
X41388Y469982D01*
X41908Y470882D01*
X42177Y471886D01*
Y472012D01*
D02*
G37*
G36*
X37836D02*
X34283D01*
Y471886D01*
X34552Y470882D01*
X35072Y469982D01*
X35807Y469247D01*
X36707Y468728D01*
X37710Y468459D01*
X37836D01*
Y472012D01*
D02*
G37*
G36*
X255127Y473095D02*
X253829D01*
X252554Y472841D01*
X251354Y472344D01*
X250274Y471622D01*
X249356Y470704D01*
X248634Y469624D01*
X248137Y468424D01*
X247884Y467149D01*
Y465850D01*
X248137Y464576D01*
X248634Y463376D01*
X249356Y462296D01*
X250274Y461378D01*
X251354Y460656D01*
X252554Y460159D01*
X253829Y459905D01*
X255127D01*
X256401Y460159D01*
X257602Y460656D01*
X258682Y461378D01*
X259600Y462296D01*
X260322Y463376D01*
X260819Y464576D01*
X261072Y465850D01*
Y467149D01*
X260819Y468424D01*
X260322Y469624D01*
X259600Y470704D01*
X258682Y471622D01*
X257602Y472344D01*
X256401Y472841D01*
X255127Y473095D01*
D02*
G37*
G36*
X21871D02*
X20573D01*
X19298Y472841D01*
X18098Y472344D01*
X17018Y471622D01*
X16100Y470704D01*
X15378Y469624D01*
X14881Y468424D01*
X14628Y467149D01*
Y465850D01*
X14881Y464576D01*
X15378Y463376D01*
X16100Y462296D01*
X17018Y461378D01*
X18098Y460656D01*
X19298Y460159D01*
X20573Y459905D01*
X21871D01*
X23146Y460159D01*
X24346Y460656D01*
X25426Y461378D01*
X26344Y462296D01*
X27066Y463376D01*
X27563Y464576D01*
X27817Y465850D01*
Y467149D01*
X27563Y468424D01*
X27066Y469624D01*
X26344Y470704D01*
X25426Y471622D01*
X24346Y472344D01*
X23146Y472841D01*
X21871Y473095D01*
D02*
G37*
G36*
X150734Y463764D02*
X149833D01*
X149001Y463419D01*
X148364Y462782D01*
X148020Y461950D01*
Y461050D01*
X148364Y460218D01*
X149001Y459581D01*
X149833Y459236D01*
X150734D01*
X151566Y459581D01*
X152203Y460218D01*
X152547Y461050D01*
Y461950D01*
X152203Y462782D01*
X151566Y463419D01*
X150734Y463764D01*
D02*
G37*
G36*
X135950Y463264D02*
X135050D01*
X134218Y462919D01*
X133581Y462282D01*
X133236Y461450D01*
Y460550D01*
X133581Y459718D01*
X134218Y459081D01*
X135050Y458736D01*
X135950D01*
X136782Y459081D01*
X137419Y459718D01*
X137764Y460550D01*
Y461450D01*
X137419Y462282D01*
X136782Y462919D01*
X135950Y463264D01*
D02*
G37*
G36*
X237964Y464345D02*
X236976D01*
X236023Y464089D01*
X235168Y463595D01*
X234469Y462897D01*
X233976Y462042D01*
X233720Y461088D01*
Y460101D01*
X233976Y459147D01*
X234469Y458292D01*
X235168Y457594D01*
X236023Y457100D01*
X236976Y456845D01*
X237964D01*
X238917Y457100D01*
X239773Y457594D01*
X240471Y458292D01*
X240965Y459147D01*
X241220Y460101D01*
Y461088D01*
X240965Y462042D01*
X240471Y462897D01*
X239773Y463595D01*
X238917Y464089D01*
X237964Y464345D01*
D02*
G37*
G36*
X41980D02*
X34480D01*
Y456845D01*
X41980D01*
Y464345D01*
D02*
G37*
G36*
X12989Y458461D02*
X12894D01*
Y456394D01*
X14961D01*
Y456490D01*
X14586Y457394D01*
X13894Y458086D01*
X12989Y458461D01*
D02*
G37*
G36*
X12106D02*
X12011D01*
X11106Y458086D01*
X10414Y457394D01*
X10039Y456490D01*
Y456394D01*
X12106D01*
Y458461D01*
D02*
G37*
G36*
X69950Y458764D02*
X69050D01*
X68218Y458419D01*
X67581Y457782D01*
X67236Y456950D01*
Y456050D01*
X67581Y455218D01*
X68218Y454581D01*
X69050Y454236D01*
X69950D01*
X70782Y454581D01*
X71419Y455218D01*
X71764Y456050D01*
Y456950D01*
X71419Y457782D01*
X70782Y458419D01*
X69950Y458764D01*
D02*
G37*
G36*
X14961Y455606D02*
X12894D01*
Y453539D01*
X12989D01*
X13894Y453914D01*
X14586Y454606D01*
X14961Y455511D01*
Y455606D01*
D02*
G37*
G36*
X12106D02*
X10039D01*
Y455511D01*
X10414Y454606D01*
X11106Y453914D01*
X12011Y453539D01*
X12106D01*
Y455606D01*
D02*
G37*
G36*
X77450Y457764D02*
X76550D01*
X75718Y457419D01*
X75081Y456782D01*
X74736Y455950D01*
Y455050D01*
X75081Y454218D01*
X75718Y453581D01*
X76550Y453236D01*
X77450D01*
X78282Y453581D01*
X78919Y454218D01*
X79264Y455050D01*
Y455950D01*
X78919Y456782D01*
X78282Y457419D01*
X77450Y457764D01*
D02*
G37*
G36*
X209950Y457264D02*
X209050D01*
X208218Y456919D01*
X207581Y456282D01*
X207236Y455450D01*
Y454550D01*
X207581Y453718D01*
X208218Y453081D01*
X209050Y452736D01*
X209950D01*
X210782Y453081D01*
X211419Y453718D01*
X211764Y454550D01*
Y455450D01*
X211419Y456282D01*
X210782Y456919D01*
X209950Y457264D01*
D02*
G37*
G36*
X217989Y452961D02*
X217894D01*
Y450894D01*
X219961D01*
Y450989D01*
X219586Y451894D01*
X218894Y452586D01*
X217989Y452961D01*
D02*
G37*
G36*
X217106D02*
X217011D01*
X216106Y452586D01*
X215414Y451894D01*
X215039Y450989D01*
Y450894D01*
X217106D01*
Y452961D01*
D02*
G37*
G36*
X219961Y450106D02*
X217894D01*
Y448039D01*
X217989D01*
X218894Y448414D01*
X219586Y449106D01*
X219961Y450010D01*
Y450106D01*
D02*
G37*
G36*
X217106D02*
X215039D01*
Y450010D01*
X215414Y449106D01*
X216106Y448414D01*
X217011Y448039D01*
X217106D01*
Y450106D01*
D02*
G37*
G36*
X206489Y449461D02*
X206394D01*
Y447394D01*
X208461D01*
Y447490D01*
X208086Y448394D01*
X207394Y449086D01*
X206489Y449461D01*
D02*
G37*
G36*
X205606D02*
X205511D01*
X204606Y449086D01*
X203914Y448394D01*
X203539Y447490D01*
Y447394D01*
X205606D01*
Y449461D01*
D02*
G37*
G36*
X145490D02*
X145394D01*
Y447394D01*
X147461D01*
Y447490D01*
X147086Y448394D01*
X146394Y449086D01*
X145490Y449461D01*
D02*
G37*
G36*
X144606D02*
X144510D01*
X143606Y449086D01*
X142914Y448394D01*
X142539Y447490D01*
Y447394D01*
X144606D01*
Y449461D01*
D02*
G37*
G36*
X135989D02*
X135894D01*
Y447394D01*
X137961D01*
Y447490D01*
X137586Y448394D01*
X136894Y449086D01*
X135989Y449461D01*
D02*
G37*
G36*
X135106D02*
X135011D01*
X134106Y449086D01*
X133414Y448394D01*
X133039Y447490D01*
Y447394D01*
X135106D01*
Y449461D01*
D02*
G37*
G36*
X74989D02*
X74894D01*
Y447394D01*
X76961D01*
Y447490D01*
X76586Y448394D01*
X75894Y449086D01*
X74989Y449461D01*
D02*
G37*
G36*
X74106D02*
X74011D01*
X73106Y449086D01*
X72414Y448394D01*
X72039Y447490D01*
Y447394D01*
X74106D01*
Y449461D01*
D02*
G37*
G36*
X208461Y446606D02*
X206394D01*
Y444539D01*
X206489D01*
X207394Y444914D01*
X208086Y445606D01*
X208461Y446511D01*
Y446606D01*
D02*
G37*
G36*
X205606D02*
X203539D01*
Y446511D01*
X203914Y445606D01*
X204606Y444914D01*
X205511Y444539D01*
X205606D01*
Y446606D01*
D02*
G37*
G36*
X147461D02*
X145394D01*
Y444539D01*
X145490D01*
X146394Y444914D01*
X147086Y445606D01*
X147461Y446511D01*
Y446606D01*
D02*
G37*
G36*
X144606D02*
X142539D01*
Y446511D01*
X142914Y445606D01*
X143606Y444914D01*
X144510Y444539D01*
X144606D01*
Y446606D01*
D02*
G37*
G36*
X137961D02*
X135894D01*
Y444539D01*
X135989D01*
X136894Y444914D01*
X137586Y445606D01*
X137961Y446511D01*
Y446606D01*
D02*
G37*
G36*
X135106D02*
X133039D01*
Y446511D01*
X133414Y445606D01*
X134106Y444914D01*
X135011Y444539D01*
X135106D01*
Y446606D01*
D02*
G37*
G36*
X76961D02*
X74894D01*
Y444539D01*
X74989D01*
X75894Y444914D01*
X76586Y445606D01*
X76961Y446511D01*
Y446606D01*
D02*
G37*
G36*
X74106D02*
X72039D01*
Y446511D01*
X72414Y445606D01*
X73106Y444914D01*
X74011Y444539D01*
X74106D01*
Y446606D01*
D02*
G37*
G36*
X12989Y439961D02*
X12894D01*
Y437894D01*
X14961D01*
Y437990D01*
X14586Y438894D01*
X13894Y439586D01*
X12989Y439961D01*
D02*
G37*
G36*
X12106D02*
X12011D01*
X11106Y439586D01*
X10414Y438894D01*
X10039Y437990D01*
Y437894D01*
X12106D01*
Y439961D01*
D02*
G37*
G36*
X14961Y437106D02*
X12894D01*
Y435039D01*
X12989D01*
X13894Y435414D01*
X14586Y436106D01*
X14961Y437010D01*
Y437106D01*
D02*
G37*
G36*
X12106D02*
X10039D01*
Y437010D01*
X10414Y436106D01*
X11106Y435414D01*
X12011Y435039D01*
X12106D01*
Y437106D01*
D02*
G37*
G36*
X144990Y436961D02*
X144894D01*
Y434894D01*
X146961D01*
Y434990D01*
X146586Y435894D01*
X145894Y436586D01*
X144990Y436961D01*
D02*
G37*
G36*
X144106D02*
X144010D01*
X143106Y436586D01*
X142414Y435894D01*
X142039Y434990D01*
Y434894D01*
X144106D01*
Y436961D01*
D02*
G37*
G36*
X133950Y438764D02*
X133050D01*
X132218Y438419D01*
X131581Y437782D01*
X131236Y436950D01*
Y436050D01*
X131581Y435218D01*
X132218Y434581D01*
X133050Y434236D01*
X133950D01*
X134782Y434581D01*
X135419Y435218D01*
X135764Y436050D01*
Y436950D01*
X135419Y437782D01*
X134782Y438419D01*
X133950Y438764D01*
D02*
G37*
G36*
X241417Y436252D02*
X237864D01*
Y432699D01*
X241417D01*
Y436252D01*
D02*
G37*
G36*
X237076D02*
X233523D01*
Y432699D01*
X237076D01*
Y436252D01*
D02*
G37*
G36*
X146961Y434106D02*
X144894D01*
Y432039D01*
X144990D01*
X145894Y432414D01*
X146586Y433106D01*
X146961Y434011D01*
Y434106D01*
D02*
G37*
G36*
X144106D02*
X142039D01*
Y434011D01*
X142414Y433106D01*
X143106Y432414D01*
X144010Y432039D01*
X144106D01*
Y434106D01*
D02*
G37*
G36*
X241417Y431912D02*
X237864D01*
Y428359D01*
X241417D01*
Y431912D01*
D02*
G37*
G36*
X237076D02*
X233523D01*
Y428359D01*
X237076D01*
Y431912D01*
D02*
G37*
G36*
X210489Y429961D02*
X210394D01*
Y427894D01*
X212461D01*
Y427989D01*
X212086Y428894D01*
X211394Y429586D01*
X210489Y429961D01*
D02*
G37*
G36*
X209606D02*
X209511D01*
X208606Y429586D01*
X207914Y428894D01*
X207539Y427989D01*
Y427894D01*
X209606D01*
Y429961D01*
D02*
G37*
G36*
X195361Y430174D02*
X194460D01*
X193628Y429830D01*
X192992Y429193D01*
X192647Y428361D01*
Y427460D01*
X192992Y426628D01*
X193628Y425992D01*
X194460Y425647D01*
X195361D01*
X196193Y425992D01*
X196830Y426628D01*
X197175Y427460D01*
Y428361D01*
X196830Y429193D01*
X196193Y429830D01*
X195361Y430174D01*
D02*
G37*
G36*
X212461Y427106D02*
X210394D01*
Y425039D01*
X210489D01*
X211394Y425414D01*
X212086Y426106D01*
X212461Y427010D01*
Y427106D01*
D02*
G37*
G36*
X209606D02*
X207539D01*
Y427010D01*
X207914Y426106D01*
X208606Y425414D01*
X209511Y425039D01*
X209606D01*
Y427106D01*
D02*
G37*
G36*
X175489Y425961D02*
X175394D01*
Y423894D01*
X177461D01*
Y423989D01*
X177086Y424894D01*
X176394Y425586D01*
X175489Y425961D01*
D02*
G37*
G36*
X174606D02*
X174511D01*
X173606Y425586D01*
X172914Y424894D01*
X172539Y423989D01*
Y423894D01*
X174606D01*
Y425961D01*
D02*
G37*
G36*
X109587Y439968D02*
X108687D01*
X107855Y439623D01*
X107218Y438986D01*
X106873Y438154D01*
Y437254D01*
X107218Y436422D01*
X107855Y435785D01*
X107923Y435756D01*
Y423080D01*
X107461Y422990D01*
X107086Y423894D01*
X106394Y424586D01*
X105490Y424961D01*
X105394D01*
Y422500D01*
Y420039D01*
X105490D01*
X106394Y420414D01*
X107086Y421106D01*
X107461Y422011D01*
X107923Y421920D01*
Y411863D01*
X107923Y411863D01*
X108016Y411399D01*
X108279Y411005D01*
X113286Y405997D01*
Y350532D01*
X113286Y350532D01*
X113379Y350068D01*
X113642Y349674D01*
X200286Y263029D01*
Y175000D01*
X200286Y175000D01*
X200378Y174536D01*
X200642Y174142D01*
X247182Y127601D01*
X247576Y127338D01*
X248041Y127245D01*
X248041Y127245D01*
X249738D01*
X249769Y127132D01*
X250196Y126391D01*
X250801Y125787D01*
X251542Y125359D01*
X252368Y125138D01*
X253223D01*
X254049Y125359D01*
X254790Y125787D01*
X255394Y126391D01*
X255822Y127132D01*
X256043Y127958D01*
Y128813D01*
X255822Y129639D01*
X255394Y130380D01*
X254790Y130985D01*
X254049Y131412D01*
X253223Y131634D01*
X252368D01*
X251542Y131412D01*
X250801Y130985D01*
X250196Y130380D01*
X249788Y129673D01*
X248544D01*
X202714Y175503D01*
Y263532D01*
X202714Y263532D01*
X202622Y263997D01*
X202358Y264391D01*
X115911Y350838D01*
X115917Y351052D01*
X116332Y351230D01*
X116453Y351223D01*
X203786Y263890D01*
Y178500D01*
X203786Y178500D01*
X203878Y178035D01*
X204142Y177642D01*
X244256Y137528D01*
X244256Y137528D01*
X244650Y137264D01*
X245114Y137172D01*
X245114Y137172D01*
X249758D01*
X249769Y137132D01*
X250196Y136391D01*
X250801Y135787D01*
X251542Y135359D01*
X252368Y135138D01*
X253223D01*
X254049Y135359D01*
X254790Y135787D01*
X255394Y136391D01*
X255822Y137132D01*
X256043Y137958D01*
Y138813D01*
X255822Y139639D01*
X255394Y140380D01*
X254790Y140985D01*
X254049Y141412D01*
X253223Y141634D01*
X252368D01*
X251542Y141412D01*
X250801Y140985D01*
X250196Y140380D01*
X249769Y139639D01*
X249758Y139600D01*
X245617D01*
X206214Y179003D01*
Y264393D01*
X206121Y264857D01*
X205858Y265251D01*
X205858Y265251D01*
X164646Y306463D01*
X164854Y306963D01*
X165245D01*
X166077Y307308D01*
X166714Y307944D01*
X167040Y308731D01*
X167246Y308789D01*
X167559Y308810D01*
X167731Y308552D01*
X206786Y269497D01*
Y182849D01*
X206786Y182849D01*
X206878Y182384D01*
X207142Y181990D01*
X245736Y143396D01*
Y142550D01*
X246081Y141718D01*
X246718Y141081D01*
X247550Y140736D01*
X248450D01*
X249282Y141081D01*
X249919Y141718D01*
X250264Y142550D01*
Y143450D01*
X249919Y144282D01*
X249282Y144919D01*
X248450Y145264D01*
X247550D01*
X247374Y145191D01*
X209214Y183351D01*
Y270000D01*
X209214Y270000D01*
X209121Y270464D01*
X208858Y270858D01*
X208858Y270858D01*
X175384Y304332D01*
X175591Y304833D01*
X176238D01*
X177143Y305207D01*
X177835Y305899D01*
X178209Y306804D01*
Y306899D01*
X175749D01*
Y307293D01*
X175355D01*
Y309754D01*
X175259D01*
X174355Y309379D01*
X173663Y308687D01*
X173288Y307783D01*
Y307136D01*
X172788Y306929D01*
X169803Y309913D01*
Y313882D01*
X170282Y314081D01*
X170919Y314718D01*
X171264Y315550D01*
Y316450D01*
X170919Y317282D01*
X170282Y317919D01*
X169450Y318264D01*
X168550D01*
X167718Y317919D01*
X167081Y317282D01*
X166736Y316450D01*
Y315550D01*
X167081Y314718D01*
X167375Y314423D01*
Y310219D01*
X166875Y310120D01*
X166714Y310509D01*
X166077Y311146D01*
X165245Y311491D01*
X164345D01*
X163513Y311146D01*
X162876Y310509D01*
X162531Y309677D01*
Y309285D01*
X162031Y309078D01*
X118214Y352895D01*
Y393406D01*
X118714Y393613D01*
X118913Y393414D01*
X119818Y393039D01*
X119913D01*
Y395500D01*
Y397961D01*
X119818D01*
X118913Y397586D01*
X118714Y397387D01*
X118214Y397594D01*
Y434732D01*
X118287D01*
X119119Y435077D01*
X119756Y435714D01*
X120101Y436546D01*
Y437446D01*
X119756Y438278D01*
X119119Y438915D01*
X118287Y439260D01*
X117387D01*
X116555Y438915D01*
X115918Y438278D01*
X115573Y437446D01*
Y436546D01*
X115847Y435885D01*
X115786Y435578D01*
X115786Y435578D01*
Y407618D01*
X115574Y407489D01*
X115286Y407431D01*
X110351Y412366D01*
Y435756D01*
X110419Y435785D01*
X111056Y436422D01*
X111401Y437254D01*
Y438154D01*
X111056Y438986D01*
X110419Y439623D01*
X109587Y439968D01*
D02*
G37*
G36*
X104606Y424961D02*
X104510D01*
X103606Y424586D01*
X102914Y423894D01*
X102539Y422990D01*
Y422894D01*
X104606D01*
Y424961D01*
D02*
G37*
G36*
X177461Y423106D02*
X175394D01*
Y421039D01*
X175489D01*
X176394Y421414D01*
X177086Y422106D01*
X177461Y423010D01*
Y423106D01*
D02*
G37*
G36*
X174606D02*
X172539D01*
Y423010D01*
X172914Y422106D01*
X173606Y421414D01*
X174511Y421039D01*
X174606D01*
Y423106D01*
D02*
G37*
G36*
X37836Y424441D02*
X34283D01*
Y420888D01*
X37836D01*
Y424441D01*
D02*
G37*
G36*
X104606Y422106D02*
X102539D01*
Y422011D01*
X102914Y421106D01*
X103606Y420414D01*
X104510Y420039D01*
X104606D01*
Y422106D01*
D02*
G37*
G36*
X255127Y432995D02*
X253829D01*
X252554Y432741D01*
X251354Y432244D01*
X250274Y431522D01*
X249356Y430604D01*
X248634Y429524D01*
X248137Y428324D01*
X247884Y427049D01*
Y425750D01*
X248137Y424476D01*
X248634Y423276D01*
X249356Y422196D01*
X250274Y421278D01*
X251354Y420556D01*
X252554Y420059D01*
X253829Y419805D01*
X255127D01*
X256401Y420059D01*
X257602Y420556D01*
X258682Y421278D01*
X259600Y422196D01*
X260322Y423276D01*
X260819Y424476D01*
X261072Y425750D01*
Y427049D01*
X260819Y428324D01*
X260322Y429524D01*
X259600Y430604D01*
X258682Y431522D01*
X257602Y432244D01*
X256401Y432741D01*
X255127Y432995D01*
D02*
G37*
G36*
X21871D02*
X20573D01*
X19298Y432741D01*
X18098Y432244D01*
X17018Y431522D01*
X16100Y430604D01*
X15378Y429524D01*
X14881Y428324D01*
X14628Y427049D01*
Y425750D01*
X14881Y424476D01*
X15378Y423276D01*
X16100Y422196D01*
X17018Y421278D01*
X18098Y420556D01*
X19298Y420059D01*
X20573Y419805D01*
X21871D01*
X23146Y420059D01*
X24346Y420556D01*
X25426Y421278D01*
X26344Y422196D01*
X27066Y423276D01*
X27563Y424476D01*
X27817Y425750D01*
Y427049D01*
X27563Y428324D01*
X27066Y429524D01*
X26344Y430604D01*
X25426Y431522D01*
X24346Y432244D01*
X23146Y432741D01*
X21871Y432995D01*
D02*
G37*
G36*
X152989Y419461D02*
X152894D01*
Y417394D01*
X154961D01*
Y417489D01*
X154586Y418394D01*
X153894Y419086D01*
X152989Y419461D01*
D02*
G37*
G36*
X152106D02*
X152011D01*
X151106Y419086D01*
X150414Y418394D01*
X150039Y417489D01*
Y417394D01*
X152106D01*
Y419461D01*
D02*
G37*
G36*
X237964Y424244D02*
X236976D01*
X236023Y423989D01*
X235168Y423495D01*
X234469Y422797D01*
X233976Y421942D01*
X233720Y420988D01*
Y420001D01*
X233976Y419047D01*
X234469Y418192D01*
X235168Y417494D01*
X236023Y417000D01*
X236976Y416745D01*
X237964D01*
X238917Y417000D01*
X239773Y417494D01*
X240471Y418192D01*
X240965Y419047D01*
X241220Y420001D01*
Y420988D01*
X240965Y421942D01*
X240471Y422797D01*
X239773Y423495D01*
X238917Y423989D01*
X237964Y424244D01*
D02*
G37*
G36*
X37836Y420101D02*
X34283D01*
Y416548D01*
X37836D01*
Y420101D01*
D02*
G37*
G36*
X154961Y416606D02*
X152894D01*
Y414539D01*
X152989D01*
X153894Y414914D01*
X154586Y415606D01*
X154961Y416510D01*
Y416606D01*
D02*
G37*
G36*
X152106D02*
X150039D01*
Y416510D01*
X150414Y415606D01*
X151106Y414914D01*
X152011Y414539D01*
X152106D01*
Y416606D01*
D02*
G37*
G36*
X126489Y414961D02*
X126394D01*
Y412894D01*
X128461D01*
Y412990D01*
X128086Y413894D01*
X127394Y414586D01*
X126489Y414961D01*
D02*
G37*
G36*
X125606D02*
X125511D01*
X124606Y414586D01*
X123914Y413894D01*
X123539Y412990D01*
Y412894D01*
X125606D01*
Y414961D01*
D02*
G37*
G36*
X128461Y412106D02*
X126394D01*
Y410039D01*
X126489D01*
X127394Y410414D01*
X128086Y411106D01*
X128461Y412010D01*
Y412106D01*
D02*
G37*
G36*
X125606D02*
X123539D01*
Y412010D01*
X123914Y411106D01*
X124606Y410414D01*
X125511Y410039D01*
X125606D01*
Y412106D01*
D02*
G37*
G36*
X57989Y409961D02*
X57894D01*
Y407894D01*
X59961D01*
Y407989D01*
X59586Y408894D01*
X58894Y409586D01*
X57989Y409961D01*
D02*
G37*
G36*
X57106D02*
X57011D01*
X56106Y409586D01*
X55414Y408894D01*
X55039Y407989D01*
Y407894D01*
X57106D01*
Y409961D01*
D02*
G37*
G36*
X59961Y407106D02*
X57894D01*
Y405039D01*
X57989D01*
X58894Y405414D01*
X59586Y406106D01*
X59961Y407011D01*
Y407106D01*
D02*
G37*
G36*
X57106D02*
X55039D01*
Y407011D01*
X55414Y406106D01*
X56106Y405414D01*
X57011Y405039D01*
X57106D01*
Y407106D01*
D02*
G37*
G36*
X123606Y397961D02*
X123511D01*
X122606Y397586D01*
X122153Y397133D01*
X121701Y397586D01*
X120797Y397961D01*
X120701D01*
Y395500D01*
Y393039D01*
X120797D01*
X121701Y393414D01*
X122153Y393867D01*
X122606Y393414D01*
X123511Y393039D01*
X123606D01*
Y395500D01*
Y397961D01*
D02*
G37*
G36*
X154606D02*
X154510D01*
X153606Y397586D01*
X153000Y396980D01*
X152394Y397586D01*
X151489Y397961D01*
X151394D01*
Y395500D01*
Y393039D01*
X151489D01*
X152394Y393414D01*
X153000Y394020D01*
X153606Y393414D01*
X154510Y393039D01*
X154606D01*
Y395500D01*
Y397961D01*
D02*
G37*
G36*
X127606D02*
X127510D01*
X126606Y397586D01*
X126000Y396980D01*
X125394Y397586D01*
X124489Y397961D01*
X124394D01*
Y395500D01*
Y393039D01*
X124489D01*
X125394Y393414D01*
X126000Y394020D01*
X126606Y393414D01*
X127510Y393039D01*
X127606D01*
Y395500D01*
Y397961D01*
D02*
G37*
G36*
X201353Y408902D02*
X200701D01*
Y396008D01*
X213595D01*
Y396660D01*
X213267Y398726D01*
X212621Y400715D01*
X211671Y402578D01*
X210442Y404270D01*
X208963Y405749D01*
X207271Y406979D01*
X205408Y407928D01*
X203419Y408574D01*
X201353Y408902D01*
D02*
G37*
G36*
X150606Y397961D02*
X150511D01*
X149606Y397586D01*
X148914Y396894D01*
X148539Y395989D01*
Y395894D01*
X150606D01*
Y397961D01*
D02*
G37*
G36*
X128489D02*
X128394D01*
Y395894D01*
X130461D01*
Y395989D01*
X130086Y396894D01*
X129394Y397586D01*
X128489Y397961D01*
D02*
G37*
G36*
X80550Y400164D02*
X79650D01*
X78818Y399819D01*
X78181Y399182D01*
X77836Y398350D01*
Y397450D01*
X78181Y396618D01*
X78818Y395981D01*
X79650Y395636D01*
X80550D01*
X81382Y395981D01*
X82019Y396618D01*
X82364Y397450D01*
Y398350D01*
X82019Y399182D01*
X81382Y399819D01*
X80550Y400164D01*
D02*
G37*
G36*
X256951Y406988D02*
X256299D01*
Y394094D01*
X269193D01*
Y394746D01*
X268866Y396812D01*
X268219Y398801D01*
X267270Y400665D01*
X266041Y402357D01*
X264562Y403836D01*
X262870Y405065D01*
X261006Y406015D01*
X259017Y406661D01*
X256951Y406988D01*
D02*
G37*
G36*
X255512D02*
X254860D01*
X252794Y406661D01*
X250805Y406015D01*
X248941Y405065D01*
X247249Y403836D01*
X245770Y402357D01*
X244541Y400665D01*
X243592Y398801D01*
X242945Y396812D01*
X242618Y394746D01*
Y394094D01*
X255512D01*
Y406988D01*
D02*
G37*
G36*
X20731D02*
X20079D01*
Y394094D01*
X32972D01*
Y394746D01*
X32645Y396812D01*
X31999Y398801D01*
X31049Y400665D01*
X29820Y402357D01*
X28341Y403836D01*
X26649Y405065D01*
X24786Y406015D01*
X22796Y406661D01*
X20731Y406988D01*
D02*
G37*
G36*
X19291D02*
X18639D01*
X16574Y406661D01*
X14584Y406015D01*
X12721Y405065D01*
X11029Y403836D01*
X9550Y402357D01*
X8321Y400665D01*
X7371Y398801D01*
X6725Y396812D01*
X6398Y394746D01*
Y394094D01*
X19291D01*
Y406988D01*
D02*
G37*
G36*
X150606Y395106D02*
X148539D01*
Y395011D01*
X148914Y394106D01*
X149606Y393414D01*
X150511Y393039D01*
X150606D01*
Y395106D01*
D02*
G37*
G36*
X130461D02*
X128394D01*
Y393039D01*
X128489D01*
X129394Y393414D01*
X130086Y394106D01*
X130461Y395011D01*
Y395106D01*
D02*
G37*
G36*
X52112Y391567D02*
X52016D01*
Y389500D01*
X54083D01*
Y389596D01*
X53709Y390500D01*
X53017Y391192D01*
X52112Y391567D01*
D02*
G37*
G36*
X38724Y436056D02*
X37736D01*
X36783Y435800D01*
X35927Y435306D01*
X35229Y434608D01*
X34736Y433753D01*
X34480Y432799D01*
Y431812D01*
X34736Y430858D01*
X35229Y430003D01*
X35927Y429305D01*
X36783Y428811D01*
X37736Y428555D01*
X38724D01*
X39677Y428811D01*
X39887Y428932D01*
X42286Y426533D01*
Y424896D01*
X42177Y424441D01*
X41786Y424441D01*
X38624D01*
Y420495D01*
Y416548D01*
X41786D01*
X42177Y416548D01*
X42286Y416093D01*
Y366788D01*
X41786Y366722D01*
X41724Y366953D01*
X41231Y367808D01*
X40532Y368506D01*
X39677Y369000D01*
X38724Y369255D01*
X37736D01*
X36783Y369000D01*
X35927Y368506D01*
X35229Y367808D01*
X34736Y366953D01*
X34480Y365999D01*
Y365012D01*
X34736Y364058D01*
X35229Y363203D01*
X35927Y362505D01*
X36783Y362011D01*
X37736Y361755D01*
X38724D01*
X39677Y362011D01*
X39887Y362132D01*
X46786Y355233D01*
Y283500D01*
X46786Y283500D01*
X46809Y283387D01*
X46359Y283083D01*
X46214Y283177D01*
Y314927D01*
X46214Y314927D01*
X46121Y315391D01*
X45858Y315785D01*
X45858Y315785D01*
X40423Y321220D01*
Y322442D01*
X40532Y322505D01*
X41231Y323203D01*
X41724Y324058D01*
X41980Y325012D01*
Y325999D01*
X41724Y326953D01*
X41231Y327808D01*
X40532Y328506D01*
X39677Y329000D01*
X38724Y329256D01*
X37736D01*
X36783Y329000D01*
X35927Y328506D01*
X35229Y327808D01*
X34736Y326953D01*
X34480Y325999D01*
Y325012D01*
X34736Y324058D01*
X35229Y323203D01*
X35927Y322505D01*
X36783Y322011D01*
X37736Y321756D01*
X37995D01*
Y320718D01*
X37995Y320718D01*
X38088Y320253D01*
X38351Y319859D01*
X40107Y318103D01*
X39916Y317641D01*
X38624D01*
Y314088D01*
X42177D01*
Y315380D01*
X42639Y315572D01*
X43786Y314424D01*
Y282500D01*
X43786Y282500D01*
X43818Y282342D01*
X43357Y282095D01*
X41603Y283849D01*
X41724Y284058D01*
X41980Y285012D01*
Y285999D01*
X41724Y286953D01*
X41231Y287808D01*
X40532Y288506D01*
X39677Y289000D01*
X38724Y289255D01*
X37736D01*
X36783Y289000D01*
X35927Y288506D01*
X35229Y287808D01*
X34736Y286953D01*
X34480Y285999D01*
Y285012D01*
X34736Y284058D01*
X35229Y283203D01*
X35927Y282505D01*
X36783Y282011D01*
X37736Y281755D01*
X38724D01*
X39677Y282011D01*
X39887Y282132D01*
X75377Y246642D01*
X75377Y246642D01*
X75771Y246378D01*
X76235Y246286D01*
X76236Y246286D01*
X92553D01*
X92581Y246218D01*
X93218Y245581D01*
X94050Y245236D01*
X94950D01*
X95782Y245581D01*
X96419Y246218D01*
X96764Y247050D01*
Y247950D01*
X96419Y248782D01*
X95782Y249419D01*
X94950Y249764D01*
X94050D01*
X93218Y249419D01*
X92581Y248782D01*
X92553Y248714D01*
X76738D01*
X75595Y249857D01*
X75842Y250318D01*
X76000Y250286D01*
X76000Y250286D01*
X105402D01*
X105581Y249854D01*
X106218Y249217D01*
X107050Y248872D01*
X107950D01*
X108782Y249217D01*
X109419Y249854D01*
X109764Y250686D01*
Y251587D01*
X109419Y252419D01*
X108782Y253055D01*
X108225Y253286D01*
X108325Y253786D01*
X115345D01*
X115581Y253218D01*
X116218Y252581D01*
X117050Y252236D01*
X117950D01*
X118782Y252581D01*
X119419Y253218D01*
X119764Y254050D01*
Y254950D01*
X119419Y255782D01*
X118915Y256286D01*
X119103Y256786D01*
X125552D01*
X125581Y256718D01*
X126218Y256081D01*
X127050Y255736D01*
X127950D01*
X128782Y256081D01*
X129419Y256718D01*
X129764Y257550D01*
Y258450D01*
X129419Y259282D01*
X128782Y259919D01*
X127950Y260264D01*
X127050D01*
X126218Y259919D01*
X125581Y259282D01*
X125552Y259214D01*
X78503D01*
X77148Y260568D01*
X77431Y260992D01*
X78050Y260736D01*
X78950D01*
X79782Y261081D01*
X80419Y261718D01*
X80764Y262550D01*
Y263450D01*
X80419Y264282D01*
X79782Y264919D01*
X78950Y265264D01*
X78050D01*
X77218Y264919D01*
X76581Y264282D01*
X76236Y263450D01*
Y262550D01*
X76492Y261931D01*
X76068Y261648D01*
X52214Y285503D01*
Y359000D01*
X52122Y359465D01*
X51858Y359858D01*
X51858Y359858D01*
X44714Y367003D01*
Y390746D01*
X45214Y390846D01*
X45520Y390106D01*
X46213Y389414D01*
X47117Y389039D01*
X47213D01*
Y391500D01*
Y393961D01*
X47117D01*
X46213Y393586D01*
X45520Y392894D01*
X45214Y392154D01*
X44714Y392254D01*
Y427035D01*
X44714Y427035D01*
X44622Y427500D01*
X44358Y427894D01*
X44358Y427894D01*
X41603Y430649D01*
X41724Y430858D01*
X41980Y431812D01*
Y432799D01*
X41724Y433753D01*
X41231Y434608D01*
X40532Y435306D01*
X39677Y435800D01*
X38724Y436056D01*
D02*
G37*
G36*
X147824Y391264D02*
X146924D01*
X146092Y390919D01*
X145455Y390282D01*
X145110Y389450D01*
Y388550D01*
X145455Y387718D01*
X146092Y387081D01*
X146924Y386736D01*
X147824D01*
X148656Y387081D01*
X149293Y387718D01*
X149638Y388550D01*
Y389450D01*
X149293Y390282D01*
X148656Y390919D01*
X147824Y391264D01*
D02*
G37*
G36*
X132076D02*
X131176D01*
X130344Y390919D01*
X129707Y390282D01*
X129362Y389450D01*
Y388550D01*
X129707Y387718D01*
X130344Y387081D01*
X131176Y386736D01*
X132076D01*
X132908Y387081D01*
X133545Y387718D01*
X133890Y388550D01*
Y389450D01*
X133545Y390282D01*
X132908Y390919D01*
X132076Y391264D01*
D02*
G37*
G36*
X54083Y388713D02*
X52016D01*
Y386646D01*
X52112D01*
X53017Y387020D01*
X53709Y387713D01*
X54083Y388617D01*
Y388713D01*
D02*
G37*
G36*
X48096Y393961D02*
X48000D01*
Y391500D01*
Y389039D01*
X48096D01*
X48662Y389274D01*
X49162Y388940D01*
Y388617D01*
X49537Y387713D01*
X50229Y387020D01*
X51133Y386646D01*
X51229D01*
Y389106D01*
Y391567D01*
X51133D01*
X50567Y391332D01*
X50067Y391666D01*
Y391989D01*
X49692Y392894D01*
X49000Y393586D01*
X48096Y393961D01*
D02*
G37*
G36*
X34989Y384461D02*
X34894D01*
Y382394D01*
X36961D01*
Y382489D01*
X36586Y383394D01*
X35894Y384086D01*
X34989Y384461D01*
D02*
G37*
G36*
X34106D02*
X34011D01*
X33106Y384086D01*
X32414Y383394D01*
X32039Y382489D01*
Y382394D01*
X34106D01*
Y384461D01*
D02*
G37*
G36*
X213595Y395220D02*
X200701D01*
Y382327D01*
X201353D01*
X203419Y382654D01*
X205408Y383300D01*
X207271Y384250D01*
X208963Y385479D01*
X210442Y386958D01*
X211671Y388650D01*
X212621Y390514D01*
X213267Y392503D01*
X213595Y394568D01*
Y395220D01*
D02*
G37*
G36*
X269193Y393307D02*
X256299D01*
Y380413D01*
X256951D01*
X259017Y380741D01*
X261006Y381387D01*
X262870Y382336D01*
X264562Y383566D01*
X266041Y385045D01*
X267270Y386737D01*
X268219Y388600D01*
X268866Y390589D01*
X269193Y392655D01*
Y393307D01*
D02*
G37*
G36*
X255512D02*
X242618D01*
Y392655D01*
X242945Y390589D01*
X243592Y388600D01*
X244541Y386737D01*
X245770Y385045D01*
X247249Y383566D01*
X248941Y382336D01*
X250805Y381387D01*
X252794Y380741D01*
X254860Y380413D01*
X255512D01*
Y393307D01*
D02*
G37*
G36*
X32972D02*
X20079D01*
Y380413D01*
X20731D01*
X22796Y380741D01*
X24786Y381387D01*
X26649Y382336D01*
X28341Y383566D01*
X29820Y385045D01*
X31049Y386737D01*
X31999Y388600D01*
X32645Y390589D01*
X32972Y392655D01*
Y393307D01*
D02*
G37*
G36*
X19291D02*
X6398D01*
Y392655D01*
X6725Y390589D01*
X7371Y388600D01*
X8321Y386737D01*
X9550Y385045D01*
X11029Y383566D01*
X12721Y382336D01*
X14584Y381387D01*
X16574Y380741D01*
X18639Y380413D01*
X19291D01*
Y393307D01*
D02*
G37*
G36*
X36961Y381606D02*
X34894D01*
Y379539D01*
X34989D01*
X35894Y379914D01*
X36586Y380606D01*
X36961Y381511D01*
Y381606D01*
D02*
G37*
G36*
X34106D02*
X32039D01*
Y381511D01*
X32414Y380606D01*
X33106Y379914D01*
X34011Y379539D01*
X34106D01*
Y381606D01*
D02*
G37*
G36*
X200489Y375961D02*
X200394D01*
Y373894D01*
X202461D01*
Y373989D01*
X202086Y374894D01*
X201394Y375586D01*
X200489Y375961D01*
D02*
G37*
G36*
X199606D02*
X199511D01*
X198606Y375586D01*
X197914Y374894D01*
X197539Y373989D01*
Y373894D01*
X199606D01*
Y375961D01*
D02*
G37*
G36*
X172989D02*
X172894D01*
Y373894D01*
X174961D01*
Y373989D01*
X174586Y374894D01*
X173894Y375586D01*
X172989Y375961D01*
D02*
G37*
G36*
X172106D02*
X172011D01*
X171106Y375586D01*
X170414Y374894D01*
X170039Y373989D01*
Y373894D01*
X172106D01*
Y375961D01*
D02*
G37*
G36*
X86489Y373961D02*
X86394D01*
Y371894D01*
X88461D01*
Y371989D01*
X88086Y372894D01*
X87394Y373586D01*
X86489Y373961D01*
D02*
G37*
G36*
X85606D02*
X85511D01*
X84606Y373586D01*
X83914Y372894D01*
X83539Y371989D01*
Y371894D01*
X85606D01*
Y373961D01*
D02*
G37*
G36*
X202461Y373106D02*
X200394D01*
Y371039D01*
X200489D01*
X201394Y371414D01*
X202086Y372106D01*
X202461Y373011D01*
Y373106D01*
D02*
G37*
G36*
X199606D02*
X197539D01*
Y373011D01*
X197914Y372106D01*
X198606Y371414D01*
X199511Y371039D01*
X199606D01*
Y373106D01*
D02*
G37*
G36*
X174961D02*
X172894D01*
Y371039D01*
X172989D01*
X173894Y371414D01*
X174586Y372106D01*
X174961Y373011D01*
Y373106D01*
D02*
G37*
G36*
X172106D02*
X170039D01*
Y373011D01*
X170414Y372106D01*
X171106Y371414D01*
X172011Y371039D01*
X172106D01*
Y373106D01*
D02*
G37*
G36*
X254989Y372961D02*
X254894D01*
Y370894D01*
X256961D01*
Y370989D01*
X256586Y371894D01*
X255894Y372586D01*
X254989Y372961D01*
D02*
G37*
G36*
X254106D02*
X254011D01*
X253106Y372586D01*
X252414Y371894D01*
X252039Y370989D01*
Y370894D01*
X254106D01*
Y372961D01*
D02*
G37*
G36*
X88461Y371106D02*
X86394D01*
Y369039D01*
X86489D01*
X87394Y369414D01*
X88086Y370106D01*
X88461Y371011D01*
Y371106D01*
D02*
G37*
G36*
X85606D02*
X83539D01*
Y371011D01*
X83914Y370106D01*
X84606Y369414D01*
X85511Y369039D01*
X85606D01*
Y371106D01*
D02*
G37*
G36*
X256961Y370106D02*
X254894D01*
Y368039D01*
X254989D01*
X255894Y368414D01*
X256586Y369106D01*
X256961Y370011D01*
Y370106D01*
D02*
G37*
G36*
X254106D02*
X252039D01*
Y370011D01*
X252414Y369106D01*
X253106Y368414D01*
X254011Y368039D01*
X254106D01*
Y370106D01*
D02*
G37*
G36*
X241417Y365552D02*
X237864D01*
Y361999D01*
X241417D01*
Y365552D01*
D02*
G37*
G36*
X237076D02*
X233523D01*
Y361999D01*
X237076D01*
Y365552D01*
D02*
G37*
G36*
X163950Y364264D02*
X163050D01*
X162218Y363919D01*
X161581Y363282D01*
X161236Y362450D01*
Y361550D01*
X161581Y360718D01*
X162218Y360081D01*
X163050Y359736D01*
X163950D01*
X164782Y360081D01*
X165419Y360718D01*
X165764Y361550D01*
Y362450D01*
X165419Y363282D01*
X164782Y363919D01*
X163950Y364264D01*
D02*
G37*
G36*
X76383Y365347D02*
X75502D01*
X74651Y365118D01*
X73888Y364678D01*
X73265Y364055D01*
X72824Y363292D01*
X72596Y362441D01*
Y361559D01*
X72824Y360708D01*
X73265Y359945D01*
X73888Y359322D01*
X74651Y358882D01*
X75502Y358653D01*
X76383D01*
X77234Y358882D01*
X77997Y359322D01*
X78620Y359945D01*
X79061Y360708D01*
X79289Y361559D01*
Y362441D01*
X79061Y363292D01*
X78620Y364055D01*
X77997Y364678D01*
X77234Y365118D01*
X76383Y365347D01*
D02*
G37*
G36*
X241417Y361212D02*
X237864D01*
Y357659D01*
X241417D01*
Y361212D01*
D02*
G37*
G36*
X237076D02*
X233523D01*
Y357659D01*
X237076D01*
Y361212D01*
D02*
G37*
G36*
X42177Y357641D02*
X38624D01*
Y354088D01*
X42177D01*
Y357641D01*
D02*
G37*
G36*
X37836D02*
X34283D01*
Y354088D01*
X37836D01*
Y357641D01*
D02*
G37*
G36*
X178450Y357764D02*
X177550D01*
X176718Y357419D01*
X176081Y356782D01*
X175736Y355950D01*
Y355050D01*
X176081Y354218D01*
X176718Y353581D01*
X177550Y353236D01*
X178450D01*
X179282Y353581D01*
X179919Y354218D01*
X180264Y355050D01*
Y355950D01*
X179919Y356782D01*
X179282Y357419D01*
X178450Y357764D01*
D02*
G37*
G36*
X21871Y366195D02*
X20573D01*
X19298Y365941D01*
X18098Y365444D01*
X17018Y364722D01*
X16100Y363804D01*
X15378Y362724D01*
X14881Y361524D01*
X14628Y360249D01*
Y358950D01*
X14881Y357677D01*
X15378Y356476D01*
X16100Y355396D01*
X17018Y354478D01*
X18098Y353756D01*
X19298Y353259D01*
X20573Y353006D01*
X21871D01*
X23146Y353259D01*
X24346Y353756D01*
X25426Y354478D01*
X26344Y355396D01*
X27066Y356476D01*
X27563Y357677D01*
X27817Y358950D01*
Y360249D01*
X27563Y361524D01*
X27066Y362724D01*
X26344Y363804D01*
X25426Y364722D01*
X24346Y365444D01*
X23146Y365941D01*
X21871Y366195D01*
D02*
G37*
G36*
X42177Y353301D02*
X38624D01*
Y349748D01*
X42177D01*
Y353301D01*
D02*
G37*
G36*
X37836D02*
X34283D01*
Y349748D01*
X37836D01*
Y353301D01*
D02*
G37*
G36*
X255127Y362295D02*
X253829D01*
X252554Y362041D01*
X251354Y361544D01*
X250274Y360822D01*
X249356Y359904D01*
X248634Y358824D01*
X248137Y357624D01*
X247884Y356349D01*
Y355050D01*
X248137Y353777D01*
X248634Y352576D01*
X249356Y351496D01*
X250274Y350578D01*
X251354Y349856D01*
X252554Y349359D01*
X253829Y349106D01*
X255127D01*
X256401Y349359D01*
X257602Y349856D01*
X258682Y350578D01*
X259600Y351496D01*
X260322Y352576D01*
X260819Y353777D01*
X261072Y355050D01*
Y356349D01*
X260819Y357624D01*
X260322Y358824D01*
X259600Y359904D01*
X258682Y360822D01*
X257602Y361544D01*
X256401Y362041D01*
X255127Y362295D01*
D02*
G37*
G36*
X237964Y353544D02*
X236976D01*
X236023Y353289D01*
X235168Y352795D01*
X234469Y352097D01*
X233976Y351242D01*
X233720Y350288D01*
Y349301D01*
X233976Y348347D01*
X234469Y347492D01*
X235168Y346794D01*
X236023Y346300D01*
X236976Y346044D01*
X237964D01*
X238917Y346300D01*
X239773Y346794D01*
X240471Y347492D01*
X240965Y348347D01*
X241220Y349301D01*
Y350288D01*
X240965Y351242D01*
X240471Y352097D01*
X239773Y352795D01*
X238917Y353289D01*
X237964Y353544D01*
D02*
G37*
G36*
X200489Y343461D02*
X200394D01*
Y341394D01*
X202461D01*
Y341489D01*
X202086Y342394D01*
X201394Y343086D01*
X200489Y343461D01*
D02*
G37*
G36*
X199606D02*
X199511D01*
X198606Y343086D01*
X197914Y342394D01*
X197539Y341489D01*
Y341394D01*
X199606D01*
Y343461D01*
D02*
G37*
G36*
X202461Y340606D02*
X200394D01*
Y338539D01*
X200489D01*
X201394Y338914D01*
X202086Y339606D01*
X202461Y340511D01*
Y340606D01*
D02*
G37*
G36*
X199606D02*
X197539D01*
Y340511D01*
X197914Y339606D01*
X198606Y338914D01*
X199511Y338539D01*
X199606D01*
Y340606D01*
D02*
G37*
G36*
X173489Y339961D02*
X173394D01*
Y337894D01*
X175461D01*
Y337989D01*
X175086Y338894D01*
X174394Y339586D01*
X173489Y339961D01*
D02*
G37*
G36*
X172606D02*
X172511D01*
X171606Y339586D01*
X170914Y338894D01*
X170539Y337989D01*
Y337894D01*
X172606D01*
Y339961D01*
D02*
G37*
G36*
X175461Y337106D02*
X173394D01*
Y335039D01*
X173489D01*
X174394Y335414D01*
X175086Y336106D01*
X175461Y337011D01*
Y337106D01*
D02*
G37*
G36*
X172606D02*
X170539D01*
Y337011D01*
X170914Y336106D01*
X171606Y335414D01*
X172511Y335039D01*
X172606D01*
Y337106D01*
D02*
G37*
G36*
X167450Y335750D02*
X166550D01*
X165718Y335405D01*
X165081Y334769D01*
X164736Y333937D01*
Y333036D01*
X165081Y332204D01*
X165718Y331567D01*
X166550Y331222D01*
X167450D01*
X168282Y331567D01*
X168919Y332204D01*
X169264Y333036D01*
Y333937D01*
X168919Y334769D01*
X168282Y335405D01*
X167450Y335750D01*
D02*
G37*
G36*
X93489Y332961D02*
X93394D01*
Y330894D01*
X95461D01*
Y330989D01*
X95086Y331894D01*
X94394Y332586D01*
X93489Y332961D01*
D02*
G37*
G36*
X92606D02*
X92511D01*
X91606Y332586D01*
X90914Y331894D01*
X90539Y330989D01*
Y330894D01*
X92606D01*
Y332961D01*
D02*
G37*
G36*
X95461Y330106D02*
X93394D01*
Y328039D01*
X93489D01*
X94394Y328414D01*
X95086Y329106D01*
X95461Y330011D01*
Y330106D01*
D02*
G37*
G36*
X92606D02*
X90539D01*
Y330011D01*
X90914Y329106D01*
X91606Y328414D01*
X92511Y328039D01*
X92606D01*
Y330106D01*
D02*
G37*
G36*
X241417Y325552D02*
X237864D01*
Y321999D01*
X241417D01*
Y325552D01*
D02*
G37*
G36*
X237076D02*
X233523D01*
Y321999D01*
X237076D01*
Y325552D01*
D02*
G37*
G36*
X106690Y323161D02*
X106594D01*
Y321094D01*
X108661D01*
Y321189D01*
X108286Y322094D01*
X107594Y322786D01*
X106690Y323161D01*
D02*
G37*
G36*
X105806D02*
X105711D01*
X104806Y322786D01*
X104114Y322094D01*
X103739Y321189D01*
Y321094D01*
X105806D01*
Y323161D01*
D02*
G37*
G36*
X108661Y320306D02*
X106594D01*
Y318239D01*
X106690D01*
X107594Y318614D01*
X108286Y319306D01*
X108661Y320211D01*
Y320306D01*
D02*
G37*
G36*
X105806D02*
X103739D01*
Y320211D01*
X104114Y319306D01*
X104806Y318614D01*
X105711Y318239D01*
X105806D01*
Y320306D01*
D02*
G37*
G36*
X241417Y321212D02*
X237864D01*
Y317659D01*
X241417D01*
Y321212D01*
D02*
G37*
G36*
X237076D02*
X233523D01*
Y317659D01*
X237076D01*
Y321212D01*
D02*
G37*
G36*
X37836Y317641D02*
X34283D01*
Y314088D01*
X37836D01*
Y317641D01*
D02*
G37*
G36*
X21871Y326195D02*
X20573D01*
X19298Y325941D01*
X18098Y325444D01*
X17018Y324722D01*
X16100Y323804D01*
X15378Y322724D01*
X14881Y321523D01*
X14628Y320250D01*
Y318951D01*
X14881Y317676D01*
X15378Y316476D01*
X16100Y315396D01*
X17018Y314478D01*
X18098Y313756D01*
X19298Y313259D01*
X20573Y313005D01*
X21871D01*
X23146Y313259D01*
X24346Y313756D01*
X25426Y314478D01*
X26344Y315396D01*
X27066Y316476D01*
X27563Y317676D01*
X27817Y318951D01*
Y320250D01*
X27563Y321523D01*
X27066Y322724D01*
X26344Y323804D01*
X25426Y324722D01*
X24346Y325444D01*
X23146Y325941D01*
X21871Y326195D01*
D02*
G37*
G36*
X42177Y313301D02*
X38624D01*
Y309748D01*
X42177D01*
Y313301D01*
D02*
G37*
G36*
X37836D02*
X34283D01*
Y309748D01*
X37836D01*
Y313301D01*
D02*
G37*
G36*
X255127Y322294D02*
X253829D01*
X252554Y322041D01*
X251354Y321544D01*
X250274Y320822D01*
X249356Y319904D01*
X248634Y318824D01*
X248137Y317623D01*
X247884Y316350D01*
Y315051D01*
X248137Y313776D01*
X248634Y312576D01*
X249356Y311496D01*
X250274Y310578D01*
X251354Y309856D01*
X252554Y309359D01*
X253829Y309105D01*
X255127D01*
X256401Y309359D01*
X257602Y309856D01*
X258682Y310578D01*
X259600Y311496D01*
X260322Y312576D01*
X260819Y313776D01*
X261072Y315051D01*
Y316350D01*
X260819Y317623D01*
X260322Y318824D01*
X259600Y319904D01*
X258682Y320822D01*
X257602Y321544D01*
X256401Y322041D01*
X255127Y322294D01*
D02*
G37*
G36*
X86226Y365347D02*
X85344D01*
X84493Y365118D01*
X83730Y364678D01*
X83107Y364055D01*
X82667Y363292D01*
X82439Y362441D01*
Y361559D01*
X82667Y360708D01*
X83107Y359945D01*
X83730Y359322D01*
X83908Y359219D01*
Y355879D01*
X80073Y352044D01*
X79666Y351435D01*
X79523Y350717D01*
Y332345D01*
X79666Y331627D01*
X80073Y331018D01*
X80123Y330967D01*
Y311325D01*
X80081Y311282D01*
X79736Y310450D01*
Y309550D01*
X80081Y308718D01*
X80718Y308081D01*
X81550Y307736D01*
X82450D01*
X83282Y308081D01*
X83919Y308718D01*
X84264Y309550D01*
Y310450D01*
X83919Y311282D01*
X83877Y311325D01*
Y331745D01*
X83734Y332463D01*
X83327Y333072D01*
X83277Y333122D01*
Y349940D01*
X87112Y353775D01*
X87519Y354384D01*
X87662Y355102D01*
Y359219D01*
X87840Y359322D01*
X88463Y359945D01*
X88903Y360708D01*
X89131Y361559D01*
Y362441D01*
X88903Y363292D01*
X88463Y364055D01*
X87840Y364678D01*
X87077Y365118D01*
X86226Y365347D01*
D02*
G37*
G36*
X176238Y309754D02*
X176142D01*
Y307687D01*
X178209D01*
Y307783D01*
X177835Y308687D01*
X177143Y309379D01*
X176238Y309754D01*
D02*
G37*
G36*
X66541Y365347D02*
X65659D01*
X64808Y365118D01*
X64045Y364678D01*
X63422Y364055D01*
X62982Y363292D01*
X62753Y362441D01*
Y361559D01*
X62982Y360708D01*
X63422Y359945D01*
X64045Y359322D01*
X64808Y358882D01*
X65659Y358653D01*
X66193D01*
X74623Y350223D01*
Y309325D01*
X74581Y309282D01*
X74236Y308450D01*
Y307550D01*
X74581Y306718D01*
X75218Y306081D01*
X76050Y305736D01*
X76950D01*
X77782Y306081D01*
X78419Y306718D01*
X78764Y307550D01*
Y308450D01*
X78419Y309282D01*
X78377Y309325D01*
Y351000D01*
X78234Y351718D01*
X77827Y352327D01*
X69266Y360888D01*
X69446Y361559D01*
Y362441D01*
X69218Y363292D01*
X68778Y364055D01*
X68155Y364678D01*
X67392Y365118D01*
X66541Y365347D01*
D02*
G37*
G36*
X212989Y302461D02*
X212894D01*
Y300394D01*
X214961D01*
Y300489D01*
X214586Y301394D01*
X213894Y302086D01*
X212989Y302461D01*
D02*
G37*
G36*
X212106D02*
X212011D01*
X211106Y302086D01*
X210414Y301394D01*
X210039Y300489D01*
Y300394D01*
X212106D01*
Y302461D01*
D02*
G37*
G36*
X137489Y300461D02*
X137394D01*
Y298394D01*
X139461D01*
Y298489D01*
X139086Y299394D01*
X138394Y300086D01*
X137489Y300461D01*
D02*
G37*
G36*
X136606D02*
X136511D01*
X135606Y300086D01*
X134914Y299394D01*
X134539Y298489D01*
Y298394D01*
X136606D01*
Y300461D01*
D02*
G37*
G36*
X94989Y299961D02*
X94894D01*
Y297894D01*
X96961D01*
Y297989D01*
X96586Y298894D01*
X95894Y299586D01*
X94989Y299961D01*
D02*
G37*
G36*
X94106D02*
X94011D01*
X93106Y299586D01*
X92414Y298894D01*
X92039Y297989D01*
Y297894D01*
X94106D01*
Y299961D01*
D02*
G37*
G36*
X214961Y299606D02*
X212894D01*
Y297539D01*
X212989D01*
X213894Y297914D01*
X214586Y298606D01*
X214961Y299511D01*
Y299606D01*
D02*
G37*
G36*
X212106D02*
X210039D01*
Y299511D01*
X210414Y298606D01*
X211106Y297914D01*
X212011Y297539D01*
X212106D01*
Y299606D01*
D02*
G37*
G36*
X70489Y298961D02*
X70394D01*
Y296894D01*
X72461D01*
Y296989D01*
X72086Y297894D01*
X71394Y298586D01*
X70489Y298961D01*
D02*
G37*
G36*
X69606D02*
X69511D01*
X68606Y298586D01*
X67914Y297894D01*
X67539Y296989D01*
Y296894D01*
X69606D01*
Y298961D01*
D02*
G37*
G36*
X139461Y297606D02*
X137394D01*
Y295539D01*
X137489D01*
X138394Y295914D01*
X139086Y296606D01*
X139461Y297511D01*
Y297606D01*
D02*
G37*
G36*
X136606D02*
X134539D01*
Y297511D01*
X134914Y296606D01*
X135606Y295914D01*
X136511Y295539D01*
X136606D01*
Y297606D01*
D02*
G37*
G36*
X96961Y297106D02*
X94894D01*
Y295039D01*
X94989D01*
X95894Y295414D01*
X96586Y296106D01*
X96961Y297011D01*
Y297106D01*
D02*
G37*
G36*
X94106D02*
X92039D01*
Y297011D01*
X92414Y296106D01*
X93106Y295414D01*
X94011Y295039D01*
X94106D01*
Y297106D01*
D02*
G37*
G36*
X72461Y296106D02*
X70394D01*
Y294039D01*
X70489D01*
X71394Y294414D01*
X72086Y295106D01*
X72461Y296011D01*
Y296106D01*
D02*
G37*
G36*
X69606D02*
X67539D01*
Y296011D01*
X67914Y295106D01*
X68606Y294414D01*
X69511Y294039D01*
X69606D01*
Y296106D01*
D02*
G37*
G36*
X241417Y285552D02*
X237864D01*
Y281999D01*
X241417D01*
Y285552D01*
D02*
G37*
G36*
X237076D02*
X233523D01*
Y281999D01*
X237076D01*
Y285552D01*
D02*
G37*
G36*
X94950Y284764D02*
X94050D01*
X93218Y284419D01*
X92581Y283782D01*
X92236Y282950D01*
Y282050D01*
X92581Y281218D01*
X93218Y280581D01*
X94050Y280236D01*
X94950D01*
X95782Y280581D01*
X96419Y281218D01*
X96764Y282050D01*
Y282950D01*
X96419Y283782D01*
X95782Y284419D01*
X94950Y284764D01*
D02*
G37*
G36*
X241417Y281212D02*
X237864D01*
Y277659D01*
X241417D01*
Y281212D01*
D02*
G37*
G36*
X237076D02*
X233523D01*
Y277659D01*
X237076D01*
Y281212D01*
D02*
G37*
G36*
X42177Y277641D02*
X38624D01*
Y274088D01*
X42177D01*
Y277641D01*
D02*
G37*
G36*
X37836D02*
X34283D01*
Y274088D01*
X37836D01*
Y277641D01*
D02*
G37*
G36*
X21871Y286194D02*
X20573D01*
X19298Y285941D01*
X18098Y285444D01*
X17018Y284722D01*
X16100Y283804D01*
X15378Y282724D01*
X14881Y281523D01*
X14628Y280250D01*
Y278951D01*
X14881Y277677D01*
X15378Y276476D01*
X16100Y275396D01*
X17018Y274478D01*
X18098Y273756D01*
X19298Y273259D01*
X20573Y273006D01*
X21871D01*
X23146Y273259D01*
X24346Y273756D01*
X25426Y274478D01*
X26344Y275396D01*
X27066Y276476D01*
X27563Y277677D01*
X27817Y278951D01*
Y280250D01*
X27563Y281523D01*
X27066Y282724D01*
X26344Y283804D01*
X25426Y284722D01*
X24346Y285444D01*
X23146Y285941D01*
X21871Y286194D01*
D02*
G37*
G36*
X42177Y273301D02*
X38624D01*
Y269748D01*
X42177D01*
Y273301D01*
D02*
G37*
G36*
X37836D02*
X34283D01*
Y269748D01*
X37836D01*
Y273301D01*
D02*
G37*
G36*
X78950Y273264D02*
X78050D01*
X77218Y272919D01*
X76581Y272282D01*
X76236Y271450D01*
Y270550D01*
X76581Y269718D01*
X77218Y269081D01*
X78050Y268736D01*
X78950D01*
X79782Y269081D01*
X80419Y269718D01*
X80764Y270550D01*
Y271450D01*
X80419Y272282D01*
X79782Y272919D01*
X78950Y273264D01*
D02*
G37*
G36*
X172950Y271264D02*
X172050D01*
X171218Y270919D01*
X170581Y270282D01*
X170236Y269450D01*
Y268550D01*
X170581Y267718D01*
X171218Y267081D01*
X172050Y266736D01*
X172950D01*
X173782Y267081D01*
X174419Y267718D01*
X174764Y268550D01*
Y269450D01*
X174419Y270282D01*
X173782Y270919D01*
X172950Y271264D01*
D02*
G37*
G36*
X162950D02*
X162050D01*
X161218Y270919D01*
X160581Y270282D01*
X160236Y269450D01*
Y268550D01*
X160581Y267718D01*
X161218Y267081D01*
X162050Y266736D01*
X162950D01*
X163782Y267081D01*
X164419Y267718D01*
X164764Y268550D01*
Y269450D01*
X164419Y270282D01*
X163782Y270919D01*
X162950Y271264D01*
D02*
G37*
G36*
X152950D02*
X152050D01*
X151218Y270919D01*
X150581Y270282D01*
X150236Y269450D01*
Y268550D01*
X150581Y267718D01*
X151218Y267081D01*
X152050Y266736D01*
X152950D01*
X153782Y267081D01*
X154419Y267718D01*
X154764Y268550D01*
Y269450D01*
X154419Y270282D01*
X153782Y270919D01*
X152950Y271264D01*
D02*
G37*
G36*
X142950D02*
X142050D01*
X141218Y270919D01*
X140581Y270282D01*
X140236Y269450D01*
Y268550D01*
X140581Y267718D01*
X141218Y267081D01*
X142050Y266736D01*
X142950D01*
X143782Y267081D01*
X144419Y267718D01*
X144764Y268550D01*
Y269450D01*
X144419Y270282D01*
X143782Y270919D01*
X142950Y271264D01*
D02*
G37*
G36*
X132950D02*
X132050D01*
X131218Y270919D01*
X130581Y270282D01*
X130236Y269450D01*
Y268550D01*
X130581Y267718D01*
X131218Y267081D01*
X132050Y266736D01*
X132950D01*
X133782Y267081D01*
X134419Y267718D01*
X134764Y268550D01*
Y269450D01*
X134419Y270282D01*
X133782Y270919D01*
X132950Y271264D01*
D02*
G37*
G36*
X122950D02*
X122050D01*
X121218Y270919D01*
X120581Y270282D01*
X120236Y269450D01*
Y268550D01*
X120581Y267718D01*
X121218Y267081D01*
X122050Y266736D01*
X122950D01*
X123782Y267081D01*
X124419Y267718D01*
X124764Y268550D01*
Y269450D01*
X124419Y270282D01*
X123782Y270919D01*
X122950Y271264D01*
D02*
G37*
G36*
X112950D02*
X112050D01*
X111218Y270919D01*
X110581Y270282D01*
X110236Y269450D01*
Y268550D01*
X110581Y267718D01*
X111218Y267081D01*
X112050Y266736D01*
X112950D01*
X113782Y267081D01*
X114419Y267718D01*
X114764Y268550D01*
Y269450D01*
X114419Y270282D01*
X113782Y270919D01*
X112950Y271264D01*
D02*
G37*
G36*
X102950D02*
X102050D01*
X101218Y270919D01*
X100581Y270282D01*
X100236Y269450D01*
Y268550D01*
X100581Y267718D01*
X101218Y267081D01*
X102050Y266736D01*
X102950D01*
X103782Y267081D01*
X104419Y267718D01*
X104764Y268550D01*
Y269450D01*
X104419Y270282D01*
X103782Y270919D01*
X102950Y271264D01*
D02*
G37*
G36*
X20950Y268264D02*
X20050D01*
X19218Y267919D01*
X18581Y267282D01*
X18236Y266450D01*
Y265953D01*
X3642Y251358D01*
X3379Y250964D01*
X3286Y250500D01*
X3286Y250500D01*
Y79500D01*
X3286Y79500D01*
X3379Y79036D01*
X3642Y78642D01*
X9642Y72642D01*
X9642Y72642D01*
X10035Y72378D01*
X10500Y72286D01*
X10500Y72286D01*
X17178D01*
X19789Y69675D01*
X19769Y69639D01*
X19547Y68813D01*
Y67958D01*
X19769Y67132D01*
X20196Y66391D01*
X20801Y65787D01*
X21542Y65359D01*
X22368Y65138D01*
X23223D01*
X24049Y65359D01*
X24790Y65787D01*
X25394Y66391D01*
X25822Y67132D01*
X26043Y67958D01*
Y68813D01*
X25822Y69639D01*
X25394Y70380D01*
X24790Y70985D01*
X24049Y71412D01*
X23223Y71634D01*
X22368D01*
X21542Y71412D01*
X21506Y71392D01*
X18539Y74358D01*
X18146Y74621D01*
X17681Y74714D01*
X17681Y74714D01*
X13573D01*
X13507Y75214D01*
X14049Y75359D01*
X14790Y75787D01*
X15394Y76392D01*
X15822Y77132D01*
X15833Y77172D01*
X16850D01*
X21381Y72642D01*
X21381Y72642D01*
X21775Y72378D01*
X22239Y72286D01*
X22239Y72286D01*
X32990D01*
X33089Y71786D01*
X32606Y71586D01*
X31914Y70894D01*
X31539Y69989D01*
Y69894D01*
X36461D01*
Y69989D01*
X36086Y70894D01*
X35394Y71586D01*
X34911Y71786D01*
X35010Y72286D01*
X72990D01*
X73089Y71786D01*
X72606Y71586D01*
X71914Y70894D01*
X71539Y69989D01*
Y69894D01*
X76461D01*
Y69989D01*
X76086Y70894D01*
X75394Y71586D01*
X74911Y71786D01*
X75010Y72286D01*
X75497D01*
X77822Y69961D01*
Y69080D01*
X78167Y68248D01*
X78804Y67611D01*
X79636Y67267D01*
X80536D01*
X81368Y67611D01*
X82005Y68248D01*
X82350Y69080D01*
Y69981D01*
X82005Y70813D01*
X81368Y71450D01*
X80536Y71794D01*
X79636D01*
X79485Y71732D01*
X76858Y74358D01*
X76464Y74621D01*
X76000Y74714D01*
X76000Y74714D01*
X23573D01*
X23507Y75214D01*
X24049Y75359D01*
X24790Y75787D01*
X25394Y76392D01*
X25822Y77132D01*
X25833Y77172D01*
X108886D01*
X108886Y77172D01*
X109350Y77264D01*
X109744Y77527D01*
X124858Y92642D01*
X124858Y92642D01*
X125121Y93036D01*
X125214Y93500D01*
Y140794D01*
X128061Y143642D01*
X128061Y143642D01*
X130156Y145736D01*
X130950D01*
X131782Y146081D01*
X132419Y146718D01*
X132764Y147550D01*
Y148450D01*
X132419Y149282D01*
X131782Y149919D01*
X130950Y150264D01*
X130050D01*
X129218Y149919D01*
X128581Y149282D01*
X128236Y148450D01*
Y147550D01*
X128324Y147338D01*
X126345Y145358D01*
X126345Y145358D01*
X126345Y145358D01*
X123142Y142155D01*
X122879Y141762D01*
X122786Y141297D01*
X122786Y141297D01*
Y94003D01*
X108383Y79600D01*
X25833D01*
X25822Y79640D01*
X25394Y80380D01*
X24790Y80985D01*
X24049Y81413D01*
X23223Y81634D01*
X22368D01*
X21542Y81413D01*
X20801Y80985D01*
X20196Y80380D01*
X19769Y79640D01*
X19547Y78813D01*
Y78616D01*
X19047Y78409D01*
X18212Y79244D01*
X17818Y79507D01*
X17353Y79600D01*
X17353Y79600D01*
X15833D01*
X15822Y79640D01*
X15394Y80380D01*
X14790Y80985D01*
X14049Y81413D01*
X13223Y81634D01*
X12368D01*
X11542Y81413D01*
X10801Y80985D01*
X10196Y80380D01*
X9769Y79640D01*
X9547Y78813D01*
Y77958D01*
X9769Y77132D01*
X10196Y76392D01*
X10801Y75787D01*
X11542Y75359D01*
X12084Y75214D01*
X12018Y74714D01*
X11003D01*
X5714Y80003D01*
Y249997D01*
X19628Y263911D01*
X20050Y263736D01*
X20950D01*
X21782Y264081D01*
X22419Y264718D01*
X22764Y265550D01*
Y266450D01*
X22419Y267282D01*
X21782Y267919D01*
X20950Y268264D01*
D02*
G37*
G36*
X127989Y252961D02*
X127894D01*
Y250894D01*
X129961D01*
Y250989D01*
X129586Y251894D01*
X128894Y252586D01*
X127989Y252961D01*
D02*
G37*
G36*
X127106D02*
X127011D01*
X126106Y252586D01*
X125414Y251894D01*
X125039Y250989D01*
Y250894D01*
X127106D01*
Y252961D01*
D02*
G37*
G36*
X157990Y252461D02*
X157894D01*
Y250394D01*
X159961D01*
Y250489D01*
X159586Y251394D01*
X158894Y252086D01*
X157990Y252461D01*
D02*
G37*
G36*
X157106D02*
X157010D01*
X156106Y252086D01*
X155414Y251394D01*
X155039Y250489D01*
Y250394D01*
X157106D01*
Y252461D01*
D02*
G37*
G36*
X147989D02*
X147894D01*
Y250394D01*
X149961D01*
Y250489D01*
X149586Y251394D01*
X148894Y252086D01*
X147989Y252461D01*
D02*
G37*
G36*
X147106D02*
X147011D01*
X146106Y252086D01*
X145414Y251394D01*
X145039Y250489D01*
Y250394D01*
X147106D01*
Y252461D01*
D02*
G37*
G36*
X137989D02*
X137894D01*
Y250394D01*
X139961D01*
Y250489D01*
X139586Y251394D01*
X138894Y252086D01*
X137989Y252461D01*
D02*
G37*
G36*
X137106D02*
X137011D01*
X136106Y252086D01*
X135414Y251394D01*
X135039Y250489D01*
Y250394D01*
X137106D01*
Y252461D01*
D02*
G37*
G36*
X117720Y251653D02*
X117624D01*
Y249586D01*
X119691D01*
Y249681D01*
X119316Y250586D01*
X118624Y251278D01*
X117720Y251653D01*
D02*
G37*
G36*
X116837D02*
X116741D01*
X115837Y251278D01*
X115144Y250586D01*
X114770Y249681D01*
Y249586D01*
X116837D01*
Y251653D01*
D02*
G37*
G36*
X129961Y250106D02*
X127894D01*
Y248039D01*
X127989D01*
X128894Y248414D01*
X129586Y249106D01*
X129961Y250011D01*
Y250106D01*
D02*
G37*
G36*
X127106D02*
X125039D01*
Y250011D01*
X125414Y249106D01*
X126106Y248414D01*
X127011Y248039D01*
X127106D01*
Y250106D01*
D02*
G37*
G36*
X159961Y249606D02*
X157894D01*
Y247539D01*
X157990D01*
X158894Y247914D01*
X159586Y248606D01*
X159961Y249511D01*
Y249606D01*
D02*
G37*
G36*
X157106D02*
X155039D01*
Y249511D01*
X155414Y248606D01*
X156106Y247914D01*
X157010Y247539D01*
X157106D01*
Y249606D01*
D02*
G37*
G36*
X149961D02*
X147894D01*
Y247539D01*
X147989D01*
X148894Y247914D01*
X149586Y248606D01*
X149961Y249511D01*
Y249606D01*
D02*
G37*
G36*
X147106D02*
X145039D01*
Y249511D01*
X145414Y248606D01*
X146106Y247914D01*
X147011Y247539D01*
X147106D01*
Y249606D01*
D02*
G37*
G36*
X139961D02*
X137894D01*
Y247539D01*
X137989D01*
X138894Y247914D01*
X139586Y248606D01*
X139961Y249511D01*
Y249606D01*
D02*
G37*
G36*
X137106D02*
X135039D01*
Y249511D01*
X135414Y248606D01*
X136106Y247914D01*
X137011Y247539D01*
X137106D01*
Y249606D01*
D02*
G37*
G36*
X119691Y248798D02*
X117624D01*
Y246731D01*
X117720D01*
X118624Y247106D01*
X119316Y247798D01*
X119691Y248702D01*
Y248798D01*
D02*
G37*
G36*
X116837D02*
X114770D01*
Y248702D01*
X115144Y247798D01*
X115837Y247106D01*
X116741Y246731D01*
X116837D01*
Y248798D01*
D02*
G37*
G36*
X43841Y256673D02*
X43189D01*
Y243779D01*
X56083D01*
Y244432D01*
X55756Y246497D01*
X55109Y248486D01*
X54160Y250350D01*
X52930Y252042D01*
X51451Y253521D01*
X49759Y254750D01*
X47896Y255700D01*
X45907Y256346D01*
X43841Y256673D01*
D02*
G37*
G36*
X42402D02*
X41750D01*
X39684Y256346D01*
X37695Y255700D01*
X35831Y254750D01*
X34139Y253521D01*
X32660Y252042D01*
X31431Y250350D01*
X30481Y248486D01*
X29835Y246497D01*
X29508Y244432D01*
Y243779D01*
X42402D01*
Y256673D01*
D02*
G37*
G36*
X111489Y243961D02*
X111394D01*
Y241894D01*
X113461D01*
Y241989D01*
X113086Y242894D01*
X112394Y243586D01*
X111489Y243961D01*
D02*
G37*
G36*
X110606D02*
X110511D01*
X109606Y243586D01*
X108914Y242894D01*
X108539Y241989D01*
Y241894D01*
X110606D01*
Y243961D01*
D02*
G37*
G36*
X80980Y241849D02*
X80885D01*
Y239782D01*
X82952D01*
Y239877D01*
X82577Y240782D01*
X81885Y241474D01*
X80980Y241849D01*
D02*
G37*
G36*
X80097D02*
X80001D01*
X79097Y241474D01*
X78405Y240782D01*
X78030Y239877D01*
Y239782D01*
X80097D01*
Y241849D01*
D02*
G37*
G36*
X113461Y241106D02*
X111394D01*
Y239039D01*
X111489D01*
X112394Y239414D01*
X113086Y240106D01*
X113461Y241011D01*
Y241106D01*
D02*
G37*
G36*
X110606D02*
X108539D01*
Y241011D01*
X108914Y240106D01*
X109606Y239414D01*
X110511Y239039D01*
X110606D01*
Y241106D01*
D02*
G37*
G36*
X82952Y238994D02*
X80885D01*
Y236927D01*
X80980D01*
X81885Y237302D01*
X82577Y237994D01*
X82952Y238898D01*
Y238994D01*
D02*
G37*
G36*
X80097D02*
X78030D01*
Y238898D01*
X78405Y237994D01*
X79097Y237302D01*
X80001Y236927D01*
X80097D01*
Y238994D01*
D02*
G37*
G36*
X56083Y242992D02*
X43189D01*
Y230098D01*
X43841D01*
X45907Y230426D01*
X47896Y231072D01*
X49759Y232021D01*
X51451Y233251D01*
X52930Y234730D01*
X54160Y236422D01*
X55109Y238285D01*
X55756Y240274D01*
X56083Y242340D01*
Y242992D01*
D02*
G37*
G36*
X42402D02*
X29508D01*
Y242340D01*
X29835Y240274D01*
X30481Y238285D01*
X31431Y236422D01*
X32660Y234730D01*
X34139Y233251D01*
X35831Y232021D01*
X37695Y231072D01*
X39684Y230426D01*
X41750Y230098D01*
X42402D01*
Y242992D01*
D02*
G37*
G36*
X23223Y231634D02*
X22368D01*
X21542Y231413D01*
X20801Y230985D01*
X20196Y230380D01*
X19769Y229640D01*
X19547Y228813D01*
Y227958D01*
X19769Y227132D01*
X20196Y226392D01*
X20801Y225787D01*
X21542Y225359D01*
X22368Y225138D01*
X23223D01*
X24049Y225359D01*
X24157Y225421D01*
X24864Y224714D01*
X24657Y224214D01*
X18684D01*
X16043Y226854D01*
Y231634D01*
X9547D01*
Y225138D01*
X14327D01*
X17323Y222142D01*
X17323Y222142D01*
X17717Y221879D01*
X18181Y221786D01*
X21189D01*
X21323Y221286D01*
X20801Y220985D01*
X20196Y220380D01*
X19769Y219639D01*
X19547Y218813D01*
Y217958D01*
X19769Y217132D01*
X20196Y216391D01*
X20801Y215787D01*
X21542Y215359D01*
X22368Y215138D01*
X23223D01*
X24049Y215359D01*
X24790Y215787D01*
X25394Y216391D01*
X25822Y217132D01*
X25833Y217172D01*
X27111D01*
X41765Y202519D01*
X41736Y202450D01*
Y201550D01*
X42081Y200718D01*
X42718Y200081D01*
X43550Y199736D01*
X44450D01*
X45282Y200081D01*
X45919Y200718D01*
X46264Y201550D01*
Y202450D01*
X45919Y203282D01*
X45282Y203919D01*
X44450Y204264D01*
X43550D01*
X43481Y204235D01*
X28473Y219244D01*
X28079Y219507D01*
X27614Y219600D01*
X27614Y219600D01*
X25833D01*
X25822Y219639D01*
X25394Y220380D01*
X24790Y220985D01*
X24268Y221286D01*
X24402Y221786D01*
X55497D01*
X59765Y217519D01*
X59736Y217450D01*
Y216550D01*
X60081Y215718D01*
X60718Y215081D01*
X61550Y214736D01*
X62450D01*
X63282Y215081D01*
X63919Y215718D01*
X64264Y216550D01*
Y217450D01*
X63919Y218282D01*
X63282Y218919D01*
X62450Y219264D01*
X61550D01*
X61481Y219235D01*
X60648Y220068D01*
X60931Y220492D01*
X61550Y220236D01*
X62450D01*
X63282Y220581D01*
X63919Y221218D01*
X64264Y222050D01*
Y222950D01*
X63919Y223782D01*
X63282Y224419D01*
X62450Y224764D01*
X61550D01*
X61481Y224735D01*
X60068Y226149D01*
X59674Y226412D01*
X59210Y226504D01*
X59209Y226504D01*
X26507D01*
X25834Y227177D01*
X26043Y227958D01*
Y228813D01*
X25822Y229640D01*
X25394Y230380D01*
X24790Y230985D01*
X24049Y231413D01*
X23223Y231634D01*
D02*
G37*
G36*
X181490Y225461D02*
X181394D01*
Y223394D01*
X183461D01*
Y223489D01*
X183086Y224394D01*
X182394Y225086D01*
X181490Y225461D01*
D02*
G37*
G36*
X180606D02*
X180510D01*
X179606Y225086D01*
X178914Y224394D01*
X178539Y223489D01*
Y223394D01*
X180606D01*
Y225461D01*
D02*
G37*
G36*
X117990Y224961D02*
X117894D01*
Y222894D01*
X119961D01*
Y222989D01*
X119586Y223894D01*
X118894Y224586D01*
X117990Y224961D01*
D02*
G37*
G36*
X117106D02*
X117010D01*
X116106Y224586D01*
X115414Y223894D01*
X115039Y222989D01*
Y222894D01*
X117106D01*
Y224961D01*
D02*
G37*
G36*
X163489Y224461D02*
X163394D01*
Y222394D01*
X165461D01*
Y222489D01*
X165086Y223394D01*
X164394Y224086D01*
X163489Y224461D01*
D02*
G37*
G36*
X162606D02*
X162511D01*
X161606Y224086D01*
X160914Y223394D01*
X160539Y222489D01*
Y222394D01*
X162606D01*
Y224461D01*
D02*
G37*
G36*
X183461Y222606D02*
X181394D01*
Y220539D01*
X181490D01*
X182394Y220914D01*
X183086Y221606D01*
X183461Y222511D01*
Y222606D01*
D02*
G37*
G36*
X180606D02*
X178539D01*
Y222511D01*
X178914Y221606D01*
X179606Y220914D01*
X180510Y220539D01*
X180606D01*
Y222606D01*
D02*
G37*
G36*
X96450Y224764D02*
X95550D01*
X94718Y224419D01*
X94081Y223782D01*
X93736Y222950D01*
Y222050D01*
X94081Y221218D01*
X94718Y220581D01*
X95550Y220236D01*
X96450D01*
X97282Y220581D01*
X97919Y221218D01*
X98264Y222050D01*
Y222950D01*
X97919Y223782D01*
X97282Y224419D01*
X96450Y224764D01*
D02*
G37*
G36*
X119961Y222106D02*
X117894D01*
Y220039D01*
X117990D01*
X118894Y220414D01*
X119586Y221106D01*
X119961Y222011D01*
Y222106D01*
D02*
G37*
G36*
X117106D02*
X115039D01*
Y222011D01*
X115414Y221106D01*
X116106Y220414D01*
X117010Y220039D01*
X117106D01*
Y222106D01*
D02*
G37*
G36*
X165461Y221606D02*
X163394D01*
Y219539D01*
X163489D01*
X164394Y219914D01*
X165086Y220606D01*
X165461Y221511D01*
Y221606D01*
D02*
G37*
G36*
X162606D02*
X160539D01*
Y221511D01*
X160914Y220606D01*
X161606Y219914D01*
X162511Y219539D01*
X162606D01*
Y221606D01*
D02*
G37*
G36*
X13223Y221634D02*
X12368D01*
X11542Y221412D01*
X10801Y220985D01*
X10196Y220380D01*
X9769Y219639D01*
X9547Y218813D01*
Y217958D01*
X9769Y217132D01*
X10196Y216391D01*
X10801Y215787D01*
X11542Y215359D01*
X12368Y215138D01*
X13223D01*
X14049Y215359D01*
X14790Y215787D01*
X15394Y216391D01*
X15822Y217132D01*
X16043Y217958D01*
Y218813D01*
X15822Y219639D01*
X15394Y220380D01*
X14790Y220985D01*
X14049Y221412D01*
X13223Y221634D01*
D02*
G37*
G36*
X101950Y213764D02*
X101050D01*
X100218Y213419D01*
X99581Y212782D01*
X99236Y211950D01*
Y211050D01*
X99265Y210981D01*
X97497Y209214D01*
X57500D01*
X57500Y209214D01*
X57035Y209121D01*
X56642Y208858D01*
X32422Y184639D01*
X23225D01*
X23223Y185138D01*
X24049Y185359D01*
X24790Y185787D01*
X25394Y186391D01*
X25822Y187132D01*
X26043Y187958D01*
Y188813D01*
X25822Y189639D01*
X25394Y190380D01*
X24790Y190985D01*
X24049Y191412D01*
X23223Y191634D01*
X22368D01*
X21542Y191412D01*
X20801Y190985D01*
X20196Y190380D01*
X19769Y189639D01*
X19547Y188813D01*
Y187958D01*
X19769Y187132D01*
X20196Y186391D01*
X20801Y185787D01*
X21542Y185359D01*
X22368Y185138D01*
X22366Y184639D01*
X13225D01*
X13223Y185138D01*
X14049Y185359D01*
X14790Y185787D01*
X15394Y186391D01*
X15822Y187132D01*
X16043Y187958D01*
Y188813D01*
X15822Y189639D01*
X15394Y190380D01*
X14790Y190985D01*
X14049Y191412D01*
X13223Y191634D01*
X12368D01*
X11542Y191412D01*
X10801Y190985D01*
X10196Y190380D01*
X9769Y189639D01*
X9547Y188813D01*
Y187958D01*
X9769Y187132D01*
X10196Y186391D01*
X10801Y185787D01*
X11542Y185359D01*
X12368Y185138D01*
X12366Y184639D01*
X11473D01*
X11473Y184639D01*
X11009Y184546D01*
X10615Y184283D01*
X10615Y184283D01*
X6937Y180605D01*
X6674Y180211D01*
X6581Y179747D01*
X6581Y179747D01*
Y153386D01*
X6581Y153386D01*
X6674Y152921D01*
X6937Y152527D01*
X9789Y149675D01*
X9769Y149639D01*
X9547Y148813D01*
Y147958D01*
X9769Y147132D01*
X10196Y146391D01*
X10801Y145787D01*
X11542Y145359D01*
X12368Y145138D01*
X13223D01*
X14049Y145359D01*
X14790Y145787D01*
X15394Y146391D01*
X15822Y147132D01*
X16043Y147958D01*
Y148813D01*
X15822Y149639D01*
X15394Y150380D01*
X14790Y150985D01*
X14049Y151412D01*
X13223Y151634D01*
X12368D01*
X11542Y151412D01*
X11506Y151392D01*
X9009Y153889D01*
Y178960D01*
X9080Y179001D01*
X9273Y178923D01*
X9547Y178694D01*
Y177958D01*
X9769Y177132D01*
X10196Y176391D01*
X10801Y175787D01*
X11542Y175359D01*
X12368Y175138D01*
X13223D01*
X14049Y175359D01*
X14790Y175787D01*
X15394Y176391D01*
X15822Y177132D01*
X16043Y177958D01*
Y178813D01*
X15822Y179639D01*
X15394Y180380D01*
X14790Y180985D01*
X14049Y181412D01*
X13223Y181634D01*
X12415D01*
X12296Y181761D01*
X12114Y182084D01*
X12199Y182211D01*
X32925D01*
X32925Y182211D01*
X33389Y182303D01*
X33783Y182566D01*
X58003Y206786D01*
X73311D01*
X73390Y206286D01*
X71706Y205739D01*
X69843Y204790D01*
X68151Y203560D01*
X66672Y202081D01*
X65443Y200389D01*
X64493Y198526D01*
X63847Y196537D01*
X63520Y194471D01*
Y193819D01*
X90095D01*
Y194471D01*
X89767Y196537D01*
X89121Y198526D01*
X88171Y200389D01*
X86942Y202081D01*
X85463Y203560D01*
X83771Y204790D01*
X81908Y205739D01*
X80224Y206286D01*
X80303Y206786D01*
X98000D01*
X98000Y206786D01*
X98465Y206878D01*
X98858Y207142D01*
X100981Y209265D01*
X101050Y209236D01*
X101950D01*
X102782Y209581D01*
X103419Y210218D01*
X103764Y211050D01*
Y211950D01*
X103419Y212782D01*
X102782Y213419D01*
X101950Y213764D01*
D02*
G37*
G36*
X237950Y217949D02*
X237050D01*
X236218Y217604D01*
X235581Y216967D01*
X235236Y216135D01*
Y215235D01*
X235581Y214403D01*
X236218Y213766D01*
X236586Y213613D01*
Y213072D01*
X236218Y212919D01*
X235581Y212282D01*
X235236Y211450D01*
Y210550D01*
X235581Y209718D01*
X236218Y209081D01*
X237050Y208736D01*
X237950D01*
X238782Y209081D01*
X239419Y209718D01*
X239764Y210550D01*
Y211450D01*
X239419Y212282D01*
X238782Y212919D01*
X238414Y213072D01*
Y213613D01*
X238782Y213766D01*
X239419Y214403D01*
X239764Y215235D01*
Y216135D01*
X239419Y216967D01*
X238782Y217604D01*
X237950Y217949D01*
D02*
G37*
G36*
X170990Y207461D02*
X170894D01*
Y205394D01*
X172961D01*
Y205489D01*
X172586Y206394D01*
X171894Y207086D01*
X170990Y207461D01*
D02*
G37*
G36*
X170106D02*
X170010D01*
X169106Y207086D01*
X168414Y206394D01*
X168039Y205489D01*
Y205394D01*
X170106D01*
Y207461D01*
D02*
G37*
G36*
X253223Y211634D02*
X252368D01*
X251542Y211413D01*
X250801Y210985D01*
X250196Y210380D01*
X249769Y209640D01*
X249547Y208813D01*
Y207958D01*
X249769Y207132D01*
X250196Y206392D01*
X250801Y205787D01*
X251542Y205359D01*
X252368Y205138D01*
X253223D01*
X254049Y205359D01*
X254790Y205787D01*
X255394Y206392D01*
X255822Y207132D01*
X256043Y207958D01*
Y208813D01*
X255822Y209640D01*
X255394Y210380D01*
X254790Y210985D01*
X254049Y211413D01*
X253223Y211634D01*
D02*
G37*
G36*
X23223D02*
X22368D01*
X21542Y211413D01*
X20801Y210985D01*
X20196Y210380D01*
X19769Y209640D01*
X19547Y208813D01*
Y207958D01*
X19769Y207132D01*
X20196Y206392D01*
X20801Y205787D01*
X21542Y205359D01*
X22368Y205138D01*
X23223D01*
X24049Y205359D01*
X24790Y205787D01*
X25394Y206392D01*
X25822Y207132D01*
X26043Y207958D01*
Y208813D01*
X25822Y209640D01*
X25394Y210380D01*
X24790Y210985D01*
X24049Y211413D01*
X23223Y211634D01*
D02*
G37*
G36*
X13223D02*
X12368D01*
X11542Y211413D01*
X10801Y210985D01*
X10196Y210380D01*
X9769Y209640D01*
X9547Y208813D01*
Y207958D01*
X9769Y207132D01*
X10196Y206392D01*
X10801Y205787D01*
X11542Y205359D01*
X12368Y205138D01*
X13223D01*
X14049Y205359D01*
X14790Y205787D01*
X15394Y206392D01*
X15822Y207132D01*
X16043Y207958D01*
Y208813D01*
X15822Y209640D01*
X15394Y210380D01*
X14790Y210985D01*
X14049Y211413D01*
X13223Y211634D01*
D02*
G37*
G36*
X172961Y204606D02*
X170894D01*
Y202539D01*
X170990D01*
X171894Y202914D01*
X172586Y203606D01*
X172961Y204510D01*
Y204606D01*
D02*
G37*
G36*
X170106D02*
X168039D01*
Y204510D01*
X168414Y203606D01*
X169106Y202914D01*
X170010Y202539D01*
X170106D01*
Y204606D01*
D02*
G37*
G36*
X158490Y203461D02*
X158394D01*
Y201394D01*
X160461D01*
Y201489D01*
X160086Y202394D01*
X159394Y203086D01*
X158490Y203461D01*
D02*
G37*
G36*
X157606D02*
X157510D01*
X156606Y203086D01*
X155914Y202394D01*
X155539Y201489D01*
Y201394D01*
X157606D01*
Y203461D01*
D02*
G37*
G36*
X23249Y201831D02*
X23189D01*
Y198779D01*
X26240D01*
Y198839D01*
X26005Y199715D01*
X25552Y200501D01*
X24911Y201142D01*
X24125Y201596D01*
X23249Y201831D01*
D02*
G37*
G36*
X22402D02*
X22342D01*
X21466Y201596D01*
X20680Y201142D01*
X20039Y200501D01*
X19585Y199715D01*
X19350Y198839D01*
Y198779D01*
X22402D01*
Y201831D01*
D02*
G37*
G36*
X160461Y200606D02*
X158394D01*
Y198539D01*
X158490D01*
X159394Y198914D01*
X160086Y199606D01*
X160461Y200511D01*
Y200606D01*
D02*
G37*
G36*
X157606D02*
X155539D01*
Y200511D01*
X155914Y199606D01*
X156606Y198914D01*
X157510Y198539D01*
X157606D01*
Y200606D01*
D02*
G37*
G36*
X253223Y201634D02*
X252368D01*
X251542Y201413D01*
X250801Y200985D01*
X250196Y200380D01*
X249769Y199639D01*
X249547Y198813D01*
Y197958D01*
X249769Y197132D01*
X250196Y196391D01*
X250801Y195787D01*
X251542Y195359D01*
X252368Y195138D01*
X253223D01*
X254049Y195359D01*
X254790Y195787D01*
X255394Y196391D01*
X255822Y197132D01*
X256043Y197958D01*
Y198813D01*
X255822Y199639D01*
X255394Y200380D01*
X254790Y200985D01*
X254049Y201413D01*
X253223Y201634D01*
D02*
G37*
G36*
X13223D02*
X12368D01*
X11542Y201413D01*
X10801Y200985D01*
X10196Y200380D01*
X9769Y199639D01*
X9547Y198813D01*
Y197958D01*
X9769Y197132D01*
X10196Y196391D01*
X10801Y195787D01*
X11542Y195359D01*
X12368Y195138D01*
X13223D01*
X14049Y195359D01*
X14790Y195787D01*
X15394Y196391D01*
X15822Y197132D01*
X16043Y197958D01*
Y198813D01*
X15822Y199639D01*
X15394Y200380D01*
X14790Y200985D01*
X14049Y201413D01*
X13223Y201634D01*
D02*
G37*
G36*
X26240Y197992D02*
X23189D01*
Y194941D01*
X23249D01*
X24125Y195176D01*
X24911Y195629D01*
X25552Y196271D01*
X26005Y197056D01*
X26240Y197932D01*
Y197992D01*
D02*
G37*
G36*
X22402D02*
X19350D01*
Y197932D01*
X19585Y197056D01*
X20039Y196271D01*
X20680Y195629D01*
X21466Y195176D01*
X22342Y194941D01*
X22402D01*
Y197992D01*
D02*
G37*
G36*
X176950Y196764D02*
X176050D01*
X175218Y196419D01*
X174581Y195782D01*
X174236Y194950D01*
Y194050D01*
X174581Y193218D01*
X175218Y192581D01*
X176050Y192236D01*
X176950D01*
X177782Y192581D01*
X178419Y193218D01*
X178764Y194050D01*
Y194950D01*
X178419Y195782D01*
X177782Y196419D01*
X176950Y196764D01*
D02*
G37*
G36*
X253249Y191831D02*
X253189D01*
Y188779D01*
X256240D01*
Y188839D01*
X256005Y189716D01*
X255552Y190501D01*
X254910Y191142D01*
X254125Y191596D01*
X253249Y191831D01*
D02*
G37*
G36*
X252402D02*
X252342D01*
X251466Y191596D01*
X250680Y191142D01*
X250039Y190501D01*
X249585Y189716D01*
X249350Y188839D01*
Y188779D01*
X252402D01*
Y191831D01*
D02*
G37*
G36*
X168450Y189764D02*
X167550D01*
X166718Y189419D01*
X166081Y188782D01*
X165736Y187950D01*
Y187050D01*
X166081Y186218D01*
X166718Y185581D01*
X167550Y185236D01*
X168450D01*
X169282Y185581D01*
X169919Y186218D01*
X170264Y187050D01*
Y187950D01*
X169919Y188782D01*
X169282Y189419D01*
X168450Y189764D01*
D02*
G37*
G36*
X256240Y187992D02*
X253189D01*
Y184941D01*
X253249D01*
X254125Y185176D01*
X254910Y185629D01*
X255552Y186271D01*
X256005Y187056D01*
X256240Y187932D01*
Y187992D01*
D02*
G37*
G36*
X252402D02*
X249350D01*
Y187932D01*
X249585Y187056D01*
X250039Y186271D01*
X250680Y185629D01*
X251466Y185176D01*
X252342Y184941D01*
X252402D01*
Y187992D01*
D02*
G37*
G36*
X236989Y186961D02*
X236894D01*
Y184894D01*
X238961D01*
Y184990D01*
X238586Y185894D01*
X237894Y186586D01*
X236989Y186961D01*
D02*
G37*
G36*
X236106D02*
X236011D01*
X235106Y186586D01*
X234414Y185894D01*
X234039Y184990D01*
Y184894D01*
X236106D01*
Y186961D01*
D02*
G37*
G36*
X238961Y184106D02*
X236894D01*
Y182039D01*
X236989D01*
X237894Y182414D01*
X238586Y183106D01*
X238961Y184011D01*
Y184106D01*
D02*
G37*
G36*
X236106D02*
X234039D01*
Y184011D01*
X234414Y183106D01*
X235106Y182414D01*
X236011Y182039D01*
X236106D01*
Y184106D01*
D02*
G37*
G36*
X90095Y193032D02*
X77201D01*
Y180138D01*
X77853D01*
X79919Y180465D01*
X81908Y181111D01*
X83771Y182061D01*
X85463Y183290D01*
X86942Y184769D01*
X88171Y186461D01*
X89121Y188325D01*
X89767Y190314D01*
X90095Y192379D01*
Y193032D01*
D02*
G37*
G36*
X76413D02*
X63520D01*
Y192379D01*
X63847Y190314D01*
X64493Y188325D01*
X65443Y186461D01*
X66672Y184769D01*
X68151Y183290D01*
X69843Y182061D01*
X71706Y181111D01*
X73696Y180465D01*
X75761Y180138D01*
X76413D01*
Y193032D01*
D02*
G37*
G36*
X253223Y181634D02*
X252368D01*
X251542Y181412D01*
X250801Y180985D01*
X250196Y180380D01*
X249769Y179639D01*
X249547Y178813D01*
Y177958D01*
X249769Y177132D01*
X250196Y176391D01*
X250801Y175787D01*
X251542Y175359D01*
X252368Y175138D01*
X253223D01*
X254049Y175359D01*
X254790Y175787D01*
X255394Y176391D01*
X255822Y177132D01*
X256043Y177958D01*
Y178813D01*
X255822Y179639D01*
X255394Y180380D01*
X254790Y180985D01*
X254049Y181412D01*
X253223Y181634D01*
D02*
G37*
G36*
X23223D02*
X22368D01*
X21542Y181412D01*
X20801Y180985D01*
X20196Y180380D01*
X19769Y179639D01*
X19547Y178813D01*
Y177958D01*
X19769Y177132D01*
X20196Y176391D01*
X20801Y175787D01*
X21542Y175359D01*
X22368Y175138D01*
X23223D01*
X24049Y175359D01*
X24790Y175787D01*
X25394Y176391D01*
X25822Y177132D01*
X26043Y177958D01*
Y178813D01*
X25822Y179639D01*
X25394Y180380D01*
X24790Y180985D01*
X24049Y181412D01*
X23223Y181634D01*
D02*
G37*
G36*
X236989Y175961D02*
X236894D01*
Y173894D01*
X238961D01*
Y173989D01*
X238586Y174894D01*
X237894Y175586D01*
X236989Y175961D01*
D02*
G37*
G36*
X236106D02*
X236011D01*
X235106Y175586D01*
X234414Y174894D01*
X234039Y173989D01*
Y173894D01*
X236106D01*
Y175961D01*
D02*
G37*
G36*
X141818Y309764D02*
X140917D01*
X140085Y309419D01*
X139449Y308782D01*
X139104Y307950D01*
Y307050D01*
X139449Y306218D01*
X140085Y305581D01*
X140917Y305236D01*
X141818D01*
X141886Y305265D01*
X189059Y258092D01*
Y173848D01*
X188559Y173749D01*
X188508Y173872D01*
X187872Y174508D01*
X187040Y174853D01*
X186139D01*
X185307Y174508D01*
X184670Y173872D01*
X184326Y173040D01*
Y172818D01*
X147284D01*
X147256Y172886D01*
X146619Y173523D01*
X145787Y173868D01*
X144887D01*
X144055Y173523D01*
X143418Y172886D01*
X143073Y172054D01*
Y171154D01*
X143418Y170322D01*
X144055Y169685D01*
X144887Y169340D01*
X145787D01*
X146619Y169685D01*
X147256Y170322D01*
X147284Y170390D01*
X149548D01*
X149677Y170032D01*
X149689Y169890D01*
X149081Y169282D01*
X148736Y168450D01*
Y167550D01*
X149081Y166718D01*
X149718Y166081D01*
X150550Y165736D01*
X151450D01*
X151993Y165961D01*
X152116Y165878D01*
X152581Y165786D01*
X183553D01*
X183581Y165718D01*
X184218Y165081D01*
X185050Y164736D01*
X185950D01*
X186782Y165081D01*
X187419Y165718D01*
X187764Y166550D01*
Y167450D01*
X187419Y168282D01*
X186782Y168919D01*
X185950Y169264D01*
X185050D01*
X184218Y168919D01*
X183581Y168282D01*
X183553Y168214D01*
X153264D01*
Y168450D01*
X152919Y169282D01*
X152311Y169890D01*
X152323Y170032D01*
X152452Y170390D01*
X185023D01*
X185023Y170390D01*
X185488Y170483D01*
X185592Y170552D01*
X186139Y170326D01*
X187040D01*
X187872Y170670D01*
X188508Y171307D01*
X188559Y171430D01*
X189059Y171330D01*
Y167227D01*
X189059Y167227D01*
X189152Y166762D01*
X189415Y166368D01*
X248182Y107601D01*
X248182Y107601D01*
X248576Y107338D01*
X249041Y107245D01*
X249738D01*
X249769Y107132D01*
X250196Y106392D01*
X250801Y105787D01*
X251542Y105359D01*
X252368Y105138D01*
X253223D01*
X254049Y105359D01*
X254790Y105787D01*
X255394Y106392D01*
X255822Y107132D01*
X256043Y107958D01*
Y108813D01*
X255822Y109640D01*
X255394Y110380D01*
X254790Y110985D01*
X254049Y111413D01*
X253223Y111634D01*
X252368D01*
X251542Y111413D01*
X250801Y110985D01*
X250196Y110380D01*
X249937Y109931D01*
X249348Y109869D01*
X191487Y167730D01*
Y258594D01*
X191487Y258594D01*
X191395Y259059D01*
X191132Y259453D01*
X143603Y306981D01*
X143631Y307050D01*
Y307950D01*
X143287Y308782D01*
X142650Y309419D01*
X141818Y309764D01*
D02*
G37*
G36*
X238961Y173106D02*
X236894D01*
Y171039D01*
X236989D01*
X237894Y171414D01*
X238586Y172106D01*
X238961Y173011D01*
Y173106D01*
D02*
G37*
G36*
X236106D02*
X234039D01*
Y173011D01*
X234414Y172106D01*
X235106Y171414D01*
X236011Y171039D01*
X236106D01*
Y173106D01*
D02*
G37*
G36*
X93000Y174214D02*
X93000Y174214D01*
X17410D01*
X16945Y174121D01*
X16551Y173858D01*
X16551Y173858D01*
X14085Y171392D01*
X14049Y171413D01*
X13223Y171634D01*
X12368D01*
X11542Y171413D01*
X10801Y170985D01*
X10196Y170380D01*
X9769Y169640D01*
X9547Y168813D01*
Y167958D01*
X9769Y167132D01*
X10196Y166392D01*
X10801Y165787D01*
X11542Y165359D01*
X12368Y165138D01*
X13223D01*
X14049Y165359D01*
X14790Y165787D01*
X15394Y166392D01*
X15822Y167132D01*
X16043Y167958D01*
Y168813D01*
X15822Y169640D01*
X15801Y169675D01*
X17912Y171786D01*
X21189D01*
X21323Y171286D01*
X20801Y170985D01*
X20196Y170380D01*
X19769Y169640D01*
X19547Y168813D01*
Y167958D01*
X19769Y167132D01*
X20196Y166392D01*
X20801Y165787D01*
X20849Y165759D01*
X20715Y165259D01*
X18454D01*
X17990Y165166D01*
X17596Y164903D01*
X17596Y164903D01*
X14085Y161392D01*
X14049Y161413D01*
X13223Y161634D01*
X12368D01*
X11542Y161413D01*
X10801Y160985D01*
X10196Y160380D01*
X9769Y159640D01*
X9547Y158813D01*
Y157958D01*
X9769Y157132D01*
X10196Y156392D01*
X10801Y155787D01*
X11542Y155359D01*
X12368Y155138D01*
X13223D01*
X14049Y155359D01*
X14790Y155787D01*
X15394Y156392D01*
X15822Y157132D01*
X16043Y157958D01*
Y158813D01*
X15822Y159640D01*
X15801Y159675D01*
X18957Y162831D01*
X93883D01*
X93911Y162763D01*
X94548Y162126D01*
X95380Y161781D01*
X96281D01*
X97113Y162126D01*
X97750Y162763D01*
X98094Y163595D01*
Y164495D01*
X97750Y165327D01*
X97113Y165964D01*
X96281Y166309D01*
X95380D01*
X94548Y165964D01*
X93911Y165327D01*
X93883Y165259D01*
X24875D01*
X24741Y165759D01*
X24790Y165787D01*
X25394Y166392D01*
X25822Y167132D01*
X26043Y167958D01*
Y168813D01*
X25822Y169640D01*
X25394Y170380D01*
X24790Y170985D01*
X24268Y171286D01*
X24402Y171786D01*
X92497D01*
X98142Y166142D01*
X98142Y166142D01*
X98536Y165878D01*
X99000Y165786D01*
X99000Y165786D01*
X112500D01*
X112500Y165786D01*
X112964Y165878D01*
X113358Y166142D01*
X115481Y168265D01*
X115550Y168236D01*
X116450D01*
X117282Y168581D01*
X117919Y169218D01*
X118264Y170050D01*
Y170950D01*
X117919Y171782D01*
X117282Y172419D01*
X116450Y172764D01*
X115550D01*
X114718Y172419D01*
X114081Y171782D01*
X113736Y170950D01*
Y170050D01*
X113765Y169981D01*
X111997Y168214D01*
X99503D01*
X93858Y173858D01*
X93464Y174121D01*
X93000Y174214D01*
D02*
G37*
G36*
X253223Y171634D02*
X252368D01*
X251542Y171413D01*
X250801Y170985D01*
X250196Y170380D01*
X249769Y169640D01*
X249547Y168813D01*
Y167958D01*
X249769Y167132D01*
X250196Y166392D01*
X250801Y165787D01*
X251542Y165359D01*
X252368Y165138D01*
X253223D01*
X254049Y165359D01*
X254790Y165787D01*
X255394Y166392D01*
X255822Y167132D01*
X256043Y167958D01*
Y168813D01*
X255822Y169640D01*
X255394Y170380D01*
X254790Y170985D01*
X254049Y171413D01*
X253223Y171634D01*
D02*
G37*
G36*
X236989Y164961D02*
X236894D01*
Y162894D01*
X238961D01*
Y162989D01*
X238586Y163894D01*
X237894Y164586D01*
X236989Y164961D01*
D02*
G37*
G36*
X236106D02*
X236011D01*
X235106Y164586D01*
X234414Y163894D01*
X234039Y162989D01*
Y162894D01*
X236106D01*
Y164961D01*
D02*
G37*
G36*
X238961Y162106D02*
X236894D01*
Y160039D01*
X236989D01*
X237894Y160414D01*
X238586Y161106D01*
X238961Y162011D01*
Y162106D01*
D02*
G37*
G36*
X236106D02*
X234039D01*
Y162011D01*
X234414Y161106D01*
X235106Y160414D01*
X236011Y160039D01*
X236106D01*
Y162106D01*
D02*
G37*
G36*
X162950Y162264D02*
X162050D01*
X161218Y161919D01*
X160581Y161282D01*
X160236Y160450D01*
Y159550D01*
X160581Y158718D01*
X161218Y158081D01*
X162050Y157736D01*
X162950D01*
X163019Y157765D01*
X164142Y156642D01*
X164142Y156642D01*
X164535Y156378D01*
X165000Y156286D01*
X184053D01*
X184081Y156218D01*
X184718Y155581D01*
X185550Y155236D01*
X186450D01*
X187282Y155581D01*
X187919Y156218D01*
X188264Y157050D01*
Y157950D01*
X187919Y158782D01*
X187282Y159419D01*
X186450Y159764D01*
X185550D01*
X184718Y159419D01*
X184081Y158782D01*
X184053Y158714D01*
X165503D01*
X164735Y159481D01*
X164764Y159550D01*
Y160450D01*
X164419Y161282D01*
X163782Y161919D01*
X162950Y162264D01*
D02*
G37*
G36*
X253223Y161634D02*
X252368D01*
X251542Y161413D01*
X250801Y160985D01*
X250196Y160380D01*
X249769Y159640D01*
X249547Y158813D01*
Y157958D01*
X249769Y157132D01*
X250196Y156392D01*
X250801Y155787D01*
X251542Y155359D01*
X252368Y155138D01*
X253223D01*
X254049Y155359D01*
X254790Y155787D01*
X255394Y156392D01*
X255822Y157132D01*
X256043Y157958D01*
Y158813D01*
X255822Y159640D01*
X255394Y160380D01*
X254790Y160985D01*
X254049Y161413D01*
X253223Y161634D01*
D02*
G37*
G36*
X23223D02*
X22368D01*
X21542Y161413D01*
X20801Y160985D01*
X20196Y160380D01*
X19769Y159640D01*
X19547Y158813D01*
Y157958D01*
X19769Y157132D01*
X20196Y156392D01*
X20801Y155787D01*
X21542Y155359D01*
X22368Y155138D01*
X23223D01*
X24049Y155359D01*
X24790Y155787D01*
X25394Y156392D01*
X25822Y157132D01*
X26043Y157958D01*
Y158813D01*
X25822Y159640D01*
X25394Y160380D01*
X24790Y160985D01*
X24049Y161413D01*
X23223Y161634D01*
D02*
G37*
G36*
X50489Y155461D02*
X50394D01*
Y153394D01*
X52461D01*
Y153489D01*
X52086Y154394D01*
X51394Y155086D01*
X50489Y155461D01*
D02*
G37*
G36*
X49606D02*
X49511D01*
X48606Y155086D01*
X47914Y154394D01*
X47539Y153489D01*
Y153394D01*
X49606D01*
Y155461D01*
D02*
G37*
G36*
X192950Y155264D02*
X192050D01*
X191218Y154919D01*
X190581Y154282D01*
X190552Y154214D01*
X90500D01*
X90035Y154121D01*
X89642Y153858D01*
X89642Y153858D01*
X83519Y147735D01*
X83450Y147764D01*
X82550D01*
X81718Y147419D01*
X81081Y146782D01*
X80736Y145950D01*
Y145050D01*
X81081Y144218D01*
X81718Y143581D01*
X82550Y143236D01*
X83450D01*
X84282Y143581D01*
X84919Y144218D01*
X85264Y145050D01*
Y145950D01*
X85235Y146019D01*
X91003Y151786D01*
X190552D01*
X190581Y151718D01*
X191218Y151081D01*
X192050Y150736D01*
X192950D01*
X193782Y151081D01*
X194419Y151718D01*
X194764Y152550D01*
Y153450D01*
X194419Y154282D01*
X193782Y154919D01*
X192950Y155264D01*
D02*
G37*
G36*
X52461Y152606D02*
X50394D01*
Y150539D01*
X50489D01*
X51394Y150914D01*
X52086Y151606D01*
X52461Y152510D01*
Y152606D01*
D02*
G37*
G36*
X49606D02*
X47539D01*
Y152510D01*
X47914Y151606D01*
X48606Y150914D01*
X49511Y150539D01*
X49606D01*
Y152606D01*
D02*
G37*
G36*
X72450Y147764D02*
X71550D01*
X70718Y147419D01*
X70081Y146782D01*
X70052Y146714D01*
X58000D01*
X58000Y146714D01*
X57535Y146622D01*
X57142Y146358D01*
X44997Y134214D01*
X18500D01*
X18035Y134122D01*
X17642Y133858D01*
X17642Y133858D01*
X14776Y130993D01*
X14049Y131412D01*
X13223Y131634D01*
X12368D01*
X11542Y131412D01*
X10801Y130985D01*
X10196Y130380D01*
X9769Y129639D01*
X9547Y128813D01*
Y127958D01*
X9769Y127132D01*
X10196Y126391D01*
X10801Y125787D01*
X11542Y125359D01*
X12368Y125138D01*
X13223D01*
X14049Y125359D01*
X14790Y125787D01*
X15394Y126391D01*
X15822Y127132D01*
X16043Y127958D01*
Y128813D01*
X16040Y128824D01*
X19003Y131786D01*
X20795D01*
X20929Y131286D01*
X20680Y131142D01*
X20039Y130501D01*
X19585Y129716D01*
X19350Y128839D01*
Y128779D01*
X22795D01*
X26240D01*
Y128839D01*
X26005Y129716D01*
X25552Y130501D01*
X24911Y131142D01*
X24662Y131286D01*
X24796Y131786D01*
X45500D01*
X45500Y131786D01*
X45965Y131878D01*
X46358Y132142D01*
X58503Y144286D01*
X70052D01*
X70081Y144218D01*
X70718Y143581D01*
X71550Y143236D01*
X72450D01*
X73282Y143581D01*
X73919Y144218D01*
X74264Y145050D01*
Y145950D01*
X73919Y146782D01*
X73282Y147419D01*
X72450Y147764D01*
D02*
G37*
G36*
X263223Y151634D02*
X262368D01*
X261542Y151412D01*
X260801Y150985D01*
X260196Y150380D01*
X259769Y149639D01*
X259547Y148813D01*
Y147958D01*
X259769Y147132D01*
X260196Y146391D01*
X260801Y145787D01*
X261542Y145359D01*
X262368Y145138D01*
X263223D01*
X264049Y145359D01*
X264790Y145787D01*
X265394Y146391D01*
X265822Y147132D01*
X266043Y147958D01*
Y148813D01*
X265822Y149639D01*
X265394Y150380D01*
X264790Y150985D01*
X264049Y151412D01*
X263223Y151634D01*
D02*
G37*
G36*
X253223D02*
X252368D01*
X251542Y151412D01*
X250801Y150985D01*
X250196Y150380D01*
X249769Y149639D01*
X249547Y148813D01*
Y147958D01*
X249769Y147132D01*
X250196Y146391D01*
X250801Y145787D01*
X251542Y145359D01*
X252368Y145138D01*
X253223D01*
X254049Y145359D01*
X254790Y145787D01*
X255394Y146391D01*
X255822Y147132D01*
X256043Y147958D01*
Y148813D01*
X255822Y149639D01*
X255394Y150380D01*
X254790Y150985D01*
X254049Y151412D01*
X253223Y151634D01*
D02*
G37*
G36*
X23223D02*
X22368D01*
X21542Y151412D01*
X20801Y150985D01*
X20196Y150380D01*
X19769Y149639D01*
X19547Y148813D01*
Y147958D01*
X19769Y147132D01*
X20196Y146391D01*
X20801Y145787D01*
X21542Y145359D01*
X22368Y145138D01*
X23223D01*
X24049Y145359D01*
X24790Y145787D01*
X25394Y146391D01*
X25822Y147132D01*
X26043Y147958D01*
Y148813D01*
X25822Y149639D01*
X25394Y150380D01*
X24790Y150985D01*
X24049Y151412D01*
X23223Y151634D01*
D02*
G37*
G36*
X160989Y142961D02*
X160894D01*
Y140894D01*
X162961D01*
Y140989D01*
X162586Y141894D01*
X161894Y142586D01*
X160989Y142961D01*
D02*
G37*
G36*
X160106D02*
X160011D01*
X159106Y142586D01*
X158414Y141894D01*
X158039Y140989D01*
Y140894D01*
X160106D01*
Y142961D01*
D02*
G37*
G36*
X263249Y141831D02*
X263189D01*
Y138779D01*
X266240D01*
Y138839D01*
X266005Y139716D01*
X265552Y140501D01*
X264911Y141142D01*
X264125Y141596D01*
X263249Y141831D01*
D02*
G37*
G36*
X23249D02*
X23189D01*
Y138779D01*
X26240D01*
Y138839D01*
X26005Y139716D01*
X25552Y140501D01*
X24911Y141142D01*
X24125Y141596D01*
X23249Y141831D01*
D02*
G37*
G36*
X13249D02*
X13189D01*
Y138779D01*
X16240D01*
Y138839D01*
X16005Y139716D01*
X15552Y140501D01*
X14910Y141142D01*
X14125Y141596D01*
X13249Y141831D01*
D02*
G37*
G36*
X262402D02*
X262342D01*
X261466Y141596D01*
X260680Y141142D01*
X260039Y140501D01*
X259585Y139716D01*
X259350Y138839D01*
Y138779D01*
X262402D01*
Y141831D01*
D02*
G37*
G36*
X22402D02*
X22342D01*
X21466Y141596D01*
X20680Y141142D01*
X20039Y140501D01*
X19585Y139716D01*
X19350Y138839D01*
Y138779D01*
X22402D01*
Y141831D01*
D02*
G37*
G36*
X12402D02*
X12342D01*
X11466Y141596D01*
X10680Y141142D01*
X10039Y140501D01*
X9585Y139716D01*
X9350Y138839D01*
Y138779D01*
X12402D01*
Y141831D01*
D02*
G37*
G36*
X162961Y140106D02*
X160894D01*
Y138039D01*
X160989D01*
X161894Y138414D01*
X162586Y139106D01*
X162961Y140010D01*
Y140106D01*
D02*
G37*
G36*
X160106D02*
X158039D01*
Y140010D01*
X158414Y139106D01*
X159106Y138414D01*
X160011Y138039D01*
X160106D01*
Y140106D01*
D02*
G37*
G36*
X266240Y137992D02*
X263189D01*
Y134941D01*
X263249D01*
X264125Y135176D01*
X264911Y135629D01*
X265552Y136271D01*
X266005Y137056D01*
X266240Y137932D01*
Y137992D01*
D02*
G37*
G36*
X262402D02*
X259350D01*
Y137932D01*
X259585Y137056D01*
X260039Y136271D01*
X260680Y135629D01*
X261466Y135176D01*
X262342Y134941D01*
X262402D01*
Y137992D01*
D02*
G37*
G36*
X26240D02*
X23189D01*
Y134941D01*
X23249D01*
X24125Y135176D01*
X24911Y135629D01*
X25552Y136271D01*
X26005Y137056D01*
X26240Y137932D01*
Y137992D01*
D02*
G37*
G36*
X22402D02*
X19350D01*
Y137932D01*
X19585Y137056D01*
X20039Y136271D01*
X20680Y135629D01*
X21466Y135176D01*
X22342Y134941D01*
X22402D01*
Y137992D01*
D02*
G37*
G36*
X16240D02*
X13189D01*
Y134941D01*
X13249D01*
X14125Y135176D01*
X14910Y135629D01*
X15552Y136271D01*
X16005Y137056D01*
X16240Y137932D01*
Y137992D01*
D02*
G37*
G36*
X12402D02*
X9350D01*
Y137932D01*
X9585Y137056D01*
X10039Y136271D01*
X10680Y135629D01*
X11466Y135176D01*
X12342Y134941D01*
X12402D01*
Y137992D01*
D02*
G37*
G36*
X100950Y139264D02*
X100050D01*
X99218Y138919D01*
X98581Y138282D01*
X98236Y137450D01*
Y136550D01*
X98581Y135718D01*
X99218Y135081D01*
X100050Y134736D01*
X100950D01*
X101019Y134765D01*
X106142Y129642D01*
X106142Y129642D01*
X106535Y129378D01*
X107000Y129286D01*
X107000Y129286D01*
X111553D01*
X111581Y129218D01*
X112218Y128581D01*
X113050Y128236D01*
X113950D01*
X114782Y128581D01*
X115419Y129218D01*
X115764Y130050D01*
Y130950D01*
X115419Y131782D01*
X114782Y132419D01*
X113950Y132764D01*
X113050D01*
X112218Y132419D01*
X111581Y131782D01*
X111553Y131714D01*
X107503D01*
X102735Y136481D01*
X102764Y136550D01*
Y137450D01*
X102419Y138282D01*
X101782Y138919D01*
X100950Y139264D01*
D02*
G37*
G36*
X52489Y127461D02*
X52394D01*
Y125394D01*
X54461D01*
Y125489D01*
X54086Y126394D01*
X53394Y127086D01*
X52489Y127461D01*
D02*
G37*
G36*
X51606D02*
X51511D01*
X50606Y127086D01*
X49914Y126394D01*
X49539Y125489D01*
Y125394D01*
X51606D01*
Y127461D01*
D02*
G37*
G36*
X26240Y127992D02*
X23189D01*
Y124941D01*
X23249D01*
X24125Y125176D01*
X24911Y125629D01*
X25552Y126271D01*
X26005Y127056D01*
X26240Y127932D01*
Y127992D01*
D02*
G37*
G36*
X22402D02*
X19350D01*
Y127932D01*
X19585Y127056D01*
X20039Y126271D01*
X20680Y125629D01*
X21466Y125176D01*
X22342Y124941D01*
X22402D01*
Y127992D01*
D02*
G37*
G36*
X41489Y125461D02*
X41394D01*
Y123394D01*
X43461D01*
Y123489D01*
X43086Y124394D01*
X42394Y125086D01*
X41489Y125461D01*
D02*
G37*
G36*
X40606D02*
X40511D01*
X39606Y125086D01*
X38914Y124394D01*
X38539Y123489D01*
Y123394D01*
X40606D01*
Y125461D01*
D02*
G37*
G36*
X103787Y130067D02*
X102828D01*
X101901Y129819D01*
X101071Y129339D01*
X100393Y128661D01*
X99914Y127831D01*
X99665Y126905D01*
Y125946D01*
X99914Y125020D01*
X100393Y124189D01*
X101071Y123511D01*
X101901Y123032D01*
X102828Y122784D01*
X103787D01*
X104713Y123032D01*
X105543Y123511D01*
X106221Y124189D01*
X106701Y125020D01*
X106949Y125946D01*
Y126905D01*
X106701Y127831D01*
X106221Y128661D01*
X105543Y129339D01*
X104713Y129819D01*
X103787Y130067D01*
D02*
G37*
G36*
X93787D02*
X92828D01*
X91901Y129819D01*
X91071Y129339D01*
X90393Y128661D01*
X89913Y127831D01*
X89665Y126905D01*
Y125946D01*
X89913Y125020D01*
X90393Y124189D01*
X91071Y123511D01*
X91901Y123032D01*
X92828Y122784D01*
X93787D01*
X94713Y123032D01*
X95543Y123511D01*
X96221Y124189D01*
X96701Y125020D01*
X96949Y125946D01*
Y126905D01*
X96701Y127831D01*
X96221Y128661D01*
X95543Y129339D01*
X94713Y129819D01*
X93787Y130067D01*
D02*
G37*
G36*
X83786D02*
X82828D01*
X81901Y129819D01*
X81071Y129339D01*
X80393Y128661D01*
X79914Y127831D01*
X79665Y126905D01*
Y125946D01*
X79914Y125020D01*
X80393Y124189D01*
X81071Y123511D01*
X81901Y123032D01*
X82828Y122784D01*
X83786D01*
X84713Y123032D01*
X85543Y123511D01*
X86221Y124189D01*
X86701Y125020D01*
X86949Y125946D01*
Y126905D01*
X86701Y127831D01*
X86221Y128661D01*
X85543Y129339D01*
X84713Y129819D01*
X83786Y130067D01*
D02*
G37*
G36*
X73786D02*
X72828D01*
X71901Y129819D01*
X71071Y129339D01*
X70393Y128661D01*
X69914Y127831D01*
X69665Y126905D01*
Y125946D01*
X69914Y125020D01*
X70393Y124189D01*
X71071Y123511D01*
X71901Y123032D01*
X72828Y122784D01*
X73786D01*
X74713Y123032D01*
X75543Y123511D01*
X76221Y124189D01*
X76701Y125020D01*
X76949Y125946D01*
Y126905D01*
X76701Y127831D01*
X76221Y128661D01*
X75543Y129339D01*
X74713Y129819D01*
X73786Y130067D01*
D02*
G37*
G36*
X63787D02*
X62828D01*
X61901Y129819D01*
X61071Y129339D01*
X60393Y128661D01*
X59913Y127831D01*
X59665Y126905D01*
Y125946D01*
X59913Y125020D01*
X60393Y124189D01*
X61071Y123511D01*
X61901Y123032D01*
X62828Y122784D01*
X63787D01*
X64713Y123032D01*
X65543Y123511D01*
X66221Y124189D01*
X66701Y125020D01*
X66949Y125946D01*
Y126905D01*
X66701Y127831D01*
X66221Y128661D01*
X65543Y129339D01*
X64713Y129819D01*
X63787Y130067D01*
D02*
G37*
G36*
X54461Y124606D02*
X52394D01*
Y122539D01*
X52489D01*
X53394Y122914D01*
X54086Y123606D01*
X54461Y124511D01*
Y124606D01*
D02*
G37*
G36*
X51606D02*
X49539D01*
Y124511D01*
X49914Y123606D01*
X50606Y122914D01*
X51511Y122539D01*
X51606D01*
Y124606D01*
D02*
G37*
G36*
X35989Y124461D02*
X35894D01*
Y122394D01*
X37961D01*
Y122490D01*
X37586Y123394D01*
X36894Y124086D01*
X35989Y124461D01*
D02*
G37*
G36*
X35106D02*
X35011D01*
X34106Y124086D01*
X33414Y123394D01*
X33039Y122490D01*
Y122394D01*
X35106D01*
Y124461D01*
D02*
G37*
G36*
X43461Y122606D02*
X41394D01*
Y120539D01*
X41489D01*
X42394Y120914D01*
X43086Y121606D01*
X43461Y122511D01*
Y122606D01*
D02*
G37*
G36*
X40606D02*
X38539D01*
Y122511D01*
X38914Y121606D01*
X39606Y120914D01*
X40511Y120539D01*
X40606D01*
Y122606D01*
D02*
G37*
G36*
X37961Y121606D02*
X35894D01*
Y119539D01*
X35989D01*
X36894Y119914D01*
X37586Y120606D01*
X37961Y121511D01*
Y121606D01*
D02*
G37*
G36*
X35106D02*
X33039D01*
Y121511D01*
X33414Y120606D01*
X34106Y119914D01*
X35011Y119539D01*
X35106D01*
Y121606D01*
D02*
G37*
G36*
X220989Y119961D02*
X220894D01*
Y117894D01*
X222961D01*
Y117990D01*
X222586Y118894D01*
X221894Y119586D01*
X220989Y119961D01*
D02*
G37*
G36*
X220106D02*
X220011D01*
X219106Y119586D01*
X218414Y118894D01*
X218039Y117990D01*
Y117894D01*
X220106D01*
Y119961D01*
D02*
G37*
G36*
X107146Y120264D02*
X103701D01*
Y116819D01*
X107146D01*
Y120264D01*
D02*
G37*
G36*
X102913D02*
X99468D01*
Y116819D01*
X102913D01*
Y120264D01*
D02*
G37*
G36*
X154990Y118461D02*
X154894D01*
Y116394D01*
X156961D01*
Y116490D01*
X156586Y117394D01*
X155894Y118086D01*
X154990Y118461D01*
D02*
G37*
G36*
X154106D02*
X154010D01*
X153106Y118086D01*
X152414Y117394D01*
X152039Y116490D01*
Y116394D01*
X154106D01*
Y118461D01*
D02*
G37*
G36*
X23223Y121634D02*
X22368D01*
X21542Y121413D01*
X20801Y120985D01*
X20196Y120380D01*
X19769Y119640D01*
X19547Y118813D01*
Y117958D01*
X19769Y117132D01*
X20196Y116392D01*
X20801Y115787D01*
X21542Y115359D01*
X22368Y115138D01*
X23223D01*
X24049Y115359D01*
X24790Y115787D01*
X25394Y116392D01*
X25822Y117132D01*
X26043Y117958D01*
Y118813D01*
X25822Y119640D01*
X25394Y120380D01*
X24790Y120985D01*
X24049Y121413D01*
X23223Y121634D01*
D02*
G37*
G36*
X13223D02*
X12368D01*
X11542Y121413D01*
X10801Y120985D01*
X10196Y120380D01*
X9769Y119640D01*
X9547Y118813D01*
Y117958D01*
X9769Y117132D01*
X10196Y116392D01*
X10801Y115787D01*
X11542Y115359D01*
X12368Y115138D01*
X13223D01*
X14049Y115359D01*
X14790Y115787D01*
X15394Y116392D01*
X15822Y117132D01*
X16043Y117958D01*
Y118813D01*
X15822Y119640D01*
X15394Y120380D01*
X14790Y120985D01*
X14049Y121413D01*
X13223Y121634D01*
D02*
G37*
G36*
X222961Y117106D02*
X220894D01*
Y115039D01*
X220989D01*
X221894Y115414D01*
X222586Y116106D01*
X222961Y117010D01*
Y117106D01*
D02*
G37*
G36*
X220106D02*
X218039D01*
Y117010D01*
X218414Y116106D01*
X219106Y115414D01*
X220011Y115039D01*
X220106D01*
Y117106D01*
D02*
G37*
G36*
X79950Y437764D02*
X79050D01*
X78218Y437419D01*
X77581Y436782D01*
X77236Y435950D01*
Y435050D01*
X77581Y434218D01*
X78218Y433581D01*
X79050Y433236D01*
X79950D01*
X80019Y433265D01*
X109286Y403997D01*
Y349500D01*
X109286Y349500D01*
X109379Y349036D01*
X109642Y348642D01*
X196286Y261997D01*
Y172000D01*
X196286Y172000D01*
X196379Y171536D01*
X196642Y171142D01*
X249468Y118315D01*
X249468Y118315D01*
X249547Y118262D01*
Y117958D01*
X249769Y117132D01*
X250196Y116392D01*
X250801Y115787D01*
X251542Y115359D01*
X252084Y115214D01*
X252018Y114714D01*
X250503D01*
X195214Y170003D01*
Y260500D01*
X195122Y260964D01*
X194858Y261358D01*
X194858Y261358D01*
X143454Y312762D01*
X143061Y313025D01*
X142596Y313118D01*
X142596Y313118D01*
X125884D01*
X125856Y313186D01*
X125219Y313823D01*
X124387Y314168D01*
X123487D01*
X122655Y313823D01*
X122018Y313186D01*
X121673Y312354D01*
Y311454D01*
X122018Y310622D01*
X122655Y309985D01*
X123487Y309640D01*
X124387D01*
X125219Y309985D01*
X125856Y310622D01*
X125884Y310690D01*
X142093D01*
X192786Y259997D01*
Y169500D01*
X192786Y169500D01*
X192878Y169035D01*
X193142Y168642D01*
X249142Y112642D01*
X249535Y112379D01*
X250000Y112286D01*
X250000Y112286D01*
X254500D01*
X254500Y112286D01*
X254964Y112379D01*
X255358Y112642D01*
X258858Y116142D01*
X258858Y116142D01*
X259121Y116535D01*
X259214Y117000D01*
X259272Y117053D01*
X259374Y117069D01*
X259882Y116935D01*
X260196Y116392D01*
X260801Y115787D01*
X261542Y115359D01*
X262368Y115138D01*
X263223D01*
X264049Y115359D01*
X264790Y115787D01*
X265394Y116392D01*
X265822Y117132D01*
X266043Y117958D01*
Y118813D01*
X265822Y119640D01*
X265394Y120380D01*
X264790Y120985D01*
X264049Y121413D01*
X263223Y121634D01*
X262368D01*
X261542Y121413D01*
X260801Y120985D01*
X260196Y120380D01*
X259769Y119640D01*
X259714Y119435D01*
X259214Y119501D01*
Y126046D01*
X259597Y126429D01*
X260174Y126393D01*
X260227Y126361D01*
X260801Y125787D01*
X261542Y125359D01*
X262368Y125138D01*
X263223D01*
X264049Y125359D01*
X264790Y125787D01*
X265394Y126391D01*
X265822Y127132D01*
X266043Y127958D01*
Y128813D01*
X265822Y129639D01*
X265394Y130380D01*
X264790Y130985D01*
X264049Y131412D01*
X263223Y131634D01*
X262368D01*
X261542Y131412D01*
X260801Y130985D01*
X260196Y130380D01*
X259769Y129639D01*
X259631Y129127D01*
X259364D01*
X259364Y129127D01*
X258900Y129034D01*
X258506Y128771D01*
X258506Y128771D01*
X257142Y127407D01*
X256878Y127013D01*
X256786Y126549D01*
X256786Y126549D01*
Y117503D01*
X256312Y117028D01*
X255863Y117287D01*
X256043Y117958D01*
Y118813D01*
X255822Y119640D01*
X255394Y120380D01*
X254790Y120985D01*
X254049Y121413D01*
X253223Y121634D01*
X252368D01*
X251542Y121413D01*
X250801Y120985D01*
X250516Y120700D01*
X198714Y172503D01*
Y262500D01*
X198714Y262500D01*
X198621Y262965D01*
X198358Y263358D01*
X111714Y350003D01*
Y404500D01*
X111714Y404500D01*
X111621Y404964D01*
X111358Y405358D01*
X81735Y434981D01*
X81764Y435050D01*
Y435950D01*
X81419Y436782D01*
X80782Y437419D01*
X79950Y437764D01*
D02*
G37*
G36*
X156961Y115606D02*
X154894D01*
Y113539D01*
X154990D01*
X155894Y113914D01*
X156586Y114606D01*
X156961Y115510D01*
Y115606D01*
D02*
G37*
G36*
X154106D02*
X152039D01*
Y115510D01*
X152414Y114606D01*
X153106Y113914D01*
X154010Y113539D01*
X154106D01*
Y115606D01*
D02*
G37*
G36*
X93787Y120067D02*
X92828D01*
X91901Y119819D01*
X91071Y119339D01*
X90393Y118661D01*
X89913Y117831D01*
X89665Y116905D01*
Y115946D01*
X89913Y115020D01*
X90393Y114189D01*
X91071Y113511D01*
X91901Y113032D01*
X92828Y112784D01*
X93787D01*
X94713Y113032D01*
X95543Y113511D01*
X96221Y114189D01*
X96701Y115020D01*
X96949Y115946D01*
Y116905D01*
X96701Y117831D01*
X96221Y118661D01*
X95543Y119339D01*
X94713Y119819D01*
X93787Y120067D01*
D02*
G37*
G36*
X83786D02*
X82828D01*
X81901Y119819D01*
X81071Y119339D01*
X80393Y118661D01*
X79914Y117831D01*
X79665Y116905D01*
Y115946D01*
X79914Y115020D01*
X80393Y114189D01*
X81071Y113511D01*
X81901Y113032D01*
X82828Y112784D01*
X83786D01*
X84713Y113032D01*
X85543Y113511D01*
X86221Y114189D01*
X86701Y115020D01*
X86949Y115946D01*
Y116905D01*
X86701Y117831D01*
X86221Y118661D01*
X85543Y119339D01*
X84713Y119819D01*
X83786Y120067D01*
D02*
G37*
G36*
X73786D02*
X72828D01*
X71901Y119819D01*
X71071Y119339D01*
X70393Y118661D01*
X69914Y117831D01*
X69665Y116905D01*
Y115946D01*
X69914Y115020D01*
X70393Y114189D01*
X71071Y113511D01*
X71901Y113032D01*
X72828Y112784D01*
X73786D01*
X74713Y113032D01*
X75543Y113511D01*
X76221Y114189D01*
X76701Y115020D01*
X76949Y115946D01*
Y116905D01*
X76701Y117831D01*
X76221Y118661D01*
X75543Y119339D01*
X74713Y119819D01*
X73786Y120067D01*
D02*
G37*
G36*
X63787D02*
X62828D01*
X61901Y119819D01*
X61071Y119339D01*
X60393Y118661D01*
X59913Y117831D01*
X59665Y116905D01*
Y115946D01*
X59913Y115020D01*
X60393Y114189D01*
X61071Y113511D01*
X61901Y113032D01*
X62828Y112784D01*
X63787D01*
X64713Y113032D01*
X65543Y113511D01*
X66221Y114189D01*
X66701Y115020D01*
X66949Y115946D01*
Y116905D01*
X66701Y117831D01*
X66221Y118661D01*
X65543Y119339D01*
X64713Y119819D01*
X63787Y120067D01*
D02*
G37*
G36*
X107146Y116032D02*
X103701D01*
Y112587D01*
X107146D01*
Y116032D01*
D02*
G37*
G36*
X102913D02*
X99468D01*
Y112587D01*
X102913D01*
Y116032D01*
D02*
G37*
G36*
X52450Y110764D02*
X51550D01*
X50718Y110419D01*
X50081Y109782D01*
X49736Y108950D01*
Y108050D01*
X50081Y107218D01*
X50718Y106581D01*
X51550Y106236D01*
X52450D01*
X53282Y106581D01*
X53919Y107218D01*
X54264Y108050D01*
Y108950D01*
X53919Y109782D01*
X53282Y110419D01*
X52450Y110764D01*
D02*
G37*
G36*
X23223Y111634D02*
X22368D01*
X21542Y111413D01*
X20801Y110985D01*
X20196Y110380D01*
X19769Y109640D01*
X19547Y108813D01*
Y107958D01*
X19769Y107132D01*
X20196Y106392D01*
X20801Y105787D01*
X21542Y105359D01*
X22368Y105138D01*
X23223D01*
X24049Y105359D01*
X24790Y105787D01*
X25394Y106392D01*
X25822Y107132D01*
X26043Y107958D01*
Y108813D01*
X25822Y109640D01*
X25394Y110380D01*
X24790Y110985D01*
X24049Y111413D01*
X23223Y111634D01*
D02*
G37*
G36*
X13223D02*
X12368D01*
X11542Y111413D01*
X10801Y110985D01*
X10196Y110380D01*
X9769Y109640D01*
X9547Y108813D01*
Y107958D01*
X9769Y107132D01*
X10196Y106392D01*
X10801Y105787D01*
X11542Y105359D01*
X12368Y105138D01*
X13223D01*
X14049Y105359D01*
X14790Y105787D01*
X15394Y106392D01*
X15822Y107132D01*
X16043Y107958D01*
Y108813D01*
X15822Y109640D01*
X15394Y110380D01*
X14790Y110985D01*
X14049Y111413D01*
X13223Y111634D01*
D02*
G37*
G36*
X155990Y106961D02*
X155894D01*
Y104894D01*
X157961D01*
Y104990D01*
X157586Y105894D01*
X156894Y106586D01*
X155990Y106961D01*
D02*
G37*
G36*
X155106D02*
X155010D01*
X154106Y106586D01*
X153414Y105894D01*
X153039Y104990D01*
Y104894D01*
X155106D01*
Y106961D01*
D02*
G37*
G36*
X129990D02*
X129894D01*
Y104894D01*
X131961D01*
Y104990D01*
X131586Y105894D01*
X130894Y106586D01*
X129990Y106961D01*
D02*
G37*
G36*
X129106D02*
X129010D01*
X128106Y106586D01*
X127414Y105894D01*
X127039Y104990D01*
Y104894D01*
X129106D01*
Y106961D01*
D02*
G37*
G36*
X57950Y122264D02*
X57050D01*
X56218Y121919D01*
X55581Y121282D01*
X55236Y120450D01*
Y119550D01*
X55581Y118718D01*
X56218Y118081D01*
X56286Y118052D01*
Y108948D01*
X56218Y108919D01*
X55581Y108282D01*
X55236Y107450D01*
Y106550D01*
X55581Y105718D01*
X56218Y105081D01*
X57050Y104736D01*
X57950D01*
X58782Y105081D01*
X59419Y105718D01*
X59764Y106550D01*
Y107450D01*
X59419Y108282D01*
X58782Y108919D01*
X58714Y108948D01*
Y118052D01*
X58782Y118081D01*
X59419Y118718D01*
X59764Y119550D01*
Y120450D01*
X59419Y121282D01*
X58782Y121919D01*
X57950Y122264D01*
D02*
G37*
G36*
X157961Y104106D02*
X155894D01*
Y102039D01*
X155990D01*
X156894Y102414D01*
X157586Y103106D01*
X157961Y104010D01*
Y104106D01*
D02*
G37*
G36*
X155106D02*
X153039D01*
Y104010D01*
X153414Y103106D01*
X154106Y102414D01*
X155010Y102039D01*
X155106D01*
Y104106D01*
D02*
G37*
G36*
X131961D02*
X129894D01*
Y102039D01*
X129990D01*
X130894Y102414D01*
X131586Y103106D01*
X131961Y104010D01*
Y104106D01*
D02*
G37*
G36*
X129106D02*
X127039D01*
Y104010D01*
X127414Y103106D01*
X128106Y102414D01*
X129010Y102039D01*
X129106D01*
Y104106D01*
D02*
G37*
G36*
X144259Y100220D02*
Y98859D01*
X145620D01*
X145367Y99469D01*
X144869Y99967D01*
X144259Y100220D01*
D02*
G37*
G36*
X143472D02*
X142862Y99967D01*
X142363Y99469D01*
X142111Y98859D01*
X143472D01*
Y100220D01*
D02*
G37*
G36*
X139928D02*
Y98859D01*
X141289D01*
X141037Y99469D01*
X140538Y99967D01*
X139928Y100220D01*
D02*
G37*
G36*
X139141D02*
X138531Y99967D01*
X138033Y99469D01*
X137780Y98859D01*
X139141D01*
Y100220D01*
D02*
G37*
G36*
X36950Y102764D02*
X36050D01*
X35218Y102419D01*
X34581Y101782D01*
X34236Y100950D01*
Y100050D01*
X34581Y99218D01*
X35218Y98581D01*
X36050Y98236D01*
X36950D01*
X37782Y98581D01*
X38419Y99218D01*
X38764Y100050D01*
Y100950D01*
X38419Y101782D01*
X37782Y102419D01*
X36950Y102764D01*
D02*
G37*
G36*
X145620Y98072D02*
X144259D01*
Y96711D01*
X144869Y96963D01*
X145367Y97462D01*
X145620Y98072D01*
D02*
G37*
G36*
X143472D02*
X142111D01*
X142363Y97462D01*
X142862Y96963D01*
X143472Y96711D01*
Y98072D01*
D02*
G37*
G36*
X141289D02*
X139928D01*
Y96711D01*
X140538Y96963D01*
X141037Y97462D01*
X141289Y98072D01*
D02*
G37*
G36*
X139141D02*
X137780D01*
X138033Y97462D01*
X138531Y96963D01*
X139141Y96711D01*
Y98072D01*
D02*
G37*
G36*
X166450Y100764D02*
X165550D01*
X164718Y100419D01*
X164081Y99782D01*
X163736Y98950D01*
Y98050D01*
X164081Y97218D01*
X164718Y96581D01*
X165550Y96236D01*
X166450D01*
X167282Y96581D01*
X167919Y97218D01*
X168264Y98050D01*
Y98950D01*
X167919Y99782D01*
X167282Y100419D01*
X166450Y100764D01*
D02*
G37*
G36*
X46450Y99764D02*
X45550D01*
X44718Y99419D01*
X44081Y98782D01*
X43736Y97950D01*
Y97050D01*
X44081Y96218D01*
X44718Y95581D01*
X45550Y95236D01*
X46450D01*
X47282Y95581D01*
X47919Y96218D01*
X48264Y97050D01*
Y97950D01*
X47919Y98782D01*
X47282Y99419D01*
X46450Y99764D01*
D02*
G37*
G36*
X253223Y101634D02*
X252368D01*
X251542Y101412D01*
X250801Y100985D01*
X250196Y100380D01*
X249769Y99639D01*
X249547Y98813D01*
Y97958D01*
X249769Y97132D01*
X250196Y96391D01*
X250801Y95787D01*
X251542Y95359D01*
X252368Y95138D01*
X253223D01*
X254049Y95359D01*
X254790Y95787D01*
X255394Y96391D01*
X255822Y97132D01*
X256043Y97958D01*
Y98813D01*
X255822Y99639D01*
X255394Y100380D01*
X254790Y100985D01*
X254049Y101412D01*
X253223Y101634D01*
D02*
G37*
G36*
X23223D02*
X22368D01*
X21542Y101412D01*
X20801Y100985D01*
X20196Y100380D01*
X19769Y99639D01*
X19547Y98813D01*
Y97958D01*
X19769Y97132D01*
X20196Y96391D01*
X20801Y95787D01*
X21542Y95359D01*
X22368Y95138D01*
X23223D01*
X24049Y95359D01*
X24790Y95787D01*
X25394Y96391D01*
X25822Y97132D01*
X26043Y97958D01*
Y98813D01*
X25822Y99639D01*
X25394Y100380D01*
X24790Y100985D01*
X24049Y101412D01*
X23223Y101634D01*
D02*
G37*
G36*
X13223D02*
X12368D01*
X11542Y101412D01*
X10801Y100985D01*
X10196Y100380D01*
X9769Y99639D01*
X9547Y98813D01*
Y97958D01*
X9769Y97132D01*
X10196Y96391D01*
X10801Y95787D01*
X11542Y95359D01*
X12368Y95138D01*
X13223D01*
X14049Y95359D01*
X14790Y95787D01*
X15394Y96391D01*
X15822Y97132D01*
X16043Y97958D01*
Y98813D01*
X15822Y99639D01*
X15394Y100380D01*
X14790Y100985D01*
X14049Y101412D01*
X13223Y101634D01*
D02*
G37*
G36*
X144259Y95889D02*
Y94528D01*
X145620D01*
X145367Y95138D01*
X144869Y95637D01*
X144259Y95889D01*
D02*
G37*
G36*
X143472D02*
X142862Y95637D01*
X142363Y95138D01*
X142111Y94528D01*
X143472D01*
Y95889D01*
D02*
G37*
G36*
X139928D02*
Y94528D01*
X141289D01*
X141037Y95138D01*
X140538Y95637D01*
X139928Y95889D01*
D02*
G37*
G36*
X139141D02*
X138531Y95637D01*
X138033Y95138D01*
X137780Y94528D01*
X139141D01*
Y95889D01*
D02*
G37*
G36*
X145620Y93741D02*
X144259D01*
Y92380D01*
X144869Y92633D01*
X145367Y93131D01*
X145620Y93741D01*
D02*
G37*
G36*
X143472D02*
X142111D01*
X142363Y93131D01*
X142862Y92633D01*
X143472Y92380D01*
Y93741D01*
D02*
G37*
G36*
X141289D02*
X139928D01*
Y92380D01*
X140538Y92633D01*
X141037Y93131D01*
X141289Y93741D01*
D02*
G37*
G36*
X139141D02*
X137780D01*
X138033Y93131D01*
X138531Y92633D01*
X139141Y92380D01*
Y93741D01*
D02*
G37*
G36*
X195990Y93961D02*
X195894D01*
Y91894D01*
X197961D01*
Y91989D01*
X197586Y92894D01*
X196894Y93586D01*
X195990Y93961D01*
D02*
G37*
G36*
X195106D02*
X195010D01*
X194106Y93586D01*
X193414Y92894D01*
X193039Y91989D01*
Y91894D01*
X195106D01*
Y93961D01*
D02*
G37*
G36*
X197961Y91106D02*
X195894D01*
Y89039D01*
X195990D01*
X196894Y89414D01*
X197586Y90106D01*
X197961Y91011D01*
Y91106D01*
D02*
G37*
G36*
X195106D02*
X193039D01*
Y91011D01*
X193414Y90106D01*
X194106Y89414D01*
X195010Y89039D01*
X195106D01*
Y91106D01*
D02*
G37*
G36*
X166950Y92764D02*
X166050D01*
X165218Y92419D01*
X164581Y91782D01*
X164236Y90950D01*
Y90050D01*
X164581Y89218D01*
X165218Y88581D01*
X166050Y88236D01*
X166950D01*
X167782Y88581D01*
X168419Y89218D01*
X168764Y90050D01*
Y90950D01*
X168419Y91782D01*
X167782Y92419D01*
X166950Y92764D01*
D02*
G37*
G36*
X68989Y88461D02*
X68894D01*
Y86394D01*
X70961D01*
Y86489D01*
X70586Y87394D01*
X69894Y88086D01*
X68989Y88461D01*
D02*
G37*
G36*
X68106D02*
X68011D01*
X67106Y88086D01*
X66414Y87394D01*
X66039Y86489D01*
Y86394D01*
X68106D01*
Y88461D01*
D02*
G37*
G36*
X153489Y87961D02*
X153394D01*
Y85894D01*
X155461D01*
Y85989D01*
X155086Y86894D01*
X154394Y87586D01*
X153489Y87961D01*
D02*
G37*
G36*
X152606D02*
X152510D01*
X151606Y87586D01*
X150914Y86894D01*
X150539Y85989D01*
Y85894D01*
X152606D01*
Y87961D01*
D02*
G37*
G36*
X76950Y96764D02*
X76050D01*
X75218Y96419D01*
X74581Y95782D01*
X74236Y94950D01*
Y94050D01*
X74581Y93218D01*
X75218Y92581D01*
X76050Y92236D01*
X76950D01*
X77782Y92581D01*
X78419Y93218D01*
X78448Y93286D01*
X103997D01*
X109265Y88019D01*
X109236Y87950D01*
Y87050D01*
X109581Y86218D01*
X110218Y85581D01*
X111050Y85236D01*
X111950D01*
X112782Y85581D01*
X113419Y86218D01*
X113764Y87050D01*
Y87950D01*
X113419Y88782D01*
X112782Y89419D01*
X111950Y89764D01*
X111050D01*
X110981Y89735D01*
X105358Y95358D01*
X104964Y95622D01*
X104500Y95714D01*
X104500Y95714D01*
X78448D01*
X78419Y95782D01*
X77782Y96419D01*
X76950Y96764D01*
D02*
G37*
G36*
X253223Y91634D02*
X252368D01*
X251542Y91413D01*
X250801Y90985D01*
X250196Y90380D01*
X249769Y89640D01*
X249547Y88813D01*
Y87958D01*
X249769Y87132D01*
X250196Y86392D01*
X250801Y85787D01*
X251542Y85359D01*
X252368Y85138D01*
X253223D01*
X254049Y85359D01*
X254790Y85787D01*
X255394Y86392D01*
X255822Y87132D01*
X256043Y87958D01*
Y88813D01*
X255822Y89640D01*
X255394Y90380D01*
X254790Y90985D01*
X254049Y91413D01*
X253223Y91634D01*
D02*
G37*
G36*
X23223D02*
X22368D01*
X21542Y91413D01*
X20801Y90985D01*
X20196Y90380D01*
X19769Y89640D01*
X19547Y88813D01*
Y87958D01*
X19769Y87132D01*
X20196Y86392D01*
X20801Y85787D01*
X21542Y85359D01*
X22368Y85138D01*
X23223D01*
X24049Y85359D01*
X24790Y85787D01*
X25394Y86392D01*
X25822Y87132D01*
X26043Y87958D01*
Y88813D01*
X25822Y89640D01*
X25394Y90380D01*
X24790Y90985D01*
X24049Y91413D01*
X23223Y91634D01*
D02*
G37*
G36*
X13223D02*
X12368D01*
X11542Y91413D01*
X10801Y90985D01*
X10196Y90380D01*
X9769Y89640D01*
X9547Y88813D01*
Y87958D01*
X9769Y87132D01*
X10196Y86392D01*
X10801Y85787D01*
X11542Y85359D01*
X12368Y85138D01*
X13223D01*
X14049Y85359D01*
X14790Y85787D01*
X15394Y86392D01*
X15822Y87132D01*
X16043Y87958D01*
Y88813D01*
X15822Y89640D01*
X15394Y90380D01*
X14790Y90985D01*
X14049Y91413D01*
X13223Y91634D01*
D02*
G37*
G36*
X70961Y85606D02*
X68894D01*
Y83539D01*
X68989D01*
X69894Y83914D01*
X70586Y84606D01*
X70961Y85511D01*
Y85606D01*
D02*
G37*
G36*
X68106D02*
X66039D01*
Y85511D01*
X66414Y84606D01*
X67106Y83914D01*
X68011Y83539D01*
X68106D01*
Y85606D01*
D02*
G37*
G36*
X155461Y85106D02*
X153394D01*
Y83039D01*
X153489D01*
X154394Y83414D01*
X155086Y84106D01*
X155461Y85011D01*
Y85106D01*
D02*
G37*
G36*
X152606D02*
X150539D01*
Y85011D01*
X150914Y84106D01*
X151606Y83414D01*
X152510Y83039D01*
X152606D01*
Y85106D01*
D02*
G37*
G36*
X212489Y83961D02*
X212394D01*
Y81894D01*
X214461D01*
Y81989D01*
X214086Y82894D01*
X213394Y83586D01*
X212489Y83961D01*
D02*
G37*
G36*
X211606D02*
X211511D01*
X210606Y83586D01*
X209914Y82894D01*
X209539Y81989D01*
Y81894D01*
X211606D01*
Y83961D01*
D02*
G37*
G36*
X183950Y84264D02*
X183050D01*
X182218Y83919D01*
X181581Y83282D01*
X181236Y82450D01*
Y81550D01*
X181581Y80718D01*
X182218Y80081D01*
X183050Y79736D01*
X183950D01*
X184782Y80081D01*
X185419Y80718D01*
X185764Y81550D01*
Y82450D01*
X185419Y83282D01*
X184782Y83919D01*
X183950Y84264D01*
D02*
G37*
G36*
X214461Y81106D02*
X212394D01*
Y79039D01*
X212489D01*
X213394Y79414D01*
X214086Y80106D01*
X214461Y81011D01*
Y81106D01*
D02*
G37*
G36*
X211606D02*
X209539D01*
Y81011D01*
X209914Y80106D01*
X210606Y79414D01*
X211511Y79039D01*
X211606D01*
Y81106D01*
D02*
G37*
G36*
X263249Y81831D02*
X263189D01*
Y78780D01*
X266240D01*
Y78839D01*
X266005Y79716D01*
X265552Y80501D01*
X264911Y81142D01*
X264125Y81596D01*
X263249Y81831D01*
D02*
G37*
G36*
X262402D02*
X262342D01*
X261466Y81596D01*
X260680Y81142D01*
X260039Y80501D01*
X259585Y79716D01*
X259350Y78839D01*
Y78780D01*
X262402D01*
Y81831D01*
D02*
G37*
G36*
X266240Y77992D02*
X263189D01*
Y74941D01*
X263249D01*
X264125Y75176D01*
X264911Y75629D01*
X265552Y76271D01*
X266005Y77056D01*
X266240Y77932D01*
Y77992D01*
D02*
G37*
G36*
X262402D02*
X259350D01*
Y77932D01*
X259585Y77056D01*
X260039Y76271D01*
X260680Y75629D01*
X261466Y75176D01*
X262342Y74941D01*
X262402D01*
Y77992D01*
D02*
G37*
G36*
X169990Y74961D02*
X169894D01*
Y72894D01*
X171961D01*
Y72989D01*
X171586Y73894D01*
X170894Y74586D01*
X169990Y74961D01*
D02*
G37*
G36*
X169106D02*
X169010D01*
X168106Y74586D01*
X167414Y73894D01*
X167039Y72989D01*
Y72894D01*
X169106D01*
Y74961D01*
D02*
G37*
G36*
X235450Y76764D02*
X234550D01*
X233718Y76419D01*
X233081Y75782D01*
X232736Y74950D01*
Y74050D01*
X233081Y73218D01*
X233718Y72581D01*
X234550Y72236D01*
X235450D01*
X236282Y72581D01*
X236919Y73218D01*
X237264Y74050D01*
Y74950D01*
X236919Y75782D01*
X236282Y76419D01*
X235450Y76764D01*
D02*
G37*
G36*
X104490Y73961D02*
X104394D01*
Y71894D01*
X106461D01*
Y71989D01*
X106086Y72894D01*
X105394Y73586D01*
X104490Y73961D01*
D02*
G37*
G36*
X103606D02*
X103510D01*
X102606Y73586D01*
X101914Y72894D01*
X101539Y71989D01*
Y71894D01*
X103606D01*
Y73961D01*
D02*
G37*
G36*
X151989Y73461D02*
X151894D01*
Y71394D01*
X153961D01*
Y71489D01*
X153586Y72394D01*
X152894Y73086D01*
X151989Y73461D01*
D02*
G37*
G36*
X151106D02*
X151011D01*
X150106Y73086D01*
X149414Y72394D01*
X149039Y71489D01*
Y71394D01*
X151106D01*
Y73461D01*
D02*
G37*
G36*
X171961Y72106D02*
X169894D01*
Y70039D01*
X169990D01*
X170894Y70414D01*
X171586Y71106D01*
X171961Y72011D01*
Y72106D01*
D02*
G37*
G36*
X169106D02*
X167039D01*
Y72011D01*
X167414Y71106D01*
X168106Y70414D01*
X169010Y70039D01*
X169106D01*
Y72106D01*
D02*
G37*
G36*
X41989Y71461D02*
X41894D01*
Y69394D01*
X43961D01*
Y69489D01*
X43586Y70394D01*
X42894Y71086D01*
X41989Y71461D01*
D02*
G37*
G36*
X41106D02*
X41011D01*
X40106Y71086D01*
X39414Y70394D01*
X39039Y69489D01*
Y69394D01*
X41106D01*
Y71461D01*
D02*
G37*
G36*
X106461Y71106D02*
X104394D01*
Y69039D01*
X104490D01*
X105394Y69414D01*
X106086Y70106D01*
X106461Y71011D01*
Y71106D01*
D02*
G37*
G36*
X103606D02*
X101539D01*
Y71011D01*
X101914Y70106D01*
X102606Y69414D01*
X103510Y69039D01*
X103606D01*
Y71106D01*
D02*
G37*
G36*
X143450Y73264D02*
X142550D01*
X141718Y72919D01*
X141081Y72282D01*
X140736Y71450D01*
Y70550D01*
X141081Y69718D01*
X141718Y69081D01*
X142550Y68736D01*
X143450D01*
X144282Y69081D01*
X144919Y69718D01*
X145264Y70550D01*
Y71450D01*
X144919Y72282D01*
X144282Y72919D01*
X143450Y73264D01*
D02*
G37*
G36*
X134950D02*
X134050D01*
X133218Y72919D01*
X132581Y72282D01*
X132236Y71450D01*
Y70550D01*
X132581Y69718D01*
X133218Y69081D01*
X134050Y68736D01*
X134950D01*
X135782Y69081D01*
X136419Y69718D01*
X136764Y70550D01*
Y71450D01*
X136419Y72282D01*
X135782Y72919D01*
X134950Y73264D01*
D02*
G37*
G36*
X153961Y70606D02*
X151894D01*
Y68539D01*
X151989D01*
X152894Y68914D01*
X153586Y69606D01*
X153961Y70511D01*
Y70606D01*
D02*
G37*
G36*
X151106D02*
X149039D01*
Y70511D01*
X149414Y69606D01*
X150106Y68914D01*
X151011Y68539D01*
X151106D01*
Y70606D01*
D02*
G37*
G36*
X68950Y71764D02*
X68050D01*
X67218Y71419D01*
X66581Y70782D01*
X66236Y69950D01*
Y69050D01*
X66581Y68218D01*
X67218Y67581D01*
X68050Y67236D01*
X68950D01*
X69782Y67581D01*
X70419Y68218D01*
X70764Y69050D01*
Y69950D01*
X70419Y70782D01*
X69782Y71419D01*
X68950Y71764D01*
D02*
G37*
G36*
X76461Y69106D02*
X74394D01*
Y67039D01*
X74489D01*
X75394Y67414D01*
X76086Y68106D01*
X76461Y69011D01*
Y69106D01*
D02*
G37*
G36*
X73606D02*
X71539D01*
Y69011D01*
X71914Y68106D01*
X72606Y67414D01*
X73511Y67039D01*
X73606D01*
Y69106D01*
D02*
G37*
G36*
X36461D02*
X34394D01*
Y67039D01*
X34489D01*
X35394Y67414D01*
X36086Y68106D01*
X36461Y69011D01*
Y69106D01*
D02*
G37*
G36*
X33606D02*
X31539D01*
Y69011D01*
X31914Y68106D01*
X32606Y67414D01*
X33511Y67039D01*
X33606D01*
Y69106D01*
D02*
G37*
G36*
X43961Y68606D02*
X41894D01*
Y66539D01*
X41989D01*
X42894Y66914D01*
X43586Y67606D01*
X43961Y68511D01*
Y68606D01*
D02*
G37*
G36*
X41106D02*
X39039D01*
Y68511D01*
X39414Y67606D01*
X40106Y66914D01*
X41011Y66539D01*
X41106D01*
Y68606D01*
D02*
G37*
G36*
X186950Y134264D02*
X186050D01*
X185218Y133919D01*
X184581Y133282D01*
X184236Y132450D01*
Y131550D01*
X184581Y130718D01*
X185218Y130081D01*
X186050Y129736D01*
X186950D01*
X187372Y129911D01*
X244642Y72642D01*
X244642Y72642D01*
X245036Y72378D01*
X245500Y72286D01*
X257178D01*
X259789Y69675D01*
X259769Y69639D01*
X259547Y68813D01*
Y67958D01*
X259769Y67132D01*
X260196Y66391D01*
X260801Y65787D01*
X261542Y65359D01*
X262368Y65138D01*
X263223D01*
X264049Y65359D01*
X264790Y65787D01*
X265394Y66391D01*
X265822Y67132D01*
X266043Y67958D01*
Y68813D01*
X265822Y69639D01*
X265394Y70380D01*
X264790Y70985D01*
X264049Y71412D01*
X263223Y71634D01*
X262368D01*
X261542Y71412D01*
X261506Y71392D01*
X258539Y74358D01*
X258146Y74621D01*
X257681Y74714D01*
X257681Y74714D01*
X253573D01*
X253507Y75214D01*
X254049Y75359D01*
X254790Y75787D01*
X255394Y76392D01*
X255822Y77132D01*
X256043Y77958D01*
Y78813D01*
X255822Y79640D01*
X255394Y80380D01*
X254790Y80985D01*
X254049Y81413D01*
X253223Y81634D01*
X252368D01*
X251542Y81413D01*
X250801Y80985D01*
X250196Y80380D01*
X249769Y79640D01*
X249547Y78813D01*
Y77958D01*
X249769Y77132D01*
X250196Y76392D01*
X250801Y75787D01*
X251542Y75359D01*
X252084Y75214D01*
X252018Y74714D01*
X246003D01*
X188764Y131953D01*
Y132450D01*
X188419Y133282D01*
X187782Y133919D01*
X186950Y134264D01*
D02*
G37*
G36*
X253223Y71634D02*
X252368D01*
X251542Y71412D01*
X250801Y70985D01*
X250196Y70380D01*
X249769Y69639D01*
X249547Y68813D01*
Y67958D01*
X249769Y67132D01*
X250196Y66391D01*
X250801Y65787D01*
X251542Y65359D01*
X252368Y65138D01*
X253223D01*
X254049Y65359D01*
X254790Y65787D01*
X255394Y66391D01*
X255822Y67132D01*
X256043Y67958D01*
Y68813D01*
X255822Y69639D01*
X255394Y70380D01*
X254790Y70985D01*
X254049Y71412D01*
X253223Y71634D01*
D02*
G37*
G36*
X13223D02*
X12368D01*
X11542Y71412D01*
X10801Y70985D01*
X10196Y70380D01*
X9769Y69639D01*
X9547Y68813D01*
Y67958D01*
X9769Y67132D01*
X10196Y66391D01*
X10801Y65787D01*
X11542Y65359D01*
X12368Y65138D01*
X13223D01*
X14049Y65359D01*
X14790Y65787D01*
X15394Y66391D01*
X15822Y67132D01*
X16043Y67958D01*
Y68813D01*
X15822Y69639D01*
X15394Y70380D01*
X14790Y70985D01*
X14049Y71412D01*
X13223Y71634D01*
D02*
G37*
G36*
X220489Y60461D02*
X220394D01*
Y58394D01*
X222461D01*
Y58489D01*
X222086Y59394D01*
X221394Y60086D01*
X220489Y60461D01*
D02*
G37*
G36*
X219606D02*
X219511D01*
X218606Y60086D01*
X217914Y59394D01*
X217539Y58489D01*
Y58394D01*
X219606D01*
Y60461D01*
D02*
G37*
G36*
X222461Y57606D02*
X220394D01*
Y55539D01*
X220489D01*
X221394Y55914D01*
X222086Y56606D01*
X222461Y57511D01*
Y57606D01*
D02*
G37*
G36*
X219606D02*
X217539D01*
Y57511D01*
X217914Y56606D01*
X218606Y55914D01*
X219511Y55539D01*
X219606D01*
Y57606D01*
D02*
G37*
G36*
X263223Y61634D02*
X262368D01*
X261542Y61413D01*
X260801Y60985D01*
X260196Y60380D01*
X259769Y59640D01*
X259547Y58813D01*
Y57958D01*
X259769Y57132D01*
X260196Y56392D01*
X260801Y55787D01*
X261542Y55359D01*
X262368Y55138D01*
X263223D01*
X264049Y55359D01*
X264790Y55787D01*
X265394Y56392D01*
X265822Y57132D01*
X266043Y57958D01*
Y58813D01*
X265822Y59640D01*
X265394Y60380D01*
X264790Y60985D01*
X264049Y61413D01*
X263223Y61634D01*
D02*
G37*
G36*
X253223D02*
X252368D01*
X251542Y61413D01*
X250801Y60985D01*
X250196Y60380D01*
X249769Y59640D01*
X249547Y58813D01*
Y57958D01*
X249769Y57132D01*
X250196Y56392D01*
X250801Y55787D01*
X251542Y55359D01*
X252368Y55138D01*
X253223D01*
X254049Y55359D01*
X254790Y55787D01*
X255394Y56392D01*
X255822Y57132D01*
X256043Y57958D01*
Y58813D01*
X255822Y59640D01*
X255394Y60380D01*
X254790Y60985D01*
X254049Y61413D01*
X253223Y61634D01*
D02*
G37*
G36*
X13223D02*
X12368D01*
X11542Y61413D01*
X10801Y60985D01*
X10196Y60380D01*
X9769Y59640D01*
X9547Y58813D01*
Y57958D01*
X9769Y57132D01*
X10196Y56392D01*
X10801Y55787D01*
X11542Y55359D01*
X12368Y55138D01*
X13223D01*
X14049Y55359D01*
X14790Y55787D01*
X15394Y56392D01*
X15822Y57132D01*
X16043Y57958D01*
Y58813D01*
X15822Y59640D01*
X15394Y60380D01*
X14790Y60985D01*
X14049Y61413D01*
X13223Y61634D01*
D02*
G37*
G36*
X134450Y144264D02*
X133550D01*
X132718Y143919D01*
X132081Y143282D01*
X131736Y142450D01*
Y141550D01*
X132081Y140718D01*
X132718Y140081D01*
X133550Y139736D01*
X134450D01*
X135282Y140081D01*
X135919Y140718D01*
X135948Y140786D01*
X140997D01*
X176786Y104997D01*
Y79500D01*
X176786Y79500D01*
X176878Y79036D01*
X177142Y78642D01*
X203265Y52519D01*
X203236Y52450D01*
Y51550D01*
X203581Y50718D01*
X204218Y50081D01*
X205050Y49736D01*
X205950D01*
X206782Y50081D01*
X207419Y50718D01*
X207764Y51550D01*
Y52450D01*
X207419Y53282D01*
X206782Y53919D01*
X205950Y54264D01*
X205050D01*
X204981Y54235D01*
X179214Y80003D01*
Y105500D01*
X179214Y105500D01*
X179121Y105965D01*
X178858Y106358D01*
X178858Y106358D01*
X142358Y142858D01*
X141964Y143122D01*
X141500Y143214D01*
X141500Y143214D01*
X135948D01*
X135919Y143282D01*
X135282Y143919D01*
X134450Y144264D01*
D02*
G37*
G36*
X242489Y50961D02*
X242394D01*
Y48894D01*
X244461D01*
Y48989D01*
X244086Y49894D01*
X243394Y50586D01*
X242489Y50961D01*
D02*
G37*
G36*
X241606D02*
X241511D01*
X240606Y50586D01*
X239914Y49894D01*
X239539Y48989D01*
Y48894D01*
X241606D01*
Y50961D01*
D02*
G37*
G36*
X235489D02*
X235394D01*
Y48894D01*
X237461D01*
Y48989D01*
X237086Y49894D01*
X236394Y50586D01*
X235489Y50961D01*
D02*
G37*
G36*
X234606D02*
X234511D01*
X233606Y50586D01*
X232914Y49894D01*
X232539Y48989D01*
Y48894D01*
X234606D01*
Y50961D01*
D02*
G37*
G36*
X80450Y51264D02*
X79550D01*
X78718Y50919D01*
X78081Y50282D01*
X77736Y49450D01*
Y48550D01*
X78081Y47718D01*
X78718Y47081D01*
X79550Y46736D01*
X80450D01*
X81282Y47081D01*
X81919Y47718D01*
X82264Y48550D01*
Y49450D01*
X81919Y50282D01*
X81282Y50919D01*
X80450Y51264D01*
D02*
G37*
G36*
X244461Y48106D02*
X242394D01*
Y46039D01*
X242489D01*
X243394Y46414D01*
X244086Y47106D01*
X244461Y48011D01*
Y48106D01*
D02*
G37*
G36*
X241606D02*
X239539D01*
Y48011D01*
X239914Y47106D01*
X240606Y46414D01*
X241511Y46039D01*
X241606D01*
Y48106D01*
D02*
G37*
G36*
X237461D02*
X235394D01*
Y46039D01*
X235489D01*
X236394Y46414D01*
X237086Y47106D01*
X237461Y48011D01*
Y48106D01*
D02*
G37*
G36*
X234606D02*
X232539D01*
Y48011D01*
X232914Y47106D01*
X233606Y46414D01*
X234511Y46039D01*
X234606D01*
Y48106D01*
D02*
G37*
G36*
X121950Y87264D02*
X121050D01*
X120218Y86919D01*
X119581Y86282D01*
X119236Y85450D01*
Y84550D01*
X119581Y83718D01*
X120218Y83081D01*
X120286Y83052D01*
Y58003D01*
X108040Y45757D01*
X98460D01*
X96214Y48003D01*
Y49553D01*
X96282Y49581D01*
X96919Y50218D01*
X97264Y51050D01*
Y51950D01*
X96919Y52782D01*
X96282Y53419D01*
X95450Y53764D01*
X94550D01*
X93718Y53419D01*
X93081Y52782D01*
X92736Y51950D01*
Y51050D01*
X93081Y50218D01*
X93718Y49581D01*
X93786Y49553D01*
Y47500D01*
X93786Y47500D01*
X93879Y47036D01*
X94142Y46642D01*
X97099Y43685D01*
X97099Y43685D01*
X97493Y43421D01*
X97957Y43329D01*
X108543D01*
X108543Y43329D01*
X109007Y43421D01*
X109401Y43685D01*
X122358Y56642D01*
X122358Y56642D01*
X122622Y57035D01*
X122714Y57500D01*
X122714Y57500D01*
Y83052D01*
X122782Y83081D01*
X123419Y83718D01*
X123764Y84550D01*
Y85450D01*
X123419Y86282D01*
X122782Y86919D01*
X121950Y87264D01*
D02*
G37*
G36*
X263223Y51634D02*
X262368D01*
X261542Y51412D01*
X260801Y50985D01*
X260196Y50380D01*
X259769Y49639D01*
X259547Y48813D01*
Y47958D01*
X259769Y47132D01*
X260196Y46391D01*
X260801Y45787D01*
X261542Y45359D01*
X262368Y45138D01*
X263223D01*
X264049Y45359D01*
X264790Y45787D01*
X265394Y46391D01*
X265822Y47132D01*
X266043Y47958D01*
Y48813D01*
X265822Y49639D01*
X265394Y50380D01*
X264790Y50985D01*
X264049Y51412D01*
X263223Y51634D01*
D02*
G37*
G36*
X253223D02*
X252368D01*
X251542Y51412D01*
X250801Y50985D01*
X250196Y50380D01*
X249769Y49639D01*
X249547Y48813D01*
Y47958D01*
X249769Y47132D01*
X250196Y46391D01*
X250801Y45787D01*
X251542Y45359D01*
X252368Y45138D01*
X253223D01*
X254049Y45359D01*
X254790Y45787D01*
X255394Y46391D01*
X255822Y47132D01*
X256043Y47958D01*
Y48813D01*
X255822Y49639D01*
X255394Y50380D01*
X254790Y50985D01*
X254049Y51412D01*
X253223Y51634D01*
D02*
G37*
G36*
X23223D02*
X22368D01*
X21542Y51412D01*
X20801Y50985D01*
X20196Y50380D01*
X19769Y49639D01*
X19547Y48813D01*
Y47958D01*
X19769Y47132D01*
X20196Y46391D01*
X20801Y45787D01*
X21542Y45359D01*
X22368Y45138D01*
X23223D01*
X24049Y45359D01*
X24790Y45787D01*
X25394Y46391D01*
X25822Y47132D01*
X26043Y47958D01*
Y48813D01*
X25822Y49639D01*
X25394Y50380D01*
X24790Y50985D01*
X24049Y51412D01*
X23223Y51634D01*
D02*
G37*
G36*
X13223D02*
X12368D01*
X11542Y51412D01*
X10801Y50985D01*
X10196Y50380D01*
X9769Y49639D01*
X9547Y48813D01*
Y47958D01*
X9769Y47132D01*
X10196Y46391D01*
X10801Y45787D01*
X11542Y45359D01*
X12368Y45138D01*
X13223D01*
X14049Y45359D01*
X14790Y45787D01*
X15394Y46391D01*
X15822Y47132D01*
X16043Y47958D01*
Y48813D01*
X15822Y49639D01*
X15394Y50380D01*
X14790Y50985D01*
X14049Y51412D01*
X13223Y51634D01*
D02*
G37*
G36*
X173841Y51673D02*
X173189D01*
Y38780D01*
X186083D01*
Y39432D01*
X185756Y41497D01*
X185109Y43486D01*
X184160Y45350D01*
X182930Y47042D01*
X181451Y48521D01*
X179759Y49750D01*
X177896Y50700D01*
X175907Y51346D01*
X173841Y51673D01*
D02*
G37*
G36*
X172402D02*
X171749D01*
X169684Y51346D01*
X167695Y50700D01*
X165831Y49750D01*
X164139Y48521D01*
X162660Y47042D01*
X161431Y45350D01*
X160481Y43486D01*
X159835Y41497D01*
X159508Y39432D01*
Y38780D01*
X172402D01*
Y51673D01*
D02*
G37*
G36*
X65489Y39461D02*
X65394D01*
Y37394D01*
X67461D01*
Y37489D01*
X67086Y38394D01*
X66394Y39086D01*
X65489Y39461D01*
D02*
G37*
G36*
X64606D02*
X64511D01*
X63606Y39086D01*
X62914Y38394D01*
X62539Y37489D01*
Y37394D01*
X64606D01*
Y39461D01*
D02*
G37*
G36*
X67461Y36606D02*
X65394D01*
Y34539D01*
X65489D01*
X66394Y34914D01*
X67086Y35606D01*
X67461Y36511D01*
Y36606D01*
D02*
G37*
G36*
X64606D02*
X62539D01*
Y36511D01*
X62914Y35606D01*
X63606Y34914D01*
X64511Y34539D01*
X64606D01*
Y36606D01*
D02*
G37*
G36*
X186083Y37992D02*
X173189D01*
Y25098D01*
X173841D01*
X175907Y25426D01*
X177896Y26072D01*
X179759Y27021D01*
X181451Y28251D01*
X182930Y29730D01*
X184160Y31422D01*
X185109Y33285D01*
X185756Y35274D01*
X186083Y37340D01*
Y37992D01*
D02*
G37*
G36*
X172402D02*
X159508D01*
Y37340D01*
X159835Y35274D01*
X160481Y33285D01*
X161431Y31422D01*
X162660Y29730D01*
X164139Y28251D01*
X165831Y27021D01*
X167695Y26072D01*
X169684Y25426D01*
X171749Y25098D01*
X172402D01*
Y37992D01*
D02*
G37*
G36*
X90450Y24764D02*
X89550D01*
X88718Y24419D01*
X88081Y23782D01*
X87736Y22950D01*
Y22050D01*
X88081Y21218D01*
X88718Y20581D01*
X89550Y20236D01*
X90450D01*
X91282Y20581D01*
X91919Y21218D01*
X92264Y22050D01*
Y22950D01*
X91919Y23782D01*
X91282Y24419D01*
X90450Y24764D01*
D02*
G37*
G36*
X256951Y32972D02*
X256299D01*
Y20079D01*
X269193D01*
Y20731D01*
X268866Y22796D01*
X268219Y24786D01*
X267270Y26649D01*
X266041Y28341D01*
X264562Y29820D01*
X262870Y31049D01*
X261006Y31999D01*
X259017Y32645D01*
X256951Y32972D01*
D02*
G37*
G36*
X255512D02*
X254860D01*
X252794Y32645D01*
X250805Y31999D01*
X248941Y31049D01*
X247249Y29820D01*
X245770Y28341D01*
X244541Y26649D01*
X243592Y24786D01*
X242945Y22796D01*
X242618Y20731D01*
Y20079D01*
X255512D01*
Y32972D01*
D02*
G37*
G36*
X20731D02*
X20079D01*
Y20079D01*
X32972D01*
Y20731D01*
X32645Y22796D01*
X31999Y24786D01*
X31049Y26649D01*
X29820Y28341D01*
X28341Y29820D01*
X26649Y31049D01*
X24786Y31999D01*
X22796Y32645D01*
X20731Y32972D01*
D02*
G37*
G36*
X19291D02*
X18639D01*
X16574Y32645D01*
X14584Y31999D01*
X12721Y31049D01*
X11029Y29820D01*
X9550Y28341D01*
X8321Y26649D01*
X7371Y24786D01*
X6725Y22796D01*
X6398Y20731D01*
Y20079D01*
X19291D01*
Y32972D01*
D02*
G37*
G36*
X146490Y20461D02*
X146394D01*
Y18394D01*
X148461D01*
Y18489D01*
X148086Y19394D01*
X147394Y20086D01*
X146490Y20461D01*
D02*
G37*
G36*
X145606D02*
X145510D01*
X144606Y20086D01*
X143914Y19394D01*
X143539Y18489D01*
Y18394D01*
X145606D01*
Y20461D01*
D02*
G37*
G36*
X148461Y17606D02*
X146394D01*
Y15539D01*
X146490D01*
X147394Y15914D01*
X148086Y16606D01*
X148461Y17511D01*
Y17606D01*
D02*
G37*
G36*
X145606D02*
X143539D01*
Y17511D01*
X143914Y16606D01*
X144606Y15914D01*
X145510Y15539D01*
X145606D01*
Y17606D01*
D02*
G37*
G36*
X90450Y17764D02*
X89550D01*
X88718Y17419D01*
X88081Y16782D01*
X87736Y15950D01*
Y15050D01*
X88081Y14218D01*
X88718Y13581D01*
X89550Y13236D01*
X90450D01*
X91282Y13581D01*
X91919Y14218D01*
X92264Y15050D01*
Y15950D01*
X91919Y16782D01*
X91282Y17419D01*
X90450Y17764D01*
D02*
G37*
G36*
X269193Y19291D02*
X256299D01*
Y6398D01*
X256951D01*
X259017Y6725D01*
X261006Y7371D01*
X262870Y8321D01*
X264562Y9550D01*
X266041Y11029D01*
X267270Y12721D01*
X268219Y14584D01*
X268866Y16574D01*
X269193Y18639D01*
Y19291D01*
D02*
G37*
G36*
X255512D02*
X242618D01*
Y18639D01*
X242945Y16574D01*
X243592Y14584D01*
X244541Y12721D01*
X245770Y11029D01*
X247249Y9550D01*
X248941Y8321D01*
X250805Y7371D01*
X252794Y6725D01*
X254860Y6398D01*
X255512D01*
Y19291D01*
D02*
G37*
G36*
X32972D02*
X20079D01*
Y6398D01*
X20731D01*
X22796Y6725D01*
X24786Y7371D01*
X26649Y8321D01*
X28341Y9550D01*
X29820Y11029D01*
X31049Y12721D01*
X31999Y14584D01*
X32645Y16574D01*
X32972Y18639D01*
Y19291D01*
D02*
G37*
G36*
X19291D02*
X6398D01*
Y18639D01*
X6725Y16574D01*
X7371Y14584D01*
X8321Y12721D01*
X9550Y11029D01*
X11029Y9550D01*
X12721Y8321D01*
X14584Y7371D01*
X16574Y6725D01*
X18639Y6398D01*
X19291D01*
Y19291D01*
D02*
G37*
G36*
X90450Y10764D02*
X89550D01*
X88718Y10419D01*
X88081Y9782D01*
X87736Y8950D01*
Y8050D01*
X88081Y7218D01*
X88718Y6581D01*
X89550Y6236D01*
X90450D01*
X91282Y6581D01*
X91919Y7218D01*
X92264Y8050D01*
Y8950D01*
X91919Y9782D01*
X91282Y10419D01*
X90450Y10764D01*
D02*
G37*
G36*
X23223Y61634D02*
X22368D01*
X21542Y61413D01*
X20801Y60985D01*
X20196Y60380D01*
X19769Y59640D01*
X19547Y58813D01*
Y57958D01*
X19769Y57132D01*
X20196Y56392D01*
X20801Y55787D01*
X21542Y55359D01*
X22368Y55138D01*
X23223D01*
X24049Y55359D01*
X24085Y55380D01*
X44286Y35178D01*
Y23593D01*
X44286Y23593D01*
X44379Y23129D01*
X44642Y22735D01*
X58736Y8640D01*
Y8050D01*
X59081Y7218D01*
X59718Y6581D01*
X60550Y6236D01*
X61450D01*
X62282Y6581D01*
X62919Y7218D01*
X63264Y8050D01*
Y8950D01*
X62919Y9782D01*
X62282Y10419D01*
X61450Y10764D01*
X60550D01*
X60193Y10616D01*
X46714Y24096D01*
Y35681D01*
X46622Y36146D01*
X46358Y36539D01*
X46358Y36540D01*
X25801Y57096D01*
X25822Y57132D01*
X26043Y57958D01*
Y58813D01*
X25822Y59640D01*
X25394Y60380D01*
X24790Y60985D01*
X24049Y61413D01*
X23223Y61634D01*
D02*
G37*
%LPD*%
G36*
X42642Y365642D02*
X49786Y358497D01*
Y285000D01*
X49786Y285000D01*
X49878Y284536D01*
X50142Y284142D01*
X77142Y257142D01*
X77535Y256878D01*
X78000Y256786D01*
X78000Y256786D01*
X115367D01*
X115628Y256286D01*
X115578Y256214D01*
X77003D01*
X49214Y284003D01*
Y355735D01*
X49214Y355735D01*
X49121Y356200D01*
X48858Y356594D01*
X41603Y363849D01*
X41724Y364058D01*
X41980Y365012D01*
Y365732D01*
X42480Y365884D01*
X42642Y365642D01*
D02*
G37*
G36*
X76500Y253786D02*
X76500Y253786D01*
X106675D01*
X106775Y253286D01*
X106218Y253055D01*
X105876Y252714D01*
X76503D01*
X75746Y253470D01*
X76035Y253878D01*
X76500Y253786D01*
D02*
G37*
%LPC*%
G36*
X233841Y251673D02*
X233189D01*
Y238779D01*
X246083D01*
Y239432D01*
X245756Y241497D01*
X245109Y243486D01*
X244160Y245350D01*
X242930Y247042D01*
X241451Y248521D01*
X239759Y249750D01*
X237896Y250700D01*
X235907Y251346D01*
X233841Y251673D01*
D02*
G37*
G36*
X232402D02*
X231750D01*
X229684Y251346D01*
X227695Y250700D01*
X225831Y249750D01*
X224139Y248521D01*
X222660Y247042D01*
X221431Y245350D01*
X220481Y243486D01*
X219835Y241497D01*
X219508Y239432D01*
Y238779D01*
X232402D01*
Y251673D01*
D02*
G37*
%LPD*%
D53*
X200307Y395614D02*
D03*
X19685Y393701D02*
D03*
X255906D02*
D03*
X76807Y193425D02*
D03*
X232795Y238386D02*
D03*
X42795Y243386D02*
D03*
X172795Y38386D02*
D03*
X255906Y570866D02*
D03*
X19685D02*
D03*
Y19685D02*
D03*
X255906D02*
D03*
D54*
X85785Y362000D02*
D03*
X75942D02*
D03*
X66100D02*
D03*
D55*
X254478Y275700D02*
D03*
X21222Y506500D02*
D03*
Y466500D02*
D03*
X254478D02*
D03*
Y506500D02*
D03*
X98194Y569308D02*
D03*
X178200Y569300D02*
D03*
X254478Y315700D02*
D03*
Y426400D02*
D03*
X21222Y359600D02*
D03*
Y319600D02*
D03*
Y279600D02*
D03*
Y426400D02*
D03*
X138200Y569300D02*
D03*
X254478Y355700D02*
D03*
D56*
X237470Y269795D02*
D03*
X38230Y512405D02*
D03*
Y472405D02*
D03*
X237470Y460595D02*
D03*
Y500595D02*
D03*
X104100Y552300D02*
D03*
X184106Y552292D02*
D03*
X237470Y309794D02*
D03*
Y420495D02*
D03*
X38230Y365506D02*
D03*
Y325505D02*
D03*
Y285506D02*
D03*
Y432305D02*
D03*
X144106Y552292D02*
D03*
X237470Y349795D02*
D03*
D57*
Y281606D02*
D03*
X38230Y500595D02*
D03*
Y460595D02*
D03*
X237470Y472405D02*
D03*
Y512405D02*
D03*
Y321605D02*
D03*
Y432305D02*
D03*
X38230Y353695D02*
D03*
Y313695D02*
D03*
Y273694D02*
D03*
Y420495D02*
D03*
X237470Y361606D02*
D03*
D58*
X92289Y552300D02*
D03*
X172294Y552292D02*
D03*
X132294D02*
D03*
D59*
X63307Y126425D02*
D03*
X73307D02*
D03*
X83307D02*
D03*
X93307D02*
D03*
X103307D02*
D03*
X63307Y116425D02*
D03*
X73307D02*
D03*
X83307D02*
D03*
X93307D02*
D03*
D60*
X103307D02*
D03*
D61*
X12795Y228386D02*
D03*
X252795D02*
D03*
D62*
X22795D02*
D03*
X12795Y218386D02*
D03*
X22795D02*
D03*
X12795Y208386D02*
D03*
X22795D02*
D03*
X12795Y198386D02*
D03*
X22795D02*
D03*
X12795Y188386D02*
D03*
X22795D02*
D03*
X12795Y178386D02*
D03*
X22795D02*
D03*
X12795Y168386D02*
D03*
X22795D02*
D03*
X12795Y158386D02*
D03*
X22795D02*
D03*
X12795Y148386D02*
D03*
X22795D02*
D03*
X12795Y138386D02*
D03*
X22795D02*
D03*
X12795Y128386D02*
D03*
X22795D02*
D03*
X12795Y118386D02*
D03*
X22795D02*
D03*
X12795Y108386D02*
D03*
X22795D02*
D03*
X12795Y98386D02*
D03*
X22795D02*
D03*
X12795Y88386D02*
D03*
X22795D02*
D03*
X12795Y78386D02*
D03*
X22795D02*
D03*
X12795Y68386D02*
D03*
X22795D02*
D03*
X12795Y58386D02*
D03*
X22795D02*
D03*
X12795Y48386D02*
D03*
X22795D02*
D03*
X262795Y228386D02*
D03*
X252795Y218386D02*
D03*
X262795D02*
D03*
X252795Y208386D02*
D03*
X262795D02*
D03*
X252795Y198386D02*
D03*
X262795D02*
D03*
X252795Y188386D02*
D03*
X262795D02*
D03*
X252795Y178386D02*
D03*
X262795D02*
D03*
X252795Y168386D02*
D03*
X262795D02*
D03*
X252795Y158386D02*
D03*
X262795D02*
D03*
X252795Y148386D02*
D03*
X262795D02*
D03*
X252795Y138386D02*
D03*
X262795D02*
D03*
X252795Y128386D02*
D03*
X262795D02*
D03*
X252795Y118386D02*
D03*
X262795D02*
D03*
X252795Y108386D02*
D03*
X262795D02*
D03*
X252795Y98386D02*
D03*
X262795D02*
D03*
X252795Y88386D02*
D03*
X262795D02*
D03*
X252795Y78386D02*
D03*
X262795D02*
D03*
X252795Y68386D02*
D03*
X262795D02*
D03*
X252795Y58386D02*
D03*
X262795D02*
D03*
X252795Y48386D02*
D03*
X262795D02*
D03*
D63*
X133500Y436500D02*
D03*
X135500Y447000D02*
D03*
Y461000D02*
D03*
X139500Y494500D02*
D03*
X149500Y410000D02*
D03*
X151000Y395500D02*
D03*
X144500Y434500D02*
D03*
X95830Y164045D02*
D03*
X44000Y202000D02*
D03*
X47606Y391500D02*
D03*
X51623Y389106D02*
D03*
X100500Y137000D02*
D03*
X113500Y130500D02*
D03*
X76500Y94500D02*
D03*
X237500Y211000D02*
D03*
Y215685D02*
D03*
Y221000D02*
D03*
X189894Y521000D02*
D03*
X210312Y419653D02*
D03*
X219500Y415000D02*
D03*
X214500Y410000D02*
D03*
X258000Y243000D02*
D03*
X120307Y395500D02*
D03*
X128000D02*
D03*
X158000Y406500D02*
D03*
X158975Y395475D02*
D03*
X177581Y312282D02*
D03*
X175749Y307293D02*
D03*
X164795Y309227D02*
D03*
X169000Y316000D02*
D03*
X82000Y310000D02*
D03*
X76500Y308000D02*
D03*
X78500Y263000D02*
D03*
X94500Y247500D02*
D03*
X117500Y254500D02*
D03*
X117230Y249192D02*
D03*
X186589Y172589D02*
D03*
X185500Y167000D02*
D03*
X195500Y91500D02*
D03*
X155500Y104500D02*
D03*
X154500Y116000D02*
D03*
X181000Y223000D02*
D03*
X86000Y371500D02*
D03*
X93000Y330500D02*
D03*
X94500Y297500D02*
D03*
X70000Y296500D02*
D03*
X57500Y407500D02*
D03*
X12500Y437500D02*
D03*
Y456000D02*
D03*
X126000Y412500D02*
D03*
X152500Y417000D02*
D03*
X212500Y300000D02*
D03*
X200000Y341000D02*
D03*
X236500Y162500D02*
D03*
Y173500D02*
D03*
Y184500D02*
D03*
X220500Y117500D02*
D03*
X220000Y58000D02*
D03*
X169500Y72500D02*
D03*
X146000Y18000D02*
D03*
X65000Y37000D02*
D03*
X68500Y86000D02*
D03*
X160500Y140500D02*
D03*
X50000Y153000D02*
D03*
X80491Y239388D02*
D03*
X34500Y382000D02*
D03*
X200000Y373500D02*
D03*
X254500Y370500D02*
D03*
X241000Y526000D02*
D03*
X218500Y509500D02*
D03*
X52500Y522500D02*
D03*
X96000Y222500D02*
D03*
X95000Y51500D02*
D03*
X121500Y85000D02*
D03*
X152500Y269000D02*
D03*
X130500Y148000D02*
D03*
X134000Y142000D02*
D03*
X162500Y160000D02*
D03*
X205500Y52000D02*
D03*
X145337Y171604D02*
D03*
X151000Y168000D02*
D03*
X186500Y132000D02*
D03*
X186000Y157500D02*
D03*
X212500Y203000D02*
D03*
X235000Y74500D02*
D03*
X212000Y81500D02*
D03*
X52000Y108500D02*
D03*
X111500Y87500D02*
D03*
X134500Y71000D02*
D03*
X153000Y85500D02*
D03*
X129500Y104500D02*
D03*
X90000Y22500D02*
D03*
Y15500D02*
D03*
Y8500D02*
D03*
X57500Y120000D02*
D03*
Y107000D02*
D03*
X192500Y153000D02*
D03*
X242000Y48500D02*
D03*
X235000D02*
D03*
X183500Y82000D02*
D03*
X166500Y90500D02*
D03*
X166000Y98500D02*
D03*
X151500Y71000D02*
D03*
X143000D02*
D03*
X104000Y71500D02*
D03*
X68500Y69500D02*
D03*
X80000Y49000D02*
D03*
X194911Y427911D02*
D03*
X41500Y69000D02*
D03*
X34000Y69500D02*
D03*
X80086Y69530D02*
D03*
X74000Y69500D02*
D03*
X217500Y450500D02*
D03*
X230000Y533500D02*
D03*
X116000Y170500D02*
D03*
X62000Y222500D02*
D03*
X248000Y143000D02*
D03*
X101500Y211500D02*
D03*
X62000Y217000D02*
D03*
X83000Y145500D02*
D03*
X46000Y97500D02*
D03*
X72000Y145500D02*
D03*
X74500Y447000D02*
D03*
X69500Y456500D02*
D03*
X41000Y123000D02*
D03*
X52000Y125000D02*
D03*
X80100Y397900D02*
D03*
X35500Y122000D02*
D03*
X147500Y250000D02*
D03*
X137500D02*
D03*
X127500Y250500D02*
D03*
X157500Y250000D02*
D03*
X111000Y241500D02*
D03*
X172500Y269000D02*
D03*
X162500D02*
D03*
X142500D02*
D03*
X132500D02*
D03*
X122500D02*
D03*
X112500D02*
D03*
X102500D02*
D03*
X61000Y8500D02*
D03*
X78500Y271000D02*
D03*
X36500Y100500D02*
D03*
X94500Y282500D02*
D03*
X150284Y461500D02*
D03*
X147000Y494500D02*
D03*
X127500Y258000D02*
D03*
X107500Y251136D02*
D03*
X20500Y266000D02*
D03*
X137000Y298000D02*
D03*
X141368Y307500D02*
D03*
X172500Y373500D02*
D03*
X173000Y337500D02*
D03*
X178000Y355500D02*
D03*
X59500Y505500D02*
D03*
X217500Y492000D02*
D03*
X59500Y474500D02*
D03*
X123937Y311904D02*
D03*
X106200Y320700D02*
D03*
X124000Y395500D02*
D03*
X131626Y389000D02*
D03*
X215500Y418500D02*
D03*
X210000Y427500D02*
D03*
X167000Y333486D02*
D03*
X175000Y423500D02*
D03*
X178934Y437393D02*
D03*
X109137Y437704D02*
D03*
X105000Y422500D02*
D03*
X117837Y436996D02*
D03*
X163500Y362000D02*
D03*
X79500Y435500D02*
D03*
X176500Y194500D02*
D03*
X168000Y187500D02*
D03*
X163000Y222000D02*
D03*
X117500Y222500D02*
D03*
X170500Y205000D02*
D03*
X158000Y201000D02*
D03*
X209500Y455000D02*
D03*
X186000Y515000D02*
D03*
X171000D02*
D03*
X77000Y455500D02*
D03*
X145000Y447000D02*
D03*
X155000Y395500D02*
D03*
X147374Y389000D02*
D03*
X115952Y515000D02*
D03*
X88500Y521000D02*
D03*
X84000Y514500D02*
D03*
X92500Y521000D02*
D03*
X96500D02*
D03*
X206000Y447000D02*
D03*
X198000Y521000D02*
D03*
X211000Y538500D02*
D03*
X44000Y544500D02*
D03*
X203000D02*
D03*
X47500Y541500D02*
D03*
X194000Y521000D02*
D03*
X166500D02*
D03*
X162500D02*
D03*
X158500D02*
D03*
X128000D02*
D03*
X124000D02*
D03*
X120000D02*
D03*
D64*
X139535Y94135D02*
D03*
X143865D02*
D03*
Y98465D02*
D03*
X139535D02*
D03*
D65*
X183000Y311000D02*
Y376500D01*
X149500Y410000D02*
X183000Y376500D01*
X18181Y223000D02*
X56000D01*
X12795Y228386D02*
X18181Y223000D01*
X56000D02*
X62000Y217000D01*
X18454Y164045D02*
X95830D01*
X12795Y158386D02*
X18454Y164045D01*
X22795Y218386D02*
X27614D01*
X44000Y202000D01*
X57500Y208000D02*
X98000D01*
X32925Y183425D02*
X57500Y208000D01*
X11473Y183425D02*
X32925D01*
X271000Y106591D02*
Y277000D01*
X236791Y300710D02*
X247290D01*
X271000Y277000D01*
X273000Y98590D02*
Y279000D01*
X249500Y302500D02*
X273000Y279000D01*
X238000Y302500D02*
X249500D01*
X43500Y366500D02*
Y427035D01*
Y366500D02*
X51000Y359000D01*
X38230Y432305D02*
X43500Y427035D01*
X100500Y137000D02*
X107000Y130500D01*
X113500D01*
X76500Y94500D02*
X104500D01*
X111500Y87500D01*
X217227Y224273D02*
X253227D01*
X212500Y203000D02*
X230500Y221000D01*
X211000Y230500D02*
X217227Y224273D01*
X253227D02*
X258000Y219500D01*
X230500Y221000D02*
X237500D01*
X210400Y409100D02*
Y419565D01*
Y409100D02*
X218500Y401000D01*
X210312Y419653D02*
X210400Y419565D01*
X219500Y415000D02*
X226000Y408500D01*
Y314500D02*
Y408500D01*
X223500Y314000D02*
Y406000D01*
X215500Y414000D02*
Y418500D01*
Y414000D02*
X223500Y406000D01*
X215000Y410000D02*
X221000Y404000D01*
X214500Y410000D02*
X215000D01*
X186617Y313803D02*
Y429710D01*
Y313803D02*
X257419Y243000D01*
X184791Y311742D02*
X254586Y241946D01*
X183000Y311000D02*
X252795Y241205D01*
X254586Y239914D02*
Y241946D01*
X252795Y228386D02*
Y241205D01*
X184791Y311742D02*
Y379710D01*
X257419Y243000D02*
X258000D01*
X117837Y436415D02*
Y436996D01*
X117000Y435578D02*
X117837Y436415D01*
X117000Y352393D02*
Y435578D01*
Y352393D02*
X205000Y264393D01*
X158000Y406500D02*
X184791Y379710D01*
X177581Y312282D02*
X193927Y295936D01*
X168589Y309411D02*
X208000Y270000D01*
Y182849D02*
Y270000D01*
X168589Y309411D02*
Y315589D01*
X193927Y295936D02*
X195064D01*
X211000Y280000D01*
X205000Y178500D02*
Y264393D01*
X168589Y315589D02*
X169000Y316000D01*
X78000Y258000D02*
X127500D01*
X51000Y285000D02*
X78000Y258000D01*
X51000Y285000D02*
Y359000D01*
X76235Y247500D02*
X94500D01*
X38230Y285506D02*
X76235Y247500D01*
X76000Y251500D02*
X107136D01*
X45000Y282500D02*
X76000Y251500D01*
X107136D02*
X107500Y251136D01*
X116008Y254911D02*
X117089D01*
X117500Y254500D01*
X115919Y255000D02*
X116008Y254911D01*
X76500Y255000D02*
X115919D01*
X48000Y283500D02*
X76500Y255000D01*
X145337Y171604D02*
X185023D01*
X186009Y172589D02*
X186589D01*
X185023Y171604D02*
X186009Y172589D01*
X190273Y167227D02*
X249041Y108459D01*
X141368Y307500D02*
X190273Y258594D01*
Y167227D02*
Y258594D01*
X151581Y168000D02*
X152581Y167000D01*
X185500D01*
X151000Y168000D02*
X151581D01*
X269000Y114591D02*
Y275468D01*
X262795Y108386D02*
X269000Y114591D01*
X245968Y298500D02*
X269000Y275468D01*
X262795Y98386D02*
X271000Y106591D01*
X262795Y88386D02*
X273000Y98590D01*
X110500Y349500D02*
Y404500D01*
X79500Y435500D02*
X110500Y404500D01*
X95000Y47500D02*
Y51500D01*
Y47500D02*
X97957Y44543D01*
X108543D01*
X121500Y57500D01*
Y85000D01*
X130500Y147797D02*
Y148000D01*
X127203Y144500D02*
X130500Y147797D01*
X124000Y141297D02*
X127203Y144500D01*
X124000Y93500D02*
Y141297D01*
X127203Y144500D02*
X127203D01*
X134000Y142000D02*
X141500D01*
X90500Y153000D02*
X192500D01*
X83000Y145500D02*
X90500Y153000D01*
X178000Y79500D02*
Y105500D01*
X141500Y142000D02*
X178000Y105500D01*
X162500Y160000D02*
X165000Y157500D01*
X178000Y79500D02*
X205500Y52000D01*
X165000Y157500D02*
X186000D01*
X186500Y132000D02*
X187000D01*
X245500Y73500D01*
X257681D01*
X262795Y68386D01*
X57500Y107000D02*
Y120000D01*
X22795Y58386D02*
X45500Y35681D01*
Y23593D02*
Y35681D01*
Y23593D02*
X60593Y8500D01*
X61000D01*
X22795Y78386D02*
X108886D01*
X124000Y93500D01*
X76000Y73500D02*
X79970Y69530D01*
X22239Y73500D02*
X76000D01*
X17353Y78386D02*
X22239Y73500D01*
X79970Y69530D02*
X80086D01*
X12795Y78386D02*
X17353D01*
X211000Y230500D02*
Y280000D01*
X254586Y239914D02*
X262503Y231997D01*
Y228678D02*
X262795Y228386D01*
X262503Y228678D02*
Y231997D01*
X112500Y167000D02*
X116000Y170500D01*
X99000Y167000D02*
X112500D01*
X93000Y173000D02*
X99000Y167000D01*
X17410Y173000D02*
X93000D01*
X12795Y168386D02*
X17410Y173000D01*
X258000Y126549D02*
X259364Y127913D01*
X262322D02*
X262795Y128386D01*
X258000Y117000D02*
Y126549D01*
X259364Y127913D02*
X262322D01*
X98000Y208000D02*
X101500Y211500D01*
X22908Y228386D02*
X26004Y225290D01*
X59210D02*
X62000Y222500D01*
X26004Y225290D02*
X59210D01*
X22795Y228386D02*
X22908D01*
X208000Y182849D02*
X247849Y143000D01*
X248000D01*
X58000Y145500D02*
X72000D01*
X45500Y133000D02*
X58000Y145500D01*
X18500Y133000D02*
X45500D01*
X7795Y153386D02*
Y179747D01*
Y153386D02*
X12795Y148386D01*
X4500Y250500D02*
X20000Y266000D01*
X4500Y79500D02*
Y250500D01*
Y79500D02*
X10500Y73500D01*
X7795Y179747D02*
X11473Y183425D01*
X13886Y128386D02*
X18500Y133000D01*
X12795Y128386D02*
X13886D01*
X17681Y73500D02*
X22795Y68386D01*
X10500Y73500D02*
X17681D01*
X45000Y282500D02*
Y314927D01*
X48000Y283500D02*
Y355735D01*
X38230Y365506D02*
X48000Y355735D01*
X39209Y320718D02*
Y324526D01*
X38230Y325505D02*
X39209Y324526D01*
Y320718D02*
X45000Y314927D01*
X20000Y266000D02*
X20500D01*
X114500Y350532D02*
X201500Y263532D01*
X110500Y349500D02*
X197500Y262500D01*
Y172000D02*
Y262500D01*
X201500Y175000D02*
Y263532D01*
X114500Y350532D02*
Y406500D01*
X201500Y175000D02*
X248041Y128459D01*
X142596Y311904D02*
X194000Y260500D01*
X123937Y311904D02*
X142596D01*
X194000Y169500D02*
Y260500D01*
X178934Y437393D02*
X186617Y429710D01*
X245114Y138386D02*
X252795D01*
X205000Y178500D02*
X245114Y138386D01*
X248041Y128459D02*
X252722D01*
Y108459D02*
X252795Y108386D01*
X249041Y108459D02*
X252722D01*
X252008Y119173D02*
X252795Y118386D01*
X197500Y172000D02*
X250327Y119173D01*
X252008D01*
X194000Y169500D02*
X250000Y113500D01*
X254500D01*
X258000Y117000D01*
X252722Y128459D02*
X252795Y128386D01*
X258000Y213181D02*
X262795Y208386D01*
X258000Y213181D02*
Y219500D01*
X109137Y411863D02*
X114500Y406500D01*
X236000Y298500D02*
X245968D01*
X245000Y296000D02*
X266643Y274357D01*
Y161134D02*
Y274357D01*
X235000Y296000D02*
X245000D01*
X263895Y158386D02*
X266643Y161134D01*
X221000Y313500D02*
X236000Y298500D01*
X262795Y158386D02*
X263895D01*
X218500Y312500D02*
Y401000D01*
X221000Y313500D02*
Y404000D01*
X223500Y314000D02*
X236791Y300710D01*
X218500Y312500D02*
X235000Y296000D01*
X226000Y314500D02*
X238000Y302500D01*
X109137Y411863D02*
Y437704D01*
D66*
X85785Y355102D02*
Y362000D01*
X81400Y332345D02*
Y350717D01*
X85785Y355102D01*
X66100Y361400D02*
X76500Y351000D01*
X66100Y361400D02*
Y362000D01*
X82000Y310000D02*
Y331745D01*
X81400Y332345D02*
X82000Y331745D01*
X76500Y308000D02*
Y351000D01*
M02*
