G04*
G04 #@! TF.GenerationSoftware,Altium Limited,Altium Designer,23.7.1 (13)*
G04*
G04 Layer_Color=65535*
%FSLAX25Y25*%
%MOIN*%
G70*
G04*
G04 #@! TF.SameCoordinates,971C37BE-97D5-4A50-9DA2-DA4AE9E2F4D9*
G04*
G04*
G04 #@! TF.FilePolarity,Positive*
G04*
G01*
G75*
%ADD10C,0.00787*%
%ADD11C,0.00984*%
%ADD12C,0.01968*%
%ADD13C,0.00500*%
%ADD14C,0.01575*%
%ADD15C,0.01000*%
%ADD16C,0.01500*%
D10*
X53502Y362000D02*
G03*
X53895Y362000I197J0D01*
G01*
D02*
G03*
X53502Y362000I-197J0D01*
G01*
D02*
G03*
X53895Y362000I197J0D01*
G01*
X89156Y329146D02*
G03*
X89156Y329146I-394J0D01*
G01*
X237746Y297354D02*
G03*
X237746Y297354I-394J0D01*
G01*
X269748Y537606D02*
G03*
X269748Y538394I0J394D01*
G01*
D02*
G03*
X269748Y537606I0J-394D01*
G01*
X38742Y484846D02*
G03*
X38742Y484846I-394J0D01*
G01*
Y444846D02*
G03*
X38742Y444846I-394J0D01*
G01*
X5752Y538394D02*
G03*
X5752Y537606I0J-394D01*
G01*
D02*
G03*
X5752Y538394I0J394D01*
G01*
X237746Y488154D02*
G03*
X237746Y488154I-394J0D01*
G01*
Y528154D02*
G03*
X237746Y528154I-394J0D01*
G01*
X76935Y552182D02*
G03*
X76935Y552182I-394J0D01*
G01*
X156940Y552174D02*
G03*
X156940Y552174I-394J0D01*
G01*
X237746Y337353D02*
G03*
X237746Y337353I-394J0D01*
G01*
Y448054D02*
G03*
X237746Y448054I-394J0D01*
G01*
X38742Y337947D02*
G03*
X38742Y337947I-394J0D01*
G01*
Y297947D02*
G03*
X38742Y297947I-394J0D01*
G01*
Y257946D02*
G03*
X38742Y257946I-394J0D01*
G01*
Y404746D02*
G03*
X38742Y404746I-394J0D01*
G01*
X116940Y552174D02*
G03*
X116940Y552174I-394J0D01*
G01*
X237746Y377354D02*
G03*
X237746Y377354I-394J0D01*
G01*
X56454Y352748D02*
Y375386D01*
X95431D01*
Y352748D02*
Y375386D01*
X56454Y352748D02*
X95431D01*
X60154Y312055D02*
Y318945D01*
X66858Y312076D02*
Y318966D01*
X91646Y286504D02*
Y293984D01*
X97354Y286504D02*
Y293984D01*
X165260Y302846D02*
X172740D01*
X165260Y308554D02*
X172740D01*
X83902Y213595D02*
X84098D01*
X83902Y225406D02*
X84098D01*
X83902Y213595D02*
Y225406D01*
X84098Y213595D02*
Y225406D01*
X70989Y414035D02*
Y417579D01*
X44611Y414035D02*
X70989D01*
X44611D02*
Y417579D01*
X182043Y365236D02*
Y369764D01*
X174957Y365236D02*
Y369764D01*
X70043Y497236D02*
Y501764D01*
X62957Y497236D02*
Y501764D01*
X213957Y459236D02*
Y463764D01*
X221043Y459236D02*
Y463764D01*
X174957Y341043D02*
Y345571D01*
X182043Y341043D02*
Y345571D01*
X221043Y477736D02*
Y482264D01*
X213957Y477736D02*
Y482264D01*
X62957Y478236D02*
Y482764D01*
X70043Y478236D02*
Y482764D01*
X105620Y396174D02*
X173336D01*
Y333182D02*
Y396174D01*
X105620Y333182D02*
X173336D01*
X105620D02*
Y396174D01*
X144220Y521774D02*
X211936D01*
Y458782D02*
Y521774D01*
X144220Y458782D02*
X211936D01*
X144220D02*
Y521774D01*
X133235Y103485D02*
Y104765D01*
X134515D01*
X133235Y87835D02*
Y89115D01*
Y87835D02*
X134515D01*
X148885D02*
X150165D01*
Y89115D01*
Y103485D02*
Y104765D01*
X148885D02*
X150165D01*
X154760Y95546D02*
X162240D01*
X154760Y101254D02*
X162240D01*
X154354Y74860D02*
Y82340D01*
X148646Y74860D02*
Y82340D01*
X152653Y109754D02*
Y116446D01*
X146747Y109754D02*
Y116446D01*
X203560Y436154D02*
X211040D01*
X203560Y430446D02*
X211040D01*
X133560Y435354D02*
X141040D01*
X133560Y429646D02*
X141040D01*
X48711Y558535D02*
Y562079D01*
Y558535D02*
X75089D01*
Y562079D01*
X74220Y458782D02*
Y521774D01*
Y458782D02*
X141936D01*
Y521774D01*
X74220D02*
X141936D01*
X56212Y451539D02*
Y456461D01*
X45188Y451539D02*
Y456461D01*
X208411Y558535D02*
Y562079D01*
Y558535D02*
X234789D01*
Y562079D01*
X248095Y531622D02*
X259906D01*
X248095Y544378D02*
X259906D01*
X15595D02*
X27406D01*
X15595Y531622D02*
X27406D01*
X84505Y53536D02*
X87458D01*
X82537Y58457D02*
Y60623D01*
X84505Y65544D02*
X87458D01*
X95130Y64052D02*
Y73548D01*
X101870Y64052D02*
Y73548D01*
X67260Y66654D02*
X74740D01*
X67260Y60946D02*
X74740D01*
X190199Y94766D02*
Y103034D01*
X202601Y94766D02*
Y103034D01*
X165556Y226164D02*
Y233841D01*
X115103Y224786D02*
X165497D01*
X115103Y198014D02*
Y224786D01*
Y198014D02*
X165497D01*
Y224786D01*
X167946Y193660D02*
Y201140D01*
X173654Y193660D02*
Y201140D01*
X49146Y115909D02*
Y117091D01*
X54854Y115909D02*
Y117091D01*
X7795Y43386D02*
Y228386D01*
Y43386D02*
X27795D01*
Y233386D01*
X12795D02*
X27795D01*
X247795Y43386D02*
Y228386D01*
Y43386D02*
X267795D01*
Y233386D01*
X252795D02*
X267795D01*
D11*
X76500Y226500D02*
G03*
X76500Y226500I-492J0D01*
G01*
X45379Y405571D02*
G03*
X45379Y405571I-492J0D01*
G01*
X130578Y101221D02*
G03*
X130578Y101221I-492J0D01*
G01*
X49479Y550071D02*
G03*
X49479Y550071I-492J0D01*
G01*
X209179D02*
G03*
X209179Y550071I-492J0D01*
G01*
X96120Y55800D02*
G03*
X96120Y55800I-492J0D01*
G01*
X193053Y105298D02*
G03*
X193053Y105298I-492J0D01*
G01*
D12*
X105531Y326813D02*
G03*
X105531Y326813I-1087J0D01*
G01*
X144131Y452413D02*
G03*
X144131Y452413I-1087J0D01*
G01*
X74131D02*
G03*
X74131Y452413I-1087J0D01*
G01*
D13*
X68959Y304323D02*
Y319677D01*
X88841Y304323D02*
Y319677D01*
X233612Y286015D02*
Y294696D01*
Y256704D02*
Y265385D01*
Y294696D02*
X267076D01*
X272588Y289184D01*
Y262216D02*
Y289184D01*
X267076Y256704D02*
X272588Y262216D01*
X233612Y256704D02*
X267076D01*
X42088Y487504D02*
Y496185D01*
Y516815D02*
Y525496D01*
X8624Y487504D02*
X42088D01*
X3112Y493016D02*
X8624Y487504D01*
X3112Y493016D02*
Y519984D01*
X8624Y525496D01*
X42088D01*
Y447504D02*
Y456185D01*
Y476815D02*
Y485496D01*
X8624Y447504D02*
X42088D01*
X3112Y453016D02*
X8624Y447504D01*
X3112Y453016D02*
Y479984D01*
X8624Y485496D01*
X42088D01*
X233612Y476815D02*
Y485496D01*
Y447504D02*
Y456185D01*
Y485496D02*
X267076D01*
X272588Y479984D01*
Y453016D02*
Y479984D01*
X267076Y447504D02*
X272588Y453016D01*
X233612Y447504D02*
X267076D01*
X233612Y516815D02*
Y525496D01*
Y487504D02*
Y496185D01*
Y525496D02*
X267076D01*
X272588Y519984D01*
Y493016D02*
Y519984D01*
X267076Y487504D02*
X272588Y493016D01*
X233612Y487504D02*
X267076D01*
X79198Y548442D02*
X87880D01*
X108509D02*
X117191D01*
X79198D02*
Y581906D01*
X84710Y587418D01*
X111679D01*
X117191Y581906D01*
Y548442D02*
Y581906D01*
X159204Y548434D02*
X167885D01*
X188515D02*
X197196D01*
X159204D02*
Y581898D01*
X164716Y587410D01*
X191684D01*
X197196Y581898D01*
Y548434D02*
Y581898D01*
X233612Y326015D02*
Y334696D01*
Y296704D02*
Y305385D01*
Y334696D02*
X267076D01*
X272588Y329184D01*
Y302216D02*
Y329184D01*
X267076Y296704D02*
X272588Y302216D01*
X233612Y296704D02*
X267076D01*
X233612Y436715D02*
Y445396D01*
Y407404D02*
Y416085D01*
Y445396D02*
X267076D01*
X272588Y439884D01*
Y412916D02*
Y439884D01*
X267076Y407404D02*
X272588Y412916D01*
X233612Y407404D02*
X267076D01*
X42088Y340604D02*
Y349285D01*
Y369915D02*
Y378596D01*
X8624Y340604D02*
X42088D01*
X3112Y346116D02*
X8624Y340604D01*
X3112Y346116D02*
Y373084D01*
X8624Y378596D01*
X42088D01*
Y300604D02*
Y309285D01*
Y329915D02*
Y338596D01*
X8624Y300604D02*
X42088D01*
X3112Y306116D02*
X8624Y300604D01*
X3112Y306116D02*
Y333084D01*
X8624Y338596D01*
X42088D01*
Y260604D02*
Y269285D01*
Y289915D02*
Y298596D01*
X8624Y260604D02*
X42088D01*
X3112Y266116D02*
X8624Y260604D01*
X3112Y266116D02*
Y293084D01*
X8624Y298596D01*
X42088D01*
Y407404D02*
Y416085D01*
Y436715D02*
Y445396D01*
X8624Y407404D02*
X42088D01*
X3112Y412916D02*
X8624Y407404D01*
X3112Y412916D02*
Y439884D01*
X8624Y445396D01*
X42088D01*
X119204Y548434D02*
X127885D01*
X148515D02*
X157196D01*
X119204D02*
Y581898D01*
X124716Y587410D01*
X151684D01*
X157196Y581898D01*
Y548434D02*
Y581898D01*
X233612Y366015D02*
Y374696D01*
Y336704D02*
Y345385D01*
Y374696D02*
X267076D01*
X272588Y369184D01*
Y342216D02*
Y369184D01*
X267076Y336704D02*
X272588Y342216D01*
X233612Y336704D02*
X267076D01*
D14*
X76504Y6925D02*
Y10074D01*
Y20925D02*
Y24074D01*
Y13925D02*
Y17075D01*
X132504Y538425D02*
Y541574D01*
X145496Y543426D02*
Y546575D01*
X170504Y538425D02*
Y541574D01*
X183496Y543426D02*
Y546575D01*
X88004Y538425D02*
Y541574D01*
X100996Y543426D02*
Y546575D01*
X53626Y387804D02*
X56775D01*
X207657Y540725D02*
Y543875D01*
X48004Y539925D02*
Y543075D01*
D15*
X197168Y418001D02*
Y421999D01*
X199168D01*
X199834Y421333D01*
Y420000D01*
X199168Y419334D01*
X197168D01*
X198501D02*
X199834Y418001D01*
X201167Y421333D02*
X201834Y421999D01*
X203167D01*
X203833Y421333D01*
Y420666D01*
X203167Y420000D01*
X203833Y419334D01*
Y418667D01*
X203167Y418001D01*
X201834D01*
X201167Y418667D01*
Y419334D01*
X201834Y420000D01*
X201167Y420666D01*
Y421333D01*
X201834Y420000D02*
X203167D01*
X207165Y418001D02*
Y421999D01*
X205166Y420000D01*
X207832D01*
X176667Y380334D02*
X176001Y379668D01*
Y378335D01*
X176667Y377668D01*
X179333D01*
X179999Y378335D01*
Y379668D01*
X179333Y380334D01*
X176667Y381667D02*
X176001Y382334D01*
Y383666D01*
X176667Y384333D01*
X177333D01*
X178000Y383666D01*
Y383000D01*
Y383666D01*
X178666Y384333D01*
X179333D01*
X179999Y383666D01*
Y382334D01*
X179333Y381667D01*
X179999Y388332D02*
Y385666D01*
X177333Y388332D01*
X176667D01*
X176001Y387665D01*
Y386332D01*
X176667Y385666D01*
X216167Y440501D02*
X215501Y439834D01*
Y438501D01*
X216167Y437835D01*
X218833D01*
X219499Y438501D01*
Y439834D01*
X218833Y440501D01*
X216167Y441834D02*
X215501Y442500D01*
Y443833D01*
X216167Y444499D01*
X216834D01*
X217500Y443833D01*
Y443166D01*
Y443833D01*
X218166Y444499D01*
X218833D01*
X219499Y443833D01*
Y442500D01*
X218833Y441834D01*
X219499Y445832D02*
Y447165D01*
Y446499D01*
X215501D01*
X216167Y445832D01*
X57667Y493334D02*
X57001Y492668D01*
Y491335D01*
X57667Y490668D01*
X60333D01*
X60999Y491335D01*
Y492668D01*
X60333Y493334D01*
X57667Y494667D02*
X57001Y495334D01*
Y496666D01*
X57667Y497333D01*
X58334D01*
X59000Y496666D01*
Y496000D01*
Y496666D01*
X59666Y497333D01*
X60333D01*
X60999Y496666D01*
Y495334D01*
X60333Y494667D01*
X57667Y498666D02*
X57001Y499332D01*
Y500665D01*
X57667Y501332D01*
X60333D01*
X60999Y500665D01*
Y499332D01*
X60333Y498666D01*
X57667D01*
X78835Y231999D02*
Y228001D01*
X81501D01*
X85500Y231999D02*
X82834D01*
Y228001D01*
X85500D01*
X82834Y230000D02*
X84167D01*
X86833Y231999D02*
Y228001D01*
X88832D01*
X89499Y228667D01*
Y231333D01*
X88832Y231999D01*
X86833D01*
X90832Y228001D02*
X92164D01*
X91498D01*
Y231999D01*
X90832Y231333D01*
X133502Y530501D02*
Y534499D01*
X135502D01*
X136168Y533833D01*
Y532500D01*
X135502Y531834D01*
X133502D01*
X134835D02*
X136168Y530501D01*
X137501D02*
X138834D01*
X138167D01*
Y534499D01*
X137501Y533833D01*
X140833D02*
X141500Y534499D01*
X142833D01*
X143499Y533833D01*
Y531167D01*
X142833Y530501D01*
X141500D01*
X140833Y531167D01*
Y533833D01*
X144832Y534499D02*
X147498D01*
Y533833D01*
X144832Y531167D01*
Y530501D01*
X198499Y532002D02*
X194501D01*
Y534002D01*
X195167Y534668D01*
X196500D01*
X197167Y534002D01*
Y532002D01*
Y533335D02*
X198499Y534668D01*
Y536001D02*
Y537334D01*
Y536667D01*
X194501D01*
X195167Y536001D01*
Y539333D02*
X194501Y540000D01*
Y541333D01*
X195167Y541999D01*
X197833D01*
X198499Y541333D01*
Y540000D01*
X197833Y539333D01*
X195167D01*
X194501Y545998D02*
X195167Y544665D01*
X196500Y543332D01*
X197833D01*
X198499Y543998D01*
Y545331D01*
X197833Y545998D01*
X197167D01*
X196500Y545331D01*
Y543332D01*
X113999Y532502D02*
X110001D01*
Y534502D01*
X110667Y535168D01*
X112000D01*
X112666Y534502D01*
Y532502D01*
Y533835D02*
X113999Y535168D01*
Y536501D02*
Y537834D01*
Y537167D01*
X110001D01*
X110667Y536501D01*
Y539833D02*
X110001Y540500D01*
Y541833D01*
X110667Y542499D01*
X113333D01*
X113999Y541833D01*
Y540500D01*
X113333Y539833D01*
X110667D01*
X110001Y546498D02*
Y543832D01*
X112000D01*
X111334Y545165D01*
Y545831D01*
X112000Y546498D01*
X113333D01*
X113999Y545831D01*
Y544498D01*
X113333Y543832D01*
X116002Y540499D02*
Y536501D01*
X118002D01*
X118668Y537167D01*
Y539833D01*
X118002Y540499D01*
X116002D01*
X122667Y539833D02*
X122000Y540499D01*
X120667D01*
X120001Y539833D01*
Y539166D01*
X120667Y538500D01*
X122000D01*
X122667Y537834D01*
Y537167D01*
X122000Y536501D01*
X120667D01*
X120001Y537167D01*
X124000Y536501D02*
X125333D01*
X124666D01*
Y540499D01*
X124000Y539833D01*
X129998Y536501D02*
X127332D01*
X129998Y539166D01*
Y539833D01*
X129331Y540499D01*
X127998D01*
X127332Y539833D01*
X116169Y546499D02*
Y542501D01*
X118168D01*
X118834Y543167D01*
Y545833D01*
X118168Y546499D01*
X116169D01*
X122833Y545833D02*
X122167Y546499D01*
X120834D01*
X120167Y545833D01*
Y545166D01*
X120834Y544500D01*
X122167D01*
X122833Y543834D01*
Y543167D01*
X122167Y542501D01*
X120834D01*
X120167Y543167D01*
X124166Y542501D02*
X125499D01*
X124833D01*
Y546499D01*
X124166Y545833D01*
X127498Y542501D02*
X128831D01*
X128165D01*
Y546499D01*
X127498Y545833D01*
X157002Y534999D02*
Y531001D01*
X159002D01*
X159668Y531667D01*
Y534333D01*
X159002Y534999D01*
X157002D01*
X163667Y534333D02*
X163000Y534999D01*
X161667D01*
X161001Y534333D01*
Y533666D01*
X161667Y533000D01*
X163000D01*
X163667Y532334D01*
Y531667D01*
X163000Y531001D01*
X161667D01*
X161001Y531667D01*
X165000Y531001D02*
X166333D01*
X165666D01*
Y534999D01*
X165000Y534333D01*
X168332D02*
X168998Y534999D01*
X170331D01*
X170998Y534333D01*
Y531667D01*
X170331Y531001D01*
X168998D01*
X168332Y531667D01*
Y534333D01*
X157168Y545999D02*
Y542001D01*
X159168D01*
X159834Y542667D01*
Y545333D01*
X159168Y545999D01*
X157168D01*
X163833Y545333D02*
X163166Y545999D01*
X161834D01*
X161167Y545333D01*
Y544666D01*
X161834Y544000D01*
X163166D01*
X163833Y543334D01*
Y542667D01*
X163166Y542001D01*
X161834D01*
X161167Y542667D01*
X165166D02*
X165832Y542001D01*
X167165D01*
X167832Y542667D01*
Y545333D01*
X167165Y545999D01*
X165832D01*
X165166Y545333D01*
Y544666D01*
X165832Y544000D01*
X167832D01*
X75168Y537499D02*
Y533501D01*
X77168D01*
X77834Y534167D01*
Y536833D01*
X77168Y537499D01*
X75168D01*
X81833Y536833D02*
X81166Y537499D01*
X79834D01*
X79167Y536833D01*
Y536166D01*
X79834Y535500D01*
X81166D01*
X81833Y534834D01*
Y534167D01*
X81166Y533501D01*
X79834D01*
X79167Y534167D01*
X83166Y536833D02*
X83832Y537499D01*
X85165D01*
X85832Y536833D01*
Y536166D01*
X85165Y535500D01*
X85832Y534834D01*
Y534167D01*
X85165Y533501D01*
X83832D01*
X83166Y534167D01*
Y534834D01*
X83832Y535500D01*
X83166Y536166D01*
Y536833D01*
X83832Y535500D02*
X85165D01*
X75268Y543999D02*
Y540001D01*
X77268D01*
X77934Y540667D01*
Y543333D01*
X77268Y543999D01*
X75268D01*
X81933Y543333D02*
X81266Y543999D01*
X79934D01*
X79267Y543333D01*
Y542666D01*
X79934Y542000D01*
X81266D01*
X81933Y541334D01*
Y540667D01*
X81266Y540001D01*
X79934D01*
X79267Y540667D01*
X83266Y543999D02*
X85932D01*
Y543333D01*
X83266Y540667D01*
Y540001D01*
X167502Y319501D02*
Y323499D01*
X169502D01*
X170168Y322833D01*
Y321500D01*
X169502Y320834D01*
X167502D01*
X168835D02*
X170168Y319501D01*
X171501D02*
X172834D01*
X172167D01*
Y323499D01*
X171501Y322833D01*
X174833D02*
X175500Y323499D01*
X176833D01*
X177499Y322833D01*
Y320167D01*
X176833Y319501D01*
X175500D01*
X174833Y320167D01*
Y322833D01*
X180831Y319501D02*
Y323499D01*
X178832Y321500D01*
X181498D01*
X133002Y284501D02*
Y288499D01*
X135002D01*
X135668Y287833D01*
Y286500D01*
X135002Y285834D01*
X133002D01*
X134335D02*
X135668Y284501D01*
X137001D02*
X138334D01*
X137667D01*
Y288499D01*
X137001Y287833D01*
X140333D02*
X141000Y288499D01*
X142333D01*
X142999Y287833D01*
Y285167D01*
X142333Y284501D01*
X141000D01*
X140333Y285167D01*
Y287833D01*
X144332D02*
X144998Y288499D01*
X146331D01*
X146998Y287833D01*
Y287166D01*
X146331Y286500D01*
X145665D01*
X146331D01*
X146998Y285834D01*
Y285167D01*
X146331Y284501D01*
X144998D01*
X144332Y285167D01*
X112999Y296002D02*
X109001D01*
Y298002D01*
X109667Y298668D01*
X111000D01*
X111667Y298002D01*
Y296002D01*
Y297335D02*
X112999Y298668D01*
Y300001D02*
Y301334D01*
Y300667D01*
X109001D01*
X109667Y300001D01*
Y303333D02*
X109001Y304000D01*
Y305333D01*
X109667Y305999D01*
X112333D01*
X112999Y305333D01*
Y304000D01*
X112333Y303333D01*
X109667D01*
X112999Y309998D02*
Y307332D01*
X110334Y309998D01*
X109667D01*
X109001Y309331D01*
Y307998D01*
X109667Y307332D01*
X212999Y438169D02*
X209001D01*
Y440168D01*
X209667Y440835D01*
X211000D01*
X211666Y440168D01*
Y438169D01*
Y439502D02*
X212999Y440835D01*
Y442167D02*
Y443500D01*
Y442834D01*
X209001D01*
X209667Y442167D01*
Y445500D02*
X209001Y446166D01*
Y447499D01*
X209667Y448166D01*
X212333D01*
X212999Y447499D01*
Y446166D01*
X212333Y445500D01*
X209667D01*
X212999Y449498D02*
Y450831D01*
Y450165D01*
X209001D01*
X209667Y449498D01*
X169002Y409501D02*
Y413499D01*
X171002D01*
X171668Y412833D01*
Y411500D01*
X171002Y410834D01*
X169002D01*
X170335D02*
X171668Y409501D01*
X173001D02*
X174334D01*
X173667D01*
Y413499D01*
X173001Y412833D01*
X176333D02*
X177000Y413499D01*
X178333D01*
X178999Y412833D01*
Y410167D01*
X178333Y409501D01*
X177000D01*
X176333Y410167D01*
Y412833D01*
X180332D02*
X180998Y413499D01*
X182331D01*
X182998Y412833D01*
Y410167D01*
X182331Y409501D01*
X180998D01*
X180332Y410167D01*
Y412833D01*
X151399Y425824D02*
X147401D01*
Y427824D01*
X148067Y428490D01*
X149400D01*
X150066Y427824D01*
Y425824D01*
Y427157D02*
X151399Y428490D01*
X150733Y429823D02*
X151399Y430489D01*
Y431822D01*
X150733Y432489D01*
X148067D01*
X147401Y431822D01*
Y430489D01*
X148067Y429823D01*
X148733D01*
X149400Y430489D01*
Y432489D01*
X150733Y433822D02*
X151399Y434488D01*
Y435821D01*
X150733Y436487D01*
X148067D01*
X147401Y435821D01*
Y434488D01*
X148067Y433822D01*
X148733D01*
X149400Y434488D01*
Y436487D01*
X142499Y438168D02*
X138501D01*
Y440168D01*
X139167Y440834D01*
X140500D01*
X141166Y440168D01*
Y438168D01*
Y439501D02*
X142499Y440834D01*
X141833Y442167D02*
X142499Y442834D01*
Y444166D01*
X141833Y444833D01*
X139167D01*
X138501Y444166D01*
Y442834D01*
X139167Y442167D01*
X139833D01*
X140500Y442834D01*
Y444833D01*
X139167Y446166D02*
X138501Y446832D01*
Y448165D01*
X139167Y448832D01*
X139833D01*
X140500Y448165D01*
X141166Y448832D01*
X141833D01*
X142499Y448165D01*
Y446832D01*
X141833Y446166D01*
X141166D01*
X140500Y446832D01*
X139833Y446166D01*
X139167D01*
X140500Y446832D02*
Y448165D01*
X100168Y409001D02*
Y412999D01*
X102168D01*
X102834Y412333D01*
Y411000D01*
X102168Y410334D01*
X100168D01*
X101501D02*
X102834Y409001D01*
X104167Y409667D02*
X104833Y409001D01*
X106167D01*
X106833Y409667D01*
Y412333D01*
X106167Y412999D01*
X104833D01*
X104167Y412333D01*
Y411666D01*
X104833Y411000D01*
X106833D01*
X108166Y412999D02*
X110832D01*
Y412333D01*
X108166Y409667D01*
Y409001D01*
X81499Y421168D02*
X77501D01*
Y423168D01*
X78167Y423834D01*
X79500D01*
X80166Y423168D01*
Y421168D01*
Y422501D02*
X81499Y423834D01*
X80833Y425167D02*
X81499Y425834D01*
Y427166D01*
X80833Y427833D01*
X78167D01*
X77501Y427166D01*
Y425834D01*
X78167Y425167D01*
X78834D01*
X79500Y425834D01*
Y427833D01*
X77501Y431832D02*
X78167Y430499D01*
X79500Y429166D01*
X80833D01*
X81499Y429832D01*
Y431165D01*
X80833Y431832D01*
X80166D01*
X79500Y431165D01*
Y429166D01*
X109499Y255168D02*
X105501D01*
Y257168D01*
X106167Y257834D01*
X107500D01*
X108167Y257168D01*
Y255168D01*
Y256501D02*
X109499Y257834D01*
X108833Y259167D02*
X109499Y259834D01*
Y261166D01*
X108833Y261833D01*
X106167D01*
X105501Y261166D01*
Y259834D01*
X106167Y259167D01*
X106834D01*
X107500Y259834D01*
Y261833D01*
X105501Y265832D02*
Y263166D01*
X107500D01*
X106834Y264499D01*
Y265165D01*
X107500Y265832D01*
X108833D01*
X109499Y265165D01*
Y263832D01*
X108833Y263166D01*
X119499Y259168D02*
X115501D01*
Y261168D01*
X116167Y261834D01*
X117500D01*
X118166Y261168D01*
Y259168D01*
Y260501D02*
X119499Y261834D01*
X118833Y263167D02*
X119499Y263834D01*
Y265166D01*
X118833Y265833D01*
X116167D01*
X115501Y265166D01*
Y263834D01*
X116167Y263167D01*
X116833D01*
X117500Y263834D01*
Y265833D01*
X119499Y269165D02*
X115501D01*
X117500Y267166D01*
Y269832D01*
X44501Y262167D02*
Y260835D01*
Y261501D01*
X47833D01*
X48499Y260835D01*
Y260168D01*
X47833Y259502D01*
X48499Y263500D02*
Y264833D01*
Y264167D01*
X44501D01*
X45167Y263500D01*
X44501Y269498D02*
X45167Y268165D01*
X46500Y266833D01*
X47833D01*
X48499Y267499D01*
Y268832D01*
X47833Y269498D01*
X47166D01*
X46500Y268832D01*
Y266833D01*
X44001Y302167D02*
Y300834D01*
Y301501D01*
X47333D01*
X47999Y300834D01*
Y300168D01*
X47333Y299502D01*
X47999Y303500D02*
Y304833D01*
Y304167D01*
X44001D01*
X44667Y303500D01*
X44001Y309498D02*
Y306833D01*
X46000D01*
X45334Y308166D01*
Y308832D01*
X46000Y309498D01*
X47333D01*
X47999Y308832D01*
Y307499D01*
X47333Y306833D01*
X44001Y341667D02*
Y340335D01*
Y341001D01*
X47333D01*
X47999Y340335D01*
Y339668D01*
X47333Y339002D01*
X47999Y343000D02*
Y344333D01*
Y343667D01*
X44001D01*
X44667Y343000D01*
X47999Y348332D02*
X44001D01*
X46000Y346333D01*
Y348998D01*
X40767Y385099D02*
X39434D01*
X40101D01*
Y381767D01*
X39434Y381101D01*
X38768D01*
X38102Y381767D01*
X42100Y381101D02*
X43433D01*
X42767D01*
Y385099D01*
X42100Y384433D01*
X45433D02*
X46099Y385099D01*
X47432D01*
X48098Y384433D01*
Y383766D01*
X47432Y383100D01*
X46766D01*
X47432D01*
X48098Y382434D01*
Y381767D01*
X47432Y381101D01*
X46099D01*
X45433Y381767D01*
X227001Y409692D02*
Y408359D01*
Y409025D01*
X230333D01*
X230999Y408359D01*
Y407692D01*
X230333Y407026D01*
X230999Y411025D02*
Y412358D01*
Y411691D01*
X227001D01*
X227667Y411025D01*
X230999Y417023D02*
Y414357D01*
X228334Y417023D01*
X227667D01*
X227001Y416356D01*
Y415023D01*
X227667Y414357D01*
X225312Y339899D02*
X223979D01*
X224645D01*
Y336567D01*
X223979Y335901D01*
X223312D01*
X222646Y336567D01*
X226645Y335901D02*
X227978D01*
X227311D01*
Y339899D01*
X226645Y339233D01*
X229977Y335901D02*
X231310D01*
X230643D01*
Y339899D01*
X229977Y339233D01*
X223645Y299899D02*
X222312D01*
X222979D01*
Y296567D01*
X222312Y295901D01*
X221646D01*
X220980Y296567D01*
X224978Y295901D02*
X226311D01*
X225645D01*
Y299899D01*
X224978Y299233D01*
X228310D02*
X228977Y299899D01*
X230310D01*
X230976Y299233D01*
Y296567D01*
X230310Y295901D01*
X228977D01*
X228310Y296567D01*
Y299233D01*
X227211Y260299D02*
X225879D01*
X226545D01*
Y256967D01*
X225879Y256301D01*
X225212D01*
X224546Y256967D01*
X228544D02*
X229211Y256301D01*
X230544D01*
X231210Y256967D01*
Y259633D01*
X230544Y260299D01*
X229211D01*
X228544Y259633D01*
Y258966D01*
X229211Y258300D01*
X231210D01*
X227501Y449834D02*
Y448501D01*
Y449167D01*
X230833D01*
X231499Y448501D01*
Y447834D01*
X230833Y447168D01*
X228167Y451166D02*
X227501Y451833D01*
Y453166D01*
X228167Y453832D01*
X228834D01*
X229500Y453166D01*
X230166Y453832D01*
X230833D01*
X231499Y453166D01*
Y451833D01*
X230833Y451166D01*
X230166D01*
X229500Y451833D01*
X228834Y451166D01*
X228167D01*
X229500Y451833D02*
Y453166D01*
X227001Y490834D02*
Y489501D01*
Y490167D01*
X230333D01*
X230999Y489501D01*
Y488834D01*
X230333Y488168D01*
X227001Y492167D02*
Y494832D01*
X227667D01*
X230333Y492167D01*
X230999D01*
X44001Y490334D02*
Y489001D01*
Y489667D01*
X47333D01*
X47999Y489001D01*
Y488334D01*
X47333Y487668D01*
X44001Y494332D02*
X44667Y492999D01*
X46000Y491667D01*
X47333D01*
X47999Y492333D01*
Y493666D01*
X47333Y494332D01*
X46666D01*
X46000Y493666D01*
Y491667D01*
X44001Y480334D02*
Y479001D01*
Y479667D01*
X47333D01*
X47999Y479001D01*
Y478334D01*
X47333Y477668D01*
X44001Y484332D02*
Y481667D01*
X46000D01*
X45334Y482999D01*
Y483666D01*
X46000Y484332D01*
X47333D01*
X47999Y483666D01*
Y482333D01*
X47333Y481667D01*
X127333Y534499D02*
X126001D01*
X126667D01*
Y531167D01*
X126001Y530501D01*
X125334D01*
X124668Y531167D01*
X130666Y530501D02*
Y534499D01*
X128666Y532500D01*
X131332D01*
X177734Y535699D02*
X176401D01*
X177067D01*
Y532367D01*
X176401Y531701D01*
X175734D01*
X175068Y532367D01*
X179067Y535033D02*
X179733Y535699D01*
X181066D01*
X181732Y535033D01*
Y534366D01*
X181066Y533700D01*
X180399D01*
X181066D01*
X181732Y533034D01*
Y532367D01*
X181066Y531701D01*
X179733D01*
X179067Y532367D01*
X94234Y534999D02*
X92901D01*
X93567D01*
Y531667D01*
X92901Y531001D01*
X92234D01*
X91568Y531667D01*
X98232Y531001D02*
X95566D01*
X98232Y533666D01*
Y534333D01*
X97566Y534999D01*
X96233D01*
X95566Y534333D01*
X86168Y72499D02*
Y69167D01*
X86834Y68501D01*
X88167D01*
X88834Y69167D01*
Y72499D01*
X92166Y68501D02*
Y72499D01*
X90166Y70500D01*
X92832D01*
X122168Y96999D02*
Y93667D01*
X122834Y93001D01*
X124167D01*
X124834Y93667D01*
Y96999D01*
X126166Y96333D02*
X126833Y96999D01*
X128166D01*
X128832Y96333D01*
Y95666D01*
X128166Y95000D01*
X127499D01*
X128166D01*
X128832Y94334D01*
Y93667D01*
X128166Y93001D01*
X126833D01*
X126166Y93667D01*
X180668Y100499D02*
Y97167D01*
X181334Y96501D01*
X182667D01*
X183334Y97167D01*
Y100499D01*
X187332Y96501D02*
X184667D01*
X187332Y99166D01*
Y99833D01*
X186666Y100499D01*
X185333D01*
X184667Y99833D01*
X92001Y318834D02*
X95333D01*
X95999Y319501D01*
Y320834D01*
X95333Y321500D01*
X92001D01*
X95999Y322833D02*
Y324166D01*
Y323499D01*
X92001D01*
X92667Y322833D01*
X68168Y340501D02*
Y344499D01*
X70168D01*
X70834Y343833D01*
Y342500D01*
X70168Y341834D01*
X68168D01*
X69501D02*
X70834Y340501D01*
X72167Y341167D02*
X72834Y340501D01*
X74166D01*
X74833Y341167D01*
Y343833D01*
X74166Y344499D01*
X72834D01*
X72167Y343833D01*
Y343166D01*
X72834Y342500D01*
X74833D01*
X76166Y343833D02*
X76832Y344499D01*
X78165D01*
X78832Y343833D01*
Y343166D01*
X78165Y342500D01*
X77499D01*
X78165D01*
X78832Y341834D01*
Y341167D01*
X78165Y340501D01*
X76832D01*
X76166Y341167D01*
X210699Y106868D02*
X206701D01*
Y108868D01*
X207367Y109534D01*
X208700D01*
X209366Y108868D01*
Y106868D01*
Y108201D02*
X210699Y109534D01*
X210033Y110867D02*
X210699Y111533D01*
Y112866D01*
X210033Y113533D01*
X207367D01*
X206701Y112866D01*
Y111533D01*
X207367Y110867D01*
X208034D01*
X208700Y111533D01*
Y113533D01*
X210699Y117532D02*
Y114866D01*
X208034Y117532D01*
X207367D01*
X206701Y116865D01*
Y115532D01*
X207367Y114866D01*
X68499Y133335D02*
X64501D01*
Y135334D01*
X65167Y136001D01*
X66500D01*
X67166Y135334D01*
Y133335D01*
Y134668D02*
X68499Y136001D01*
X67833Y137334D02*
X68499Y138000D01*
Y139333D01*
X67833Y139999D01*
X65167D01*
X64501Y139333D01*
Y138000D01*
X65167Y137334D01*
X65834D01*
X66500Y138000D01*
Y139999D01*
X68499Y141332D02*
Y142665D01*
Y141999D01*
X64501D01*
X65167Y141332D01*
X79499Y133168D02*
X75501D01*
Y135168D01*
X76167Y135834D01*
X77500D01*
X78166Y135168D01*
Y133168D01*
Y134501D02*
X79499Y135834D01*
X78833Y137167D02*
X79499Y137833D01*
Y139166D01*
X78833Y139833D01*
X76167D01*
X75501Y139166D01*
Y137833D01*
X76167Y137167D01*
X76834D01*
X77500Y137833D01*
Y139833D01*
X76167Y141166D02*
X75501Y141832D01*
Y143165D01*
X76167Y143832D01*
X78833D01*
X79499Y143165D01*
Y141832D01*
X78833Y141166D01*
X76167D01*
X90499Y133168D02*
X86501D01*
Y135168D01*
X87167Y135834D01*
X88500D01*
X89166Y135168D01*
Y133168D01*
Y134501D02*
X90499Y135834D01*
X87167Y137167D02*
X86501Y137833D01*
Y139166D01*
X87167Y139833D01*
X87834D01*
X88500Y139166D01*
X89166Y139833D01*
X89833D01*
X90499Y139166D01*
Y137833D01*
X89833Y137167D01*
X89166D01*
X88500Y137833D01*
X87834Y137167D01*
X87167D01*
X88500Y137833D02*
Y139166D01*
X89833Y141166D02*
X90499Y141832D01*
Y143165D01*
X89833Y143832D01*
X87167D01*
X86501Y143165D01*
Y141832D01*
X87167Y141166D01*
X87834D01*
X88500Y141832D01*
Y143832D01*
X99168Y221001D02*
Y224999D01*
X101168D01*
X101834Y224333D01*
Y223000D01*
X101168Y222334D01*
X99168D01*
X100501D02*
X101834Y221001D01*
X103167Y224333D02*
X103833Y224999D01*
X105166D01*
X105833Y224333D01*
Y223666D01*
X105166Y223000D01*
X105833Y222334D01*
Y221667D01*
X105166Y221001D01*
X103833D01*
X103167Y221667D01*
Y222334D01*
X103833Y223000D01*
X103167Y223666D01*
Y224333D01*
X103833Y223000D02*
X105166D01*
X107166Y224333D02*
X107832Y224999D01*
X109165D01*
X109832Y224333D01*
Y223666D01*
X109165Y223000D01*
X109832Y222334D01*
Y221667D01*
X109165Y221001D01*
X107832D01*
X107166Y221667D01*
Y222334D01*
X107832Y223000D01*
X107166Y223666D01*
Y224333D01*
X107832Y223000D02*
X109165D01*
X63168Y226001D02*
Y229999D01*
X65168D01*
X65834Y229333D01*
Y228000D01*
X65168Y227334D01*
X63168D01*
X64501D02*
X65834Y226001D01*
X67167Y229333D02*
X67834Y229999D01*
X69166D01*
X69833Y229333D01*
Y228666D01*
X69166Y228000D01*
X69833Y227334D01*
Y226667D01*
X69166Y226001D01*
X67834D01*
X67167Y226667D01*
Y227334D01*
X67834Y228000D01*
X67167Y228666D01*
Y229333D01*
X67834Y228000D02*
X69166D01*
X71166Y229999D02*
X73832D01*
Y229333D01*
X71166Y226667D01*
Y226001D01*
X61668Y209001D02*
Y212999D01*
X63668D01*
X64334Y212333D01*
Y211000D01*
X63668Y210334D01*
X61668D01*
X63001D02*
X64334Y209001D01*
X65667Y212333D02*
X66334Y212999D01*
X67666D01*
X68333Y212333D01*
Y211666D01*
X67666Y211000D01*
X68333Y210334D01*
Y209667D01*
X67666Y209001D01*
X66334D01*
X65667Y209667D01*
Y210334D01*
X66334Y211000D01*
X65667Y211666D01*
Y212333D01*
X66334Y211000D02*
X67666D01*
X72332Y212999D02*
X70999Y212333D01*
X69666Y211000D01*
Y209667D01*
X70332Y209001D01*
X71665D01*
X72332Y209667D01*
Y210334D01*
X71665Y211000D01*
X69666D01*
X163221Y287201D02*
Y291199D01*
X165220D01*
X165887Y290533D01*
Y289200D01*
X165220Y288534D01*
X163221D01*
X164554D02*
X165887Y287201D01*
X167220Y290533D02*
X167886Y291199D01*
X169219D01*
X169886Y290533D01*
Y289866D01*
X169219Y289200D01*
X169886Y288534D01*
Y287867D01*
X169219Y287201D01*
X167886D01*
X167220Y287867D01*
Y288534D01*
X167886Y289200D01*
X167220Y289866D01*
Y290533D01*
X167886Y289200D02*
X169219D01*
X173884Y291199D02*
X171219D01*
Y289200D01*
X172552Y289866D01*
X173218D01*
X173884Y289200D01*
Y287867D01*
X173218Y287201D01*
X171885D01*
X171219Y287867D01*
X122168Y417501D02*
Y421499D01*
X124168D01*
X124834Y420833D01*
Y419500D01*
X124168Y418834D01*
X122168D01*
X123501D02*
X124834Y417501D01*
X126167Y420833D02*
X126833Y421499D01*
X128166D01*
X128833Y420833D01*
Y420166D01*
X128166Y419500D01*
X128833Y418834D01*
Y418167D01*
X128166Y417501D01*
X126833D01*
X126167Y418167D01*
Y418834D01*
X126833Y419500D01*
X126167Y420166D01*
Y420833D01*
X126833Y419500D02*
X128166D01*
X130166Y420833D02*
X130832Y421499D01*
X132165D01*
X132832Y420833D01*
Y420166D01*
X132165Y419500D01*
X131499D01*
X132165D01*
X132832Y418834D01*
Y418167D01*
X132165Y417501D01*
X130832D01*
X130166Y418167D01*
X228668Y205501D02*
Y209499D01*
X230668D01*
X231334Y208833D01*
Y207500D01*
X230668Y206834D01*
X228668D01*
X230001D02*
X231334Y205501D01*
X232667Y208833D02*
X233334Y209499D01*
X234666D01*
X235333Y208833D01*
Y208166D01*
X234666Y207500D01*
X235333Y206834D01*
Y206167D01*
X234666Y205501D01*
X233334D01*
X232667Y206167D01*
Y206834D01*
X233334Y207500D01*
X232667Y208166D01*
Y208833D01*
X233334Y207500D02*
X234666D01*
X239332Y205501D02*
X236666D01*
X239332Y208166D01*
Y208833D01*
X238665Y209499D01*
X237332D01*
X236666Y208833D01*
X226335Y218501D02*
Y222499D01*
X228334D01*
X229001Y221833D01*
Y220500D01*
X228334Y219834D01*
X226335D01*
X227668D02*
X229001Y218501D01*
X230334Y221833D02*
X231000Y222499D01*
X232333D01*
X232999Y221833D01*
Y221166D01*
X232333Y220500D01*
X232999Y219834D01*
Y219167D01*
X232333Y218501D01*
X231000D01*
X230334Y219167D01*
Y219834D01*
X231000Y220500D01*
X230334Y221166D01*
Y221833D01*
X231000Y220500D02*
X232333D01*
X234332Y218501D02*
X235665D01*
X234999D01*
Y222499D01*
X234332Y221833D01*
X79899Y98468D02*
X75901D01*
Y100468D01*
X76567Y101134D01*
X77900D01*
X78566Y100468D01*
Y98468D01*
Y99801D02*
X79899Y101134D01*
X76567Y102467D02*
X75901Y103133D01*
Y104466D01*
X76567Y105133D01*
X77234D01*
X77900Y104466D01*
X78566Y105133D01*
X79233D01*
X79899Y104466D01*
Y103133D01*
X79233Y102467D01*
X78566D01*
X77900Y103133D01*
X77234Y102467D01*
X76567D01*
X77900Y103133D02*
Y104466D01*
X76567Y106466D02*
X75901Y107132D01*
Y108465D01*
X76567Y109132D01*
X79233D01*
X79899Y108465D01*
Y107132D01*
X79233Y106466D01*
X76567D01*
X90599Y99168D02*
X86601D01*
Y101168D01*
X87267Y101834D01*
X88600D01*
X89266Y101168D01*
Y99168D01*
Y100501D02*
X90599Y101834D01*
X86601Y103167D02*
Y105833D01*
X87267D01*
X89933Y103167D01*
X90599D01*
X89933Y107166D02*
X90599Y107832D01*
Y109165D01*
X89933Y109832D01*
X87267D01*
X86601Y109165D01*
Y107832D01*
X87267Y107166D01*
X87934D01*
X88600Y107832D01*
Y109832D01*
X101999Y141168D02*
X98001D01*
Y143168D01*
X98667Y143834D01*
X100000D01*
X100666Y143168D01*
Y141168D01*
Y142501D02*
X101999Y143834D01*
X98001Y145167D02*
Y147833D01*
X98667D01*
X101333Y145167D01*
X101999D01*
X98667Y149166D02*
X98001Y149832D01*
Y151165D01*
X98667Y151832D01*
X99334D01*
X100000Y151165D01*
X100666Y151832D01*
X101333D01*
X101999Y151165D01*
Y149832D01*
X101333Y149166D01*
X100666D01*
X100000Y149832D01*
X99334Y149166D01*
X98667D01*
X100000Y149832D02*
Y151165D01*
X113499Y133168D02*
X109501D01*
Y135168D01*
X110167Y135834D01*
X111500D01*
X112167Y135168D01*
Y133168D01*
Y134501D02*
X113499Y135834D01*
X109501Y137167D02*
Y139833D01*
X110167D01*
X112833Y137167D01*
X113499D01*
X109501Y141166D02*
Y143832D01*
X110167D01*
X112833Y141166D01*
X113499D01*
X51668Y13501D02*
Y17499D01*
X53668D01*
X54334Y16833D01*
Y15500D01*
X53668Y14833D01*
X51668D01*
X53001D02*
X54334Y13501D01*
X55667Y17499D02*
X58333D01*
Y16833D01*
X55667Y14167D01*
Y13501D01*
X62332Y17499D02*
X60999Y16833D01*
X59666Y15500D01*
Y14167D01*
X60332Y13501D01*
X61665D01*
X62332Y14167D01*
Y14833D01*
X61665Y15500D01*
X59666D01*
X52168Y20501D02*
Y24499D01*
X54168D01*
X54834Y23833D01*
Y22500D01*
X54168Y21834D01*
X52168D01*
X53501D02*
X54834Y20501D01*
X56167Y24499D02*
X58833D01*
Y23833D01*
X56167Y21167D01*
Y20501D01*
X62832Y24499D02*
X60166D01*
Y22500D01*
X61499Y23167D01*
X62165D01*
X62832Y22500D01*
Y21167D01*
X62165Y20501D01*
X60832D01*
X60166Y21167D01*
X47168Y7001D02*
Y10999D01*
X49168D01*
X49834Y10333D01*
Y9000D01*
X49168Y8333D01*
X47168D01*
X48501D02*
X49834Y7001D01*
X51167Y10999D02*
X53833D01*
Y10333D01*
X51167Y7667D01*
Y7001D01*
X57165D02*
Y10999D01*
X55166Y9000D01*
X57832D01*
X236999Y34668D02*
X233001D01*
Y36668D01*
X233667Y37334D01*
X235000D01*
X235666Y36668D01*
Y34668D01*
Y36001D02*
X236999Y37334D01*
X233001Y38667D02*
Y41333D01*
X233667D01*
X236333Y38667D01*
X236999D01*
X233667Y42666D02*
X233001Y43332D01*
Y44665D01*
X233667Y45332D01*
X234334D01*
X235000Y44665D01*
Y43999D01*
Y44665D01*
X235666Y45332D01*
X236333D01*
X236999Y44665D01*
Y43332D01*
X236333Y42666D01*
X244499Y62668D02*
X240501D01*
Y64668D01*
X241167Y65334D01*
X242500D01*
X243166Y64668D01*
Y62668D01*
Y64001D02*
X244499Y65334D01*
X240501Y66667D02*
Y69333D01*
X241167D01*
X243833Y66667D01*
X244499D01*
Y73332D02*
Y70666D01*
X241834Y73332D01*
X241167D01*
X240501Y72665D01*
Y71332D01*
X241167Y70666D01*
X217335Y546501D02*
Y550499D01*
X219334D01*
X220001Y549833D01*
Y548500D01*
X219334Y547834D01*
X217335D01*
X218668D02*
X220001Y546501D01*
X221334Y550499D02*
X223999D01*
Y549833D01*
X221334Y547167D01*
Y546501D01*
X225332D02*
X226665D01*
X225999D01*
Y550499D01*
X225332Y549833D01*
X204699Y559616D02*
X200701D01*
Y561615D01*
X201367Y562281D01*
X202700D01*
X203366Y561615D01*
Y559616D01*
Y560949D02*
X204699Y562281D01*
X200701Y563614D02*
Y566280D01*
X201367D01*
X204033Y563614D01*
X204699D01*
X201367Y567613D02*
X200701Y568280D01*
Y569612D01*
X201367Y570279D01*
X204033D01*
X204699Y569612D01*
Y568280D01*
X204033Y567613D01*
X201367D01*
X35499Y55168D02*
X31501D01*
Y57168D01*
X32167Y57834D01*
X33500D01*
X34166Y57168D01*
Y55168D01*
Y56501D02*
X35499Y57834D01*
X31501Y61833D02*
X32167Y60500D01*
X33500Y59167D01*
X34833D01*
X35499Y59834D01*
Y61166D01*
X34833Y61833D01*
X34166D01*
X33500Y61166D01*
Y59167D01*
X34833Y63166D02*
X35499Y63832D01*
Y65165D01*
X34833Y65832D01*
X32167D01*
X31501Y65165D01*
Y63832D01*
X32167Y63166D01*
X32834D01*
X33500Y63832D01*
Y65832D01*
X42999Y86668D02*
X39001D01*
Y88668D01*
X39667Y89334D01*
X41000D01*
X41666Y88668D01*
Y86668D01*
Y88001D02*
X42999Y89334D01*
X39001Y93333D02*
X39667Y92000D01*
X41000Y90667D01*
X42333D01*
X42999Y91334D01*
Y92666D01*
X42333Y93333D01*
X41666D01*
X41000Y92666D01*
Y90667D01*
X39667Y94666D02*
X39001Y95332D01*
Y96665D01*
X39667Y97332D01*
X40334D01*
X41000Y96665D01*
X41666Y97332D01*
X42333D01*
X42999Y96665D01*
Y95332D01*
X42333Y94666D01*
X41666D01*
X41000Y95332D01*
X40334Y94666D01*
X39667D01*
X41000Y95332D02*
Y96665D01*
X62168Y532701D02*
Y536699D01*
X64168D01*
X64834Y536033D01*
Y534700D01*
X64168Y534034D01*
X62168D01*
X63501D02*
X64834Y532701D01*
X68833Y536699D02*
X67500Y536033D01*
X66167Y534700D01*
Y533367D01*
X66834Y532701D01*
X68166D01*
X68833Y533367D01*
Y534034D01*
X68166Y534700D01*
X66167D01*
X70166Y536699D02*
X72832D01*
Y536033D01*
X70166Y533367D01*
Y532701D01*
X45599Y559468D02*
X41601D01*
Y561468D01*
X42267Y562134D01*
X43600D01*
X44266Y561468D01*
Y559468D01*
Y560801D02*
X45599Y562134D01*
X41601Y566133D02*
X42267Y564800D01*
X43600Y563467D01*
X44933D01*
X45599Y564134D01*
Y565466D01*
X44933Y566133D01*
X44266D01*
X43600Y565466D01*
Y563467D01*
X41601Y570132D02*
X42267Y568799D01*
X43600Y567466D01*
X44933D01*
X45599Y568132D01*
Y569465D01*
X44933Y570132D01*
X44266D01*
X43600Y569465D01*
Y567466D01*
X39001Y137332D02*
X42999D01*
Y135332D01*
X42333Y134666D01*
X41000D01*
X40334Y135332D01*
Y137332D01*
Y135999D02*
X39001Y134666D01*
X42999Y130667D02*
X42333Y132000D01*
X41000Y133333D01*
X39667D01*
X39001Y132667D01*
Y131333D01*
X39667Y130667D01*
X40334D01*
X41000Y131333D01*
Y133333D01*
X42999Y126668D02*
Y129334D01*
X41000D01*
X41666Y128001D01*
Y127335D01*
X41000Y126668D01*
X39667D01*
X39001Y127335D01*
Y128668D01*
X39667Y129334D01*
X30501Y107332D02*
X34499D01*
Y105332D01*
X33833Y104666D01*
X32500D01*
X31834Y105332D01*
Y107332D01*
Y105999D02*
X30501Y104666D01*
X34499Y100667D02*
X33833Y102000D01*
X32500Y103333D01*
X31167D01*
X30501Y102666D01*
Y101334D01*
X31167Y100667D01*
X31834D01*
X32500Y101334D01*
Y103333D01*
X30501Y97335D02*
X34499D01*
X32500Y99334D01*
Y96668D01*
X59868Y387601D02*
Y391599D01*
X61868D01*
X62534Y390933D01*
Y389600D01*
X61868Y388934D01*
X59868D01*
X61201D02*
X62534Y387601D01*
X66533Y391599D02*
X65200Y390933D01*
X63867Y389600D01*
Y388267D01*
X64534Y387601D01*
X65866D01*
X66533Y388267D01*
Y388934D01*
X65866Y389600D01*
X63867D01*
X67866Y390933D02*
X68532Y391599D01*
X69865D01*
X70532Y390933D01*
Y390266D01*
X69865Y389600D01*
X69199D01*
X69865D01*
X70532Y388934D01*
Y388267D01*
X69865Y387601D01*
X68532D01*
X67866Y388267D01*
X34168Y387001D02*
Y390999D01*
X36168D01*
X36834Y390333D01*
Y389000D01*
X36168Y388334D01*
X34168D01*
X35501D02*
X36834Y387001D01*
X40833Y390999D02*
X39500Y390333D01*
X38167Y389000D01*
Y387667D01*
X38834Y387001D01*
X40166D01*
X40833Y387667D01*
Y388334D01*
X40166Y389000D01*
X38167D01*
X44832Y387001D02*
X42166D01*
X44832Y389666D01*
Y390333D01*
X44165Y390999D01*
X42832D01*
X42166Y390333D01*
X109999Y156835D02*
X106001D01*
Y158834D01*
X106667Y159501D01*
X108000D01*
X108667Y158834D01*
Y156835D01*
Y158168D02*
X109999Y159501D01*
X106001Y163499D02*
X106667Y162167D01*
X108000Y160834D01*
X109333D01*
X109999Y161500D01*
Y162833D01*
X109333Y163499D01*
X108667D01*
X108000Y162833D01*
Y160834D01*
X109999Y164832D02*
Y166165D01*
Y165499D01*
X106001D01*
X106667Y164832D01*
X117999Y156668D02*
X114001D01*
Y158668D01*
X114667Y159334D01*
X116000D01*
X116666Y158668D01*
Y156668D01*
Y158001D02*
X117999Y159334D01*
X114001Y163333D02*
X114667Y162000D01*
X116000Y160667D01*
X117333D01*
X117999Y161334D01*
Y162666D01*
X117333Y163333D01*
X116666D01*
X116000Y162666D01*
Y160667D01*
X114667Y164666D02*
X114001Y165332D01*
Y166665D01*
X114667Y167332D01*
X117333D01*
X117999Y166665D01*
Y165332D01*
X117333Y164666D01*
X114667D01*
X126499Y159168D02*
X122501D01*
Y161168D01*
X123167Y161834D01*
X124500D01*
X125166Y161168D01*
Y159168D01*
Y160501D02*
X126499Y161834D01*
X122501Y165833D02*
Y163167D01*
X124500D01*
X123834Y164500D01*
Y165166D01*
X124500Y165833D01*
X125833D01*
X126499Y165166D01*
Y163833D01*
X125833Y163167D01*
Y167166D02*
X126499Y167832D01*
Y169165D01*
X125833Y169832D01*
X123167D01*
X122501Y169165D01*
Y167832D01*
X123167Y167166D01*
X123834D01*
X124500Y167832D01*
Y169832D01*
X134999Y159168D02*
X131001D01*
Y161168D01*
X131667Y161834D01*
X133000D01*
X133667Y161168D01*
Y159168D01*
Y160501D02*
X134999Y161834D01*
X131001Y165833D02*
Y163167D01*
X133000D01*
X132334Y164500D01*
Y165166D01*
X133000Y165833D01*
X134333D01*
X134999Y165166D01*
Y163833D01*
X134333Y163167D01*
X131667Y167166D02*
X131001Y167832D01*
Y169165D01*
X131667Y169832D01*
X132334D01*
X133000Y169165D01*
X133667Y169832D01*
X134333D01*
X134999Y169165D01*
Y167832D01*
X134333Y167166D01*
X133667D01*
X133000Y167832D01*
X132334Y167166D01*
X131667D01*
X133000Y167832D02*
Y169165D01*
X143499Y159168D02*
X139501D01*
Y161168D01*
X140167Y161834D01*
X141500D01*
X142166Y161168D01*
Y159168D01*
Y160501D02*
X143499Y161834D01*
X139501Y165833D02*
Y163167D01*
X141500D01*
X140833Y164500D01*
Y165166D01*
X141500Y165833D01*
X142833D01*
X143499Y165166D01*
Y163833D01*
X142833Y163167D01*
X139501Y167166D02*
Y169832D01*
X140167D01*
X142833Y167166D01*
X143499D01*
X151499Y154668D02*
X147501D01*
Y156668D01*
X148167Y157334D01*
X149500D01*
X150166Y156668D01*
Y154668D01*
Y156001D02*
X151499Y157334D01*
X147501Y161333D02*
Y158667D01*
X149500D01*
X148834Y160000D01*
Y160667D01*
X149500Y161333D01*
X150833D01*
X151499Y160667D01*
Y159334D01*
X150833Y158667D01*
X147501Y165332D02*
X148167Y163999D01*
X149500Y162666D01*
X150833D01*
X151499Y163332D01*
Y164665D01*
X150833Y165332D01*
X150166D01*
X149500Y164665D01*
Y162666D01*
X160499Y161168D02*
X156501D01*
Y163168D01*
X157167Y163834D01*
X158500D01*
X159167Y163168D01*
Y161168D01*
Y162501D02*
X160499Y163834D01*
X156501Y167833D02*
Y165167D01*
X158500D01*
X157834Y166500D01*
Y167166D01*
X158500Y167833D01*
X159833D01*
X160499Y167166D01*
Y165833D01*
X159833Y165167D01*
X156501Y171832D02*
Y169166D01*
X158500D01*
X157834Y170499D01*
Y171165D01*
X158500Y171832D01*
X159833D01*
X160499Y171165D01*
Y169832D01*
X159833Y169166D01*
X168999Y161168D02*
X165001D01*
Y163168D01*
X165667Y163834D01*
X167000D01*
X167666Y163168D01*
Y161168D01*
Y162501D02*
X168999Y163834D01*
X165001Y167833D02*
Y165167D01*
X167000D01*
X166333Y166500D01*
Y167166D01*
X167000Y167833D01*
X168333D01*
X168999Y167166D01*
Y165833D01*
X168333Y165167D01*
X168999Y171165D02*
X165001D01*
X167000Y169166D01*
Y171832D01*
X129499Y261168D02*
X125501D01*
Y263168D01*
X126167Y263834D01*
X127500D01*
X128166Y263168D01*
Y261168D01*
Y262501D02*
X129499Y263834D01*
X125501Y267833D02*
Y265167D01*
X127500D01*
X126833Y266500D01*
Y267166D01*
X127500Y267833D01*
X128833D01*
X129499Y267166D01*
Y265834D01*
X128833Y265167D01*
X126167Y269166D02*
X125501Y269832D01*
Y271165D01*
X126167Y271832D01*
X126833D01*
X127500Y271165D01*
Y270499D01*
Y271165D01*
X128166Y271832D01*
X128833D01*
X129499Y271165D01*
Y269832D01*
X128833Y269166D01*
X139499Y253168D02*
X135501D01*
Y255168D01*
X136167Y255834D01*
X137500D01*
X138166Y255168D01*
Y253168D01*
Y254501D02*
X139499Y255834D01*
X135501Y259833D02*
Y257167D01*
X137500D01*
X136834Y258500D01*
Y259166D01*
X137500Y259833D01*
X138833D01*
X139499Y259166D01*
Y257834D01*
X138833Y257167D01*
X139499Y263832D02*
Y261166D01*
X136834Y263832D01*
X136167D01*
X135501Y263165D01*
Y261832D01*
X136167Y261166D01*
X109499Y267835D02*
X105501D01*
Y269834D01*
X106167Y270501D01*
X107500D01*
X108167Y269834D01*
Y267835D01*
Y269168D02*
X109499Y270501D01*
X105501Y274499D02*
Y271834D01*
X107500D01*
X106834Y273166D01*
Y273833D01*
X107500Y274499D01*
X108833D01*
X109499Y273833D01*
Y272500D01*
X108833Y271834D01*
X109499Y275832D02*
Y277165D01*
Y276499D01*
X105501D01*
X106167Y275832D01*
X119499Y271668D02*
X115501D01*
Y273668D01*
X116167Y274334D01*
X117500D01*
X118166Y273668D01*
Y271668D01*
Y273001D02*
X119499Y274334D01*
X115501Y278333D02*
Y275667D01*
X117500D01*
X116833Y277000D01*
Y277666D01*
X117500Y278333D01*
X118833D01*
X119499Y277666D01*
Y276334D01*
X118833Y275667D01*
X116167Y279666D02*
X115501Y280332D01*
Y281665D01*
X116167Y282332D01*
X118833D01*
X119499Y281665D01*
Y280332D01*
X118833Y279666D01*
X116167D01*
X129499Y273668D02*
X125501D01*
Y275668D01*
X126167Y276334D01*
X127500D01*
X128166Y275668D01*
Y273668D01*
Y275001D02*
X129499Y276334D01*
Y279666D02*
X125501D01*
X127500Y277667D01*
Y280333D01*
X128833Y281666D02*
X129499Y282332D01*
Y283665D01*
X128833Y284332D01*
X126167D01*
X125501Y283665D01*
Y282332D01*
X126167Y281666D01*
X126833D01*
X127500Y282332D01*
Y284332D01*
X139499Y265668D02*
X135501D01*
Y267668D01*
X136167Y268334D01*
X137500D01*
X138166Y267668D01*
Y265668D01*
Y267001D02*
X139499Y268334D01*
Y271666D02*
X135501D01*
X137500Y269667D01*
Y272333D01*
X136167Y273666D02*
X135501Y274332D01*
Y275665D01*
X136167Y276332D01*
X136834D01*
X137500Y275665D01*
X138166Y276332D01*
X138833D01*
X139499Y275665D01*
Y274332D01*
X138833Y273666D01*
X138166D01*
X137500Y274332D01*
X136834Y273666D01*
X136167D01*
X137500Y274332D02*
Y275665D01*
X149499Y252668D02*
X145501D01*
Y254668D01*
X146167Y255334D01*
X147500D01*
X148167Y254668D01*
Y252668D01*
Y254001D02*
X149499Y255334D01*
Y258666D02*
X145501D01*
X147500Y256667D01*
Y259333D01*
X145501Y260666D02*
Y263332D01*
X146167D01*
X148833Y260666D01*
X149499D01*
X159499Y253168D02*
X155501D01*
Y255168D01*
X156167Y255834D01*
X157500D01*
X158167Y255168D01*
Y253168D01*
Y254501D02*
X159499Y255834D01*
Y259166D02*
X155501D01*
X157500Y257167D01*
Y259833D01*
X155501Y263832D02*
X156167Y262499D01*
X157500Y261166D01*
X158833D01*
X159499Y261832D01*
Y263165D01*
X158833Y263832D01*
X158167D01*
X157500Y263165D01*
Y261166D01*
X169499Y248668D02*
X165501D01*
Y250668D01*
X166167Y251334D01*
X167500D01*
X168166Y250668D01*
Y248668D01*
Y250001D02*
X169499Y251334D01*
Y254666D02*
X165501D01*
X167500Y252667D01*
Y255333D01*
X165501Y259332D02*
Y256666D01*
X167500D01*
X166833Y257999D01*
Y258665D01*
X167500Y259332D01*
X168833D01*
X169499Y258665D01*
Y257332D01*
X168833Y256666D01*
X179499Y248668D02*
X175501D01*
Y250668D01*
X176167Y251334D01*
X177500D01*
X178166Y250668D01*
Y248668D01*
Y250001D02*
X179499Y251334D01*
Y254666D02*
X175501D01*
X177500Y252667D01*
Y255333D01*
X179499Y258665D02*
X175501D01*
X177500Y256666D01*
Y259332D01*
X149499Y265668D02*
X145501D01*
Y267668D01*
X146167Y268334D01*
X147500D01*
X148167Y267668D01*
Y265668D01*
Y267001D02*
X149499Y268334D01*
Y271666D02*
X145501D01*
X147500Y269667D01*
Y272333D01*
X146167Y273666D02*
X145501Y274332D01*
Y275665D01*
X146167Y276332D01*
X146834D01*
X147500Y275665D01*
Y274999D01*
Y275665D01*
X148167Y276332D01*
X148833D01*
X149499Y275665D01*
Y274332D01*
X148833Y273666D01*
X159499Y265668D02*
X155501D01*
Y267668D01*
X156167Y268334D01*
X157500D01*
X158167Y267668D01*
Y265668D01*
Y267001D02*
X159499Y268334D01*
Y271666D02*
X155501D01*
X157500Y269667D01*
Y272333D01*
X159499Y276332D02*
Y273666D01*
X156834Y276332D01*
X156167D01*
X155501Y275665D01*
Y274332D01*
X156167Y273666D01*
X169499Y261335D02*
X165501D01*
Y263334D01*
X166167Y264001D01*
X167500D01*
X168166Y263334D01*
Y261335D01*
Y262668D02*
X169499Y264001D01*
Y267333D02*
X165501D01*
X167500Y265334D01*
Y267999D01*
X169499Y269332D02*
Y270665D01*
Y269999D01*
X165501D01*
X166167Y269332D01*
X179999Y261168D02*
X176001D01*
Y263168D01*
X176667Y263834D01*
X178000D01*
X178666Y263168D01*
Y261168D01*
Y262501D02*
X179999Y263834D01*
Y267166D02*
X176001D01*
X178000Y265167D01*
Y267833D01*
X176667Y269166D02*
X176001Y269832D01*
Y271165D01*
X176667Y271832D01*
X179333D01*
X179999Y271165D01*
Y269832D01*
X179333Y269166D01*
X176667D01*
X105468Y58601D02*
Y62599D01*
X107468D01*
X108134Y61933D01*
Y60600D01*
X107468Y59934D01*
X105468D01*
X106801D02*
X108134Y58601D01*
X109467Y61933D02*
X110134Y62599D01*
X111467D01*
X112133Y61933D01*
Y61266D01*
X111467Y60600D01*
X110800D01*
X111467D01*
X112133Y59934D01*
Y59267D01*
X111467Y58601D01*
X110134D01*
X109467Y59267D01*
X113466D02*
X114132Y58601D01*
X115465D01*
X116132Y59267D01*
Y61933D01*
X115465Y62599D01*
X114132D01*
X113466Y61933D01*
Y61266D01*
X114132Y60600D01*
X116132D01*
X52668Y53401D02*
Y57399D01*
X54668D01*
X55334Y56733D01*
Y55400D01*
X54668Y54734D01*
X52668D01*
X54001D02*
X55334Y53401D01*
X56667Y56733D02*
X57334Y57399D01*
X58666D01*
X59333Y56733D01*
Y56066D01*
X58666Y55400D01*
X58000D01*
X58666D01*
X59333Y54734D01*
Y54067D01*
X58666Y53401D01*
X57334D01*
X56667Y54067D01*
X60666Y57399D02*
X63332D01*
Y56733D01*
X60666Y54067D01*
Y53401D01*
X81668Y41101D02*
Y45099D01*
X83668D01*
X84334Y44433D01*
Y43100D01*
X83668Y42434D01*
X81668D01*
X83001D02*
X84334Y41101D01*
X85667Y44433D02*
X86334Y45099D01*
X87666D01*
X88333Y44433D01*
Y43766D01*
X87666Y43100D01*
X87000D01*
X87666D01*
X88333Y42434D01*
Y41767D01*
X87666Y41101D01*
X86334D01*
X85667Y41767D01*
X92332Y45099D02*
X90999Y44433D01*
X89666Y43100D01*
Y41767D01*
X90332Y41101D01*
X91665D01*
X92332Y41767D01*
Y42434D01*
X91665Y43100D01*
X89666D01*
X109668Y50401D02*
Y54399D01*
X111668D01*
X112334Y53733D01*
Y52400D01*
X111668Y51734D01*
X109668D01*
X111001D02*
X112334Y50401D01*
X113667Y53733D02*
X114333Y54399D01*
X115666D01*
X116333Y53733D01*
Y53066D01*
X115666Y52400D01*
X115000D01*
X115666D01*
X116333Y51734D01*
Y51067D01*
X115666Y50401D01*
X114333D01*
X113667Y51067D01*
X120332Y54399D02*
X117666D01*
Y52400D01*
X118999Y53066D01*
X119665D01*
X120332Y52400D01*
Y51067D01*
X119665Y50401D01*
X118332D01*
X117666Y51067D01*
X136499Y57168D02*
X132501D01*
Y59168D01*
X133167Y59834D01*
X134500D01*
X135167Y59168D01*
Y57168D01*
Y58501D02*
X136499Y59834D01*
X133167Y61167D02*
X132501Y61834D01*
Y63166D01*
X133167Y63833D01*
X133834D01*
X134500Y63166D01*
Y62500D01*
Y63166D01*
X135167Y63833D01*
X135833D01*
X136499Y63166D01*
Y61834D01*
X135833Y61167D01*
X136499Y67165D02*
X132501D01*
X134500Y65166D01*
Y67832D01*
X156668Y81501D02*
Y85499D01*
X158668D01*
X159334Y84833D01*
Y83500D01*
X158668Y82834D01*
X156668D01*
X158001D02*
X159334Y81501D01*
X160667Y84833D02*
X161334Y85499D01*
X162666D01*
X163333Y84833D01*
Y84166D01*
X162666Y83500D01*
X162000D01*
X162666D01*
X163333Y82834D01*
Y82167D01*
X162666Y81501D01*
X161334D01*
X160667Y82167D01*
X164666Y84833D02*
X165332Y85499D01*
X166665D01*
X167332Y84833D01*
Y84166D01*
X166665Y83500D01*
X165999D01*
X166665D01*
X167332Y82834D01*
Y82167D01*
X166665Y81501D01*
X165332D01*
X164666Y82167D01*
X144999Y57168D02*
X141001D01*
Y59168D01*
X141667Y59834D01*
X143000D01*
X143667Y59168D01*
Y57168D01*
Y58501D02*
X144999Y59834D01*
X141667Y61167D02*
X141001Y61834D01*
Y63166D01*
X141667Y63833D01*
X142333D01*
X143000Y63166D01*
Y62500D01*
Y63166D01*
X143667Y63833D01*
X144333D01*
X144999Y63166D01*
Y61834D01*
X144333Y61167D01*
X144999Y67832D02*
Y65166D01*
X142333Y67832D01*
X141667D01*
X141001Y67165D01*
Y65832D01*
X141667Y65166D01*
X135499Y122488D02*
X131501D01*
Y124487D01*
X132167Y125153D01*
X133500D01*
X134167Y124487D01*
Y122488D01*
Y123820D02*
X135499Y125153D01*
X132167Y126486D02*
X131501Y127153D01*
Y128486D01*
X132167Y129152D01*
X132834D01*
X133500Y128486D01*
Y127819D01*
Y128486D01*
X134167Y129152D01*
X134833D01*
X135499Y128486D01*
Y127153D01*
X134833Y126486D01*
X135499Y130485D02*
Y131818D01*
Y131151D01*
X131501D01*
X132167Y130485D01*
X143599Y121468D02*
X139601D01*
Y123468D01*
X140267Y124134D01*
X141600D01*
X142266Y123468D01*
Y121468D01*
Y122801D02*
X143599Y124134D01*
X140267Y125467D02*
X139601Y126134D01*
Y127466D01*
X140267Y128133D01*
X140934D01*
X141600Y127466D01*
Y126800D01*
Y127466D01*
X142266Y128133D01*
X142933D01*
X143599Y127466D01*
Y126134D01*
X142933Y125467D01*
X140267Y129466D02*
X139601Y130132D01*
Y131465D01*
X140267Y132132D01*
X142933D01*
X143599Y131465D01*
Y130132D01*
X142933Y129466D01*
X140267D01*
X190699Y66721D02*
X186701D01*
Y68721D01*
X187367Y69387D01*
X188700D01*
X189366Y68721D01*
Y66721D01*
Y68054D02*
X190699Y69387D01*
Y73386D02*
Y70720D01*
X188033Y73386D01*
X187367D01*
X186701Y72719D01*
Y71386D01*
X187367Y70720D01*
X190033Y74719D02*
X190699Y75385D01*
Y76718D01*
X190033Y77384D01*
X187367D01*
X186701Y76718D01*
Y75385D01*
X187367Y74719D01*
X188033D01*
X188700Y75385D01*
Y77384D01*
X194399Y121268D02*
X190401D01*
Y123268D01*
X191067Y123934D01*
X192400D01*
X193067Y123268D01*
Y121268D01*
Y122601D02*
X194399Y123934D01*
Y127933D02*
Y125267D01*
X191734Y127933D01*
X191067D01*
X190401Y127267D01*
Y125934D01*
X191067Y125267D01*
Y129266D02*
X190401Y129932D01*
Y131265D01*
X191067Y131932D01*
X191734D01*
X192400Y131265D01*
X193067Y131932D01*
X193733D01*
X194399Y131265D01*
Y129932D01*
X193733Y129266D01*
X193067D01*
X192400Y129932D01*
X191734Y129266D01*
X191067D01*
X192400Y129932D02*
Y131265D01*
X202499Y120768D02*
X198501D01*
Y122768D01*
X199167Y123434D01*
X200500D01*
X201167Y122768D01*
Y120768D01*
Y122101D02*
X202499Y123434D01*
Y127433D02*
Y124767D01*
X199834Y127433D01*
X199167D01*
X198501Y126767D01*
Y125434D01*
X199167Y124767D01*
X198501Y128766D02*
Y131432D01*
X199167D01*
X201833Y128766D01*
X202499D01*
X54668Y341001D02*
Y344999D01*
X56668D01*
X57334Y344333D01*
Y343000D01*
X56668Y342334D01*
X54668D01*
X56001D02*
X57334Y341001D01*
X61333D02*
X58667D01*
X61333Y343666D01*
Y344333D01*
X60666Y344999D01*
X59334D01*
X58667Y344333D01*
X65332Y344999D02*
X63999Y344333D01*
X62666Y343000D01*
Y341667D01*
X63332Y341001D01*
X64665D01*
X65332Y341667D01*
Y342334D01*
X64665Y343000D01*
X62666D01*
X57299Y297468D02*
X53301D01*
Y299468D01*
X53967Y300134D01*
X55300D01*
X55966Y299468D01*
Y297468D01*
Y298801D02*
X57299Y300134D01*
Y304133D02*
Y301467D01*
X54634Y304133D01*
X53967D01*
X53301Y303466D01*
Y302134D01*
X53967Y301467D01*
X53301Y308132D02*
Y305466D01*
X55300D01*
X54634Y306799D01*
Y307465D01*
X55300Y308132D01*
X56633D01*
X57299Y307465D01*
Y306132D01*
X56633Y305466D01*
X80668Y341001D02*
Y344999D01*
X82668D01*
X83334Y344333D01*
Y343000D01*
X82668Y342334D01*
X80668D01*
X82001D02*
X83334Y341001D01*
X87333D02*
X84667D01*
X87333Y343666D01*
Y344333D01*
X86666Y344999D01*
X85334D01*
X84667Y344333D01*
X90665Y341001D02*
Y344999D01*
X88666Y343000D01*
X91332D01*
X68499Y284168D02*
X64501D01*
Y286168D01*
X65167Y286834D01*
X66500D01*
X67166Y286168D01*
Y284168D01*
Y285501D02*
X68499Y286834D01*
Y290833D02*
Y288167D01*
X65834Y290833D01*
X65167D01*
X64501Y290166D01*
Y288834D01*
X65167Y288167D01*
Y292166D02*
X64501Y292832D01*
Y294165D01*
X65167Y294832D01*
X65834D01*
X66500Y294165D01*
Y293499D01*
Y294165D01*
X67166Y294832D01*
X67833D01*
X68499Y294165D01*
Y292832D01*
X67833Y292166D01*
X74999Y284168D02*
X71001D01*
Y286168D01*
X71667Y286834D01*
X73000D01*
X73666Y286168D01*
Y284168D01*
Y285501D02*
X74999Y286834D01*
Y290833D02*
Y288167D01*
X72334Y290833D01*
X71667D01*
X71001Y290166D01*
Y288834D01*
X71667Y288167D01*
X74999Y294832D02*
Y292166D01*
X72334Y294832D01*
X71667D01*
X71001Y294165D01*
Y292832D01*
X71667Y292166D01*
X163635Y293201D02*
Y297199D01*
X165634D01*
X166301Y296533D01*
Y295200D01*
X165634Y294534D01*
X163635D01*
X164968D02*
X166301Y293201D01*
X170299D02*
X167633D01*
X170299Y295866D01*
Y296533D01*
X169633Y297199D01*
X168300D01*
X167633Y296533D01*
X171632Y293201D02*
X172965D01*
X172299D01*
Y297199D01*
X171632Y296533D01*
X149268Y293301D02*
Y297299D01*
X151268D01*
X151934Y296633D01*
Y295300D01*
X151268Y294634D01*
X149268D01*
X150601D02*
X151934Y293301D01*
X155933D02*
X153267D01*
X155933Y295966D01*
Y296633D01*
X155266Y297299D01*
X153934D01*
X153267Y296633D01*
X157266D02*
X157932Y297299D01*
X159265D01*
X159932Y296633D01*
Y293967D01*
X159265Y293301D01*
X157932D01*
X157266Y293967D01*
Y296633D01*
X133002Y290501D02*
Y294499D01*
X135001D01*
X135667Y293833D01*
Y292500D01*
X135001Y291834D01*
X133002D01*
X134335D02*
X135667Y290501D01*
X137000D02*
X138333D01*
X137667D01*
Y294499D01*
X137000Y293833D01*
X140333Y291167D02*
X140999Y290501D01*
X142332D01*
X142998Y291167D01*
Y293833D01*
X142332Y294499D01*
X140999D01*
X140333Y293833D01*
Y293166D01*
X140999Y292500D01*
X142998D01*
X120002Y293001D02*
Y296999D01*
X122001D01*
X122667Y296333D01*
Y295000D01*
X122001Y294334D01*
X120002D01*
X121335D02*
X122667Y293001D01*
X124000D02*
X125333D01*
X124667D01*
Y296999D01*
X124000Y296333D01*
X127333D02*
X127999Y296999D01*
X129332D01*
X129998Y296333D01*
Y295666D01*
X129332Y295000D01*
X129998Y294334D01*
Y293667D01*
X129332Y293001D01*
X127999D01*
X127333Y293667D01*
Y294334D01*
X127999Y295000D01*
X127333Y295666D01*
Y296333D01*
X127999Y295000D02*
X129332D01*
X121899Y300002D02*
X117901D01*
Y302001D01*
X118567Y302667D01*
X119900D01*
X120566Y302001D01*
Y300002D01*
Y301335D02*
X121899Y302667D01*
Y304000D02*
Y305333D01*
Y304667D01*
X117901D01*
X118567Y304000D01*
X117901Y307333D02*
Y309998D01*
X118567D01*
X121233Y307333D01*
X121899D01*
X149202Y287201D02*
Y291199D01*
X151201D01*
X151867Y290533D01*
Y289200D01*
X151201Y288534D01*
X149202D01*
X150534D02*
X151867Y287201D01*
X153200D02*
X154533D01*
X153867D01*
Y291199D01*
X153200Y290533D01*
X159198Y291199D02*
X157866Y290533D01*
X156533Y289200D01*
Y287867D01*
X157199Y287201D01*
X158532D01*
X159198Y287867D01*
Y288534D01*
X158532Y289200D01*
X156533D01*
X119702Y286901D02*
Y290899D01*
X121701D01*
X122367Y290233D01*
Y288900D01*
X121701Y288234D01*
X119702D01*
X121035D02*
X122367Y286901D01*
X123700D02*
X125033D01*
X124367D01*
Y290899D01*
X123700Y290233D01*
X129698Y290899D02*
X127033D01*
Y288900D01*
X128366Y289566D01*
X129032D01*
X129698Y288900D01*
Y287567D01*
X129032Y286901D01*
X127699D01*
X127033Y287567D01*
X198002Y424001D02*
Y427999D01*
X200001D01*
X200667Y427333D01*
Y426000D01*
X200001Y425334D01*
X198002D01*
X199335D02*
X200667Y424001D01*
X202000D02*
X203333D01*
X202667D01*
Y427999D01*
X202000Y427333D01*
X207332Y424001D02*
Y427999D01*
X205333Y426000D01*
X207998D01*
X185002Y419001D02*
Y422999D01*
X187001D01*
X187667Y422333D01*
Y421000D01*
X187001Y420334D01*
X185002D01*
X186335D02*
X187667Y419001D01*
X189000D02*
X190333D01*
X189667D01*
Y422999D01*
X189000Y422333D01*
X192333D02*
X192999Y422999D01*
X194332D01*
X194998Y422333D01*
Y421666D01*
X194332Y421000D01*
X193666D01*
X194332D01*
X194998Y420334D01*
Y419667D01*
X194332Y419001D01*
X192999D01*
X192333Y419667D01*
X169002Y415501D02*
Y419499D01*
X171001D01*
X171667Y418833D01*
Y417500D01*
X171001Y416834D01*
X169002D01*
X170334D02*
X171667Y415501D01*
X173000D02*
X174333D01*
X173667D01*
Y419499D01*
X173000Y418833D01*
X178998Y415501D02*
X176333D01*
X178998Y418166D01*
Y418833D01*
X178332Y419499D01*
X176999D01*
X176333Y418833D01*
X157068Y412501D02*
Y416499D01*
X159067D01*
X159734Y415833D01*
Y414500D01*
X159067Y413834D01*
X157068D01*
X158401D02*
X159734Y412501D01*
X161067D02*
X162400D01*
X161733D01*
Y416499D01*
X161067Y415833D01*
X164399Y412501D02*
X165732D01*
X165066D01*
Y416499D01*
X164399Y415833D01*
X159899Y426902D02*
X155901D01*
Y428901D01*
X156567Y429567D01*
X157900D01*
X158566Y428901D01*
Y426902D01*
Y428234D02*
X159899Y429567D01*
Y430900D02*
Y432233D01*
Y431567D01*
X155901D01*
X156567Y430900D01*
Y434233D02*
X155901Y434899D01*
Y436232D01*
X156567Y436898D01*
X159233D01*
X159899Y436232D01*
Y434899D01*
X159233Y434233D01*
X156567D01*
X185668Y413001D02*
Y416999D01*
X187667D01*
X188333Y416333D01*
Y415000D01*
X187667Y414334D01*
X185668D01*
X187001D02*
X188333Y413001D01*
X189666Y413667D02*
X190333Y413001D01*
X191666D01*
X192332Y413667D01*
Y416333D01*
X191666Y416999D01*
X190333D01*
X189666Y416333D01*
Y415666D01*
X190333Y415000D01*
X192332D01*
X157068Y418501D02*
Y422499D01*
X159067D01*
X159733Y421833D01*
Y420500D01*
X159067Y419834D01*
X157068D01*
X158401D02*
X159733Y418501D01*
X161066Y421833D02*
X161733Y422499D01*
X163066D01*
X163732Y421833D01*
Y421166D01*
X163066Y420500D01*
X163732Y419834D01*
Y419167D01*
X163066Y418501D01*
X161733D01*
X161066Y419167D01*
Y419834D01*
X161733Y420500D01*
X161066Y421166D01*
Y421833D01*
X161733Y420500D02*
X163066D01*
X91168Y412001D02*
Y415999D01*
X93167D01*
X93834Y415333D01*
Y414000D01*
X93167Y413334D01*
X91168D01*
X92501D02*
X93834Y412001D01*
X95166Y415999D02*
X97832D01*
Y415333D01*
X95166Y412667D01*
Y412001D01*
X112668Y413001D02*
Y416999D01*
X114667D01*
X115333Y416333D01*
Y415000D01*
X114667Y414334D01*
X112668D01*
X114001D02*
X115333Y413001D01*
X119332Y416999D02*
X117999Y416333D01*
X116666Y415000D01*
Y413667D01*
X117333Y413001D01*
X118666D01*
X119332Y413667D01*
Y414334D01*
X118666Y415000D01*
X116666D01*
X122168Y423501D02*
Y427499D01*
X124167D01*
X124834Y426833D01*
Y425500D01*
X124167Y424834D01*
X122168D01*
X123501D02*
X124834Y423501D01*
X128832Y427499D02*
X126166D01*
Y425500D01*
X127499Y426166D01*
X128166D01*
X128832Y425500D01*
Y424167D01*
X128166Y423501D01*
X126833D01*
X126166Y424167D01*
X112668Y419001D02*
Y422999D01*
X114667D01*
X115333Y422333D01*
Y421000D01*
X114667Y420334D01*
X112668D01*
X114001D02*
X115333Y419001D01*
X118666D02*
Y422999D01*
X116666Y421000D01*
X119332D01*
X100168Y415001D02*
Y418999D01*
X102167D01*
X102833Y418333D01*
Y417000D01*
X102167Y416334D01*
X100168D01*
X101501D02*
X102833Y415001D01*
X104166Y418333D02*
X104833Y418999D01*
X106166D01*
X106832Y418333D01*
Y417666D01*
X106166Y417000D01*
X105499D01*
X106166D01*
X106832Y416334D01*
Y415667D01*
X106166Y415001D01*
X104833D01*
X104166Y415667D01*
X91168Y418001D02*
Y421999D01*
X93167D01*
X93834Y421333D01*
Y420000D01*
X93167Y419334D01*
X91168D01*
X92501D02*
X93834Y418001D01*
X97832D02*
X95166D01*
X97832Y420666D01*
Y421333D01*
X97166Y421999D01*
X95833D01*
X95166Y421333D01*
X85834Y432001D02*
Y435999D01*
X87834D01*
X88500Y435333D01*
Y434000D01*
X87834Y433334D01*
X85834D01*
X87167D02*
X88500Y432001D01*
X89833D02*
X91166D01*
X90499D01*
Y435999D01*
X89833Y435333D01*
X239034Y584167D02*
Y586833D01*
X238367Y587499D01*
X237034D01*
X236368Y586833D01*
Y584167D01*
X237034Y583501D01*
X238367D01*
X237701Y584834D02*
X239034Y583501D01*
X238367D02*
X239034Y584167D01*
X240367Y586833D02*
X241033Y587499D01*
X242366D01*
X243032Y586833D01*
Y586166D01*
X242366Y585500D01*
X241699D01*
X242366D01*
X243032Y584834D01*
Y584167D01*
X242366Y583501D01*
X241033D01*
X240367Y584167D01*
X42734Y584567D02*
Y587233D01*
X42067Y587899D01*
X40734D01*
X40068Y587233D01*
Y584567D01*
X40734Y583901D01*
X42067D01*
X41401Y585234D02*
X42734Y583901D01*
X42067D02*
X42734Y584567D01*
X46732Y583901D02*
X44067D01*
X46732Y586566D01*
Y587233D01*
X46066Y587899D01*
X44733D01*
X44067Y587233D01*
X67600Y446922D02*
Y449588D01*
X66934Y450254D01*
X65601D01*
X64934Y449588D01*
Y446922D01*
X65601Y446256D01*
X66934D01*
X66267Y447589D02*
X67600Y446256D01*
X66934D02*
X67600Y446922D01*
X68933Y446256D02*
X70266D01*
X69599D01*
Y450254D01*
X68933Y449588D01*
X97500Y381999D02*
X96167D01*
X96834D01*
Y378667D01*
X96167Y378001D01*
X95501D01*
X94834Y378667D01*
X98833Y378001D02*
X100166D01*
X99499D01*
Y381999D01*
X98833Y381333D01*
X109301Y206402D02*
Y207734D01*
Y207068D01*
X113299D01*
Y206402D01*
Y207734D01*
X109967Y212400D02*
X109301Y211733D01*
Y210400D01*
X109967Y209734D01*
X112633D01*
X113299Y210400D01*
Y211733D01*
X112633Y212400D01*
X113299Y215732D02*
X109301D01*
X111300Y213733D01*
Y216398D01*
X99501Y390502D02*
Y391834D01*
Y391168D01*
X103499D01*
Y390502D01*
Y391834D01*
X100167Y396500D02*
X99501Y395833D01*
Y394500D01*
X100167Y393834D01*
X102833D01*
X103499Y394500D01*
Y395833D01*
X102833Y396500D01*
X100167Y397833D02*
X99501Y398499D01*
Y399832D01*
X100167Y400498D01*
X100834D01*
X101500Y399832D01*
Y399166D01*
Y399832D01*
X102166Y400498D01*
X102833D01*
X103499Y399832D01*
Y398499D01*
X102833Y397833D01*
X214001Y516502D02*
Y517835D01*
Y517168D01*
X217999D01*
Y516502D01*
Y517835D01*
X214667Y522500D02*
X214001Y521833D01*
Y520500D01*
X214667Y519834D01*
X217333D01*
X217999Y520500D01*
Y521833D01*
X217333Y522500D01*
X217999Y526498D02*
Y523833D01*
X215334Y526498D01*
X214667D01*
X214001Y525832D01*
Y524499D01*
X214667Y523833D01*
X68501Y512168D02*
Y513501D01*
Y512835D01*
X72499D01*
Y512168D01*
Y513501D01*
X69167Y518166D02*
X68501Y517500D01*
Y516167D01*
X69167Y515500D01*
X71833D01*
X72499Y516167D01*
Y517500D01*
X71833Y518166D01*
X72499Y519499D02*
Y520832D01*
Y520165D01*
X68501D01*
X69167Y519499D01*
X267534Y554399D02*
X264868D01*
Y552400D01*
X266201D01*
X264868D01*
Y550401D01*
X268866Y553733D02*
X269533Y554399D01*
X270866D01*
X271532Y553733D01*
Y553066D01*
X270866Y552400D01*
X270199D01*
X270866D01*
X271532Y551734D01*
Y551067D01*
X270866Y550401D01*
X269533D01*
X268866Y551067D01*
X7534Y553999D02*
X4868D01*
Y552000D01*
X6201D01*
X4868D01*
Y550001D01*
X11532D02*
X8867D01*
X11532Y552666D01*
Y553333D01*
X10866Y553999D01*
X9533D01*
X8867Y553333D01*
X48200Y468399D02*
X45534D01*
Y466400D01*
X46867D01*
X45534D01*
Y464401D01*
X49533D02*
X50866D01*
X50199D01*
Y468399D01*
X49533Y467733D01*
X94668Y16999D02*
Y13001D01*
X96668D01*
X97334Y13667D01*
Y16333D01*
X96668Y16999D01*
X94668D01*
X101333Y16333D02*
X100666Y16999D01*
X99334D01*
X98667Y16333D01*
Y15666D01*
X99334Y15000D01*
X100666D01*
X101333Y14333D01*
Y13667D01*
X100666Y13001D01*
X99334D01*
X98667Y13667D01*
X105332Y16999D02*
X103999Y16333D01*
X102666Y15000D01*
Y13667D01*
X103332Y13001D01*
X104665D01*
X105332Y13667D01*
Y14333D01*
X104665Y15000D01*
X102666D01*
X94668Y24499D02*
Y20501D01*
X96668D01*
X97334Y21167D01*
Y23833D01*
X96668Y24499D01*
X94668D01*
X101333Y23833D02*
X100666Y24499D01*
X99334D01*
X98667Y23833D01*
Y23167D01*
X99334Y22500D01*
X100666D01*
X101333Y21834D01*
Y21167D01*
X100666Y20501D01*
X99334D01*
X98667Y21167D01*
X105332Y24499D02*
X102666D01*
Y22500D01*
X103999Y23167D01*
X104665D01*
X105332Y22500D01*
Y21167D01*
X104665Y20501D01*
X103332D01*
X102666Y21167D01*
X94668Y9999D02*
Y6001D01*
X96668D01*
X97334Y6667D01*
Y9333D01*
X96668Y9999D01*
X94668D01*
X101333Y9333D02*
X100666Y9999D01*
X99334D01*
X98667Y9333D01*
Y8666D01*
X99334Y8000D01*
X100666D01*
X101333Y7333D01*
Y6667D01*
X100666Y6001D01*
X99334D01*
X98667Y6667D01*
X104665Y6001D02*
Y9999D01*
X102666Y8000D01*
X105332D01*
X214668Y537499D02*
Y533501D01*
X216668D01*
X217334Y534167D01*
Y536833D01*
X216668Y537499D01*
X214668D01*
X221333Y536833D02*
X220666Y537499D01*
X219334D01*
X218667Y536833D01*
Y536166D01*
X219334Y535500D01*
X220666D01*
X221333Y534834D01*
Y534167D01*
X220666Y533501D01*
X219334D01*
X218667Y534167D01*
X222666Y536833D02*
X223332Y537499D01*
X224665D01*
X225332Y536833D01*
Y536166D01*
X224665Y535500D01*
X223999D01*
X224665D01*
X225332Y534834D01*
Y534167D01*
X224665Y533501D01*
X223332D01*
X222666Y534167D01*
X48668Y536799D02*
Y532801D01*
X50668D01*
X51334Y533467D01*
Y536133D01*
X50668Y536799D01*
X48668D01*
X55333Y536133D02*
X54666Y536799D01*
X53334D01*
X52667Y536133D01*
Y535466D01*
X53334Y534800D01*
X54666D01*
X55333Y534134D01*
Y533467D01*
X54666Y532801D01*
X53334D01*
X52667Y533467D01*
X59332Y532801D02*
X56666D01*
X59332Y535466D01*
Y536133D01*
X58665Y536799D01*
X57332D01*
X56666Y536133D01*
X53635Y384699D02*
Y380701D01*
X55634D01*
X56301Y381367D01*
Y384033D01*
X55634Y384699D01*
X53635D01*
X60299Y384033D02*
X59633Y384699D01*
X58300D01*
X57634Y384033D01*
Y383366D01*
X58300Y382700D01*
X59633D01*
X60299Y382034D01*
Y381367D01*
X59633Y380701D01*
X58300D01*
X57634Y381367D01*
X61632Y380701D02*
X62965D01*
X62299D01*
Y384699D01*
X61632Y384033D01*
X93167Y304834D02*
X92501Y304168D01*
Y302835D01*
X93167Y302168D01*
X95833D01*
X96499Y302835D01*
Y304168D01*
X95833Y304834D01*
X96499Y308833D02*
Y306167D01*
X93834Y308833D01*
X93167D01*
X92501Y308166D01*
Y306834D01*
X93167Y306167D01*
X95833Y310166D02*
X96499Y310832D01*
Y312165D01*
X95833Y312832D01*
X93167D01*
X92501Y312165D01*
Y310832D01*
X93167Y310166D01*
X93834D01*
X94500Y310832D01*
Y312832D01*
X50667Y130834D02*
X50001Y130168D01*
Y128835D01*
X50667Y128168D01*
X53333D01*
X53999Y128835D01*
Y130168D01*
X53333Y130834D01*
X53999Y134833D02*
Y132167D01*
X51334Y134833D01*
X50667D01*
X50001Y134167D01*
Y132834D01*
X50667Y132167D01*
Y136166D02*
X50001Y136832D01*
Y138165D01*
X50667Y138832D01*
X51334D01*
X52000Y138165D01*
X52666Y138832D01*
X53333D01*
X53999Y138165D01*
Y136832D01*
X53333Y136166D01*
X52666D01*
X52000Y136832D01*
X51334Y136166D01*
X50667D01*
X52000Y136832D02*
Y138165D01*
X241167Y37334D02*
X240501Y36668D01*
Y35335D01*
X241167Y34668D01*
X243833D01*
X244499Y35335D01*
Y36668D01*
X243833Y37334D01*
X244499Y41333D02*
Y38667D01*
X241834Y41333D01*
X241167D01*
X240501Y40666D01*
Y39334D01*
X241167Y38667D01*
X240501Y42666D02*
Y45332D01*
X241167D01*
X243833Y42666D01*
X244499D01*
X40167Y57834D02*
X39501Y57168D01*
Y55835D01*
X40167Y55168D01*
X42833D01*
X43499Y55835D01*
Y57168D01*
X42833Y57834D01*
X43499Y61833D02*
Y59167D01*
X40834Y61833D01*
X40167D01*
X39501Y61166D01*
Y59834D01*
X40167Y59167D01*
X39501Y65832D02*
X40167Y64499D01*
X41500Y63166D01*
X42833D01*
X43499Y63832D01*
Y65165D01*
X42833Y65832D01*
X42166D01*
X41500Y65165D01*
Y63166D01*
X34333Y133666D02*
X34999Y134332D01*
Y135665D01*
X34333Y136332D01*
X31667D01*
X31001Y135665D01*
Y134332D01*
X31667Y133666D01*
X31001Y129667D02*
Y132333D01*
X33666Y129667D01*
X34333D01*
X34999Y130333D01*
Y131667D01*
X34333Y132333D01*
X34999Y125668D02*
Y128334D01*
X33000D01*
X33666Y127001D01*
Y126335D01*
X33000Y125668D01*
X31667D01*
X31001Y126335D01*
Y127668D01*
X31667Y128334D01*
X169167Y210834D02*
X168501Y210168D01*
Y208835D01*
X169167Y208168D01*
X171833D01*
X172499Y208835D01*
Y210168D01*
X171833Y210834D01*
X172499Y214833D02*
Y212167D01*
X169834Y214833D01*
X169167D01*
X168501Y214166D01*
Y212834D01*
X169167Y212167D01*
X172499Y218165D02*
X168501D01*
X170500Y216166D01*
Y218832D01*
X132334Y241333D02*
X131668Y241999D01*
X130335D01*
X129668Y241333D01*
Y238667D01*
X130335Y238001D01*
X131668D01*
X132334Y238667D01*
X136333Y238001D02*
X133667D01*
X136333Y240666D01*
Y241333D01*
X135667Y241999D01*
X134334D01*
X133667Y241333D01*
X137666D02*
X138332Y241999D01*
X139665D01*
X140332Y241333D01*
Y240666D01*
X139665Y240000D01*
X138999D01*
X139665D01*
X140332Y239334D01*
Y238667D01*
X139665Y238001D01*
X138332D01*
X137666Y238667D01*
X119834Y241333D02*
X119168Y241999D01*
X117835D01*
X117168Y241333D01*
Y238667D01*
X117835Y238001D01*
X119168D01*
X119834Y238667D01*
X123833Y238001D02*
X121167D01*
X123833Y240666D01*
Y241333D01*
X123167Y241999D01*
X121834D01*
X121167Y241333D01*
X127832Y238001D02*
X125166D01*
X127832Y240666D01*
Y241333D01*
X127165Y241999D01*
X125832D01*
X125166Y241333D01*
X108501Y238333D02*
X107834Y238999D01*
X106501D01*
X105835Y238333D01*
Y235667D01*
X106501Y235001D01*
X107834D01*
X108501Y235667D01*
X112499Y235001D02*
X109834D01*
X112499Y237666D01*
Y238333D01*
X111833Y238999D01*
X110500D01*
X109834Y238333D01*
X113832Y235001D02*
X115165D01*
X114499D01*
Y238999D01*
X113832Y238333D01*
X95334D02*
X94668Y238999D01*
X93335D01*
X92668Y238333D01*
Y235667D01*
X93335Y235001D01*
X94668D01*
X95334Y235667D01*
X99333Y235001D02*
X96667D01*
X99333Y237666D01*
Y238333D01*
X98666Y238999D01*
X97334D01*
X96667Y238333D01*
X100666D02*
X101332Y238999D01*
X102665D01*
X103332Y238333D01*
Y235667D01*
X102665Y235001D01*
X101332D01*
X100666Y235667D01*
Y238333D01*
X181204Y241312D02*
X180548Y241968D01*
X179236D01*
X178580Y241312D01*
Y238688D01*
X179236Y238032D01*
X180548D01*
X181204Y238688D01*
X182516Y238032D02*
X183828D01*
X183172D01*
Y241968D01*
X182516Y241312D01*
X185796Y238688D02*
X186452Y238032D01*
X187764D01*
X188420Y238688D01*
Y241312D01*
X187764Y241968D01*
X186452D01*
X185796Y241312D01*
Y240656D01*
X186452Y240000D01*
X188420D01*
X169167Y241333D02*
X168501Y241999D01*
X167168D01*
X166502Y241333D01*
Y238667D01*
X167168Y238001D01*
X168501D01*
X169167Y238667D01*
X170500Y238001D02*
X171833D01*
X171167D01*
Y241999D01*
X170500Y241333D01*
X173833D02*
X174499Y241999D01*
X175832D01*
X176498Y241333D01*
Y240666D01*
X175832Y240000D01*
X176498Y239334D01*
Y238667D01*
X175832Y238001D01*
X174499D01*
X173833Y238667D01*
Y239334D01*
X174499Y240000D01*
X173833Y240666D01*
Y241333D01*
X174499Y240000D02*
X175832D01*
X157167Y241333D02*
X156501Y241999D01*
X155168D01*
X154502Y241333D01*
Y238667D01*
X155168Y238001D01*
X156501D01*
X157167Y238667D01*
X158500Y238001D02*
X159833D01*
X159167D01*
Y241999D01*
X158500Y241333D01*
X161833Y241999D02*
X164498D01*
Y241333D01*
X161833Y238667D01*
Y238001D01*
X145167Y241333D02*
X144501Y241999D01*
X143168D01*
X142502Y241333D01*
Y238667D01*
X143168Y238001D01*
X144501D01*
X145167Y238667D01*
X146500Y238001D02*
X147833D01*
X147167D01*
Y241999D01*
X146500Y241333D01*
X152498Y241999D02*
X151165Y241333D01*
X149833Y240000D01*
Y238667D01*
X150499Y238001D01*
X151832D01*
X152498Y238667D01*
Y239334D01*
X151832Y240000D01*
X149833D01*
X97367Y79567D02*
X96701Y78901D01*
Y77568D01*
X97367Y76902D01*
X100033D01*
X100699Y77568D01*
Y78901D01*
X100033Y79567D01*
X100699Y80900D02*
Y82233D01*
Y81567D01*
X96701D01*
X97367Y80900D01*
X96701Y86898D02*
Y84233D01*
X98700D01*
X98034Y85566D01*
Y86232D01*
X98700Y86898D01*
X100033D01*
X100699Y86232D01*
Y84899D01*
X100033Y84233D01*
X57667Y64933D02*
X57001Y65599D01*
X55668D01*
X55002Y64933D01*
Y62267D01*
X55668Y61601D01*
X57001D01*
X57667Y62267D01*
X59000Y61601D02*
X60333D01*
X59667D01*
Y65599D01*
X59000Y64933D01*
X64332Y61601D02*
Y65599D01*
X62333Y63600D01*
X64998D01*
X148667Y122167D02*
X148001Y121501D01*
Y120168D01*
X148667Y119502D01*
X151333D01*
X151999Y120168D01*
Y121501D01*
X151333Y122167D01*
X151999Y123500D02*
Y124833D01*
Y124167D01*
X148001D01*
X148667Y123500D01*
Y126833D02*
X148001Y127499D01*
Y128832D01*
X148667Y129498D01*
X149334D01*
X150000Y128832D01*
Y128165D01*
Y128832D01*
X150666Y129498D01*
X151333D01*
X151999Y128832D01*
Y127499D01*
X151333Y126833D01*
X150167Y60167D02*
X149501Y59501D01*
Y58168D01*
X150167Y57502D01*
X152833D01*
X153499Y58168D01*
Y59501D01*
X152833Y60167D01*
X153499Y61500D02*
Y62833D01*
Y62167D01*
X149501D01*
X150167Y61500D01*
X153499Y67498D02*
Y64833D01*
X150833Y67498D01*
X150167D01*
X149501Y66832D01*
Y65499D01*
X150167Y64833D01*
X161334Y106333D02*
X160667Y106999D01*
X159335D01*
X158668Y106333D01*
Y103667D01*
X159335Y103001D01*
X160667D01*
X161334Y103667D01*
X162667Y103001D02*
X164000D01*
X163333D01*
Y106999D01*
X162667Y106333D01*
X165999Y103001D02*
X167332D01*
X166665D01*
Y106999D01*
X165999Y106333D01*
X196367Y69267D02*
X195701Y68601D01*
Y67268D01*
X196367Y66602D01*
X199033D01*
X199699Y67268D01*
Y68601D01*
X199033Y69267D01*
X199699Y70600D02*
Y71933D01*
Y71267D01*
X195701D01*
X196367Y70600D01*
Y73933D02*
X195701Y74599D01*
Y75932D01*
X196367Y76598D01*
X199033D01*
X199699Y75932D01*
Y74599D01*
X199033Y73933D01*
X196367D01*
X205167Y72834D02*
X204501Y72167D01*
Y70834D01*
X205167Y70168D01*
X207833D01*
X208499Y70834D01*
Y72167D01*
X207833Y72834D01*
Y74167D02*
X208499Y74833D01*
Y76166D01*
X207833Y76832D01*
X205167D01*
X204501Y76166D01*
Y74833D01*
X205167Y74167D01*
X205834D01*
X206500Y74833D01*
Y76832D01*
X62167Y324334D02*
X61501Y323667D01*
Y322334D01*
X62167Y321668D01*
X64833D01*
X65499Y322334D01*
Y323667D01*
X64833Y324334D01*
X62167Y325666D02*
X61501Y326333D01*
Y327666D01*
X62167Y328332D01*
X62834D01*
X63500Y327666D01*
X64166Y328332D01*
X64833D01*
X65499Y327666D01*
Y326333D01*
X64833Y325666D01*
X64166D01*
X63500Y326333D01*
X62834Y325666D01*
X62167D01*
X63500Y326333D02*
Y327666D01*
X93667Y336334D02*
X93001Y335667D01*
Y334334D01*
X93667Y333668D01*
X96333D01*
X96999Y334334D01*
Y335667D01*
X96333Y336334D01*
X93001Y337667D02*
Y340332D01*
X93667D01*
X96333Y337667D01*
X96999D01*
X177167Y328834D02*
X176501Y328167D01*
Y326834D01*
X177167Y326168D01*
X179833D01*
X180499Y326834D01*
Y328167D01*
X179833Y328834D01*
X176501Y332832D02*
X177167Y331499D01*
X178500Y330167D01*
X179833D01*
X180499Y330833D01*
Y332166D01*
X179833Y332832D01*
X179166D01*
X178500Y332166D01*
Y330167D01*
X177333Y300333D02*
X176667Y300999D01*
X175334D01*
X174668Y300333D01*
Y297667D01*
X175334Y297001D01*
X176667D01*
X177333Y297667D01*
X181332Y300999D02*
X178666D01*
Y299000D01*
X179999Y299666D01*
X180666D01*
X181332Y299000D01*
Y297667D01*
X180666Y297001D01*
X179333D01*
X178666Y297667D01*
X216667Y498834D02*
X216001Y498167D01*
Y496834D01*
X216667Y496168D01*
X219333D01*
X219999Y496834D01*
Y498167D01*
X219333Y498834D01*
X219999Y502166D02*
X216001D01*
X218000Y500167D01*
Y502832D01*
X216334Y434833D02*
X215667Y435499D01*
X214334D01*
X213668Y434833D01*
Y432167D01*
X214334Y431501D01*
X215667D01*
X216334Y432167D01*
X217667Y434833D02*
X218333Y435499D01*
X219666D01*
X220332Y434833D01*
Y434166D01*
X219666Y433500D01*
X218999D01*
X219666D01*
X220332Y432834D01*
Y432167D01*
X219666Y431501D01*
X218333D01*
X217667Y432167D01*
X65167Y466834D02*
X64501Y466167D01*
Y464834D01*
X65167Y464168D01*
X67833D01*
X68499Y464834D01*
Y466167D01*
X67833Y466834D01*
X68499Y470832D02*
Y468166D01*
X65834Y470832D01*
X65167D01*
X64501Y470166D01*
Y468833D01*
X65167Y468166D01*
X137500Y426833D02*
X136834Y427499D01*
X135501D01*
X134834Y426833D01*
Y424167D01*
X135501Y423501D01*
X136834D01*
X137500Y424167D01*
X138833Y423501D02*
X140166D01*
X139499D01*
Y427499D01*
X138833Y426833D01*
X11502Y244499D02*
X9502D01*
X10502D01*
Y239501D01*
X9502Y238501D01*
X8503D01*
X7503Y239501D01*
X13501Y238501D02*
X15500D01*
X14501D01*
Y244499D01*
X13501Y243499D01*
X18499D02*
X19499Y244499D01*
X21499D01*
X22498Y243499D01*
Y239501D01*
X21499Y238501D01*
X19499D01*
X18499Y239501D01*
Y243499D01*
X24498Y238501D02*
X26497D01*
X25497D01*
Y244499D01*
X24498Y243499D01*
X252002Y243499D02*
X250003D01*
X251002D01*
Y238501D01*
X250003Y237501D01*
X249003D01*
X248003Y238501D01*
X254001Y237501D02*
X256001D01*
X255001D01*
Y243499D01*
X254001Y242499D01*
X259000D02*
X259999Y243499D01*
X261999D01*
X262999Y242499D01*
Y238501D01*
X261999Y237501D01*
X259999D01*
X259000Y238501D01*
Y242499D01*
X268997Y237501D02*
X264998D01*
X268997Y241500D01*
Y242499D01*
X267997Y243499D01*
X265998D01*
X264998Y242499D01*
D16*
X166000Y9999D02*
Y4000D01*
Y9999D02*
X168285Y4000D01*
X170571Y9999D02*
X168285Y4000D01*
X170571Y9999D02*
Y4000D01*
X176284Y9142D02*
X175712Y9713D01*
X174855Y9999D01*
X173713D01*
X172856Y9713D01*
X172284Y9142D01*
Y8570D01*
X172570Y7999D01*
X172856Y7713D01*
X173427Y7428D01*
X175141Y6857D01*
X175712Y6571D01*
X175998Y6285D01*
X176284Y5714D01*
Y4857D01*
X175712Y4286D01*
X174855Y4000D01*
X173713D01*
X172856Y4286D01*
X172284Y4857D01*
X177626Y8856D02*
X178197Y9142D01*
X179054Y9999D01*
Y4000D01*
X182025Y6571D02*
X187167D01*
X188938Y9999D02*
X191223Y4000D01*
X193508Y9999D02*
X191223Y4000D01*
X194565Y8570D02*
Y8856D01*
X194851Y9427D01*
X195137Y9713D01*
X195708Y9999D01*
X196851D01*
X197422Y9713D01*
X197707Y9427D01*
X197993Y8856D01*
Y8285D01*
X197707Y7713D01*
X197136Y6857D01*
X194280Y4000D01*
X198279D01*
X204335Y6857D02*
X206906D01*
X207763Y7142D01*
X208048Y7428D01*
X208334Y7999D01*
Y8856D01*
X208048Y9427D01*
X207763Y9713D01*
X206906Y9999D01*
X204335D01*
Y4000D01*
X209962Y4571D02*
X209676Y4286D01*
X209962Y4000D01*
X210248Y4286D01*
X209962Y4571D01*
X211562Y9999D02*
Y4000D01*
Y9999D02*
X213847Y4000D01*
X216132Y9999D02*
X213847Y4000D01*
X216132Y9999D02*
Y4000D01*
X217846Y9999D02*
Y4000D01*
X223673D02*
X221388Y9999D01*
X219103Y4000D01*
X219960Y6000D02*
X222816D01*
X225073Y9999D02*
Y4000D01*
X226330Y9999D02*
Y4000D01*
X229758D01*
X230415Y9999D02*
Y4000D01*
X234414Y9999D02*
Y4000D01*
X230415Y7142D02*
X234414D01*
X239784Y9999D02*
X236071D01*
Y4000D01*
X239784D01*
X236071Y7142D02*
X238356D01*
M02*
