M48
;Layer_Color=9474304
;FILE_FORMAT=2:5
INCH,LZ
;TYPE=PLATED
T01F00S00C0.00787
T02F00S00C0.01968
T03F00S00C0.03543
T04F00S00C0.04016
T05F00S00C0.04213
T06F00S00C0.12500
;TYPE=NON_PLATED
T07F00S00C0.12008
%
T01
X0139535Y0094135
X0143865
Y0098465
X0139535
T02
X0061Y00085
X009
Y00155
Y00225
X0095Y00515
X008Y0049
X0080086Y006953
X0074Y00695
X00685
Y0086
X00765Y00945
X00575Y0107
X0052Y01085
X0046Y00975
X00365Y01005
X0034Y00695
X00415Y0069
X0065Y0037
X0104Y00715
X01115Y00875
X01215Y0085
X01345Y0071
X0143
X01515
X0153Y00855
X01665Y00905
X0166Y00985
X01555Y01045
X01295
X01695Y00725
X01835Y0082
X01955Y00915
X0212Y00815
X0235Y00745
Y00485
X0242
X022Y0058
X02055Y0052
X0146Y0018
X01545Y0116
X01605Y01405
X01625Y016
X0151Y0168
X0145337Y0171604
X0116Y01705
X01305Y0148
X0134Y0142
X01135Y01305
X01865Y0132
X0186Y01575
X01855Y0167
X0186589Y0172589
X01925Y0153
X02365Y01625
Y01735
Y01845
X02375Y0211
Y0215685
Y0221
X0258Y0243
X02125Y0203
X01705Y0205
X01765Y01945
X0168Y01875
X0158Y0201
X0163Y0222
X0181Y0223
X01575Y025
X01475
X01375
X01275Y02505
Y0258
X01175Y02545
X011723Y0249192
X0111Y02415
X01175Y02225
X02205Y01175
X0248Y0143
X01005Y0137
X0083Y01455
X0072
X005Y0153
X0052Y0125
X00575Y012
X0041Y0123
X00355Y0122
X0044Y0202
X0062Y0217
Y02225
X0096
X01015Y02115
X00945Y02475
X01075Y0251136
X0080491Y0239388
X00785Y0263
X009583Y0164045
X01025Y0269
X00945Y02825
Y02975
X0082Y031
X00765Y0308
X007Y02965
X00785Y0271
X00205Y0266
X00345Y0382
X0047606Y03915
X0051623Y0389106
X00575Y04075
X00801Y03979
X0086Y03715
X0093Y03305
X01062Y03207
X0123937Y0311904
X0141368Y03075
X0137Y0298
X01325Y0269
X01425
X01525
X01625
X01725
X0175749Y0307293
X0177581Y0312282
X0169Y0316
X0164795Y0309227
X0167Y0333486
X0173Y03375
X0178Y03555
X01635Y0362
X01725Y03735
X02
Y0341
X02125Y03
X02145Y041
X02155Y04185
X0210312Y0419653
X02195Y0415
X01525Y0417
X01495Y041
X0158Y04065
X0158975Y0395475
X0155Y03955
X0151
X0147374Y0389
X0131626
X0128Y03955
X0124
X0120307
X0126Y04125
X01225Y0269
X01125
X02545Y03705
X021Y04275
X0194911Y0427911
X0175Y04235
X0178934Y0437393
X0206Y0447
X02095Y0455
X02175Y04505
Y0492
X02185Y05095
X0198Y0521
X0194
X0189894
X0186Y0515
X0171
X01665Y0521
X01625
X01585
X0128
X0124
X012
X0115952Y0515
X01395Y04945
X0147
X0150284Y04615
X01355Y0461
Y0447
X0145
X01445Y04345
X01335Y04365
X0117837Y0436996
X0203Y05445
X0211Y05385
X023Y05335
X0241Y0526
X00965Y0521
X00925
X00885
X0084Y05145
X00595Y05055
X00525Y05225
X00475Y05415
X0044Y05445
X00595Y04745
X00695Y04565
X0077Y04555
X00745Y0447
X00795Y04355
X0109137Y0437704
X0105Y04225
X00125Y04375
Y0456
T03
X0012795Y0048386
Y0058386
Y0068386
Y0078386
Y0088386
Y0098386
Y0108386
X0022795
Y0098386
Y0088386
Y0078386
Y0068386
Y0058386
Y0048386
X0252795
Y0058386
Y0068386
Y0078386
Y0088386
Y0098386
Y0108386
X0262795
Y0098386
Y0088386
Y0078386
Y0068386
Y0058386
Y0048386
Y0118386
Y0128386
Y0138386
Y0148386
Y0158386
Y0168386
Y0178386
Y0188386
Y0198386
Y0208386
Y0218386
Y0228386
X0252795
Y0218386
Y0208386
Y0198386
Y0188386
Y0178386
Y0168386
Y0158386
Y0148386
Y0138386
Y0128386
Y0118386
X0022795
Y0128386
Y0138386
Y0148386
Y0158386
Y0168386
Y0178386
Y0188386
Y0198386
Y0208386
Y0218386
Y0228386
X0012795
Y0218386
Y0208386
Y0198386
Y0188386
Y0178386
Y0168386
Y0158386
Y0148386
Y0138386
Y0128386
Y0118386
X00661Y0362
X0075942
X0085785
T04
X0063307Y0116425
Y0126425
X0073307
X0083307
X0093307
X0103307
Y0116425
X0093307
X0083307
X0073307
T05
X003823Y0273694
Y0285506
Y0313695
Y0325505
Y0353695
Y0365506
Y0420495
X023747
Y0361606
Y0349795
Y0321605
Y0309794
Y0281606
Y0269795
Y0432305
Y0460595
Y0472405
Y0500595
Y0512405
X0184106Y0552292
X0172294
X0144106
X0132294
X01041Y05523
X0092289
X003823Y0512405
Y0500595
Y0472405
Y0460595
Y0432305
T06
X0019685Y0019685
X0172795Y0038386
X0255906Y0019685
X0232795Y0238386
X0042795Y0243386
X0076807Y0193425
X0019685Y0393701
X0200307Y0395614
X0255906Y0393701
Y0570866
X0019685
T07
X0021222Y02796
Y03196
Y03596
X0254478Y03557
Y03157
Y02757
Y04264
Y04665
Y05065
X01782Y05693
X01382
X0098194Y0569308
X0021222Y05065
Y04665
Y04264
M30
