G04*
G04 #@! TF.GenerationSoftware,Altium Limited,Altium Designer,23.7.1 (13)*
G04*
G04 Layer_Color=32768*
%FSLAX44Y44*%
%MOMM*%
G71*
G04*
G04 #@! TF.SameCoordinates,9AC6D79B-6B5E-4FBD-9D38-37E555C90168*
G04*
G04*
G04 #@! TF.FilePolarity,Positive*
G04*
G01*
G75*
%ADD10C,0.2000*%
%ADD13C,0.1000*%
%ADD200C,0.1270*%
%ADD201C,0.1524*%
%ADD202C,0.0100*%
D10*
X227258Y256350D02*
G03*
X227258Y256350I-1000J0D01*
G01*
X1174030Y626480D02*
Y640980D01*
X1196030D01*
Y626480D02*
Y640980D01*
X1174030Y626480D02*
X1196030D01*
X1549740Y280970D02*
X1592240D01*
X1549740Y254970D02*
Y280970D01*
Y254970D02*
X1592240D01*
Y280970D01*
X737489Y380365D02*
Y391795D01*
X710311Y380365D02*
X737489D01*
X710311D02*
Y391795D01*
X737489D01*
X1434760Y91140D02*
Y117140D01*
X1392260Y91140D02*
X1434760D01*
X1392260D02*
Y117140D01*
X1434760D01*
X1551010Y536240D02*
X1593510D01*
X1551010Y510240D02*
Y536240D01*
Y510240D02*
X1593510D01*
Y536240D01*
X1646260Y533700D02*
X1688760D01*
X1646260Y507700D02*
Y533700D01*
Y507700D02*
X1688760D01*
Y533700D01*
X1288210Y552820D02*
X1310210D01*
Y567320D01*
X1288210D02*
X1310210D01*
X1288210Y552820D02*
Y567320D01*
X421970Y87770D02*
Y105270D01*
Y87770D02*
X431470D01*
Y105270D01*
X421970D02*
X431470D01*
X390030Y68910D02*
X407530D01*
Y78410D01*
X390030D02*
X407530D01*
X390030Y68910D02*
Y78410D01*
X412420Y86500D02*
Y104000D01*
X402920D02*
X412420D01*
X402920Y86500D02*
Y104000D01*
Y86500D02*
X412420D01*
X388010Y169760D02*
X407010D01*
Y180760D01*
X388010D02*
X407010D01*
X388010Y169760D02*
Y180760D01*
X304510Y106410D02*
Y167910D01*
Y106410D02*
X350810D01*
Y167910D01*
X304510D02*
X350810D01*
X466190Y125890D02*
Y145890D01*
Y125890D02*
X478690D01*
Y145890D01*
X466190D02*
X478690D01*
X487780Y125890D02*
Y145890D01*
Y125890D02*
X500280D01*
Y145890D01*
X487780D02*
X500280D01*
X356530Y309580D02*
Y335580D01*
X377530D01*
Y309580D02*
Y335580D01*
X356530Y309580D02*
X377530D01*
X308991Y395605D02*
X336169D01*
X308991Y384175D02*
Y395605D01*
Y384175D02*
X336169D01*
Y395605D01*
X174360Y79170D02*
Y101170D01*
Y79170D02*
X188860D01*
Y101170D01*
X174360D02*
X188860D01*
Y110920D02*
Y132920D01*
X174360D02*
X188860D01*
X174360Y110920D02*
Y132920D01*
Y110920D02*
X188860D01*
X207910D02*
Y132920D01*
X193410D02*
X207910D01*
X193410Y110920D02*
Y132920D01*
Y110920D02*
X207910D01*
X193410Y79170D02*
Y101170D01*
Y79170D02*
X207910D01*
Y101170D01*
X193410D02*
X207910D01*
X1592020Y404830D02*
Y430830D01*
X1549520Y404830D02*
X1592020D01*
X1549520D02*
Y430830D01*
X1592020D01*
X1689360Y403560D02*
Y429560D01*
X1646860Y403560D02*
X1689360D01*
X1646860D02*
Y429560D01*
X1689360D01*
X1693840Y149560D02*
Y175560D01*
X1651340Y149560D02*
X1693840D01*
X1651340D02*
Y175560D01*
X1693840D01*
X1592840Y149560D02*
Y175560D01*
X1550340Y149560D02*
X1592840D01*
X1550340D02*
Y175560D01*
X1592840D01*
X1693840Y254970D02*
Y280970D01*
X1651340Y254970D02*
X1693840D01*
X1651340D02*
Y280970D01*
X1693840D01*
X1392260Y225090D02*
X1434760D01*
X1392260Y199090D02*
Y225090D01*
Y199090D02*
X1434760D01*
Y225090D01*
X1327810Y182340D02*
Y193340D01*
X1346810D01*
Y182340D02*
Y193340D01*
X1327810Y182340D02*
X1346810D01*
X1364080Y209710D02*
X1376580D01*
X1364080D02*
Y229710D01*
X1376580D01*
Y209710D02*
Y229710D01*
X1362810Y101760D02*
X1375310D01*
X1362810D02*
Y121760D01*
X1375310D01*
Y101760D02*
Y121760D01*
X545440Y428840D02*
Y439840D01*
X526440Y428840D02*
X545440D01*
X526440D02*
Y439840D01*
X545440D01*
X560680Y245960D02*
Y256960D01*
X541680Y245960D02*
X560680D01*
X541680D02*
Y256960D01*
X560680D01*
X618070Y250850D02*
X629070D01*
X618070D02*
Y269850D01*
X629070D01*
Y250850D02*
Y269850D01*
X658470Y315810D02*
Y326810D01*
X639470Y315810D02*
X658470D01*
X639470D02*
Y326810D01*
X658470D01*
X407035Y533019D02*
X418465D01*
Y505841D02*
Y533019D01*
X407035Y505841D02*
X418465D01*
X407035D02*
Y533019D01*
X887095Y156591D02*
X898525D01*
X887095D02*
Y183769D01*
X898525D01*
Y156591D02*
Y183769D01*
X1338199Y357505D02*
Y368935D01*
X1311021Y357505D02*
X1338199D01*
X1311021D02*
Y368935D01*
X1338199D01*
X747649Y478155D02*
Y489585D01*
X720471Y478155D02*
X747649D01*
X720471D02*
Y489585D01*
X747649D01*
X1810600Y597560D02*
X1821600D01*
X1810600D02*
Y616560D01*
X1821600D01*
Y597560D02*
Y616560D01*
X474100Y428570D02*
Y437570D01*
X491100D01*
Y428570D02*
Y437570D01*
X474100Y428570D02*
X491100D01*
X132715Y267081D02*
X144145D01*
X132715D02*
Y294259D01*
X144145D01*
Y267081D02*
Y294259D01*
X172860Y272720D02*
X190360D01*
X172860Y263220D02*
Y272720D01*
Y263220D02*
X190360D01*
Y272720D01*
X1293520Y467780D02*
X1312520D01*
X1293520Y456780D02*
Y467780D01*
Y456780D02*
X1312520D01*
Y467780D01*
X761150Y404520D02*
Y423520D01*
X750150D02*
X761150D01*
X750150Y404520D02*
Y423520D01*
Y404520D02*
X761150D01*
X240665Y276479D02*
X252095D01*
Y249301D02*
Y276479D01*
X240665Y249301D02*
X252095D01*
X240665D02*
Y276479D01*
X585089Y506095D02*
Y517525D01*
X557911Y506095D02*
X585089D01*
X557911D02*
Y517525D01*
X585089D01*
X484505Y536829D02*
X495935D01*
Y509651D02*
Y536829D01*
X484505Y509651D02*
X495935D01*
X484505D02*
Y536829D01*
X636430Y298550D02*
X656430D01*
Y311050D01*
X636430D02*
X656430D01*
X636430Y298550D02*
Y311050D01*
X636930Y252310D02*
X655930D01*
Y263310D01*
X636930D02*
X655930D01*
X636930Y252310D02*
Y263310D01*
X634060Y270650D02*
Y288150D01*
Y270650D02*
X643560D01*
Y288150D01*
X634060D02*
X643560D01*
X473290Y368960D02*
X484290D01*
X473290D02*
Y387960D01*
X484290D01*
Y368960D02*
Y387960D01*
X473290Y319430D02*
X484290D01*
X473290D02*
Y338430D01*
X484290D01*
Y319430D02*
Y338430D01*
X198580Y367670D02*
Y377670D01*
X192580D02*
X198580D01*
X192580Y367670D02*
Y377670D01*
Y367670D02*
X198580D01*
X192580Y388700D02*
Y398700D01*
Y388700D02*
X198580D01*
Y398700D01*
X192580D02*
X198580D01*
Y421720D02*
Y431720D01*
X192580D02*
X198580D01*
X192580Y421720D02*
Y431720D01*
Y421720D02*
X198580D01*
Y492280D02*
Y502280D01*
X192580D02*
X198580D01*
X192580Y492280D02*
Y502280D01*
Y492280D02*
X198580D01*
Y522760D02*
Y532760D01*
X192580D02*
X198580D01*
X192580Y522760D02*
Y532760D01*
Y522760D02*
X198580D01*
Y547450D02*
Y557450D01*
X192580D02*
X198580D01*
X192580Y547450D02*
Y557450D01*
Y547450D02*
X198580D01*
X1627720Y567080D02*
X1638720D01*
X1627720D02*
Y586080D01*
X1638720D01*
Y567080D02*
Y586080D01*
X579970Y140310D02*
X590970D01*
Y121310D02*
Y140310D01*
X579970Y121310D02*
X590970D01*
X579970D02*
Y140310D01*
X664850Y92680D02*
Y120680D01*
X630550Y92680D02*
X664850D01*
X630550D02*
Y120680D01*
X664850D01*
X1396070Y357170D02*
X1438570D01*
X1396070Y331170D02*
Y357170D01*
Y331170D02*
X1438570D01*
Y357170D01*
X1361540Y343060D02*
X1374040D01*
X1361540D02*
Y363060D01*
X1374040D01*
Y343060D02*
Y363060D01*
X1396070Y472740D02*
X1438570D01*
X1396070Y446740D02*
Y472740D01*
Y446740D02*
X1438570D01*
Y472740D01*
X1361540Y457360D02*
X1374040D01*
X1361540D02*
Y477360D01*
X1374040D01*
Y457360D02*
Y477360D01*
X197270Y460400D02*
Y479400D01*
X186270D02*
X197270D01*
X186270Y460400D02*
Y479400D01*
Y460400D02*
X197270D01*
D13*
X413510Y155700D02*
G03*
X413510Y155700I-5000J0D01*
G01*
X527560Y640660D02*
Y649660D01*
X544560Y640660D02*
Y649660D01*
X527560Y640660D02*
X544560D01*
X527560Y649660D02*
X544560D01*
X499440Y84560D02*
X508940D01*
X499440Y101060D02*
X508940D01*
Y84560D02*
Y101060D01*
X499440Y84560D02*
Y101060D01*
X1725290Y593420D02*
Y602920D01*
X1708790Y593420D02*
Y602920D01*
X1725290D01*
X1708790Y593420D02*
X1725290D01*
X1645960Y615920D02*
X1663660D01*
X1645960Y605820D02*
X1663660D01*
Y615920D01*
X1645960Y605820D02*
Y615920D01*
X534160Y84510D02*
X551160D01*
X534160Y75510D02*
X551160D01*
Y84510D01*
X534160Y75510D02*
Y84510D01*
X1646310Y622880D02*
X1663310D01*
X1646310Y631880D02*
X1663310D01*
X1646310Y622880D02*
Y631880D01*
X1663310Y622880D02*
Y631880D01*
X1917700Y242575D02*
Y306070D01*
Y242575D02*
X1917704Y242570D01*
X1981200D01*
Y306070D01*
X1981200Y306070D02*
X1981200Y306070D01*
X1917697Y306070D02*
X1981200D01*
X2065701Y247820D02*
Y300820D01*
X1981200Y300730D02*
X2065701D01*
X1981200Y247820D02*
X2065701D01*
X1916430Y571505D02*
Y635000D01*
Y571505D02*
X1916434Y571500D01*
X1979930D01*
Y635000D01*
X1979930Y635000D02*
X1979930Y635000D01*
X1916427Y635000D02*
X1979930D01*
X2064431Y576750D02*
Y629750D01*
X1979930Y629660D02*
X2064431D01*
X1979930Y576750D02*
X2064431D01*
X1655090Y100990D02*
X1678090Y77990D01*
X1655090D02*
Y142990D01*
X1690090D01*
Y77990D02*
Y142990D01*
X1655090Y77990D02*
X1690090D01*
X1602650Y600480D02*
Y666980D01*
X1540450Y600480D02*
Y666980D01*
X1602650D01*
X1540450Y600480D02*
X1602650D01*
X1619390Y535000D02*
X1636890D01*
X1619390Y544500D02*
X1636890D01*
X1619390Y535000D02*
Y544500D01*
X1636890Y535000D02*
Y544500D01*
X1650830Y557740D02*
X1661330D01*
X1650830Y552240D02*
X1661330D01*
Y557740D01*
X1650830Y552240D02*
Y557740D01*
X1678060Y615370D02*
X1695060D01*
X1678060Y606370D02*
X1695060D01*
Y615370D01*
X1678060Y606370D02*
Y615370D01*
X1698930Y625130D02*
Y642630D01*
X1689430Y625130D02*
Y642630D01*
Y625130D02*
X1698930D01*
X1689430Y642630D02*
X1698930D01*
X1652100Y658070D02*
X1662600D01*
X1652100Y652570D02*
X1662600D01*
Y658070D01*
X1652100Y652570D02*
Y658070D01*
X1609600Y683950D02*
X1626600D01*
X1609600Y674950D02*
X1626600D01*
Y683950D01*
X1609600Y674950D02*
Y683950D01*
X1698930Y653820D02*
Y671320D01*
X1689430Y653820D02*
Y671320D01*
Y653820D02*
X1698930D01*
X1689430Y671320D02*
X1698930D01*
X447370Y99200D02*
Y116700D01*
X456870Y99200D02*
Y116700D01*
X447370D02*
X456870D01*
X447370Y99200D02*
X456870D01*
X447370Y128410D02*
Y145910D01*
X456870Y128410D02*
Y145910D01*
X447370D02*
X456870D01*
X447370Y128410D02*
X456870D01*
X363550Y86500D02*
Y104000D01*
X373050Y86500D02*
Y104000D01*
X363550D02*
X373050D01*
X363550Y86500D02*
X373050D01*
X387680D02*
Y104000D01*
X397180Y86500D02*
Y104000D01*
X387680D02*
X397180D01*
X387680Y86500D02*
X397180D01*
X417510Y114700D02*
Y164700D01*
X377510Y114700D02*
Y164700D01*
X417510D01*
X377510Y114700D02*
X417510D01*
X560280Y153500D02*
Y164000D01*
X554780Y153500D02*
Y164000D01*
Y153500D02*
X560280D01*
X554780Y164000D02*
X560280D01*
X343590Y311170D02*
Y328170D01*
X334590Y311170D02*
Y328170D01*
Y311170D02*
X343590D01*
X334590Y328170D02*
X343590D01*
X517220Y40410D02*
X526720D01*
X517220Y57910D02*
X526720D01*
Y40410D02*
Y57910D01*
X517220Y40410D02*
Y57910D01*
X495510Y55710D02*
Y66210D01*
X490010Y55710D02*
Y66210D01*
Y55710D02*
X495510D01*
X490010Y66210D02*
X495510D01*
X517220Y68720D02*
X526720D01*
X517220Y86220D02*
X526720D01*
Y68720D02*
Y86220D01*
X517220Y68720D02*
Y86220D01*
X538210Y94560D02*
Y103560D01*
X521210Y94560D02*
Y103560D01*
X538210D01*
X521210Y94560D02*
X538210D01*
X213690Y90310D02*
Y107810D01*
X223190Y90310D02*
Y107810D01*
X213690D02*
X223190D01*
X213690Y90310D02*
X223190D01*
X1554760Y77990D02*
X1589760D01*
Y142990D01*
X1554760D02*
X1589760D01*
X1554760Y77990D02*
Y142990D01*
Y100990D02*
X1577760Y77990D01*
X1655090Y180860D02*
X1690090D01*
Y245860D01*
X1655090D02*
X1690090D01*
X1655090Y180860D02*
Y245860D01*
Y203860D02*
X1678090Y180860D01*
X1556030Y182130D02*
X1591030D01*
Y247130D01*
X1556030D02*
X1591030D01*
X1556030Y182130D02*
Y247130D01*
Y205130D02*
X1579030Y182130D01*
X1723709Y200490D02*
X1763708D01*
X1717210Y193992D02*
X1723709Y200490D01*
X1717210Y147490D02*
Y193992D01*
X1770210Y147490D02*
Y193988D01*
X1763708Y200490D02*
X1770208Y193990D01*
X1717210Y147490D02*
X1770210D01*
X1616850Y63830D02*
Y73330D01*
X1634350Y63830D02*
Y73330D01*
X1616850Y63830D02*
X1634350D01*
X1616850Y73330D02*
X1634350D01*
X1515250Y66370D02*
Y75870D01*
X1532750Y66370D02*
Y75870D01*
X1515250Y66370D02*
X1532750D01*
X1515250Y75870D02*
X1532750D01*
X1641970Y293700D02*
Y303200D01*
X1624470Y293700D02*
Y303200D01*
X1641970D01*
X1624470Y293700D02*
X1641970D01*
X1516710Y206870D02*
X1526210D01*
X1516710Y189370D02*
X1526210D01*
X1516710D02*
Y206870D01*
X1526210Y189370D02*
Y206870D01*
X1452000Y258390D02*
Y267390D01*
X1469000Y258390D02*
Y267390D01*
X1452000Y258390D02*
X1469000D01*
X1452000Y267390D02*
X1469000D01*
X1452000Y283790D02*
Y292790D01*
X1469000Y283790D02*
Y292790D01*
X1452000Y283790D02*
X1469000D01*
X1452000Y292790D02*
X1469000D01*
X1390200Y244740D02*
X1429200D01*
Y293740D01*
X1390200D02*
X1429200D01*
X1390200Y244740D02*
Y293740D01*
Y257440D02*
X1402900Y244740D01*
X1343990Y209570D02*
X1353490D01*
X1343990Y227070D02*
X1353490D01*
Y209570D02*
Y227070D01*
X1343990Y209570D02*
Y227070D01*
X1450730Y174570D02*
Y183570D01*
X1467730Y174570D02*
Y183570D01*
X1450730Y174570D02*
X1467730D01*
X1450730Y183570D02*
X1467730D01*
X1450785Y149361D02*
Y158361D01*
X1467785Y149361D02*
Y158361D01*
X1450785Y149361D02*
X1467785D01*
X1450785Y158361D02*
X1467785D01*
X1420000Y239750D02*
X1437500D01*
X1420000Y230150D02*
X1437500D01*
Y239750D01*
X1420000Y230150D02*
Y239750D01*
X1388930Y135520D02*
X1427930D01*
Y184520D01*
X1388930D02*
X1427930D01*
X1388930Y135520D02*
Y184520D01*
Y148220D02*
X1401630Y135520D01*
X1420000Y130530D02*
X1437500D01*
X1420000Y120930D02*
X1437500D01*
Y130530D01*
X1420000Y120930D02*
Y130530D01*
X1298270Y220720D02*
X1307770D01*
X1298270Y203220D02*
X1307770D01*
X1298270D02*
Y220720D01*
X1307770Y203220D02*
Y220720D01*
X1294270Y184480D02*
Y193980D01*
X1311770Y184480D02*
Y193980D01*
X1294270Y184480D02*
X1311770D01*
X1294270Y193980D02*
X1311770D01*
X1311960Y203590D02*
Y220590D01*
Y203590D02*
X1331960D01*
Y220590D01*
X1311960D02*
X1331960D01*
X1311960Y216590D02*
X1315960Y220590D01*
X358530Y296600D02*
X375530D01*
X358530Y287600D02*
X375530D01*
Y296600D01*
X358530Y287600D02*
Y296600D01*
X528710Y275010D02*
X545710D01*
X528710Y266010D02*
X545710D01*
Y275010D01*
X528710Y266010D02*
Y275010D01*
X1083030Y599580D02*
Y617080D01*
X1073430Y599580D02*
Y617080D01*
Y599580D02*
X1083030D01*
X1073430Y617080D02*
X1083030D01*
X767850Y417160D02*
Y492160D01*
Y417160D02*
X895850D01*
Y492160D01*
X767850D02*
X895850D01*
X767850Y479460D02*
X780550Y492160D01*
X516680Y271610D02*
Y282110D01*
X522180Y271610D02*
Y282110D01*
X516680D02*
X522180D01*
X516680Y271610D02*
X522180D01*
X521580Y255850D02*
Y264850D01*
X504580Y255850D02*
Y264850D01*
X521580D01*
X504580Y255850D02*
X521580D01*
X528110Y281770D02*
Y292270D01*
X533610Y281770D02*
Y292270D01*
X528110D02*
X533610D01*
X528110Y281770D02*
X533610D01*
X797770Y372880D02*
Y383380D01*
X792270Y372880D02*
Y383380D01*
Y372880D02*
X797770D01*
X792270Y383380D02*
X797770D01*
X811740Y373210D02*
Y383710D01*
X806240Y373210D02*
Y383710D01*
Y373210D02*
X811740D01*
X806240Y383710D02*
X811740D01*
X825710Y373210D02*
Y383710D01*
X820210Y373210D02*
Y383710D01*
Y373210D02*
X825710D01*
X820210Y383710D02*
X825710D01*
X888790Y383380D02*
X894290D01*
X888790Y372880D02*
X894290D01*
X888790D02*
Y383380D01*
X894290Y372880D02*
Y383380D01*
X876090Y382770D02*
X881590D01*
X876090Y372270D02*
X881590D01*
X876090D02*
Y382770D01*
X881590Y372270D02*
Y382770D01*
X862120D02*
X867620D01*
X862120Y372270D02*
X867620D01*
X862120D02*
Y382770D01*
X867620Y372270D02*
Y382770D01*
X848150Y383380D02*
X853650D01*
X848150Y372880D02*
X853650D01*
X848150D02*
Y383380D01*
X853650Y372880D02*
Y383380D01*
X832910D02*
X838410D01*
X832910Y372880D02*
X838410D01*
X832910D02*
Y383380D01*
X838410Y372880D02*
Y383380D01*
X497700Y282270D02*
Y291770D01*
X480200Y282270D02*
Y291770D01*
X497700D01*
X480200Y282270D02*
X497700D01*
X176670Y186870D02*
X194170D01*
X176670Y196370D02*
X194170D01*
X176670Y186870D02*
Y196370D01*
X194170Y186870D02*
Y196370D01*
X144920Y174320D02*
X162420D01*
X144920Y183820D02*
X162420D01*
X144920Y174320D02*
Y183820D01*
X162420Y174320D02*
Y183820D01*
X154000Y262880D02*
Y280380D01*
X163500Y262880D02*
Y280380D01*
X154000D02*
X163500D01*
X154000Y262880D02*
X163500D01*
X222530Y253860D02*
X232130D01*
X222530Y236360D02*
X232130D01*
X222530D02*
Y253860D01*
X232130Y236360D02*
Y253860D01*
X1060780Y599580D02*
Y617080D01*
X1070280Y599580D02*
Y617080D01*
X1060780D02*
X1070280D01*
X1060780Y599580D02*
X1070280D01*
X1057580Y599580D02*
Y617080D01*
X1048080Y599580D02*
Y617080D01*
Y599580D02*
X1057580D01*
X1048080Y617080D02*
X1057580D01*
X1035330D02*
X1044930D01*
X1035330Y599580D02*
X1044930D01*
X1035330D02*
Y617080D01*
X1044930Y599580D02*
Y617080D01*
X1022680Y599580D02*
Y617080D01*
X1032180Y599580D02*
Y617080D01*
X1022680D02*
X1032180D01*
X1022680Y599580D02*
X1032180D01*
X1019480Y599580D02*
Y617080D01*
X1009980Y599580D02*
Y617080D01*
Y599580D02*
X1019480D01*
X1009980Y617080D02*
X1019480D01*
X997230D02*
X1006830D01*
X997230Y599580D02*
X1006830D01*
X997230D02*
Y617080D01*
X1006830Y599580D02*
Y617080D01*
X984580Y599580D02*
Y617080D01*
X994080Y599580D02*
Y617080D01*
X984580D02*
X994080D01*
X984580Y599580D02*
X994080D01*
X981380Y599580D02*
Y617080D01*
X971880Y599580D02*
Y617080D01*
Y599580D02*
X981380D01*
X971880Y617080D02*
X981380D01*
X959130D02*
X968730D01*
X959130Y599580D02*
X968730D01*
X959130D02*
Y617080D01*
X968730Y599580D02*
Y617080D01*
X946480Y599580D02*
X955980D01*
X946480Y617080D02*
X955980D01*
Y599580D02*
Y617080D01*
X946480Y599580D02*
Y617080D01*
X943280Y599580D02*
Y617080D01*
X933780Y599580D02*
Y617080D01*
Y599580D02*
X943280D01*
X933780Y617080D02*
X943280D01*
X921030D02*
X930630D01*
X921030Y599580D02*
X930630D01*
X921030D02*
Y617080D01*
X930630Y599580D02*
Y617080D01*
X908380Y599580D02*
Y617080D01*
X917880Y599580D02*
Y617080D01*
X908380D02*
X917880D01*
X908380Y599580D02*
X917880D01*
X905180Y599580D02*
Y617080D01*
X895680Y599580D02*
Y617080D01*
Y599580D02*
X905180D01*
X895680Y617080D02*
X905180D01*
X882930D02*
X892530D01*
X882930Y599580D02*
X892530D01*
X882930D02*
Y617080D01*
X892530Y599580D02*
Y617080D01*
X870280Y599580D02*
Y617080D01*
X879780Y599580D02*
Y617080D01*
X870280D02*
X879780D01*
X870280Y599580D02*
X879780D01*
X867080Y599580D02*
Y617080D01*
X857580Y599580D02*
Y617080D01*
Y599580D02*
X867080D01*
X857580Y617080D02*
X867080D01*
X844830D02*
X854430D01*
X844830Y599580D02*
X854430D01*
X844830D02*
Y617080D01*
X854430Y599580D02*
Y617080D01*
X832180Y599580D02*
Y617080D01*
X841680Y599580D02*
Y617080D01*
X832180D02*
X841680D01*
X832180Y599580D02*
X841680D01*
X828980Y599580D02*
Y617080D01*
X819480Y599580D02*
Y617080D01*
Y599580D02*
X828980D01*
X819480Y617080D02*
X828980D01*
X806730D02*
X816330D01*
X806730Y599580D02*
X816330D01*
X806730D02*
Y617080D01*
X816330Y599580D02*
Y617080D01*
X794080Y599580D02*
Y617080D01*
X803580Y599580D02*
Y617080D01*
X794080D02*
X803580D01*
X794080Y599580D02*
X803580D01*
X790880Y599580D02*
Y617080D01*
X781380Y599580D02*
Y617080D01*
Y599580D02*
X790880D01*
X781380Y617080D02*
X790880D01*
X433650Y521090D02*
X442650D01*
X433650Y538090D02*
X442650D01*
Y521090D02*
Y538090D01*
X433650Y521090D02*
Y538090D01*
X223380Y564210D02*
Y573710D01*
X205880Y564210D02*
Y573710D01*
X223380D01*
X205880Y564210D02*
X223380D01*
X224650Y357200D02*
Y366700D01*
X207150Y357200D02*
Y366700D01*
X224650D01*
X207150Y357200D02*
X224650D01*
Y399110D02*
Y408610D01*
X207150Y399110D02*
Y408610D01*
X224650D01*
X207150Y399110D02*
X224650D01*
Y512140D02*
Y521640D01*
X207150Y512140D02*
Y521640D01*
X224650D01*
X207150Y512140D02*
X224650D01*
X223380Y482930D02*
Y492430D01*
X205880Y482930D02*
Y492430D01*
X223380D01*
X205880Y482930D02*
X223380D01*
X204610Y526110D02*
X222110D01*
X204610Y535610D02*
X222110D01*
X204610Y526110D02*
Y535610D01*
X222110Y526110D02*
Y535610D01*
X203340Y495630D02*
X220840D01*
X203340Y505130D02*
X220840D01*
X203340Y495630D02*
Y505130D01*
X220840Y495630D02*
Y505130D01*
X204610Y424510D02*
X222110D01*
X204610Y434010D02*
X222110D01*
X204610Y424510D02*
Y434010D01*
X222110Y424510D02*
Y434010D01*
X203340Y385140D02*
X220840D01*
X203340Y394640D02*
X220840D01*
X203340Y385140D02*
Y394640D01*
X220840Y385140D02*
Y394640D01*
X204610Y371170D02*
X222110D01*
X204610Y380670D02*
X222110D01*
X204610Y371170D02*
Y380670D01*
X222110Y371170D02*
Y380670D01*
X205880Y550240D02*
X223380D01*
X205880Y559740D02*
X223380D01*
X205880Y550240D02*
Y559740D01*
X223380Y550240D02*
Y559740D01*
X1681200Y652920D02*
Y670420D01*
X1671600Y652920D02*
Y670420D01*
Y652920D02*
X1681200D01*
X1671600Y670420D02*
X1681200D01*
X1664810Y574140D02*
Y586640D01*
X1644810D02*
X1664810D01*
X1644810Y574140D02*
Y586640D01*
Y574140D02*
X1664810D01*
X1658310D02*
X1664810Y580640D01*
X1455530Y618800D02*
X1501030D01*
Y651200D01*
X1455530D02*
X1501030D01*
X1455530Y618800D02*
Y651200D01*
X553880Y122020D02*
Y134520D01*
Y122020D02*
X573880D01*
Y134520D01*
X553880D02*
X573880D01*
X553880Y128020D02*
X560380Y134520D01*
X500660Y40780D02*
X510260D01*
X500660Y58280D02*
X510260D01*
Y40780D02*
Y58280D01*
X500660Y40780D02*
Y58280D01*
X572880Y94010D02*
Y104110D01*
X555180Y94010D02*
Y104110D01*
X572880D01*
X555180Y94010D02*
X572880D01*
X591910Y87860D02*
X654110D01*
X591910Y21360D02*
X654110D01*
Y87860D01*
X591910Y21360D02*
Y87860D01*
X542870Y47750D02*
X551870D01*
X542870Y30750D02*
X551870D01*
X542870D02*
Y47750D01*
X551870Y30750D02*
Y47750D01*
X519185Y519259D02*
Y536259D01*
X510185Y519259D02*
Y536259D01*
Y519259D02*
X519185D01*
X510185Y536259D02*
X519185D01*
X544585Y520529D02*
Y537529D01*
X535585Y520529D02*
Y537529D01*
Y520529D02*
X544585D01*
X535585Y537529D02*
X544585D01*
X557755Y530379D02*
Y540379D01*
X575755Y530379D02*
Y540379D01*
X557755Y530379D02*
X575755D01*
X557755Y540379D02*
X575755D01*
X1650010Y330720D02*
X1685010D01*
Y395720D01*
X1650010D02*
X1685010D01*
X1650010Y330720D02*
Y395720D01*
Y353720D02*
X1673010Y330720D01*
X1554760D02*
X1589760D01*
Y395720D01*
X1554760D02*
X1589760D01*
X1554760Y330720D02*
Y395720D01*
Y353720D02*
X1577760Y330720D01*
X1286840Y441820D02*
X1296340D01*
X1286840Y424320D02*
X1296340D01*
X1286840D02*
Y441820D01*
X1296340Y424320D02*
Y441820D01*
X1514170Y356730D02*
X1523670D01*
X1514170Y339230D02*
X1523670D01*
X1514170D02*
Y356730D01*
X1523670Y339230D02*
Y356730D01*
X1324450Y430920D02*
Y447920D01*
X1304450D02*
X1324450D01*
X1304450Y430920D02*
Y447920D01*
Y430920D02*
X1324450D01*
X1320450D02*
X1324450Y434920D01*
X1417310Y376910D02*
X1434810D01*
X1417310Y367310D02*
X1434810D01*
Y376910D01*
X1417310Y367310D02*
Y376910D01*
X1386390Y381900D02*
X1425390D01*
Y430900D01*
X1386390D02*
X1425390D01*
X1386390Y381900D02*
Y430900D01*
Y394600D02*
X1399090Y381900D01*
X1448190Y395550D02*
Y404550D01*
X1465190Y395550D02*
Y404550D01*
X1448190Y395550D02*
X1465190D01*
X1448190Y404550D02*
X1465190D01*
X1448190Y420950D02*
Y429950D01*
X1465190Y420950D02*
Y429950D01*
X1448190Y420950D02*
X1465190D01*
X1448190Y429950D02*
X1465190D01*
X1620510Y315290D02*
Y324790D01*
X1638010Y315290D02*
Y324790D01*
X1620510Y315290D02*
X1638010D01*
X1620510Y324790D02*
X1638010D01*
X1332560Y429400D02*
X1342060D01*
X1332560Y446900D02*
X1342060D01*
Y429400D02*
Y446900D01*
X1332560Y429400D02*
Y446900D01*
X1342400Y456260D02*
Y465760D01*
X1324900Y456260D02*
Y465760D01*
X1342400D01*
X1324900Y456260D02*
X1342400D01*
X1650010Y437400D02*
X1685010D01*
Y502400D01*
X1650010D02*
X1685010D01*
X1650010Y437400D02*
Y502400D01*
Y460400D02*
X1673010Y437400D01*
X1554760D02*
X1589760D01*
Y502400D01*
X1554760D02*
X1589760D01*
X1554760Y437400D02*
Y502400D01*
Y460400D02*
X1577760Y437400D01*
X1514170Y460870D02*
X1523670D01*
X1514170Y443370D02*
X1523670D01*
X1514170D02*
Y460870D01*
X1523670Y443370D02*
Y460870D01*
X1449460Y531440D02*
Y540440D01*
X1466460Y531440D02*
Y540440D01*
X1449460Y531440D02*
X1466460D01*
X1449460Y540440D02*
X1466460D01*
X1449460Y506040D02*
Y515040D01*
X1466460Y506040D02*
Y515040D01*
X1449460Y506040D02*
X1466460D01*
X1449460Y515040D02*
X1466460D01*
X1387660Y492390D02*
X1426660D01*
Y541390D01*
X1387660D02*
X1426660D01*
X1387660Y492390D02*
Y541390D01*
Y505090D02*
X1400360Y492390D01*
X1418730Y487400D02*
X1436230D01*
X1418730Y477800D02*
X1436230D01*
Y487400D01*
X1418730Y477800D02*
Y487400D01*
X1719899Y448140D02*
X1759898D01*
X1713400Y441642D02*
X1719899Y448140D01*
X1713400Y395140D02*
Y441642D01*
X1766400Y395140D02*
Y441638D01*
X1759898Y448140D02*
X1766398Y441640D01*
X1713400Y395140D02*
X1766400D01*
X180480Y327990D02*
X197980D01*
X180480Y337490D02*
X197980D01*
X180480Y327990D02*
Y337490D01*
X197980Y327990D02*
Y337490D01*
X180480Y340690D02*
X197980D01*
X180480Y350190D02*
X197980D01*
X180480Y340690D02*
Y350190D01*
X197980Y340690D02*
Y350190D01*
X71260Y322910D02*
X88760D01*
X71260Y332410D02*
X88760D01*
X71260Y322910D02*
Y332410D01*
X88760Y322910D02*
Y332410D01*
X23800Y355740D02*
Y373240D01*
X14300Y355740D02*
Y373240D01*
Y355740D02*
X23800D01*
X14300Y373240D02*
X23800D01*
D200*
X163208Y206800D02*
Y255800D01*
X202208Y206800D02*
Y255800D01*
X163208Y206800D02*
X202208D01*
X163208Y255800D02*
X202208D01*
D201*
X297942Y102108D02*
Y172212D01*
X227838Y102108D02*
X297942D01*
X227838D02*
Y172212D01*
X297942D01*
D202*
X1740458Y184735D02*
G03*
X1746958Y184735I3250J0D01*
G01*
Y163235D02*
G03*
X1740458Y163235I-3250J0D01*
G01*
X1736648Y432385D02*
G03*
X1743148Y432385I3250J0D01*
G01*
Y410885D02*
G03*
X1736648Y410885I-3250J0D01*
G01*
X1740458Y144485D02*
X1746958D01*
Y163235D01*
X1740458Y184735D02*
Y203485D01*
X1746958D01*
Y184735D02*
Y203485D01*
X1740458Y184735D02*
X1746958D01*
X1740458Y163235D02*
X1746958D01*
X1740458Y144485D02*
Y163235D01*
X1718206Y193700D02*
X1723997Y199490D01*
X1723998D02*
X1763420D01*
X1769210Y193700D01*
Y148490D02*
Y193700D01*
X1718210Y148490D02*
Y193700D01*
Y148490D02*
X1769210D01*
Y185990D02*
X1770210D01*
X1717210D02*
X1718210D01*
X1717210Y161990D02*
X1718210D01*
X1769210D02*
X1770210D01*
X1736648Y392135D02*
X1743148D01*
Y410885D01*
X1736648Y432385D02*
Y451135D01*
X1743148D01*
Y432385D02*
Y451135D01*
X1736648Y432385D02*
X1743148D01*
X1736648Y410885D02*
X1743148D01*
X1736648Y392135D02*
Y410885D01*
X1714396Y441350D02*
X1720187Y447140D01*
X1720188D02*
X1759610D01*
X1765400Y441350D01*
Y396140D02*
Y441350D01*
X1714400Y396140D02*
Y441350D01*
Y396140D02*
X1765400D01*
Y433640D02*
X1766400D01*
X1713400D02*
X1714400D01*
X1713400Y409640D02*
X1714400D01*
X1765400D02*
X1766400D01*
M02*
