G04*
G04 #@! TF.GenerationSoftware,Altium Limited,Altium Designer,23.7.1 (13)*
G04*
G04 Layer_Color=32768*
%FSLAX44Y44*%
%MOMM*%
G71*
G04*
G04 #@! TF.SameCoordinates,9AC6D79B-6B5E-4FBD-9D38-37E555C90168*
G04*
G04*
G04 #@! TF.FilePolarity,Positive*
G04*
G01*
G75*
%ADD10C,0.2000*%
%ADD13C,0.1000*%
%ADD203C,0.0500*%
D10*
X1302010Y45350D02*
Y81650D01*
X1321810D01*
Y45350D02*
Y81650D01*
X1302010Y45350D02*
X1321810D01*
X398410Y357880D02*
X434710D01*
Y338080D02*
Y357880D01*
X398410Y338080D02*
X434710D01*
X398410D02*
Y357880D01*
X607320Y571130D02*
X627120D01*
Y607430D01*
X607320D02*
X627120D01*
X607320Y571130D02*
Y607430D01*
X352160Y34550D02*
Y54350D01*
X315860D02*
X352160D01*
X315860Y34550D02*
Y54350D01*
Y34550D02*
X352160D01*
X835290Y331730D02*
Y351530D01*
Y331730D02*
X871590D01*
Y351530D01*
X835290D02*
X871590D01*
X754010Y326130D02*
X790310D01*
Y306330D02*
Y326130D01*
X754010Y306330D02*
X790310D01*
X754010D02*
Y326130D01*
X1316620Y412490D02*
X1352920D01*
Y392690D02*
Y412490D01*
X1316620Y392690D02*
X1352920D01*
X1316620D02*
Y412490D01*
X795920Y144520D02*
X832220D01*
Y124720D02*
Y144520D01*
X795920Y124720D02*
X832220D01*
X795920D02*
Y144520D01*
X785760Y203460D02*
Y223260D01*
Y203460D02*
X822060D01*
Y223260D01*
X785760D02*
X822060D01*
X686810Y599700D02*
Y619500D01*
X650510D02*
X686810D01*
X650510Y599700D02*
Y619500D01*
Y599700D02*
X686810D01*
X640270Y622330D02*
Y657830D01*
Y622330D02*
X679270D01*
Y657830D01*
X640270D02*
X679270D01*
X608379Y648259D02*
Y662381D01*
Y648259D02*
X637501D01*
Y662381D01*
X608379D02*
X637501D01*
X677620Y661520D02*
Y674520D01*
X654620D02*
X677620D01*
X654620Y661520D02*
Y674520D01*
Y661520D02*
X677620D01*
X921650Y69590D02*
X957950D01*
Y49790D02*
Y69590D01*
X921650Y49790D02*
X957950D01*
X921650D02*
Y69590D01*
X672840Y141870D02*
Y178170D01*
X653040Y141870D02*
X672840D01*
X653040D02*
Y178170D01*
X672840D01*
X1827460Y500230D02*
Y513230D01*
Y500230D02*
X1850460D01*
Y513230D01*
X1827460D02*
X1850460D01*
X1762830Y552300D02*
Y565300D01*
X1739830D02*
X1762830D01*
X1739830Y552300D02*
Y565300D01*
Y552300D02*
X1762830D01*
X1763480Y567540D02*
Y580540D01*
X1740480D02*
X1763480D01*
X1740480Y567540D02*
Y580540D01*
Y567540D02*
X1763480D01*
X1762830Y584050D02*
Y597050D01*
X1739830D02*
X1762830D01*
X1739830Y584050D02*
Y597050D01*
Y584050D02*
X1762830D01*
X1810100Y597600D02*
X1822100D01*
Y621600D01*
X1810100D02*
X1822100D01*
X1810100Y597600D02*
Y621600D01*
X1790820Y597370D02*
X1805820D01*
Y624370D01*
X1790820D02*
X1805820D01*
X1790820Y597370D02*
Y624370D01*
X1774540Y597950D02*
X1786540D01*
Y621950D01*
X1774540D02*
X1786540D01*
X1774540Y597950D02*
Y621950D01*
X304430Y345700D02*
Y365500D01*
Y345700D02*
X340730D01*
Y365500D01*
X304430D02*
X340730D01*
X435370Y565900D02*
X532370D01*
X435370D02*
Y627900D01*
X532370D01*
Y565900D02*
Y627900D01*
X351420Y336810D02*
Y356610D01*
Y336810D02*
X387720D01*
Y356610D01*
X351420D02*
X387720D01*
X1305190Y108210D02*
Y128010D01*
Y108210D02*
X1341490D01*
Y128010D01*
X1305190D02*
X1341490D01*
X897511Y140449D02*
Y174511D01*
X877949Y140449D02*
X897511D01*
X877949D02*
Y174511D01*
X897511D01*
X896241Y254749D02*
Y288811D01*
X876679Y254749D02*
X896241D01*
X876679D02*
Y288811D01*
X896241D01*
X841790Y194460D02*
X864790D01*
Y181460D02*
Y194460D01*
X841790Y181460D02*
X864790D01*
X841790D02*
Y194460D01*
X325970Y273890D02*
X336970D01*
X325970Y251890D02*
Y273890D01*
Y251890D02*
X336970D01*
Y273890D01*
X271200Y270360D02*
Y283360D01*
X248200D02*
X271200D01*
X248200Y270360D02*
Y283360D01*
Y270360D02*
X271200D01*
X257660Y286950D02*
X270660D01*
Y309950D01*
X257660D02*
X270660D01*
X257660Y286950D02*
Y309950D01*
X1571080Y48650D02*
X1599080D01*
X1571080D02*
Y65650D01*
X1599080D01*
Y48650D02*
Y65650D01*
X1895530Y250370D02*
Y264370D01*
X1886530Y250370D02*
X1895530D01*
X1886530D02*
Y264370D01*
X1895530D01*
X1165890Y55000D02*
Y72000D01*
X1137890D02*
X1165890D01*
X1137890Y55000D02*
Y72000D01*
Y55000D02*
X1165890D01*
X681840Y379660D02*
X694840D01*
Y402660D01*
X681840D02*
X694840D01*
X681840Y379660D02*
Y402660D01*
X688410Y461860D02*
Y472860D01*
X665410D02*
X688410D01*
X665410Y461860D02*
Y472860D01*
Y461860D02*
X688410D01*
X1845028Y620478D02*
X1855752D01*
Y641202D01*
X1845028D02*
X1855752D01*
X1845028Y620478D02*
Y641202D01*
X1841850Y642970D02*
X1853850D01*
Y666970D01*
X1841850D02*
X1853850D01*
X1841850Y642970D02*
Y666970D01*
X1859513Y630900D02*
Y638400D01*
Y630900D02*
X1874238D01*
Y638400D01*
X1859513D02*
X1874238D01*
X1901760Y612140D02*
Y624140D01*
X1877760D02*
X1901760D01*
X1877760Y612140D02*
Y624140D01*
Y612140D02*
X1901760D01*
X1860268Y595832D02*
X1870992D01*
X1860268Y575108D02*
Y595832D01*
Y575108D02*
X1870992D01*
Y595832D01*
X1828150Y598650D02*
Y607150D01*
Y598650D02*
X1842150D01*
Y607150D01*
X1828150D02*
X1842150D01*
X131710Y63760D02*
Y83560D01*
Y63760D02*
X168010D01*
Y83560D01*
X131710D02*
X168010D01*
X313320Y188220D02*
Y208020D01*
Y188220D02*
X349620D01*
Y208020D01*
X313320D02*
X349620D01*
X893189Y418351D02*
X912751D01*
X893189Y384289D02*
Y418351D01*
Y384289D02*
X912751D01*
Y418351D01*
X853370Y431650D02*
Y444650D01*
Y431650D02*
X876370D01*
Y444650D01*
X853370D02*
X876370D01*
X890649Y527571D02*
X910211D01*
X890649Y493509D02*
Y527571D01*
Y493509D02*
X910211D01*
Y527571D01*
X449730Y232960D02*
Y255960D01*
X436730Y232960D02*
X449730D01*
X436730D02*
Y255960D01*
X449730D01*
X457130Y460860D02*
X480130D01*
X457130D02*
Y473860D01*
X480130D01*
Y460860D02*
Y473860D01*
X594290Y475130D02*
X617290D01*
Y462130D02*
Y475130D01*
X594290Y462130D02*
X617290D01*
X594290D02*
Y475130D01*
X683110Y427920D02*
Y450920D01*
X696110D01*
Y427920D02*
Y450920D01*
X683110Y427920D02*
X696110D01*
X417680Y570810D02*
Y593810D01*
X430680D01*
Y570810D02*
Y593810D01*
X417680Y570810D02*
X430680D01*
X661300Y539490D02*
X697600D01*
Y519690D02*
Y539490D01*
X661300Y519690D02*
X697600D01*
X661300D02*
Y539490D01*
X752100Y240930D02*
Y277230D01*
X771900D01*
Y240930D02*
Y277230D01*
X752100Y240930D02*
X771900D01*
X1297570Y167380D02*
X1333870D01*
Y147580D02*
Y167380D01*
X1297570Y147580D02*
X1333870D01*
X1297570D02*
Y167380D01*
X1350910Y232150D02*
X1387210D01*
Y212350D02*
Y232150D01*
X1350910Y212350D02*
X1387210D01*
X1350910D02*
Y232150D01*
X1929390Y431430D02*
Y467730D01*
X1949190D01*
Y431430D02*
Y467730D01*
X1929390Y431430D02*
X1949190D01*
X718450Y451860D02*
X754750D01*
Y432060D02*
Y451860D01*
X718450Y432060D02*
X754750D01*
X718450D02*
Y451860D01*
X766710Y439160D02*
X803010D01*
Y419360D02*
Y439160D01*
X766710Y419360D02*
X803010D01*
X766710D02*
Y439160D01*
X714640Y517900D02*
X750940D01*
Y498100D02*
Y517900D01*
X714640Y498100D02*
X750940D01*
X714640D02*
Y517900D01*
X1306460Y351530D02*
X1342760D01*
Y331730D02*
Y351530D01*
X1306460Y331730D02*
X1342760D01*
X1306460D02*
Y351530D01*
X682890Y583940D02*
X719190D01*
Y564140D02*
Y583940D01*
X682890Y564140D02*
X719190D01*
X682890D02*
Y583940D01*
X1721750Y484880D02*
X1758050D01*
Y465080D02*
Y484880D01*
X1721750Y465080D02*
X1758050D01*
X1721750D02*
Y484880D01*
X614940Y526680D02*
Y562980D01*
X634740D01*
Y526680D02*
Y562980D01*
X614940Y526680D02*
X634740D01*
X1652850Y608480D02*
X1675850D01*
Y595480D02*
Y608480D01*
X1652850Y595480D02*
X1675850D01*
X1652850D02*
Y608480D01*
D13*
X1748830Y605790D02*
X1753830D01*
X1751330Y603290D02*
Y608290D01*
X482600Y96560D02*
Y101560D01*
X480100Y99060D02*
X485100D01*
X1701800Y651740D02*
Y661240D01*
X1697050Y656490D02*
X1706550D01*
X1687870Y675640D02*
X1692870D01*
X1690370Y673140D02*
Y678140D01*
X306070Y25730D02*
Y35230D01*
X301320Y30480D02*
X310820D01*
X330240Y22860D02*
X335240D01*
X332740Y20360D02*
Y25360D01*
X1649730Y671140D02*
Y680140D01*
X1645230Y675640D02*
X1654230D01*
X1849120Y260390D02*
Y265390D01*
X1846620Y262890D02*
X1851620D01*
X54610Y106470D02*
Y111970D01*
X51860Y109220D02*
X57360D01*
X125520Y52070D02*
X131020D01*
X128270Y49320D02*
Y54820D01*
X44450Y79800D02*
Y85300D01*
X41700Y82550D02*
X47200D01*
X124460Y162350D02*
Y167850D01*
X121710Y165100D02*
X127210D01*
X124460Y130270D02*
Y135770D01*
X121710Y133020D02*
X127210D01*
X561420Y344170D02*
X571420D01*
X566420Y339170D02*
Y349170D01*
X603890Y628980D02*
Y638480D01*
X599140Y633730D02*
X608640D01*
X618190Y640080D02*
X627690D01*
X622940Y635330D02*
Y644830D01*
X642620Y599230D02*
Y604730D01*
X639870Y601980D02*
X645370D01*
X1841499Y96559D02*
Y101559D01*
X1838999Y99059D02*
X1843999D01*
X1810810Y492430D02*
X1816310D01*
X1813560Y489680D02*
Y495180D01*
X1799380Y492430D02*
X1804880D01*
X1802130Y489680D02*
Y495180D01*
X1787950Y492430D02*
X1793450D01*
X1790700Y489680D02*
Y495180D01*
X1776520Y492430D02*
X1782020D01*
X1779270Y489680D02*
Y495180D01*
X1754200Y496570D02*
X1763700D01*
X1758950Y491820D02*
Y501320D01*
X1891360Y537210D02*
X1900860D01*
X1896110Y532460D02*
Y541960D01*
X1854200Y539540D02*
Y545040D01*
X1851450Y542290D02*
X1856950D01*
X668020Y186480D02*
Y191980D01*
X665270Y189230D02*
X670770D01*
X668350Y196640D02*
Y202140D01*
X665600Y199390D02*
X671100D01*
X710990Y294640D02*
X716490D01*
X713740Y291890D02*
Y297390D01*
X714070Y251250D02*
Y256750D01*
X711320Y254000D02*
X716820D01*
X713740Y261410D02*
Y266910D01*
X710990Y264160D02*
X716490D01*
X713740Y281730D02*
Y287230D01*
X710990Y284480D02*
X716490D01*
X710990Y311150D02*
X716490D01*
X713740Y308400D02*
Y313900D01*
Y318560D02*
Y324060D01*
X710990Y321310D02*
X716490D01*
X712260Y361950D02*
X717760D01*
X715010Y359200D02*
Y364700D01*
X712590Y372110D02*
X718090D01*
X715340Y369360D02*
Y374860D01*
X715950Y398570D02*
Y404070D01*
X713200Y401320D02*
X718700D01*
X716280Y408730D02*
Y414230D01*
X713530Y411480D02*
X719030D01*
X716610Y418890D02*
Y424390D01*
X713860Y421640D02*
X719360D01*
X660190Y491490D02*
X665690D01*
X662940Y488740D02*
Y494240D01*
X648760Y491490D02*
X654260D01*
X651510Y488740D02*
Y494240D01*
X589610Y500380D02*
X599110D01*
X594360Y495630D02*
Y505130D01*
X570560Y500380D02*
X580060D01*
X575310Y495630D02*
Y505130D01*
X551510Y500380D02*
X561010D01*
X556260Y495630D02*
Y505130D01*
X553760Y531790D02*
X558760D01*
X556260Y529290D02*
Y534290D01*
X572810Y530860D02*
X577810D01*
X575310Y528360D02*
Y533360D01*
X591860Y530860D02*
X596860D01*
X594360Y528360D02*
Y533360D01*
X432860Y388620D02*
X438360D01*
X435610Y385870D02*
Y391370D01*
X432860Y378460D02*
X438360D01*
X435610Y375710D02*
Y381210D01*
X285750Y230930D02*
Y236430D01*
X283000Y233680D02*
X288500D01*
X293296Y278296D02*
X303296D01*
X298296Y273296D02*
Y283296D01*
X988060Y222830D02*
Y231830D01*
X983560Y227330D02*
X992560D01*
X1134880Y189090D02*
Y235090D01*
X1059680D02*
X1134880D01*
X1059680Y189090D02*
Y235090D01*
Y189090D02*
X1134880D01*
X988060Y197430D02*
Y206430D01*
X983560Y201930D02*
X992560D01*
X1042670Y294970D02*
Y304470D01*
X1037920Y299720D02*
X1047420D01*
X824230Y180670D02*
Y190170D01*
X819480Y185420D02*
X828980D01*
X861240Y157480D02*
X870740D01*
X865990Y152730D02*
Y162230D01*
X974860Y261480D02*
Y307480D01*
X899660D02*
X974860D01*
X899660Y261480D02*
Y307480D01*
Y261480D02*
X974860D01*
X952780Y255270D02*
X962380D01*
X957580Y250470D02*
Y260070D01*
X976730Y142100D02*
Y188100D01*
X901530D02*
X976730D01*
X901530Y142100D02*
Y188100D01*
Y142100D02*
X976730D01*
X815670Y162560D02*
X825170D01*
X820420Y157810D02*
Y167310D01*
X1143000Y292430D02*
Y301930D01*
X1138250Y297180D02*
X1147750D01*
X1133610Y86220D02*
Y132220D01*
X1058410D02*
X1133610D01*
X1058410Y86220D02*
Y132220D01*
Y86220D02*
X1133610D01*
X1155700Y85420D02*
Y94920D01*
X1150950Y90170D02*
X1160450D01*
X951510Y142240D02*
X961110D01*
X956310Y137440D02*
Y147040D01*
X988060Y109800D02*
Y118800D01*
X983560Y114300D02*
X992560D01*
X988060Y84400D02*
Y93400D01*
X983560Y88900D02*
X992560D01*
X1270000Y200740D02*
Y210740D01*
X1265000Y205740D02*
X1275000D01*
X1233940Y190360D02*
Y236360D01*
X1158740D02*
X1233940D01*
X1158740Y190360D02*
Y236360D01*
Y190360D02*
X1233940D01*
Y86220D02*
Y132220D01*
X1158740D02*
X1233940D01*
X1158740Y86220D02*
Y132220D01*
Y86220D02*
X1233940D01*
X1041730Y177650D02*
X1051230D01*
X1046480Y172900D02*
Y182400D01*
X1657470Y114300D02*
X1662970D01*
X1660220Y111550D02*
Y117050D01*
X1845010Y194280D02*
X1883010D01*
Y236280D01*
X1845010D02*
X1883010D01*
X1845010Y194280D02*
Y236280D01*
X1156200Y321170D02*
X1231400D01*
X1156200D02*
Y367170D01*
X1231400D01*
Y321170D02*
Y367170D01*
X1156200Y427850D02*
X1231400D01*
X1156200D02*
Y473850D01*
X1231400D01*
Y427850D02*
Y473850D01*
X1059680Y427850D02*
X1134880D01*
X1059680D02*
Y473850D01*
X1134880D01*
Y427850D02*
Y473850D01*
X1059680Y321170D02*
X1134880D01*
X1059680D02*
Y367170D01*
X1134880D01*
Y321170D02*
Y367170D01*
X1873050Y222700D02*
Y257200D01*
X1907060D01*
Y222700D02*
Y257200D01*
X1873050Y222700D02*
X1907060D01*
X1884680Y209880D02*
Y219380D01*
X1879930Y214630D02*
X1889430D01*
X1831670Y222250D02*
X1841170D01*
X1836420Y217500D02*
Y227000D01*
X1832940Y115570D02*
X1842440D01*
X1837690Y110820D02*
Y120320D01*
X1892630Y274320D02*
X1902130D01*
X1897380Y269570D02*
Y279070D01*
X1863090Y241880D02*
Y250880D01*
X1858590Y246380D02*
X1867590D01*
X1727780Y102870D02*
X1736780D01*
X1732280Y98370D02*
Y107370D01*
X1639360Y599440D02*
X1644860D01*
X1642110Y596690D02*
Y602190D01*
X625900Y491490D02*
X631400D01*
X628650Y488740D02*
Y494240D01*
X140970Y89960D02*
Y95460D01*
X138220Y92710D02*
X143720D01*
X476250Y214420D02*
Y219920D01*
X473500Y217170D02*
X479000D01*
X487680Y214750D02*
Y220250D01*
X484930Y217500D02*
X490430D01*
X1686560Y609390D02*
Y614890D01*
X1683810Y612140D02*
X1689310D01*
X713200Y382270D02*
X718700D01*
X715950Y379520D02*
Y385020D01*
X1657470Y125730D02*
X1662970D01*
X1660220Y122980D02*
Y128480D01*
X594360Y180420D02*
Y190420D01*
X589360Y185420D02*
X599360D01*
X1866900Y642350D02*
Y652350D01*
X1861900Y647350D02*
X1871900D01*
X1880950Y654970D02*
X1890950D01*
X1885950Y649970D02*
Y659970D01*
X1883990Y634650D02*
X1892990D01*
X1888490Y630150D02*
Y639150D01*
X1845890Y607980D02*
X1854890D01*
X1850390Y603480D02*
Y612480D01*
X1886530Y604170D02*
X1895530D01*
X1891030Y599670D02*
Y608670D01*
X1805290Y547820D02*
X1815290D01*
X1810290Y542820D02*
Y552820D01*
X1722450Y549910D02*
X1731950D01*
X1727200Y545160D02*
Y554660D01*
X1769500Y515540D02*
Y556040D01*
X1733000Y515540D02*
X1769500D01*
X1733000D02*
Y556040D01*
X1769500D01*
X1748790Y510870D02*
Y520370D01*
X1744040Y515620D02*
X1753540D01*
X1644730Y657860D02*
X1654730D01*
X1649730Y652860D02*
Y662860D01*
X1577340Y630000D02*
Y640000D01*
X1572340Y635000D02*
X1582340D01*
X1429420Y659930D02*
X1519520D01*
Y607530D02*
Y659930D01*
X1429420Y607530D02*
X1519520D01*
X1429420D02*
Y659930D01*
X1675590Y657860D02*
X1684590D01*
X1680090Y653360D02*
Y662360D01*
X1687830Y631370D02*
Y640870D01*
X1683080Y636120D02*
X1692580D01*
X1703070Y616280D02*
Y625780D01*
X1698320Y621030D02*
X1707820D01*
X1608400Y590550D02*
X1617400D01*
X1612900Y586050D02*
Y595050D01*
X631520Y187960D02*
X641020D01*
X636270Y183210D02*
Y192710D01*
X1850390Y582120D02*
Y588120D01*
X1847390Y585120D02*
X1853390D01*
X960120Y377470D02*
Y387070D01*
X955320Y382270D02*
X964920D01*
X986100Y354330D02*
X995100D01*
X990600Y349830D02*
Y358830D01*
X986100Y328930D02*
X995100D01*
X990600Y324430D02*
Y333430D01*
X830580Y406730D02*
Y416230D01*
X825830Y411480D02*
X835330D01*
X830910Y433070D02*
X840410D01*
X835660Y428320D02*
Y437820D01*
X876300Y400380D02*
Y409880D01*
X871550Y405130D02*
X881050D01*
X912360Y496430D02*
X987560D01*
X912360D02*
Y542430D01*
X987560D01*
Y496430D02*
Y542430D01*
X958850Y490500D02*
Y500100D01*
X954050Y495300D02*
X963650D01*
X984830Y441960D02*
X993830D01*
X989330Y437460D02*
Y446460D01*
X984830Y467360D02*
X993830D01*
X989330Y462860D02*
Y471860D01*
X1259920Y440690D02*
X1269920D01*
X1264920Y435690D02*
Y445690D01*
X552450Y175590D02*
Y185090D01*
X547700Y180340D02*
X557200D01*
X431800Y283540D02*
Y293040D01*
X427050Y288290D02*
X436550D01*
X421970Y251460D02*
X431470D01*
X426720Y246710D02*
Y256210D01*
X130890Y466090D02*
X140890D01*
X135890Y461090D02*
Y471090D01*
X1150620Y541350D02*
Y550850D01*
X1145870Y546100D02*
X1155370D01*
X1154430Y319100D02*
Y328600D01*
X1149680Y323850D02*
X1159180D01*
X1043940Y543890D02*
Y553390D01*
X1039190Y548640D02*
X1048690D01*
X1040460Y415290D02*
X1049960D01*
X1045210Y410540D02*
Y420040D01*
X990100Y384670D02*
Y430670D01*
X914900D02*
X990100D01*
X914900Y384670D02*
Y430670D01*
Y384670D02*
X990100D01*
X1673860Y618770D02*
Y628370D01*
X1669060Y623570D02*
X1678660D01*
D203*
X417870Y655360D02*
Y685760D01*
X575270D01*
Y655360D02*
Y685760D01*
X417870Y655360D02*
X575270D01*
X1059140Y635040D02*
Y690840D01*
X850940Y635040D02*
X1059140D01*
X850940D02*
Y690840D01*
X1059140D01*
X1733830Y612790D02*
X1768830D01*
X1733830Y598790D02*
Y612790D01*
Y598790D02*
X1768830D01*
Y612790D01*
X475600Y81560D02*
Y116560D01*
Y81560D02*
X489600D01*
Y116560D01*
X475600D02*
X489600D01*
X1694300Y669490D02*
X1709300D01*
X1694300Y643490D02*
X1709300D01*
Y669490D01*
X1694300Y643490D02*
Y669490D01*
X1672870Y668640D02*
X1707870D01*
Y682640D01*
X1672870D02*
X1707870D01*
X1672870Y668640D02*
Y682640D01*
X298570Y17480D02*
X313570D01*
X298570Y43480D02*
X313570D01*
X298570Y17480D02*
Y43480D01*
X313570Y17480D02*
Y43480D01*
X315240Y29860D02*
X350240D01*
X315240Y15860D02*
Y29860D01*
Y15860D02*
X350240D01*
Y29860D01*
X1632730Y686140D02*
X1666730D01*
X1632730Y665140D02*
X1666730D01*
X1632730D02*
Y686140D01*
X1666730Y665140D02*
Y686140D01*
X1834120Y257890D02*
Y267890D01*
X1864120Y257890D02*
Y267890D01*
X1834120D02*
X1864120D01*
X1834120Y257890D02*
X1864120D01*
X49110Y98720D02*
X60110D01*
X49110Y119720D02*
X60110D01*
X49110Y98720D02*
Y119720D01*
X60110Y98720D02*
Y119720D01*
X117770Y46570D02*
Y57570D01*
X138770Y46570D02*
Y57570D01*
X117770D02*
X138770D01*
X117770Y46570D02*
X138770D01*
X38950Y72050D02*
X49950D01*
X38950Y93050D02*
X49950D01*
X38950Y72050D02*
Y93050D01*
X49950Y72050D02*
Y93050D01*
X116662Y35560D02*
Y170860D01*
X61362D02*
X116662D01*
X61362Y35560D02*
Y170860D01*
Y35560D02*
X116662D01*
X118960Y154600D02*
X129960D01*
X118960Y175600D02*
X129960D01*
X118960Y154600D02*
Y175600D01*
X129960Y154600D02*
Y175600D01*
X118960Y122520D02*
X129960D01*
X118960Y143520D02*
X129960D01*
X118960Y122520D02*
Y143520D01*
X129960Y122520D02*
Y143520D01*
X680420Y230170D02*
Y458170D01*
X452420Y230170D02*
Y458170D01*
X680420D01*
X452420Y230170D02*
X680420D01*
X560110Y595670D02*
X590510D01*
X560110D02*
Y651470D01*
X590510D01*
Y595670D02*
Y651470D01*
X597890Y645230D02*
X609890D01*
X597890Y622230D02*
X609890D01*
Y645230D01*
X597890Y622230D02*
Y645230D01*
X634440Y634080D02*
Y646080D01*
X611440Y634080D02*
Y646080D01*
Y634080D02*
X634440D01*
X611440Y646080D02*
X634440D01*
X637120Y591480D02*
X648120D01*
X637120Y612480D02*
X648120D01*
X637120Y591480D02*
Y612480D01*
X648120Y591480D02*
Y612480D01*
X1054760Y300160D02*
X1139760D01*
Y228160D02*
Y300160D01*
X1054760Y228160D02*
X1139760D01*
X1054760D02*
Y300160D01*
X1828999Y94059D02*
Y104059D01*
X1853999D01*
X1828999Y94059D02*
X1853999D01*
Y104059D01*
X1819060Y481930D02*
Y502930D01*
X1808060Y481930D02*
Y502930D01*
X1819060D01*
X1808060Y481930D02*
X1819060D01*
X1807630D02*
Y502930D01*
X1796630Y481930D02*
Y502930D01*
X1807630D01*
X1796630Y481930D02*
X1807630D01*
X1796200D02*
Y502930D01*
X1785200Y481930D02*
Y502930D01*
X1796200D01*
X1785200Y481930D02*
X1796200D01*
X1784770D02*
Y502930D01*
X1773770Y481930D02*
Y502930D01*
X1784770D01*
X1773770Y481930D02*
X1784770D01*
X1770450Y490570D02*
Y502570D01*
X1747450Y490570D02*
Y502570D01*
Y490570D02*
X1770450D01*
X1747450Y502570D02*
X1770450D01*
X1884610Y531210D02*
Y543210D01*
X1907610Y531210D02*
Y543210D01*
X1884610D02*
X1907610D01*
X1884610Y531210D02*
X1907610D01*
X1843700Y547790D02*
X1864700D01*
X1843700Y536790D02*
X1864700D01*
X1843700D02*
Y547790D01*
X1864700Y536790D02*
Y547790D01*
X1427520Y694650D02*
X1534120D01*
X1427520Y664250D02*
Y694650D01*
Y664250D02*
X1534120D01*
Y694650D01*
X657520Y183730D02*
X678520D01*
X657520Y194730D02*
X678520D01*
Y183730D02*
Y194730D01*
X657520Y183730D02*
Y194730D01*
X657850Y193890D02*
X678850D01*
X657850Y204890D02*
X678850D01*
Y193890D02*
Y204890D01*
X657850Y193890D02*
Y204890D01*
X724240Y289140D02*
Y300140D01*
X703240Y289140D02*
Y300140D01*
Y289140D02*
X724240D01*
X703240Y300140D02*
X724240D01*
X703570Y259500D02*
X724570D01*
X703570Y248500D02*
X724570D01*
X703570D02*
Y259500D01*
X724570Y248500D02*
Y259500D01*
X703240Y269660D02*
X724240D01*
X703240Y258660D02*
X724240D01*
X703240D02*
Y269660D01*
X724240Y258660D02*
Y269660D01*
X703240Y289980D02*
X724240D01*
X703240Y278980D02*
X724240D01*
X703240D02*
Y289980D01*
X724240Y278980D02*
Y289980D01*
Y305650D02*
Y316650D01*
X703240Y305650D02*
Y316650D01*
Y305650D02*
X724240D01*
X703240Y316650D02*
X724240D01*
X703240Y326810D02*
X724240D01*
X703240Y315810D02*
X724240D01*
X703240D02*
Y326810D01*
X724240Y315810D02*
Y326810D01*
X725510Y356450D02*
Y367450D01*
X704510Y356450D02*
Y367450D01*
Y356450D02*
X725510D01*
X704510Y367450D02*
X725510D01*
X725840Y366610D02*
Y377610D01*
X704840Y366610D02*
Y377610D01*
Y366610D02*
X725840D01*
X704840Y377610D02*
X725840D01*
X705450Y406820D02*
X726450D01*
X705450Y395820D02*
X726450D01*
X705450D02*
Y406820D01*
X726450Y395820D02*
Y406820D01*
X705780Y416980D02*
X726780D01*
X705780Y405980D02*
X726780D01*
X705780D02*
Y416980D01*
X726780Y405980D02*
Y416980D01*
X706110Y427140D02*
X727110D01*
X706110Y416140D02*
X727110D01*
X706110D02*
Y427140D01*
X727110Y416140D02*
Y427140D01*
X668440Y480990D02*
Y501990D01*
X657440Y480990D02*
Y501990D01*
X668440D01*
X657440Y480990D02*
X668440D01*
X657010D02*
Y501990D01*
X646010Y480990D02*
Y501990D01*
X657010D01*
X646010Y480990D02*
X657010D01*
X586860Y487380D02*
Y513380D01*
X601860Y487380D02*
Y513380D01*
X586860Y487380D02*
X601860D01*
X586860Y513380D02*
X601860D01*
X567810Y487380D02*
Y513380D01*
X582810Y487380D02*
Y513380D01*
X567810Y487380D02*
X582810D01*
X567810Y513380D02*
X582810D01*
X548760Y487380D02*
Y513380D01*
X563760Y487380D02*
Y513380D01*
X548760Y487380D02*
X563760D01*
X548760Y513380D02*
X563760D01*
X549260Y549290D02*
X563260D01*
Y514290D02*
Y549290D01*
X549260Y514290D02*
X563260D01*
X549260D02*
Y549290D01*
X568310Y548360D02*
X582310D01*
Y513360D02*
Y548360D01*
X568310Y513360D02*
X582310D01*
X568310D02*
Y548360D01*
X587360D02*
X601360D01*
Y513360D02*
Y548360D01*
X587360Y513360D02*
X601360D01*
X587360D02*
Y548360D01*
X446110Y383120D02*
Y394120D01*
X425110Y383120D02*
Y394120D01*
Y383120D02*
X446110D01*
X425110Y394120D02*
X446110D01*
X425110Y372960D02*
Y383960D01*
X446110Y372960D02*
Y383960D01*
X425110D02*
X446110D01*
X425110Y372960D02*
X446110D01*
X275250Y239180D02*
X296250D01*
X275250Y228180D02*
X296250D01*
X275250D02*
Y239180D01*
X296250Y228180D02*
Y239180D01*
X273296Y303296D02*
X323296D01*
X273296Y253296D02*
Y303296D01*
Y253296D02*
X323296D01*
Y303296D01*
X1638260Y15280D02*
Y45680D01*
X1531660Y15280D02*
X1638260D01*
X1531660D02*
Y45680D01*
X1638260D01*
X1172170Y24170D02*
Y54570D01*
X1065570Y24170D02*
X1172170D01*
X1065570D02*
Y54570D01*
X1172170D01*
X669330Y10200D02*
X699730D01*
X669330D02*
Y116800D01*
X699730D01*
Y10200D02*
Y116800D01*
X1244640Y570270D02*
Y600670D01*
X1351240D01*
Y570270D02*
Y600670D01*
X1244640Y570270D02*
X1351240D01*
X1068110Y643930D02*
Y674330D01*
X1174710D01*
Y643930D02*
Y674330D01*
X1068110Y643930D02*
X1174710D01*
X1367830Y570270D02*
Y600670D01*
X1474430D01*
Y570270D02*
Y600670D01*
X1367830Y570270D02*
X1474430D01*
X58460Y185460D02*
X88860D01*
X58460D02*
Y266660D01*
X88860D01*
Y185460D02*
Y266660D01*
X837190Y396730D02*
X869690D01*
Y426230D01*
X837190D02*
X869690D01*
X837190Y396730D02*
Y426230D01*
X975060Y220330D02*
X1001060D01*
X975060Y234330D02*
X1001060D01*
Y220330D02*
Y234330D01*
X975060Y220330D02*
Y234330D01*
Y194930D02*
X1001060D01*
X975060Y208930D02*
X1001060D01*
Y194930D02*
Y208930D01*
X975060Y194930D02*
Y208930D01*
X1031170Y293720D02*
X1054170D01*
X1031170Y305720D02*
X1054170D01*
Y293720D02*
Y305720D01*
X1031170Y293720D02*
Y305720D01*
X812730Y179420D02*
X835730D01*
X812730Y191420D02*
X835730D01*
Y179420D02*
Y191420D01*
X812730Y179420D02*
Y191420D01*
X859990Y145980D02*
Y168980D01*
X871990Y145980D02*
Y168980D01*
X859990Y145980D02*
X871990D01*
X859990Y168980D02*
X871990D01*
X946080Y249270D02*
Y261270D01*
X969080Y249270D02*
Y261270D01*
X946080D02*
X969080D01*
X946080Y249270D02*
X969080D01*
X826420Y151060D02*
Y174060D01*
X814420Y151060D02*
Y174060D01*
X826420D01*
X814420Y151060D02*
X826420D01*
X826650Y150230D02*
X859150D01*
Y179730D01*
X826650D02*
X859150D01*
X826650Y150230D02*
Y179730D01*
X1131500Y291180D02*
X1154500D01*
X1131500Y303180D02*
X1154500D01*
Y291180D02*
Y303180D01*
X1131500Y291180D02*
Y303180D01*
X1144200Y96170D02*
X1167200D01*
X1144200Y84170D02*
X1167200D01*
X1144200D02*
Y96170D01*
X1167200Y84170D02*
Y96170D01*
X1054760Y196020D02*
X1139760D01*
Y124020D02*
Y196020D01*
X1054760Y124020D02*
X1139760D01*
X1054760D02*
Y196020D01*
X944810Y136240D02*
Y148240D01*
X967810Y136240D02*
Y148240D01*
X944810D02*
X967810D01*
X944810Y136240D02*
X967810D01*
X975060Y107300D02*
X1001060D01*
X975060Y121300D02*
X1001060D01*
Y107300D02*
Y121300D01*
X975060Y107300D02*
Y121300D01*
X900010Y193480D02*
Y248480D01*
Y193480D02*
X974510D01*
Y248480D01*
X900010D02*
X974510D01*
X975060Y81900D02*
X1001060D01*
X975060Y95900D02*
X1001060D01*
Y81900D02*
Y95900D01*
X975060Y81900D02*
Y95900D01*
X1242500Y169240D02*
X1297500D01*
Y242240D01*
X1242500Y169240D02*
Y242240D01*
X1297500D01*
X1155110Y124020D02*
Y196020D01*
Y124020D02*
X1240110D01*
Y196020D01*
X1155110D02*
X1240110D01*
X1155173Y227890D02*
Y299890D01*
Y227890D02*
X1240173D01*
Y299890D01*
X1155173D02*
X1240173D01*
X899380Y80937D02*
Y135937D01*
Y80937D02*
X973880D01*
Y135937D01*
X899380D02*
X973880D01*
X1052480Y166150D02*
Y189150D01*
X1040480Y166150D02*
Y189150D01*
X1052480D01*
X1040480Y166150D02*
X1052480D01*
X1649720Y108800D02*
Y119800D01*
X1670720Y108800D02*
Y119800D01*
X1649720D02*
X1670720D01*
X1649720Y108800D02*
X1670720D01*
X1877180Y227630D02*
X1892180D01*
X1877180Y201630D02*
X1892180D01*
Y227630D01*
X1877180Y201630D02*
Y227630D01*
X1849420Y214750D02*
Y229750D01*
X1823420Y214750D02*
Y229750D01*
Y214750D02*
X1849420D01*
X1823420Y229750D02*
X1849420D01*
X1850690Y108070D02*
Y123070D01*
X1824690Y108070D02*
Y123070D01*
Y108070D02*
X1850690D01*
X1824690Y123070D02*
X1850690D01*
X1910380Y266820D02*
Y281820D01*
X1884380Y266820D02*
Y281820D01*
Y266820D02*
X1910380D01*
X1884380Y281820D02*
X1910380D01*
X1846090Y235880D02*
X1880090D01*
X1846090Y256880D02*
X1880090D01*
Y235880D02*
Y256880D01*
X1846090Y235880D02*
Y256880D01*
X1742780Y85870D02*
Y119870D01*
X1721780Y85870D02*
Y119870D01*
X1742780D01*
X1721780Y85870D02*
X1742780D01*
X1647610Y588940D02*
Y609940D01*
X1636610Y588940D02*
Y609940D01*
X1647610D01*
X1636610Y588940D02*
X1647610D01*
X634150Y480990D02*
Y501990D01*
X623150Y480990D02*
Y501990D01*
X634150D01*
X623150Y480990D02*
X634150D01*
X130470Y87210D02*
X151470D01*
X130470Y98210D02*
X151470D01*
Y87210D02*
Y98210D01*
X130470Y87210D02*
Y98210D01*
X470750Y227670D02*
X481750D01*
X470750Y206670D02*
X481750D01*
Y227670D01*
X470750Y206670D02*
Y227670D01*
X482180Y228000D02*
X493180D01*
X482180Y207000D02*
X493180D01*
Y228000D01*
X482180Y207000D02*
Y228000D01*
X1681060Y601640D02*
X1692060D01*
X1681060Y622640D02*
X1692060D01*
X1681060Y601640D02*
Y622640D01*
X1692060Y601640D02*
Y622640D01*
X726450Y376770D02*
Y387770D01*
X705450Y376770D02*
Y387770D01*
Y376770D02*
X726450D01*
X705450Y387770D02*
X726450D01*
X1649720Y120230D02*
Y131230D01*
X1670720Y120230D02*
Y131230D01*
X1649720D02*
X1670720D01*
X1649720Y120230D02*
X1670720D01*
X624360Y166420D02*
Y204420D01*
X564360Y166420D02*
X624360D01*
X564360D02*
Y204420D01*
X624360D01*
X1855900Y640850D02*
X1877900D01*
X1855900Y653850D02*
X1877900D01*
Y640850D02*
Y653850D01*
X1855900Y640850D02*
Y653850D01*
X1877950Y641470D02*
Y668470D01*
X1893950Y641470D02*
Y668470D01*
X1877950Y641470D02*
X1893950D01*
X1877950Y668470D02*
X1893950D01*
X1871990Y624650D02*
Y644650D01*
X1904990Y624650D02*
Y644650D01*
X1871990D02*
X1904990D01*
X1871990Y624650D02*
X1904990D01*
X1844890Y596980D02*
Y618980D01*
X1855890Y596980D02*
Y618980D01*
X1844890Y596980D02*
X1855890D01*
X1844890Y618980D02*
X1855890D01*
X1874530Y594170D02*
Y614170D01*
X1907530Y594170D02*
Y614170D01*
X1874530D02*
X1907530D01*
X1874530Y594170D02*
X1907530D01*
X1775790Y513320D02*
Y582320D01*
X1844790Y513320D02*
Y582320D01*
X1775790D02*
X1844790D01*
X1775790Y513320D02*
X1844790D01*
X1716700Y532910D02*
Y566910D01*
X1737700Y532910D02*
Y566910D01*
X1716700Y532910D02*
X1737700D01*
X1716700Y566910D02*
X1737700D01*
X1731790Y505120D02*
X1765790D01*
X1731790Y526120D02*
X1765790D01*
Y505120D02*
Y526120D01*
X1731790Y505120D02*
Y526120D01*
X1632730Y647360D02*
Y668360D01*
X1666730Y647360D02*
Y668360D01*
X1632730D02*
X1666730D01*
X1632730Y647360D02*
X1666730D01*
X1521840Y669250D02*
X1632840D01*
X1521840Y600750D02*
X1632840D01*
X1521840D02*
Y669250D01*
X1632840Y600750D02*
Y669250D01*
X1635360Y611310D02*
Y647310D01*
X1661860D01*
Y611310D02*
Y647310D01*
X1635360Y611310D02*
X1661860D01*
X1663590Y647860D02*
Y667860D01*
X1696590Y647860D02*
Y667860D01*
X1663590D02*
X1696590D01*
X1663590Y647860D02*
X1696590D01*
X1681830Y624620D02*
X1693830D01*
X1681830Y647620D02*
X1693830D01*
X1681830Y624620D02*
Y647620D01*
X1693830Y624620D02*
Y647620D01*
X1692570Y604030D02*
X1713570D01*
X1692570Y638030D02*
X1713570D01*
X1692570Y604030D02*
Y638030D01*
X1713570Y604030D02*
Y638030D01*
X1596400Y580550D02*
Y600550D01*
X1629400Y580550D02*
Y600550D01*
X1596400D02*
X1629400D01*
X1596400Y580550D02*
X1629400D01*
X646770Y170960D02*
Y204960D01*
X625770Y170960D02*
Y204960D01*
X646770D01*
X625770Y170960D02*
X646770D01*
X1844390Y574120D02*
X1856390D01*
X1844390Y596120D02*
X1856390D01*
X1844390Y574120D02*
Y596120D01*
X1856390Y574120D02*
Y596120D01*
X948620Y376270D02*
X971620D01*
X948620Y388270D02*
X971620D01*
Y376270D02*
Y388270D01*
X948620Y376270D02*
Y388270D01*
X977600Y347330D02*
Y361330D01*
X1003600Y347330D02*
Y361330D01*
X977600D02*
X1003600D01*
X977600Y347330D02*
X1003600D01*
X977600Y321930D02*
Y335930D01*
X1003600Y321930D02*
Y335930D01*
X977600D02*
X1003600D01*
X977600Y321930D02*
X1003600D01*
X902550Y375480D02*
X977050D01*
Y320480D02*
Y375480D01*
X902550Y320480D02*
X977050D01*
X902550D02*
Y375480D01*
X824580Y399980D02*
X836580D01*
X824580Y422980D02*
X836580D01*
X824580Y399980D02*
Y422980D01*
X836580Y399980D02*
Y422980D01*
X824160Y427070D02*
Y439070D01*
X847160Y427070D02*
Y439070D01*
X824160D02*
X847160D01*
X824160Y427070D02*
X847160D01*
X870300Y416630D02*
X882300D01*
X870300Y393630D02*
X882300D01*
Y416630D01*
X870300Y393630D02*
Y416630D01*
X1150030Y433510D02*
X1235030D01*
Y361510D02*
Y433510D01*
X1150030Y361510D02*
X1235030D01*
X1150030D02*
Y433510D01*
Y540190D02*
X1235030D01*
Y468190D02*
Y540190D01*
X1150030Y468190D02*
X1235030D01*
X1150030D02*
Y540190D01*
X901280Y488510D02*
X975780D01*
Y433510D02*
Y488510D01*
X901280Y433510D02*
X975780D01*
X901280D02*
Y488510D01*
X947350Y489300D02*
X970350D01*
X947350Y501300D02*
X970350D01*
Y489300D02*
Y501300D01*
X947350Y489300D02*
Y501300D01*
X976330Y434960D02*
Y448960D01*
X1002330Y434960D02*
Y448960D01*
X976330D02*
X1002330D01*
X976330Y434960D02*
X1002330D01*
X976330Y460360D02*
Y474360D01*
X1002330Y460360D02*
Y474360D01*
X976330D02*
X1002330D01*
X976330Y460360D02*
X1002330D01*
X1237420Y477190D02*
X1292420D01*
X1237420Y404190D02*
Y477190D01*
X1292420Y404190D02*
Y477190D01*
X1237420Y404190D02*
X1292420D01*
X541950Y197340D02*
X562950D01*
X541950Y163340D02*
X562950D01*
Y197340D01*
X541950Y163340D02*
Y197340D01*
X420300Y294290D02*
X443300D01*
X420300Y282290D02*
X443300D01*
X420300D02*
Y294290D01*
X443300Y282290D02*
Y294290D01*
X420720Y239960D02*
Y262960D01*
X432720Y239960D02*
Y262960D01*
X420720Y239960D02*
X432720D01*
X420720Y262960D02*
X432720D01*
X291270Y318720D02*
Y613710D01*
X8265D02*
X291270D01*
X8265Y318720D02*
Y613710D01*
Y318720D02*
X291270D01*
X1053510Y468190D02*
Y540190D01*
Y468190D02*
X1138510D01*
Y540190D01*
X1053510D02*
X1138510D01*
X1053510Y361510D02*
Y433510D01*
Y361510D02*
X1138510D01*
Y433510D01*
X1053510D02*
X1138510D01*
X1139120Y540100D02*
X1162120D01*
X1139120Y552100D02*
X1162120D01*
Y540100D02*
Y552100D01*
X1139120Y540100D02*
Y552100D01*
X1142930Y329850D02*
X1165930D01*
X1142930Y317850D02*
X1165930D01*
X1142930D02*
Y329850D01*
X1165930Y317850D02*
Y329850D01*
X1032440Y542640D02*
X1055440D01*
X1032440Y554640D02*
X1055440D01*
Y542640D02*
Y554640D01*
X1032440Y542640D02*
Y554640D01*
X1051210Y403790D02*
Y426790D01*
X1039210Y403790D02*
Y426790D01*
X1051210D01*
X1039210Y403790D02*
X1051210D01*
X1667860Y612070D02*
X1679860D01*
X1667860Y635070D02*
X1679860D01*
X1667860Y612070D02*
Y635070D01*
X1679860Y612070D02*
Y635070D01*
M02*
