G04*
G04 #@! TF.GenerationSoftware,Altium Limited,Altium Designer,23.7.1 (13)*
G04*
G04 Layer_Color=32896*
%FSLAX44Y44*%
%MOMM*%
G71*
G04*
G04 #@! TF.SameCoordinates,9AC6D79B-6B5E-4FBD-9D38-37E555C90168*
G04*
G04*
G04 #@! TF.FilePolarity,Positive*
G04*
G01*
G75*
%ADD10C,0.2000*%
%ADD11C,0.6000*%
%ADD12C,0.2500*%
%ADD13C,0.1000*%
%ADD200C,0.1270*%
D10*
X1602990Y266970D02*
G03*
X1602990Y268970I0J1000D01*
G01*
D02*
G03*
X1602990Y266970I0J-1000D01*
G01*
X1445510Y105140D02*
G03*
X1445510Y103140I0J-1000D01*
G01*
D02*
G03*
X1445510Y105140I0J1000D01*
G01*
X1604260Y522240D02*
G03*
X1604260Y524240I0J1000D01*
G01*
D02*
G03*
X1604260Y522240I0J-1000D01*
G01*
X1699510Y519700D02*
G03*
X1699510Y521700I0J1000D01*
G01*
D02*
G03*
X1699510Y519700I0J-1000D01*
G01*
X1602770Y418830D02*
G03*
X1602770Y416830I0J-1000D01*
G01*
D02*
G03*
X1602770Y418830I0J1000D01*
G01*
X1700110Y417560D02*
G03*
X1700110Y415560I0J-1000D01*
G01*
D02*
G03*
X1700110Y417560I0J1000D01*
G01*
X1704590Y163560D02*
G03*
X1704590Y161560I0J-1000D01*
G01*
D02*
G03*
X1704590Y163560I0J1000D01*
G01*
X1603590D02*
G03*
X1603590Y161560I0J-1000D01*
G01*
D02*
G03*
X1603590Y163560I0J1000D01*
G01*
X1704590Y268970D02*
G03*
X1704590Y266970I0J-1000D01*
G01*
D02*
G03*
X1704590Y268970I0J1000D01*
G01*
X1445510Y211090D02*
G03*
X1445510Y213090I0J1000D01*
G01*
D02*
G03*
X1445510Y211090I0J-1000D01*
G01*
X1308960Y224340D02*
G03*
X1308960Y224340I-1000J0D01*
G01*
X227258Y256350D02*
G03*
X227258Y256350I-1000J0D01*
G01*
X1438280Y636000D02*
G03*
X1438280Y634000I0J-1000D01*
G01*
D02*
G03*
X1438280Y636000I0J1000D01*
G01*
X1329450Y427170D02*
G03*
X1329450Y427170I-1000J0D01*
G01*
X1449320Y343170D02*
G03*
X1449320Y345170I0J1000D01*
G01*
D02*
G03*
X1449320Y343170I0J-1000D01*
G01*
Y458740D02*
G03*
X1449320Y460740I0J1000D01*
G01*
D02*
G03*
X1449320Y458740I0J-1000D01*
G01*
X1174030Y644480D02*
X1196030D01*
X1174030Y622980D02*
X1196030D01*
X1936810Y306070D02*
X1962090D01*
X1917700Y261680D02*
Y286960D01*
X1936810Y242570D02*
X1962090D01*
X1935540Y635000D02*
X1960820D01*
X1916430Y590610D02*
Y615890D01*
X1935540Y571500D02*
X1960820D01*
X702257Y372688D02*
X706257D01*
X702257D02*
Y376688D01*
X745547Y372682D02*
Y376682D01*
X741547Y372682D02*
X745547D01*
X702240Y395472D02*
Y399472D01*
X706240D01*
X741545Y399478D02*
X745545D01*
Y395478D02*
Y399478D01*
X1632590Y79240D02*
X1651590D01*
X1655090Y77990D02*
Y142990D01*
X1690090D01*
Y77990D02*
Y142990D01*
X1655090Y77990D02*
X1690090D01*
X1593650Y667230D02*
X1602650D01*
Y600230D02*
Y667230D01*
X1593650Y600230D02*
X1602650D01*
X1288210Y549320D02*
X1310210D01*
X1288210Y570820D02*
X1310210D01*
X418220Y87770D02*
Y105270D01*
X435250Y87717D02*
Y105217D01*
X390030Y65160D02*
X407530D01*
X390083Y82190D02*
X407583D01*
X416170Y86500D02*
Y104000D01*
X399140Y86553D02*
Y104053D01*
X388010Y168010D02*
X407010D01*
X388010Y182510D02*
X407010D01*
X413510Y114700D02*
Y164700D01*
X381510Y114700D02*
Y164700D01*
X413510D01*
X381510Y114700D02*
X413510D01*
X304510Y106410D02*
Y120160D01*
X348510Y106410D02*
X350810D01*
X304510D02*
X306810D01*
X350810D02*
Y120160D01*
X483721Y121359D02*
Y150421D01*
X461159Y121359D02*
Y150421D01*
X505311Y121359D02*
Y150421D01*
X482749Y121359D02*
Y150421D01*
X356530Y338330D02*
X377530D01*
X356530Y306830D02*
X377530D01*
X344225Y399288D02*
Y403288D01*
X340225D02*
X344225D01*
X300920Y403282D02*
X304920D01*
X300920Y399282D02*
Y403282D01*
X340227Y376492D02*
X344227D01*
Y380492D01*
X300937Y376498D02*
Y380498D01*
Y376498D02*
X304937D01*
X174360Y88670D02*
Y91670D01*
X188860Y88670D02*
Y91670D01*
Y120420D02*
Y123420D01*
X174360Y120420D02*
Y123420D01*
X207910Y120420D02*
Y123420D01*
X193410Y120420D02*
Y123420D01*
Y88670D02*
Y91670D01*
X207910Y88670D02*
Y91670D01*
X1554760Y77990D02*
X1589760D01*
Y142990D01*
X1554760D02*
X1589760D01*
X1554760Y77990D02*
Y142990D01*
X1532260Y79240D02*
X1551260D01*
X1655090Y180860D02*
X1690090D01*
Y245860D01*
X1655090D02*
X1690090D01*
X1655090Y180860D02*
Y245860D01*
X1632590Y182110D02*
X1651590D01*
X1556030Y182130D02*
X1591030D01*
Y247130D01*
X1556030D02*
X1591030D01*
X1556030Y182130D02*
Y247130D01*
X1533530Y183380D02*
X1552530D01*
X1758206Y187746D02*
Y192746D01*
X1755706Y190246D02*
X1760706D01*
X1717210Y147490D02*
X1731710D01*
X1755710D02*
X1770210D01*
Y193990D01*
X1763710Y200490D02*
X1770210Y193990D01*
X1755710Y200490D02*
X1763710D01*
X1717210Y147490D02*
Y193990D01*
X1723710Y200490D01*
X1731710D01*
X1393700Y244740D02*
X1425700D01*
Y293740D01*
X1393700D02*
X1425700D01*
X1393700Y244740D02*
Y293740D01*
X1374950Y243440D02*
X1390200D01*
X1327810Y195090D02*
X1346810D01*
X1327810Y180590D02*
X1346810D01*
X1381611Y205179D02*
Y234241D01*
X1359049Y205179D02*
Y234241D01*
X1392430Y135520D02*
X1424430D01*
Y184520D01*
X1392430D02*
X1424430D01*
X1392430Y135520D02*
Y184520D01*
X1373680Y134220D02*
X1388930D01*
X1380341Y97229D02*
Y126291D01*
X1357779Y97229D02*
Y126291D01*
X526440Y427090D02*
X545440D01*
X526440Y441590D02*
X545440D01*
X541680Y244210D02*
X560680D01*
X541680Y258710D02*
X560680D01*
X767850Y420660D02*
Y488660D01*
Y420660D02*
X895850D01*
Y488660D01*
X767850D02*
X895850D01*
X767700Y492160D02*
Y511660D01*
X616320Y250850D02*
Y269850D01*
X630820Y250850D02*
Y269850D01*
X639470Y314060D02*
X658470D01*
X639470Y328560D02*
X658470D01*
X426142Y497787D02*
Y501787D01*
X422142Y497787D02*
X426142D01*
X422148Y541077D02*
X426148D01*
Y537077D02*
Y541077D01*
X399358Y497770D02*
X403358D01*
X399358D02*
Y501770D01*
X399352Y537075D02*
Y541075D01*
X403352D01*
X879418Y187823D02*
Y191823D01*
X883418D01*
X879412Y148533D02*
X883412D01*
X879412D02*
Y152533D01*
X902202Y191840D02*
X906202D01*
Y187840D02*
Y191840D01*
X906208Y148535D02*
Y152535D01*
X902208Y148535D02*
X906208D01*
X1302967Y349828D02*
X1306967D01*
X1302967D02*
Y353828D01*
X1346257Y349822D02*
Y353822D01*
X1342257Y349822D02*
X1346257D01*
X1302950Y372612D02*
Y376612D01*
X1306950D01*
X1342255Y376618D02*
X1346255D01*
Y372618D02*
Y376618D01*
X712417Y470478D02*
X716417D01*
X712417D02*
Y474478D01*
X755707Y470472D02*
Y474472D01*
X751707Y470472D02*
X755707D01*
X712400Y493262D02*
Y497262D01*
X716400D01*
X751705Y497268D02*
X755705D01*
Y493268D02*
Y497268D01*
X1808850Y597560D02*
Y616560D01*
X1823350Y597560D02*
Y616560D01*
X474600Y440570D02*
X490600D01*
X474600Y425570D02*
X490600D01*
X125038Y298313D02*
Y302313D01*
X129038D01*
X125032Y259023D02*
X129032D01*
X125032D02*
Y263023D01*
X147822Y302330D02*
X151822D01*
Y298330D02*
Y302330D01*
X151828Y259025D02*
Y263025D01*
X147828Y259025D02*
X151828D01*
X172860Y276470D02*
X190360D01*
X172807Y259440D02*
X190307D01*
X1293520Y469530D02*
X1312520D01*
X1293520Y455030D02*
X1312520D01*
X762900Y404520D02*
Y423520D01*
X748400Y404520D02*
Y423520D01*
X259772Y241247D02*
Y245247D01*
X255772Y241247D02*
X259772D01*
X255778Y284537D02*
X259778D01*
Y280537D02*
Y284537D01*
X232988Y241230D02*
X236988D01*
X232988D02*
Y245230D01*
X232982Y280535D02*
Y284535D01*
X236982D01*
X549857Y498418D02*
X553857D01*
X549857D02*
Y502418D01*
X593147Y498412D02*
Y502412D01*
X589147Y498412D02*
X593147D01*
X549840Y521202D02*
Y525202D01*
X553840D01*
X589145Y525208D02*
X593145D01*
Y521208D02*
Y525208D01*
X503612Y501597D02*
Y505597D01*
X499612Y501597D02*
X503612D01*
X499618Y544887D02*
X503618D01*
Y540887D02*
Y544887D01*
X476828Y501580D02*
X480828D01*
X476828D02*
Y505580D01*
X476822Y540885D02*
Y544885D01*
X480822D01*
X631899Y316081D02*
X660961D01*
X631899Y293519D02*
X660961D01*
X636930Y250560D02*
X655930D01*
X636930Y265060D02*
X655930D01*
X630810Y270650D02*
Y288150D01*
X646810Y270650D02*
Y288150D01*
X471540Y368960D02*
Y387960D01*
X486040Y368960D02*
Y387960D01*
X471540Y319430D02*
Y338430D01*
X486040Y319430D02*
Y338430D01*
X1625970Y567080D02*
Y586080D01*
X1640470Y567080D02*
Y586080D01*
X1665810Y564890D02*
Y576890D01*
X1463280Y618800D02*
X1493280D01*
X1463280Y651200D02*
X1493280D01*
X592720Y121310D02*
Y140310D01*
X578220Y121310D02*
Y140310D01*
X641450Y92680D02*
X653950D01*
X641450Y120680D02*
X653950D01*
X552880Y131770D02*
Y143770D01*
X591910Y88110D02*
X600910D01*
X591910Y21110D02*
Y88110D01*
Y21110D02*
X600910D01*
X1650010Y330720D02*
X1685010D01*
Y395720D01*
X1650010D02*
X1685010D01*
X1650010Y330720D02*
Y395720D01*
X1627510Y331970D02*
X1646510D01*
X1554760Y330720D02*
X1589760D01*
Y395720D01*
X1554760D02*
X1589760D01*
X1554760Y330720D02*
Y395720D01*
X1532260Y331970D02*
X1551260D01*
X1389890Y381900D02*
X1421890D01*
Y430900D01*
X1389890D02*
X1421890D01*
X1389890Y381900D02*
Y430900D01*
X1371140Y380600D02*
X1386390D01*
X1379071Y338529D02*
Y367591D01*
X1356509Y338529D02*
Y367591D01*
X1650010Y437400D02*
X1685010D01*
Y502400D01*
X1650010D02*
X1685010D01*
X1650010Y437400D02*
Y502400D01*
X1627510Y438650D02*
X1646510D01*
X1554760Y437400D02*
X1589760D01*
Y502400D01*
X1554760D02*
X1589760D01*
X1554760Y437400D02*
Y502400D01*
X1532260Y438650D02*
X1551260D01*
X1379071Y452829D02*
Y481891D01*
X1356509Y452829D02*
Y481891D01*
X1391160Y492390D02*
X1423160D01*
Y541390D01*
X1391160D02*
X1423160D01*
X1391160Y492390D02*
Y541390D01*
X1372410Y491090D02*
X1387660D01*
X1754396Y435396D02*
Y440396D01*
X1751896Y437896D02*
X1756896D01*
X1713400Y395140D02*
X1727900D01*
X1751900D02*
X1766400D01*
Y441640D01*
X1759900Y448140D02*
X1766400Y441640D01*
X1751900Y448140D02*
X1759900D01*
X1713400Y395140D02*
Y441640D01*
X1719900Y448140D01*
X1727900D01*
X199020Y460400D02*
Y479400D01*
X184520Y460400D02*
Y479400D01*
D11*
X406510Y154700D02*
G03*
X406510Y154700I-3000J0D01*
G01*
D12*
X1625400Y666530D02*
G03*
X1625400Y666530I-1250J0D01*
G01*
X427010Y167500D02*
G03*
X427010Y167500I-1250J0D01*
G01*
X329160Y178910D02*
G03*
X329160Y178910I-1250J0D01*
G01*
X384530Y312830D02*
G03*
X384530Y312830I-1250J0D01*
G01*
X571660Y21810D02*
G03*
X571660Y21810I-1250J0D01*
G01*
D13*
X195580Y361670D02*
G03*
X195580Y362670I0J500D01*
G01*
D02*
G03*
X195580Y361670I0J-500D01*
G01*
Y404700D02*
G03*
X195580Y403700I0J-500D01*
G01*
D02*
G03*
X195580Y404700I0J500D01*
G01*
Y415720D02*
G03*
X195580Y416720I0J500D01*
G01*
D02*
G03*
X195580Y415720I0J-500D01*
G01*
Y486280D02*
G03*
X195580Y487280I0J500D01*
G01*
D02*
G03*
X195580Y486280I0J-500D01*
G01*
Y516760D02*
G03*
X195580Y517760I0J500D01*
G01*
D02*
G03*
X195580Y516760I0J-500D01*
G01*
Y541450D02*
G03*
X195580Y542450I0J500D01*
G01*
D02*
G03*
X195580Y541450I0J-500D01*
G01*
X1549740Y280970D02*
X1592240D01*
X1549740Y254970D02*
X1592240D01*
X1392260Y91140D02*
X1434760D01*
X1392260Y117140D02*
X1434760D01*
X1551010Y536240D02*
X1593510D01*
X1551010Y510240D02*
X1593510D01*
X1646260Y533700D02*
X1688760D01*
X1646260Y507700D02*
X1688760D01*
X1549520Y404830D02*
X1592020D01*
X1549520Y430830D02*
X1592020D01*
X1646860Y403560D02*
X1689360D01*
X1646860Y429560D02*
X1689360D01*
X1651340Y149560D02*
X1693840D01*
X1651340Y175560D02*
X1693840D01*
X1550340Y149560D02*
X1592840D01*
X1550340Y175560D02*
X1592840D01*
X1651340Y254970D02*
X1693840D01*
X1651340Y280970D02*
X1693840D01*
X1392260Y225090D02*
X1434760D01*
X1392260Y199090D02*
X1434760D01*
X1396070Y357170D02*
X1438570D01*
X1396070Y331170D02*
X1438570D01*
X1396070Y472740D02*
X1438570D01*
X1396070Y446740D02*
X1438570D01*
D200*
X163208Y206050D02*
X202208D01*
X163208Y256550D02*
X202208D01*
M02*
