G04*
G04 #@! TF.GenerationSoftware,Altium Limited,Altium Designer,23.7.1 (13)*
G04*
G04 Layer_Color=65535*
%FSLAX44Y44*%
%MOMM*%
G71*
G04*
G04 #@! TF.SameCoordinates,9AC6D79B-6B5E-4FBD-9D38-37E555C90168*
G04*
G04*
G04 #@! TF.FilePolarity,Positive*
G04*
G01*
G75*
%ADD10C,0.2000*%
%ADD11C,0.6000*%
%ADD12C,0.2500*%
%ADD13C,0.1000*%
%ADD14C,0.4000*%
%ADD15C,0.2540*%
%ADD16C,0.1778*%
G36*
X1474612Y426161D02*
X1473779D01*
Y423662D01*
X1472946D01*
Y421162D01*
X1472113D01*
Y419496D01*
X1471280D01*
Y416997D01*
X1470447D01*
Y414497D01*
X1469613D01*
Y411998D01*
X1468780D01*
Y410332D01*
X1467947D01*
Y409499D01*
X1461282D01*
Y411998D01*
X1462115D01*
Y414497D01*
X1462949D01*
Y416997D01*
X1463782D01*
Y418663D01*
X1462949D01*
Y417830D01*
X1462115D01*
Y416164D01*
X1461282D01*
Y415331D01*
X1460449D01*
Y414497D01*
X1459616D01*
Y413664D01*
X1458783D01*
Y412831D01*
X1457950D01*
Y411998D01*
X1457117D01*
Y411165D01*
X1456284D01*
Y410332D01*
X1455450D01*
Y409499D01*
X1452118D01*
Y411998D01*
X1451285D01*
Y416164D01*
X1450452D01*
Y418663D01*
X1449619D01*
Y416997D01*
X1448786D01*
Y414497D01*
X1447952D01*
Y411998D01*
X1447119D01*
Y410332D01*
X1446286D01*
Y409499D01*
X1439621D01*
Y411998D01*
X1440454D01*
Y414497D01*
X1441287D01*
Y416164D01*
X1442121D01*
Y418663D01*
X1442954D01*
Y421162D01*
X1443787D01*
Y423662D01*
X1444620D01*
Y425328D01*
X1445453D01*
Y427827D01*
X1446286D01*
Y429494D01*
X1455450D01*
Y426994D01*
X1456284D01*
Y422829D01*
X1457117D01*
Y420329D01*
X1457950D01*
Y421162D01*
X1458783D01*
Y421996D01*
X1459616D01*
Y422829D01*
X1460449D01*
Y423662D01*
X1461282D01*
Y424495D01*
X1462115D01*
Y425328D01*
X1462949D01*
Y426161D01*
X1463782D01*
Y426994D01*
X1464615D01*
Y427827D01*
X1465448D01*
Y428661D01*
X1466281D01*
Y429494D01*
X1474612D01*
Y426161D01*
D02*
G37*
G36*
X1609578Y426994D02*
X1608745D01*
Y424495D01*
X1607911D01*
Y421996D01*
X1607078D01*
Y420329D01*
X1606245D01*
Y417830D01*
X1605412D01*
Y416164D01*
X1604579D01*
Y414497D01*
X1603746D01*
Y412831D01*
X1602913D01*
Y411998D01*
X1602080D01*
Y411165D01*
X1601246D01*
Y410332D01*
X1599580D01*
Y409499D01*
X1586250D01*
Y410332D01*
X1583751D01*
Y411165D01*
X1582918D01*
Y414497D01*
X1582085D01*
Y415331D01*
X1582918D01*
Y419496D01*
X1583751D01*
Y421996D01*
X1584584D01*
Y424495D01*
X1585417D01*
Y426994D01*
X1586250D01*
Y428661D01*
X1587083D01*
Y429494D01*
X1592915D01*
Y428661D01*
X1593748D01*
Y427827D01*
X1592915D01*
Y425328D01*
X1592082D01*
Y422829D01*
X1591249D01*
Y420329D01*
X1590416D01*
Y415331D01*
X1591249D01*
Y414497D01*
X1595415D01*
Y415331D01*
X1596248D01*
Y416164D01*
X1597081D01*
Y416997D01*
X1597914D01*
Y417830D01*
X1598747D01*
Y420329D01*
X1599580D01*
Y421996D01*
X1600413D01*
Y424495D01*
X1601246D01*
Y426994D01*
X1602080D01*
Y428661D01*
X1602913D01*
Y429494D01*
X1609578D01*
Y426994D01*
D02*
G37*
G36*
X1633738Y427827D02*
X1632905D01*
Y426161D01*
X1632072D01*
Y425328D01*
X1631239D01*
Y424495D01*
X1630406D01*
Y423662D01*
X1625407D01*
Y422829D01*
X1624574D01*
Y421162D01*
X1623741D01*
Y420329D01*
Y418663D01*
X1622908D01*
Y416164D01*
X1622074D01*
Y413664D01*
X1621241D01*
Y411998D01*
X1620408D01*
Y409499D01*
X1612910D01*
Y411165D01*
X1613743D01*
Y413664D01*
X1614576D01*
Y416164D01*
X1615410D01*
Y418663D01*
X1616243D01*
Y420329D01*
X1617076D01*
Y422829D01*
X1617909D01*
Y423662D01*
X1611244D01*
Y425328D01*
X1612077D01*
Y426161D01*
X1612910D01*
Y426994D01*
X1613743D01*
Y427827D01*
X1614576D01*
Y428661D01*
X1615410D01*
Y429494D01*
X1633738D01*
Y427827D01*
D02*
G37*
G36*
X1575420Y428661D02*
X1576253D01*
Y427827D01*
X1577086D01*
Y422829D01*
X1577919D01*
Y417830D01*
X1578752D01*
Y411998D01*
X1579585D01*
Y409499D01*
X1572920D01*
Y411165D01*
X1572087D01*
Y412831D01*
X1571254D01*
Y411165D01*
X1570421D01*
Y410332D01*
X1569588D01*
Y409499D01*
X1552926D01*
Y410332D01*
X1553759D01*
Y411165D01*
X1554592D01*
Y412831D01*
X1555425D01*
Y413664D01*
X1556258D01*
Y414497D01*
X1557091D01*
Y415331D01*
X1557924D01*
Y416997D01*
X1558757D01*
Y417830D01*
X1559590D01*
Y418663D01*
X1560424D01*
Y419496D01*
X1561257D01*
Y421162D01*
X1562090D01*
Y421996D01*
X1562923D01*
Y422829D01*
X1563756D01*
Y424495D01*
X1564589D01*
Y425328D01*
X1565422D01*
Y426161D01*
X1566255D01*
Y426994D01*
X1567089D01*
Y427827D01*
X1567922D01*
Y428661D01*
X1568755D01*
Y429494D01*
X1575420D01*
Y428661D01*
D02*
G37*
G36*
X1557091Y427827D02*
X1556258D01*
Y426994D01*
X1555425D01*
Y426161D01*
X1554592D01*
Y425328D01*
X1553759D01*
Y424495D01*
X1552926D01*
Y423662D01*
X1539596D01*
Y421996D01*
X1548760D01*
Y421162D01*
X1550426D01*
Y420329D01*
X1551259D01*
Y418663D01*
X1552092D01*
Y412831D01*
X1551259D01*
Y411998D01*
X1550426D01*
Y410332D01*
X1548760D01*
Y409499D01*
X1528765D01*
Y411165D01*
X1529598D01*
Y411998D01*
X1530431D01*
Y413664D01*
X1531264D01*
Y414497D01*
X1544594D01*
Y415331D01*
X1545427D01*
Y416164D01*
X1544594D01*
Y416997D01*
X1534597D01*
Y417830D01*
X1533764D01*
Y419496D01*
X1532931D01*
Y421162D01*
X1532097D01*
Y423662D01*
X1532931D01*
Y425328D01*
X1533764D01*
Y426161D01*
X1534597D01*
Y427827D01*
X1536263D01*
Y428661D01*
X1537096D01*
Y429494D01*
X1557091D01*
Y427827D01*
D02*
G37*
G36*
X1525433Y428661D02*
X1527099D01*
Y426994D01*
X1527932D01*
Y426161D01*
Y424495D01*
X1528765D01*
Y421996D01*
X1527932D01*
Y420329D01*
X1527099D01*
Y419496D01*
X1526266D01*
Y418663D01*
X1525433D01*
Y417830D01*
X1522933D01*
Y416997D01*
X1519601D01*
Y416164D01*
X1520434D01*
Y415331D01*
X1521267D01*
Y414497D01*
X1522100D01*
Y413664D01*
X1522933D01*
Y412831D01*
X1523766D01*
Y411998D01*
X1524599D01*
Y411165D01*
X1525433D01*
Y409499D01*
X1517101D01*
Y410332D01*
X1516268D01*
Y411165D01*
X1515435D01*
Y411998D01*
X1514602D01*
Y412831D01*
X1513769D01*
Y413664D01*
X1512936D01*
Y414497D01*
X1512103D01*
Y415331D01*
X1511270D01*
Y416164D01*
X1510436D01*
Y415331D01*
X1509603D01*
Y412831D01*
X1508770D01*
Y410332D01*
X1507937D01*
Y409499D01*
X1500439D01*
Y410332D01*
X1501272D01*
Y412831D01*
X1502105D01*
Y415331D01*
X1502938D01*
Y416997D01*
X1503771D01*
Y419496D01*
X1504605D01*
Y421996D01*
X1505438D01*
Y423662D01*
X1506271D01*
Y426161D01*
X1507104D01*
Y428661D01*
X1507937D01*
Y429494D01*
X1525433D01*
Y428661D01*
D02*
G37*
G36*
X1493774D02*
X1494607D01*
Y426161D01*
X1495440D01*
Y421162D01*
X1496273D01*
Y415331D01*
X1497106D01*
Y410332D01*
X1497940D01*
Y409499D01*
X1490441D01*
Y412831D01*
X1489608D01*
Y411998D01*
X1488775D01*
Y411165D01*
X1487942D01*
Y410332D01*
X1487109D01*
Y409499D01*
X1471280D01*
Y411165D01*
X1472113D01*
Y411998D01*
X1472946D01*
Y412831D01*
X1473779D01*
Y413664D01*
X1474612D01*
Y415331D01*
X1475445D01*
Y416164D01*
X1476279D01*
Y416997D01*
X1477112D01*
Y417830D01*
X1477945D01*
Y419496D01*
X1478778D01*
Y420329D01*
X1479611D01*
Y421162D01*
X1480444D01*
Y422829D01*
X1481277D01*
Y423662D01*
X1482110D01*
Y424495D01*
X1482943D01*
Y425328D01*
X1483777D01*
Y426994D01*
X1484610D01*
Y427827D01*
X1485443D01*
Y428661D01*
X1487109D01*
Y429494D01*
X1493774D01*
Y428661D01*
D02*
G37*
G36*
X1521267Y391170D02*
X1541262D01*
Y377840D01*
Y377007D01*
Y360345D01*
X1537929D01*
Y361178D01*
X1534597D01*
Y362011D01*
X1532097D01*
Y362844D01*
X1527932D01*
Y363677D01*
X1527099D01*
Y378673D01*
X1512103D01*
Y379506D01*
X1512936D01*
Y380340D01*
X1513769D01*
Y382006D01*
X1514602D01*
Y382839D01*
X1515435D01*
Y384505D01*
X1516268D01*
Y386171D01*
X1517101D01*
Y387005D01*
X1517935D01*
Y388671D01*
X1518768D01*
Y389504D01*
X1519601D01*
Y391170D01*
X1520434D01*
Y392003D01*
X1521267D01*
Y391170D01*
D02*
G37*
G36*
X1405463Y406166D02*
X1409629D01*
Y405333D01*
X1412128D01*
Y404500D01*
X1414628D01*
Y403667D01*
X1417127D01*
Y402834D01*
X1418793D01*
Y402001D01*
X1421293D01*
Y401168D01*
X1422959D01*
Y400335D01*
X1425458D01*
Y399501D01*
X1427124D01*
Y398668D01*
X1429624D01*
Y397835D01*
X1431290D01*
Y397002D01*
X1434622D01*
Y396169D01*
X1436289D01*
Y395336D01*
X1438788D01*
Y394503D01*
X1440454D01*
Y393670D01*
X1442954D01*
Y392836D01*
X1445453D01*
Y392003D01*
X1447119D01*
Y391170D01*
X1448786D01*
Y390337D01*
X1451285D01*
Y389504D01*
X1453784D01*
Y388671D01*
X1455450D01*
Y387838D01*
X1457950D01*
Y387005D01*
X1459616D01*
Y386171D01*
X1462949D01*
Y387005D01*
X1465448D01*
Y386171D01*
X1467947D01*
Y385338D01*
X1469613D01*
Y384505D01*
X1471280D01*
Y383672D01*
X1474612D01*
Y382839D01*
X1475445D01*
Y382006D01*
X1477945D01*
Y381173D01*
X1480444D01*
Y382006D01*
X1481277D01*
Y382839D01*
X1483777D01*
Y383672D01*
X1484610D01*
Y384505D01*
X1487109D01*
Y385338D01*
X1490441D01*
Y384505D01*
X1492941D01*
Y383672D01*
X1494607D01*
Y382839D01*
X1497106D01*
Y382006D01*
X1498773D01*
Y381173D01*
X1501272D01*
Y380340D01*
X1502938D01*
Y379506D01*
X1504605D01*
Y377007D01*
X1503771D01*
Y376174D01*
X1502938D01*
Y375341D01*
X1502105D01*
Y374508D01*
X1501272D01*
Y372841D01*
X1500439D01*
Y372008D01*
X1499606D01*
Y371175D01*
X1498773D01*
Y370342D01*
X1500439D01*
Y369509D01*
X1502105D01*
Y367010D01*
X1501272D01*
Y365343D01*
X1500439D01*
Y362844D01*
X1499606D01*
Y361178D01*
X1498773D01*
Y358679D01*
X1497940D01*
Y357012D01*
X1497106D01*
Y355346D01*
X1496273D01*
Y353680D01*
X1495440D01*
Y354513D01*
X1492108D01*
Y347015D01*
X1491275D01*
Y346182D01*
X1492108D01*
Y345349D01*
X1488775D01*
Y346182D01*
X1486276D01*
Y347015D01*
X1484610D01*
Y347848D01*
X1482943D01*
Y348681D01*
X1480444D01*
Y349514D01*
X1477945D01*
Y350347D01*
X1476279D01*
Y351180D01*
X1474612D01*
Y352014D01*
X1473779D01*
Y353680D01*
X1472946D01*
Y356179D01*
X1472113D01*
Y358679D01*
X1471280D01*
Y360345D01*
X1470447D01*
Y361178D01*
X1467947D01*
Y362011D01*
X1466281D01*
Y362844D01*
X1463782D01*
Y363677D01*
X1462115D01*
Y364510D01*
X1459616D01*
Y365343D01*
X1457950D01*
Y366177D01*
X1455450D01*
Y368676D01*
X1454617D01*
Y370342D01*
X1452118D01*
Y371175D01*
X1450452D01*
Y372008D01*
X1448786D01*
Y372841D01*
X1446286D01*
Y373675D01*
X1443787D01*
Y374508D01*
X1442121D01*
Y375341D01*
X1439621D01*
Y376174D01*
X1437122D01*
Y377007D01*
X1434622D01*
Y377840D01*
X1432956D01*
Y378673D01*
X1430457D01*
Y379506D01*
X1427957D01*
Y380340D01*
X1426291D01*
Y381173D01*
X1423792D01*
Y382006D01*
X1422126D01*
Y382839D01*
X1419626D01*
Y383672D01*
X1417960D01*
Y384505D01*
X1415461D01*
Y385338D01*
X1412961D01*
Y386171D01*
X1410462D01*
Y387005D01*
X1408796D01*
Y387838D01*
X1406296D01*
Y388671D01*
X1404630D01*
Y389504D01*
X1402964D01*
Y390337D01*
X1401298D01*
Y391170D01*
X1400465D01*
Y392003D01*
X1398798D01*
Y392836D01*
X1397965D01*
Y393670D01*
X1396299D01*
Y394503D01*
X1395466D01*
Y395336D01*
X1394633D01*
Y396169D01*
X1393800D01*
Y397002D01*
X1392966D01*
Y397835D01*
X1392133D01*
Y398668D01*
X1391300D01*
Y399501D01*
X1390467D01*
Y400335D01*
X1389634D01*
Y401168D01*
X1388801D01*
Y402834D01*
X1387968D01*
Y403667D01*
X1387135D01*
Y404500D01*
X1386302D01*
Y405333D01*
X1387135D01*
Y406166D01*
X1391300D01*
Y406999D01*
X1405463D01*
Y406166D01*
D02*
G37*
G36*
X1678727Y449489D02*
X1677894D01*
Y447822D01*
X1677060D01*
Y446989D01*
X1676227D01*
Y446156D01*
X1675394D01*
Y445323D01*
X1674561D01*
Y444490D01*
X1673728D01*
Y442824D01*
X1672895D01*
Y441991D01*
X1672062D01*
Y441157D01*
X1671229D01*
Y440324D01*
X1670395D01*
Y439491D01*
X1669562D01*
Y437825D01*
X1668729D01*
Y436992D01*
X1667896D01*
Y436159D01*
X1667063D01*
Y435326D01*
X1666230D01*
Y434492D01*
X1665397D01*
Y432826D01*
X1664564D01*
Y431993D01*
X1663730D01*
Y431160D01*
X1662897D01*
Y430327D01*
X1662064D01*
Y429494D01*
X1661231D01*
Y428661D01*
X1660398D01*
Y426994D01*
X1659565D01*
Y426161D01*
X1658732D01*
Y425328D01*
X1657899D01*
Y424495D01*
X1657065D01*
Y422829D01*
X1656232D01*
Y421996D01*
X1655399D01*
Y421162D01*
X1654566D01*
Y420329D01*
X1653733D01*
Y419496D01*
X1652900D01*
Y417830D01*
X1652067D01*
Y416997D01*
X1651234D01*
Y416164D01*
X1650401D01*
Y415331D01*
X1649567D01*
Y414497D01*
X1648734D01*
Y413664D01*
X1647901D01*
Y411998D01*
X1647068D01*
Y411165D01*
X1646235D01*
Y410332D01*
X1645402D01*
Y409499D01*
X1644569D01*
Y408666D01*
X1643736D01*
Y406999D01*
X1642903D01*
Y406166D01*
X1642069D01*
Y405333D01*
X1641236D01*
Y404500D01*
X1640403D01*
Y403667D01*
X1639570D01*
Y402001D01*
X1638737D01*
Y401168D01*
X1637904D01*
Y400335D01*
X1637071D01*
Y399501D01*
X1636237D01*
Y398668D01*
X1635404D01*
Y397835D01*
X1634571D01*
Y396169D01*
X1633738D01*
Y395336D01*
X1632905D01*
Y394503D01*
X1632072D01*
Y393670D01*
X1631239D01*
Y392003D01*
X1630406D01*
Y391170D01*
X1629573D01*
Y390337D01*
X1628739D01*
Y389504D01*
X1627906D01*
Y388671D01*
X1627073D01*
Y387838D01*
X1626240D01*
Y386171D01*
X1625407D01*
Y385338D01*
X1624574D01*
Y384505D01*
X1623741D01*
Y382839D01*
X1622074D01*
Y381173D01*
X1621241D01*
Y380340D01*
X1620408D01*
Y379506D01*
X1619575D01*
Y378673D01*
X1618742D01*
Y377840D01*
X1617909D01*
Y376174D01*
X1617076D01*
Y375341D01*
X1616243D01*
Y374508D01*
X1615410D01*
Y373675D01*
X1614576D01*
Y372008D01*
X1613743D01*
Y371175D01*
X1612910D01*
Y370342D01*
X1612077D01*
Y369509D01*
X1611244D01*
Y368676D01*
X1610411D01*
Y367843D01*
X1609578D01*
Y366177D01*
X1608745D01*
Y365343D01*
X1607911D01*
Y364510D01*
X1607078D01*
Y363677D01*
X1606245D01*
Y362011D01*
X1605412D01*
Y361178D01*
X1604579D01*
Y360345D01*
X1603746D01*
Y359512D01*
X1602913D01*
Y358679D01*
X1602080D01*
Y357012D01*
X1601246D01*
Y356179D01*
X1600413D01*
Y355346D01*
X1599580D01*
Y354513D01*
X1598747D01*
Y353680D01*
X1597914D01*
Y352847D01*
X1597081D01*
Y351180D01*
X1596248D01*
Y350347D01*
X1595415D01*
Y349514D01*
X1594581D01*
Y348681D01*
X1593748D01*
Y347848D01*
X1592082D01*
Y348681D01*
X1588750D01*
Y349514D01*
X1583751D01*
Y350347D01*
X1582085D01*
Y351180D01*
X1582918D01*
Y352014D01*
X1583751D01*
Y352847D01*
X1584584D01*
Y354513D01*
X1585417D01*
Y355346D01*
X1586250D01*
Y356179D01*
X1587083D01*
Y357012D01*
X1587917D01*
Y357845D01*
X1588750D01*
Y359512D01*
X1589583D01*
Y360345D01*
X1590416D01*
Y361178D01*
X1591249D01*
Y362011D01*
X1592082D01*
Y362844D01*
X1592915D01*
Y364510D01*
X1593748D01*
Y365343D01*
X1594581D01*
Y366177D01*
X1595415D01*
Y367010D01*
X1596248D01*
Y367843D01*
X1597081D01*
Y369509D01*
X1598747D01*
Y371175D01*
X1599580D01*
Y372008D01*
X1600413D01*
Y372841D01*
X1601246D01*
Y373675D01*
X1602080D01*
Y375341D01*
X1602913D01*
Y376174D01*
X1603746D01*
Y377007D01*
X1604579D01*
Y377840D01*
X1605412D01*
Y378673D01*
X1606245D01*
Y380340D01*
X1607078D01*
Y381173D01*
X1607911D01*
Y382006D01*
X1608745D01*
Y382839D01*
X1609578D01*
Y383672D01*
X1610411D01*
Y384505D01*
X1611244D01*
Y386171D01*
X1612077D01*
Y387005D01*
X1612910D01*
Y387838D01*
X1613743D01*
Y388671D01*
X1614576D01*
Y390337D01*
X1615410D01*
Y391170D01*
X1616243D01*
Y392003D01*
X1617076D01*
Y392836D01*
X1617909D01*
Y393670D01*
X1618742D01*
Y394503D01*
X1619575D01*
Y396169D01*
X1620408D01*
Y397002D01*
X1621241D01*
Y397835D01*
X1622074D01*
Y398668D01*
X1622908D01*
Y399501D01*
X1623741D01*
Y401168D01*
X1624574D01*
Y402001D01*
X1625407D01*
Y402834D01*
X1626240D01*
Y403667D01*
X1627073D01*
Y404500D01*
X1627906D01*
Y406166D01*
X1628739D01*
Y406999D01*
X1629573D01*
Y407833D01*
X1630406D01*
Y408666D01*
X1631239D01*
Y409499D01*
X1632072D01*
Y411165D01*
X1632905D01*
Y411998D01*
X1633738D01*
Y412831D01*
X1634571D01*
Y413664D01*
X1635404D01*
Y414497D01*
X1636237D01*
Y416164D01*
X1637071D01*
Y416997D01*
X1637904D01*
Y417830D01*
X1638737D01*
Y418663D01*
X1639570D01*
Y419496D01*
X1640403D01*
Y420329D01*
X1641236D01*
Y421996D01*
X1642069D01*
Y422829D01*
X1642903D01*
Y423662D01*
X1643736D01*
Y424495D01*
X1644569D01*
Y426161D01*
X1645402D01*
Y426994D01*
X1646235D01*
Y427827D01*
X1647068D01*
Y428661D01*
X1647901D01*
Y430327D01*
X1648734D01*
Y431160D01*
X1649567D01*
Y431993D01*
X1650401D01*
Y432826D01*
X1651234D01*
Y433659D01*
X1652067D01*
Y434492D01*
X1652900D01*
Y435326D01*
X1653733D01*
Y436992D01*
X1654566D01*
Y437825D01*
X1655399D01*
Y438658D01*
X1656232D01*
Y439491D01*
X1657065D01*
Y441157D01*
X1657899D01*
Y441991D01*
X1658732D01*
Y443657D01*
X1407963D01*
Y441991D01*
X1408796D01*
Y441157D01*
X1409629D01*
Y440324D01*
X1410462D01*
Y438658D01*
X1411295D01*
Y437825D01*
X1412128D01*
Y436992D01*
X1412961D01*
Y436159D01*
X1413795D01*
Y434492D01*
X1414628D01*
Y433659D01*
X1415461D01*
Y432826D01*
X1416294D01*
Y431993D01*
X1417127D01*
Y430327D01*
X1417960D01*
Y429494D01*
X1418793D01*
Y428661D01*
X1419626D01*
Y427827D01*
X1420459D01*
Y426994D01*
X1421293D01*
Y425328D01*
X1422959D01*
Y423662D01*
X1423792D01*
Y422829D01*
X1424625D01*
Y421996D01*
X1425458D01*
Y420329D01*
X1426291D01*
Y419496D01*
X1427124D01*
Y418663D01*
X1427957D01*
Y417830D01*
X1428791D01*
Y416997D01*
X1429624D01*
Y415331D01*
X1430457D01*
Y414497D01*
X1431290D01*
Y413664D01*
X1432123D01*
Y412831D01*
X1432956D01*
Y411165D01*
X1433789D01*
Y410332D01*
X1434622D01*
Y409499D01*
X1435456D01*
Y408666D01*
X1436289D01*
Y407833D01*
X1437122D01*
Y406166D01*
X1437955D01*
Y405333D01*
X1438788D01*
Y404500D01*
X1439621D01*
Y403667D01*
X1440454D01*
Y402001D01*
X1442121D01*
Y400335D01*
X1442954D01*
Y399501D01*
X1443787D01*
Y398668D01*
X1444620D01*
Y397002D01*
X1445453D01*
Y396169D01*
X1446286D01*
Y395336D01*
X1447119D01*
Y394503D01*
X1447952D01*
Y393670D01*
X1446286D01*
Y394503D01*
X1443787D01*
Y395336D01*
X1442121D01*
Y396169D01*
X1439621D01*
Y397002D01*
X1437122D01*
Y397835D01*
X1435456D01*
Y398668D01*
X1432956D01*
Y399501D01*
X1430457D01*
Y400335D01*
X1428791D01*
Y401168D01*
X1427957D01*
Y402001D01*
X1427124D01*
Y402834D01*
X1426291D01*
Y403667D01*
X1425458D01*
Y404500D01*
X1424625D01*
Y406166D01*
X1423792D01*
Y406999D01*
X1422959D01*
Y407833D01*
X1422126D01*
Y408666D01*
X1421293D01*
Y409499D01*
X1420459D01*
Y411165D01*
X1419626D01*
Y411998D01*
X1418793D01*
Y412831D01*
X1417960D01*
Y414497D01*
X1417127D01*
Y415331D01*
X1416294D01*
Y416164D01*
X1415461D01*
Y416997D01*
X1414628D01*
Y417830D01*
X1413795D01*
Y418663D01*
X1412961D01*
Y419496D01*
X1412128D01*
Y421162D01*
X1411295D01*
Y421996D01*
X1410462D01*
Y422829D01*
X1409629D01*
Y423662D01*
X1408796D01*
Y425328D01*
X1407963D01*
Y426161D01*
X1407130D01*
Y426994D01*
X1406296D01*
Y427827D01*
X1405463D01*
Y429494D01*
X1404630D01*
Y430327D01*
X1403797D01*
Y431160D01*
X1402964D01*
Y431993D01*
X1402131D01*
Y432826D01*
X1401298D01*
Y434492D01*
X1400465D01*
Y435326D01*
X1399631D01*
Y436159D01*
X1398798D01*
Y436992D01*
X1397965D01*
Y437825D01*
X1397132D01*
Y439491D01*
X1396299D01*
Y440324D01*
X1395466D01*
Y441157D01*
X1394633D01*
Y441991D01*
X1393800D01*
Y443657D01*
X1392966D01*
Y444490D01*
X1392133D01*
Y445323D01*
X1391300D01*
Y446156D01*
X1390467D01*
Y447822D01*
X1388801D01*
Y449489D01*
X1387968D01*
Y451155D01*
X1678727D01*
Y449489D01*
D02*
G37*
G36*
X1692890Y455320D02*
X1692057D01*
Y454487D01*
X1691223D01*
Y453654D01*
X1690390D01*
Y452821D01*
X1689557D01*
Y451988D01*
X1688724D01*
Y451155D01*
X1687891D01*
Y449489D01*
X1687058D01*
Y448655D01*
X1686225D01*
Y447822D01*
X1685392D01*
Y446989D01*
X1684559D01*
Y446156D01*
X1683725D01*
Y444490D01*
X1682892D01*
Y443657D01*
X1682059D01*
Y442824D01*
X1681226D01*
Y441991D01*
X1680393D01*
Y441157D01*
X1679560D01*
Y439491D01*
X1678727D01*
Y438658D01*
X1677894D01*
Y437825D01*
X1677060D01*
Y436992D01*
X1676227D01*
Y436159D01*
X1675394D01*
Y435326D01*
Y434492D01*
X1674561D01*
Y433659D01*
X1673728D01*
Y432826D01*
X1672895D01*
Y431993D01*
X1672062D01*
Y431160D01*
X1671229D01*
Y429494D01*
X1670395D01*
Y428661D01*
X1669562D01*
Y427827D01*
X1668729D01*
Y426994D01*
X1667896D01*
Y426161D01*
X1667063D01*
Y424495D01*
X1666230D01*
Y423662D01*
X1665397D01*
Y422829D01*
X1664564D01*
Y421996D01*
X1663730D01*
Y421162D01*
X1662897D01*
Y420329D01*
X1662064D01*
Y418663D01*
X1661231D01*
Y417830D01*
X1660398D01*
Y416997D01*
X1659565D01*
Y416164D01*
X1658732D01*
Y415331D01*
X1657899D01*
Y413664D01*
X1657065D01*
Y412831D01*
X1656232D01*
Y411998D01*
X1655399D01*
Y411165D01*
X1654566D01*
Y409499D01*
X1653733D01*
Y408666D01*
X1652067D01*
Y406999D01*
X1651234D01*
Y406166D01*
X1650401D01*
Y405333D01*
X1649567D01*
Y403667D01*
X1648734D01*
Y402834D01*
X1647901D01*
Y402001D01*
X1647068D01*
Y401168D01*
X1646235D01*
Y400335D01*
X1645402D01*
Y398668D01*
X1644569D01*
Y397835D01*
X1643736D01*
Y397002D01*
X1642903D01*
Y396169D01*
X1642069D01*
Y395336D01*
X1641236D01*
Y393670D01*
X1640403D01*
Y392836D01*
X1639570D01*
Y392003D01*
X1638737D01*
Y391170D01*
X1637904D01*
Y390337D01*
X1637071D01*
Y388671D01*
X1636237D01*
Y387838D01*
X1635404D01*
Y387005D01*
X1634571D01*
Y386171D01*
X1633738D01*
Y385338D01*
X1632905D01*
Y384505D01*
X1632072D01*
Y382839D01*
X1631239D01*
Y382006D01*
X1630406D01*
Y381173D01*
X1629573D01*
Y379506D01*
X1627906D01*
Y377840D01*
X1627073D01*
Y377007D01*
X1626240D01*
Y376174D01*
X1625407D01*
Y375341D01*
X1624574D01*
Y374508D01*
X1623741D01*
Y372841D01*
X1622908D01*
Y372008D01*
X1622074D01*
Y371175D01*
X1621241D01*
Y370342D01*
X1620408D01*
Y369509D01*
X1619575D01*
Y368676D01*
X1618742D01*
Y367010D01*
X1617909D01*
Y366177D01*
X1617076D01*
Y365343D01*
X1616243D01*
Y364510D01*
X1615410D01*
Y362844D01*
X1614576D01*
Y362011D01*
X1613743D01*
Y361178D01*
X1612910D01*
Y360345D01*
X1612077D01*
Y359512D01*
X1611244D01*
Y357845D01*
X1610411D01*
Y357012D01*
X1609578D01*
Y356179D01*
X1608745D01*
Y355346D01*
X1607911D01*
Y354513D01*
X1607078D01*
Y353680D01*
X1606245D01*
Y352014D01*
X1605412D01*
Y351180D01*
X1604579D01*
Y350347D01*
X1603746D01*
Y349514D01*
X1602913D01*
Y348681D01*
X1602080D01*
Y347015D01*
X1597914D01*
Y348681D01*
X1598747D01*
Y349514D01*
X1599580D01*
Y350347D01*
X1600413D01*
Y351180D01*
X1601246D01*
Y352014D01*
X1602080D01*
Y353680D01*
X1602913D01*
Y354513D01*
X1603746D01*
Y355346D01*
X1604579D01*
Y356179D01*
X1605412D01*
Y357012D01*
X1606245D01*
Y358679D01*
X1607078D01*
Y359512D01*
X1607911D01*
Y360345D01*
X1608745D01*
Y361178D01*
X1609578D01*
Y362011D01*
X1610411D01*
Y363677D01*
X1611244D01*
Y364510D01*
X1612077D01*
Y365343D01*
X1612910D01*
Y366177D01*
X1613743D01*
Y367010D01*
X1614576D01*
Y368676D01*
X1615410D01*
Y369509D01*
X1616243D01*
Y370342D01*
X1617076D01*
Y371175D01*
X1617909D01*
Y372008D01*
X1618742D01*
Y373675D01*
X1619575D01*
Y374508D01*
X1620408D01*
Y375341D01*
X1621241D01*
Y376174D01*
X1622074D01*
Y377007D01*
X1622908D01*
Y377840D01*
X1623741D01*
Y379506D01*
X1624574D01*
Y380340D01*
X1625407D01*
Y381173D01*
X1626240D01*
Y382006D01*
X1627073D01*
Y382839D01*
X1627906D01*
Y383672D01*
X1628739D01*
Y384505D01*
X1629573D01*
Y386171D01*
X1630406D01*
Y387005D01*
X1631239D01*
Y387838D01*
X1632072D01*
Y389504D01*
X1632905D01*
Y390337D01*
X1633738D01*
Y391170D01*
X1634571D01*
Y392003D01*
X1635404D01*
Y392836D01*
X1636237D01*
Y393670D01*
X1637071D01*
Y394503D01*
X1637904D01*
Y396169D01*
X1638737D01*
Y397002D01*
X1639570D01*
Y397835D01*
X1640403D01*
Y398668D01*
X1641236D01*
Y399501D01*
X1642069D01*
Y401168D01*
X1642903D01*
Y402001D01*
X1643736D01*
Y402834D01*
X1644569D01*
Y403667D01*
X1645402D01*
Y405333D01*
X1646235D01*
Y406166D01*
X1647068D01*
Y406999D01*
X1647901D01*
Y407833D01*
X1648734D01*
Y408666D01*
X1649567D01*
Y410332D01*
X1650401D01*
Y411165D01*
X1651234D01*
Y411998D01*
X1652067D01*
Y412831D01*
X1652900D01*
Y413664D01*
X1653733D01*
Y415331D01*
X1654566D01*
Y416164D01*
X1655399D01*
Y416997D01*
X1656232D01*
Y417830D01*
X1657065D01*
Y418663D01*
X1657899D01*
Y420329D01*
X1658732D01*
Y421162D01*
X1659565D01*
Y421996D01*
X1660398D01*
Y422829D01*
X1661231D01*
Y423662D01*
X1662064D01*
Y424495D01*
X1662897D01*
Y426161D01*
X1663730D01*
Y426994D01*
X1664564D01*
Y427827D01*
X1665397D01*
Y428661D01*
X1666230D01*
Y430327D01*
X1667063D01*
Y431160D01*
X1667896D01*
Y431993D01*
X1668729D01*
Y432826D01*
X1669562D01*
Y433659D01*
X1670395D01*
Y435326D01*
X1671229D01*
Y436159D01*
X1672062D01*
Y436992D01*
X1672895D01*
Y437825D01*
X1673728D01*
Y438658D01*
X1674561D01*
Y439491D01*
X1675394D01*
Y441157D01*
X1676227D01*
Y441991D01*
X1677060D01*
Y442824D01*
X1677894D01*
Y443657D01*
X1678727D01*
Y444490D01*
X1679560D01*
Y446156D01*
X1680393D01*
Y446989D01*
X1681226D01*
Y447822D01*
X1682059D01*
Y448655D01*
X1682892D01*
Y449489D01*
X1683725D01*
Y450322D01*
X1684559D01*
Y451155D01*
X1685392D01*
Y452821D01*
X1686225D01*
Y453654D01*
X1380470D01*
Y452821D01*
X1381303D01*
Y451988D01*
X1382136D01*
Y451155D01*
X1382969D01*
Y450322D01*
X1383802D01*
Y449489D01*
X1384635D01*
Y448655D01*
X1385468D01*
Y446989D01*
X1386302D01*
Y446156D01*
X1387135D01*
Y445323D01*
X1387968D01*
Y443657D01*
X1388801D01*
Y442824D01*
X1389634D01*
Y441991D01*
X1390467D01*
Y441157D01*
X1391300D01*
Y440324D01*
X1392133D01*
Y438658D01*
X1392966D01*
Y437825D01*
X1393800D01*
Y436992D01*
X1394633D01*
Y436159D01*
X1395466D01*
Y435326D01*
X1396299D01*
Y433659D01*
X1397132D01*
Y432826D01*
X1397965D01*
Y431993D01*
X1398798D01*
Y431160D01*
X1399631D01*
Y429494D01*
X1400465D01*
Y428661D01*
X1401298D01*
Y427827D01*
X1402131D01*
Y426994D01*
X1402964D01*
Y426161D01*
X1403797D01*
Y425328D01*
X1404630D01*
Y423662D01*
X1405463D01*
Y422829D01*
X1406296D01*
Y421996D01*
X1407130D01*
Y420329D01*
X1407963D01*
Y419496D01*
X1408796D01*
Y418663D01*
X1409629D01*
Y417830D01*
X1410462D01*
Y416164D01*
X1412128D01*
Y414497D01*
X1412961D01*
Y413664D01*
X1413795D01*
Y412831D01*
X1414628D01*
Y411165D01*
X1415461D01*
Y410332D01*
X1416294D01*
Y409499D01*
X1417127D01*
Y408666D01*
X1417960D01*
Y407833D01*
X1418793D01*
Y406166D01*
X1419626D01*
Y405333D01*
X1420459D01*
Y404500D01*
X1421293D01*
Y403667D01*
X1419626D01*
Y404500D01*
X1417960D01*
Y405333D01*
X1416294D01*
Y406166D01*
X1414628D01*
Y406999D01*
X1413795D01*
Y408666D01*
X1412961D01*
Y409499D01*
X1412128D01*
Y410332D01*
X1411295D01*
Y411998D01*
X1410462D01*
Y412831D01*
X1409629D01*
Y413664D01*
X1408796D01*
Y414497D01*
X1407963D01*
Y416164D01*
X1406296D01*
Y417830D01*
X1405463D01*
Y418663D01*
X1404630D01*
Y419496D01*
X1403797D01*
Y421162D01*
X1402964D01*
Y421996D01*
X1402131D01*
Y422829D01*
X1401298D01*
Y423662D01*
X1400465D01*
Y424495D01*
X1399631D01*
Y426161D01*
X1398798D01*
Y426994D01*
X1397965D01*
Y427827D01*
X1397132D01*
Y429494D01*
X1395466D01*
Y431160D01*
X1394633D01*
Y431993D01*
X1393800D01*
Y432826D01*
X1392966D01*
Y433659D01*
X1392133D01*
Y435326D01*
X1391300D01*
Y436159D01*
X1390467D01*
Y436992D01*
X1389634D01*
Y437825D01*
X1388801D01*
Y439491D01*
X1387968D01*
Y440324D01*
X1387135D01*
Y441157D01*
X1386302D01*
Y441991D01*
X1385468D01*
Y442824D01*
X1384635D01*
Y444490D01*
X1383802D01*
Y445323D01*
X1382969D01*
Y446156D01*
X1382136D01*
Y446989D01*
X1381303D01*
Y447822D01*
X1380470D01*
Y449489D01*
X1379637D01*
Y450322D01*
X1378803D01*
Y451155D01*
X1377970D01*
Y451988D01*
X1377137D01*
Y452821D01*
X1376304D01*
Y454487D01*
X1375471D01*
Y455320D01*
X1374638D01*
Y456987D01*
X1692890D01*
Y455320D01*
D02*
G37*
G36*
X1506271Y366177D02*
X1509603D01*
Y365343D01*
X1512936D01*
Y364510D01*
X1516268D01*
Y363677D01*
X1518768D01*
Y362844D01*
X1522933D01*
Y362011D01*
X1526266D01*
Y361178D01*
X1529598D01*
Y360345D01*
X1532097D01*
Y359512D01*
X1536263D01*
Y358679D01*
X1539596D01*
Y357845D01*
X1542928D01*
Y357012D01*
X1545427D01*
Y356179D01*
X1548760D01*
Y355346D01*
X1552926D01*
Y354513D01*
X1555425D01*
Y353680D01*
X1559590D01*
Y352847D01*
X1563756D01*
Y352014D01*
X1567089D01*
Y351180D01*
X1569588D01*
Y350347D01*
X1573754D01*
Y349514D01*
X1577919D01*
Y348681D01*
X1581252D01*
Y347848D01*
X1585417D01*
Y347015D01*
X1589583D01*
Y346182D01*
X1594581D01*
Y345349D01*
X1598747D01*
Y344515D01*
X1602080D01*
Y343682D01*
X1602913D01*
Y344515D01*
X1603746D01*
Y343682D01*
X1608745D01*
Y342849D01*
X1613743D01*
Y344515D01*
X1612910D01*
Y345349D01*
X1611244D01*
Y346182D01*
X1610411D01*
Y347015D01*
X1608745D01*
Y347848D01*
X1607078D01*
Y348681D01*
X1606245D01*
Y350347D01*
X1607078D01*
Y351180D01*
X1607911D01*
Y352014D01*
X1608745D01*
Y353680D01*
X1609578D01*
Y354513D01*
X1611244D01*
Y353680D01*
X1612910D01*
Y352847D01*
X1613743D01*
Y352014D01*
X1614576D01*
Y351180D01*
X1616243D01*
Y350347D01*
X1617076D01*
Y349514D01*
X1617909D01*
Y348681D01*
X1619575D01*
Y347848D01*
X1620408D01*
Y347015D01*
X1621241D01*
Y346182D01*
X1622074D01*
Y345349D01*
X1622908D01*
Y344515D01*
X1623741D01*
Y343682D01*
X1624574D01*
Y342849D01*
X1625407D01*
Y342016D01*
X1626240D01*
Y341183D01*
X1627073D01*
Y339517D01*
X1627906D01*
Y337850D01*
X1627073D01*
Y335351D01*
X1626240D01*
Y334518D01*
X1624574D01*
Y333685D01*
X1622908D01*
Y332852D01*
X1617909D01*
Y332019D01*
X1608745D01*
Y332852D01*
X1599580D01*
Y333685D01*
X1594581D01*
Y334518D01*
X1593748D01*
Y333685D01*
X1592915D01*
Y334518D01*
X1591249D01*
Y333685D01*
X1590416D01*
Y334518D01*
X1586250D01*
Y335351D01*
X1582918D01*
Y336184D01*
X1577086D01*
Y337017D01*
X1573754D01*
Y337850D01*
X1572920D01*
Y337017D01*
X1572087D01*
Y337850D01*
X1568755D01*
Y338684D01*
X1563756D01*
Y339517D01*
X1559590D01*
Y340350D01*
X1557091D01*
Y341183D01*
X1552092D01*
Y342016D01*
X1548760D01*
Y342849D01*
X1544594D01*
Y343682D01*
X1540429D01*
Y344515D01*
X1537096D01*
Y345349D01*
X1533764D01*
Y346182D01*
X1530431D01*
Y347015D01*
X1526266D01*
Y347848D01*
X1522933D01*
Y348681D01*
X1518768D01*
Y349514D01*
X1515435D01*
Y350347D01*
X1512103D01*
Y351180D01*
X1509603D01*
Y352014D01*
X1505438D01*
Y352847D01*
X1502105D01*
Y353680D01*
X1499606D01*
Y356179D01*
X1500439D01*
Y357845D01*
X1501272D01*
Y359512D01*
X1502105D01*
Y362011D01*
X1502938D01*
Y363677D01*
X1503771D01*
Y366177D01*
X1504605D01*
Y367010D01*
X1506271D01*
Y366177D01*
D02*
G37*
G36*
X1531264Y343682D02*
X1535430D01*
Y342849D01*
X1539596D01*
Y342016D01*
X1541262D01*
Y318689D01*
X1527099D01*
Y342849D01*
Y343682D01*
Y344515D01*
X1531264D01*
Y343682D01*
D02*
G37*
G36*
X1461282Y362011D02*
X1462949D01*
Y361178D01*
X1465448D01*
Y360345D01*
X1467114D01*
Y359512D01*
X1469613D01*
Y357845D01*
X1470447D01*
Y356179D01*
X1471280D01*
Y352847D01*
X1472113D01*
Y352014D01*
X1472946D01*
Y350347D01*
X1473779D01*
Y349514D01*
X1474612D01*
Y348681D01*
X1477112D01*
Y347848D01*
X1478778D01*
Y347015D01*
X1481277D01*
Y346182D01*
X1482943D01*
Y345349D01*
X1485443D01*
Y344515D01*
X1487109D01*
Y343682D01*
X1488775D01*
Y342849D01*
X1489608D01*
Y342016D01*
X1490441D01*
Y341183D01*
X1491275D01*
Y340350D01*
X1492108D01*
Y339517D01*
X1492941D01*
Y338684D01*
X1493774D01*
Y337850D01*
X1494607D01*
Y336184D01*
X1495440D01*
Y335351D01*
X1496273D01*
Y334518D01*
X1497106D01*
Y333685D01*
X1497940D01*
Y332019D01*
X1498773D01*
Y331185D01*
X1499606D01*
Y330352D01*
X1500439D01*
Y328686D01*
X1501272D01*
Y327853D01*
X1502105D01*
Y327020D01*
X1502938D01*
Y326187D01*
X1503771D01*
Y325354D01*
X1504605D01*
Y324521D01*
X1505438D01*
Y322854D01*
X1506271D01*
Y322021D01*
X1507104D01*
Y321188D01*
X1507937D01*
Y320355D01*
X1508770D01*
Y319522D01*
X1509603D01*
Y317856D01*
X1510436D01*
Y317022D01*
X1511270D01*
Y316189D01*
X1512103D01*
Y314523D01*
X1512936D01*
Y313690D01*
X1513769D01*
Y312857D01*
X1514602D01*
Y312024D01*
X1515435D01*
Y311191D01*
X1516268D01*
Y309524D01*
X1517101D01*
Y308691D01*
X1517935D01*
Y307858D01*
X1518768D01*
Y307025D01*
X1519601D01*
Y306192D01*
X1520434D01*
Y304526D01*
X1521267D01*
Y303693D01*
X1522100D01*
Y302859D01*
X1522933D01*
Y302026D01*
X1523766D01*
Y300360D01*
X1524599D01*
Y299527D01*
X1525433D01*
Y298694D01*
X1526266D01*
Y297861D01*
X1527099D01*
Y296194D01*
X1528765D01*
Y294528D01*
X1529598D01*
Y293695D01*
X1530431D01*
Y292862D01*
X1531264D01*
Y292029D01*
X1532097D01*
Y291196D01*
X1532931D01*
Y292029D01*
X1533764D01*
Y292862D01*
X1534597D01*
Y294528D01*
X1535430D01*
Y295361D01*
X1536263D01*
Y296194D01*
X1537096D01*
Y297028D01*
X1537929D01*
Y297861D01*
X1538763D01*
Y299527D01*
X1539596D01*
Y300360D01*
X1540429D01*
Y301193D01*
X1541262D01*
Y302026D01*
X1542095D01*
Y302859D01*
X1542928D01*
Y304526D01*
X1543761D01*
Y305359D01*
X1544594D01*
Y306192D01*
X1545427D01*
Y307858D01*
X1546261D01*
Y308691D01*
X1547094D01*
Y309524D01*
X1547927D01*
Y310357D01*
X1548760D01*
Y311191D01*
X1549593D01*
Y312024D01*
X1550426D01*
Y312857D01*
X1551259D01*
Y314523D01*
X1552092D01*
Y315356D01*
X1552926D01*
Y316189D01*
X1553759D01*
Y317022D01*
X1554592D01*
Y318689D01*
X1555425D01*
Y319522D01*
X1556258D01*
Y320355D01*
X1557091D01*
Y321188D01*
X1557924D01*
Y322021D01*
X1558757D01*
Y322854D01*
X1559590D01*
Y323687D01*
X1560424D01*
Y325354D01*
X1561257D01*
Y326187D01*
X1562090D01*
Y327020D01*
X1562923D01*
Y327853D01*
X1563756D01*
Y328686D01*
X1564589D01*
Y330352D01*
X1565422D01*
Y331185D01*
X1566255D01*
Y332019D01*
X1567089D01*
Y333685D01*
X1567922D01*
Y334518D01*
X1568755D01*
Y335351D01*
X1569588D01*
Y336184D01*
X1571254D01*
Y335351D01*
X1576253D01*
Y334518D01*
X1578752D01*
Y333685D01*
X1581252D01*
Y332852D01*
X1580419D01*
Y332019D01*
X1579585D01*
Y330352D01*
X1578752D01*
Y329519D01*
X1577919D01*
Y328686D01*
X1577086D01*
Y327853D01*
X1576253D01*
Y327020D01*
X1575420D01*
Y325354D01*
X1574587D01*
Y324521D01*
X1573754D01*
Y323687D01*
X1572920D01*
Y322854D01*
X1572087D01*
Y321188D01*
X1571254D01*
Y320355D01*
X1570421D01*
Y319522D01*
X1569588D01*
Y318689D01*
X1568755D01*
Y317856D01*
X1567922D01*
Y316189D01*
X1566255D01*
Y314523D01*
X1565422D01*
Y313690D01*
X1564589D01*
Y312857D01*
X1563756D01*
Y312024D01*
X1562923D01*
Y310357D01*
X1562090D01*
Y309524D01*
X1561257D01*
Y308691D01*
X1560424D01*
Y307858D01*
X1559590D01*
Y307025D01*
X1558757D01*
Y305359D01*
X1557924D01*
Y304526D01*
X1557091D01*
Y303693D01*
X1556258D01*
Y302859D01*
X1555425D01*
Y302026D01*
X1554592D01*
Y301193D01*
X1553759D01*
Y299527D01*
X1552926D01*
Y298694D01*
X1552092D01*
Y297861D01*
X1551259D01*
Y297028D01*
X1550426D01*
Y295361D01*
X1549593D01*
Y294528D01*
X1548760D01*
Y293695D01*
X1547927D01*
Y292862D01*
X1547094D01*
Y292029D01*
X1546261D01*
Y291196D01*
X1545427D01*
Y289529D01*
X1544594D01*
Y288696D01*
X1543761D01*
Y287863D01*
X1542928D01*
Y287030D01*
X1542095D01*
Y285364D01*
X1541262D01*
Y284531D01*
X1540429D01*
Y283698D01*
X1539596D01*
Y282865D01*
X1538763D01*
Y282031D01*
X1537929D01*
Y281198D01*
X1537096D01*
Y279532D01*
X1536263D01*
Y278699D01*
X1535430D01*
Y277866D01*
X1534597D01*
Y277033D01*
X1533764D01*
Y276200D01*
X1532931D01*
Y274533D01*
X1531264D01*
Y276200D01*
X1530431D01*
Y277033D01*
X1529598D01*
Y277866D01*
X1528765D01*
Y278699D01*
X1527932D01*
Y279532D01*
X1527099D01*
Y281198D01*
X1526266D01*
Y282031D01*
X1525433D01*
Y282865D01*
X1524599D01*
Y283698D01*
X1523766D01*
Y285364D01*
X1522933D01*
Y286197D01*
X1522100D01*
Y287030D01*
X1521267D01*
Y287863D01*
X1520434D01*
Y288696D01*
X1519601D01*
Y290363D01*
X1518768D01*
Y291196D01*
X1517935D01*
Y292029D01*
X1517101D01*
Y292862D01*
X1516268D01*
Y293695D01*
X1515435D01*
Y294528D01*
X1514602D01*
Y296194D01*
X1513769D01*
Y297028D01*
X1512936D01*
Y297861D01*
X1512103D01*
Y299527D01*
X1511270D01*
Y300360D01*
X1510436D01*
Y301193D01*
X1509603D01*
Y302026D01*
X1508770D01*
Y302859D01*
X1507937D01*
Y304526D01*
X1507104D01*
Y305359D01*
X1506271D01*
Y306192D01*
X1505438D01*
Y307025D01*
X1504605D01*
Y307858D01*
X1503771D01*
Y309524D01*
X1502938D01*
Y310357D01*
X1502105D01*
Y311191D01*
X1501272D01*
Y312024D01*
X1500439D01*
Y313690D01*
X1499606D01*
Y314523D01*
X1498773D01*
Y315356D01*
X1497940D01*
Y316189D01*
X1497106D01*
Y317022D01*
X1496273D01*
Y318689D01*
X1495440D01*
Y319522D01*
X1494607D01*
Y320355D01*
X1493774D01*
Y321188D01*
X1492941D01*
Y322854D01*
X1492108D01*
Y323687D01*
X1491275D01*
Y324521D01*
X1490441D01*
Y325354D01*
X1489608D01*
Y327020D01*
X1488775D01*
Y327853D01*
X1487942D01*
Y328686D01*
X1487109D01*
Y329519D01*
X1486276D01*
Y330352D01*
X1485443D01*
Y332019D01*
X1484610D01*
Y332852D01*
X1483777D01*
Y333685D01*
X1482943D01*
Y334518D01*
X1482110D01*
Y336184D01*
X1481277D01*
Y337017D01*
X1480444D01*
Y337850D01*
X1479611D01*
Y338684D01*
X1478778D01*
Y339517D01*
X1477945D01*
Y340350D01*
X1477112D01*
Y342016D01*
X1476279D01*
Y342849D01*
X1475445D01*
Y343682D01*
X1474612D01*
Y344515D01*
X1473779D01*
Y346182D01*
X1472946D01*
Y347015D01*
X1472113D01*
Y347848D01*
X1471280D01*
Y348681D01*
X1470447D01*
Y349514D01*
X1469613D01*
Y351180D01*
X1468780D01*
Y352014D01*
X1467947D01*
Y352847D01*
X1467114D01*
Y353680D01*
X1466281D01*
Y355346D01*
X1465448D01*
Y356179D01*
X1464615D01*
Y357012D01*
X1463782D01*
Y357845D01*
X1462949D01*
Y358679D01*
X1462115D01*
Y360345D01*
X1461282D01*
Y361178D01*
X1460449D01*
Y362011D01*
X1459616D01*
Y362844D01*
X1461282D01*
Y362011D01*
D02*
G37*
G36*
X1446286Y370342D02*
X1447952D01*
Y369509D01*
X1449619D01*
Y368676D01*
X1450452D01*
Y367843D01*
X1451285D01*
Y367010D01*
X1452118D01*
Y366177D01*
X1452951D01*
Y364510D01*
X1453784D01*
Y363677D01*
X1454617D01*
Y362844D01*
X1455450D01*
Y362011D01*
X1456284D01*
Y361178D01*
X1457117D01*
Y359512D01*
X1457950D01*
Y358679D01*
X1458783D01*
Y357845D01*
X1459616D01*
Y357012D01*
X1460449D01*
Y355346D01*
X1461282D01*
Y354513D01*
X1462115D01*
Y353680D01*
X1462949D01*
Y352847D01*
X1463782D01*
Y352014D01*
X1464615D01*
Y350347D01*
X1465448D01*
Y349514D01*
X1466281D01*
Y348681D01*
X1467114D01*
Y347848D01*
X1467947D01*
Y346182D01*
X1469613D01*
Y344515D01*
X1470447D01*
Y343682D01*
X1471280D01*
Y342849D01*
X1472113D01*
Y341183D01*
X1472946D01*
Y340350D01*
X1473779D01*
Y339517D01*
X1474612D01*
Y338684D01*
X1475445D01*
Y337017D01*
X1476279D01*
Y336184D01*
X1477112D01*
Y335351D01*
X1477945D01*
Y334518D01*
X1478778D01*
Y333685D01*
X1479611D01*
Y332019D01*
X1480444D01*
Y331185D01*
X1481277D01*
Y330352D01*
X1482110D01*
Y329519D01*
X1482943D01*
Y327853D01*
X1483777D01*
Y327020D01*
X1484610D01*
Y326187D01*
X1485443D01*
Y325354D01*
X1486276D01*
Y324521D01*
X1487109D01*
Y322854D01*
X1487942D01*
Y322021D01*
X1488775D01*
Y321188D01*
X1489608D01*
Y320355D01*
X1490441D01*
Y319522D01*
X1491275D01*
Y317856D01*
X1492108D01*
Y317022D01*
X1492941D01*
Y316189D01*
X1493774D01*
Y315356D01*
X1494607D01*
Y313690D01*
X1495440D01*
Y312857D01*
X1496273D01*
Y312024D01*
X1497106D01*
Y311191D01*
X1497940D01*
Y310357D01*
X1498773D01*
Y308691D01*
X1499606D01*
Y307858D01*
X1500439D01*
Y307025D01*
X1501272D01*
Y306192D01*
X1502105D01*
Y305359D01*
X1502938D01*
Y303693D01*
X1503771D01*
Y302859D01*
X1504605D01*
Y302026D01*
X1505438D01*
Y300360D01*
X1506271D01*
Y299527D01*
X1507104D01*
Y298694D01*
X1507937D01*
Y297861D01*
X1508770D01*
Y297028D01*
X1509603D01*
Y296194D01*
X1510436D01*
Y294528D01*
X1511270D01*
Y293695D01*
X1512103D01*
Y292862D01*
X1512936D01*
Y292029D01*
X1513769D01*
Y291196D01*
X1514602D01*
Y289529D01*
X1515435D01*
Y288696D01*
X1516268D01*
Y287863D01*
X1517101D01*
Y287030D01*
X1517935D01*
Y285364D01*
X1518768D01*
Y284531D01*
X1519601D01*
Y283698D01*
X1520434D01*
Y282031D01*
X1522100D01*
Y280365D01*
X1522933D01*
Y279532D01*
X1523766D01*
Y278699D01*
X1524599D01*
Y277033D01*
X1525433D01*
Y276200D01*
X1526266D01*
Y275366D01*
X1527099D01*
Y274533D01*
X1527932D01*
Y273700D01*
X1528765D01*
Y272034D01*
X1529598D01*
Y271201D01*
X1530431D01*
Y270368D01*
X1531264D01*
Y269535D01*
X1532931D01*
Y270368D01*
X1533764D01*
Y271201D01*
X1534597D01*
Y272867D01*
X1535430D01*
Y273700D01*
X1536263D01*
Y274533D01*
X1537096D01*
Y275366D01*
X1537929D01*
Y277033D01*
X1538763D01*
Y277866D01*
X1539596D01*
Y278699D01*
X1540429D01*
Y279532D01*
X1541262D01*
Y280365D01*
X1542095D01*
Y281198D01*
X1542928D01*
Y282865D01*
X1543761D01*
Y283698D01*
X1544594D01*
Y284531D01*
X1545427D01*
Y285364D01*
X1546261D01*
Y286197D01*
X1547094D01*
Y287863D01*
X1547927D01*
Y288696D01*
X1548760D01*
Y289529D01*
X1549593D01*
Y290363D01*
X1550426D01*
Y291196D01*
X1551259D01*
Y292862D01*
X1552092D01*
Y293695D01*
X1552926D01*
Y294528D01*
X1553759D01*
Y295361D01*
X1554592D01*
Y296194D01*
X1555425D01*
Y297861D01*
X1556258D01*
Y298694D01*
X1557091D01*
Y299527D01*
X1557924D01*
Y300360D01*
X1558757D01*
Y301193D01*
X1559590D01*
Y302859D01*
X1560424D01*
Y303693D01*
X1561257D01*
Y304526D01*
X1562090D01*
Y305359D01*
X1562923D01*
Y306192D01*
X1563756D01*
Y307858D01*
X1564589D01*
Y308691D01*
X1565422D01*
Y309524D01*
X1566255D01*
Y310357D01*
X1567089D01*
Y311191D01*
X1567922D01*
Y312024D01*
X1568755D01*
Y313690D01*
X1569588D01*
Y314523D01*
X1570421D01*
Y315356D01*
X1571254D01*
Y316189D01*
X1572087D01*
Y317022D01*
X1572920D01*
Y318689D01*
X1573754D01*
Y319522D01*
X1574587D01*
Y320355D01*
X1575420D01*
Y321188D01*
X1576253D01*
Y322021D01*
X1577086D01*
Y323687D01*
X1577919D01*
Y324521D01*
X1578752D01*
Y325354D01*
X1579585D01*
Y326187D01*
X1580419D01*
Y327020D01*
X1581252D01*
Y328686D01*
X1582085D01*
Y329519D01*
X1582918D01*
Y330352D01*
X1583751D01*
Y331185D01*
X1584584D01*
Y332852D01*
X1588750D01*
Y331185D01*
X1587917D01*
Y330352D01*
X1587083D01*
Y329519D01*
X1586250D01*
Y328686D01*
X1585417D01*
Y327853D01*
X1584584D01*
Y326187D01*
X1583751D01*
Y325354D01*
X1582918D01*
Y324521D01*
X1582085D01*
Y323687D01*
X1581252D01*
Y322854D01*
X1580419D01*
Y321188D01*
X1579585D01*
Y320355D01*
X1578752D01*
Y319522D01*
X1577919D01*
Y318689D01*
X1577086D01*
Y317856D01*
X1576253D01*
Y316189D01*
X1575420D01*
Y315356D01*
X1574587D01*
Y314523D01*
X1573754D01*
Y313690D01*
X1572920D01*
Y312857D01*
X1572087D01*
Y311191D01*
X1571254D01*
Y310357D01*
X1570421D01*
Y309524D01*
X1569588D01*
Y308691D01*
X1568755D01*
Y307025D01*
X1567922D01*
Y306192D01*
X1567089D01*
Y305359D01*
X1566255D01*
Y304526D01*
X1565422D01*
Y303693D01*
X1564589D01*
Y302026D01*
X1562923D01*
Y300360D01*
X1562090D01*
Y299527D01*
X1561257D01*
Y298694D01*
X1560424D01*
Y297861D01*
X1559590D01*
Y296194D01*
X1558757D01*
Y295361D01*
X1557924D01*
Y294528D01*
X1557091D01*
Y293695D01*
X1556258D01*
Y292862D01*
Y292029D01*
X1555425D01*
Y291196D01*
X1554592D01*
Y290363D01*
X1553759D01*
Y289529D01*
X1552926D01*
Y288696D01*
X1552092D01*
Y287030D01*
X1550426D01*
Y285364D01*
X1549593D01*
Y284531D01*
X1548760D01*
Y283698D01*
X1547927D01*
Y282865D01*
X1547094D01*
Y281198D01*
X1546261D01*
Y280365D01*
X1545427D01*
Y279532D01*
X1544594D01*
Y278699D01*
X1543761D01*
Y277866D01*
X1542928D01*
Y277033D01*
X1542095D01*
Y276200D01*
X1541262D01*
Y274533D01*
X1540429D01*
Y273700D01*
X1539596D01*
Y272867D01*
X1538763D01*
Y272034D01*
X1537929D01*
Y271201D01*
X1537096D01*
Y269535D01*
X1536263D01*
Y268701D01*
X1535430D01*
Y267868D01*
X1534597D01*
Y267035D01*
X1533764D01*
Y265369D01*
X1532931D01*
Y264536D01*
X1531264D01*
Y265369D01*
X1530431D01*
Y266202D01*
X1529598D01*
Y267868D01*
X1527932D01*
Y269535D01*
X1527099D01*
Y270368D01*
X1526266D01*
Y271201D01*
X1525433D01*
Y272867D01*
X1524599D01*
Y273700D01*
X1523766D01*
Y274533D01*
X1522933D01*
Y275366D01*
X1522100D01*
Y276200D01*
X1521267D01*
Y277866D01*
X1520434D01*
Y278699D01*
X1519601D01*
Y279532D01*
X1518768D01*
Y280365D01*
X1517935D01*
Y282031D01*
X1517101D01*
Y282865D01*
X1516268D01*
Y283698D01*
X1515435D01*
Y284531D01*
X1514602D01*
Y285364D01*
X1513769D01*
Y287030D01*
X1512936D01*
Y287863D01*
X1512103D01*
Y288696D01*
X1511270D01*
Y290363D01*
X1509603D01*
Y291196D01*
X1508770D01*
Y292862D01*
X1507937D01*
Y293695D01*
X1507104D01*
Y294528D01*
X1506271D01*
Y296194D01*
X1505438D01*
Y297028D01*
X1504605D01*
Y297861D01*
X1503771D01*
Y298694D01*
X1502938D01*
Y300360D01*
X1502105D01*
Y301193D01*
X1500439D01*
Y302859D01*
X1499606D01*
Y303693D01*
X1498773D01*
Y304526D01*
X1497940D01*
Y306192D01*
X1497106D01*
Y307025D01*
X1496273D01*
Y307858D01*
X1495440D01*
Y308691D01*
X1494607D01*
Y310357D01*
X1493774D01*
Y311191D01*
X1492941D01*
Y312024D01*
X1492108D01*
Y312857D01*
X1491275D01*
Y314523D01*
X1489608D01*
Y316189D01*
X1488775D01*
Y317022D01*
X1487942D01*
Y318689D01*
X1487109D01*
Y319522D01*
X1486276D01*
Y320355D01*
X1485443D01*
Y321188D01*
X1484610D01*
Y322021D01*
X1483777D01*
Y323687D01*
X1482943D01*
Y324521D01*
X1482110D01*
Y325354D01*
X1481277D01*
Y326187D01*
X1480444D01*
Y327020D01*
X1479611D01*
Y328686D01*
X1478778D01*
Y329519D01*
X1477945D01*
Y330352D01*
X1477112D01*
Y331185D01*
X1476279D01*
Y332019D01*
X1475445D01*
Y333685D01*
X1474612D01*
Y334518D01*
X1473779D01*
Y335351D01*
X1472946D01*
Y337017D01*
X1471280D01*
Y338684D01*
X1470447D01*
Y339517D01*
X1469613D01*
Y340350D01*
X1468780D01*
Y342016D01*
X1467947D01*
Y342849D01*
X1467114D01*
Y343682D01*
X1466281D01*
Y344515D01*
X1465448D01*
Y345349D01*
X1464615D01*
Y347015D01*
X1463782D01*
Y347848D01*
X1462949D01*
Y348681D01*
X1462115D01*
Y349514D01*
X1461282D01*
Y350347D01*
X1460449D01*
Y352014D01*
X1459616D01*
Y352847D01*
X1458783D01*
Y353680D01*
X1457950D01*
Y354513D01*
X1457117D01*
Y356179D01*
X1456284D01*
Y357012D01*
X1455450D01*
Y357845D01*
X1454617D01*
Y358679D01*
X1453784D01*
Y360345D01*
X1452951D01*
Y361178D01*
X1452118D01*
Y362011D01*
X1451285D01*
Y362844D01*
X1450452D01*
Y363677D01*
X1449619D01*
Y364510D01*
X1448786D01*
Y365343D01*
X1447952D01*
Y367010D01*
X1447119D01*
Y367843D01*
X1446286D01*
Y368676D01*
X1445453D01*
Y370342D01*
X1444620D01*
Y371175D01*
X1446286D01*
Y370342D01*
D02*
G37*
G36*
X1555425Y239542D02*
X1554592D01*
Y238709D01*
X1553759D01*
Y237043D01*
X1552926D01*
Y236210D01*
X1552092D01*
Y235377D01*
X1551259D01*
Y234544D01*
X1550426D01*
Y233710D01*
X1549593D01*
Y232877D01*
X1548760D01*
Y232044D01*
X1527932D01*
Y231211D01*
X1527099D01*
Y229545D01*
X1526266D01*
Y227879D01*
X1525433D01*
Y225379D01*
X1524599D01*
Y222880D01*
X1525433D01*
Y223713D01*
X1526266D01*
Y224546D01*
X1527099D01*
Y225379D01*
X1527932D01*
Y226212D01*
X1528765D01*
Y227045D01*
X1530431D01*
Y227879D01*
X1531264D01*
Y227045D01*
X1543761D01*
Y227879D01*
X1544594D01*
Y226212D01*
X1542928D01*
Y225379D01*
X1542095D01*
Y224546D01*
X1541262D01*
Y223713D01*
X1540429D01*
Y222880D01*
X1539596D01*
Y222047D01*
X1538763D01*
Y221214D01*
X1537929D01*
Y220381D01*
X1537096D01*
Y219547D01*
X1536263D01*
Y218714D01*
X1522933D01*
Y217881D01*
X1522100D01*
Y216215D01*
X1521267D01*
Y214549D01*
X1546261D01*
Y213716D01*
X1545427D01*
Y212049D01*
X1544594D01*
Y211216D01*
X1543761D01*
Y210383D01*
X1542928D01*
Y209550D01*
X1542095D01*
Y208717D01*
X1541262D01*
Y207884D01*
X1540429D01*
Y207051D01*
X1539596D01*
Y206217D01*
X1538763D01*
Y205384D01*
X1505438D01*
Y207051D01*
X1506271D01*
Y209550D01*
X1507104D01*
Y212049D01*
X1507937D01*
Y214549D01*
X1508770D01*
Y216215D01*
X1509603D01*
Y218714D01*
X1510436D01*
Y221214D01*
X1511270D01*
Y222880D01*
X1512103D01*
Y225379D01*
X1512936D01*
Y227879D01*
X1513769D01*
Y230378D01*
X1514602D01*
Y232044D01*
X1515435D01*
Y234544D01*
X1516268D01*
Y237043D01*
X1517101D01*
Y239542D01*
X1517935D01*
Y240375D01*
X1555425D01*
Y239542D01*
D02*
G37*
G36*
X1505438Y238709D02*
X1504605D01*
Y237876D01*
X1503771D01*
Y237043D01*
X1502938D01*
Y236210D01*
X1502105D01*
Y234544D01*
X1501272D01*
Y233710D01*
X1500439D01*
Y232877D01*
X1499606D01*
Y232044D01*
X1476279D01*
Y231211D01*
X1475445D01*
Y227879D01*
X1477112D01*
Y227045D01*
X1492941D01*
Y226212D01*
X1493774D01*
Y225379D01*
X1494607D01*
Y224546D01*
X1495440D01*
Y223713D01*
X1496273D01*
Y221214D01*
X1497106D01*
Y213716D01*
X1496273D01*
Y211216D01*
X1495440D01*
Y210383D01*
X1494607D01*
Y208717D01*
X1493774D01*
Y207884D01*
X1492941D01*
Y207051D01*
X1491275D01*
Y206217D01*
X1488775D01*
Y205384D01*
X1454617D01*
Y206217D01*
X1455450D01*
Y207884D01*
X1456284D01*
Y208717D01*
X1457117D01*
Y210383D01*
X1457950D01*
Y211216D01*
X1458783D01*
Y212049D01*
X1459616D01*
Y212882D01*
X1460449D01*
Y214549D01*
X1484610D01*
Y215382D01*
X1485443D01*
Y217881D01*
X1484610D01*
Y218714D01*
X1468780D01*
Y219547D01*
X1467114D01*
Y220381D01*
X1466281D01*
Y221214D01*
X1465448D01*
Y222047D01*
X1464615D01*
Y222880D01*
X1463782D01*
Y224546D01*
X1462949D01*
Y227879D01*
X1462115D01*
Y229545D01*
X1462949D01*
Y232877D01*
X1463782D01*
Y234544D01*
X1464615D01*
Y235377D01*
X1465448D01*
Y236210D01*
X1466281D01*
Y237043D01*
X1467114D01*
Y237876D01*
X1467947D01*
Y238709D01*
X1468780D01*
Y239542D01*
X1469613D01*
Y240375D01*
X1505438D01*
Y238709D01*
D02*
G37*
G36*
X1595415Y239542D02*
X1597914D01*
Y238709D01*
X1599580D01*
Y237876D01*
X1600413D01*
Y237043D01*
X1602080D01*
Y236210D01*
X1602913D01*
Y234544D01*
X1603746D01*
Y232877D01*
X1604579D01*
Y230378D01*
X1605412D01*
Y226212D01*
X1604579D01*
Y222047D01*
X1603746D01*
Y219547D01*
X1602913D01*
Y217881D01*
X1602080D01*
Y217048D01*
X1601246D01*
Y215382D01*
X1600413D01*
Y214549D01*
X1599580D01*
Y213716D01*
X1598747D01*
Y212882D01*
X1597914D01*
Y212049D01*
X1597081D01*
Y211216D01*
X1596248D01*
Y207884D01*
X1597081D01*
Y206217D01*
X1597914D01*
Y204551D01*
X1598747D01*
Y203718D01*
X1585417D01*
Y205384D01*
X1576253D01*
Y206217D01*
X1570421D01*
Y207051D01*
X1567922D01*
Y207884D01*
X1565422D01*
Y208717D01*
X1564589D01*
Y209550D01*
X1563756D01*
Y210383D01*
X1562923D01*
Y211216D01*
X1562090D01*
Y212049D01*
X1561257D01*
Y213716D01*
X1560424D01*
Y224546D01*
X1561257D01*
Y227045D01*
X1562090D01*
Y228712D01*
X1562923D01*
Y229545D01*
X1563756D01*
Y231211D01*
X1564589D01*
Y232044D01*
X1565422D01*
Y232877D01*
X1566255D01*
Y233710D01*
X1567089D01*
Y234544D01*
X1567922D01*
Y235377D01*
X1568755D01*
Y236210D01*
X1569588D01*
Y237043D01*
X1570421D01*
Y237876D01*
X1572087D01*
Y238709D01*
X1573754D01*
Y239542D01*
X1576253D01*
Y240375D01*
X1595415D01*
Y239542D01*
D02*
G37*
G36*
X1624574Y169560D02*
X1434622D01*
Y199553D01*
X1624574D01*
Y169560D01*
D02*
G37*
%LPC*%
G36*
X1571254Y421996D02*
X1569588D01*
Y420329D01*
X1568755D01*
Y419496D01*
X1567922D01*
Y417830D01*
X1567089D01*
Y416997D01*
X1566255D01*
Y416164D01*
X1565422D01*
Y414497D01*
X1572087D01*
Y416997D01*
X1571254D01*
Y421996D01*
D02*
G37*
G36*
X1521267Y423662D02*
X1512936D01*
Y421996D01*
X1512103D01*
Y420329D01*
X1512936D01*
Y421162D01*
X1513769D01*
Y421996D01*
X1521267D01*
Y423662D01*
D02*
G37*
G36*
X1488775Y421996D02*
X1487942D01*
Y421162D01*
X1487109D01*
Y419496D01*
X1486276D01*
Y418663D01*
X1485443D01*
Y416997D01*
X1484610D01*
Y416164D01*
X1483777D01*
Y415331D01*
X1482943D01*
Y414497D01*
X1489608D01*
Y417830D01*
Y418663D01*
Y420329D01*
X1488775D01*
Y421996D01*
D02*
G37*
G36*
X1587917Y232044D02*
X1581252D01*
Y231211D01*
X1578752D01*
Y230378D01*
X1577919D01*
Y229545D01*
X1577086D01*
Y228712D01*
X1575420D01*
Y227045D01*
X1574587D01*
Y226212D01*
X1573754D01*
Y224546D01*
X1572920D01*
Y218714D01*
X1573754D01*
Y217048D01*
X1574587D01*
Y216215D01*
X1575420D01*
Y215382D01*
X1577086D01*
Y214549D01*
X1578752D01*
Y217048D01*
X1577919D01*
Y218714D01*
X1577086D01*
Y220381D01*
X1576253D01*
Y222880D01*
X1577086D01*
Y222047D01*
X1590416D01*
Y220381D01*
X1591249D01*
Y221214D01*
X1592082D01*
Y222880D01*
X1592915D01*
Y227045D01*
X1592082D01*
Y229545D01*
X1591249D01*
Y230378D01*
X1590416D01*
Y231211D01*
X1587917D01*
Y232044D01*
D02*
G37*
G36*
X1617076Y193721D02*
X1598747D01*
Y192055D01*
X1597914D01*
Y189555D01*
X1597081D01*
Y187056D01*
X1596248D01*
Y184556D01*
X1595415D01*
Y182890D01*
X1594581D01*
Y180391D01*
X1593748D01*
Y177891D01*
X1592915D01*
Y175392D01*
X1607078D01*
Y176225D01*
X1609578D01*
Y177058D01*
X1610411D01*
Y177891D01*
X1612077D01*
Y178725D01*
X1612910D01*
Y179558D01*
X1613743D01*
Y180391D01*
X1614576D01*
Y181224D01*
X1615410D01*
Y182890D01*
X1616243D01*
Y183723D01*
X1617076D01*
Y185389D01*
X1617909D01*
Y187056D01*
X1618742D01*
Y191221D01*
X1617909D01*
Y192888D01*
X1617076D01*
Y193721D01*
D02*
G37*
G36*
X1579585D02*
X1561257D01*
Y191221D01*
X1560424D01*
Y188722D01*
X1559590D01*
Y186223D01*
X1558757D01*
Y184556D01*
X1557924D01*
Y182057D01*
X1557091D01*
Y179558D01*
X1556258D01*
Y177058D01*
X1555425D01*
Y175392D01*
X1562090D01*
Y177058D01*
X1562923D01*
Y179558D01*
X1563756D01*
Y181224D01*
X1565422D01*
Y180391D01*
X1566255D01*
Y179558D01*
X1567089D01*
Y178725D01*
X1568755D01*
Y177891D01*
X1569588D01*
Y177058D01*
X1570421D01*
Y176225D01*
X1571254D01*
Y175392D01*
X1578752D01*
Y176225D01*
X1577919D01*
Y177058D01*
X1577086D01*
Y177891D01*
X1576253D01*
Y178725D01*
X1575420D01*
Y179558D01*
X1574587D01*
Y180391D01*
X1573754D01*
Y181224D01*
X1572920D01*
Y182057D01*
X1574587D01*
Y182890D01*
X1577919D01*
Y183723D01*
X1579585D01*
Y184556D01*
X1580419D01*
Y185389D01*
X1581252D01*
Y192055D01*
X1580419D01*
Y192888D01*
X1579585D01*
Y193721D01*
D02*
G37*
G36*
X1537096D02*
X1529598D01*
Y192888D01*
X1528765D01*
Y192055D01*
X1527932D01*
Y191221D01*
X1527099D01*
Y189555D01*
X1526266D01*
Y188722D01*
X1525433D01*
Y187889D01*
X1524599D01*
Y187056D01*
X1523766D01*
Y185389D01*
X1522933D01*
Y184556D01*
X1522100D01*
Y183723D01*
X1521267D01*
Y182057D01*
X1520434D01*
Y181224D01*
X1519601D01*
Y180391D01*
X1518768D01*
Y179558D01*
X1517935D01*
Y177891D01*
X1517101D01*
Y177058D01*
X1516268D01*
Y176225D01*
X1515435D01*
Y175392D01*
X1531264D01*
Y176225D01*
X1532097D01*
Y177891D01*
X1532931D01*
Y178725D01*
X1533764D01*
Y176225D01*
X1534597D01*
Y175392D01*
X1540429D01*
Y179558D01*
X1539596D01*
Y184556D01*
X1538763D01*
Y190388D01*
X1537929D01*
Y192888D01*
X1537096D01*
Y193721D01*
D02*
G37*
G36*
X1501272D02*
X1489608D01*
Y192888D01*
X1487942D01*
Y192055D01*
X1486276D01*
Y191221D01*
X1485443D01*
Y190388D01*
X1484610D01*
Y189555D01*
X1483777D01*
Y187889D01*
X1482943D01*
Y187056D01*
X1482110D01*
Y183723D01*
X1481277D01*
Y180391D01*
X1482110D01*
Y177891D01*
X1482943D01*
Y177058D01*
X1483777D01*
Y176225D01*
X1485443D01*
Y175392D01*
X1497940D01*
Y176225D01*
X1499606D01*
Y177058D01*
X1501272D01*
Y177891D01*
X1502105D01*
Y178725D01*
X1502938D01*
Y179558D01*
X1503771D01*
Y181224D01*
X1504605D01*
Y182890D01*
X1505438D01*
Y185389D01*
X1506271D01*
Y189555D01*
X1505438D01*
Y191221D01*
X1504605D01*
Y192055D01*
X1503771D01*
Y192888D01*
X1501272D01*
Y193721D01*
D02*
G37*
G36*
X1466281D02*
X1447952D01*
Y192055D01*
X1447119D01*
Y189555D01*
X1446286D01*
Y187056D01*
X1445453D01*
Y184556D01*
X1444620D01*
Y182890D01*
X1443787D01*
Y180391D01*
X1442954D01*
Y177891D01*
X1442121D01*
Y175392D01*
X1462115D01*
Y176225D01*
X1463782D01*
Y177058D01*
X1464615D01*
Y178725D01*
X1465448D01*
Y180391D01*
X1466281D01*
Y183723D01*
X1465448D01*
Y184556D01*
X1466281D01*
Y185389D01*
X1467114D01*
Y187056D01*
X1467947D01*
Y192055D01*
X1467114D01*
Y192888D01*
X1466281D01*
Y193721D01*
D02*
G37*
%LPD*%
G36*
X1611244Y186223D02*
X1610411D01*
Y185389D01*
Y184556D01*
X1609578D01*
Y183723D01*
X1608745D01*
Y182890D01*
X1607911D01*
Y182057D01*
X1607078D01*
Y181224D01*
X1605412D01*
Y180391D01*
X1602913D01*
Y179558D01*
X1601246D01*
Y182057D01*
X1602080D01*
Y183723D01*
X1602913D01*
Y186223D01*
X1603746D01*
Y188722D01*
X1611244D01*
Y186223D01*
D02*
G37*
G36*
X1574587Y187056D02*
X1567922D01*
Y186223D01*
X1567089D01*
Y185389D01*
X1566255D01*
Y184556D01*
X1565422D01*
Y186223D01*
X1566255D01*
Y188722D01*
X1574587D01*
Y187056D01*
D02*
G37*
G36*
X1532931Y186223D02*
Y185389D01*
Y181224D01*
X1533764D01*
Y180391D01*
X1532931D01*
Y179558D01*
X1527099D01*
Y181224D01*
X1527932D01*
Y182890D01*
X1528765D01*
Y183723D01*
X1529598D01*
Y184556D01*
X1530431D01*
Y186223D01*
X1531264D01*
Y187056D01*
X1532931D01*
Y186223D01*
D02*
G37*
G36*
X1497940Y187889D02*
X1498773D01*
Y182890D01*
X1497940D01*
Y182057D01*
X1497106D01*
Y181224D01*
X1495440D01*
Y180391D01*
X1494607D01*
Y179558D01*
X1490441D01*
Y180391D01*
X1489608D01*
Y181224D01*
X1488775D01*
Y182890D01*
X1487942D01*
Y184556D01*
X1488775D01*
Y185389D01*
Y186223D01*
X1489608D01*
Y187056D01*
X1490441D01*
Y187889D01*
X1491275D01*
Y188722D01*
X1497940D01*
Y187889D01*
D02*
G37*
G36*
X1461282Y187056D02*
X1454617D01*
Y186223D01*
X1453784D01*
Y185389D01*
X1452951D01*
Y184556D01*
X1452118D01*
Y187056D01*
X1452951D01*
Y187889D01*
Y188722D01*
X1461282D01*
Y187056D01*
D02*
G37*
G36*
X1458783Y180391D02*
X1457117D01*
Y179558D01*
X1450452D01*
Y182057D01*
X1458783D01*
Y180391D01*
D02*
G37*
D10*
X414870Y670560D02*
G03*
X414870Y670560I-1000J0D01*
G01*
X1064140Y675640D02*
G03*
X1064140Y675640I-1000J0D01*
G01*
X576310Y591670D02*
G03*
X576310Y591670I-1000J0D01*
G01*
X1539120Y679450D02*
G03*
X1539120Y679450I-1000J0D01*
G01*
X1643260Y30480D02*
G03*
X1643260Y30480I-1000J0D01*
G01*
X1177170Y39370D02*
G03*
X1177170Y39370I-1000J0D01*
G01*
X685530Y6200D02*
G03*
X685530Y6200I-1000J0D01*
G01*
X1241640Y585470D02*
G03*
X1241640Y585470I-1000J0D01*
G01*
X1065110Y659130D02*
G03*
X1065110Y659130I-1000J0D01*
G01*
X1364830Y585470D02*
G03*
X1364830Y585470I-1000J0D01*
G01*
X74660Y181460D02*
G03*
X74660Y181460I-1000J0D01*
G01*
X840440Y399230D02*
G03*
X840440Y399230I-1000J0D01*
G01*
X1129280Y213090D02*
G03*
X1129280Y211090I0J-1000D01*
G01*
D02*
G03*
X1129280Y213090I0J1000D01*
G01*
X969260Y285480D02*
G03*
X969260Y283480I0J-1000D01*
G01*
D02*
G03*
X969260Y285480I0J1000D01*
G01*
X971130Y166100D02*
G03*
X971130Y164100I0J-1000D01*
G01*
D02*
G03*
X971130Y166100I0J1000D01*
G01*
X829900Y152730D02*
G03*
X829900Y152730I-1000J0D01*
G01*
X1128010Y110220D02*
G03*
X1128010Y108220I0J-1000D01*
G01*
D02*
G03*
X1128010Y110220I0J1000D01*
G01*
X1228340Y214360D02*
G03*
X1228340Y212360I0J-1000D01*
G01*
D02*
G03*
X1228340Y214360I0J1000D01*
G01*
Y110220D02*
G03*
X1228340Y108220I0J-1000D01*
G01*
D02*
G03*
X1228340Y110220I0J1000D01*
G01*
X1826780Y94210D02*
G03*
X1826780Y94210I-620J0D01*
G01*
X1858010Y197280D02*
G03*
X1858010Y198280I0J500D01*
G01*
D02*
G03*
X1858010Y197280I0J-500D01*
G01*
D02*
G03*
X1858010Y198280I0J500D01*
G01*
X1225800Y343170D02*
G03*
X1225800Y345170I0J1000D01*
G01*
D02*
G03*
X1225800Y343170I0J-1000D01*
G01*
Y449850D02*
G03*
X1225800Y451850I0J1000D01*
G01*
D02*
G03*
X1225800Y449850I0J-1000D01*
G01*
X1129280D02*
G03*
X1129280Y451850I0J1000D01*
G01*
D02*
G03*
X1129280Y449850I0J-1000D01*
G01*
Y343170D02*
G03*
X1129280Y345170I0J1000D01*
G01*
D02*
G03*
X1129280Y343170I0J-1000D01*
G01*
X1900060Y234950D02*
G03*
X1898060Y234950I-1000J0D01*
G01*
D02*
G03*
X1900060Y234950I1000J0D01*
G01*
X1434470Y634730D02*
G03*
X1434470Y632730I0J-1000D01*
G01*
D02*
G03*
X1434470Y634730I0J1000D01*
G01*
X981960Y518430D02*
G03*
X981960Y520430I0J1000D01*
G01*
D02*
G03*
X981960Y518430I0J-1000D01*
G01*
X984500Y408670D02*
G03*
X984500Y406670I0J-1000D01*
G01*
D02*
G03*
X984500Y408670I0J1000D01*
G01*
X420370Y657860D02*
Y683260D01*
X572770Y657860D02*
Y683260D01*
X420370D02*
X572770D01*
X420370Y657860D02*
X572770D01*
X1056640Y637540D02*
Y688340D01*
X853440Y637540D02*
Y688340D01*
Y637540D02*
X1056640D01*
X853440Y688340D02*
X1056640D01*
X1298512Y41855D02*
X1302512D01*
X1298512D02*
Y45855D01*
X1298518Y81160D02*
Y85160D01*
X1302518D01*
X1325308Y41853D02*
Y45853D01*
X1321308Y41853D02*
X1325308D01*
X1321302Y85143D02*
X1325302D01*
Y81143D02*
Y85143D01*
X1846760Y259080D02*
X1851120D01*
Y266700D01*
X1849120Y259080D02*
Y266700D01*
X1846760D02*
X1851120D01*
X394915Y357378D02*
Y361378D01*
X398915D01*
X434220Y361372D02*
X438220D01*
Y357372D02*
Y361372D01*
X394913Y334582D02*
X398913D01*
X394913D02*
Y338582D01*
X438203Y334588D02*
Y338588D01*
X434203Y334588D02*
X438203D01*
X114412Y37810D02*
Y168610D01*
X63612D02*
X114412D01*
X63612Y37810D02*
Y168610D01*
Y37810D02*
X114412D01*
X630612Y606923D02*
Y610923D01*
X626612D02*
X630612D01*
X626618Y567633D02*
X630618D01*
Y571633D01*
X603828Y610940D02*
X607828D01*
X603828Y606940D02*
Y610940D01*
X603822Y567635D02*
Y571635D01*
Y567635D02*
X607822D01*
X312367Y57842D02*
X316367D01*
X312367Y53842D02*
Y57842D01*
X355657Y53848D02*
Y57848D01*
X351657D02*
X355657D01*
X312350Y31058D02*
Y35058D01*
Y31058D02*
X316350D01*
X351655Y31052D02*
X355655D01*
Y35052D01*
X661920Y248670D02*
Y439670D01*
X470920Y248670D02*
Y439670D01*
X661920D01*
X470920Y248670D02*
X661920D01*
X871083Y328238D02*
X875083D01*
Y332238D01*
X831793Y328232D02*
Y332232D01*
Y328232D02*
X835793D01*
X875100Y351022D02*
Y355022D01*
X871100D02*
X875100D01*
X831795Y355028D02*
X835795D01*
X831795Y351028D02*
Y355028D01*
X750515Y325628D02*
Y329628D01*
X754515D01*
X789820Y329622D02*
X793820D01*
Y325622D02*
Y329622D01*
X750513Y302832D02*
X754513D01*
X750513D02*
Y306832D01*
X793803Y302838D02*
Y306838D01*
X789803Y302838D02*
X793803D01*
X1313125Y411988D02*
Y415988D01*
X1317125D01*
X1352430Y415982D02*
X1356430D01*
Y411982D02*
Y415982D01*
X1313123Y389192D02*
X1317123D01*
X1313123D02*
Y393192D01*
X1356413Y389198D02*
Y393198D01*
X1352413Y389198D02*
X1356413D01*
X792425Y144018D02*
Y148018D01*
X796425D01*
X831730Y148012D02*
X835730D01*
Y144012D02*
Y148012D01*
X792423Y121222D02*
X796423D01*
X792423D02*
Y125222D01*
X835713Y121228D02*
Y125228D01*
X831713Y121228D02*
X835713D01*
X821553Y199968D02*
X825553D01*
Y203968D01*
X782263Y199962D02*
Y203962D01*
Y199962D02*
X786263D01*
X825570Y222752D02*
Y226752D01*
X821570D02*
X825570D01*
X782265Y226758D02*
X786265D01*
X782265Y222758D02*
Y226758D01*
X562610Y598170D02*
X588010D01*
X562610Y648970D02*
X588010D01*
X562610Y598170D02*
Y648970D01*
X588010Y598170D02*
Y648970D01*
X647017Y622992D02*
X651017D01*
X647017Y618992D02*
Y622992D01*
X690307Y618998D02*
Y622998D01*
X686307D02*
X690307D01*
X647000Y596208D02*
Y600208D01*
Y596208D02*
X651000D01*
X686305Y596202D02*
X690305D01*
Y600202D01*
X656020Y624830D02*
X663520D01*
X668520Y637330D02*
Y642830D01*
X656020Y655330D02*
X663520D01*
X610879Y663881D02*
X635001D01*
X610879Y646759D02*
X635001D01*
X656620Y675270D02*
X675620D01*
X656620Y660770D02*
X675620D01*
X918155Y69088D02*
Y73088D01*
X922155D01*
X957460Y73082D02*
X961460D01*
Y69082D02*
Y73082D01*
X918153Y46292D02*
X922153D01*
X918153D02*
Y50292D01*
X961443Y46298D02*
Y50298D01*
X957443Y46298D02*
X961443D01*
X672338Y181665D02*
X676338D01*
Y177665D02*
Y181665D01*
X676332Y138360D02*
Y142360D01*
X672332Y138360D02*
X676332D01*
X649542Y177667D02*
Y181667D01*
X653542D01*
X649548Y138377D02*
X653548D01*
X649548D02*
Y142377D01*
X1079760Y296660D02*
X1114760D01*
Y231660D02*
Y296660D01*
X1079760Y231660D02*
X1114760D01*
X1079760D02*
Y296660D01*
X1057260Y295410D02*
X1076260D01*
X1829460Y499480D02*
X1848460D01*
X1829460Y513980D02*
X1848460D01*
X1741830Y566050D02*
X1760830D01*
X1741830Y551550D02*
X1760830D01*
X1742480Y581290D02*
X1761480D01*
X1742480Y566790D02*
X1761480D01*
X1741830Y597800D02*
X1760830D01*
X1741830Y583300D02*
X1760830D01*
X1824630Y600903D02*
Y618403D01*
X1807600Y600850D02*
Y618350D01*
X1806820Y602370D02*
Y619370D01*
X1789820Y602370D02*
Y619370D01*
X1789070Y601253D02*
Y618753D01*
X1772040Y601200D02*
Y618700D01*
X1430020Y692150D02*
X1531620D01*
X1430020Y666750D02*
X1531620D01*
X1430020D02*
Y692150D01*
X1531620Y666750D02*
Y692150D01*
X340223Y342208D02*
X344223D01*
Y346208D01*
X300933Y342202D02*
Y346202D01*
Y342202D02*
X304933D01*
X344240Y364992D02*
Y368992D01*
X340240D02*
X344240D01*
X300935Y368998D02*
X304935D01*
X300935Y364998D02*
Y368998D01*
X319796Y256796D02*
Y260046D01*
X316546Y256796D02*
X319796D01*
X276796D02*
X280046D01*
X276796D02*
Y260046D01*
Y296546D02*
Y299796D01*
X280046D01*
X319796Y296546D02*
Y299796D01*
X316546D02*
X319796D01*
X455620Y566900D02*
X512120D01*
X453870Y584650D02*
Y609150D01*
X455620Y626900D02*
X512120D01*
X513870Y584650D02*
Y609150D01*
X387213Y333318D02*
X391213D01*
Y337318D01*
X347923Y333312D02*
Y337312D01*
Y333312D02*
X351923D01*
X391230Y356102D02*
Y360102D01*
X387230D02*
X391230D01*
X347925Y360108D02*
X351925D01*
X347925Y356108D02*
Y360108D01*
X1340983Y104718D02*
X1344983D01*
Y108718D01*
X1301693Y104712D02*
Y108712D01*
Y104712D02*
X1305693D01*
X1345000Y127502D02*
Y131502D01*
X1341000D02*
X1345000D01*
X1301695Y131508D02*
X1305695D01*
X1301695Y127508D02*
Y131508D01*
X1635760Y17780D02*
Y43180D01*
X1534160Y17780D02*
Y43180D01*
Y17780D02*
X1635760D01*
X1534160Y43180D02*
X1635760D01*
X1169670Y26670D02*
Y52070D01*
X1068070Y26670D02*
Y52070D01*
Y26670D02*
X1169670D01*
X1068070Y52070D02*
X1169670D01*
X671830Y12700D02*
X697230D01*
X671830Y114300D02*
X697230D01*
X671830Y12700D02*
Y114300D01*
X697230Y12700D02*
Y114300D01*
X1247140Y572770D02*
Y598170D01*
X1348740Y572770D02*
Y598170D01*
X1247140D02*
X1348740D01*
X1247140Y572770D02*
X1348740D01*
X1070610Y646430D02*
Y671830D01*
X1172210Y646430D02*
Y671830D01*
X1070610D02*
X1172210D01*
X1070610Y646430D02*
X1172210D01*
X1370330Y572770D02*
Y598170D01*
X1471930Y572770D02*
Y598170D01*
X1370330D02*
X1471930D01*
X1370330Y572770D02*
X1471930D01*
X60960Y187960D02*
X86360D01*
X60960Y264160D02*
X86360D01*
X60960Y187960D02*
Y264160D01*
X86360Y187960D02*
Y264160D01*
X876449Y142949D02*
Y172011D01*
X899011Y142949D02*
Y172011D01*
X875179Y257249D02*
Y286311D01*
X897741Y257249D02*
Y286311D01*
X843790Y195210D02*
X862790D01*
X843790Y180710D02*
X862790D01*
X1079760Y192520D02*
X1114760D01*
Y127520D02*
Y192520D01*
X1079760Y127520D02*
X1114760D01*
X1079760D02*
Y192520D01*
X1057260Y191270D02*
X1076260D01*
X902510Y246780D02*
X917760D01*
X921260Y196480D02*
Y245480D01*
Y196480D02*
X953260D01*
Y245480D01*
X921260D02*
X953260D01*
X1250000Y179240D02*
X1258000D01*
X1243500Y185740D02*
X1250000Y179240D01*
X1243500Y185740D02*
Y232240D01*
X1282000Y179240D02*
X1290000D01*
X1296500Y185740D01*
Y232240D01*
X1282000D02*
X1296500D01*
X1243500D02*
X1258000D01*
X1281996Y189484D02*
X1286996D01*
X1284496Y186984D02*
Y191984D01*
X1157610Y191270D02*
X1176610D01*
X1180110Y127520D02*
Y192520D01*
Y127520D02*
X1215110D01*
Y192520D01*
X1180110D02*
X1215110D01*
X1157673Y295140D02*
X1176673D01*
X1180173Y231390D02*
Y296390D01*
Y231390D02*
X1215173D01*
Y296390D01*
X1180173D02*
X1215173D01*
X901880Y134237D02*
X917130D01*
X920630Y83937D02*
Y132937D01*
Y83937D02*
X952630D01*
Y132937D01*
X920630D02*
X952630D01*
X338970Y254390D02*
Y271390D01*
X323970Y254390D02*
Y271390D01*
X250200Y284110D02*
X269200D01*
X250200Y269610D02*
X269200D01*
X271410Y288950D02*
Y307950D01*
X256910Y288950D02*
Y307950D01*
X1574080Y46400D02*
X1596080D01*
X1574080Y67900D02*
X1596080D01*
X1690020Y244090D02*
X1812020D01*
X1690020Y84090D02*
X1812020D01*
X1898030Y251870D02*
Y262870D01*
X1884030Y251870D02*
Y262870D01*
X1140890Y74250D02*
X1162890D01*
X1140890Y52750D02*
X1162890D01*
X695590Y381660D02*
Y400660D01*
X681090Y381660D02*
Y400660D01*
X668910Y474860D02*
X684910D01*
X668910Y459860D02*
X684910D01*
X619360Y183420D02*
Y187420D01*
X569360Y183420D02*
Y187420D01*
X1843028Y622478D02*
Y639202D01*
X1857752Y622478D02*
Y639202D01*
X1856380Y646273D02*
Y663773D01*
X1839350Y646220D02*
Y663720D01*
X1860513Y641400D02*
X1873238D01*
X1860513Y627900D02*
X1873238D01*
X1880957Y626670D02*
X1898457D01*
X1881010Y609640D02*
X1898510D01*
X1872992Y577108D02*
Y593832D01*
X1858268Y577108D02*
Y593832D01*
X1829650Y595790D02*
X1840650D01*
X1829650Y609900D02*
X1840650D01*
X1778290Y572820D02*
Y579820D01*
X1785290D01*
X1835290D02*
X1842290D01*
Y572820D02*
Y579820D01*
Y515820D02*
Y522820D01*
X1835290Y515820D02*
X1842290D01*
X1778290D02*
Y522820D01*
Y515820D02*
X1785290D01*
X1589840Y668500D02*
X1598840D01*
Y601500D02*
Y668500D01*
X1589840Y601500D02*
X1598840D01*
X1459470Y649930D02*
X1489470D01*
X1459470Y617530D02*
X1489470D01*
X1637610Y613810D02*
Y625810D01*
X167503Y60268D02*
X171503D01*
Y64268D01*
X128213Y60262D02*
Y64262D01*
Y60262D02*
X132213D01*
X171520Y83052D02*
Y87052D01*
X167520D02*
X171520D01*
X128215Y87058D02*
X132215D01*
X128215Y83058D02*
Y87058D01*
X349113Y184728D02*
X353113D01*
Y188728D01*
X309823Y184722D02*
Y188722D01*
Y184722D02*
X313823D01*
X353130Y207512D02*
Y211512D01*
X349130D02*
X353130D01*
X309825Y211518D02*
X313825D01*
X309825Y207518D02*
Y211518D01*
X923800Y372480D02*
X955800D01*
Y323480D02*
Y372480D01*
X923800Y323480D02*
X955800D01*
X923800D02*
Y372480D01*
X905050Y373780D02*
X920300D01*
X914251Y386789D02*
Y415851D01*
X891689Y386789D02*
Y415851D01*
X855370Y430900D02*
X874370D01*
X855370Y445400D02*
X874370D01*
X1175030Y430010D02*
X1210030D01*
Y365010D02*
Y430010D01*
X1175030Y365010D02*
X1210030D01*
X1175030D02*
Y430010D01*
X1152530Y428760D02*
X1171530D01*
X1175030Y536690D02*
X1210030D01*
Y471690D02*
Y536690D01*
X1175030Y471690D02*
X1210030D01*
X1175030D02*
Y536690D01*
X1152530Y535440D02*
X1171530D01*
X922530Y485510D02*
X954530D01*
Y436510D02*
Y485510D01*
X922530Y436510D02*
X954530D01*
X922530D02*
Y485510D01*
X903780Y486810D02*
X919030D01*
X911711Y496009D02*
Y525071D01*
X889149Y496009D02*
Y525071D01*
X1279416Y421934D02*
Y426934D01*
X1276916Y424434D02*
X1281916D01*
X1238420Y467190D02*
X1252920D01*
X1276920D02*
X1291420D01*
Y420690D02*
Y467190D01*
X1284920Y414190D02*
X1291420Y420690D01*
X1276920Y414190D02*
X1284920D01*
X1238420Y420690D02*
Y467190D01*
Y420690D02*
X1244920Y414190D01*
X1252920D01*
X450480Y234960D02*
Y253960D01*
X435980Y234960D02*
Y253960D01*
X459130Y460110D02*
X478130D01*
X459130Y474610D02*
X478130D01*
X596290Y475880D02*
X615290D01*
X596290Y461380D02*
X615290D01*
X682360Y429920D02*
Y448920D01*
X696860Y429920D02*
Y448920D01*
X416930Y572810D02*
Y591810D01*
X431430Y572810D02*
Y591810D01*
X12270Y397910D02*
Y593210D01*
Y338710D02*
Y373920D01*
X29765Y323090D02*
X89665D01*
X108665D02*
X290265D01*
Y609090D01*
X222465D02*
X290265D01*
X54965D02*
X192465D01*
X1056010Y535440D02*
X1075010D01*
X1078510Y471690D02*
Y536690D01*
Y471690D02*
X1113510D01*
Y536690D01*
X1078510D02*
X1113510D01*
X1056010Y428760D02*
X1075010D01*
X1078510Y365010D02*
Y430010D01*
Y365010D02*
X1113510D01*
Y430010D01*
X1078510D02*
X1113510D01*
X657805Y538988D02*
Y542988D01*
X661805D01*
X697110Y542982D02*
X701110D01*
Y538982D02*
Y542982D01*
X657803Y516192D02*
X661803D01*
X657803D02*
Y520192D01*
X701093Y516198D02*
Y520198D01*
X697093Y516198D02*
X701093D01*
X748602Y237435D02*
X752602D01*
X748602D02*
Y241435D01*
X748608Y276740D02*
Y280740D01*
X752608D01*
X775398Y237433D02*
Y241433D01*
X771398Y237433D02*
X775398D01*
X771392Y280723D02*
X775392D01*
Y276723D02*
Y280723D01*
X1294075Y166878D02*
Y170878D01*
X1298075D01*
X1333380Y170872D02*
X1337380D01*
Y166872D02*
Y170872D01*
X1294073Y144082D02*
X1298073D01*
X1294073D02*
Y148082D01*
X1337363Y144088D02*
Y148088D01*
X1333363Y144088D02*
X1337363D01*
X1347415Y231648D02*
Y235648D01*
X1351415D01*
X1386720Y235642D02*
X1390720D01*
Y231642D02*
Y235642D01*
X1347413Y208852D02*
X1351413D01*
X1347413D02*
Y212852D01*
X1390703Y208858D02*
Y212858D01*
X1386703Y208858D02*
X1390703D01*
X1925892Y427935D02*
X1929892D01*
X1925892D02*
Y431935D01*
X1925898Y467240D02*
Y471240D01*
X1929898D01*
X1952688Y427933D02*
Y431933D01*
X1948688Y427933D02*
X1952688D01*
X1948682Y471223D02*
X1952682D01*
Y467223D02*
Y471223D01*
X714955Y451358D02*
Y455358D01*
X718955D01*
X754260Y455352D02*
X758260D01*
Y451352D02*
Y455352D01*
X714953Y428562D02*
X718953D01*
X714953D02*
Y432562D01*
X758243Y428568D02*
Y432568D01*
X754243Y428568D02*
X758243D01*
X763215Y438658D02*
Y442658D01*
X767215D01*
X802520Y442652D02*
X806520D01*
Y438652D02*
Y442652D01*
X763213Y415862D02*
X767213D01*
X763213D02*
Y419862D01*
X806503Y415868D02*
Y419868D01*
X802503Y415868D02*
X806503D01*
X711145Y517398D02*
Y521398D01*
X715145D01*
X750450Y521392D02*
X754450D01*
Y517392D02*
Y521392D01*
X711143Y494602D02*
X715143D01*
X711143D02*
Y498602D01*
X754433Y494608D02*
Y498608D01*
X750433Y494608D02*
X754433D01*
X1302965Y351028D02*
Y355028D01*
X1306965D01*
X1342270Y355022D02*
X1346270D01*
Y351022D02*
Y355022D01*
X1302963Y328232D02*
X1306963D01*
X1302963D02*
Y332232D01*
X1346253Y328238D02*
Y332238D01*
X1342253Y328238D02*
X1346253D01*
X679395Y583438D02*
Y587438D01*
X683395D01*
X718700Y587432D02*
X722700D01*
Y583432D02*
Y587432D01*
X679393Y560642D02*
X683393D01*
X679393D02*
Y564642D01*
X722683Y560648D02*
Y564648D01*
X718683Y560648D02*
X722683D01*
X1718255Y484378D02*
Y488378D01*
X1722255D01*
X1757560Y488372D02*
X1761560D01*
Y484372D02*
Y488372D01*
X1718253Y461582D02*
X1722253D01*
X1718253D02*
Y465582D01*
X1761543Y461588D02*
Y465588D01*
X1757543Y461588D02*
X1761543D01*
X611442Y523185D02*
X615442D01*
X611442D02*
Y527185D01*
X611448Y562490D02*
Y566490D01*
X615448D01*
X638238Y523183D02*
Y527183D01*
X634238Y523183D02*
X638238D01*
X634232Y566473D02*
X638232D01*
Y562473D02*
Y566473D01*
X1654850Y609230D02*
X1673850D01*
X1654850Y594730D02*
X1673850D01*
D11*
X483920Y258670D02*
G03*
X483920Y258670I-3000J0D01*
G01*
D12*
X472920Y237920D02*
G03*
X472920Y237920I-1250J0D01*
G01*
X636520Y649580D02*
G03*
X636520Y649580I-1250J0D01*
G01*
X312046Y307796D02*
G03*
X312046Y307796I-1250J0D01*
G01*
X539120Y574400D02*
G03*
X539120Y574400I-1250J0D01*
G01*
X561110Y173420D02*
G03*
X561110Y173420I-1250J0D01*
G01*
X1851640Y615478D02*
G03*
X1851640Y615478I-1250J0D01*
G01*
X1855763Y634650D02*
G03*
X1855763Y634650I-1250J0D01*
G01*
X1866880Y600832D02*
G03*
X1866880Y600832I-1250J0D01*
G01*
X1773040Y578320D02*
G03*
X1773040Y578320I-1250J0D01*
G01*
X1621590Y602200D02*
G03*
X1621590Y602200I-1250J0D01*
G01*
X298055Y530660D02*
G03*
X298055Y530660I-1270J0D01*
G01*
D13*
X1746250Y550790D02*
G03*
X1746250Y551790I0J500D01*
G01*
D02*
G03*
X1746250Y550790I0J-500D01*
G01*
X1076030Y225090D02*
X1118530D01*
X1076030Y199090D02*
X1118530D01*
X916010Y297480D02*
X958510D01*
X916010Y271480D02*
X958510D01*
X917880Y178100D02*
X960380D01*
X917880Y152100D02*
X960380D01*
X1074760Y122220D02*
X1117260D01*
X1074760Y96220D02*
X1117260D01*
X1175090Y226360D02*
X1217590D01*
X1175090Y200360D02*
X1217590D01*
X1175090Y122220D02*
X1217590D01*
X1175090Y96220D02*
X1217590D01*
X1172550Y331170D02*
X1215050D01*
X1172550Y357170D02*
X1215050D01*
X1172550Y437850D02*
X1215050D01*
X1172550Y463850D02*
X1215050D01*
X1076030Y437850D02*
X1118530D01*
X1076030Y463850D02*
X1118530D01*
X1076030Y331170D02*
X1118530D01*
X1076030Y357170D02*
X1118530D01*
X928710Y506430D02*
X971210D01*
X928710Y532430D02*
X971210D01*
X931250Y420670D02*
X973750D01*
X931250Y394670D02*
X973750D01*
D14*
X1772830Y599540D02*
Y612040D01*
X476350Y120560D02*
X488850D01*
X1668870Y669390D02*
Y681890D01*
X354240Y16610D02*
Y29110D01*
X1824999Y95059D02*
Y103059D01*
X550010Y553290D02*
X562510D01*
X569060Y552360D02*
X581560D01*
X588110D02*
X600610D01*
D15*
X587630Y201420D02*
X601090D01*
X587630Y169420D02*
X601090D01*
D16*
X581154Y667256D02*
X579884Y665987D01*
Y663448D01*
X581154Y662178D01*
X582424D01*
X583693Y663448D01*
Y665987D01*
X584963Y667256D01*
X586232D01*
X587502Y665987D01*
Y663448D01*
X586232Y662178D01*
X579884Y669796D02*
X587502D01*
X584963Y672335D01*
X587502Y674874D01*
X579884D01*
Y681222D02*
Y678683D01*
X581154Y677413D01*
X586232D01*
X587502Y678683D01*
Y681222D01*
X586232Y682491D01*
X581154D01*
X579884Y681222D01*
X714146Y110284D02*
X719224D01*
X716685Y112823D02*
Y107745D01*
X713526Y16420D02*
X718604D01*
X1359956Y596810D02*
X1365034D01*
X1478687Y600034D02*
X1483766D01*
X1481226Y602574D02*
Y597495D01*
X1530858Y677418D02*
X1535936D01*
X1400048Y677417D02*
X1405126D01*
X1402587Y679956D02*
Y674878D01*
X1944876Y229106D02*
X1943607Y230375D01*
X1941068D01*
X1939798Y229106D01*
Y224028D01*
X1941068Y222758D01*
X1943607D01*
X1944876Y224028D01*
Y226567D01*
X1942337D01*
X1947415Y222758D02*
Y230375D01*
X1951224D01*
X1952494Y229106D01*
Y226567D01*
X1951224Y225297D01*
X1947415D01*
X1960111Y229106D02*
X1958842Y230375D01*
X1956303D01*
X1955033Y229106D01*
Y227836D01*
X1956303Y226567D01*
X1958842D01*
X1960111Y225297D01*
Y224028D01*
X1958842Y222758D01*
X1956303D01*
X1955033Y224028D01*
X1943683Y550620D02*
Y558237D01*
X1947492D01*
X1948762Y556968D01*
Y554429D01*
X1947492Y553159D01*
X1943683D01*
X1946223D02*
X1948762Y550620D01*
X1951301D02*
Y555698D01*
X1953840Y558237D01*
X1956379Y555698D01*
Y550620D01*
Y554429D01*
X1951301D01*
X1958918Y558237D02*
Y550620D01*
X1962727D01*
X1963997Y551890D01*
Y556968D01*
X1962727Y558237D01*
X1958918D01*
X1966536D02*
X1969075D01*
X1967806D01*
Y550620D01*
X1966536D01*
X1969075D01*
X1976693Y558237D02*
X1974153D01*
X1972884Y556968D01*
Y551890D01*
X1974153Y550620D01*
X1976693D01*
X1977962Y551890D01*
Y556968D01*
X1976693Y558237D01*
X567182Y563118D02*
X562104D01*
X559565Y565657D01*
X562104Y568196D01*
X567182D01*
X563373D01*
Y563118D01*
X559565Y575814D02*
Y570736D01*
X567182D01*
Y575814D01*
X563373Y570736D02*
Y573275D01*
X567182Y578353D02*
X559565D01*
Y582162D01*
X560834Y583431D01*
X563373D01*
X564643Y582162D01*
Y578353D01*
Y580892D02*
X567182Y583431D01*
X559565Y589779D02*
Y587240D01*
X560834Y585971D01*
X565912D01*
X567182Y587240D01*
Y589779D01*
X565912Y591049D01*
X560834D01*
X559565Y589779D01*
X1013966Y662176D02*
X1008888D01*
Y658367D01*
X1011427D01*
X1008888D01*
Y654558D01*
X1016506Y662176D02*
Y654558D01*
X1020314D01*
X1021584Y655828D01*
Y660906D01*
X1020314Y662176D01*
X1016506D01*
X1029201Y660906D02*
X1027932Y662176D01*
X1025393D01*
X1024123Y660906D01*
Y655828D01*
X1025393Y654558D01*
X1027932D01*
X1029201Y655828D01*
X1276414Y618251D02*
Y625868D01*
X1278953Y623329D01*
X1281493Y625868D01*
Y618251D01*
X1287841Y625868D02*
X1285301D01*
X1284032Y624599D01*
Y619520D01*
X1285301Y618251D01*
X1287841D01*
X1289110Y619520D01*
Y624599D01*
X1287841Y625868D01*
X1291649D02*
X1296728D01*
X1294189D01*
Y618251D01*
X1303076Y625868D02*
X1300536D01*
X1299267Y624599D01*
Y619520D01*
X1300536Y618251D01*
X1303076D01*
X1304345Y619520D01*
Y624599D01*
X1303076Y625868D01*
X1306884Y618251D02*
Y625868D01*
X1310693D01*
X1311963Y624599D01*
Y622060D01*
X1310693Y620790D01*
X1306884D01*
X1309424D02*
X1311963Y618251D01*
X1314502Y624599D02*
X1315772Y625868D01*
X1318311D01*
X1319580Y624599D01*
Y623329D01*
X1318311Y622060D01*
X1317041D01*
X1318311D01*
X1319580Y620790D01*
Y619520D01*
X1318311Y618251D01*
X1315772D01*
X1314502Y619520D01*
X1480473Y593119D02*
Y585502D01*
X1484282D01*
X1485551Y586771D01*
Y588041D01*
X1484282Y589310D01*
X1480473D01*
X1484282D01*
X1485551Y590580D01*
Y591849D01*
X1484282Y593119D01*
X1480473D01*
X1488091Y585502D02*
Y590580D01*
X1490630Y593119D01*
X1493169Y590580D01*
Y585502D01*
Y589310D01*
X1488091D01*
X1495708Y593119D02*
X1500786D01*
X1498247D01*
Y585502D01*
X1503326Y593119D02*
X1508404D01*
X1505865D01*
Y585502D01*
X1510943Y584232D02*
X1516021D01*
X1518561Y585502D02*
Y593119D01*
X1521100Y590580D01*
X1523639Y593119D01*
Y585502D01*
X1529987Y593119D02*
X1527448D01*
X1526178Y591849D01*
Y586771D01*
X1527448Y585502D01*
X1529987D01*
X1531257Y586771D01*
Y591849D01*
X1529987Y593119D01*
X1533796D02*
X1538874D01*
X1536335D01*
Y585502D01*
X1546492D02*
X1541413D01*
X1546492Y590580D01*
Y591849D01*
X1545222Y593119D01*
X1542683D01*
X1541413Y591849D01*
X1523238Y693925D02*
Y686308D01*
X1527047D01*
X1528316Y687577D01*
Y688847D01*
X1527047Y690116D01*
X1523238D01*
X1527047D01*
X1528316Y691386D01*
Y692655D01*
X1527047Y693925D01*
X1523238D01*
X1530856Y686308D02*
Y691386D01*
X1533395Y693925D01*
X1535934Y691386D01*
Y686308D01*
Y690116D01*
X1530856D01*
X1538473Y693925D02*
X1543551D01*
X1541012D01*
Y686308D01*
X1546091Y693925D02*
X1551169D01*
X1548630D01*
Y686308D01*
X1553708Y685038D02*
X1558786D01*
X1561326Y686308D02*
Y693925D01*
X1563865Y691386D01*
X1566404Y693925D01*
Y686308D01*
X1572752Y693925D02*
X1570213D01*
X1568943Y692655D01*
Y687577D01*
X1570213Y686308D01*
X1572752D01*
X1574022Y687577D01*
Y692655D01*
X1572752Y693925D01*
X1576561D02*
X1581639D01*
X1579100D01*
Y686308D01*
X1584178D02*
X1586718D01*
X1585448D01*
Y693925D01*
X1584178Y692655D01*
X1162114Y680481D02*
Y688098D01*
X1164653Y685559D01*
X1167193Y688098D01*
Y680481D01*
X1173541Y688098D02*
X1171001D01*
X1169732Y686829D01*
Y681750D01*
X1171001Y680481D01*
X1173541D01*
X1174810Y681750D01*
Y686829D01*
X1173541Y688098D01*
X1177349D02*
X1182428D01*
X1179889D01*
Y680481D01*
X1188776Y688098D02*
X1186236D01*
X1184967Y686829D01*
Y681750D01*
X1186236Y680481D01*
X1188776D01*
X1190045Y681750D01*
Y686829D01*
X1188776Y688098D01*
X1192585Y680481D02*
Y688098D01*
X1196393D01*
X1197663Y686829D01*
Y684289D01*
X1196393Y683020D01*
X1192585D01*
X1195124D02*
X1197663Y680481D01*
X1204011D02*
Y688098D01*
X1200202Y684289D01*
X1205280D01*
X1566418Y5588D02*
Y13205D01*
X1568957Y10666D01*
X1571496Y13205D01*
Y5588D01*
X1577844Y13205D02*
X1575305D01*
X1574035Y11936D01*
Y6858D01*
X1575305Y5588D01*
X1577844D01*
X1579114Y6858D01*
Y11936D01*
X1577844Y13205D01*
X1581653D02*
X1586731D01*
X1584192D01*
Y5588D01*
X1593079Y13205D02*
X1590540D01*
X1589271Y11936D01*
Y6858D01*
X1590540Y5588D01*
X1593079D01*
X1594349Y6858D01*
Y11936D01*
X1593079Y13205D01*
X1596888Y5588D02*
Y13205D01*
X1600697D01*
X1601967Y11936D01*
Y9397D01*
X1600697Y8127D01*
X1596888D01*
X1599427D02*
X1601967Y5588D01*
X1604506D02*
X1607045D01*
X1605775D01*
Y13205D01*
X1604506Y11936D01*
X1156208Y10668D02*
Y18285D01*
X1158747Y15746D01*
X1161286Y18285D01*
Y10668D01*
X1167634Y18285D02*
X1165095D01*
X1163826Y17016D01*
Y11938D01*
X1165095Y10668D01*
X1167634D01*
X1168904Y11938D01*
Y17016D01*
X1167634Y18285D01*
X1171443D02*
X1176521D01*
X1173982D01*
Y10668D01*
X1182869Y18285D02*
X1180330D01*
X1179061Y17016D01*
Y11938D01*
X1180330Y10668D01*
X1182869D01*
X1184139Y11938D01*
Y17016D01*
X1182869Y18285D01*
X1186678Y10668D02*
Y18285D01*
X1190487D01*
X1191757Y17016D01*
Y14477D01*
X1190487Y13207D01*
X1186678D01*
X1189217D02*
X1191757Y10668D01*
X1199374D02*
X1194296D01*
X1199374Y15746D01*
Y17016D01*
X1198104Y18285D01*
X1195565D01*
X1194296Y17016D01*
X711964Y70358D02*
X717043D01*
X719582Y72897D01*
X717043Y75436D01*
X711964D01*
Y77976D02*
X719582D01*
Y81784D01*
X718312Y83054D01*
X717043D01*
X715773Y81784D01*
Y77976D01*
Y81784D01*
X714504Y83054D01*
X713234D01*
X711964Y81784D01*
Y77976D01*
X719582Y85593D02*
X714504D01*
X711964Y88132D01*
X714504Y90671D01*
X719582D01*
X715773D01*
Y85593D01*
X711964Y93211D02*
Y98289D01*
Y95750D01*
X719582D01*
X89408Y33526D02*
X91947D01*
X90678D01*
Y25908D01*
X89408D01*
X91947D01*
X95756Y33526D02*
Y25908D01*
Y29717D01*
X100834D01*
Y33526D01*
Y25908D01*
X103373D02*
Y33526D01*
X105913Y30986D01*
X108452Y33526D01*
Y25908D01*
X97886Y201110D02*
X105504D01*
Y204919D01*
X104234Y206188D01*
X102964D01*
X101695Y204919D01*
Y201110D01*
Y204919D01*
X100425Y206188D01*
X99156D01*
X97886Y204919D01*
Y201110D01*
Y208727D02*
X104234D01*
X105504Y209997D01*
Y212536D01*
X104234Y213806D01*
X97886D01*
Y216345D02*
Y221423D01*
X99156D01*
X104234Y216345D01*
X105504D01*
Y221423D01*
X97886Y223962D02*
Y229041D01*
X99156D01*
X104234Y223962D01*
X105504D01*
Y229041D01*
X97886Y236658D02*
Y231580D01*
X105504D01*
Y236658D01*
X101695Y231580D02*
Y234119D01*
X105504Y239198D02*
X97886D01*
Y243006D01*
X99156Y244276D01*
X101695D01*
X102964Y243006D01*
Y239198D01*
Y241737D02*
X105504Y244276D01*
X142688Y624744D02*
X141419Y626014D01*
X138879D01*
X137610Y624744D01*
Y623475D01*
X138879Y622205D01*
X141419D01*
X142688Y620936D01*
Y619666D01*
X141419Y618396D01*
X138879D01*
X137610Y619666D01*
X145227Y626014D02*
Y618396D01*
X149036D01*
X150306Y619666D01*
Y624744D01*
X149036Y626014D01*
X145227D01*
X165541Y624744D02*
X164271Y626014D01*
X161732D01*
X160462Y624744D01*
Y619666D01*
X161732Y618396D01*
X164271D01*
X165541Y619666D01*
X168080Y618396D02*
Y623475D01*
X170619Y626014D01*
X173158Y623475D01*
Y618396D01*
Y622205D01*
X168080D01*
X175697Y618396D02*
Y626014D01*
X179506D01*
X180776Y624744D01*
Y622205D01*
X179506Y620936D01*
X175697D01*
X178237D02*
X180776Y618396D01*
X183315Y626014D02*
Y618396D01*
X187124D01*
X188393Y619666D01*
Y624744D01*
X187124Y626014D01*
X183315D01*
X485648Y552958D02*
Y560575D01*
X489457D01*
X490726Y559306D01*
Y556767D01*
X489457Y555497D01*
X485648D01*
X488187D02*
X490726Y552958D01*
X498344Y560575D02*
X493265D01*
Y552958D01*
X498344D01*
X493265Y556767D02*
X495805D01*
X505961Y559306D02*
X504692Y560575D01*
X502153D01*
X500883Y559306D01*
Y558036D01*
X502153Y556767D01*
X504692D01*
X505961Y555497D01*
Y554228D01*
X504692Y552958D01*
X502153D01*
X500883Y554228D01*
X513579Y560575D02*
X508501D01*
Y552958D01*
X513579D01*
X508501Y556767D02*
X511040D01*
X516118Y560575D02*
X521197D01*
X518657D01*
Y552958D01*
X537973Y624078D02*
Y629156D01*
X535434Y626617D02*
X540512D01*
X535434Y631696D02*
X534165Y632965D01*
Y635504D01*
X535434Y636774D01*
X536704D01*
X537973Y635504D01*
Y634235D01*
Y635504D01*
X539243Y636774D01*
X540512D01*
X541782Y635504D01*
Y632965D01*
X540512Y631696D01*
X534165Y639313D02*
X539243D01*
X541782Y641852D01*
X539243Y644391D01*
X534165D01*
X535434Y646931D02*
X534165Y648200D01*
Y650739D01*
X535434Y652009D01*
X536704D01*
X537973Y650739D01*
Y649470D01*
Y650739D01*
X539243Y652009D01*
X540512D01*
X541782Y650739D01*
Y648200D01*
X540512Y646931D01*
X503685Y632968D02*
X511302D01*
Y636777D01*
X510032Y638046D01*
X504954D01*
X503685Y636777D01*
Y632968D01*
Y640585D02*
Y643125D01*
Y641855D01*
X511302D01*
Y640585D01*
Y643125D01*
X503685Y650742D02*
Y648203D01*
X504954Y646934D01*
X510032D01*
X511302Y648203D01*
Y650742D01*
X510032Y652012D01*
X504954D01*
X503685Y650742D01*
X482094Y636776D02*
X480825Y635507D01*
Y632968D01*
X482094Y631698D01*
X487172D01*
X488442Y632968D01*
Y635507D01*
X487172Y636776D01*
X480825Y639315D02*
X488442D01*
Y644394D01*
X480825Y646933D02*
X488442D01*
X485903D01*
X480825Y652011D01*
X484633Y648203D01*
X488442Y652011D01*
X461772Y632968D02*
X454155D01*
Y636777D01*
X455424Y638046D01*
X457963D01*
X459233Y636777D01*
Y632968D01*
Y635507D02*
X461772Y638046D01*
X455424Y645664D02*
X454155Y644394D01*
Y641855D01*
X455424Y640585D01*
X456694D01*
X457963Y641855D01*
Y644394D01*
X459233Y645664D01*
X460502D01*
X461772Y644394D01*
Y641855D01*
X460502Y640585D01*
X454155Y648203D02*
Y653281D01*
Y650742D01*
X461772D01*
X430024Y638046D02*
X428755Y636777D01*
Y634238D01*
X430024Y632968D01*
X435102D01*
X436372Y634238D01*
Y636777D01*
X435102Y638046D01*
X432563D01*
Y635507D01*
X436372Y640585D02*
X428755D01*
X436372Y645664D01*
X428755D01*
Y648203D02*
X436372D01*
Y652012D01*
X435102Y653281D01*
X430024D01*
X428755Y652012D01*
Y648203D01*
X392936Y682496D02*
X391667Y683765D01*
X389128D01*
X387858Y682496D01*
Y681226D01*
X389128Y679957D01*
X391667D01*
X392936Y678687D01*
Y677418D01*
X391667Y676148D01*
X389128D01*
X387858Y677418D01*
X395476Y683765D02*
Y676148D01*
X398015Y678687D01*
X400554Y676148D01*
Y683765D01*
X403093D02*
Y676148D01*
X406902D01*
X408171Y677418D01*
Y682496D01*
X406902Y683765D01*
X403093D01*
M02*
