G04*
G04 #@! TF.GenerationSoftware,Altium Limited,Altium Designer,23.7.1 (13)*
G04*
G04 Layer_Color=16711935*
%FSLAX44Y44*%
%MOMM*%
G71*
G04*
G04 #@! TF.SameCoordinates,9AC6D79B-6B5E-4FBD-9D38-37E555C90168*
G04*
G04*
G04 #@! TF.FilePolarity,Positive*
G04*
G01*
G75*
%ADD10C,0.2000*%
%ADD13C,0.1000*%
%ADD202C,0.0100*%
D10*
X414870Y670560D02*
G03*
X414870Y670560I-1000J0D01*
G01*
X1064140Y675640D02*
G03*
X1064140Y675640I-1000J0D01*
G01*
X576310Y591670D02*
G03*
X576310Y591670I-1000J0D01*
G01*
X1539120Y679450D02*
G03*
X1539120Y679450I-1000J0D01*
G01*
X1643260Y30480D02*
G03*
X1643260Y30480I-1000J0D01*
G01*
X1177170Y39370D02*
G03*
X1177170Y39370I-1000J0D01*
G01*
X685530Y6200D02*
G03*
X685530Y6200I-1000J0D01*
G01*
X1241640Y585470D02*
G03*
X1241640Y585470I-1000J0D01*
G01*
X1065110Y659130D02*
G03*
X1065110Y659130I-1000J0D01*
G01*
X1364830Y585470D02*
G03*
X1364830Y585470I-1000J0D01*
G01*
X74660Y181460D02*
G03*
X74660Y181460I-1000J0D01*
G01*
X1306195Y49911D02*
Y77089D01*
X1317625D01*
Y49911D02*
Y77089D01*
X1306195Y49911D02*
X1317625D01*
X402971Y353695D02*
X430149D01*
Y342265D02*
Y353695D01*
X402971Y342265D02*
X430149D01*
X402971D02*
Y353695D01*
X611505Y575691D02*
X622935D01*
Y602869D01*
X611505D02*
X622935D01*
X611505Y575691D02*
Y602869D01*
X347599Y38735D02*
Y50165D01*
X320421D02*
X347599D01*
X320421Y38735D02*
Y50165D01*
Y38735D02*
X347599D01*
X839851Y335915D02*
Y347345D01*
Y335915D02*
X867029D01*
Y347345D01*
X839851D02*
X867029D01*
X758571Y321945D02*
X785749D01*
Y310515D02*
Y321945D01*
X758571Y310515D02*
X785749D01*
X758571D02*
Y321945D01*
X1321181Y408305D02*
X1348359D01*
Y396875D02*
Y408305D01*
X1321181Y396875D02*
X1348359D01*
X1321181D02*
Y408305D01*
X800481Y140335D02*
X827659D01*
Y128905D02*
Y140335D01*
X800481Y128905D02*
X827659D01*
X800481D02*
Y140335D01*
X790321Y207645D02*
Y219075D01*
Y207645D02*
X817499D01*
Y219075D01*
X790321D02*
X817499D01*
X682249Y603885D02*
Y615315D01*
X655071D02*
X682249D01*
X655071Y603885D02*
Y615315D01*
Y603885D02*
X682249D01*
X651020Y624830D02*
Y655330D01*
Y624830D02*
X668520D01*
Y655330D01*
X651020D02*
X668520D01*
X614940Y651320D02*
Y659320D01*
Y651320D02*
X630940D01*
Y659320D01*
X614940D02*
X630940D01*
X675620Y662520D02*
Y673520D01*
X656620D02*
X675620D01*
X656620Y662520D02*
Y673520D01*
Y662520D02*
X675620D01*
X926211Y65405D02*
X953389D01*
Y53975D02*
Y65405D01*
X926211Y53975D02*
X953389D01*
X926211D02*
Y65405D01*
X668655Y146431D02*
Y173609D01*
X657225Y146431D02*
X668655D01*
X657225D02*
Y173609D01*
X668655D01*
X1829460Y501230D02*
Y512230D01*
Y501230D02*
X1848460D01*
Y512230D01*
X1829460D02*
X1848460D01*
X1760830Y553300D02*
Y564300D01*
X1741830D02*
X1760830D01*
X1741830Y553300D02*
Y564300D01*
Y553300D02*
X1760830D01*
X1761480Y568540D02*
Y579540D01*
X1742480D02*
X1761480D01*
X1742480Y568540D02*
Y579540D01*
Y568540D02*
X1761480D01*
X1760830Y585050D02*
Y596050D01*
X1741830D02*
X1760830D01*
X1741830Y585050D02*
Y596050D01*
Y585050D02*
X1760830D01*
X1811350Y600850D02*
X1820850D01*
Y618350D01*
X1811350D02*
X1820850D01*
X1811350Y600850D02*
Y618350D01*
X1793820Y602370D02*
X1802820D01*
Y619370D01*
X1793820D02*
X1802820D01*
X1793820Y602370D02*
Y619370D01*
X1775790Y601200D02*
X1785290D01*
Y618700D01*
X1775790D02*
X1785290D01*
X1775790Y601200D02*
Y618700D01*
X308991Y349885D02*
Y361315D01*
Y349885D02*
X336169D01*
Y361315D01*
X308991D02*
X336169D01*
X453870Y566900D02*
X513870D01*
X453870D02*
Y626900D01*
X513870D01*
Y566900D02*
Y626900D01*
X355981Y340995D02*
Y352425D01*
Y340995D02*
X383159D01*
Y352425D01*
X355981D02*
X383159D01*
X1309751Y112395D02*
Y123825D01*
Y112395D02*
X1336929D01*
Y123825D01*
X1309751D02*
X1336929D01*
X1118530Y199090D02*
Y225090D01*
X1076030D02*
X1118530D01*
X1076030Y199090D02*
Y225090D01*
Y199090D02*
X1118530D01*
X893980Y147480D02*
Y167480D01*
X881480Y147480D02*
X893980D01*
X881480D02*
Y167480D01*
X893980D01*
X892710Y261780D02*
Y281780D01*
X880210Y261780D02*
X892710D01*
X880210D02*
Y281780D01*
X892710D01*
X958510Y271480D02*
Y297480D01*
X916010D02*
X958510D01*
X916010Y271480D02*
Y297480D01*
Y271480D02*
X958510D01*
X843790Y193460D02*
X862790D01*
Y182460D02*
Y193460D01*
X843790Y182460D02*
X862790D01*
X843790D02*
Y193460D01*
X960380Y152100D02*
Y178100D01*
X917880D02*
X960380D01*
X917880Y152100D02*
Y178100D01*
Y152100D02*
X960380D01*
X1117260Y96220D02*
Y122220D01*
X1074760D02*
X1117260D01*
X1074760Y96220D02*
Y122220D01*
Y96220D02*
X1117260D01*
X1217590Y200360D02*
Y226360D01*
X1175090D02*
X1217590D01*
X1175090Y200360D02*
Y226360D01*
Y200360D02*
X1217590D01*
Y96220D02*
Y122220D01*
X1175090D02*
X1217590D01*
X1175090Y96220D02*
Y122220D01*
Y96220D02*
X1217590D01*
X326970Y271390D02*
X335970D01*
X326970Y254390D02*
Y271390D01*
Y254390D02*
X335970D01*
Y271390D01*
X269200Y271360D02*
Y282360D01*
X250200D02*
X269200D01*
X250200Y271360D02*
Y282360D01*
Y271360D02*
X269200D01*
X258660Y288950D02*
X269660D01*
Y307950D01*
X258660D02*
X269660D01*
X258660Y288950D02*
Y307950D01*
X1574080Y49900D02*
X1596080D01*
X1574080D02*
Y64400D01*
X1596080D01*
Y49900D02*
Y64400D01*
X1690020Y84090D02*
Y244090D01*
Y84090D02*
X1812020D01*
Y244090D01*
X1690020D02*
X1812020D01*
X1894530Y251870D02*
Y262870D01*
X1887530Y251870D02*
X1894530D01*
X1887530D02*
Y262870D01*
X1894530D01*
X1172550Y331170D02*
X1215050D01*
X1172550D02*
Y357170D01*
X1215050D01*
Y331170D02*
Y357170D01*
X1172550Y437850D02*
X1215050D01*
X1172550D02*
Y463850D01*
X1215050D01*
Y437850D02*
Y463850D01*
X1076030Y437850D02*
X1118530D01*
X1076030D02*
Y463850D01*
X1118530D01*
Y437850D02*
Y463850D01*
X1076030Y331170D02*
X1118530D01*
X1076030D02*
Y357170D01*
X1118530D01*
Y331170D02*
Y357170D01*
X1162890Y56250D02*
Y70750D01*
X1140890D02*
X1162890D01*
X1140890Y56250D02*
Y70750D01*
Y56250D02*
X1162890D01*
X1883060Y232700D02*
Y247200D01*
X1893060D01*
Y232700D02*
Y247200D01*
X1883060Y232700D02*
X1893060D01*
X682840Y381660D02*
X693840D01*
Y400660D01*
X682840D02*
X693840D01*
X682840Y381660D02*
Y400660D01*
X685410Y462860D02*
Y471860D01*
X668410D02*
X685410D01*
X668410Y462860D02*
Y471860D01*
Y462860D02*
X685410D01*
X1847890Y625840D02*
X1852890D01*
Y635840D01*
X1847890D02*
X1852890D01*
X1847890Y625840D02*
Y635840D01*
X1843100Y646220D02*
X1852600D01*
Y663720D01*
X1843100D02*
X1852600D01*
X1843100Y646220D02*
Y663720D01*
X1861876Y632150D02*
Y637150D01*
Y632150D02*
X1871876D01*
Y637150D01*
X1861876D02*
X1871876D01*
X1898510Y613390D02*
Y622890D01*
X1881010D02*
X1898510D01*
X1881010Y613390D02*
Y622890D01*
Y613390D02*
X1898510D01*
X1863130Y590470D02*
X1868130D01*
X1863130Y580470D02*
Y590470D01*
Y580470D02*
X1868130D01*
Y590470D01*
X1829650Y599900D02*
Y605900D01*
Y599900D02*
X1840650D01*
Y605900D01*
X1829650D02*
X1840650D01*
X136271Y67945D02*
Y79375D01*
Y67945D02*
X163449D01*
Y79375D01*
X136271D02*
X163449D01*
X317881Y192405D02*
Y203835D01*
Y192405D02*
X345059D01*
Y203835D01*
X317881D02*
X345059D01*
X896720Y411320D02*
X909220D01*
X896720Y391320D02*
Y411320D01*
Y391320D02*
X909220D01*
Y411320D01*
X855370Y432650D02*
Y443650D01*
Y432650D02*
X874370D01*
Y443650D01*
X855370D02*
X874370D01*
X928710Y506430D02*
X971210D01*
X928710D02*
Y532430D01*
X971210D01*
Y506430D02*
Y532430D01*
X894180Y520540D02*
X906680D01*
X894180Y500540D02*
Y520540D01*
Y500540D02*
X906680D01*
Y520540D01*
X448730Y234960D02*
Y253960D01*
X437730Y234960D02*
X448730D01*
X437730D02*
Y253960D01*
X448730D01*
X459130Y461860D02*
X478130D01*
X459130D02*
Y472860D01*
X478130D01*
Y461860D02*
Y472860D01*
X596290Y474130D02*
X615290D01*
Y463130D02*
Y474130D01*
X596290Y463130D02*
X615290D01*
X596290D02*
Y474130D01*
X684110Y429920D02*
Y448920D01*
X695110D01*
Y429920D02*
Y448920D01*
X684110Y429920D02*
X695110D01*
X418680Y572810D02*
Y591810D01*
X429680D01*
Y572810D02*
Y591810D01*
X418680Y572810D02*
X429680D01*
X973750Y394670D02*
Y420670D01*
X931250D02*
X973750D01*
X931250Y394670D02*
Y420670D01*
Y394670D02*
X973750D01*
X665861Y535305D02*
X693039D01*
Y523875D02*
Y535305D01*
X665861Y523875D02*
X693039D01*
X665861D02*
Y535305D01*
X756285Y245491D02*
Y272669D01*
X767715D01*
Y245491D02*
Y272669D01*
X756285Y245491D02*
X767715D01*
X1302131Y163195D02*
X1329309D01*
Y151765D02*
Y163195D01*
X1302131Y151765D02*
X1329309D01*
X1302131D02*
Y163195D01*
X1355471Y227965D02*
X1382649D01*
Y216535D02*
Y227965D01*
X1355471Y216535D02*
X1382649D01*
X1355471D02*
Y227965D01*
X1933575Y435991D02*
Y463169D01*
X1945005D01*
Y435991D02*
Y463169D01*
X1933575Y435991D02*
X1945005D01*
X723011Y447675D02*
X750189D01*
Y436245D02*
Y447675D01*
X723011Y436245D02*
X750189D01*
X723011D02*
Y447675D01*
X771271Y434975D02*
X798449D01*
Y423545D02*
Y434975D01*
X771271Y423545D02*
X798449D01*
X771271D02*
Y434975D01*
X719201Y513715D02*
X746379D01*
Y502285D02*
Y513715D01*
X719201Y502285D02*
X746379D01*
X719201D02*
Y513715D01*
X1311021Y347345D02*
X1338199D01*
Y335915D02*
Y347345D01*
X1311021Y335915D02*
X1338199D01*
X1311021D02*
Y347345D01*
X687451Y579755D02*
X714629D01*
Y568325D02*
Y579755D01*
X687451Y568325D02*
X714629D01*
X687451D02*
Y579755D01*
X1726311Y480695D02*
X1753489D01*
Y469265D02*
Y480695D01*
X1726311Y469265D02*
X1753489D01*
X1726311D02*
Y480695D01*
X619125Y531241D02*
Y558419D01*
X630555D01*
Y531241D02*
Y558419D01*
X619125Y531241D02*
X630555D01*
X1654850Y607480D02*
X1673850D01*
Y596480D02*
Y607480D01*
X1654850Y596480D02*
X1673850D01*
X1654850D02*
Y607480D01*
D13*
X480420Y253170D02*
G03*
X480420Y253170I-5000J0D01*
G01*
X1793790Y569320D02*
G03*
X1793790Y569320I-5000J0D01*
G01*
X420370Y657860D02*
Y683260D01*
X572770D01*
Y657860D02*
Y683260D01*
X420370Y657860D02*
X572770D01*
X1056640Y637540D02*
Y688340D01*
X853440Y637540D02*
X1056640D01*
X853440D02*
Y688340D01*
X1056640D01*
X1741330Y612040D02*
X1761330D01*
X1741330D02*
X1748830D01*
X1741330Y599540D02*
Y612040D01*
Y599540D02*
X1761330D01*
Y612040D01*
X476350Y89060D02*
Y109060D01*
Y89060D02*
Y96560D01*
Y89060D02*
X488850D01*
Y109060D01*
X476350D02*
X488850D01*
X1697050Y664740D02*
X1706550D01*
X1697050Y648240D02*
X1706550D01*
Y664740D01*
X1697050Y648240D02*
Y664740D01*
X1680370Y669390D02*
X1700370D01*
X1692870D02*
X1700370D01*
Y681890D01*
X1680370D02*
X1700370D01*
X1680370Y669390D02*
Y681890D01*
X301320Y22230D02*
X310820D01*
X301320Y38730D02*
X310820D01*
X301320Y22230D02*
Y38730D01*
X310820Y22230D02*
Y38730D01*
X322740Y29110D02*
X342740D01*
X322740D02*
X330240D01*
X322740Y16610D02*
Y29110D01*
Y16610D02*
X342740D01*
Y29110D01*
X1641230Y680140D02*
X1658230D01*
X1641230Y671140D02*
X1658230D01*
X1641230D02*
Y680140D01*
X1658230Y671140D02*
Y680140D01*
X1855120Y258890D02*
Y266890D01*
X1843120Y258890D02*
X1855120D01*
X1843120Y266890D02*
X1855120D01*
X1843120Y258890D02*
Y266890D01*
X51860Y103970D02*
X57360D01*
X51860Y114470D02*
X57360D01*
X51860Y103970D02*
Y114470D01*
X57360Y103970D02*
Y114470D01*
X123020Y49320D02*
Y54820D01*
X133520Y49320D02*
Y54820D01*
X123020D02*
X133520D01*
X123020Y49320D02*
X133520D01*
X41700Y77300D02*
X47200D01*
X41700Y87800D02*
X47200D01*
X41700Y77300D02*
Y87800D01*
X47200Y77300D02*
Y87800D01*
X114412Y37810D02*
Y168610D01*
X63612D02*
X114412D01*
X63612Y37810D02*
Y168610D01*
Y37810D02*
X114412D01*
X121710Y159850D02*
X127210D01*
X121710Y170350D02*
X127210D01*
X121710Y159850D02*
Y170350D01*
X127210Y159850D02*
Y170350D01*
X121710Y127770D02*
X127210D01*
X121710Y138270D02*
X127210D01*
X121710Y127770D02*
Y138270D01*
X127210Y127770D02*
Y138270D01*
X666420Y244170D02*
Y444170D01*
X466420Y244170D02*
Y444170D01*
X666420D01*
X466420Y244170D02*
X666420D01*
X562610Y598170D02*
X588010D01*
X562610D02*
Y648970D01*
X588010D01*
Y598170D02*
Y648970D01*
X599140Y642480D02*
X608640D01*
X599140Y624980D02*
X608640D01*
Y642480D01*
X599140Y624980D02*
Y642480D01*
X631690Y635330D02*
Y644830D01*
X614190Y635330D02*
Y644830D01*
Y635330D02*
X631690D01*
X614190Y644830D02*
X631690D01*
X639870Y596730D02*
X645370D01*
X639870Y607230D02*
X645370D01*
X639870Y596730D02*
Y607230D01*
X645370Y596730D02*
Y607230D01*
X1079760Y296660D02*
X1114760D01*
Y231660D02*
Y296660D01*
X1079760Y231660D02*
X1114760D01*
X1079760D02*
Y296660D01*
Y273660D02*
X1102760Y296660D01*
X1833499Y95059D02*
Y103059D01*
X1849499Y95059D02*
Y103059D01*
X1833499D02*
X1849499D01*
X1833499Y95059D02*
X1849499D01*
X1816310Y487180D02*
Y497680D01*
X1810810Y487180D02*
Y497680D01*
X1816310D01*
X1810810Y487180D02*
X1816310D01*
X1804880D02*
Y497680D01*
X1799380Y487180D02*
Y497680D01*
X1804880D01*
X1799380Y487180D02*
X1804880D01*
X1793450D02*
Y497680D01*
X1787950Y487180D02*
Y497680D01*
X1793450D01*
X1787950Y487180D02*
X1793450D01*
X1782020D02*
Y497680D01*
X1776520Y487180D02*
Y497680D01*
X1782020D01*
X1776520Y487180D02*
X1782020D01*
X1767700Y491820D02*
Y501320D01*
X1750200Y491820D02*
Y501320D01*
Y491820D02*
X1767700D01*
X1750200Y501320D02*
X1767700D01*
X1887360Y532460D02*
Y541960D01*
X1904860Y532460D02*
Y541960D01*
X1887360D02*
X1904860D01*
X1887360Y532460D02*
X1904860D01*
X1848950Y545040D02*
X1859450D01*
X1848950Y539540D02*
X1859450D01*
X1848950D02*
Y545040D01*
X1859450Y539540D02*
Y545040D01*
X1430020Y692150D02*
X1531620D01*
X1430020Y666750D02*
Y692150D01*
Y666750D02*
X1531620D01*
Y692150D01*
X662770Y186480D02*
X673270D01*
X662770Y191980D02*
X673270D01*
Y186480D02*
Y191980D01*
X662770Y186480D02*
Y191980D01*
X663100Y196640D02*
X673600D01*
X663100Y202140D02*
X673600D01*
Y196640D02*
Y202140D01*
X663100Y196640D02*
Y202140D01*
X718990Y291890D02*
Y297390D01*
X708490Y291890D02*
Y297390D01*
Y291890D02*
X718990D01*
X708490Y297390D02*
X718990D01*
X708820Y256750D02*
X719320D01*
X708820Y251250D02*
X719320D01*
X708820D02*
Y256750D01*
X719320Y251250D02*
Y256750D01*
X708490Y266910D02*
X718990D01*
X708490Y261410D02*
X718990D01*
X708490D02*
Y266910D01*
X718990Y261410D02*
Y266910D01*
X708490Y287230D02*
X718990D01*
X708490Y281730D02*
X718990D01*
X708490D02*
Y287230D01*
X718990Y281730D02*
Y287230D01*
Y308400D02*
Y313900D01*
X708490Y308400D02*
Y313900D01*
Y308400D02*
X718990D01*
X708490Y313900D02*
X718990D01*
X708490Y324060D02*
X718990D01*
X708490Y318560D02*
X718990D01*
X708490D02*
Y324060D01*
X718990Y318560D02*
Y324060D01*
X720260Y359200D02*
Y364700D01*
X709760Y359200D02*
Y364700D01*
Y359200D02*
X720260D01*
X709760Y364700D02*
X720260D01*
X720590Y369360D02*
Y374860D01*
X710090Y369360D02*
Y374860D01*
Y369360D02*
X720590D01*
X710090Y374860D02*
X720590D01*
X710700Y404070D02*
X721200D01*
X710700Y398570D02*
X721200D01*
X710700D02*
Y404070D01*
X721200Y398570D02*
Y404070D01*
X711030Y414230D02*
X721530D01*
X711030Y408730D02*
X721530D01*
X711030D02*
Y414230D01*
X721530Y408730D02*
Y414230D01*
X711360Y424390D02*
X721860D01*
X711360Y418890D02*
X721860D01*
X711360D02*
Y424390D01*
X721860Y418890D02*
Y424390D01*
X665690Y486240D02*
Y496740D01*
X660190Y486240D02*
Y496740D01*
X665690D01*
X660190Y486240D02*
X665690D01*
X654260D02*
Y496740D01*
X648760Y486240D02*
Y496740D01*
X654260D01*
X648760Y486240D02*
X654260D01*
X589610Y492130D02*
Y508630D01*
X599110Y492130D02*
Y508630D01*
X589610Y492130D02*
X599110D01*
X589610Y508630D02*
X599110D01*
X570560Y492130D02*
Y508630D01*
X580060Y492130D02*
Y508630D01*
X570560Y492130D02*
X580060D01*
X570560Y508630D02*
X580060D01*
X551510Y492130D02*
Y508630D01*
X561010Y492130D02*
Y508630D01*
X551510Y492130D02*
X561010D01*
X551510Y508630D02*
X561010D01*
X550010Y541790D02*
X562510D01*
Y521790D02*
Y541790D01*
X550010Y521790D02*
X562510D01*
X550010D02*
Y529290D01*
Y521790D02*
Y541790D01*
X569060Y540860D02*
X581560D01*
Y520860D02*
Y540860D01*
X569060Y520860D02*
X581560D01*
X569060D02*
Y528360D01*
Y520860D02*
Y540860D01*
X588110D02*
X600610D01*
Y520860D02*
Y540860D01*
X588110Y520860D02*
X600610D01*
X588110D02*
Y528360D01*
Y520860D02*
Y540860D01*
X440860Y385870D02*
Y391370D01*
X430360Y385870D02*
Y391370D01*
Y385870D02*
X440860D01*
X430360Y391370D02*
X440860D01*
X430360Y375710D02*
Y381210D01*
X440860Y375710D02*
Y381210D01*
X430360D02*
X440860D01*
X430360Y375710D02*
X440860D01*
X280500Y236430D02*
X291000D01*
X280500Y230930D02*
X291000D01*
X280500D02*
Y236430D01*
X291000Y230930D02*
Y236430D01*
X278296Y258296D02*
X318296D01*
X278296D02*
Y298296D01*
X318296D01*
Y258296D02*
Y298296D01*
X1635760Y17780D02*
Y43180D01*
X1534160Y17780D02*
X1635760D01*
X1534160D02*
Y43180D01*
X1635760D01*
X1169670Y26670D02*
Y52070D01*
X1068070Y26670D02*
X1169670D01*
X1068070D02*
Y52070D01*
X1169670D01*
X671830Y12700D02*
X697230D01*
X671830D02*
Y114300D01*
X697230D01*
Y12700D02*
Y114300D01*
X1247140Y572770D02*
Y598170D01*
X1348740D01*
Y572770D02*
Y598170D01*
X1247140Y572770D02*
X1348740D01*
X1070610Y646430D02*
Y671830D01*
X1172210D01*
Y646430D02*
Y671830D01*
X1070610Y646430D02*
X1172210D01*
X1370330Y572770D02*
Y598170D01*
X1471930D01*
Y572770D02*
Y598170D01*
X1370330Y572770D02*
X1471930D01*
X60960Y187960D02*
X86360D01*
X60960D02*
Y264160D01*
X86360D01*
Y187960D02*
Y264160D01*
X843440Y406980D02*
X847440Y402980D01*
X843440D02*
X863440D01*
Y419980D01*
X843440D02*
X863440D01*
X843440Y402980D02*
Y419980D01*
X979560Y222830D02*
X996560D01*
X979560Y231830D02*
X996560D01*
Y222830D02*
Y231830D01*
X979560Y222830D02*
Y231830D01*
Y197430D02*
X996560D01*
X979560Y206430D02*
X996560D01*
Y197430D02*
Y206430D01*
X979560Y197430D02*
Y206430D01*
X1033920Y294970D02*
X1051420D01*
X1033920Y304470D02*
X1051420D01*
Y294970D02*
Y304470D01*
X1033920Y294970D02*
Y304470D01*
X815480Y180670D02*
X832980D01*
X815480Y190170D02*
X832980D01*
Y180670D02*
Y190170D01*
X815480Y180670D02*
Y190170D01*
X861240Y148730D02*
Y166230D01*
X870740Y148730D02*
Y166230D01*
X861240Y148730D02*
X870740D01*
X861240Y166230D02*
X870740D01*
X948830Y250470D02*
Y260070D01*
X966330Y250470D02*
Y260070D01*
X948830D02*
X966330D01*
X948830Y250470D02*
X966330D01*
X825170Y153810D02*
Y171310D01*
X815670Y153810D02*
Y171310D01*
X825170D01*
X815670Y153810D02*
X825170D01*
X832900Y160480D02*
X836900Y156480D01*
X832900D02*
X852900D01*
Y173480D01*
X832900D02*
X852900D01*
X832900Y156480D02*
Y173480D01*
X1134250Y292430D02*
X1151750D01*
X1134250Y301930D02*
X1151750D01*
Y292430D02*
Y301930D01*
X1134250Y292430D02*
Y301930D01*
X1146950Y94920D02*
X1164450D01*
X1146950Y85420D02*
X1164450D01*
X1146950D02*
Y94920D01*
X1164450Y85420D02*
Y94920D01*
X1079760Y192520D02*
X1114760D01*
Y127520D02*
Y192520D01*
X1079760Y127520D02*
X1114760D01*
X1079760D02*
Y192520D01*
Y169520D02*
X1102760Y192520D01*
X947560Y137440D02*
Y147040D01*
X965060Y137440D02*
Y147040D01*
X947560D02*
X965060D01*
X947560Y137440D02*
X965060D01*
X979560Y109800D02*
X996560D01*
X979560Y118800D02*
X996560D01*
Y109800D02*
Y118800D01*
X979560Y109800D02*
Y118800D01*
X917760Y232780D02*
X930460Y245480D01*
X917760Y196480D02*
Y245480D01*
Y196480D02*
X956760D01*
Y245480D01*
X917760D02*
X956760D01*
X979560Y84400D02*
X996560D01*
X979560Y93400D02*
X996560D01*
Y84400D02*
Y93400D01*
X979560Y84400D02*
Y93400D01*
X1243500Y232240D02*
X1296500D01*
X1289998Y179240D02*
X1296498Y185740D01*
X1296500Y185742D02*
Y232240D01*
X1243500Y185738D02*
Y232240D01*
Y185738D02*
X1249999Y179240D01*
X1289998D01*
X1180110Y169520D02*
X1203110Y192520D01*
X1180110Y127520D02*
Y192520D01*
Y127520D02*
X1215110D01*
Y192520D01*
X1180110D02*
X1215110D01*
X1180173Y273390D02*
X1203173Y296390D01*
X1180173Y231390D02*
Y296390D01*
Y231390D02*
X1215173D01*
Y296390D01*
X1180173D02*
X1215173D01*
X917130Y120237D02*
X929830Y132937D01*
X917130Y83937D02*
Y132937D01*
Y83937D02*
X956130D01*
Y132937D01*
X917130D02*
X956130D01*
X1051230Y168900D02*
Y186400D01*
X1041730Y168900D02*
Y186400D01*
X1051230D01*
X1041730Y168900D02*
X1051230D01*
X1654970Y111550D02*
Y117050D01*
X1665470Y111550D02*
Y117050D01*
X1654970D02*
X1665470D01*
X1654970Y111550D02*
X1665470D01*
X1856010Y205280D02*
X1872010D01*
X1856010D02*
Y225280D01*
X1872010D01*
Y205280D02*
Y225280D01*
X1879930Y222880D02*
X1889430D01*
X1879930Y206380D02*
X1889430D01*
Y222880D01*
X1879930Y206380D02*
Y222880D01*
X1844670Y217500D02*
Y227000D01*
X1828170Y217500D02*
Y227000D01*
Y217500D02*
X1844670D01*
X1828170Y227000D02*
X1844670D01*
X1845940Y110820D02*
Y120320D01*
X1829440Y110820D02*
Y120320D01*
Y110820D02*
X1845940D01*
X1829440Y120320D02*
X1845940D01*
X1905630Y269570D02*
Y279070D01*
X1889130Y269570D02*
Y279070D01*
Y269570D02*
X1905630D01*
X1889130Y279070D02*
X1905630D01*
X1854590Y241880D02*
X1871590D01*
X1854590Y250880D02*
X1871590D01*
Y241880D02*
Y250880D01*
X1854590Y241880D02*
Y250880D01*
X1736780Y94370D02*
Y111370D01*
X1727780Y94370D02*
Y111370D01*
X1736780D01*
X1727780Y94370D02*
X1736780D01*
X1644860Y594190D02*
Y604690D01*
X1639360Y594190D02*
Y604690D01*
X1644860D01*
X1639360Y594190D02*
X1644860D01*
X631400Y486240D02*
Y496740D01*
X625900Y486240D02*
Y496740D01*
X631400D01*
X625900Y486240D02*
X631400D01*
X135720Y89960D02*
X146220D01*
X135720Y95460D02*
X146220D01*
Y89960D02*
Y95460D01*
X135720Y89960D02*
Y95460D01*
X473500Y222420D02*
X479000D01*
X473500Y211920D02*
X479000D01*
Y222420D01*
X473500Y211920D02*
Y222420D01*
X484930Y222750D02*
X490430D01*
X484930Y212250D02*
X490430D01*
Y222750D01*
X484930Y212250D02*
Y222750D01*
X1683810Y606890D02*
X1689310D01*
X1683810Y617390D02*
X1689310D01*
X1683810Y606890D02*
Y617390D01*
X1689310Y606890D02*
Y617390D01*
X721200Y379520D02*
Y385020D01*
X710700Y379520D02*
Y385020D01*
Y379520D02*
X721200D01*
X710700Y385020D02*
X721200D01*
X1654970Y122980D02*
Y128480D01*
X1665470Y122980D02*
Y128480D01*
X1654970D02*
X1665470D01*
X1654970Y122980D02*
X1665470D01*
X569360Y169420D02*
Y201420D01*
X619360Y169420D02*
Y201420D01*
X569360D02*
X619360D01*
X569360Y169420D02*
X619360D01*
X1858050Y642300D02*
X1875750D01*
X1858050Y652400D02*
X1875750D01*
Y642300D02*
Y652400D01*
X1858050Y642300D02*
Y652400D01*
X1880900Y646120D02*
Y663820D01*
X1891000Y646120D02*
Y663820D01*
X1880900Y646120D02*
X1891000D01*
X1880900Y663820D02*
X1891000D01*
X1879990Y630150D02*
Y639150D01*
X1896990Y630150D02*
Y639150D01*
X1879990D02*
X1896990D01*
X1879990Y630150D02*
X1896990D01*
X1845890Y599480D02*
Y616480D01*
X1854890Y599480D02*
Y616480D01*
X1845890Y599480D02*
X1854890D01*
X1845890Y616480D02*
X1854890D01*
X1882530Y599670D02*
Y608670D01*
X1899530Y599670D02*
Y608670D01*
X1882530D02*
X1899530D01*
X1882530Y599670D02*
X1899530D01*
X1779790Y517320D02*
Y578320D01*
X1840790Y517320D02*
Y578320D01*
X1779790D02*
X1840790D01*
X1779790Y517320D02*
X1840790D01*
X1722450Y541160D02*
Y558660D01*
X1731950Y541160D02*
Y558660D01*
X1722450Y541160D02*
X1731950D01*
X1722450Y558660D02*
X1731950D01*
X1759250Y525790D02*
Y545790D01*
X1743250Y525790D02*
X1759250D01*
X1743250D02*
Y545790D01*
X1759250D01*
X1740040Y510870D02*
X1757540D01*
X1740040Y520370D02*
X1757540D01*
Y510870D02*
Y520370D01*
X1740040Y510870D02*
Y520370D01*
X1640880Y652810D02*
Y662910D01*
X1658580Y652810D02*
Y662910D01*
X1640880D02*
X1658580D01*
X1640880Y652810D02*
X1658580D01*
X1536640Y668250D02*
X1598840D01*
X1536640Y601750D02*
X1598840D01*
X1536640D02*
Y668250D01*
X1598840Y601750D02*
Y668250D01*
X1451720Y649930D02*
X1497220D01*
Y617530D02*
Y649930D01*
X1451720Y617530D02*
X1497220D01*
X1451720D02*
Y649930D01*
X1638610Y623060D02*
Y635560D01*
X1658610D01*
Y623060D02*
Y635560D01*
X1638610Y623060D02*
X1658610D01*
X1638610Y629560D02*
X1645110Y623060D01*
X1671590Y653360D02*
Y662360D01*
X1688590Y653360D02*
Y662360D01*
X1671590D02*
X1688590D01*
X1671590Y653360D02*
X1688590D01*
X1683080Y627370D02*
X1692580D01*
X1683080Y644870D02*
X1692580D01*
X1683080Y627370D02*
Y644870D01*
X1692580Y627370D02*
Y644870D01*
X1698320Y612280D02*
X1707820D01*
X1698320Y629780D02*
X1707820D01*
X1698320Y612280D02*
Y629780D01*
X1707820Y612280D02*
Y629780D01*
X1604400Y586050D02*
Y595050D01*
X1621400Y586050D02*
Y595050D01*
X1604400D02*
X1621400D01*
X1604400Y586050D02*
X1621400D01*
X641020Y179210D02*
Y196710D01*
X631520Y179210D02*
Y196710D01*
X641020D01*
X631520Y179210D02*
X641020D01*
X1847390Y579620D02*
X1853390D01*
X1847390Y590620D02*
X1853390D01*
X1847390Y579620D02*
Y590620D01*
X1853390Y579620D02*
Y590620D01*
X951370Y377470D02*
X968870D01*
X951370Y387070D02*
X968870D01*
Y377470D02*
Y387070D01*
X951370Y377470D02*
Y387070D01*
X982100Y349830D02*
Y358830D01*
X999100Y349830D02*
Y358830D01*
X982100D02*
X999100D01*
X982100Y349830D02*
X999100D01*
X982100Y324430D02*
Y333430D01*
X999100Y324430D02*
Y333430D01*
X982100D02*
X999100D01*
X982100Y324430D02*
X999100D01*
X920300Y372480D02*
X959300D01*
Y323480D02*
Y372480D01*
X920300Y323480D02*
X959300D01*
X920300D02*
Y372480D01*
Y359780D02*
X933000Y372480D01*
X825830Y402730D02*
X835330D01*
X825830Y420230D02*
X835330D01*
X825830Y402730D02*
Y420230D01*
X835330Y402730D02*
Y420230D01*
X826910Y428320D02*
Y437820D01*
X844410Y428320D02*
Y437820D01*
X826910D02*
X844410D01*
X826910Y428320D02*
X844410D01*
X871550Y413880D02*
X881050D01*
X871550Y396380D02*
X881050D01*
Y413880D01*
X871550Y396380D02*
Y413880D01*
X1175030Y430010D02*
X1210030D01*
Y365010D02*
Y430010D01*
X1175030Y365010D02*
X1210030D01*
X1175030D02*
Y430010D01*
Y407010D02*
X1198030Y430010D01*
X1175030Y536690D02*
X1210030D01*
Y471690D02*
Y536690D01*
X1175030Y471690D02*
X1210030D01*
X1175030D02*
Y536690D01*
Y513690D02*
X1198030Y536690D01*
X919030Y485510D02*
X958030D01*
Y436510D02*
Y485510D01*
X919030Y436510D02*
X958030D01*
X919030D02*
Y485510D01*
Y472810D02*
X931730Y485510D01*
X950100Y490500D02*
X967600D01*
X950100Y500100D02*
X967600D01*
Y490500D02*
Y500100D01*
X950100Y490500D02*
Y500100D01*
X980830Y437460D02*
Y446460D01*
X997830Y437460D02*
Y446460D01*
X980830D02*
X997830D01*
X980830Y437460D02*
X997830D01*
X980830Y462860D02*
Y471860D01*
X997830Y462860D02*
Y471860D01*
X980830D02*
X997830D01*
X980830Y462860D02*
X997830D01*
X1244919Y414190D02*
X1284918D01*
X1238420Y420688D02*
X1244919Y414190D01*
X1238420Y420688D02*
Y467190D01*
X1291420Y420692D02*
Y467190D01*
X1284918Y414190D02*
X1291418Y420690D01*
X1238420Y467190D02*
X1291420D01*
X547700Y189090D02*
X557200D01*
X547700Y171590D02*
X557200D01*
Y189090D01*
X547700Y171590D02*
Y189090D01*
X423050Y293040D02*
X440550D01*
X423050Y283540D02*
X440550D01*
X423050D02*
Y293040D01*
X440550Y283540D02*
Y293040D01*
X421970Y242710D02*
Y260210D01*
X431470Y242710D02*
Y260210D01*
X421970Y242710D02*
X431470D01*
X421970Y260210D02*
X431470D01*
X290265Y323090D02*
Y609090D01*
X12270Y323090D02*
Y609090D01*
X290265D01*
X12270Y323090D02*
X290265D01*
X1078510Y513690D02*
X1101510Y536690D01*
X1078510Y471690D02*
Y536690D01*
Y471690D02*
X1113510D01*
Y536690D01*
X1078510D02*
X1113510D01*
X1078510Y407010D02*
X1101510Y430010D01*
X1078510Y365010D02*
Y430010D01*
Y365010D02*
X1113510D01*
Y430010D01*
X1078510D02*
X1113510D01*
X1141870Y541350D02*
X1159370D01*
X1141870Y550850D02*
X1159370D01*
Y541350D02*
Y550850D01*
X1141870Y541350D02*
Y550850D01*
X1145680Y328600D02*
X1163180D01*
X1145680Y319100D02*
X1163180D01*
X1145680D02*
Y328600D01*
X1163180Y319100D02*
Y328600D01*
X1035190Y543890D02*
X1052690D01*
X1035190Y553390D02*
X1052690D01*
Y543890D02*
Y553390D01*
X1035190Y543890D02*
Y553390D01*
X1049960Y406540D02*
Y424040D01*
X1040460Y406540D02*
Y424040D01*
X1049960D01*
X1040460Y406540D02*
X1049960D01*
X1669060Y614820D02*
X1678660D01*
X1669060Y632320D02*
X1678660D01*
X1669060Y614820D02*
Y632320D01*
X1678660Y614820D02*
Y632320D01*
D202*
X1266748Y216495D02*
G03*
X1273249Y216495I3250J0D01*
G01*
Y194995D02*
G03*
X1266748Y194995I-3250J0D01*
G01*
X1268168Y429945D02*
G03*
X1261668Y429945I-3250J0D01*
G01*
Y451445D02*
G03*
X1268168Y451445I3250J0D01*
G01*
X1295500Y217740D02*
X1296500D01*
X1243500D02*
X1244500D01*
X1243500Y193740D02*
X1244500D01*
X1295500D02*
X1296500D01*
X1244500Y231240D02*
X1295500D01*
X1244500Y186030D02*
Y231240D01*
X1295500Y186030D02*
Y231240D01*
X1289710Y180240D02*
X1295500Y186030D01*
X1250288Y180240D02*
X1289710D01*
X1244496Y186030D02*
X1250287Y180240D01*
X1266748Y216495D02*
Y235245D01*
Y216495D02*
X1273249D01*
X1266748Y194995D02*
X1273249D01*
Y176245D02*
Y194995D01*
X1266748Y176245D02*
X1273249D01*
X1266748D02*
Y194995D01*
X1273249Y216495D02*
Y235245D01*
X1266748D02*
X1273249D01*
X1261668Y470195D02*
X1268168D01*
Y451445D02*
Y470195D01*
X1261668Y411195D02*
Y429945D01*
Y411195D02*
X1268168D01*
Y429945D01*
X1261668D02*
X1268168D01*
X1261668Y451445D02*
X1268168D01*
X1261668D02*
Y470195D01*
X1239416Y420980D02*
X1245207Y415190D01*
X1245208D02*
X1284630D01*
X1290420Y420980D01*
Y466190D01*
X1239420Y420980D02*
Y466190D01*
X1290420D01*
Y428690D02*
X1291420D01*
X1238420D02*
X1239420D01*
X1238420Y452690D02*
X1239420D01*
X1290420D02*
X1291420D01*
M02*
