G04*
G04 #@! TF.GenerationSoftware,Altium Limited,Altium Designer,23.7.1 (13)*
G04*
G04 Layer_Color=128*
%FSLAX44Y44*%
%MOMM*%
G71*
G04*
G04 #@! TF.SameCoordinates,9AC6D79B-6B5E-4FBD-9D38-37E555C90168*
G04*
G04*
G04 #@! TF.FilePolarity,Positive*
G04*
G01*
G75*
%ADD200C,0.1270*%
D200*
X427970Y670560D02*
X438170D01*
X433070Y665460D02*
Y675660D01*
X453370Y670560D02*
X463570D01*
X458470Y665460D02*
Y675660D01*
X478770Y670560D02*
X488970D01*
X483870Y665460D02*
Y675660D01*
X504170Y670560D02*
X514370D01*
X509270Y665460D02*
Y675660D01*
X529570Y670560D02*
X539770D01*
X534670Y665460D02*
Y675660D01*
X554970Y670560D02*
X565170D01*
X560070Y665460D02*
Y675660D01*
X1038840Y675640D02*
X1049040D01*
X1043940Y670540D02*
Y680740D01*
X1013440Y675640D02*
X1023640D01*
X1018540Y670540D02*
Y680740D01*
X988040Y675640D02*
X998240D01*
X993140Y670540D02*
Y680740D01*
X962640Y675640D02*
X972840D01*
X967740Y670540D02*
Y680740D01*
X937240Y675640D02*
X947440D01*
X942340Y670540D02*
Y680740D01*
X911840Y675640D02*
X922040D01*
X916940Y670540D02*
Y680740D01*
X886440Y675640D02*
X896640D01*
X891540Y670540D02*
Y680740D01*
X861040Y675640D02*
X871240D01*
X866140Y670540D02*
Y680740D01*
X861040Y650240D02*
X871240D01*
X866140Y645140D02*
Y655340D01*
X886440Y650240D02*
X896640D01*
X891540Y645140D02*
Y655340D01*
X911840Y650240D02*
X922040D01*
X916940Y645140D02*
Y655340D01*
X937240Y650240D02*
X947440D01*
X942340Y645140D02*
Y655340D01*
X962640Y650240D02*
X972840D01*
X967740Y645140D02*
Y655340D01*
X988040Y650240D02*
X998240D01*
X993140Y645140D02*
Y655340D01*
X1013440Y650240D02*
X1023640D01*
X1018540Y645140D02*
Y655340D01*
X1038840Y650240D02*
X1049040D01*
X1043940Y645140D02*
Y655340D01*
X96612Y52410D02*
X106812D01*
X101712Y47310D02*
Y57510D01*
X96612Y77810D02*
X106812D01*
X101712Y72710D02*
Y82910D01*
X96612Y103210D02*
X106812D01*
X101712Y98110D02*
Y108310D01*
X96612Y128610D02*
X106812D01*
X101712Y123510D02*
Y133710D01*
X96612Y154010D02*
X106812D01*
X101712Y148910D02*
Y159110D01*
X71212Y52410D02*
X81412D01*
X76312Y47310D02*
Y57510D01*
X71212Y77810D02*
X81412D01*
X76312Y72710D02*
Y82910D01*
X71212Y103210D02*
X81412D01*
X76312Y98110D02*
Y108310D01*
X71212Y128610D02*
X81412D01*
X76312Y123510D02*
Y133710D01*
X71212Y154010D02*
X81412D01*
X76312Y148910D02*
Y159110D01*
X1967150Y299720D02*
X1982550D01*
X1974850Y292020D02*
Y307420D01*
X1967150Y248920D02*
X1982550D01*
X1974850Y241220D02*
Y256620D01*
X1916350Y248920D02*
X1931750D01*
X1924050Y241220D02*
Y256620D01*
X1916350Y299720D02*
X1931750D01*
X1924050Y292020D02*
Y307420D01*
X1941750Y274320D02*
X1957150D01*
X1949450Y266620D02*
Y282020D01*
X1965880Y628650D02*
X1981280D01*
X1973580Y620950D02*
Y636350D01*
X1965880Y577850D02*
X1981280D01*
X1973580Y570150D02*
Y585550D01*
X1915080Y577850D02*
X1930480D01*
X1922780Y570150D02*
Y585550D01*
X1915080Y628650D02*
X1930480D01*
X1922780Y620950D02*
Y636350D01*
X1940480Y603250D02*
X1955880D01*
X1948180Y595550D02*
Y610950D01*
X738610Y191770D02*
X767610D01*
X753110Y177270D02*
Y206270D01*
X1282170Y505460D02*
X1311170D01*
X1296670Y490960D02*
Y519960D01*
X570210Y610870D02*
X580410D01*
X575310Y605770D02*
Y615970D01*
X570210Y636270D02*
X580410D01*
X575310Y631170D02*
Y641370D01*
X68560Y226060D02*
X78760D01*
X73660Y220960D02*
Y231160D01*
X68560Y200660D02*
X78760D01*
X73660Y195560D02*
Y205760D01*
X68560Y251460D02*
X78760D01*
X73660Y246360D02*
Y256560D01*
X1454130Y585470D02*
X1464330D01*
X1459230Y580370D02*
Y590570D01*
X1428730Y585470D02*
X1438930D01*
X1433830Y580370D02*
Y590570D01*
X1463020Y679450D02*
X1473220D01*
X1468120Y674350D02*
Y684550D01*
X1437620Y679450D02*
X1447820D01*
X1442720Y674350D02*
Y684550D01*
X1154410Y659130D02*
X1164610D01*
X1159510Y654030D02*
Y664230D01*
X1129010Y659130D02*
X1139210D01*
X1134110Y654030D02*
Y664230D01*
X1330940Y585470D02*
X1341140D01*
X1336040Y580370D02*
Y590570D01*
X1305540Y585470D02*
X1315740D01*
X1310640Y580370D02*
Y590570D01*
X1101070Y39370D02*
X1111270D01*
X1106170Y34270D02*
Y44470D01*
X1075670Y39370D02*
X1085870D01*
X1080770Y34270D02*
Y44470D01*
X1567160Y30480D02*
X1577360D01*
X1572260Y25380D02*
Y35580D01*
X1541760Y30480D02*
X1551960D01*
X1546860Y25380D02*
Y35580D01*
X1103610Y659130D02*
X1113810D01*
X1108710Y654030D02*
Y664230D01*
X1078210Y659130D02*
X1088410D01*
X1083310Y654030D02*
Y664230D01*
X1280140Y585470D02*
X1290340D01*
X1285240Y580370D02*
Y590570D01*
X1254740Y585470D02*
X1264940D01*
X1259840Y580370D02*
Y590570D01*
X1151870Y39370D02*
X1162070D01*
X1156970Y34270D02*
Y44470D01*
X1126470Y39370D02*
X1136670D01*
X1131570Y34270D02*
Y44470D01*
X1617960Y30480D02*
X1628160D01*
X1623060Y25380D02*
Y35580D01*
X1592560Y30480D02*
X1602760D01*
X1597660Y25380D02*
Y35580D01*
X679430Y76200D02*
X689630D01*
X684530Y71100D02*
Y81300D01*
X679430Y101600D02*
X689630D01*
X684530Y96500D02*
Y106700D01*
X1488420Y679450D02*
X1498620D01*
X1493520Y674350D02*
Y684550D01*
X1513820Y679450D02*
X1524020D01*
X1518920Y674350D02*
Y684550D01*
X679430Y25400D02*
X689630D01*
X684530Y20300D02*
Y30500D01*
X679430Y50800D02*
X689630D01*
X684530Y45700D02*
Y55900D01*
X1377930Y585470D02*
X1388130D01*
X1383030Y580370D02*
Y590570D01*
X1403330Y585470D02*
X1413530D01*
X1408430Y580370D02*
Y590570D01*
X1236260Y649770D02*
X1265260D01*
X1250760Y635270D02*
Y664270D01*
X1236260Y49770D02*
X1265260D01*
X1250760Y35270D02*
Y64270D01*
X1736260Y49770D02*
X1765260D01*
X1750760Y35270D02*
Y64270D01*
X1736260Y649770D02*
X1765260D01*
X1750760Y635270D02*
Y664270D01*
X736260Y49770D02*
X765260D01*
X750760Y35270D02*
Y64270D01*
X236260Y49770D02*
X265260D01*
X250760Y35270D02*
Y64270D01*
X736260Y649770D02*
X765260D01*
X750760Y635270D02*
Y664270D01*
X236260Y649770D02*
X265260D01*
X250760Y635270D02*
Y664270D01*
X437920Y318770D02*
X440920D01*
X439420Y317270D02*
Y320270D01*
X516660Y643890D02*
X519660D01*
X518160Y642390D02*
Y645390D01*
X1743480Y215900D02*
X1746480D01*
X1744980Y214400D02*
Y217400D01*
X1673630Y453390D02*
X1676630D01*
X1675130Y451890D02*
Y454890D01*
X1206270Y275590D02*
X1209270D01*
X1207770Y274090D02*
Y277090D01*
X1144040Y462280D02*
X1147040D01*
X1145540Y460780D02*
Y463780D01*
X1137690Y114300D02*
X1140690D01*
X1139190Y112800D02*
Y115800D01*
X1135150Y354330D02*
X1138150D01*
X1136650Y352830D02*
Y355830D01*
X1107210Y346710D02*
X1110210D01*
X1108710Y345210D02*
Y348210D01*
X1095780Y106680D02*
X1098780D01*
X1097280Y105180D02*
Y108180D01*
X1032280Y214630D02*
X1035280D01*
X1033780Y213130D02*
Y216130D01*
X1032280Y454660D02*
X1035280D01*
X1033780Y453160D02*
Y456160D01*
X350738Y564500D02*
X353738D01*
X352238Y562999D02*
Y565999D01*
X376138Y626730D02*
X379138D01*
X377638Y625229D02*
Y628229D01*
X408710Y552450D02*
X411710D01*
X410210Y550950D02*
Y553950D01*
X1402361Y676094D02*
X1405361D01*
X1403860Y674594D02*
Y677594D01*
X1405207Y654340D02*
X1408207D01*
X1406707Y652840D02*
Y655840D01*
X1356615Y643057D02*
X1359615D01*
X1358115Y641557D02*
Y644557D01*
X1365505Y673537D02*
X1368505D01*
X1367005Y672037D02*
Y675037D01*
X1729510Y601980D02*
X1732510D01*
X1731010Y600480D02*
Y603480D01*
X492530Y87630D02*
X495530D01*
X494030Y86130D02*
Y89130D01*
X822730Y81280D02*
X825730D01*
X824230Y79780D02*
Y82780D01*
X1305965Y92710D02*
X1308965D01*
X1307465Y91210D02*
Y94210D01*
X352830Y22860D02*
X355830D01*
X354330Y21360D02*
Y24360D01*
X1692680Y688340D02*
X1695680D01*
X1694180Y686840D02*
Y689840D01*
X1674900Y687070D02*
X1677900D01*
X1676400Y685570D02*
Y688570D01*
X1679980Y445770D02*
X1682980D01*
X1681480Y444270D02*
Y447270D01*
X1099590Y115570D02*
X1102590D01*
X1101090Y114070D02*
Y117070D01*
X1230400Y474980D02*
X1233400D01*
X1231900Y473480D02*
Y476480D01*
X1104670Y457200D02*
X1107670D01*
X1106170Y455700D02*
Y458700D01*
X1206270Y285750D02*
X1209270D01*
X1207770Y284250D02*
Y287250D01*
X1103400Y220980D02*
X1106400D01*
X1104900Y219480D02*
Y222480D01*
X1140230Y214630D02*
X1143230D01*
X1141730Y213130D02*
Y216130D01*
X1142770Y452120D02*
X1145770D01*
X1144270Y450620D02*
Y453620D01*
X1587270Y214630D02*
X1590270D01*
X1588770Y213130D02*
Y216130D01*
X1606320Y266700D02*
X1609320D01*
X1607820Y265200D02*
Y268200D01*
X1570760Y163830D02*
X1573760D01*
X1572260Y162330D02*
Y165330D01*
X1504720Y50800D02*
X1507720D01*
X1506220Y49300D02*
Y52300D01*
X1504720Y87630D02*
X1507720D01*
X1506220Y86130D02*
Y89130D01*
X1521230Y99060D02*
X1524230D01*
X1522730Y97560D02*
Y100560D01*
X1516150Y127000D02*
X1519150D01*
X1517650Y125500D02*
Y128500D01*
X1521230Y176530D02*
X1524230D01*
X1522730Y175030D02*
Y178030D01*
X1508530Y220980D02*
X1511530D01*
X1510030Y219480D02*
Y222480D01*
X1517420Y241300D02*
X1520420D01*
X1518920Y239800D02*
Y242800D01*
X1516150Y261620D02*
X1519150D01*
X1517650Y260120D02*
Y263120D01*
X1522500Y289560D02*
X1525500D01*
X1524000Y288060D02*
Y291060D01*
X1517420Y326390D02*
X1520420D01*
X1518920Y324890D02*
Y327890D01*
X1514880Y370840D02*
X1517880D01*
X1516380Y369340D02*
Y372340D01*
X1511070Y422910D02*
X1514070D01*
X1512570Y421410D02*
Y424410D01*
X1515076Y396424D02*
X1518076D01*
X1516577Y394924D02*
Y397924D01*
X1519960Y541020D02*
X1522960D01*
X1521460Y539520D02*
Y542520D01*
X1511070Y505460D02*
X1514070D01*
X1512570Y503960D02*
Y506960D01*
X1514880Y487680D02*
X1517880D01*
X1516380Y486180D02*
Y489180D01*
X1031010Y181610D02*
X1034010D01*
X1032510Y180110D02*
Y183110D01*
X1032280Y284480D02*
X1035280D01*
X1033780Y282980D02*
Y285980D01*
X1033550Y513080D02*
X1036550D01*
X1035050Y511580D02*
Y514580D01*
X1047520Y443230D02*
X1050520D01*
X1049020Y441730D02*
Y444730D01*
X1043710Y464820D02*
X1046710D01*
X1045210Y463320D02*
Y466320D01*
X1043710Y485140D02*
X1046710D01*
X1045210Y483640D02*
Y486640D01*
X1027200Y426720D02*
X1030200D01*
X1028700Y425220D02*
Y428220D01*
X1047520Y339090D02*
X1050520D01*
X1049020Y337590D02*
Y340590D01*
X1027200Y372110D02*
X1030200D01*
X1028700Y370610D02*
Y373610D01*
X1041170Y374650D02*
X1044170D01*
X1042670Y373150D02*
Y376150D01*
X1038630Y392430D02*
X1041630D01*
X1040130Y390930D02*
Y393930D01*
X1041170Y114300D02*
X1044170D01*
X1042670Y112800D02*
Y115800D01*
X1044980Y198120D02*
X1047980D01*
X1046480Y196620D02*
Y199620D01*
X1516150Y468630D02*
X1519150D01*
X1517650Y467130D02*
Y470130D01*
X1509800Y205740D02*
X1512800D01*
X1511300Y204240D02*
Y207240D01*
X1507260Y355600D02*
X1510260D01*
X1508760Y354100D02*
Y357100D01*
X1507260Y341630D02*
X1510260D01*
X1508760Y340130D02*
Y343130D01*
X1034820Y408940D02*
X1037820D01*
X1036320Y407440D02*
Y410440D01*
X1024660Y546100D02*
X1027660D01*
X1026160Y544600D02*
Y547600D01*
X1036090Y170180D02*
X1039090D01*
X1037590Y168680D02*
Y171680D01*
X1019580Y302260D02*
X1022580D01*
X1021080Y300760D02*
Y303760D01*
X1058950Y227330D02*
X1061950D01*
X1060450Y225830D02*
Y228830D01*
X1056410Y113030D02*
X1059410D01*
X1057910Y111530D02*
Y114530D01*
X1052600Y124460D02*
X1055600D01*
X1054100Y122960D02*
Y125960D01*
X1044980Y227330D02*
X1047980D01*
X1046480Y225830D02*
Y228830D01*
X1044980Y241300D02*
X1047980D01*
X1046480Y239800D02*
Y242800D01*
X1629180Y627380D02*
X1632180D01*
X1630680Y625880D02*
Y628880D01*
X1677440Y596900D02*
X1680440D01*
X1678940Y595400D02*
Y598400D01*
X1573300Y586740D02*
X1576300D01*
X1574800Y585240D02*
Y588240D01*
X632230Y168910D02*
X635230D01*
X633730Y167410D02*
Y170410D01*
X642390Y285750D02*
X645390D01*
X643890Y284250D02*
Y287250D01*
X256310Y292100D02*
X259310D01*
X257810Y290600D02*
Y293600D01*
X1898420Y237490D02*
X1901420D01*
X1899920Y235990D02*
Y238990D01*
X840609Y428396D02*
X843609D01*
X842109Y426896D02*
Y429896D01*
X895120Y334010D02*
X898120D01*
X896620Y332510D02*
Y335510D01*
X168680Y106680D02*
X171680D01*
X170180Y105180D02*
Y108180D01*
X159790Y109220D02*
X162790D01*
X161290Y107720D02*
Y110720D01*
X284250Y246380D02*
X287250D01*
X285750Y244880D02*
Y247880D01*
X371880Y259080D02*
X374880D01*
X373380Y257580D02*
Y260580D01*
X495070Y436880D02*
X498070D01*
X496570Y435380D02*
Y438380D01*
X547449Y463859D02*
X550449D01*
X548949Y462359D02*
Y465359D01*
X549680Y435610D02*
X552680D01*
X551180Y434110D02*
Y437110D01*
X684300Y378460D02*
X687300D01*
X685800Y376960D02*
Y379960D01*
X638580Y251460D02*
X641580D01*
X640080Y249960D02*
Y252960D01*
X627150Y251460D02*
X630150D01*
X628650Y249960D02*
Y252960D01*
X627386Y223756D02*
X630386D01*
X628886Y222256D02*
Y225256D01*
X603020Y283210D02*
X606020D01*
X604520Y281710D02*
Y284710D01*
X606830Y123190D02*
X609830D01*
X608330Y121690D02*
Y124690D01*
X153440Y91440D02*
X156440D01*
X154940Y89940D02*
Y92940D01*
X143280Y137160D02*
X146280D01*
X144780Y135660D02*
Y138660D01*
X145820Y105410D02*
X148820D01*
X147320Y103910D02*
Y106910D01*
X355625Y217978D02*
X358625D01*
X357125Y216478D02*
Y219478D01*
X474750Y180340D02*
X477750D01*
X476250Y178840D02*
Y181840D01*
X532274Y218814D02*
X535274D01*
X533774Y217314D02*
Y220314D01*
X391960Y332330D02*
X394960D01*
X393460Y330830D02*
Y333830D01*
X817757Y293275D02*
X820757D01*
X819257Y291775D02*
Y294775D01*
X862207Y239935D02*
X865207D01*
X863707Y238435D02*
Y241435D01*
X1836297Y457105D02*
X1839297D01*
X1837797Y455605D02*
Y458605D01*
X1810897Y653955D02*
X1813897D01*
X1812397Y652455D02*
Y655455D01*
X1956947Y657765D02*
X1959947D01*
X1958447Y656265D02*
Y659265D01*
X1972187Y680625D02*
X1975187D01*
X1973687Y679125D02*
Y682125D01*
X1925197Y667925D02*
X1928197D01*
X1926697Y666425D02*
Y669425D01*
X1944247Y493935D02*
X1947247D01*
X1945747Y492435D02*
Y495435D01*
X1974727Y505365D02*
X1977727D01*
X1976227Y503865D02*
Y506865D01*
X1945517Y535845D02*
X1948517D01*
X1947017Y534345D02*
Y537345D01*
X1949327Y388525D02*
X1952327D01*
X1950827Y387025D02*
Y390025D01*
X1981077Y335185D02*
X1984077D01*
X1982577Y333685D02*
Y336685D01*
X1937897Y346615D02*
X1940897D01*
X1939397Y345115D02*
Y348115D01*
X1895143Y373108D02*
X1898143D01*
X1896643Y371608D02*
Y374608D01*
X1880747Y335185D02*
X1883747D01*
X1882247Y333685D02*
Y336685D01*
X1818517Y344075D02*
X1821517D01*
X1820017Y342575D02*
Y345575D01*
X1831217Y309785D02*
X1834217D01*
X1832717Y308285D02*
Y311285D01*
X1777877Y307245D02*
X1780877D01*
X1779377Y305745D02*
Y308745D01*
X1960757Y205645D02*
X1963757D01*
X1962257Y204145D02*
Y207145D01*
X1913767Y196755D02*
X1916767D01*
X1915267Y195255D02*
Y198255D01*
X1951867Y159925D02*
X1954867D01*
X1953367Y158425D02*
Y161425D01*
X1922657Y36735D02*
X1925657D01*
X1924157Y35235D02*
Y38235D01*
X1953137Y77375D02*
X1956137D01*
X1954637Y75875D02*
Y78875D01*
X1936627Y121825D02*
X1939627D01*
X1938127Y120325D02*
Y123325D01*
X1894717Y142145D02*
X1897717D01*
X1896217Y140645D02*
Y143645D01*
X1889637Y73565D02*
X1892637D01*
X1891137Y72065D02*
Y75065D01*
X1483237Y32925D02*
X1486237D01*
X1484737Y31425D02*
Y34425D01*
X1268607Y375825D02*
X1271607D01*
X1270107Y374325D02*
Y377325D01*
X1295277Y302165D02*
X1298277D01*
X1296777Y300665D02*
Y303665D01*
X878717Y21495D02*
X881717D01*
X880217Y19995D02*
Y22995D01*
X608100Y102870D02*
X611100D01*
X609600Y101370D02*
Y104370D01*
X389767Y32925D02*
X392767D01*
X391267Y31425D02*
Y34425D01*
X281817Y27845D02*
X284817D01*
X283317Y26345D02*
Y29345D01*
X222127Y186595D02*
X225127D01*
X223627Y185095D02*
Y188095D01*
X265307Y219615D02*
X268307D01*
X266807Y218115D02*
Y221115D01*
X468400Y556260D02*
X471400D01*
X469900Y554760D02*
Y557760D01*
X201807Y671735D02*
X204807D01*
X203307Y670235D02*
Y673235D01*
X79780Y632460D02*
X82780D01*
X81280Y630960D02*
Y633960D01*
X101370Y668020D02*
X104370D01*
X102870Y666520D02*
Y669520D01*
X1288820Y637540D02*
X1291820D01*
X1290320Y636040D02*
Y639040D01*
X1287550Y669290D02*
X1290550D01*
X1289050Y667790D02*
Y670790D01*
X1102130Y598170D02*
X1105130D01*
X1103630Y596670D02*
Y599670D01*
X1420900Y33020D02*
X1423900D01*
X1422400Y31520D02*
Y34520D01*
X1357400Y306070D02*
X1360400D01*
X1358900Y304570D02*
Y307570D01*
X939570Y16510D02*
X942570D01*
X941070Y15010D02*
Y18010D01*
X831620Y26670D02*
X834620D01*
X833120Y25170D02*
Y28170D01*
X735100Y95250D02*
X738100D01*
X736600Y93750D02*
Y96750D01*
X769390Y530860D02*
X772390D01*
X770890Y529360D02*
Y532360D01*
X738910Y596900D02*
X741910D01*
X740410Y595400D02*
Y598400D01*
X500150Y591820D02*
X503150D01*
X501650Y590320D02*
Y593320D01*
X462050Y525780D02*
X465050D01*
X463550Y524280D02*
Y527280D01*
X458240Y198120D02*
X461240D01*
X459740Y196620D02*
Y199620D01*
X465860Y77470D02*
X468860D01*
X467360Y75970D02*
Y78970D01*
X470940Y30480D02*
X473940D01*
X472440Y28980D02*
Y31980D01*
X421410Y43180D02*
X424410D01*
X422910Y41680D02*
Y44680D01*
X62000Y21590D02*
X65000D01*
X63500Y20090D02*
Y23090D01*
X219480Y17780D02*
X222480D01*
X220980Y16280D02*
Y19280D01*
X172490Y29210D02*
X175490D01*
X173990Y27710D02*
Y30710D01*
X305840Y217170D02*
X308840D01*
X307340Y215670D02*
Y218670D01*
X206780Y152400D02*
X209780D01*
X208280Y150900D02*
Y153900D01*
X23900Y233680D02*
X26900D01*
X25400Y232180D02*
Y235180D01*
X209320Y292100D02*
X212320D01*
X210820Y290600D02*
Y293600D01*
X93750Y288290D02*
X96750D01*
X95250Y286790D02*
Y289790D01*
X30250Y288290D02*
X33250D01*
X31750Y286790D02*
Y289790D01*
X411250Y482600D02*
X414250D01*
X412750Y481100D02*
Y484100D01*
X366800Y500380D02*
X369800D01*
X368300Y498880D02*
Y501880D01*
X312190Y608330D02*
X315190D01*
X313690Y606830D02*
Y609830D01*
X312190Y665480D02*
X315190D01*
X313690Y663980D02*
Y666980D01*
X134390Y673100D02*
X137390D01*
X135890Y671600D02*
Y674600D01*
X32790Y638810D02*
X35790D01*
X34290Y637310D02*
Y640310D01*
X73430Y656590D02*
X76430D01*
X74930Y655090D02*
Y658090D01*
X34060Y673100D02*
X37060D01*
X35560Y671600D02*
Y674600D01*
X170368Y647945D02*
X173368D01*
X171868Y646445D02*
Y649445D01*
X118860Y639506D02*
X121860D01*
X120359Y638006D02*
Y641006D01*
X811300Y436880D02*
X814300D01*
X812800Y435380D02*
Y438380D01*
X854480Y431800D02*
X857480D01*
X855980Y430300D02*
Y433300D01*
X1309140Y467360D02*
X1312140D01*
X1310640Y465860D02*
Y468860D01*
X1291360Y407670D02*
X1294360D01*
X1292860Y406170D02*
Y409170D01*
X1671090Y589280D02*
X1674090D01*
X1672590Y587780D02*
Y590780D01*
X1329460Y180340D02*
X1332460D01*
X1330960Y178840D02*
Y181840D01*
X695730Y433070D02*
X698730D01*
X697230Y431570D02*
Y434570D01*
X332510Y58420D02*
X335510D01*
X334010Y56920D02*
Y59920D01*
X652550Y294640D02*
X655550D01*
X654050Y293140D02*
Y296140D01*
X651280Y323850D02*
X654280D01*
X652780Y322350D02*
Y325350D01*
X1309140Y175260D02*
X1312140D01*
X1310640Y173760D02*
Y176760D01*
X1286280Y189230D02*
X1289280D01*
X1287780Y187730D02*
Y190730D01*
X1334540Y200660D02*
X1337540D01*
X1336040Y199160D02*
Y202160D01*
X655115Y394995D02*
X658115D01*
X656615Y393495D02*
Y396495D01*
X694460Y394970D02*
X697460D01*
X695960Y393470D02*
Y396470D01*
X470940Y461010D02*
X473940D01*
X472440Y459510D02*
Y462510D01*
X459510Y474980D02*
X462510D01*
X461010Y473480D02*
Y476480D01*
X552220Y224790D02*
X555220D01*
X553720Y223290D02*
Y226290D01*
X1650770Y64770D02*
X1653770D01*
X1652270Y63270D02*
Y66270D01*
X1498370Y63500D02*
X1501370D01*
X1499870Y62000D02*
Y65000D01*
X1638070Y57150D02*
X1641070D01*
X1639570Y55650D02*
Y58650D01*
X1551710Y71120D02*
X1554710D01*
X1553210Y69620D02*
Y72620D01*
X1598700Y101600D02*
X1601700D01*
X1600200Y100100D02*
Y103100D01*
X1630450Y646030D02*
X1633450D01*
X1631950Y644530D02*
Y647530D01*
X1658390Y642620D02*
X1661390D01*
X1659890Y641120D02*
Y644120D01*
X1479320Y453390D02*
X1482320D01*
X1480820Y451890D02*
Y454890D01*
X1479320Y534670D02*
X1482320D01*
X1480820Y533170D02*
Y536170D01*
X732560Y401320D02*
X735560D01*
X734060Y399820D02*
Y402820D01*
X616990Y468630D02*
X619990D01*
X618490Y467130D02*
Y470130D01*
X1743480Y497840D02*
X1746480D01*
X1744980Y496340D02*
Y499340D01*
X1829840Y500380D02*
X1832840D01*
X1831340Y498880D02*
Y501880D01*
X1762530Y575310D02*
X1765530D01*
X1764030Y573810D02*
Y576810D01*
X1345620Y444500D02*
X1348620D01*
X1347120Y443000D02*
Y446000D01*
X1752370Y101600D02*
X1755370D01*
X1753870Y100100D02*
Y103100D01*
X1339620Y223520D02*
X1342620D01*
X1341120Y222020D02*
Y225020D01*
X1292630Y204470D02*
X1295630D01*
X1294130Y202970D02*
Y205970D01*
X592860Y477520D02*
X595860D01*
X594360Y476020D02*
Y479020D01*
X572540Y557530D02*
X575540D01*
X574040Y556030D02*
Y559030D01*
X677950Y659130D02*
X680950D01*
X679450Y657630D02*
Y660630D01*
X869692Y391246D02*
X872692D01*
X871192Y389746D02*
Y392746D01*
X846860Y198120D02*
X849860D01*
X848360Y196620D02*
Y199620D01*
X867180Y140970D02*
X870180D01*
X868680Y139470D02*
Y142470D01*
X811300Y170180D02*
X814300D01*
X812800Y168680D02*
Y171680D01*
X633500Y321310D02*
X636500D01*
X635000Y319810D02*
Y322810D01*
X625880Y304800D02*
X628880D01*
X627380Y303300D02*
Y306300D01*
X1631398Y590513D02*
X1634398D01*
X1632898Y589013D02*
Y592014D01*
X1693950Y596900D02*
X1696950D01*
X1695450Y595400D02*
Y598400D01*
X1740040Y524580D02*
X1743040D01*
X1741540Y523080D02*
Y526080D01*
X1760061Y538675D02*
X1763061D01*
X1761561Y537175D02*
Y540175D01*
X1845080Y499110D02*
X1848080D01*
X1846580Y497610D02*
Y500610D01*
X1869210Y231140D02*
X1872210D01*
X1870710Y229640D02*
Y232640D01*
X1856510Y200660D02*
X1859510D01*
X1858010Y199160D02*
Y202160D01*
X1846350Y246380D02*
X1849350D01*
X1847850Y244880D02*
Y247880D01*
X1362480Y245110D02*
X1365480D01*
X1363980Y243610D02*
Y246610D01*
X1330730Y228600D02*
X1333730D01*
X1332230Y227100D02*
Y230100D01*
X1301520Y341630D02*
X1304520D01*
X1303020Y340130D02*
Y343130D01*
X1302790Y363220D02*
X1305790D01*
X1304290Y361720D02*
Y364720D01*
X1306690Y411341D02*
X1309690D01*
X1308190Y409841D02*
Y412841D01*
X1297710Y450850D02*
X1300710D01*
X1299210Y449350D02*
Y452350D01*
X1288220Y461610D02*
X1291220D01*
X1289720Y460110D02*
Y463110D01*
X1264690Y481330D02*
X1267690D01*
X1266190Y479830D02*
Y482830D01*
X878610Y437458D02*
X881610D01*
X880110Y435957D02*
Y438957D01*
X887500Y488950D02*
X890500D01*
X889000Y487450D02*
Y490450D01*
X773200Y515620D02*
X776200D01*
X774700Y514120D02*
Y517120D01*
X710970Y509270D02*
X713970D01*
X712470Y507770D02*
Y510770D01*
X712240Y483870D02*
X715240D01*
X713740Y482370D02*
Y485370D01*
X785900Y393700D02*
X788900D01*
X787400Y392200D02*
Y395200D01*
X757960Y427990D02*
X760960D01*
X759460Y426490D02*
Y429490D01*
X821460Y433070D02*
X824460D01*
X822960Y431570D02*
Y434570D01*
X855750Y392380D02*
X858750D01*
X857250Y390880D02*
Y393880D01*
X911630Y392430D02*
X914630D01*
X913130Y390930D02*
Y393930D01*
X855882Y142254D02*
X858883D01*
X857383Y140754D02*
Y143754D01*
X656398Y251816D02*
X659398D01*
X657898Y250316D02*
Y253316D01*
X622070Y282231D02*
X625070D01*
X623570Y280731D02*
Y283731D01*
X385850Y147320D02*
X388850D01*
X387350Y145820D02*
Y148820D01*
X349020Y297118D02*
X352020D01*
X350520Y295618D02*
Y298618D01*
X189000Y364490D02*
X192000D01*
X190500Y362990D02*
Y365990D01*
X190270Y402590D02*
X193270D01*
X191770Y401090D02*
Y404090D01*
X189000Y419100D02*
X192000D01*
X190500Y417600D02*
Y420600D01*
X183920Y477520D02*
X186920D01*
X185420Y476020D02*
Y479020D01*
X194080Y488950D02*
X197080D01*
X195580Y487450D02*
Y490450D01*
X187730Y520700D02*
X190730D01*
X189230Y519200D02*
Y522200D01*
X194080Y543560D02*
X197080D01*
X195580Y542060D02*
Y545060D01*
X298220Y355600D02*
X301220D01*
X299720Y354100D02*
Y357100D01*
X343940Y389890D02*
X346940D01*
X345440Y388390D02*
Y391390D01*
X327430Y326390D02*
X330430D01*
X328930Y324890D02*
Y327890D01*
X337590Y303530D02*
X340590D01*
X339090Y302030D02*
Y305030D01*
X382040Y292100D02*
X385040D01*
X383540Y290600D02*
Y293600D01*
X415060Y462280D02*
X418060D01*
X416560Y460780D02*
Y463780D01*
X556030Y257810D02*
X559030D01*
X557530Y256310D02*
Y259310D01*
X540790Y123190D02*
X543790D01*
X542290Y121690D02*
Y124690D01*
X810030Y80010D02*
X813030D01*
X811530Y78510D02*
Y81510D01*
X639850Y537210D02*
X642850D01*
X641350Y535710D02*
Y538710D01*
X582700Y369570D02*
X585700D01*
X584200Y368070D02*
Y371070D01*
X625880Y387350D02*
X628880D01*
X627380Y385850D02*
Y388850D01*
X472210Y287020D02*
X475210D01*
X473710Y285520D02*
Y288520D01*
X393470Y205740D02*
X396470D01*
X394970Y204240D02*
Y207240D01*
X379500Y417830D02*
X382500D01*
X381000Y416330D02*
Y419330D01*
X493800Y415290D02*
X496800D01*
X495300Y413790D02*
Y416790D01*
X305840Y476250D02*
X308840D01*
X307340Y474750D02*
Y477750D01*
X627150Y373380D02*
X630150D01*
X628650Y371880D02*
Y374880D01*
X530630Y259080D02*
X533630D01*
X532130Y257580D02*
Y260580D01*
X384580Y365760D02*
X387580D01*
X386080Y364260D02*
Y367260D01*
X576098Y252730D02*
X579098D01*
X577598Y251230D02*
Y254230D01*
X630960Y355600D02*
X633960D01*
X632460Y354100D02*
Y357100D01*
X611910Y358140D02*
X614910D01*
X613410Y356640D02*
Y359640D01*
X379500Y243840D02*
X382500D01*
X381000Y242340D02*
Y245340D01*
X592860Y384810D02*
X595860D01*
X594360Y383310D02*
Y386310D01*
X304570Y523240D02*
X307570D01*
X306070Y521740D02*
Y524740D01*
X455700Y445770D02*
X458700D01*
X457200Y444270D02*
Y447270D01*
X572559Y269881D02*
X575559D01*
X574059Y268381D02*
Y271381D01*
X437920Y468630D02*
X440920D01*
X439420Y467130D02*
Y470130D01*
X310920Y502920D02*
X313920D01*
X312420Y501420D02*
Y504420D01*
X387120Y224790D02*
X390120D01*
X388620Y223290D02*
Y226290D01*
X600480Y220980D02*
X603480D01*
X601980Y219480D02*
Y222480D01*
X517930Y251460D02*
X520930D01*
X519430Y249960D02*
Y252960D01*
X634770Y406400D02*
X637770D01*
X636270Y404900D02*
Y407900D01*
X573908Y278779D02*
X576908D01*
X575408Y277279D02*
Y280279D01*
X644930Y382270D02*
X647930D01*
X646430Y380770D02*
Y383770D01*
X492530Y469900D02*
X495530D01*
X494030Y468400D02*
Y471400D01*
X590522Y284480D02*
X593522D01*
X592022Y282980D02*
Y285980D01*
X572290Y260885D02*
X575290D01*
X573790Y259385D02*
Y262385D01*
X1763206Y480736D02*
X1766206D01*
X1764706Y479236D02*
Y482236D01*
X1781580Y454660D02*
X1784580D01*
X1783080Y453160D02*
Y456160D01*
X874800Y327660D02*
X877800D01*
X876300Y326160D02*
Y329160D01*
X799870Y161290D02*
X802870D01*
X801370Y159790D02*
Y162790D01*
X745260Y311150D02*
X748260D01*
X746760Y309650D02*
Y312650D01*
X742720Y321310D02*
X745720D01*
X744220Y319810D02*
Y322810D01*
X751610Y294640D02*
X754610D01*
X753110Y293140D02*
Y296140D01*
X796060Y320040D02*
X799060D01*
X797560Y318540D02*
Y321540D01*
X1340890Y535940D02*
X1343890D01*
X1342390Y534440D02*
Y537440D01*
X1546630Y577850D02*
X1549630D01*
X1548130Y576350D02*
Y579350D01*
X1481860Y544370D02*
X1484860D01*
X1483360Y542870D02*
Y545870D01*
X1004340Y511810D02*
X1007340D01*
X1005840Y510310D02*
Y513310D01*
X1141500Y603250D02*
X1144500D01*
X1143000Y601750D02*
Y604750D01*
X1621560Y636270D02*
X1624560D01*
X1623060Y634770D02*
Y637770D01*
X1212620Y546100D02*
X1215620D01*
X1214120Y544600D02*
Y547600D01*
X538250Y251460D02*
X541250D01*
X539750Y249960D02*
Y252960D01*
X542060Y279400D02*
X545060D01*
X543560Y277900D02*
Y280900D01*
X437646Y455274D02*
X439646D01*
X438646Y454274D02*
Y456274D01*
X402086Y465434D02*
X404086D01*
X403086Y464434D02*
Y466434D01*
X312690Y534670D02*
X314690D01*
X313690Y533670D02*
Y535670D01*
X1599970Y679450D02*
X1602970D01*
X1601470Y677950D02*
Y680950D01*
X1594890Y590550D02*
X1597890D01*
X1596390Y589050D02*
Y592050D01*
X253770Y303530D02*
X256770D01*
X255270Y302030D02*
Y305030D01*
X329970Y250190D02*
X332970D01*
X331470Y248690D02*
Y251690D01*
X303300Y233680D02*
X306300D01*
X304800Y232180D02*
Y235180D01*
X497610Y260350D02*
X500610D01*
X499110Y258850D02*
Y261850D01*
X384580Y321310D02*
X387580D01*
X386080Y319810D02*
Y322810D01*
X885277Y249872D02*
X888278D01*
X886777Y248372D02*
Y251373D01*
X1795550Y212090D02*
X1798550D01*
X1797050Y210590D02*
Y213590D01*
X1809520Y242570D02*
X1812520D01*
X1811020Y241070D02*
Y244070D01*
X1826030Y160020D02*
X1829030D01*
X1827530Y158520D02*
Y161520D01*
X1730780Y86360D02*
X1733780D01*
X1732280Y84860D02*
Y87860D01*
X638580Y624840D02*
X641580D01*
X640080Y623340D02*
Y626340D01*
X651280Y668020D02*
X654280D01*
X652780Y666520D02*
Y669520D01*
X641120Y581660D02*
X644120D01*
X642620Y580160D02*
Y583160D01*
X606200Y655320D02*
X609200D01*
X607700Y653820D02*
Y656820D01*
X598580Y621030D02*
X601580D01*
X600080Y619530D02*
Y622530D01*
X613820Y624840D02*
X616820D01*
X615320Y623340D02*
Y626340D01*
X1742830Y582930D02*
X1745830D01*
X1744330Y581430D02*
Y584430D01*
X1789200Y185420D02*
X1792200D01*
X1790700Y183920D02*
Y186920D01*
X1775230Y125730D02*
X1778230D01*
X1776730Y124230D02*
Y127230D01*
X909090Y53340D02*
X912090D01*
X910590Y51840D02*
Y54840D01*
X909090Y43180D02*
X912090D01*
X910590Y41680D02*
Y44680D01*
X1328190Y102870D02*
X1331190D01*
X1329690Y101370D02*
Y104370D01*
X89940Y327660D02*
X92940D01*
X91440Y326160D02*
Y329160D01*
X17550Y375920D02*
X20550D01*
X19050Y374420D02*
Y377420D01*
X199160Y345440D02*
X202160D01*
X200660Y343940D02*
Y346940D01*
X200430Y332740D02*
X203430D01*
X201930Y331240D02*
Y334240D01*
X688110Y453390D02*
X691110D01*
X689610Y451890D02*
Y454890D01*
X690650Y467360D02*
X693650D01*
X692150Y465860D02*
Y468860D01*
X1611400Y541020D02*
X1614400D01*
X1612900Y539520D02*
Y542520D01*
X1622830Y448310D02*
X1625830D01*
X1624330Y446810D02*
Y449810D01*
X1478050Y523240D02*
X1481050D01*
X1479550Y521740D02*
Y524740D01*
X1391910Y191550D02*
X1394910D01*
X1393410Y190050D02*
Y193050D01*
X1738400Y224790D02*
X1741400D01*
X1739900Y223290D02*
Y226290D01*
X1700300Y549910D02*
X1703300D01*
X1701800Y548410D02*
Y551410D01*
X926870Y192680D02*
X929870D01*
X928370Y191180D02*
Y194180D01*
X1395500Y438150D02*
X1398500D01*
X1397000Y436650D02*
Y439650D01*
X1330730Y523240D02*
X1333730D01*
X1332230Y521740D02*
Y524740D01*
X1576626Y378660D02*
X1579626D01*
X1578126Y377160D02*
Y380160D01*
X1577896Y480260D02*
X1580896D01*
X1579396Y478760D02*
Y481760D01*
X929410Y433070D02*
X932410D01*
X930910Y431570D02*
Y434570D01*
X1221510Y474980D02*
X1224510D01*
X1223010Y473480D02*
Y476480D01*
X1149906Y214830D02*
X1152906D01*
X1151406Y213330D02*
Y216330D01*
X1137206Y123390D02*
X1140206D01*
X1138706Y121890D02*
Y124890D01*
X1134666Y364690D02*
X1137666D01*
X1136166Y363190D02*
Y366190D01*
X1801900Y449580D02*
X1804900D01*
X1803400Y448080D02*
Y451080D01*
X1812060Y464820D02*
X1815060D01*
X1813560Y463320D02*
Y466320D01*
X1766340Y434340D02*
X1769340D01*
X1767840Y432840D02*
Y435840D01*
X672807Y571437D02*
X675807D01*
X674307Y569937D02*
Y572937D01*
X1766340Y406400D02*
X1769340D01*
X1767840Y404900D02*
Y407900D01*
X627150Y511810D02*
X630150D01*
X628650Y510310D02*
Y513310D01*
X412520Y378460D02*
X415520D01*
X414020Y376960D02*
Y379960D01*
X1763800Y368300D02*
X1766800D01*
X1765300Y366800D02*
Y369800D01*
X1048935Y541165D02*
X1051935D01*
X1050435Y539665D02*
Y542665D01*
X1015770Y340360D02*
X1018770D01*
X1017270Y338860D02*
Y341860D01*
X1048790Y289560D02*
X1051790D01*
X1050290Y288060D02*
Y291060D01*
X1011960Y92710D02*
X1014960D01*
X1013460Y91210D02*
Y94210D01*
X1523770Y83820D02*
X1526770D01*
X1525270Y82320D02*
Y85320D01*
X1481860Y287020D02*
X1484860D01*
X1483360Y285520D02*
Y288520D01*
X1146580Y335280D02*
X1149580D01*
X1148080Y333780D02*
Y336780D01*
X1150390Y420370D02*
X1153390D01*
X1151890Y418870D02*
Y421870D01*
X1154200Y181610D02*
X1157200D01*
X1155700Y180110D02*
Y183110D01*
X1147850Y99060D02*
X1150850D01*
X1149350Y97560D02*
Y100560D01*
X1629180Y190500D02*
X1632180D01*
X1630680Y189000D02*
Y192000D01*
X1625370Y290830D02*
X1628370D01*
X1626870Y289330D02*
Y292330D01*
X1326920Y473710D02*
X1329920D01*
X1328420Y472210D02*
Y475210D01*
X827810Y203200D02*
X830810D01*
X829310Y201700D02*
Y204700D01*
X727480Y254000D02*
X730480D01*
X728980Y252500D02*
Y255500D01*
X487450Y199390D02*
X490450D01*
X488950Y197890D02*
Y200890D01*
X503960Y69850D02*
X506960D01*
X505460Y68350D02*
Y71350D01*
X1766340Y420370D02*
X1769340D01*
X1767840Y418870D02*
Y421870D01*
X1789200Y468630D02*
X1792200D01*
X1790700Y467130D02*
Y470130D01*
X732560Y420370D02*
X735560D01*
X734060Y418870D02*
Y421870D01*
X873530Y426720D02*
X876530D01*
X875030Y425220D02*
Y428220D01*
X1279930Y439420D02*
X1282930D01*
X1281430Y437920D02*
Y440920D01*
X865910Y171450D02*
X868910D01*
X867410Y169950D02*
Y172950D01*
X730020Y284480D02*
X733020D01*
X731520Y282980D02*
Y285980D01*
X1343430Y205740D02*
X1346430D01*
X1344930Y204240D02*
Y207240D01*
X822730Y309880D02*
X825730D01*
X824230Y308380D02*
Y311380D01*
X1332000Y420370D02*
X1335000D01*
X1333500Y418870D02*
Y421870D01*
X736370Y264160D02*
X739370D01*
X737870Y262660D02*
Y265660D01*
X1288820Y217170D02*
X1291820D01*
X1290320Y215670D02*
Y218670D01*
X350290Y364490D02*
X353290D01*
X351790Y362990D02*
Y365990D01*
X1766340Y391160D02*
X1769340D01*
X1767840Y389660D02*
Y392660D01*
X665250Y510540D02*
X668250D01*
X666750Y509040D02*
Y512040D01*
X1097050Y345440D02*
X1100050D01*
X1098550Y343940D02*
Y346940D01*
X986560Y341630D02*
X989560D01*
X988060Y340130D02*
Y343130D01*
X1477119Y412690D02*
X1480119D01*
X1478619Y411190D02*
Y414189D01*
X1020850Y101600D02*
X1023850D01*
X1022350Y100100D02*
Y103100D01*
X1493290Y276860D02*
X1496290D01*
X1494790Y275360D02*
Y278360D01*
X1099590Y450850D02*
X1102590D01*
X1101090Y449350D02*
Y452350D01*
X1098320Y214630D02*
X1101320D01*
X1099820Y213130D02*
Y216130D01*
X1493290Y166370D02*
X1496290D01*
X1494790Y164870D02*
Y167870D01*
X183920Y530860D02*
X186920D01*
X185420Y529360D02*
Y532360D01*
X183920Y556260D02*
X186920D01*
X185420Y554760D02*
Y557760D01*
X182650Y375920D02*
X185650D01*
X184150Y374420D02*
Y377420D01*
X182650Y391160D02*
X185650D01*
X184150Y389660D02*
Y392660D01*
X183920Y502920D02*
X186920D01*
X185420Y501420D02*
Y504420D01*
X182650Y430530D02*
X185650D01*
X184150Y429030D02*
Y432030D01*
X428655Y537090D02*
X431655D01*
X430155Y535590D02*
Y538590D01*
X302796Y283796D02*
X304796D01*
X303796Y282796D02*
Y284796D01*
X302796Y272796D02*
X304796D01*
X303796Y271796D02*
Y273796D01*
X291796Y272796D02*
X293796D01*
X292796Y271796D02*
Y273796D01*
X291796Y283796D02*
X293796D01*
X292796Y282796D02*
Y284796D01*
X493800Y115570D02*
X496800D01*
X495300Y114070D02*
Y117070D01*
X470940Y115570D02*
X473940D01*
X472440Y114070D02*
Y117070D01*
X450620Y90170D02*
X453620D01*
X452120Y88670D02*
Y91670D01*
X426490Y82550D02*
X429490D01*
X427990Y81050D02*
Y84050D01*
X411250Y73660D02*
X414250D01*
X412750Y72160D02*
Y75160D01*
X366800Y78740D02*
X369800D01*
X368300Y77240D02*
Y80240D01*
X336320Y99060D02*
X339320D01*
X337820Y97560D02*
Y100560D01*
X317270Y97790D02*
X320270D01*
X318770Y96290D02*
Y99290D01*
X199160Y139700D02*
X202160D01*
X200660Y138200D02*
Y141200D01*
X181380Y138430D02*
X184380D01*
X182880Y136930D02*
Y139930D01*
X200430Y72390D02*
X203430D01*
X201930Y70890D02*
Y73890D01*
X180110Y72390D02*
X183110D01*
X181610Y70890D02*
Y73890D01*
X1742210Y133350D02*
X1745210D01*
X1743710Y131850D02*
Y134850D01*
X910360Y434340D02*
X913360D01*
X911860Y432840D02*
Y435840D01*
X1738400Y381000D02*
X1741400D01*
X1739900Y379500D02*
Y382500D01*
X1354860Y473710D02*
X1357860D01*
X1356360Y472210D02*
Y475210D01*
X1365020Y535940D02*
X1368020D01*
X1366520Y534440D02*
Y537440D01*
X1354860Y360680D02*
X1357860D01*
X1356360Y359180D02*
Y362180D01*
X1363750Y425450D02*
X1366750D01*
X1365250Y423950D02*
Y426950D01*
X1268500Y248920D02*
X1271500D01*
X1270000Y247420D02*
Y250420D01*
X896390Y90170D02*
X899390D01*
X897890Y88670D02*
Y91670D01*
X886230Y140970D02*
X889230D01*
X887730Y139470D02*
Y142470D01*
X895120Y201930D02*
X898120D01*
X896620Y200430D02*
Y203430D01*
X865910Y187960D02*
X868910D01*
X867410Y186460D02*
Y189460D01*
X816380Y194160D02*
X819380D01*
X817880Y192660D02*
Y195660D01*
X974497Y593723D02*
X977497D01*
X975997Y592223D02*
Y595223D01*
X935760Y594360D02*
X938760D01*
X937260Y592860D02*
Y595860D01*
X860830Y594360D02*
X863830D01*
X862330Y592860D02*
Y595860D01*
X810030Y623570D02*
X813030D01*
X811530Y622070D02*
Y625070D01*
X848130Y622300D02*
X851130D01*
X849630Y620800D02*
Y623800D01*
X886230Y622300D02*
X889230D01*
X887730Y620800D02*
Y623800D01*
X924330Y622300D02*
X927330D01*
X925830Y620800D02*
Y623800D01*
X962430Y622300D02*
X965430D01*
X963930Y620800D02*
Y623800D01*
X1000530Y623570D02*
X1003530D01*
X1002030Y622070D02*
Y625070D01*
X1038630Y623570D02*
X1041630D01*
X1040130Y622070D02*
Y625070D01*
X1076730Y622300D02*
X1079730D01*
X1078230Y620800D02*
Y623800D01*
X1356130Y120650D02*
X1359130D01*
X1357630Y119150D02*
Y122150D01*
X1349780Y187960D02*
X1352780D01*
X1351280Y186460D02*
Y189460D01*
X1367560Y179070D02*
X1370560D01*
X1369060Y177570D02*
Y180570D01*
X1370100Y292100D02*
X1373100D01*
X1371600Y290600D02*
Y293600D01*
X422680Y598170D02*
X425680D01*
X424180Y596670D02*
Y599670D01*
X1864130Y596900D02*
X1867130D01*
X1865630Y595400D02*
Y598400D01*
X1832380Y91440D02*
X1835380D01*
X1833880Y89940D02*
Y92940D01*
X521740Y629920D02*
X524740D01*
X523240Y628420D02*
Y631420D01*
X441730Y629920D02*
X444730D01*
X443230Y628420D02*
Y631420D01*
X583970Y115570D02*
X586970D01*
X585470Y114070D02*
Y117070D01*
X1884450Y669290D02*
X1887450D01*
X1885950Y667790D02*
Y670790D01*
X1846350Y669290D02*
X1849350D01*
X1847850Y667790D02*
Y670790D01*
X1814600Y622300D02*
X1817600D01*
X1816100Y620800D02*
Y623800D01*
X1796820Y626110D02*
X1799820D01*
X1798320Y624610D02*
Y627610D01*
X1779040Y623570D02*
X1782040D01*
X1780540Y622070D02*
Y625070D01*
X224560Y260350D02*
X227560D01*
X226060Y258850D02*
Y261850D01*
X154710Y203200D02*
X157710D01*
X156210Y201700D02*
Y204700D01*
X545870Y54610D02*
X548870D01*
X547370Y53110D02*
Y56110D01*
X520470Y34290D02*
X523470D01*
X521970Y32790D02*
Y35790D01*
X503960Y34290D02*
X506960D01*
X505460Y32790D02*
Y35790D01*
X556030Y198120D02*
X559030D01*
X557530Y196620D02*
Y199620D01*
X441730Y230490D02*
X444730D01*
X443230Y228990D02*
Y231990D01*
X501420Y287020D02*
X504420D01*
X502920Y285520D02*
Y288520D01*
X477360Y342751D02*
X480360D01*
X478861Y341251D02*
Y344251D01*
X477290Y392430D02*
X480290D01*
X478790Y390930D02*
Y393930D01*
X474750Y426720D02*
X477750D01*
X476250Y425220D02*
Y428220D01*
X520470Y434340D02*
X523470D01*
X521970Y432840D02*
Y435840D01*
X603020Y541020D02*
X606020D01*
X604520Y539520D02*
Y542520D01*
X233570Y342861D02*
X236570D01*
X235070Y341361D02*
Y344361D01*
X155980Y405130D02*
X158980D01*
X157480Y403630D02*
Y406630D01*
X155980Y480060D02*
X158980D01*
X157480Y478560D02*
Y481560D01*
X253770Y595630D02*
X256770D01*
X255270Y594130D02*
Y597130D01*
X222020Y604520D02*
X225020D01*
X223520Y603020D02*
Y606020D01*
X28980Y326390D02*
X31980D01*
X30480Y324890D02*
Y327890D01*
X54380Y604520D02*
X57380D01*
X55880Y603020D02*
Y606020D01*
X1900960Y529590D02*
X1903960D01*
X1902460Y528090D02*
Y531090D01*
X591590Y137160D02*
X594590D01*
X593090Y135660D02*
Y138660D01*
X157250Y285750D02*
X160250D01*
X158750Y284250D02*
Y287250D01*
X172490Y332740D02*
X175490D01*
X173990Y331240D02*
Y334240D01*
X173760Y345440D02*
X176760D01*
X175260Y343940D02*
Y346940D01*
X200430Y359410D02*
X203430D01*
X201930Y357910D02*
Y360910D01*
X199160Y408940D02*
X202160D01*
X200660Y407440D02*
Y410440D01*
X197890Y568960D02*
X200890D01*
X199390Y567460D02*
Y570460D01*
X199160Y514350D02*
X202160D01*
X200660Y512850D02*
Y515850D01*
X206780Y480060D02*
X209780D01*
X208280Y478560D02*
Y481560D01*
X190270Y455930D02*
X193270D01*
X191770Y454430D02*
Y457430D01*
X154710Y455930D02*
X157710D01*
X156210Y454430D02*
Y457430D01*
X64540Y327660D02*
X67540D01*
X66040Y326160D02*
Y329160D01*
X17550Y350520D02*
X20550D01*
X19050Y349020D02*
Y352020D01*
X425220Y237490D02*
X428220D01*
X426720Y235990D02*
Y238990D01*
X417600Y288290D02*
X420600D01*
X419100Y286790D02*
Y289790D01*
X477290Y314960D02*
X480290D01*
X478790Y313460D02*
Y316460D01*
X477290Y364490D02*
X480290D01*
X478790Y362990D02*
Y365990D01*
X754150Y397510D02*
X757150D01*
X755650Y396010D02*
Y399010D01*
X784630Y594360D02*
X787630D01*
X786130Y592860D02*
Y595860D01*
X822730Y594360D02*
X825730D01*
X824230Y592860D02*
Y595860D01*
X898930Y594360D02*
X901930D01*
X900430Y592860D02*
Y595860D01*
X1013230Y594360D02*
X1016230D01*
X1014730Y592860D02*
Y595860D01*
X1051330Y594360D02*
X1054330D01*
X1052830Y592860D02*
Y595860D01*
X1815870Y588960D02*
X1818870D01*
X1817370Y587460D02*
Y590460D01*
X1792790Y564320D02*
X1794790D01*
X1793790Y563320D02*
Y565320D01*
X1803790Y564320D02*
X1805790D01*
X1804790Y563320D02*
Y565320D01*
X1814790Y564320D02*
X1816790D01*
X1815790Y563320D02*
Y565320D01*
X1825790Y564320D02*
X1827790D01*
X1826790Y563320D02*
Y565320D01*
X1792790Y553320D02*
X1794790D01*
X1793790Y552320D02*
Y554320D01*
X1803790Y553320D02*
X1805790D01*
X1804790Y552320D02*
Y554320D01*
X1814790Y553320D02*
X1816790D01*
X1815790Y552320D02*
Y554320D01*
X1825790Y553320D02*
X1827790D01*
X1826790Y552320D02*
Y554320D01*
X1792790Y542320D02*
X1794790D01*
X1793790Y541320D02*
Y543320D01*
X1803790Y542320D02*
X1805790D01*
X1804790Y541320D02*
Y543320D01*
X1814790Y542320D02*
X1816790D01*
X1815790Y541320D02*
Y543320D01*
X1825790Y542320D02*
X1827790D01*
X1826790Y541320D02*
Y543320D01*
X1792790Y531320D02*
X1794790D01*
X1793790Y530320D02*
Y532320D01*
X1803790Y531320D02*
X1805790D01*
X1804790Y530320D02*
Y532320D01*
X1814790Y531320D02*
X1816790D01*
X1815790Y530320D02*
Y532320D01*
X1825790Y531320D02*
X1827790D01*
X1826790Y530320D02*
Y532320D01*
X355870Y411480D02*
X357870D01*
X356870Y410480D02*
Y412480D01*
X301017Y495373D02*
X303017D01*
X302017Y494373D02*
Y496373D01*
X305250Y462938D02*
X307250D01*
X306250Y461938D02*
Y463938D01*
M02*
