G04*
G04 #@! TF.GenerationSoftware,Altium Limited,Altium Designer,23.7.1 (13)*
G04*
G04 Layer_Color=16711935*
%FSLAX44Y44*%
%MOMM*%
G71*
G04*
G04 #@! TF.SameCoordinates,9AC6D79B-6B5E-4FBD-9D38-37E555C90168*
G04*
G04*
G04 #@! TF.FilePolarity,Positive*
G04*
G01*
G75*
%ADD10C,0.2000*%
%ADD13C,0.1000*%
%ADD203C,0.0500*%
D10*
X1171030Y625230D02*
Y642230D01*
X1199030D01*
Y625230D02*
Y642230D01*
X1171030Y625230D02*
X1199030D01*
X742050Y376180D02*
Y395980D01*
X705750Y376180D02*
X742050D01*
X705750D02*
Y395980D01*
X742050D01*
X1285210Y551570D02*
X1313210D01*
Y568570D01*
X1285210D02*
X1313210D01*
X1285210Y551570D02*
Y568570D01*
X420720Y84520D02*
Y108520D01*
Y84520D02*
X432720D01*
Y108520D01*
X420720D02*
X432720D01*
X386780Y67660D02*
X410780D01*
Y79660D01*
X386780D02*
X410780D01*
X386780Y67660D02*
Y79660D01*
X413670Y83250D02*
Y107250D01*
X401670D02*
X413670D01*
X401670Y83250D02*
Y107250D01*
Y83250D02*
X413670D01*
X386010Y168760D02*
X409010D01*
Y181760D01*
X386010D02*
X409010D01*
X386010Y168760D02*
Y181760D01*
X303510Y102910D02*
Y171410D01*
Y102910D02*
X351810D01*
Y171410D01*
X303510D02*
X351810D01*
X462659Y118859D02*
Y152921D01*
Y118859D02*
X482221D01*
Y152921D01*
X462659D02*
X482221D01*
X484249Y118859D02*
Y152921D01*
Y118859D02*
X503811D01*
Y152921D01*
X484249D02*
X503811D01*
X351530Y304580D02*
Y340580D01*
X382530D01*
Y304580D02*
Y340580D01*
X351530Y304580D02*
X382530D01*
X304430Y399790D02*
X340730D01*
X304430Y379990D02*
Y399790D01*
Y379990D02*
X340730D01*
Y399790D01*
X173360Y75920D02*
Y104420D01*
Y75920D02*
X189860D01*
Y104420D01*
X173360D02*
X189860D01*
Y107670D02*
Y136170D01*
X173360D02*
X189860D01*
X173360Y107670D02*
Y136170D01*
Y107670D02*
X189860D01*
X208910D02*
Y136170D01*
X192410D02*
X208910D01*
X192410Y107670D02*
Y136170D01*
Y107670D02*
X208910D01*
X192410Y75920D02*
Y104420D01*
Y75920D02*
X208910D01*
Y104420D01*
X192410D02*
X208910D01*
X1325810Y181340D02*
Y194340D01*
X1348810D01*
Y181340D02*
Y194340D01*
X1325810Y181340D02*
X1348810D01*
X1360549Y202679D02*
X1380111D01*
X1360549D02*
Y236741D01*
X1380111D01*
Y202679D02*
Y236741D01*
X1359279Y94729D02*
X1378841D01*
X1359279D02*
Y128791D01*
X1378841D01*
Y94729D02*
Y128791D01*
X547440Y427840D02*
Y440840D01*
X524440Y427840D02*
X547440D01*
X524440D02*
Y440840D01*
X547440D01*
X562680Y244960D02*
Y257960D01*
X539680Y244960D02*
X562680D01*
X539680D02*
Y257960D01*
X562680D01*
X617070Y248850D02*
X630070D01*
X617070D02*
Y271850D01*
X630070D01*
Y248850D02*
Y271850D01*
X660470Y314810D02*
Y327810D01*
X637470Y314810D02*
X660470D01*
X637470D02*
Y327810D01*
X660470D01*
X402850Y537580D02*
X422650D01*
Y501280D02*
Y537580D01*
X402850Y501280D02*
X422650D01*
X402850D02*
Y537580D01*
X882910Y152030D02*
X902710D01*
X882910D02*
Y188330D01*
X902710D01*
Y152030D02*
Y188330D01*
X1342760Y353320D02*
Y373120D01*
X1306460Y353320D02*
X1342760D01*
X1306460D02*
Y373120D01*
X1342760D01*
X752210Y473970D02*
Y493770D01*
X715910Y473970D02*
X752210D01*
X715910D02*
Y493770D01*
X752210D01*
X1809600Y595560D02*
X1822600D01*
X1809600D02*
Y618560D01*
X1822600D01*
Y595560D02*
Y618560D01*
X471100Y427570D02*
Y438570D01*
X494100D01*
Y427570D02*
Y438570D01*
X471100Y427570D02*
X494100D01*
X128530Y262520D02*
X148330D01*
X128530D02*
Y298820D01*
X148330D01*
Y262520D02*
Y298820D01*
X169610Y273970D02*
X193610D01*
X169610Y261970D02*
Y273970D01*
Y261970D02*
X193610D01*
Y273970D01*
X1291520Y468780D02*
X1314520D01*
X1291520Y455780D02*
Y468780D01*
Y455780D02*
X1314520D01*
Y468780D01*
X762150Y402520D02*
Y425520D01*
X749150D02*
X762150D01*
X749150Y402520D02*
Y425520D01*
Y402520D02*
X762150D01*
X236480Y281040D02*
X256280D01*
Y244740D02*
Y281040D01*
X236480Y244740D02*
X256280D01*
X236480D02*
Y281040D01*
X589650Y501910D02*
Y521710D01*
X553350Y501910D02*
X589650D01*
X553350D02*
Y521710D01*
X589650D01*
X480320Y541390D02*
X500120D01*
Y505090D02*
Y541390D01*
X480320Y505090D02*
X500120D01*
X480320D02*
Y541390D01*
X629399Y295019D02*
X663461D01*
Y314581D01*
X629399D02*
X663461D01*
X629399Y295019D02*
Y314581D01*
X634930Y251310D02*
X657930D01*
Y264310D01*
X634930D02*
X657930D01*
X634930Y251310D02*
Y264310D01*
X633060Y268400D02*
Y290400D01*
Y268400D02*
X644560D01*
Y290400D01*
X633060D02*
X644560D01*
X472290Y366960D02*
X485290D01*
X472290D02*
Y389960D01*
X485290D01*
Y366960D02*
Y389960D01*
X472290Y317430D02*
X485290D01*
X472290D02*
Y340430D01*
X485290D01*
Y317430D02*
Y340430D01*
X1626720Y565080D02*
X1639720D01*
X1626720D02*
Y588080D01*
X1639720D01*
Y565080D02*
Y588080D01*
X578970Y142310D02*
X591970D01*
Y119310D02*
Y142310D01*
X578970Y119310D02*
X591970D01*
X578970D02*
Y142310D01*
X668700Y91680D02*
Y121680D01*
X626700Y91680D02*
X668700D01*
X626700D02*
Y121680D01*
X668700D01*
X1358009Y336029D02*
X1377571D01*
X1358009D02*
Y370091D01*
X1377571D01*
Y336029D02*
Y370091D01*
X1358009Y450329D02*
X1377571D01*
X1358009D02*
Y484391D01*
X1377571D01*
Y450329D02*
Y484391D01*
X198270Y458400D02*
Y481400D01*
X185270D02*
X198270D01*
X185270Y458400D02*
Y481400D01*
Y458400D02*
X198270D01*
D13*
X531560Y645160D02*
X540560D01*
X536060Y640660D02*
Y649660D01*
X504190Y88060D02*
Y97560D01*
X499440Y92810D02*
X508940D01*
X1712290Y598170D02*
X1721790D01*
X1717040Y593420D02*
Y602920D01*
X1533390Y290970D02*
X1608590D01*
X1533390Y244970D02*
Y290970D01*
Y244970D02*
X1608590D01*
Y290970D01*
X1654810Y605870D02*
Y615870D01*
X1649810Y610870D02*
X1659810D01*
X542660Y75510D02*
Y84510D01*
X538160Y80010D02*
X547160D01*
X1654810Y622880D02*
Y631880D01*
X1650310Y627380D02*
X1659310D01*
X1944450Y274320D02*
X1954450D01*
X1949450Y269320D02*
Y279320D01*
X1943180Y603250D02*
X1953180D01*
X1948180Y598250D02*
Y608250D01*
X1451110Y81140D02*
Y127140D01*
X1375910Y81140D02*
X1451110D01*
X1375910D02*
Y127140D01*
X1451110D01*
X1534660Y546240D02*
X1609860D01*
X1534660Y500240D02*
Y546240D01*
Y500240D02*
X1609860D01*
Y546240D01*
X1576150Y633730D02*
X1586150D01*
X1581150Y628730D02*
Y638730D01*
X1628140Y535000D02*
Y544500D01*
X1623390Y539750D02*
X1632890D01*
X1656080Y552240D02*
Y557740D01*
X1653330Y554990D02*
X1658830D01*
X1629910Y543700D02*
X1705110D01*
X1629910Y497700D02*
Y543700D01*
Y497700D02*
X1705110D01*
Y543700D01*
X1686560Y606370D02*
Y615370D01*
X1682060Y610870D02*
X1691060D01*
X1689430Y633880D02*
X1698930D01*
X1694180Y629130D02*
Y638630D01*
X1657350Y652570D02*
Y658070D01*
X1654600Y655320D02*
X1660100D01*
X1618100Y674950D02*
Y683950D01*
X1613600Y679450D02*
X1622600D01*
X1689430Y662570D02*
X1698930D01*
X1694180Y657820D02*
Y667320D01*
X447370Y107950D02*
X456870D01*
X452120Y103200D02*
Y112700D01*
X447370Y137160D02*
X456870D01*
X452120Y132410D02*
Y141910D01*
X363550Y95250D02*
X373050D01*
X368300Y90500D02*
Y100000D01*
X387680Y95250D02*
X397180D01*
X392430Y90500D02*
Y100000D01*
X392510Y139700D02*
X402510D01*
X397510Y134700D02*
Y144700D01*
X554780Y158750D02*
X560280D01*
X557530Y156000D02*
Y161500D01*
X334590Y319670D02*
X343590D01*
X339090Y315170D02*
Y324170D01*
X521970Y44410D02*
Y53910D01*
X517220Y49160D02*
X526720D01*
X490010Y60960D02*
X495510D01*
X492760Y58210D02*
Y63710D01*
X521970Y72720D02*
Y82220D01*
X517220Y77470D02*
X526720D01*
X525210Y99060D02*
X534210D01*
X529710Y94560D02*
Y103560D01*
X213690Y99060D02*
X223190D01*
X218440Y94310D02*
Y103810D01*
X1608370Y394830D02*
Y440830D01*
X1533170Y394830D02*
X1608370D01*
X1533170D02*
Y440830D01*
X1608370D01*
X1705710Y393560D02*
Y439560D01*
X1630510Y393560D02*
X1705710D01*
X1630510D02*
Y439560D01*
X1705710D01*
X1710190Y139560D02*
Y185560D01*
X1634990Y139560D02*
X1710190D01*
X1634990D02*
Y185560D01*
X1710190D01*
X1609190Y139560D02*
Y185560D01*
X1533990Y139560D02*
X1609190D01*
X1533990D02*
Y185560D01*
X1609190D01*
X1710190Y244970D02*
Y290970D01*
X1634990Y244970D02*
X1710190D01*
X1634990D02*
Y290970D01*
X1710190D01*
X1738710Y173990D02*
X1748710D01*
X1743710Y168990D02*
Y178990D01*
X1620850Y68580D02*
X1630350D01*
X1625600Y63830D02*
Y73330D01*
X1519250Y71120D02*
X1528750D01*
X1524000Y66370D02*
Y75870D01*
X1628470Y298450D02*
X1637970D01*
X1633220Y293700D02*
Y303200D01*
X1521460Y193370D02*
Y202870D01*
X1516710Y198120D02*
X1526210D01*
X1456000Y262890D02*
X1465000D01*
X1460500Y258390D02*
Y267390D01*
X1456000Y288290D02*
X1465000D01*
X1460500Y283790D02*
Y292790D01*
X1348740Y213570D02*
Y223070D01*
X1343990Y218320D02*
X1353490D01*
X1454730Y179070D02*
X1463730D01*
X1459230Y174570D02*
Y183570D01*
X1375910Y235090D02*
X1451110D01*
X1375910Y189090D02*
Y235090D01*
Y189090D02*
X1451110D01*
Y235090D01*
X1454785Y153861D02*
X1463785D01*
X1459285Y149361D02*
Y158361D01*
X1428750Y230150D02*
Y239750D01*
X1423950Y234950D02*
X1433550D01*
X1428750Y120930D02*
Y130530D01*
X1423950Y125730D02*
X1433550D01*
X1303020Y207220D02*
Y216720D01*
X1298270Y211970D02*
X1307770D01*
X1298270Y189230D02*
X1307770D01*
X1303020Y184480D02*
Y193980D01*
X367030Y287600D02*
Y296600D01*
X362530Y292100D02*
X371530D01*
X537210Y266010D02*
Y275010D01*
X532710Y270510D02*
X541710D01*
X1073430Y608330D02*
X1083030D01*
X1078230Y603530D02*
Y613130D01*
X516680Y276860D02*
X522180D01*
X519430Y274110D02*
Y279610D01*
X508580Y260350D02*
X517580D01*
X513080Y255850D02*
Y264850D01*
X528110Y287020D02*
X533610D01*
X530860Y284270D02*
Y289770D01*
X792270Y378130D02*
X797770D01*
X795020Y375380D02*
Y380880D01*
X806240Y378460D02*
X811740D01*
X808990Y375710D02*
Y381210D01*
X820210Y378460D02*
X825710D01*
X822960Y375710D02*
Y381210D01*
X891540Y375380D02*
Y380880D01*
X888790Y378130D02*
X894290D01*
X878840Y374770D02*
Y380270D01*
X876090Y377520D02*
X881590D01*
X864870Y374770D02*
Y380270D01*
X862120Y377520D02*
X867620D01*
X850900Y375380D02*
Y380880D01*
X848150Y378130D02*
X853650D01*
X835660Y375380D02*
Y380880D01*
X832910Y378130D02*
X838410D01*
X484200Y287020D02*
X493700D01*
X488950Y282270D02*
Y291770D01*
X185420Y186870D02*
Y196370D01*
X180670Y191620D02*
X190170D01*
X153670Y174320D02*
Y183820D01*
X148920Y179070D02*
X158420D01*
X154000Y271630D02*
X163500D01*
X158750Y266880D02*
Y276380D01*
X227330Y240310D02*
Y249910D01*
X222530Y245110D02*
X232130D01*
X1060780Y608330D02*
X1070280D01*
X1065530Y603580D02*
Y613080D01*
X1048080Y608330D02*
X1057580D01*
X1052830Y603580D02*
Y613080D01*
X1040130Y603530D02*
Y613130D01*
X1035330Y608330D02*
X1044930D01*
X1022680D02*
X1032180D01*
X1027430Y603580D02*
Y613080D01*
X1009980Y608330D02*
X1019480D01*
X1014730Y603580D02*
Y613080D01*
X1002030Y603530D02*
Y613130D01*
X997230Y608330D02*
X1006830D01*
X984580D02*
X994080D01*
X989330Y603580D02*
Y613080D01*
X971880Y608330D02*
X981380D01*
X976630Y603580D02*
Y613080D01*
X963930Y603530D02*
Y613130D01*
X959130Y608330D02*
X968730D01*
X951230Y603580D02*
Y613080D01*
X946480Y608330D02*
X955980D01*
X933780D02*
X943280D01*
X938530Y603580D02*
Y613080D01*
X925830Y603530D02*
Y613130D01*
X921030Y608330D02*
X930630D01*
X908380D02*
X917880D01*
X913130Y603580D02*
Y613080D01*
X895680Y608330D02*
X905180D01*
X900430Y603580D02*
Y613080D01*
X887730Y603530D02*
Y613130D01*
X882930Y608330D02*
X892530D01*
X870280D02*
X879780D01*
X875030Y603580D02*
Y613080D01*
X857580Y608330D02*
X867080D01*
X862330Y603580D02*
Y613080D01*
X849630Y603530D02*
Y613130D01*
X844830Y608330D02*
X854430D01*
X832180D02*
X841680D01*
X836930Y603580D02*
Y613080D01*
X819480Y608330D02*
X828980D01*
X824230Y603580D02*
Y613080D01*
X811530Y603530D02*
Y613130D01*
X806730Y608330D02*
X816330D01*
X794080D02*
X803580D01*
X798830Y603580D02*
Y613080D01*
X781380Y608330D02*
X790880D01*
X786130Y603580D02*
Y613080D01*
X438150Y525090D02*
Y534090D01*
X433650Y529590D02*
X442650D01*
X208580Y351670D02*
Y387670D01*
X182580D02*
X208580D01*
X182580Y351670D02*
Y387670D01*
Y351670D02*
X208580D01*
X182580Y378700D02*
Y414700D01*
Y378700D02*
X208580D01*
Y414700D01*
X182580D02*
X208580D01*
Y405720D02*
Y441720D01*
X182580D02*
X208580D01*
X182580Y405720D02*
Y441720D01*
Y405720D02*
X208580D01*
Y476280D02*
Y512280D01*
X182580D02*
X208580D01*
X182580Y476280D02*
Y512280D01*
Y476280D02*
X208580D01*
Y506760D02*
Y542760D01*
X182580D02*
X208580D01*
X182580Y506760D02*
Y542760D01*
Y506760D02*
X208580D01*
Y531450D02*
Y567450D01*
X182580D02*
X208580D01*
X182580Y531450D02*
Y567450D01*
Y531450D02*
X208580D01*
X209880Y568960D02*
X219380D01*
X214630Y564210D02*
Y573710D01*
X211150Y361950D02*
X220650D01*
X215900Y357200D02*
Y366700D01*
X211150Y403860D02*
X220650D01*
X215900Y399110D02*
Y408610D01*
X211150Y516890D02*
X220650D01*
X215900Y512140D02*
Y521640D01*
X209880Y487680D02*
X219380D01*
X214630Y482930D02*
Y492430D01*
X213360Y526110D02*
Y535610D01*
X208610Y530860D02*
X218110D01*
X212090Y495630D02*
Y505130D01*
X207340Y500380D02*
X216840D01*
X213360Y424510D02*
Y434010D01*
X208610Y429260D02*
X218110D01*
X212090Y385140D02*
Y394640D01*
X207340Y389890D02*
X216840D01*
X213360Y371170D02*
Y380670D01*
X208610Y375920D02*
X218110D01*
X214630Y550240D02*
Y559740D01*
X209880Y554990D02*
X219380D01*
X1671600Y661670D02*
X1681200D01*
X1676400Y656870D02*
Y666470D01*
X1433230Y608800D02*
X1523330D01*
Y661200D01*
X1433230D02*
X1523330D01*
X1433230Y608800D02*
Y661200D01*
X505460Y44730D02*
Y54330D01*
X500660Y49530D02*
X510260D01*
X559030Y99060D02*
X569030D01*
X564030Y94060D02*
Y104060D01*
X613410Y49610D02*
Y59610D01*
X608410Y54610D02*
X618410D01*
X547370Y34750D02*
Y43750D01*
X542870Y39250D02*
X551870D01*
X510185Y527759D02*
X519185D01*
X514685Y523259D02*
Y532259D01*
X535585Y529029D02*
X544585D01*
X540085Y524529D02*
Y533529D01*
X561755Y535379D02*
X571755D01*
X566755Y530379D02*
Y540379D01*
X1291590Y428320D02*
Y437820D01*
X1286840Y433070D02*
X1296340D01*
X1518920Y343230D02*
Y352730D01*
X1514170Y347980D02*
X1523670D01*
X1379720Y367170D02*
X1454920D01*
X1379720Y321170D02*
Y367170D01*
Y321170D02*
X1454920D01*
Y367170D01*
X1426060Y367310D02*
Y376910D01*
X1421260Y372110D02*
X1430860D01*
X1452190Y400050D02*
X1461190D01*
X1456690Y395550D02*
Y404550D01*
X1452190Y425450D02*
X1461190D01*
X1456690Y420950D02*
Y429950D01*
X1624510Y320040D02*
X1634010D01*
X1629260Y315290D02*
Y324790D01*
X1337310Y433400D02*
Y442900D01*
X1332560Y438150D02*
X1342060D01*
X1328900Y461010D02*
X1338400D01*
X1333650Y456260D02*
Y465760D01*
X1518920Y447370D02*
Y456870D01*
X1514170Y452120D02*
X1523670D01*
X1453460Y535940D02*
X1462460D01*
X1457960Y531440D02*
Y540440D01*
X1453460Y510540D02*
X1462460D01*
X1457960Y506040D02*
Y515040D01*
X1379720Y482740D02*
X1454920D01*
X1379720Y436740D02*
Y482740D01*
Y436740D02*
X1454920D01*
Y482740D01*
X1427480Y477800D02*
Y487400D01*
X1422680Y482600D02*
X1432280D01*
X1734900Y421640D02*
X1744900D01*
X1739900Y416640D02*
Y426640D01*
X189230Y327990D02*
Y337490D01*
X184480Y332740D02*
X193980D01*
X189230Y340690D02*
Y350190D01*
X184480Y345440D02*
X193980D01*
X80010Y322910D02*
Y332410D01*
X75260Y327660D02*
X84760D01*
X14300Y364490D02*
X23800D01*
X19050Y359740D02*
Y369240D01*
D203*
X519560Y635160D02*
Y655160D01*
X552560Y635160D02*
Y655160D01*
X519560Y635160D02*
X552560D01*
X519560Y655160D02*
X552560D01*
X496690Y79810D02*
X511690D01*
X496690Y105810D02*
X511690D01*
Y79810D02*
Y105810D01*
X496690Y79810D02*
Y105810D01*
X1730040Y590670D02*
Y605670D01*
X1704040Y590670D02*
Y605670D01*
X1730040D01*
X1704040Y590670D02*
X1730040D01*
X1637810Y621370D02*
X1671810D01*
X1637810Y600370D02*
X1671810D01*
Y621370D01*
X1637810Y600370D02*
Y621370D01*
X525660Y90510D02*
X559660D01*
X525660Y69510D02*
X559660D01*
Y90510D01*
X525660Y69510D02*
Y90510D01*
X1637810Y616880D02*
X1671810D01*
X1637810Y637880D02*
X1671810D01*
X1637810Y616880D02*
Y637880D01*
X1671810Y616880D02*
Y637880D01*
X1912800Y237670D02*
X2066700D01*
X1912800D02*
Y310970D01*
X2066700Y237670D02*
Y310970D01*
X1912800D02*
X2066700D01*
X1911530Y566600D02*
X2065430D01*
X1911530D02*
Y639900D01*
X2065430Y566600D02*
Y639900D01*
X1911530D02*
X2065430D01*
X1630090Y74490D02*
Y146490D01*
X1715090D01*
Y74490D02*
Y146490D01*
X1630090Y74490D02*
X1715090D01*
X1636650Y599480D02*
Y667980D01*
X1525650Y599480D02*
Y667980D01*
X1636650D01*
X1525650Y599480D02*
X1636650D01*
X1616640Y533750D02*
X1639640D01*
X1616640Y545750D02*
X1639640D01*
X1616640Y533750D02*
Y545750D01*
X1639640Y533750D02*
Y545750D01*
X1645580Y560490D02*
X1666580D01*
X1645580Y549490D02*
X1666580D01*
Y560490D01*
X1645580Y549490D02*
Y560490D01*
X1670060Y620870D02*
X1703060D01*
X1670060Y600870D02*
X1703060D01*
Y620870D01*
X1670060Y600870D02*
Y620870D01*
X1700180Y622380D02*
Y645380D01*
X1688180Y622380D02*
Y645380D01*
Y622380D02*
X1700180D01*
X1688180Y645380D02*
X1700180D01*
X1646850Y660820D02*
X1667850D01*
X1646850Y649820D02*
X1667850D01*
Y660820D01*
X1646850Y649820D02*
Y660820D01*
X1601600Y689450D02*
X1634600D01*
X1601600Y669450D02*
X1634600D01*
Y689450D01*
X1601600Y669450D02*
Y689450D01*
X1704680Y645570D02*
Y679570D01*
X1683680Y645570D02*
Y679570D01*
Y645570D02*
X1704680D01*
X1683680Y679570D02*
X1704680D01*
X441620Y90950D02*
Y124950D01*
X462620Y90950D02*
Y124950D01*
X441620D02*
X462620D01*
X441620Y90950D02*
X462620D01*
X441620Y120160D02*
Y154160D01*
X462620Y120160D02*
Y154160D01*
X441620D02*
X462620D01*
X441620Y120160D02*
X462620D01*
X357800Y78250D02*
Y112250D01*
X378800Y78250D02*
Y112250D01*
X357800D02*
X378800D01*
X357800Y78250D02*
X378800D01*
X384930Y81750D02*
Y108750D01*
X399930Y81750D02*
Y108750D01*
X384930D02*
X399930D01*
X384930Y81750D02*
X399930D01*
X439010Y109700D02*
Y169700D01*
X356010Y109700D02*
Y169700D01*
X439010D01*
X356010Y109700D02*
X439010D01*
X563030Y148250D02*
Y169250D01*
X552030Y148250D02*
Y169250D01*
Y148250D02*
X563030D01*
X552030Y169250D02*
X563030D01*
X349590Y302670D02*
Y336670D01*
X328590Y302670D02*
Y336670D01*
Y302670D02*
X349590D01*
X328590Y336670D02*
X349590D01*
X511470Y32160D02*
X532470D01*
X511470Y66160D02*
X532470D01*
Y32160D02*
Y66160D01*
X511470Y32160D02*
Y66160D01*
X498260Y50460D02*
Y71460D01*
X487260Y50460D02*
Y71460D01*
Y50460D02*
X498260D01*
X487260Y71460D02*
X498260D01*
X515970Y65970D02*
X527970D01*
X515970Y88970D02*
X527970D01*
Y65970D02*
Y88970D01*
X515970Y65970D02*
Y88970D01*
X546210Y89060D02*
Y109060D01*
X513210Y89060D02*
Y109060D01*
X546210D01*
X513210Y89060D02*
X546210D01*
X212440Y88060D02*
Y110060D01*
X224440Y88060D02*
Y110060D01*
X212440D02*
X224440D01*
X212440Y88060D02*
X224440D01*
X1529760Y74490D02*
X1614760D01*
Y146490D01*
X1529760D02*
X1614760D01*
X1529760Y74490D02*
Y146490D01*
X1630090Y177360D02*
X1715090D01*
Y249360D01*
X1630090D02*
X1715090D01*
X1630090Y177360D02*
Y249360D01*
X1531030Y178630D02*
X1616030D01*
Y250630D01*
X1531030D02*
X1616030D01*
X1531030Y178630D02*
Y250630D01*
X1716210Y137490D02*
X1771210D01*
X1716210D02*
Y210490D01*
X1771210Y137490D02*
Y210490D01*
X1716210D02*
X1771210D01*
X1614100Y62580D02*
Y74580D01*
X1637100Y62580D02*
Y74580D01*
X1614100Y62580D02*
X1637100D01*
X1614100Y74580D02*
X1637100D01*
X1512500Y65120D02*
Y77120D01*
X1535500Y65120D02*
Y77120D01*
X1512500Y65120D02*
X1535500D01*
X1512500Y77120D02*
X1535500D01*
X1644720Y292450D02*
Y304450D01*
X1621720Y292450D02*
Y304450D01*
X1644720D01*
X1621720Y292450D02*
X1644720D01*
X1515460Y209620D02*
X1527460D01*
X1515460Y186620D02*
X1527460D01*
X1515460D02*
Y209620D01*
X1527460Y186620D02*
Y209620D01*
X1447500Y255890D02*
Y269890D01*
X1473500Y255890D02*
Y269890D01*
X1447500Y255890D02*
X1473500D01*
X1447500Y269890D02*
X1473500D01*
X1447500Y281290D02*
Y295290D01*
X1473500Y281290D02*
Y295290D01*
X1447500Y281290D02*
X1473500D01*
X1447500Y295290D02*
X1473500D01*
X1372450Y241740D02*
X1446950D01*
Y296740D01*
X1372450D02*
X1446950D01*
X1372450Y241740D02*
Y296740D01*
X1342740Y206820D02*
X1354740D01*
X1342740Y229820D02*
X1354740D01*
Y206820D02*
Y229820D01*
X1342740Y206820D02*
Y229820D01*
X1446230Y172070D02*
Y186070D01*
X1472230Y172070D02*
Y186070D01*
X1446230Y172070D02*
X1472230D01*
X1446230Y186070D02*
X1472230D01*
X1446285Y146861D02*
Y160861D01*
X1472285Y146861D02*
Y160861D01*
X1446285Y146861D02*
X1472285D01*
X1446285Y160861D02*
X1472285D01*
X1417250Y240950D02*
X1440250D01*
X1417250Y228950D02*
X1440250D01*
Y240950D01*
X1417250Y228950D02*
Y240950D01*
X1371180Y132520D02*
X1445680D01*
Y187520D01*
X1371180D02*
X1445680D01*
X1371180Y132520D02*
Y187520D01*
X1417250Y131730D02*
X1440250D01*
X1417250Y119730D02*
X1440250D01*
Y131730D01*
X1417250Y119730D02*
Y131730D01*
X1297020Y223470D02*
X1309020D01*
X1297020Y200470D02*
X1309020D01*
X1297020D02*
Y223470D01*
X1309020Y200470D02*
Y223470D01*
X1291520Y183230D02*
Y195230D01*
X1314520Y183230D02*
Y195230D01*
X1291520Y183230D02*
X1314520D01*
X1291520Y195230D02*
X1314520D01*
X1305710Y197340D02*
Y226840D01*
Y197340D02*
X1338210D01*
Y226840D01*
X1305710D02*
X1338210D01*
X350030Y302600D02*
X384030D01*
X350030Y281600D02*
X384030D01*
Y302600D01*
X350030Y281600D02*
Y302600D01*
X526710Y276010D02*
X547710D01*
X526710Y265010D02*
X547710D01*
Y276010D01*
X526710Y265010D02*
Y276010D01*
X1084230Y596830D02*
Y619830D01*
X1072230Y596830D02*
Y619830D01*
Y596830D02*
X1084230D01*
X1072230Y619830D02*
X1084230D01*
X764350Y395160D02*
Y514160D01*
Y395160D02*
X899350D01*
Y514160D01*
X764350D02*
X899350D01*
X513930Y266360D02*
Y287360D01*
X524930Y266360D02*
Y287360D01*
X513930D02*
X524930D01*
X513930Y266360D02*
X524930D01*
X523580Y254850D02*
Y265850D01*
X502580Y254850D02*
Y265850D01*
X523580D01*
X502580Y254850D02*
X523580D01*
X525360Y276520D02*
Y297520D01*
X536360Y276520D02*
Y297520D01*
X525360D02*
X536360D01*
X525360Y276520D02*
X536360D01*
X800520Y367630D02*
Y388630D01*
X789520Y367630D02*
Y388630D01*
Y367630D02*
X800520D01*
X789520Y388630D02*
X800520D01*
X814490Y367960D02*
Y388960D01*
X803490Y367960D02*
Y388960D01*
Y367960D02*
X814490D01*
X803490Y388960D02*
X814490D01*
X828460Y367960D02*
Y388960D01*
X817460Y367960D02*
Y388960D01*
Y367960D02*
X828460D01*
X817460Y388960D02*
X828460D01*
X886040Y388630D02*
X897040D01*
X886040Y367630D02*
X897040D01*
X886040D02*
Y388630D01*
X897040Y367630D02*
Y388630D01*
X873340Y388020D02*
X884340D01*
X873340Y367020D02*
X884340D01*
X873340D02*
Y388020D01*
X884340Y367020D02*
Y388020D01*
X859370D02*
X870370D01*
X859370Y367020D02*
X870370D01*
X859370D02*
Y388020D01*
X870370Y367020D02*
Y388020D01*
X845400Y388630D02*
X856400D01*
X845400Y367630D02*
X856400D01*
X845400D02*
Y388630D01*
X856400Y367630D02*
Y388630D01*
X830160D02*
X841160D01*
X830160Y367630D02*
X841160D01*
X830160D02*
Y388630D01*
X841160Y367630D02*
Y388630D01*
X500450Y281020D02*
Y293020D01*
X477450Y281020D02*
Y293020D01*
X500450D01*
X477450Y281020D02*
X500450D01*
X146158Y204300D02*
Y258300D01*
X219258Y204300D02*
Y258300D01*
X146158Y204300D02*
X219258D01*
X146158Y258300D02*
X219258D01*
X168420Y181120D02*
X202420D01*
X168420Y202120D02*
X202420D01*
X168420Y181120D02*
Y202120D01*
X202420Y181120D02*
Y202120D01*
X140170Y171570D02*
X167170D01*
X140170Y186570D02*
X167170D01*
X140170Y171570D02*
Y186570D01*
X167170Y171570D02*
Y186570D01*
X152750Y260130D02*
Y283130D01*
X164750Y260130D02*
Y283130D01*
X152750D02*
X164750D01*
X152750Y260130D02*
X164750D01*
X221330Y256610D02*
X233330D01*
X221330Y233610D02*
X233330D01*
X221330D02*
Y256610D01*
X233330Y233610D02*
Y256610D01*
X1059530Y596830D02*
Y619830D01*
X1071530Y596830D02*
Y619830D01*
X1059530D02*
X1071530D01*
X1059530Y596830D02*
X1071530D01*
X1058830Y596830D02*
Y619830D01*
X1046830Y596830D02*
Y619830D01*
Y596830D02*
X1058830D01*
X1046830Y619830D02*
X1058830D01*
X1034130D02*
X1046130D01*
X1034130Y596830D02*
X1046130D01*
X1034130D02*
Y619830D01*
X1046130Y596830D02*
Y619830D01*
X1021430Y596830D02*
Y619830D01*
X1033430Y596830D02*
Y619830D01*
X1021430D02*
X1033430D01*
X1021430Y596830D02*
X1033430D01*
X1020730Y596830D02*
Y619830D01*
X1008730Y596830D02*
Y619830D01*
Y596830D02*
X1020730D01*
X1008730Y619830D02*
X1020730D01*
X996030D02*
X1008030D01*
X996030Y596830D02*
X1008030D01*
X996030D02*
Y619830D01*
X1008030Y596830D02*
Y619830D01*
X983330Y596830D02*
Y619830D01*
X995330Y596830D02*
Y619830D01*
X983330D02*
X995330D01*
X983330Y596830D02*
X995330D01*
X982630Y596830D02*
Y619830D01*
X970630Y596830D02*
Y619830D01*
Y596830D02*
X982630D01*
X970630Y619830D02*
X982630D01*
X957930D02*
X969930D01*
X957930Y596830D02*
X969930D01*
X957930D02*
Y619830D01*
X969930Y596830D02*
Y619830D01*
X945230Y596830D02*
X957230D01*
X945230Y619830D02*
X957230D01*
Y596830D02*
Y619830D01*
X945230Y596830D02*
Y619830D01*
X944530Y596830D02*
Y619830D01*
X932530Y596830D02*
Y619830D01*
Y596830D02*
X944530D01*
X932530Y619830D02*
X944530D01*
X919830D02*
X931830D01*
X919830Y596830D02*
X931830D01*
X919830D02*
Y619830D01*
X931830Y596830D02*
Y619830D01*
X907130Y596830D02*
Y619830D01*
X919130Y596830D02*
Y619830D01*
X907130D02*
X919130D01*
X907130Y596830D02*
X919130D01*
X906430Y596830D02*
Y619830D01*
X894430Y596830D02*
Y619830D01*
Y596830D02*
X906430D01*
X894430Y619830D02*
X906430D01*
X881730D02*
X893730D01*
X881730Y596830D02*
X893730D01*
X881730D02*
Y619830D01*
X893730Y596830D02*
Y619830D01*
X869030Y596830D02*
Y619830D01*
X881030Y596830D02*
Y619830D01*
X869030D02*
X881030D01*
X869030Y596830D02*
X881030D01*
X868330Y596830D02*
Y619830D01*
X856330Y596830D02*
Y619830D01*
Y596830D02*
X868330D01*
X856330Y619830D02*
X868330D01*
X843630D02*
X855630D01*
X843630Y596830D02*
X855630D01*
X843630D02*
Y619830D01*
X855630Y596830D02*
Y619830D01*
X830930Y596830D02*
Y619830D01*
X842930Y596830D02*
Y619830D01*
X830930D02*
X842930D01*
X830930Y596830D02*
X842930D01*
X830230Y596830D02*
Y619830D01*
X818230Y596830D02*
Y619830D01*
Y596830D02*
X830230D01*
X818230Y619830D02*
X830230D01*
X805530D02*
X817530D01*
X805530Y596830D02*
X817530D01*
X805530D02*
Y619830D01*
X817530Y596830D02*
Y619830D01*
X792830Y596830D02*
Y619830D01*
X804830Y596830D02*
Y619830D01*
X792830D02*
X804830D01*
X792830Y596830D02*
X804830D01*
X792130Y596830D02*
Y619830D01*
X780130Y596830D02*
Y619830D01*
Y596830D02*
X792130D01*
X780130Y619830D02*
X792130D01*
X428150Y513090D02*
X448150D01*
X428150Y546090D02*
X448150D01*
Y513090D02*
Y546090D01*
X428150Y513090D02*
Y546090D01*
X231630Y558460D02*
Y579460D01*
X197630Y558460D02*
Y579460D01*
X231630D01*
X197630Y558460D02*
X231630D01*
X232900Y351450D02*
Y372450D01*
X198900Y351450D02*
Y372450D01*
X232900D01*
X198900Y351450D02*
X232900D01*
Y393360D02*
Y414360D01*
X198900Y393360D02*
Y414360D01*
X232900D01*
X198900Y393360D02*
X232900D01*
Y506390D02*
Y527390D01*
X198900Y506390D02*
Y527390D01*
X232900D01*
X198900Y506390D02*
X232900D01*
X226130Y481680D02*
Y493680D01*
X203130Y481680D02*
Y493680D01*
X226130D01*
X203130Y481680D02*
X226130D01*
X201860Y524860D02*
X224860D01*
X201860Y536860D02*
X224860D01*
X201860Y524860D02*
Y536860D01*
X224860Y524860D02*
Y536860D01*
X200590Y494380D02*
X223590D01*
X200590Y506380D02*
X223590D01*
X200590Y494380D02*
Y506380D01*
X223590Y494380D02*
Y506380D01*
X201860Y423260D02*
X224860D01*
X201860Y435260D02*
X224860D01*
X201860Y423260D02*
Y435260D01*
X224860Y423260D02*
Y435260D01*
X200590Y383890D02*
X223590D01*
X200590Y395890D02*
X223590D01*
X200590Y383890D02*
Y395890D01*
X223590Y383890D02*
Y395890D01*
X201860Y369920D02*
X224860D01*
X201860Y381920D02*
X224860D01*
X201860Y369920D02*
Y381920D01*
X224860Y369920D02*
Y381920D01*
X203130Y548990D02*
X226130D01*
X203130Y560990D02*
X226130D01*
X203130Y548990D02*
Y560990D01*
X226130Y548990D02*
Y560990D01*
X1682400Y650170D02*
Y673170D01*
X1670400Y650170D02*
Y673170D01*
Y650170D02*
X1682400D01*
X1670400Y673170D02*
X1682400D01*
X1668060Y562390D02*
Y598390D01*
X1641560D02*
X1668060D01*
X1641560Y562390D02*
Y598390D01*
Y562390D02*
X1668060D01*
X550630Y110270D02*
Y146270D01*
Y110270D02*
X577130D01*
Y146270D01*
X550630D02*
X577130D01*
X499460Y38030D02*
X511460D01*
X499460Y61030D02*
X511460D01*
Y38030D02*
Y61030D01*
X499460Y38030D02*
Y61030D01*
X581030Y88560D02*
Y109560D01*
X547030Y88560D02*
Y109560D01*
X581030D01*
X547030Y88560D02*
X581030D01*
X557910Y88860D02*
X668910D01*
X557910Y20360D02*
X668910D01*
Y88860D01*
X557910Y20360D02*
Y88860D01*
X537370Y55750D02*
X557370D01*
X537370Y22750D02*
X557370D01*
X537370D02*
Y55750D01*
X557370Y22750D02*
Y55750D01*
X524685Y511259D02*
Y544259D01*
X504685Y511259D02*
Y544259D01*
Y511259D02*
X524685D01*
X504685Y544259D02*
X524685D01*
X550085Y512529D02*
Y545529D01*
X530085Y512529D02*
Y545529D01*
Y512529D02*
X550085D01*
X530085Y545529D02*
X550085D01*
X549755Y524879D02*
Y545879D01*
X583755Y524879D02*
Y545879D01*
X549755Y524879D02*
X583755D01*
X549755Y545879D02*
X583755D01*
X1625010Y327220D02*
X1710010D01*
Y399220D01*
X1625010D02*
X1710010D01*
X1625010Y327220D02*
Y399220D01*
X1529760Y327220D02*
X1614760D01*
Y399220D01*
X1529760D02*
X1614760D01*
X1529760Y327220D02*
Y399220D01*
X1285590Y444570D02*
X1297590D01*
X1285590Y421570D02*
X1297590D01*
X1285590D02*
Y444570D01*
X1297590Y421570D02*
Y444570D01*
X1512920Y359480D02*
X1524920D01*
X1512920Y336480D02*
X1524920D01*
X1512920D02*
Y359480D01*
X1524920Y336480D02*
Y359480D01*
X1330700Y424670D02*
Y454170D01*
X1298200D02*
X1330700D01*
X1298200Y424670D02*
Y454170D01*
Y424670D02*
X1330700D01*
X1414560Y378110D02*
X1437560D01*
X1414560Y366110D02*
X1437560D01*
Y378110D01*
X1414560Y366110D02*
Y378110D01*
X1368640Y378900D02*
X1443140D01*
Y433900D01*
X1368640D02*
X1443140D01*
X1368640Y378900D02*
Y433900D01*
X1443690Y393050D02*
Y407050D01*
X1469690Y393050D02*
Y407050D01*
X1443690Y393050D02*
X1469690D01*
X1443690Y407050D02*
X1469690D01*
X1443690Y418450D02*
Y432450D01*
X1469690Y418450D02*
Y432450D01*
X1443690Y418450D02*
X1469690D01*
X1443690Y432450D02*
X1469690D01*
X1617760Y314040D02*
Y326040D01*
X1640760Y314040D02*
Y326040D01*
X1617760Y314040D02*
X1640760D01*
X1617760Y326040D02*
X1640760D01*
X1331310Y426650D02*
X1343310D01*
X1331310Y449650D02*
X1343310D01*
Y426650D02*
Y449650D01*
X1331310Y426650D02*
Y449650D01*
X1345150Y455010D02*
Y467010D01*
X1322150Y455010D02*
Y467010D01*
X1345150D01*
X1322150Y455010D02*
X1345150D01*
X1625010Y433900D02*
X1710010D01*
Y505900D01*
X1625010D02*
X1710010D01*
X1625010Y433900D02*
Y505900D01*
X1529760Y433900D02*
X1614760D01*
Y505900D01*
X1529760D02*
X1614760D01*
X1529760Y433900D02*
Y505900D01*
X1512920Y463620D02*
X1524920D01*
X1512920Y440620D02*
X1524920D01*
X1512920D02*
Y463620D01*
X1524920Y440620D02*
Y463620D01*
X1444960Y528940D02*
Y542940D01*
X1470960Y528940D02*
Y542940D01*
X1444960Y528940D02*
X1470960D01*
X1444960Y542940D02*
X1470960D01*
X1444960Y503540D02*
Y517540D01*
X1470960Y503540D02*
Y517540D01*
X1444960Y503540D02*
X1470960D01*
X1444960Y517540D02*
X1470960D01*
X1369910Y489390D02*
X1444410D01*
Y544390D01*
X1369910D02*
X1444410D01*
X1369910Y489390D02*
Y544390D01*
X1415980Y488600D02*
X1438980D01*
X1415980Y476600D02*
X1438980D01*
Y488600D01*
X1415980Y476600D02*
Y488600D01*
X1712400Y385140D02*
X1767400D01*
X1712400D02*
Y458140D01*
X1767400Y385140D02*
Y458140D01*
X1712400D02*
X1767400D01*
X177730Y326740D02*
X200730D01*
X177730Y338740D02*
X200730D01*
X177730Y326740D02*
Y338740D01*
X200730Y326740D02*
Y338740D01*
X177730Y339440D02*
X200730D01*
X177730Y351440D02*
X200730D01*
X177730Y339440D02*
Y351440D01*
X200730Y339440D02*
Y351440D01*
X68510Y321660D02*
X91510D01*
X68510Y333660D02*
X91510D01*
X68510Y321660D02*
Y333660D01*
X91510Y321660D02*
Y333660D01*
X25050Y352990D02*
Y375990D01*
X13050Y352990D02*
Y375990D01*
Y352990D02*
X25050D01*
X13050Y375990D02*
X25050D01*
M02*
