G04*
G04 #@! TF.GenerationSoftware,Altium Limited,Altium Designer,23.7.1 (13)*
G04*
G04 Layer_Color=8388736*
%FSLAX44Y44*%
%MOMM*%
G71*
G04*
G04 #@! TF.SameCoordinates,9AC6D79B-6B5E-4FBD-9D38-37E555C90168*
G04*
G04*
G04 #@! TF.FilePolarity,Negative*
G04*
G01*
G75*
%ADD19R,1.7800X3.4300*%
%ADD23R,3.4300X1.7800*%
%ADD25R,0.7000X0.6500*%
G04:AMPARAMS|DCode=29|XSize=1.1mm|YSize=0.6mm|CornerRadius=0.051mm|HoleSize=0mm|Usage=FLASHONLY|Rotation=0.000|XOffset=0mm|YOffset=0mm|HoleType=Round|Shape=RoundedRectangle|*
%AMROUNDEDRECTD29*
21,1,1.1000,0.4980,0,0,0.0*
21,1,0.9980,0.6000,0,0,0.0*
1,1,0.1020,0.4990,-0.2490*
1,1,0.1020,-0.4990,-0.2490*
1,1,0.1020,-0.4990,0.2490*
1,1,0.1020,0.4990,0.2490*
%
%ADD29ROUNDEDRECTD29*%
%ADD31R,1.1311X0.9121*%
%ADD32R,0.7000X0.7000*%
%ADD38R,0.6500X0.3500*%
%ADD49R,1.4562X1.3781*%
%ADD63R,0.9500X1.3500*%
%ADD64R,0.9000X0.7500*%
%ADD65R,0.9000X0.8000*%
%ADD66R,0.3500X0.6500*%
%ADD70R,0.6725X0.7154*%
%ADD71R,0.7500X0.9000*%
%ADD73R,0.5153X0.4725*%
%ADD80R,1.5500X1.3000*%
%ADD81R,0.7000X0.7000*%
%ADD90R,1.4032X1.4032*%
%ADD91R,1.4032X1.4032*%
%ADD92R,1.1532X1.0032*%
%ADD93R,1.1532X1.2532*%
%ADD94R,1.0032X0.7032*%
%ADD95R,0.8532X0.9032*%
%ADD96R,0.9032X0.8532*%
%ADD97R,1.5532X0.5532*%
%ADD98R,0.5532X1.5532*%
%ADD99R,1.0532X0.9532*%
%ADD100R,0.9532X1.0532*%
%ADD101R,2.1032X1.1532*%
%ADD102R,2.1032X3.4532*%
%ADD103R,1.0532X0.5532*%
%ADD104R,0.8032X1.0032*%
%ADD105R,1.0032X1.1532*%
%ADD106R,0.6282X0.5732*%
%ADD107R,2.0032X1.0032*%
%ADD108R,1.0032X1.0032*%
%ADD109R,0.9532X0.5032*%
%ADD110R,1.3032X1.1532*%
%ADD111R,2.0032X1.4032*%
%ADD112R,1.7282X0.8532*%
%ADD113R,3.3032X2.4032*%
%ADD114R,1.8032X3.0032*%
%ADD115R,1.7032X1.7232*%
%ADD116R,1.1032X1.0532*%
%ADD117R,1.2532X1.1032*%
%ADD118R,0.6032X1.4032*%
%ADD119R,2.4532X1.1032*%
%ADD120R,1.3032X1.3032*%
%ADD121R,1.0032X1.2032*%
%ADD122R,0.9032X1.1032*%
%ADD123R,0.4032X1.1532*%
%ADD124R,6.5032X5.7532*%
%ADD125R,1.9832X3.3532*%
%ADD126R,1.0532X1.1032*%
%ADD127R,1.1532X0.4032*%
%ADD128R,0.5032X0.9532*%
%ADD129R,0.8532X0.9532*%
%ADD130R,1.1532X1.3032*%
%ADD131R,1.0532X1.0532*%
%ADD132R,0.9432X0.9832*%
%ADD133R,0.9432X1.1232*%
%ADD134R,2.2032X1.2032*%
%ADD135R,1.3032X1.7032*%
%ADD136R,2.0732X1.8032*%
%ADD137R,1.2232X1.0432*%
%ADD138R,2.1532X1.4032*%
%ADD139R,2.8032X2.9032*%
%ADD140R,0.5532X1.0032*%
%ADD141R,1.2532X1.1532*%
%ADD142R,5.0032X5.0032*%
%ADD143R,2.4032X1.7532*%
%ADD144R,3.4032X2.3032*%
%ADD145R,1.8532X1.7032*%
%ADD146R,4.3732X1.7532*%
%ADD147R,1.5732X1.5732*%
%ADD148C,1.5732*%
%ADD149C,1.7532*%
%ADD150R,1.7532X1.7532*%
%ADD151C,2.2532*%
%ADD152R,2.2532X2.2532*%
%ADD153C,4.2032*%
%ADD154R,1.5732X1.5732*%
%ADD155C,0.8032*%
%ADD156C,0.6032*%
%ADD157C,0.7032*%
D19*
X1311910Y63500D02*
D03*
X617220Y589280D02*
D03*
X662940Y160020D02*
D03*
X624840Y544830D02*
D03*
X1939290Y449580D02*
D03*
X762000Y259080D02*
D03*
D23*
X416560Y347980D02*
D03*
X334010Y44450D02*
D03*
X853440Y341630D02*
D03*
X772160Y316230D02*
D03*
X1334770Y402590D02*
D03*
X814070Y134620D02*
D03*
X803910Y213360D02*
D03*
X668660Y609600D02*
D03*
X939800Y59690D02*
D03*
X369570Y346710D02*
D03*
X701040Y574040D02*
D03*
X331470Y198120D02*
D03*
X149860Y73660D02*
D03*
X1315720Y157480D02*
D03*
X1739900Y474980D02*
D03*
X1323340Y118110D02*
D03*
X736600Y441960D02*
D03*
X1369060Y222250D02*
D03*
X784860Y429260D02*
D03*
X679450Y529590D02*
D03*
X322580Y355600D02*
D03*
X732790Y508000D02*
D03*
X1324610Y341630D02*
D03*
D25*
X331470Y269640D02*
D03*
Y256140D02*
D03*
D29*
X672770Y649580D02*
D03*
X646770Y630580D02*
D03*
Y649580D02*
D03*
X672770Y630580D02*
D03*
X646770Y640080D02*
D03*
D31*
X616535Y655320D02*
D03*
X629345D02*
D03*
D32*
X659120Y668020D02*
D03*
X673120D02*
D03*
X266700Y276860D02*
D03*
X1758330Y590550D02*
D03*
Y558800D02*
D03*
X669910Y467360D02*
D03*
X1845960Y506730D02*
D03*
X1831960D02*
D03*
X1744330Y558800D02*
D03*
X1744980Y574040D02*
D03*
X1758980D02*
D03*
X1744330Y590550D02*
D03*
X846290Y187960D02*
D03*
X860290D02*
D03*
X252700Y276860D02*
D03*
X683910Y467360D02*
D03*
X871870Y438150D02*
D03*
X857870D02*
D03*
X475630Y467360D02*
D03*
X461630D02*
D03*
X598790Y468630D02*
D03*
X612790D02*
D03*
X1657350Y601980D02*
D03*
X1671350D02*
D03*
D38*
X1891030Y261620D02*
D03*
Y253120D02*
D03*
D49*
X886460Y279421D02*
D03*
X887730Y165121D02*
D03*
X900430Y518181D02*
D03*
X902970Y408961D02*
D03*
X887730Y149839D02*
D03*
X886460Y264139D02*
D03*
X902970Y393679D02*
D03*
X900430Y502899D02*
D03*
D63*
X1144390Y63500D02*
D03*
X1577580Y57150D02*
D03*
X1159390Y63500D02*
D03*
X1592580Y57150D02*
D03*
D64*
X1780540Y603950D02*
D03*
X1816100Y603600D02*
D03*
X1847850Y648970D02*
D03*
X1816100Y615600D02*
D03*
X1780540Y615950D02*
D03*
X1847850Y660970D02*
D03*
D65*
X1798320Y603370D02*
D03*
Y618370D02*
D03*
D66*
X1830900Y602900D02*
D03*
X1839400D02*
D03*
D70*
X1850390Y626054D02*
D03*
X1865630Y580684D02*
D03*
X1850390Y635626D02*
D03*
X1865630Y590256D02*
D03*
D71*
X1883760Y618140D02*
D03*
X1895760D02*
D03*
D73*
X1863090Y634650D02*
D03*
X1870661D02*
D03*
D80*
X444120Y574400D02*
D03*
X523620D02*
D03*
Y619400D02*
D03*
X444120D02*
D03*
D81*
X424180Y575310D02*
D03*
X264160Y305450D02*
D03*
Y291450D02*
D03*
X688340Y398160D02*
D03*
Y384160D02*
D03*
X443230Y251460D02*
D03*
Y237460D02*
D03*
X689610Y432420D02*
D03*
Y446420D02*
D03*
X424180Y589310D02*
D03*
D90*
X1740830Y605790D02*
D03*
X1761830D02*
D03*
X1700870Y675640D02*
D03*
X1679870D02*
D03*
X322240Y22860D02*
D03*
X343240D02*
D03*
D91*
X482600Y88560D02*
D03*
Y109560D02*
D03*
X556260Y521290D02*
D03*
X575310Y520360D02*
D03*
X594360D02*
D03*
X556260Y542290D02*
D03*
X575310Y541360D02*
D03*
X594360D02*
D03*
D92*
X1701800Y662740D02*
D03*
Y650240D02*
D03*
X306070Y24230D02*
D03*
Y36730D02*
D03*
X1884680Y208130D02*
D03*
Y221130D02*
D03*
X594360Y494130D02*
D03*
X575310D02*
D03*
X556260D02*
D03*
Y506630D02*
D03*
X575310D02*
D03*
X594360D02*
D03*
D93*
X1642480Y675640D02*
D03*
X1656980D02*
D03*
X1870340Y246380D02*
D03*
X1855840D02*
D03*
D94*
X1859120Y262890D02*
D03*
X1839120D02*
D03*
D95*
X54610Y104470D02*
D03*
Y113970D02*
D03*
X44450Y77800D02*
D03*
Y87300D02*
D03*
X124460Y160350D02*
D03*
Y169850D02*
D03*
Y128270D02*
D03*
Y137770D02*
D03*
X642620Y606730D02*
D03*
Y597230D02*
D03*
X1686560Y607390D02*
D03*
X1642110Y594690D02*
D03*
X628650Y486740D02*
D03*
X1779270Y487680D02*
D03*
X1802130D02*
D03*
X1813560D02*
D03*
X476250Y221920D02*
D03*
X487680Y222250D02*
D03*
X662940Y486740D02*
D03*
X651510Y496240D02*
D03*
X628650D02*
D03*
X1686560Y616890D02*
D03*
X476250Y212420D02*
D03*
X487680Y212750D02*
D03*
X651510Y486740D02*
D03*
X1790700Y487680D02*
D03*
X1642110Y604190D02*
D03*
X1813560Y497180D02*
D03*
X1802130D02*
D03*
X1790700D02*
D03*
X1779270D02*
D03*
X662940Y496240D02*
D03*
D96*
X123520Y52070D02*
D03*
X133020D02*
D03*
X1655470Y114300D02*
D03*
Y125730D02*
D03*
X440360Y378460D02*
D03*
X145720Y92710D02*
D03*
X711860Y421640D02*
D03*
X711530Y411480D02*
D03*
X710590Y372110D02*
D03*
X708990Y311150D02*
D03*
Y321310D02*
D03*
Y294640D02*
D03*
Y284480D02*
D03*
Y264160D02*
D03*
X709320Y254000D02*
D03*
X290500Y233680D02*
D03*
X1849450Y542290D02*
D03*
X430860Y378460D02*
D03*
X136220Y92710D02*
D03*
X720700Y401320D02*
D03*
Y382270D02*
D03*
X718490Y294640D02*
D03*
X718820Y254000D02*
D03*
X711200Y401320D02*
D03*
X710260Y361950D02*
D03*
X711200Y382270D02*
D03*
X440360Y388620D02*
D03*
X1858950Y542290D02*
D03*
X1664970Y114300D02*
D03*
Y125730D02*
D03*
X672770Y189230D02*
D03*
X673100Y199390D02*
D03*
X281000Y233680D02*
D03*
X663600Y199390D02*
D03*
X721360Y421640D02*
D03*
X719760Y361950D02*
D03*
X718490Y311150D02*
D03*
Y284480D02*
D03*
X721030Y411480D02*
D03*
X720090Y372110D02*
D03*
X718490Y321310D02*
D03*
Y264160D02*
D03*
X430860Y388620D02*
D03*
X663270Y189230D02*
D03*
D97*
X460170Y381670D02*
D03*
Y366670D02*
D03*
X672670Y256670D02*
D03*
Y416670D02*
D03*
Y411670D02*
D03*
Y366670D02*
D03*
Y311670D02*
D03*
Y316670D02*
D03*
Y301670D02*
D03*
Y286670D02*
D03*
Y291670D02*
D03*
Y281670D02*
D03*
Y276670D02*
D03*
X460170Y296670D02*
D03*
Y281670D02*
D03*
Y276670D02*
D03*
Y431670D02*
D03*
X672670Y406670D02*
D03*
Y271670D02*
D03*
Y361670D02*
D03*
Y371670D02*
D03*
Y306670D02*
D03*
X460170Y386670D02*
D03*
Y291670D02*
D03*
Y416670D02*
D03*
Y421670D02*
D03*
Y396670D02*
D03*
Y411670D02*
D03*
Y261670D02*
D03*
Y286670D02*
D03*
X672670Y426670D02*
D03*
X460170Y256670D02*
D03*
Y266670D02*
D03*
Y271670D02*
D03*
Y301670D02*
D03*
Y306670D02*
D03*
Y311670D02*
D03*
Y316670D02*
D03*
Y321670D02*
D03*
Y326670D02*
D03*
Y331670D02*
D03*
Y336670D02*
D03*
Y341670D02*
D03*
Y346670D02*
D03*
Y351670D02*
D03*
Y356670D02*
D03*
Y361670D02*
D03*
Y371670D02*
D03*
Y376670D02*
D03*
Y391670D02*
D03*
Y401670D02*
D03*
Y406670D02*
D03*
Y426670D02*
D03*
X672670Y431670D02*
D03*
Y421670D02*
D03*
Y401670D02*
D03*
Y396670D02*
D03*
Y391670D02*
D03*
Y386670D02*
D03*
Y381670D02*
D03*
Y376670D02*
D03*
Y356670D02*
D03*
Y351670D02*
D03*
Y346670D02*
D03*
Y341670D02*
D03*
Y336670D02*
D03*
Y331670D02*
D03*
Y326670D02*
D03*
Y321670D02*
D03*
Y296670D02*
D03*
Y266670D02*
D03*
Y261670D02*
D03*
D98*
X588920Y450420D02*
D03*
X593920D02*
D03*
X608920D02*
D03*
X613920D02*
D03*
X618920D02*
D03*
X633920D02*
D03*
X548920Y237920D02*
D03*
X573920D02*
D03*
X578920D02*
D03*
X638920Y450420D02*
D03*
X583920Y237920D02*
D03*
X533920D02*
D03*
X478920D02*
D03*
X483920D02*
D03*
X653920Y450420D02*
D03*
X578920D02*
D03*
X573920D02*
D03*
X568920D02*
D03*
X638920Y237920D02*
D03*
X593920D02*
D03*
X588920D02*
D03*
X523920D02*
D03*
X528920D02*
D03*
X598920D02*
D03*
X493920Y450420D02*
D03*
X623920D02*
D03*
X628920D02*
D03*
X563920Y237920D02*
D03*
X568920D02*
D03*
X603920D02*
D03*
X648920Y450420D02*
D03*
X643920D02*
D03*
X613920Y237920D02*
D03*
X608920D02*
D03*
X523920Y450420D02*
D03*
X528920D02*
D03*
X488920D02*
D03*
X478920D02*
D03*
X483920D02*
D03*
X498920D02*
D03*
X503920D02*
D03*
X508920D02*
D03*
X513920D02*
D03*
X518920D02*
D03*
X533920D02*
D03*
X538920D02*
D03*
X543920D02*
D03*
X548920D02*
D03*
X553920D02*
D03*
X558920D02*
D03*
X563920D02*
D03*
X583920D02*
D03*
X598920D02*
D03*
X603920D02*
D03*
X653920Y237920D02*
D03*
X633920D02*
D03*
X628920D02*
D03*
X623920D02*
D03*
X618920D02*
D03*
X558920D02*
D03*
X553920D02*
D03*
X543920D02*
D03*
X538920D02*
D03*
X518920D02*
D03*
X513920D02*
D03*
X508920D02*
D03*
X503920D02*
D03*
X498920D02*
D03*
X493920D02*
D03*
X488920D02*
D03*
X648920D02*
D03*
X643920D02*
D03*
D99*
X603890Y627230D02*
D03*
Y640230D02*
D03*
X1687830Y629620D02*
D03*
X1045210Y421790D02*
D03*
X1046480Y184150D02*
D03*
X876300Y411630D02*
D03*
X865990Y163980D02*
D03*
X830580Y404980D02*
D03*
X820420Y156060D02*
D03*
X1045210Y408790D02*
D03*
X1046480Y171150D02*
D03*
X426720Y257960D02*
D03*
X1687830Y642620D02*
D03*
X865990Y150980D02*
D03*
X820420Y169060D02*
D03*
X830580Y417980D02*
D03*
X876300Y398630D02*
D03*
X426720Y244960D02*
D03*
D100*
X629440Y640080D02*
D03*
X616440D02*
D03*
X1050440Y548640D02*
D03*
X1049170Y299720D02*
D03*
X1147930Y323850D02*
D03*
X1149200Y90170D02*
D03*
X1157120Y546100D02*
D03*
X1149500Y297180D02*
D03*
X830730Y185420D02*
D03*
X1765450Y496570D02*
D03*
X842160Y433070D02*
D03*
X1889610Y537210D02*
D03*
X1160930Y323850D02*
D03*
X1162200Y90170D02*
D03*
X1144120Y546100D02*
D03*
X1136500Y297180D02*
D03*
X1037440Y548640D02*
D03*
X1036170Y299720D02*
D03*
X438300Y288290D02*
D03*
X1752450Y496570D02*
D03*
X1902610Y537210D02*
D03*
X817730Y185420D02*
D03*
X829160Y433070D02*
D03*
X425300Y288290D02*
D03*
D101*
X1066760Y241160D02*
D03*
Y264160D02*
D03*
Y287160D02*
D03*
X1167173Y263890D02*
D03*
X1167110Y160020D02*
D03*
X1065510Y420510D02*
D03*
X1066760Y183020D02*
D03*
X1065510Y527190D02*
D03*
X1162030Y420510D02*
D03*
X1167110Y183020D02*
D03*
X1162030Y527190D02*
D03*
X1167173Y286890D02*
D03*
X1162030Y374510D02*
D03*
X1065510Y397510D02*
D03*
X1167110Y137020D02*
D03*
X1066760Y160020D02*
D03*
X1162030Y481190D02*
D03*
X1065510Y504190D02*
D03*
X1167173Y240890D02*
D03*
X1065510Y374510D02*
D03*
Y481190D02*
D03*
X1066760Y137020D02*
D03*
X1162030Y504190D02*
D03*
Y397510D02*
D03*
D102*
X1127760Y264160D02*
D03*
X1228173Y263890D02*
D03*
X1228110Y160020D02*
D03*
X1126510Y397510D02*
D03*
X1127760Y160020D02*
D03*
X1126510Y504190D02*
D03*
X1223030D02*
D03*
Y397510D02*
D03*
D103*
X318046Y285796D02*
D03*
X278546Y275796D02*
D03*
X318046Y270796D02*
D03*
Y290796D02*
D03*
X278546Y265796D02*
D03*
X318046D02*
D03*
Y275796D02*
D03*
Y280796D02*
D03*
X278546Y270796D02*
D03*
Y280796D02*
D03*
Y285796D02*
D03*
Y290796D02*
D03*
D104*
X1870010Y208280D02*
D03*
X1858010Y222280D02*
D03*
X1870010D02*
D03*
X1858010Y208280D02*
D03*
D105*
X1890880Y274320D02*
D03*
X1903880D02*
D03*
X1831190Y115570D02*
D03*
X1844190D02*
D03*
X1829920Y222250D02*
D03*
X1842920D02*
D03*
D106*
X1884680Y234950D02*
D03*
X1891440Y244950D02*
D03*
X1884680Y239950D02*
D03*
Y244950D02*
D03*
X1891440Y234950D02*
D03*
Y239950D02*
D03*
D107*
X1811020Y116090D02*
D03*
Y201090D02*
D03*
X1691020Y127090D02*
D03*
Y138090D02*
D03*
X1811020Y223090D02*
D03*
Y190090D02*
D03*
Y127090D02*
D03*
X1691020Y94090D02*
D03*
Y105090D02*
D03*
Y116090D02*
D03*
Y149090D02*
D03*
Y160090D02*
D03*
Y190090D02*
D03*
Y201090D02*
D03*
Y212090D02*
D03*
Y223090D02*
D03*
Y234090D02*
D03*
X1811020D02*
D03*
Y212090D02*
D03*
Y160090D02*
D03*
Y149090D02*
D03*
Y138090D02*
D03*
Y105090D02*
D03*
Y94090D02*
D03*
D108*
X1848999Y99059D02*
D03*
X1833999D02*
D03*
D109*
X1840040Y534820D02*
D03*
Y547820D02*
D03*
Y541320D02*
D03*
Y560820D02*
D03*
X1780540Y528320D02*
D03*
X1840040Y554320D02*
D03*
X1780540Y560820D02*
D03*
Y547820D02*
D03*
Y541320D02*
D03*
Y534820D02*
D03*
X1840040Y567320D02*
D03*
X1780540D02*
D03*
Y554320D02*
D03*
X1840040Y528320D02*
D03*
D110*
X636270Y195210D02*
D03*
X552450Y173090D02*
D03*
X1727200Y542660D02*
D03*
Y557160D02*
D03*
X636270Y180710D02*
D03*
X552450Y187590D02*
D03*
D111*
X614360Y197420D02*
D03*
X574360Y173420D02*
D03*
Y197420D02*
D03*
X614360Y173420D02*
D03*
D112*
X909510Y127487D02*
D03*
X910140Y240030D02*
D03*
X912680Y341630D02*
D03*
Y354330D02*
D03*
X909510Y114787D02*
D03*
Y102087D02*
D03*
X911410Y454660D02*
D03*
Y467360D02*
D03*
X910140Y227330D02*
D03*
Y214630D02*
D03*
X965650Y467360D02*
D03*
Y441960D02*
D03*
X964380Y227330D02*
D03*
Y201930D02*
D03*
X966920Y354330D02*
D03*
Y328930D02*
D03*
X963750Y114787D02*
D03*
Y89387D02*
D03*
X965650Y480060D02*
D03*
X964380Y240030D02*
D03*
X966920Y367030D02*
D03*
X963750Y127487D02*
D03*
X966920Y341630D02*
D03*
X963750Y102087D02*
D03*
X965650Y454660D02*
D03*
X964380Y214630D02*
D03*
X911410Y480060D02*
D03*
X912680Y367030D02*
D03*
X910140Y201930D02*
D03*
X909510Y89387D02*
D03*
X912680Y328930D02*
D03*
X911410Y441960D02*
D03*
D113*
X1208440Y109220D02*
D03*
Y213360D02*
D03*
X962060Y519430D02*
D03*
X949360Y284480D02*
D03*
X964600Y407670D02*
D03*
X951230Y165100D02*
D03*
X1109380Y344170D02*
D03*
X1108110Y109220D02*
D03*
X1109380Y450850D02*
D03*
Y212090D02*
D03*
X1205900Y450850D02*
D03*
Y344170D02*
D03*
D114*
X1270000Y184240D02*
D03*
X1264920Y419190D02*
D03*
X1270000Y227240D02*
D03*
X1264920Y462190D02*
D03*
D115*
X919030Y165100D02*
D03*
X917160Y284480D02*
D03*
X1173700Y344170D02*
D03*
X1176240Y109220D02*
D03*
X1173700Y450850D02*
D03*
X1176240Y213360D02*
D03*
X1077180Y344170D02*
D03*
Y450850D02*
D03*
X1075910Y109220D02*
D03*
X1077180Y212090D02*
D03*
X932400Y407670D02*
D03*
X929860Y519430D02*
D03*
D116*
X1673860Y630070D02*
D03*
Y617070D02*
D03*
D117*
X1703070Y628280D02*
D03*
Y613780D02*
D03*
D118*
X1655110Y638810D02*
D03*
X1642110D02*
D03*
Y619810D02*
D03*
X1648610D02*
D03*
X1655110D02*
D03*
D119*
X1620340Y657800D02*
D03*
Y612200D02*
D03*
D120*
X1643230Y657860D02*
D03*
X1656230D02*
D03*
D121*
X1672590D02*
D03*
X1620400Y590550D02*
D03*
X1898530Y604170D02*
D03*
X1883530D02*
D03*
X1895990Y634650D02*
D03*
X1880990D02*
D03*
X1687590Y657860D02*
D03*
X1605400Y590550D02*
D03*
D122*
X996330Y441960D02*
D03*
X995060Y201930D02*
D03*
X997600Y328930D02*
D03*
X995060Y88900D02*
D03*
X997600Y354330D02*
D03*
X995060Y114300D02*
D03*
X996330Y467360D02*
D03*
X995060Y227330D02*
D03*
X982330Y467360D02*
D03*
Y441960D02*
D03*
X981060Y227330D02*
D03*
Y201930D02*
D03*
X983600Y354330D02*
D03*
Y328930D02*
D03*
X981060Y114300D02*
D03*
Y88900D02*
D03*
D123*
X834900Y172480D02*
D03*
X849440Y403980D02*
D03*
X838900Y157480D02*
D03*
X849440Y418980D02*
D03*
X838900Y172480D02*
D03*
X845440Y418980D02*
D03*
Y403980D02*
D03*
X834900Y157480D02*
D03*
X853440Y418980D02*
D03*
X857440D02*
D03*
X861440D02*
D03*
Y403980D02*
D03*
X857440D02*
D03*
X853440D02*
D03*
X842900Y172480D02*
D03*
X846900D02*
D03*
X850900D02*
D03*
Y157480D02*
D03*
X846900D02*
D03*
X842900D02*
D03*
D124*
X1554340Y635000D02*
D03*
D125*
X1500620Y633730D02*
D03*
X1448320D02*
D03*
D126*
X965350Y495300D02*
D03*
X964080Y255270D02*
D03*
X966620Y382270D02*
D03*
X962810Y142240D02*
D03*
X953620Y382270D02*
D03*
X949810Y142240D02*
D03*
X952350Y495300D02*
D03*
X951080Y255270D02*
D03*
D127*
X862440Y411480D02*
D03*
X851900Y164980D02*
D03*
X844440Y411480D02*
D03*
X833900Y164980D02*
D03*
D128*
X1810290Y518070D02*
D03*
X1803790D02*
D03*
X1797290D02*
D03*
X1790790D02*
D03*
X1810290Y577570D02*
D03*
X1829790D02*
D03*
X1816790Y518070D02*
D03*
X1823290D02*
D03*
X1829790D02*
D03*
X1823290Y577570D02*
D03*
X1816790D02*
D03*
X1803790D02*
D03*
X1797290D02*
D03*
X1790790D02*
D03*
D129*
X1746250Y542290D02*
D03*
X1756250Y529290D02*
D03*
X1746250D02*
D03*
X1756250Y542290D02*
D03*
D130*
X1756040Y515620D02*
D03*
X1741540D02*
D03*
D131*
X1850390Y613730D02*
D03*
Y602230D02*
D03*
D132*
Y590020D02*
D03*
Y580220D02*
D03*
D133*
X1860700Y647350D02*
D03*
X1873100D02*
D03*
D134*
X212865Y333715D02*
D03*
Y345715D02*
D03*
D135*
X99165Y327215D02*
D03*
D136*
X18615Y385915D02*
D03*
D137*
X1885950Y648270D02*
D03*
Y661670D02*
D03*
D138*
X171215Y530665D02*
D03*
Y555665D02*
D03*
Y375665D02*
D03*
Y390665D02*
D03*
Y505665D02*
D03*
Y430665D02*
D03*
Y480665D02*
D03*
Y455665D02*
D03*
Y405665D02*
D03*
D139*
X298296Y278296D02*
D03*
D140*
X285796Y258296D02*
D03*
X290796D02*
D03*
X295796D02*
D03*
X300796D02*
D03*
X305796D02*
D03*
X310796D02*
D03*
X285796Y298296D02*
D03*
X290796D02*
D03*
X295796D02*
D03*
X300796D02*
D03*
X305796D02*
D03*
X310796D02*
D03*
D141*
X1732280Y110120D02*
D03*
Y95620D02*
D03*
D142*
X1810290Y547820D02*
D03*
D143*
X207465Y604965D02*
D03*
D144*
X254265Y580915D02*
D03*
Y342915D02*
D03*
D145*
X17515Y327215D02*
D03*
D146*
X30115Y604965D02*
D03*
D147*
X433070Y670560D02*
D03*
X1043940Y675640D02*
D03*
X1083310Y659130D02*
D03*
X1259840Y585470D02*
D03*
X1156970Y39370D02*
D03*
X1623060Y30480D02*
D03*
X1518920Y679450D02*
D03*
X1383030Y585470D02*
D03*
D148*
X458470Y670560D02*
D03*
X483870D02*
D03*
X509270D02*
D03*
X534670D02*
D03*
X560070D02*
D03*
X1018540Y675640D02*
D03*
X993140D02*
D03*
X967740D02*
D03*
X942340D02*
D03*
X916940D02*
D03*
X891540D02*
D03*
X866140D02*
D03*
Y650240D02*
D03*
X891540D02*
D03*
X916940D02*
D03*
X942340D02*
D03*
X967740D02*
D03*
X993140D02*
D03*
X1018540D02*
D03*
X1043940D02*
D03*
X575310Y636270D02*
D03*
X73660Y226060D02*
D03*
Y251460D02*
D03*
X1459230Y585470D02*
D03*
X1433830D02*
D03*
X1468120Y679450D02*
D03*
X1442720D02*
D03*
X1159510Y659130D02*
D03*
X1134110D02*
D03*
X1336040Y585470D02*
D03*
X1310640D02*
D03*
X1106170Y39370D02*
D03*
X1080770D02*
D03*
X1572260Y30480D02*
D03*
X1546860D02*
D03*
X1108710Y659130D02*
D03*
X1285240Y585470D02*
D03*
X1131570Y39370D02*
D03*
X1597660Y30480D02*
D03*
X684530Y76200D02*
D03*
Y101600D02*
D03*
X1493520Y679450D02*
D03*
X684530Y50800D02*
D03*
X1408430Y585470D02*
D03*
D149*
X101712Y52410D02*
D03*
Y77810D02*
D03*
Y103210D02*
D03*
Y128610D02*
D03*
Y154010D02*
D03*
X76312Y52410D02*
D03*
Y77810D02*
D03*
Y103210D02*
D03*
Y128610D02*
D03*
D150*
Y154010D02*
D03*
D151*
X1974850Y299720D02*
D03*
Y248920D02*
D03*
X1924050D02*
D03*
Y299720D02*
D03*
X1973580Y628650D02*
D03*
Y577850D02*
D03*
X1922780D02*
D03*
Y628650D02*
D03*
D152*
X1949450Y274320D02*
D03*
X1948180Y603250D02*
D03*
D153*
X753110Y191770D02*
D03*
X1296670Y505460D02*
D03*
X1250760Y649770D02*
D03*
Y49770D02*
D03*
X1750760D02*
D03*
Y649770D02*
D03*
X750760Y49770D02*
D03*
X250760D02*
D03*
X750760Y649770D02*
D03*
X250760D02*
D03*
D154*
X575310Y610870D02*
D03*
X73660Y200660D02*
D03*
X684530Y25400D02*
D03*
D155*
X439420Y318770D02*
D03*
X518160Y643890D02*
D03*
X1744980Y215900D02*
D03*
X1675130Y453390D02*
D03*
X1207770Y275590D02*
D03*
X1145540Y462280D02*
D03*
X1139190Y114300D02*
D03*
X1136650Y354330D02*
D03*
X1108710Y346710D02*
D03*
X1097280Y106680D02*
D03*
X1033780Y214630D02*
D03*
Y454660D02*
D03*
X352238Y564500D02*
D03*
X377638Y626730D02*
D03*
X410210Y552450D02*
D03*
X1403860Y676094D02*
D03*
X1406707Y654340D02*
D03*
X1358115Y643057D02*
D03*
X1367005Y673537D02*
D03*
X1731010Y601980D02*
D03*
X494030Y87630D02*
D03*
X824230Y81280D02*
D03*
X1307465Y92710D02*
D03*
X354330Y22860D02*
D03*
X1694180Y688340D02*
D03*
X1676400Y687070D02*
D03*
X1681480Y445770D02*
D03*
X1101090Y115570D02*
D03*
X1231900Y474980D02*
D03*
X1106170Y457200D02*
D03*
X1207770Y285750D02*
D03*
X1104900Y220980D02*
D03*
X1141730Y214630D02*
D03*
X1144270Y452120D02*
D03*
X1588770Y214630D02*
D03*
X1607820Y266700D02*
D03*
X1572260Y163830D02*
D03*
X1506220Y50800D02*
D03*
Y87630D02*
D03*
X1522730Y99060D02*
D03*
X1517650Y127000D02*
D03*
X1522730Y176530D02*
D03*
X1510030Y220980D02*
D03*
X1518920Y241300D02*
D03*
X1517650Y261620D02*
D03*
X1524000Y289560D02*
D03*
X1518920Y326390D02*
D03*
X1516380Y370840D02*
D03*
X1512570Y422910D02*
D03*
X1516577Y396424D02*
D03*
X1521460Y541020D02*
D03*
X1512570Y505460D02*
D03*
X1516380Y487680D02*
D03*
X1032510Y181610D02*
D03*
X1033780Y284480D02*
D03*
X1035050Y513080D02*
D03*
X1049020Y443230D02*
D03*
X1045210Y464820D02*
D03*
Y485140D02*
D03*
X1028700Y426720D02*
D03*
X1049020Y339090D02*
D03*
X1028700Y372110D02*
D03*
X1042670Y374650D02*
D03*
X1040130Y392430D02*
D03*
X1042670Y114300D02*
D03*
X1046480Y198120D02*
D03*
X1517650Y468630D02*
D03*
X1511300Y205740D02*
D03*
X1508760Y355600D02*
D03*
Y341630D02*
D03*
X1036320Y408940D02*
D03*
X1026160Y546100D02*
D03*
X1037590Y170180D02*
D03*
X1021080Y302260D02*
D03*
X1060450Y227330D02*
D03*
X1057910Y113030D02*
D03*
X1054100Y124460D02*
D03*
X1046480Y227330D02*
D03*
Y241300D02*
D03*
X1630680Y627380D02*
D03*
X1678940Y596900D02*
D03*
X1574800Y586740D02*
D03*
X633730Y168910D02*
D03*
X643890Y285750D02*
D03*
X257810Y292100D02*
D03*
X1899920Y237490D02*
D03*
X842109Y428396D02*
D03*
X896620Y334010D02*
D03*
X170180Y106680D02*
D03*
X161290Y109220D02*
D03*
X285750Y246380D02*
D03*
X373380Y259080D02*
D03*
X496570Y436880D02*
D03*
X548949Y463859D02*
D03*
X551180Y435610D02*
D03*
X685800Y378460D02*
D03*
X640080Y251460D02*
D03*
X628650D02*
D03*
X628886Y223756D02*
D03*
X604520Y283210D02*
D03*
X608330Y123190D02*
D03*
X154940Y91440D02*
D03*
X144780Y137160D02*
D03*
X147320Y105410D02*
D03*
X357125Y217978D02*
D03*
X476250Y180340D02*
D03*
X533774Y218814D02*
D03*
X393460Y332330D02*
D03*
X819257Y293275D02*
D03*
X863707Y239935D02*
D03*
X1837797Y457105D02*
D03*
X1812397Y653955D02*
D03*
X1958447Y657765D02*
D03*
X1973687Y680625D02*
D03*
X1926697Y667925D02*
D03*
X1945747Y493935D02*
D03*
X1976227Y505365D02*
D03*
X1947017Y535845D02*
D03*
X1950827Y388525D02*
D03*
X1982577Y335185D02*
D03*
X1939397Y346615D02*
D03*
X1896643Y373108D02*
D03*
X1882247Y335185D02*
D03*
X1820017Y344075D02*
D03*
X1832717Y309785D02*
D03*
X1779377Y307245D02*
D03*
X1962257Y205645D02*
D03*
X1915267Y196755D02*
D03*
X1953367Y159925D02*
D03*
X1924157Y36735D02*
D03*
X1954637Y77375D02*
D03*
X1938127Y121825D02*
D03*
X1896217Y142145D02*
D03*
X1891137Y73565D02*
D03*
X1484737Y32925D02*
D03*
X1270107Y375825D02*
D03*
X1296777Y302165D02*
D03*
X880217Y21495D02*
D03*
X609600Y102870D02*
D03*
X391267Y32925D02*
D03*
X283317Y27845D02*
D03*
X223627Y186595D02*
D03*
X266807Y219615D02*
D03*
X469900Y556260D02*
D03*
X203307Y671735D02*
D03*
X81280Y632460D02*
D03*
X102870Y668020D02*
D03*
X1290320Y637540D02*
D03*
X1289050Y669290D02*
D03*
X1103630Y598170D02*
D03*
X1422400Y33020D02*
D03*
X1358900Y306070D02*
D03*
X941070Y16510D02*
D03*
X833120Y26670D02*
D03*
X736600Y95250D02*
D03*
X770890Y530860D02*
D03*
X740410Y596900D02*
D03*
X501650Y591820D02*
D03*
X463550Y525780D02*
D03*
X459740Y198120D02*
D03*
X467360Y77470D02*
D03*
X472440Y30480D02*
D03*
X422910Y43180D02*
D03*
X63500Y21590D02*
D03*
X220980Y17780D02*
D03*
X173990Y29210D02*
D03*
X307340Y217170D02*
D03*
X208280Y152400D02*
D03*
X25400Y233680D02*
D03*
X210820Y292100D02*
D03*
X95250Y288290D02*
D03*
X31750D02*
D03*
X412750Y482600D02*
D03*
X368300Y500380D02*
D03*
X313690Y608330D02*
D03*
Y665480D02*
D03*
X135890Y673100D02*
D03*
X34290Y638810D02*
D03*
X74930Y656590D02*
D03*
X35560Y673100D02*
D03*
X171868Y647945D02*
D03*
X120359Y639506D02*
D03*
X812800Y436880D02*
D03*
X855980Y431800D02*
D03*
X1310640Y467360D02*
D03*
X1292860Y407670D02*
D03*
X1672590Y589280D02*
D03*
X1330960Y180340D02*
D03*
X697230Y433070D02*
D03*
X334010Y58420D02*
D03*
X654050Y294640D02*
D03*
X652780Y323850D02*
D03*
X1310640Y175260D02*
D03*
X1287780Y189230D02*
D03*
X1336040Y200660D02*
D03*
X656615Y394995D02*
D03*
X695960Y394970D02*
D03*
X472440Y461010D02*
D03*
X461010Y474980D02*
D03*
X553720Y224790D02*
D03*
X1652270Y64770D02*
D03*
X1499870Y63500D02*
D03*
X1639570Y57150D02*
D03*
X1553210Y71120D02*
D03*
X1600200Y101600D02*
D03*
X1631950Y646030D02*
D03*
X1659890Y642620D02*
D03*
X1480820Y453390D02*
D03*
Y534670D02*
D03*
X734060Y401320D02*
D03*
X618490Y468630D02*
D03*
X1744980Y497840D02*
D03*
X1831340Y500380D02*
D03*
X1764030Y575310D02*
D03*
X1347120Y444500D02*
D03*
X1753870Y101600D02*
D03*
X1341120Y223520D02*
D03*
X1294130Y204470D02*
D03*
X594360Y477520D02*
D03*
X574040Y557530D02*
D03*
X679450Y659130D02*
D03*
X871192Y391246D02*
D03*
X848360Y198120D02*
D03*
X868680Y140970D02*
D03*
X812800Y170180D02*
D03*
X635000Y321310D02*
D03*
X627380Y304800D02*
D03*
X1632898Y590513D02*
D03*
X1695450Y596900D02*
D03*
X1741540Y524580D02*
D03*
X1761561Y538675D02*
D03*
X1846580Y499110D02*
D03*
X1870710Y231140D02*
D03*
X1858010Y200660D02*
D03*
X1847850Y246380D02*
D03*
X1363980Y245110D02*
D03*
X1332230Y228600D02*
D03*
X1303020Y341630D02*
D03*
X1304290Y363220D02*
D03*
X1308190Y411341D02*
D03*
X1299210Y450850D02*
D03*
X1289720Y461610D02*
D03*
X1266190Y481330D02*
D03*
X880110Y437458D02*
D03*
X889000Y488950D02*
D03*
X774700Y515620D02*
D03*
X712470Y509270D02*
D03*
X713740Y483870D02*
D03*
X787400Y393700D02*
D03*
X759460Y427990D02*
D03*
X822960Y433070D02*
D03*
X857250Y392380D02*
D03*
X913130Y392430D02*
D03*
X857383Y142254D02*
D03*
X657898Y251816D02*
D03*
X623570Y282231D02*
D03*
X387350Y147320D02*
D03*
X350520Y297118D02*
D03*
X190500Y364490D02*
D03*
X191770Y402590D02*
D03*
X190500Y419100D02*
D03*
X185420Y477520D02*
D03*
X195580Y488950D02*
D03*
X189230Y520700D02*
D03*
X195580Y543560D02*
D03*
X299720Y355600D02*
D03*
X345440Y389890D02*
D03*
X328930Y326390D02*
D03*
X339090Y303530D02*
D03*
X383540Y292100D02*
D03*
X416560Y462280D02*
D03*
X557530Y257810D02*
D03*
X542290Y123190D02*
D03*
X811530Y80010D02*
D03*
X641350Y537210D02*
D03*
X584200Y369570D02*
D03*
X627380Y387350D02*
D03*
X473710Y287020D02*
D03*
X394970Y205740D02*
D03*
X381000Y417830D02*
D03*
X495300Y415290D02*
D03*
X307340Y476250D02*
D03*
X628650Y373380D02*
D03*
X532130Y259080D02*
D03*
X386080Y365760D02*
D03*
X577598Y252730D02*
D03*
X632460Y355600D02*
D03*
X613410Y358140D02*
D03*
X381000Y243840D02*
D03*
X594360Y384810D02*
D03*
X306070Y523240D02*
D03*
X457200Y445770D02*
D03*
X574059Y269881D02*
D03*
X439420Y468630D02*
D03*
X312420Y502920D02*
D03*
X388620Y224790D02*
D03*
X601980Y220980D02*
D03*
X519430Y251460D02*
D03*
X636270Y406400D02*
D03*
X575408Y278779D02*
D03*
X646430Y382270D02*
D03*
X494030Y469900D02*
D03*
X592022Y284480D02*
D03*
X573790Y260885D02*
D03*
X1764706Y480736D02*
D03*
X1783080Y454660D02*
D03*
X876300Y327660D02*
D03*
X801370Y161290D02*
D03*
X746760Y311150D02*
D03*
X744220Y321310D02*
D03*
X753110Y294640D02*
D03*
X797560Y320040D02*
D03*
X1342390Y535940D02*
D03*
X1548130Y577850D02*
D03*
X1483360Y544370D02*
D03*
X1005840Y511810D02*
D03*
X1143000Y603250D02*
D03*
X1623060Y636270D02*
D03*
X1214120Y546100D02*
D03*
X539750Y251460D02*
D03*
X543560Y279400D02*
D03*
X1601470Y679450D02*
D03*
X1596390Y590550D02*
D03*
X255270Y303530D02*
D03*
X331470Y250190D02*
D03*
X304800Y233680D02*
D03*
X499110Y260350D02*
D03*
X386080Y321310D02*
D03*
X886777Y249872D02*
D03*
X1797050Y212090D02*
D03*
X1811020Y242570D02*
D03*
X1827530Y160020D02*
D03*
X1732280Y86360D02*
D03*
X640080Y624840D02*
D03*
X652780Y668020D02*
D03*
X642620Y581660D02*
D03*
X607700Y655320D02*
D03*
X600080Y621030D02*
D03*
X615320Y624840D02*
D03*
X1744330Y582930D02*
D03*
X1790700Y185420D02*
D03*
X1776730Y125730D02*
D03*
X910590Y53340D02*
D03*
Y43180D02*
D03*
X1329690Y102870D02*
D03*
X91440Y327660D02*
D03*
X19050Y375920D02*
D03*
X200660Y345440D02*
D03*
X201930Y332740D02*
D03*
X689610Y453390D02*
D03*
X692150Y467360D02*
D03*
X1612900Y541020D02*
D03*
X1624330Y448310D02*
D03*
X1479550Y523240D02*
D03*
X1393410Y191550D02*
D03*
X1739900Y224790D02*
D03*
X1701800Y549910D02*
D03*
X928370Y192680D02*
D03*
X1397000Y438150D02*
D03*
X1332230Y523240D02*
D03*
X1578126Y378660D02*
D03*
X1579396Y480260D02*
D03*
X930910Y433070D02*
D03*
X1223010Y474980D02*
D03*
X1151406Y214830D02*
D03*
X1138706Y123390D02*
D03*
X1136166Y364690D02*
D03*
X1803400Y449580D02*
D03*
X1813560Y464820D02*
D03*
X1767840Y434340D02*
D03*
X674307Y571437D02*
D03*
X1767840Y406400D02*
D03*
X628650Y511810D02*
D03*
X414020Y378460D02*
D03*
X1765300Y368300D02*
D03*
X1050435Y541165D02*
D03*
X1017270Y340360D02*
D03*
X1050290Y289560D02*
D03*
X1013460Y92710D02*
D03*
X1525270Y83820D02*
D03*
X1483360Y287020D02*
D03*
X1148080Y335280D02*
D03*
X1151890Y420370D02*
D03*
X1155700Y181610D02*
D03*
X1149350Y99060D02*
D03*
X1630680Y190500D02*
D03*
X1626870Y290830D02*
D03*
X1328420Y473710D02*
D03*
X829310Y203200D02*
D03*
X728980Y254000D02*
D03*
X488950Y199390D02*
D03*
X505460Y69850D02*
D03*
X1767840Y420370D02*
D03*
X1790700Y468630D02*
D03*
X734060Y420370D02*
D03*
X875030Y426720D02*
D03*
X1281430Y439420D02*
D03*
X867410Y171450D02*
D03*
X731520Y284480D02*
D03*
X1344930Y205740D02*
D03*
X824230Y309880D02*
D03*
X1333500Y420370D02*
D03*
X737870Y264160D02*
D03*
X1290320Y217170D02*
D03*
X351790Y364490D02*
D03*
X1767840Y391160D02*
D03*
X666750Y510540D02*
D03*
X1098550Y345440D02*
D03*
X988060Y341630D02*
D03*
X1478619Y412690D02*
D03*
X1022350Y101600D02*
D03*
X1494790Y276860D02*
D03*
X1101090Y450850D02*
D03*
X1099820Y214630D02*
D03*
X1494790Y166370D02*
D03*
X185420Y530860D02*
D03*
Y556260D02*
D03*
X184150Y375920D02*
D03*
Y391160D02*
D03*
X185420Y502920D02*
D03*
X184150Y430530D02*
D03*
X430155Y537090D02*
D03*
X495300Y115570D02*
D03*
X472440D02*
D03*
X452120Y90170D02*
D03*
X427990Y82550D02*
D03*
X412750Y73660D02*
D03*
X368300Y78740D02*
D03*
X337820Y99060D02*
D03*
X318770Y97790D02*
D03*
X200660Y139700D02*
D03*
X182880Y138430D02*
D03*
X201930Y72390D02*
D03*
X181610D02*
D03*
X1743710Y133350D02*
D03*
X911860Y434340D02*
D03*
X1739900Y381000D02*
D03*
X1356360Y473710D02*
D03*
X1366520Y535940D02*
D03*
X1356360Y360680D02*
D03*
X1365250Y425450D02*
D03*
X1270000Y248920D02*
D03*
X897890Y90170D02*
D03*
X887730Y140970D02*
D03*
X896620Y201930D02*
D03*
X867410Y187960D02*
D03*
X817880Y194160D02*
D03*
X975997Y593723D02*
D03*
X937260Y594360D02*
D03*
X862330D02*
D03*
X811530Y623570D02*
D03*
X849630Y622300D02*
D03*
X887730D02*
D03*
X925830D02*
D03*
X963930D02*
D03*
X1002030Y623570D02*
D03*
X1040130D02*
D03*
X1078230Y622300D02*
D03*
X1357630Y120650D02*
D03*
X1351280Y187960D02*
D03*
X1369060Y179070D02*
D03*
X1371600Y292100D02*
D03*
X424180Y598170D02*
D03*
X1865630Y596900D02*
D03*
X1833880Y91440D02*
D03*
X523240Y629920D02*
D03*
X443230D02*
D03*
X585470Y115570D02*
D03*
X1885950Y669290D02*
D03*
X1847850D02*
D03*
X1816100Y622300D02*
D03*
X1798320Y626110D02*
D03*
X1780540Y623570D02*
D03*
X226060Y260350D02*
D03*
X156210Y203200D02*
D03*
X547370Y54610D02*
D03*
X521970Y34290D02*
D03*
X505460D02*
D03*
X557530Y198120D02*
D03*
X443230Y230490D02*
D03*
X502920Y287020D02*
D03*
X478861Y342751D02*
D03*
X478790Y392430D02*
D03*
X476250Y426720D02*
D03*
X521970Y434340D02*
D03*
X604520Y541020D02*
D03*
X235070Y342861D02*
D03*
X157480Y405130D02*
D03*
Y480060D02*
D03*
X255270Y595630D02*
D03*
X223520Y604520D02*
D03*
X30480Y326390D02*
D03*
X55880Y604520D02*
D03*
X1902460Y529590D02*
D03*
X593090Y137160D02*
D03*
X158750Y285750D02*
D03*
X173990Y332740D02*
D03*
X175260Y345440D02*
D03*
X201930Y359410D02*
D03*
X200660Y408940D02*
D03*
X199390Y568960D02*
D03*
X200660Y514350D02*
D03*
X208280Y480060D02*
D03*
X191770Y455930D02*
D03*
X156210D02*
D03*
X66040Y327660D02*
D03*
X19050Y350520D02*
D03*
X426720Y237490D02*
D03*
X419100Y288290D02*
D03*
X478790Y314960D02*
D03*
Y364490D02*
D03*
X755650Y397510D02*
D03*
X786130Y594360D02*
D03*
X824230D02*
D03*
X900430D02*
D03*
X1014730D02*
D03*
X1052830D02*
D03*
X1817370Y588960D02*
D03*
D156*
X438646Y455274D02*
D03*
X403086Y465434D02*
D03*
X313690Y534670D02*
D03*
X356870Y411480D02*
D03*
X302017Y495373D02*
D03*
X306250Y462938D02*
D03*
D157*
X303796Y283796D02*
D03*
Y272796D02*
D03*
X292796D02*
D03*
Y283796D02*
D03*
X1793790Y564320D02*
D03*
X1804790D02*
D03*
X1815790D02*
D03*
X1826790D02*
D03*
X1793790Y553320D02*
D03*
X1804790D02*
D03*
X1815790D02*
D03*
X1826790D02*
D03*
X1793790Y542320D02*
D03*
X1804790D02*
D03*
X1815790D02*
D03*
X1826790D02*
D03*
X1793790Y531320D02*
D03*
X1804790D02*
D03*
X1815790D02*
D03*
X1826790D02*
D03*
M02*
