G04*
G04 #@! TF.GenerationSoftware,Altium Limited,Altium Designer,23.7.1 (13)*
G04*
G04 Layer_Color=255*
%FSLAX44Y44*%
%MOMM*%
G71*
G04*
G04 #@! TF.SameCoordinates,9AC6D79B-6B5E-4FBD-9D38-37E555C90168*
G04*
G04*
G04 #@! TF.FilePolarity,Positive*
G04*
G01*
G75*
%ADD17R,1.2000X1.2000*%
%ADD18R,1.2000X1.2000*%
%ADD19R,1.7800X3.4300*%
%ADD20R,0.9500X0.8000*%
%ADD21R,0.9500X1.0500*%
%ADD22R,0.8000X0.5000*%
%ADD23R,3.4300X1.7800*%
%ADD24R,0.6500X0.7000*%
%ADD25R,0.7000X0.6500*%
%ADD26R,1.3500X0.3500*%
%ADD27R,0.3500X1.3500*%
%ADD28R,0.8500X0.7500*%
G04:AMPARAMS|DCode=29|XSize=1.1mm|YSize=0.6mm|CornerRadius=0.051mm|HoleSize=0mm|Usage=FLASHONLY|Rotation=0.000|XOffset=0mm|YOffset=0mm|HoleType=Round|Shape=RoundedRectangle|*
%AMROUNDEDRECTD29*
21,1,1.1000,0.4980,0,0,0.0*
21,1,0.9980,0.6000,0,0,0.0*
1,1,0.1020,0.4990,-0.2490*
1,1,0.1020,-0.4990,-0.2490*
1,1,0.1020,-0.4990,0.2490*
1,1,0.1020,0.4990,0.2490*
%
%ADD29ROUNDEDRECTD29*%
%ADD30R,0.7500X0.8500*%
%ADD31R,1.1311X0.9121*%
%ADD32R,0.7000X0.7000*%
%ADD33R,1.9000X0.9500*%
%ADD34R,1.9000X3.2500*%
%ADD35R,0.8500X0.3500*%
%ADD36R,0.6000X0.8000*%
%ADD37R,0.8000X0.9500*%
%ADD38R,0.6500X0.3500*%
%ADD39R,0.4250X0.3700*%
%ADD40R,1.8000X0.8000*%
%ADD41R,0.8000X0.8000*%
%ADD42R,0.7500X0.3000*%
%ADD43R,1.1000X0.9500*%
%ADD44R,1.8000X1.2000*%
%ADD45R,1.5250X0.6500*%
%ADD46R,3.1000X2.2000*%
%ADD47R,1.6000X2.8000*%
%ADD48R,1.5000X1.5200*%
%ADD49R,1.4562X1.3781*%
%ADD50R,0.9000X0.8500*%
%ADD51R,1.0500X0.9000*%
%ADD52R,0.4000X1.2000*%
%ADD53R,2.2500X0.9000*%
%ADD54R,1.1000X1.1000*%
%ADD55R,0.8000X1.0000*%
%ADD56R,0.7000X0.9000*%
%ADD57R,0.2000X0.9500*%
%ADD58R,6.3000X5.5500*%
%ADD59R,1.7800X3.1500*%
%ADD60R,0.8500X0.9000*%
%ADD61R,0.9500X0.2000*%
%ADD62R,0.3000X0.7500*%
%ADD63R,0.9500X1.3500*%
%ADD64R,0.9000X0.7500*%
%ADD65R,0.9000X0.8000*%
%ADD66R,0.3500X0.6500*%
%ADD67R,0.6500X0.7500*%
%ADD68R,0.9500X1.1000*%
%ADD69R,0.8500X0.8500*%
%ADD70R,0.6725X0.7154*%
%ADD71R,0.7500X0.9000*%
%ADD72R,0.7400X0.7800*%
%ADD73R,0.5153X0.4725*%
%ADD74R,0.7400X0.9200*%
%ADD75R,2.0000X1.0000*%
%ADD76R,1.1000X1.5000*%
%ADD77R,1.8700X1.6000*%
%ADD78R,1.0200X0.8400*%
%ADD79R,1.9500X1.2000*%
%ADD80R,1.5500X1.3000*%
%ADD81R,0.7000X0.7000*%
%ADD82R,2.6000X2.7000*%
%ADD83R,0.3500X0.8000*%
%ADD84R,1.0500X0.9500*%
%ADD85R,4.8000X4.8000*%
%ADD86R,2.2000X1.5500*%
%ADD87R,3.2000X2.1000*%
%ADD88R,1.6500X1.5000*%
%ADD89R,4.1700X1.5500*%
%ADD163R,1.3700X1.3700*%
%ADD164C,1.3700*%
%ADD165C,1.5500*%
%ADD166R,1.5500X1.5500*%
%ADD167C,2.0500*%
%ADD168R,2.0500X2.0500*%
%ADD169C,4.0000*%
%ADD170R,1.3700X1.3700*%
D17*
X1740830Y605790D02*
D03*
X1761830D02*
D03*
X1700870Y675640D02*
D03*
X1679870D02*
D03*
X322240Y22860D02*
D03*
X343240D02*
D03*
D18*
X482600Y88560D02*
D03*
Y109560D02*
D03*
X556260Y521290D02*
D03*
X575310Y520360D02*
D03*
X594360D02*
D03*
X556260Y542290D02*
D03*
X575310Y541360D02*
D03*
X594360D02*
D03*
D19*
X1311910Y63500D02*
D03*
X617220Y589280D02*
D03*
X662940Y160020D02*
D03*
X624840Y544830D02*
D03*
X1939290Y449580D02*
D03*
X762000Y259080D02*
D03*
D20*
X1701800Y662740D02*
D03*
Y650240D02*
D03*
X306070Y24230D02*
D03*
Y36730D02*
D03*
X1884680Y208130D02*
D03*
Y221130D02*
D03*
X594360Y494130D02*
D03*
X575310D02*
D03*
X556260D02*
D03*
Y506630D02*
D03*
X575310D02*
D03*
X594360D02*
D03*
D21*
X1642480Y675640D02*
D03*
X1656980D02*
D03*
X1870340Y246380D02*
D03*
X1855840D02*
D03*
D22*
X1859120Y262890D02*
D03*
X1839120D02*
D03*
D23*
X416560Y347980D02*
D03*
X334010Y44450D02*
D03*
X853440Y341630D02*
D03*
X772160Y316230D02*
D03*
X1334770Y402590D02*
D03*
X814070Y134620D02*
D03*
X803910Y213360D02*
D03*
X668660Y609600D02*
D03*
X939800Y59690D02*
D03*
X369570Y346710D02*
D03*
X701040Y574040D02*
D03*
X331470Y198120D02*
D03*
X149860Y73660D02*
D03*
X1315720Y157480D02*
D03*
X1739900Y474980D02*
D03*
X1323340Y118110D02*
D03*
X736600Y441960D02*
D03*
X1369060Y222250D02*
D03*
X784860Y429260D02*
D03*
X679450Y529590D02*
D03*
X322580Y355600D02*
D03*
X732790Y508000D02*
D03*
X1324610Y341630D02*
D03*
D24*
X54610Y104470D02*
D03*
Y113970D02*
D03*
X44450Y77800D02*
D03*
Y87300D02*
D03*
X124460Y160350D02*
D03*
Y169850D02*
D03*
Y128270D02*
D03*
Y137770D02*
D03*
X642620Y606730D02*
D03*
Y597230D02*
D03*
X1686560Y607390D02*
D03*
X1642110Y594690D02*
D03*
X628650Y486740D02*
D03*
X1779270Y487680D02*
D03*
X1802130D02*
D03*
X1813560D02*
D03*
X476250Y221920D02*
D03*
X487680Y222250D02*
D03*
X662940Y486740D02*
D03*
X651510Y496240D02*
D03*
X628650D02*
D03*
X1686560Y616890D02*
D03*
X476250Y212420D02*
D03*
X487680Y212750D02*
D03*
X651510Y486740D02*
D03*
X1790700Y487680D02*
D03*
X1642110Y604190D02*
D03*
X1813560Y497180D02*
D03*
X1802130D02*
D03*
X1790700D02*
D03*
X1779270D02*
D03*
X662940Y496240D02*
D03*
D25*
X123520Y52070D02*
D03*
X133020D02*
D03*
X1655470Y114300D02*
D03*
Y125730D02*
D03*
X331470Y269640D02*
D03*
X440360Y378460D02*
D03*
X145720Y92710D02*
D03*
X711860Y421640D02*
D03*
X711530Y411480D02*
D03*
X710590Y372110D02*
D03*
X708990Y311150D02*
D03*
Y321310D02*
D03*
Y294640D02*
D03*
Y284480D02*
D03*
Y264160D02*
D03*
X709320Y254000D02*
D03*
X290500Y233680D02*
D03*
X1849450Y542290D02*
D03*
X430860Y378460D02*
D03*
X136220Y92710D02*
D03*
X720700Y401320D02*
D03*
Y382270D02*
D03*
X718490Y294640D02*
D03*
X718820Y254000D02*
D03*
X711200Y401320D02*
D03*
X710260Y361950D02*
D03*
X711200Y382270D02*
D03*
X440360Y388620D02*
D03*
X1858950Y542290D02*
D03*
X1664970Y114300D02*
D03*
Y125730D02*
D03*
X672770Y189230D02*
D03*
X673100Y199390D02*
D03*
X281000Y233680D02*
D03*
X663600Y199390D02*
D03*
X721360Y421640D02*
D03*
X719760Y361950D02*
D03*
X718490Y311150D02*
D03*
Y284480D02*
D03*
X721030Y411480D02*
D03*
X720090Y372110D02*
D03*
X718490Y321310D02*
D03*
Y264160D02*
D03*
X430860Y388620D02*
D03*
X663270Y189230D02*
D03*
X331470Y256140D02*
D03*
D26*
X460170Y381670D02*
D03*
Y366670D02*
D03*
X672670Y256670D02*
D03*
Y416670D02*
D03*
Y411670D02*
D03*
Y366670D02*
D03*
Y311670D02*
D03*
Y316670D02*
D03*
Y301670D02*
D03*
Y286670D02*
D03*
Y291670D02*
D03*
Y281670D02*
D03*
Y276670D02*
D03*
X460170Y296670D02*
D03*
Y281670D02*
D03*
Y276670D02*
D03*
Y431670D02*
D03*
X672670Y406670D02*
D03*
Y271670D02*
D03*
Y361670D02*
D03*
Y371670D02*
D03*
Y306670D02*
D03*
X460170Y386670D02*
D03*
Y291670D02*
D03*
Y416670D02*
D03*
Y421670D02*
D03*
Y396670D02*
D03*
Y411670D02*
D03*
Y261670D02*
D03*
Y286670D02*
D03*
X672670Y426670D02*
D03*
X460170Y256670D02*
D03*
Y266670D02*
D03*
Y271670D02*
D03*
Y301670D02*
D03*
Y306670D02*
D03*
Y311670D02*
D03*
Y316670D02*
D03*
Y321670D02*
D03*
Y326670D02*
D03*
Y331670D02*
D03*
Y336670D02*
D03*
Y341670D02*
D03*
Y346670D02*
D03*
Y351670D02*
D03*
Y356670D02*
D03*
Y361670D02*
D03*
Y371670D02*
D03*
Y376670D02*
D03*
Y391670D02*
D03*
Y401670D02*
D03*
Y406670D02*
D03*
Y426670D02*
D03*
X672670Y431670D02*
D03*
Y421670D02*
D03*
Y401670D02*
D03*
Y396670D02*
D03*
Y391670D02*
D03*
Y386670D02*
D03*
Y381670D02*
D03*
Y376670D02*
D03*
Y356670D02*
D03*
Y351670D02*
D03*
Y346670D02*
D03*
Y341670D02*
D03*
Y336670D02*
D03*
Y331670D02*
D03*
Y326670D02*
D03*
Y321670D02*
D03*
Y296670D02*
D03*
Y266670D02*
D03*
Y261670D02*
D03*
D27*
X588920Y450420D02*
D03*
X593920D02*
D03*
X608920D02*
D03*
X613920D02*
D03*
X618920D02*
D03*
X633920D02*
D03*
X548920Y237920D02*
D03*
X573920D02*
D03*
X578920D02*
D03*
X638920Y450420D02*
D03*
X583920Y237920D02*
D03*
X533920D02*
D03*
X478920D02*
D03*
X483920D02*
D03*
X653920Y450420D02*
D03*
X578920D02*
D03*
X573920D02*
D03*
X568920D02*
D03*
X638920Y237920D02*
D03*
X593920D02*
D03*
X588920D02*
D03*
X523920D02*
D03*
X528920D02*
D03*
X598920D02*
D03*
X493920Y450420D02*
D03*
X623920D02*
D03*
X628920D02*
D03*
X563920Y237920D02*
D03*
X568920D02*
D03*
X603920D02*
D03*
X648920Y450420D02*
D03*
X643920D02*
D03*
X613920Y237920D02*
D03*
X608920D02*
D03*
X523920Y450420D02*
D03*
X528920D02*
D03*
X488920D02*
D03*
X478920D02*
D03*
X483920D02*
D03*
X498920D02*
D03*
X503920D02*
D03*
X508920D02*
D03*
X513920D02*
D03*
X518920D02*
D03*
X533920D02*
D03*
X538920D02*
D03*
X543920D02*
D03*
X548920D02*
D03*
X553920D02*
D03*
X558920D02*
D03*
X563920D02*
D03*
X583920D02*
D03*
X598920D02*
D03*
X603920D02*
D03*
X653920Y237920D02*
D03*
X633920D02*
D03*
X628920D02*
D03*
X623920D02*
D03*
X618920D02*
D03*
X558920D02*
D03*
X553920D02*
D03*
X543920D02*
D03*
X538920D02*
D03*
X518920D02*
D03*
X513920D02*
D03*
X508920D02*
D03*
X503920D02*
D03*
X498920D02*
D03*
X493920D02*
D03*
X488920D02*
D03*
X648920D02*
D03*
X643920D02*
D03*
D28*
X603890Y627230D02*
D03*
Y640230D02*
D03*
X1687830Y629620D02*
D03*
X1045210Y421790D02*
D03*
X1046480Y184150D02*
D03*
X876300Y411630D02*
D03*
X865990Y163980D02*
D03*
X830580Y404980D02*
D03*
X820420Y156060D02*
D03*
X1045210Y408790D02*
D03*
X1046480Y171150D02*
D03*
X426720Y257960D02*
D03*
X1687830Y642620D02*
D03*
X865990Y150980D02*
D03*
X820420Y169060D02*
D03*
X830580Y417980D02*
D03*
X876300Y398630D02*
D03*
X426720Y244960D02*
D03*
D29*
X672770Y649580D02*
D03*
X646770Y630580D02*
D03*
Y649580D02*
D03*
X672770Y630580D02*
D03*
X646770Y640080D02*
D03*
D30*
X629440D02*
D03*
X616440D02*
D03*
X1050440Y548640D02*
D03*
X1049170Y299720D02*
D03*
X1147930Y323850D02*
D03*
X1149200Y90170D02*
D03*
X1157120Y546100D02*
D03*
X1149500Y297180D02*
D03*
X830730Y185420D02*
D03*
X1765450Y496570D02*
D03*
X842160Y433070D02*
D03*
X1889610Y537210D02*
D03*
X1160930Y323850D02*
D03*
X1162200Y90170D02*
D03*
X1144120Y546100D02*
D03*
X1136500Y297180D02*
D03*
X1037440Y548640D02*
D03*
X1036170Y299720D02*
D03*
X438300Y288290D02*
D03*
X1752450Y496570D02*
D03*
X1902610Y537210D02*
D03*
X817730Y185420D02*
D03*
X829160Y433070D02*
D03*
X425300Y288290D02*
D03*
D31*
X616535Y655320D02*
D03*
X629345D02*
D03*
D32*
X659120Y668020D02*
D03*
X673120D02*
D03*
X266700Y276860D02*
D03*
X1758330Y590550D02*
D03*
Y558800D02*
D03*
X669910Y467360D02*
D03*
X1845960Y506730D02*
D03*
X1831960D02*
D03*
X1744330Y558800D02*
D03*
X1744980Y574040D02*
D03*
X1758980D02*
D03*
X1744330Y590550D02*
D03*
X846290Y187960D02*
D03*
X860290D02*
D03*
X252700Y276860D02*
D03*
X683910Y467360D02*
D03*
X871870Y438150D02*
D03*
X857870D02*
D03*
X475630Y467360D02*
D03*
X461630D02*
D03*
X598790Y468630D02*
D03*
X612790D02*
D03*
X1657350Y601980D02*
D03*
X1671350D02*
D03*
D33*
X1066760Y241160D02*
D03*
Y264160D02*
D03*
Y287160D02*
D03*
X1167173Y263890D02*
D03*
X1167110Y160020D02*
D03*
X1065510Y420510D02*
D03*
X1066760Y183020D02*
D03*
X1065510Y527190D02*
D03*
X1162030Y420510D02*
D03*
X1167110Y183020D02*
D03*
X1162030Y527190D02*
D03*
X1167173Y286890D02*
D03*
X1162030Y374510D02*
D03*
X1065510Y397510D02*
D03*
X1167110Y137020D02*
D03*
X1066760Y160020D02*
D03*
X1162030Y481190D02*
D03*
X1065510Y504190D02*
D03*
X1167173Y240890D02*
D03*
X1065510Y374510D02*
D03*
Y481190D02*
D03*
X1066760Y137020D02*
D03*
X1162030Y504190D02*
D03*
Y397510D02*
D03*
D34*
X1127760Y264160D02*
D03*
X1228173Y263890D02*
D03*
X1228110Y160020D02*
D03*
X1126510Y397510D02*
D03*
X1127760Y160020D02*
D03*
X1126510Y504190D02*
D03*
X1223030D02*
D03*
Y397510D02*
D03*
D35*
X318046Y285796D02*
D03*
X278546Y275796D02*
D03*
X318046Y270796D02*
D03*
Y290796D02*
D03*
X278546Y265796D02*
D03*
X318046D02*
D03*
Y275796D02*
D03*
Y280796D02*
D03*
X278546Y270796D02*
D03*
Y280796D02*
D03*
Y285796D02*
D03*
Y290796D02*
D03*
D36*
X1870010Y208280D02*
D03*
X1858010Y222280D02*
D03*
X1870010D02*
D03*
X1858010Y208280D02*
D03*
D37*
X1890880Y274320D02*
D03*
X1903880D02*
D03*
X1831190Y115570D02*
D03*
X1844190D02*
D03*
X1829920Y222250D02*
D03*
X1842920D02*
D03*
D38*
X1891030Y261620D02*
D03*
Y253120D02*
D03*
D39*
X1884680Y234950D02*
D03*
X1891440Y244950D02*
D03*
X1884680Y239950D02*
D03*
Y244950D02*
D03*
X1891440Y234950D02*
D03*
Y239950D02*
D03*
D40*
X1811020Y116090D02*
D03*
Y201090D02*
D03*
X1691020Y127090D02*
D03*
Y138090D02*
D03*
X1811020Y223090D02*
D03*
Y190090D02*
D03*
Y127090D02*
D03*
X1691020Y94090D02*
D03*
Y105090D02*
D03*
Y116090D02*
D03*
Y149090D02*
D03*
Y160090D02*
D03*
Y190090D02*
D03*
Y201090D02*
D03*
Y212090D02*
D03*
Y223090D02*
D03*
Y234090D02*
D03*
X1811020D02*
D03*
Y212090D02*
D03*
Y160090D02*
D03*
Y149090D02*
D03*
Y138090D02*
D03*
Y105090D02*
D03*
Y94090D02*
D03*
D41*
X1848999Y99059D02*
D03*
X1833999D02*
D03*
D42*
X1840040Y534820D02*
D03*
Y547820D02*
D03*
Y541320D02*
D03*
Y560820D02*
D03*
X1780540Y528320D02*
D03*
X1840040Y554320D02*
D03*
X1780540Y560820D02*
D03*
Y547820D02*
D03*
Y541320D02*
D03*
Y534820D02*
D03*
X1840040Y567320D02*
D03*
X1780540D02*
D03*
Y554320D02*
D03*
X1840040Y528320D02*
D03*
D43*
X636270Y195210D02*
D03*
X552450Y173090D02*
D03*
X1727200Y542660D02*
D03*
Y557160D02*
D03*
X636270Y180710D02*
D03*
X552450Y187590D02*
D03*
D44*
X614360Y197420D02*
D03*
X574360Y173420D02*
D03*
Y197420D02*
D03*
X614360Y173420D02*
D03*
D45*
X909510Y127487D02*
D03*
X910140Y240030D02*
D03*
X912680Y341630D02*
D03*
Y354330D02*
D03*
X909510Y114787D02*
D03*
Y102087D02*
D03*
X911410Y454660D02*
D03*
Y467360D02*
D03*
X910140Y227330D02*
D03*
Y214630D02*
D03*
X965650Y467360D02*
D03*
Y441960D02*
D03*
X964380Y227330D02*
D03*
Y201930D02*
D03*
X966920Y354330D02*
D03*
Y328930D02*
D03*
X963750Y114787D02*
D03*
Y89387D02*
D03*
X965650Y480060D02*
D03*
X964380Y240030D02*
D03*
X966920Y367030D02*
D03*
X963750Y127487D02*
D03*
X966920Y341630D02*
D03*
X963750Y102087D02*
D03*
X965650Y454660D02*
D03*
X964380Y214630D02*
D03*
X911410Y480060D02*
D03*
X912680Y367030D02*
D03*
X910140Y201930D02*
D03*
X909510Y89387D02*
D03*
X912680Y328930D02*
D03*
X911410Y441960D02*
D03*
D46*
X1208440Y109220D02*
D03*
Y213360D02*
D03*
X962060Y519430D02*
D03*
X949360Y284480D02*
D03*
X964600Y407670D02*
D03*
X951230Y165100D02*
D03*
X1109380Y344170D02*
D03*
X1108110Y109220D02*
D03*
X1109380Y450850D02*
D03*
Y212090D02*
D03*
X1205900Y450850D02*
D03*
Y344170D02*
D03*
D47*
X1270000Y184240D02*
D03*
X1264920Y419190D02*
D03*
X1270000Y227240D02*
D03*
X1264920Y462190D02*
D03*
D48*
X919030Y165100D02*
D03*
X917160Y284480D02*
D03*
X1173700Y344170D02*
D03*
X1176240Y109220D02*
D03*
X1173700Y450850D02*
D03*
X1176240Y213360D02*
D03*
X1077180Y344170D02*
D03*
Y450850D02*
D03*
X1075910Y109220D02*
D03*
X1077180Y212090D02*
D03*
X932400Y407670D02*
D03*
X929860Y519430D02*
D03*
D49*
X886460Y279421D02*
D03*
X887730Y165121D02*
D03*
X900430Y518181D02*
D03*
X902970Y408961D02*
D03*
X887730Y149839D02*
D03*
X886460Y264139D02*
D03*
X902970Y393679D02*
D03*
X900430Y502899D02*
D03*
D50*
X1673860Y630070D02*
D03*
Y617070D02*
D03*
D51*
X1703070Y628280D02*
D03*
Y613780D02*
D03*
D52*
X1655110Y638810D02*
D03*
X1642110D02*
D03*
Y619810D02*
D03*
X1648610D02*
D03*
X1655110D02*
D03*
D53*
X1620340Y657800D02*
D03*
Y612200D02*
D03*
D54*
X1643230Y657860D02*
D03*
X1656230D02*
D03*
D55*
X1672590D02*
D03*
X1620400Y590550D02*
D03*
X1898530Y604170D02*
D03*
X1883530D02*
D03*
X1895990Y634650D02*
D03*
X1880990D02*
D03*
X1687590Y657860D02*
D03*
X1605400Y590550D02*
D03*
D56*
X996330Y441960D02*
D03*
X995060Y201930D02*
D03*
X997600Y328930D02*
D03*
X995060Y88900D02*
D03*
X997600Y354330D02*
D03*
X995060Y114300D02*
D03*
X996330Y467360D02*
D03*
X995060Y227330D02*
D03*
X982330Y467360D02*
D03*
Y441960D02*
D03*
X981060Y227330D02*
D03*
Y201930D02*
D03*
X983600Y354330D02*
D03*
Y328930D02*
D03*
X981060Y114300D02*
D03*
Y88900D02*
D03*
D57*
X834900Y172480D02*
D03*
X849440Y403980D02*
D03*
X838900Y157480D02*
D03*
X849440Y418980D02*
D03*
X838900Y172480D02*
D03*
X845440Y418980D02*
D03*
Y403980D02*
D03*
X834900Y157480D02*
D03*
X853440Y418980D02*
D03*
X857440D02*
D03*
X861440D02*
D03*
Y403980D02*
D03*
X857440D02*
D03*
X853440D02*
D03*
X842900Y172480D02*
D03*
X846900D02*
D03*
X850900D02*
D03*
Y157480D02*
D03*
X846900D02*
D03*
X842900D02*
D03*
D58*
X1554340Y635000D02*
D03*
D59*
X1500620Y633730D02*
D03*
X1448320D02*
D03*
D60*
X965350Y495300D02*
D03*
X964080Y255270D02*
D03*
X966620Y382270D02*
D03*
X962810Y142240D02*
D03*
X953620Y382270D02*
D03*
X949810Y142240D02*
D03*
X952350Y495300D02*
D03*
X951080Y255270D02*
D03*
D61*
X862440Y411480D02*
D03*
X851900Y164980D02*
D03*
X844440Y411480D02*
D03*
X833900Y164980D02*
D03*
D62*
X1810290Y518070D02*
D03*
X1803790D02*
D03*
X1797290D02*
D03*
X1790790D02*
D03*
X1810290Y577570D02*
D03*
X1829790D02*
D03*
X1816790Y518070D02*
D03*
X1823290D02*
D03*
X1829790D02*
D03*
X1823290Y577570D02*
D03*
X1816790D02*
D03*
X1803790D02*
D03*
X1797290D02*
D03*
X1790790D02*
D03*
D63*
X1144390Y63500D02*
D03*
X1577580Y57150D02*
D03*
X1159390Y63500D02*
D03*
X1592580Y57150D02*
D03*
D64*
X1780540Y603950D02*
D03*
X1816100Y603600D02*
D03*
X1847850Y648970D02*
D03*
X1816100Y615600D02*
D03*
X1780540Y615950D02*
D03*
X1847850Y660970D02*
D03*
D65*
X1798320Y603370D02*
D03*
Y618370D02*
D03*
D66*
X1830900Y602900D02*
D03*
X1839400D02*
D03*
D67*
X1746250Y542290D02*
D03*
X1756250Y529290D02*
D03*
X1746250D02*
D03*
X1756250Y542290D02*
D03*
D68*
X1756040Y515620D02*
D03*
X1741540D02*
D03*
D69*
X1850390Y613730D02*
D03*
Y602230D02*
D03*
D70*
Y626054D02*
D03*
X1865630Y580684D02*
D03*
X1850390Y635626D02*
D03*
X1865630Y590256D02*
D03*
D71*
X1883760Y618140D02*
D03*
X1895760D02*
D03*
D72*
X1850390Y590020D02*
D03*
Y580220D02*
D03*
D73*
X1863090Y634650D02*
D03*
X1870661D02*
D03*
D74*
X1860700Y647350D02*
D03*
X1873100D02*
D03*
D75*
X212865Y333715D02*
D03*
Y345715D02*
D03*
D76*
X99165Y327215D02*
D03*
D77*
X18615Y385915D02*
D03*
D78*
X1885950Y648270D02*
D03*
Y661670D02*
D03*
D79*
X171215Y530665D02*
D03*
Y555665D02*
D03*
Y375665D02*
D03*
Y390665D02*
D03*
Y505665D02*
D03*
Y430665D02*
D03*
Y480665D02*
D03*
Y455665D02*
D03*
Y405665D02*
D03*
D80*
X444120Y574400D02*
D03*
X523620D02*
D03*
Y619400D02*
D03*
X444120D02*
D03*
D81*
X424180Y575310D02*
D03*
X264160Y305450D02*
D03*
Y291450D02*
D03*
X688340Y398160D02*
D03*
Y384160D02*
D03*
X443230Y251460D02*
D03*
Y237460D02*
D03*
X689610Y432420D02*
D03*
Y446420D02*
D03*
X424180Y589310D02*
D03*
D82*
X298296Y278296D02*
D03*
D83*
X285796Y258296D02*
D03*
X290796D02*
D03*
X295796D02*
D03*
X300796D02*
D03*
X305796D02*
D03*
X310796D02*
D03*
X285796Y298296D02*
D03*
X290796D02*
D03*
X295796D02*
D03*
X300796D02*
D03*
X305796D02*
D03*
X310796D02*
D03*
D84*
X1732280Y110120D02*
D03*
Y95620D02*
D03*
D85*
X1810290Y547820D02*
D03*
D86*
X207465Y604965D02*
D03*
D87*
X254265Y580915D02*
D03*
Y342915D02*
D03*
D88*
X17515Y327215D02*
D03*
D89*
X30115Y604965D02*
D03*
D163*
X433070Y670560D02*
D03*
X1043940Y675640D02*
D03*
X1083310Y659130D02*
D03*
X1259840Y585470D02*
D03*
X1156970Y39370D02*
D03*
X1623060Y30480D02*
D03*
X1518920Y679450D02*
D03*
X1383030Y585470D02*
D03*
D164*
X458470Y670560D02*
D03*
X483870D02*
D03*
X509270D02*
D03*
X534670D02*
D03*
X560070D02*
D03*
X1018540Y675640D02*
D03*
X993140D02*
D03*
X967740D02*
D03*
X942340D02*
D03*
X916940D02*
D03*
X891540D02*
D03*
X866140D02*
D03*
Y650240D02*
D03*
X891540D02*
D03*
X916940D02*
D03*
X942340D02*
D03*
X967740D02*
D03*
X993140D02*
D03*
X1018540D02*
D03*
X1043940D02*
D03*
X575310Y636270D02*
D03*
X73660Y226060D02*
D03*
Y251460D02*
D03*
X1459230Y585470D02*
D03*
X1433830D02*
D03*
X1468120Y679450D02*
D03*
X1442720D02*
D03*
X1159510Y659130D02*
D03*
X1134110D02*
D03*
X1336040Y585470D02*
D03*
X1310640D02*
D03*
X1106170Y39370D02*
D03*
X1080770D02*
D03*
X1572260Y30480D02*
D03*
X1546860D02*
D03*
X1108710Y659130D02*
D03*
X1285240Y585470D02*
D03*
X1131570Y39370D02*
D03*
X1597660Y30480D02*
D03*
X684530Y76200D02*
D03*
Y101600D02*
D03*
X1493520Y679450D02*
D03*
X684530Y50800D02*
D03*
X1408430Y585470D02*
D03*
D165*
X101712Y52410D02*
D03*
Y77810D02*
D03*
Y103210D02*
D03*
Y128610D02*
D03*
Y154010D02*
D03*
X76312Y52410D02*
D03*
Y77810D02*
D03*
Y103210D02*
D03*
Y128610D02*
D03*
D166*
Y154010D02*
D03*
D167*
X1974850Y299720D02*
D03*
Y248920D02*
D03*
X1924050D02*
D03*
Y299720D02*
D03*
X1973580Y628650D02*
D03*
Y577850D02*
D03*
X1922780D02*
D03*
Y628650D02*
D03*
D168*
X1949450Y274320D02*
D03*
X1948180Y603250D02*
D03*
D169*
X753110Y191770D02*
D03*
X1296670Y505460D02*
D03*
X1250760Y649770D02*
D03*
Y49770D02*
D03*
X1750760D02*
D03*
Y649770D02*
D03*
X750760Y49770D02*
D03*
X250760D02*
D03*
X750760Y649770D02*
D03*
X250760D02*
D03*
D170*
X575310Y610870D02*
D03*
X73660Y200660D02*
D03*
X684530Y25400D02*
D03*
M02*
