G04*
G04 #@! TF.GenerationSoftware,Altium Limited,Altium Designer,23.7.1 (13)*
G04*
G04 Layer_Color=16711935*
%FSLAX44Y44*%
%MOMM*%
G71*
G04*
G04 #@! TF.SameCoordinates,9AC6D79B-6B5E-4FBD-9D38-37E555C90168*
G04*
G04*
G04 #@! TF.FilePolarity,Positive*
G04*
G01*
G75*
%ADD13C,0.1000*%
%ADD15C,0.2540*%
%ADD201C,0.1524*%
D13*
X411480Y143158D02*
Y138160D01*
X410480Y137160D01*
X408481D01*
X407481Y138160D01*
Y143158D01*
X401483D02*
X405482D01*
Y140159D01*
X403483Y141159D01*
X402483D01*
X401483Y140159D01*
Y138160D01*
X402483Y137160D01*
X404482D01*
X405482Y138160D01*
D15*
X1785000Y49770D02*
G03*
X1785000Y49770I-35000J0D01*
G01*
X1785760Y649770D02*
G03*
X1785760Y649770I-35000J0D01*
G01*
X285000Y49770D02*
G03*
X285000Y49770I-35000J0D01*
G01*
X285760Y649770D02*
G03*
X285760Y649770I-35000J0D01*
G01*
X788110Y191770D02*
G03*
X788110Y191770I-35000J0D01*
G01*
X1331670Y505460D02*
G03*
X1331670Y505460I-35000J0D01*
G01*
X1285760Y649770D02*
G03*
X1285760Y649770I-35000J0D01*
G01*
Y49770D02*
G03*
X1285760Y49770I-35000J0D01*
G01*
X785000D02*
G03*
X785000Y49770I-35000J0D01*
G01*
X785760Y649770D02*
G03*
X785760Y649770I-35000J0D01*
G01*
X1997710Y699770D02*
X2002790D01*
X1997710Y635000D02*
X2002790D01*
X2000250Y699770D02*
X2005330Y715010D01*
X1995170D02*
X2000250Y699770D01*
Y635000D02*
X2005330Y619760D01*
X1995170D02*
X2000250Y635000D01*
Y699770D02*
Y725170D01*
Y609600D02*
Y635000D01*
X-20826Y700888D02*
X-15746D01*
X-20826Y1118D02*
X-15746D01*
X-18285Y700888D02*
X-13205Y685648D01*
X-23365D02*
X-18285Y700888D01*
Y1118D02*
X-13205Y16358D01*
X-23365D02*
X-18285Y1118D01*
Y431243D02*
Y700888D01*
Y1118D02*
Y270764D01*
X750760Y756920D02*
X766000Y762000D01*
X750760Y756920D02*
X766000Y751840D01*
X986790D02*
X1002030Y756920D01*
X986790Y762000D02*
X1002030Y756920D01*
X750760D02*
X833988D01*
X910674D02*
X1002030D01*
X750760Y673326D02*
Y759460D01*
X1002030Y709930D02*
Y759460D01*
X1250760Y-31750D02*
X1266000Y-26670D01*
X1250760Y-31750D02*
X1266000Y-36830D01*
X1735520D02*
X1750760Y-31750D01*
X1735520Y-26670D02*
X1750760Y-31750D01*
X1250760D02*
X1457083D01*
X1536308D02*
X1750760D01*
X1250760Y-34290D02*
Y26214D01*
X1750760Y-34290D02*
Y26214D01*
X750760Y-30480D02*
X766000Y-25400D01*
X750760Y-30480D02*
X766000Y-35560D01*
X1235520D02*
X1250760Y-30480D01*
X1235520Y-25400D02*
X1250760Y-30480D01*
X750760D02*
X957084D01*
X1036309D02*
X1250760D01*
X750760Y-33020D02*
Y26214D01*
X1250760Y-33020D02*
Y26214D01*
X250760Y-30480D02*
X266000Y-25400D01*
X250760Y-30480D02*
X266000Y-35560D01*
X735520D02*
X750760Y-30480D01*
X735520Y-25400D02*
X750760Y-30480D01*
X250760D02*
X457084D01*
X536309D02*
X750760D01*
X250760Y-33020D02*
Y26214D01*
X750760Y-33020D02*
Y26214D01*
X1250760Y802640D02*
X1266000Y807720D01*
X1250760Y802640D02*
X1266000Y797560D01*
X1735520D02*
X1750760Y802640D01*
X1735520Y807720D02*
X1750760Y802640D01*
X1250760D02*
X1457083D01*
X1536308D02*
X1750760D01*
X1250760Y673326D02*
Y805180D01*
X1750760Y673326D02*
Y805180D01*
X750760Y802640D02*
X766000Y807720D01*
X750760Y802640D02*
X766000Y797560D01*
X1235520D02*
X1250760Y802640D01*
X1235520Y807720D02*
X1250760Y802640D01*
X750760D02*
X957084D01*
X1036309D02*
X1250760D01*
X750760Y673326D02*
Y805180D01*
X1250760Y673326D02*
Y805180D01*
X250760Y801370D02*
X266000Y806450D01*
X250760Y801370D02*
X266000Y796290D01*
X735520D02*
X750760Y801370D01*
X735520Y806450D02*
X750760Y801370D01*
X250760D02*
X457084D01*
X536309D02*
X750760D01*
X250760Y673326D02*
Y803910D01*
X750760Y673326D02*
Y803910D01*
X0Y726440D02*
X15240Y731520D01*
X0Y726440D02*
X15240Y721360D01*
X986790D02*
X1002030Y726440D01*
X986790Y731520D02*
X1002030Y726440D01*
X0D02*
X450990D01*
X542911D02*
X1002030D01*
X0Y702540D02*
Y728980D01*
X1002030Y709930D02*
Y728980D01*
X0Y909320D02*
X15240Y914400D01*
X0Y909320D02*
X15240Y904240D01*
X1985010D02*
X2000250Y909320D01*
X1985010Y914400D02*
X2000250Y909320D01*
X0D02*
X948831D01*
X1043291D02*
X2000250D01*
X0Y702540D02*
Y911860D01*
X2000250Y699770D02*
Y911860D01*
D201*
X2021581Y607460D02*
X2024120Y602382D01*
X2029199Y597303D01*
X2034277D01*
X2036816Y599842D01*
Y604921D01*
X2034277Y607460D01*
X2031738D01*
X2029199Y604921D01*
Y597303D01*
X2036816Y612538D02*
X2034277D01*
Y615078D01*
X2036816D01*
Y612538D01*
Y632852D02*
X2021581D01*
X2029199Y625234D01*
Y635391D01*
X2021581Y640469D02*
Y650626D01*
X2024120D01*
X2034277Y640469D01*
X2036816D01*
X2021581Y655704D02*
Y665861D01*
X2024120D01*
X2034277Y655704D01*
X2036816D01*
Y691253D02*
X2031738Y686174D01*
X2026659D01*
X2021581Y691253D01*
X2036816Y698870D02*
X2026659D01*
Y701410D01*
X2029199Y703949D01*
X2036816D01*
X2029199D01*
X2026659Y706488D01*
X2029199Y709027D01*
X2036816D01*
Y714105D02*
X2026659D01*
Y716645D01*
X2029199Y719184D01*
X2036816D01*
X2029199D01*
X2026659Y721723D01*
X2029199Y724262D01*
X2036816D01*
Y729341D02*
X2031738Y734419D01*
X2026659D01*
X2021581Y729341D01*
X-24379Y283461D02*
X-21840Y278382D01*
X-16761Y273304D01*
X-11683D01*
X-9144Y275843D01*
Y280921D01*
X-11683Y283461D01*
X-14222D01*
X-16761Y280921D01*
Y273304D01*
X-11683Y288539D02*
X-9144Y291078D01*
Y296157D01*
X-11683Y298696D01*
X-21840D01*
X-24379Y296157D01*
Y291078D01*
X-21840Y288539D01*
X-19301D01*
X-16761Y291078D01*
Y298696D01*
X-9144Y303774D02*
X-11683D01*
Y306313D01*
X-9144D01*
Y303774D01*
X-11683Y316470D02*
X-9144Y319009D01*
Y324088D01*
X-11683Y326627D01*
X-21840D01*
X-24379Y324088D01*
Y319009D01*
X-21840Y316470D01*
X-19301D01*
X-16761Y319009D01*
Y326627D01*
X-24379Y331705D02*
Y341862D01*
X-21840D01*
X-11683Y331705D01*
X-9144D01*
X-24379Y346940D02*
Y357097D01*
X-21840D01*
X-11683Y346940D01*
X-9144D01*
Y382489D02*
X-14222Y377410D01*
X-19301D01*
X-24379Y382489D01*
X-9144Y390106D02*
X-19301D01*
Y392645D01*
X-16761Y395185D01*
X-9144D01*
X-16761D01*
X-19301Y397724D01*
X-16761Y400263D01*
X-9144D01*
Y405341D02*
X-19301D01*
Y407881D01*
X-16761Y410420D01*
X-9144D01*
X-16761D01*
X-19301Y412959D01*
X-16761Y415498D01*
X-9144D01*
Y420576D02*
X-14222Y425655D01*
X-19301D01*
X-24379Y420576D01*
X848209Y745239D02*
X838052D01*
X848209Y755396D01*
Y757935D01*
X845670Y760474D01*
X840591D01*
X838052Y757935D01*
X863444Y760474D02*
X853287D01*
Y752857D01*
X858365Y755396D01*
X860905D01*
X863444Y752857D01*
Y747778D01*
X860905Y745239D01*
X855826D01*
X853287Y747778D01*
X871061Y742700D02*
X873601Y745239D01*
Y747778D01*
X871061D01*
Y745239D01*
X873601D01*
X871061Y742700D01*
X868522Y740161D01*
X883757Y745239D02*
X888836D01*
X886296D01*
Y760474D01*
X883757Y757935D01*
X896453D02*
X898992Y760474D01*
X904071D01*
X906610Y757935D01*
Y755396D01*
X904071Y752857D01*
X901532D01*
X904071D01*
X906610Y750318D01*
Y747778D01*
X904071Y745239D01*
X898992D01*
X896453Y747778D01*
X1471304Y-28196D02*
X1461147D01*
Y-35813D01*
X1466226Y-33274D01*
X1468765D01*
X1471304Y-35813D01*
Y-40891D01*
X1468765Y-43431D01*
X1463687D01*
X1461147Y-40891D01*
X1476383Y-30735D02*
X1478922Y-28196D01*
X1484000D01*
X1486539Y-30735D01*
Y-40891D01*
X1484000Y-43431D01*
X1478922D01*
X1476383Y-40891D01*
Y-30735D01*
X1494157Y-45970D02*
X1496696Y-43431D01*
Y-40891D01*
X1494157D01*
Y-43431D01*
X1496696D01*
X1494157Y-45970D01*
X1491618Y-48509D01*
X1506853Y-30735D02*
X1509392Y-28196D01*
X1514470D01*
X1517009Y-30735D01*
Y-40891D01*
X1514470Y-43431D01*
X1509392D01*
X1506853Y-40891D01*
Y-30735D01*
X1522088D02*
X1524627Y-28196D01*
X1529705D01*
X1532245Y-30735D01*
Y-40891D01*
X1529705Y-43431D01*
X1524627D01*
X1522088Y-40891D01*
Y-30735D01*
X971304Y-26926D02*
X961148D01*
Y-34543D01*
X966226Y-32004D01*
X968765D01*
X971304Y-34543D01*
Y-39622D01*
X968765Y-42161D01*
X963687D01*
X961148Y-39622D01*
X976383Y-29465D02*
X978922Y-26926D01*
X984000D01*
X986539Y-29465D01*
Y-39622D01*
X984000Y-42161D01*
X978922D01*
X976383Y-39622D01*
Y-29465D01*
X994157Y-44700D02*
X996696Y-42161D01*
Y-39622D01*
X994157D01*
Y-42161D01*
X996696D01*
X994157Y-44700D01*
X991618Y-47239D01*
X1006853Y-29465D02*
X1009392Y-26926D01*
X1014470D01*
X1017009Y-29465D01*
Y-39622D01*
X1014470Y-42161D01*
X1009392D01*
X1006853Y-39622D01*
Y-29465D01*
X1022088D02*
X1024627Y-26926D01*
X1029705D01*
X1032244Y-29465D01*
Y-39622D01*
X1029705Y-42161D01*
X1024627D01*
X1022088Y-39622D01*
Y-29465D01*
X471304Y-26926D02*
X461147D01*
Y-34543D01*
X466226Y-32004D01*
X468765D01*
X471304Y-34543D01*
Y-39622D01*
X468765Y-42161D01*
X463687D01*
X461147Y-39622D01*
X476383Y-29465D02*
X478922Y-26926D01*
X484000D01*
X486539Y-29465D01*
Y-39622D01*
X484000Y-42161D01*
X478922D01*
X476383Y-39622D01*
Y-29465D01*
X494157Y-44700D02*
X496696Y-42161D01*
Y-39622D01*
X494157D01*
Y-42161D01*
X496696D01*
X494157Y-44700D01*
X491618Y-47239D01*
X506853Y-29465D02*
X509392Y-26926D01*
X514470D01*
X517009Y-29465D01*
Y-39622D01*
X514470Y-42161D01*
X509392D01*
X506853Y-39622D01*
Y-29465D01*
X522088D02*
X524627Y-26926D01*
X529705D01*
X532244Y-29465D01*
Y-39622D01*
X529705Y-42161D01*
X524627D01*
X522088Y-39622D01*
Y-29465D01*
X1471304Y806194D02*
X1461147D01*
Y798577D01*
X1466226Y801116D01*
X1468765D01*
X1471304Y798577D01*
Y793499D01*
X1468765Y790959D01*
X1463687D01*
X1461147Y793499D01*
X1476383Y803655D02*
X1478922Y806194D01*
X1484000D01*
X1486539Y803655D01*
Y793499D01*
X1484000Y790959D01*
X1478922D01*
X1476383Y793499D01*
Y803655D01*
X1494157Y788420D02*
X1496696Y790959D01*
Y793499D01*
X1494157D01*
Y790959D01*
X1496696D01*
X1494157Y788420D01*
X1491618Y785881D01*
X1506853Y803655D02*
X1509392Y806194D01*
X1514470D01*
X1517009Y803655D01*
Y793499D01*
X1514470Y790959D01*
X1509392D01*
X1506853Y793499D01*
Y803655D01*
X1522088D02*
X1524627Y806194D01*
X1529705D01*
X1532245Y803655D01*
Y793499D01*
X1529705Y790959D01*
X1524627D01*
X1522088Y793499D01*
Y803655D01*
X971304Y806194D02*
X961148D01*
Y798577D01*
X966226Y801116D01*
X968765D01*
X971304Y798577D01*
Y793499D01*
X968765Y790959D01*
X963687D01*
X961148Y793499D01*
X976383Y803655D02*
X978922Y806194D01*
X984000D01*
X986539Y803655D01*
Y793499D01*
X984000Y790959D01*
X978922D01*
X976383Y793499D01*
Y803655D01*
X994157Y788420D02*
X996696Y790959D01*
Y793499D01*
X994157D01*
Y790959D01*
X996696D01*
X994157Y788420D01*
X991618Y785881D01*
X1006853Y803655D02*
X1009392Y806194D01*
X1014470D01*
X1017009Y803655D01*
Y793499D01*
X1014470Y790959D01*
X1009392D01*
X1006853Y793499D01*
Y803655D01*
X1022088D02*
X1024627Y806194D01*
X1029705D01*
X1032244Y803655D01*
Y793499D01*
X1029705Y790959D01*
X1024627D01*
X1022088Y793499D01*
Y803655D01*
X471304Y804924D02*
X461147D01*
Y797307D01*
X466226Y799846D01*
X468765D01*
X471304Y797307D01*
Y792228D01*
X468765Y789689D01*
X463687D01*
X461147Y792228D01*
X476383Y802385D02*
X478922Y804924D01*
X484000D01*
X486539Y802385D01*
Y792228D01*
X484000Y789689D01*
X478922D01*
X476383Y792228D01*
Y802385D01*
X494157Y787150D02*
X496696Y789689D01*
Y792228D01*
X494157D01*
Y789689D01*
X496696D01*
X494157Y787150D01*
X491618Y784611D01*
X506853Y802385D02*
X509392Y804924D01*
X514470D01*
X517009Y802385D01*
Y792228D01*
X514470Y789689D01*
X509392D01*
X506853Y792228D01*
Y802385D01*
X522088D02*
X524627Y804924D01*
X529705D01*
X532244Y802385D01*
Y792228D01*
X529705Y789689D01*
X524627D01*
X522088Y792228D01*
Y802385D01*
X455055Y714759D02*
X460133D01*
X457594D01*
Y729994D01*
X455055Y727455D01*
X467750D02*
X470290Y729994D01*
X475368D01*
X477907Y727455D01*
Y717299D01*
X475368Y714759D01*
X470290D01*
X467750Y717299D01*
Y727455D01*
X482985D02*
X485525Y729994D01*
X490603D01*
X493142Y727455D01*
Y717299D01*
X490603Y714759D01*
X485525D01*
X482985Y717299D01*
Y727455D01*
X500760Y712220D02*
X503299Y714759D01*
Y717299D01*
X500760D01*
Y714759D01*
X503299D01*
X500760Y712220D01*
X498221Y709681D01*
X523612Y714759D02*
X513456D01*
X523612Y724916D01*
Y727455D01*
X521073Y729994D01*
X515995D01*
X513456Y727455D01*
X528691D02*
X531230Y729994D01*
X536308D01*
X538847Y727455D01*
Y717299D01*
X536308Y714759D01*
X531230D01*
X528691Y717299D01*
Y727455D01*
X963052Y897639D02*
X952895D01*
X963052Y907796D01*
Y910335D01*
X960512Y912874D01*
X955434D01*
X952895Y910335D01*
X968130D02*
X970669Y912874D01*
X975748D01*
X978287Y910335D01*
Y900179D01*
X975748Y897639D01*
X970669D01*
X968130Y900179D01*
Y910335D01*
X983365D02*
X985904Y912874D01*
X990983D01*
X993522Y910335D01*
Y900179D01*
X990983Y897639D01*
X985904D01*
X983365Y900179D01*
Y910335D01*
X1001139Y895100D02*
X1003679Y897639D01*
Y900179D01*
X1001139D01*
Y897639D01*
X1003679D01*
X1001139Y895100D01*
X998600Y892561D01*
X1013835Y910335D02*
X1016374Y912874D01*
X1021453D01*
X1023992Y910335D01*
Y900179D01*
X1021453Y897639D01*
X1016374D01*
X1013835Y900179D01*
Y910335D01*
X1029070D02*
X1031609Y912874D01*
X1036688D01*
X1039227Y910335D01*
Y907796D01*
X1036688Y905257D01*
X1034149D01*
X1036688D01*
X1039227Y902718D01*
Y900179D01*
X1036688Y897639D01*
X1031609D01*
X1029070Y900179D01*
M02*
